%TF.GenerationSoftware,KiCad,Pcbnew,8.0.2-1*%
%TF.CreationDate,2024-05-26T22:58:53-07:00*%
%TF.ProjectId,PicoROM,5069636f-524f-44d2-9e6b-696361645f70,1.1*%
%TF.SameCoordinates,Original*%
%TF.FileFunction,Copper,L3,Inr*%
%TF.FilePolarity,Positive*%
%FSLAX46Y46*%
G04 Gerber Fmt 4.6, Leading zero omitted, Abs format (unit mm)*
G04 Created by KiCad (PCBNEW 8.0.2-1) date 2024-05-26 22:58:53*
%MOMM*%
%LPD*%
G01*
G04 APERTURE LIST*
%TA.AperFunction,ComponentPad*%
%ADD10C,0.600000*%
%TD*%
%TA.AperFunction,ComponentPad*%
%ADD11C,1.100000*%
%TD*%
%TA.AperFunction,ComponentPad*%
%ADD12R,1.700000X1.700000*%
%TD*%
%TA.AperFunction,ComponentPad*%
%ADD13O,1.700000X1.700000*%
%TD*%
%TA.AperFunction,ComponentPad*%
%ADD14C,1.700000*%
%TD*%
%TA.AperFunction,ViaPad*%
%ADD15C,0.300000*%
%TD*%
G04 APERTURE END LIST*
D10*
%TO.N,GND*%
%TO.C,U3*%
X-41576063Y29831244D03*
X-42477624Y28929683D03*
X-43379185Y28028122D03*
X-40674502Y28929683D03*
X-41576063Y28028122D03*
X-42477624Y27126561D03*
X-39772941Y28028122D03*
X-40674502Y27126561D03*
X-41576063Y26225000D03*
%TD*%
D11*
%TO.N,GND*%
%TO.C,J1*%
X-38105000Y52450000D03*
X-38105000Y56750000D03*
X-42905000Y52450000D03*
X-42905000Y56750000D03*
%TD*%
D12*
%TO.N,/EXT_RESET*%
%TO.C,J2*%
X-36425000Y43990000D03*
D13*
%TO.N,/~{USB_BOOT}*%
X-36425000Y46530000D03*
%TO.N,GND*%
X-36425000Y49070000D03*
%TD*%
D14*
%TO.N,/VSYS*%
%TO.C,J4*%
X-32766000Y55718000D03*
D13*
%TO.N,unconnected-(J4-Pin_2-Pad2)*%
X-32766000Y53178000D03*
%TO.N,/PIN_A17*%
X-32766000Y50638000D03*
%TO.N,/PIN_A14*%
X-32766000Y48098000D03*
%TO.N,/PIN_A13*%
X-32766000Y45558000D03*
%TO.N,/PIN_A8*%
X-32766000Y43018000D03*
%TO.N,/PIN_A9*%
X-32766000Y40478000D03*
%TO.N,/PIN_A11*%
X-32766000Y37938000D03*
%TO.N,/~{PIN_OE}*%
X-32766000Y35398000D03*
%TO.N,/PIN_A10*%
X-32766000Y32858000D03*
%TO.N,/~{PIN_CE}*%
X-32766000Y30318000D03*
%TO.N,/PIN_D7*%
X-32766000Y27778000D03*
%TO.N,/PIN_D6*%
X-32766000Y25238000D03*
%TO.N,/PIN_D5*%
X-32766000Y22698000D03*
%TO.N,/PIN_D4*%
X-32766000Y20158000D03*
%TO.N,/PIN_D3*%
X-32766000Y17618000D03*
%TD*%
D14*
%TO.N,unconnected-(J3-Pin_1-Pad1)*%
%TO.C,J3*%
X-48205000Y55749000D03*
D13*
%TO.N,/PIN_A16*%
X-48205000Y53209000D03*
%TO.N,/PIN_A15*%
X-48205000Y50669000D03*
%TO.N,/PIN_A12*%
X-48205000Y48129000D03*
%TO.N,/PIN_A7*%
X-48205000Y45589000D03*
%TO.N,/PIN_A6*%
X-48205000Y43049000D03*
%TO.N,/PIN_A5*%
X-48205000Y40509000D03*
%TO.N,/PIN_A4*%
X-48205000Y37969000D03*
%TO.N,/PIN_A3*%
X-48205000Y35429000D03*
%TO.N,/PIN_A2*%
X-48205000Y32889000D03*
%TO.N,/PIN_A1*%
X-48205000Y30349000D03*
%TO.N,/PIN_A0*%
X-48205000Y27809000D03*
%TO.N,/PIN_D0*%
X-48205000Y25269000D03*
%TO.N,/PIN_D1*%
X-48205000Y22729000D03*
%TO.N,/PIN_D2*%
X-48205000Y20189000D03*
%TO.N,GND*%
X-48205000Y17649000D03*
%TD*%
D15*
%TO.N,GND*%
X-44095000Y45440000D03*
X-35305000Y23640000D03*
X-40105000Y51300000D03*
X-45165000Y31940000D03*
X-40365000Y42300000D03*
X-43425000Y38430000D03*
X-43545000Y46560000D03*
X-45195000Y25340000D03*
X-35695000Y26740000D03*
X-42615000Y21870000D03*
X-44675000Y43130000D03*
X-43645000Y53700000D03*
X-38395000Y46700000D03*
X-34725000Y28130000D03*
X-36245000Y39640000D03*
X-46305000Y52800000D03*
X-36855000Y35210000D03*
X-37325000Y32550000D03*
X-43545000Y46000000D03*
X-44055000Y47060000D03*
X-43505000Y47060000D03*
X-38535000Y45290000D03*
X-43425000Y22740000D03*
X-40585000Y21230000D03*
X-38495000Y33760000D03*
X-34785000Y29250000D03*
X-45365000Y33820000D03*
X-38405000Y46130000D03*
X-43505000Y37700000D03*
X-44085000Y46010000D03*
X-46145000Y20520000D03*
X-44345000Y32870000D03*
X-44055000Y46560000D03*
X-43545000Y45400000D03*
X-37305000Y55810000D03*
X-35935000Y32320000D03*
X-36225000Y31140000D03*
X-37945000Y25620000D03*
X-39637488Y21370857D03*
X-34705000Y52900000D03*
X-39805000Y20300000D03*
X-45005000Y51700000D03*
X-43635000Y55490000D03*
X-35755000Y56670000D03*
X-37265000Y53610000D03*
X-43815000Y44960000D03*
X-39895000Y21770000D03*
X-45141867Y43217537D03*
X-46205000Y51280000D03*
X-38535000Y47880000D03*
X-39455000Y33810000D03*
X-38415000Y47300000D03*
%TO.N,+3V3*%
X-42045000Y49260000D03*
X-45925000Y30260000D03*
X-35456686Y28048439D03*
X-37535000Y22670000D03*
X-43505000Y32500000D03*
X-46055000Y43150000D03*
X-36615000Y27320000D03*
X-40185000Y22770000D03*
X-41105000Y50210000D03*
X-41705000Y49600000D03*
X-43505000Y43400000D03*
X-38705000Y43390000D03*
X-41145000Y49470000D03*
X-36859222Y32456844D03*
X-44015000Y23310000D03*
X-37305000Y31230000D03*
X-41605000Y50810000D03*
X-43425000Y40400000D03*
X-41065000Y51260000D03*
X-35145000Y27690000D03*
X-40905000Y50710000D03*
%TO.N,Net-(J1-CC1)*%
X-38995000Y54610000D03*
%TO.N,/USB_D-*%
X-40575000Y53900000D03*
X-39755000Y54590000D03*
X-38305000Y51270000D03*
%TO.N,Net-(J1-CC2)*%
X-41305000Y54600000D03*
%TO.N,/A16*%
X-42485000Y25250000D03*
%TO.N,/A15*%
X-44395000Y27180000D03*
%TO.N,/A12*%
X-44136156Y28648224D03*
%TO.N,/A7*%
X-43675619Y29259655D03*
%TO.N,/A6*%
X-43200939Y29277154D03*
%TO.N,/A5*%
X-42835000Y29580000D03*
%TO.N,/A4*%
X-42415000Y29920000D03*
%TO.N,/A3*%
X-41115000Y30419994D03*
%TO.N,/A2*%
X-41115000Y30894997D03*
%TO.N,/A1*%
X-41115000Y31370000D03*
%TO.N,/A0*%
X-44455000Y34710000D03*
%TO.N,/A17*%
X-42225000Y23110000D03*
%TO.N,/A14*%
X-45923038Y26133331D03*
%TO.N,/A13*%
X-46225000Y26500000D03*
%TO.N,/A8*%
X-44575000Y28830000D03*
%TO.N,/A9*%
X-44985000Y28400000D03*
%TO.N,/A11*%
X-46513226Y29287977D03*
%TO.N,/~{OE}*%
X-44425000Y36630000D03*
X-47145000Y23570000D03*
X-41095000Y24860000D03*
%TO.N,/A10*%
X-46245000Y29680000D03*
%TO.N,/~{CE}*%
X-41175000Y25350000D03*
X-49235000Y24280000D03*
X-44455000Y35360000D03*
%TO.N,/PIN_A1*%
X-45925000Y32730000D03*
%TO.N,/PIN_A2*%
X-45225000Y32770000D03*
%TO.N,/PIN_A5*%
X-46415000Y46550000D03*
%TO.N,/~{BUF_OE}*%
X-40395000Y22310000D03*
X-35215000Y18920000D03*
%TO.N,/PIN_A3*%
X-46515000Y44840000D03*
%TO.N,/VSYS*%
X-34505000Y22500000D03*
%TO.N,/PIN_A4*%
X-46945000Y41780000D03*
%TO.N,/EXT_RESET*%
X-36885000Y39640000D03*
%TO.N,/INFO_LED2*%
X-45805000Y56400000D03*
%TO.N,/INFO_LED1*%
X-34005000Y27500000D03*
%TO.N,/IO_EXPAND*%
X-40885000Y23210000D03*
%TO.N,/EXT_RESET_VALUE*%
X-36095000Y32800000D03*
X-36384277Y35273611D03*
%TO.N,/EXT_RESET_EN*%
X-35971913Y33258778D03*
X-35895000Y35300000D03*
%TD*%
%TA.AperFunction,Conductor*%
%TO.N,+3V3*%
G36*
X-31895143Y57501633D02*
G01*
X-31737843Y57486174D01*
X-31714002Y57481437D01*
X-31637445Y57458229D01*
X-31568606Y57437361D01*
X-31546144Y57428062D01*
X-31412132Y57356459D01*
X-31391922Y57342960D01*
X-31274457Y57246587D01*
X-31257269Y57229403D01*
X-31160870Y57111966D01*
X-31147362Y57091754D01*
X-31075728Y56957766D01*
X-31066426Y56935313D01*
X-31022310Y56789916D01*
X-31017568Y56766078D01*
X-31002098Y56609076D01*
X-31001500Y56596917D01*
X-31001500Y16845093D01*
X-31002097Y16832938D01*
X-31017587Y16675671D01*
X-31022329Y16651831D01*
X-31066425Y16506463D01*
X-31075728Y16484004D01*
X-31147337Y16350035D01*
X-31160841Y16329825D01*
X-31257209Y16212399D01*
X-31274399Y16195209D01*
X-31391825Y16098841D01*
X-31412035Y16085337D01*
X-31546004Y16013728D01*
X-31568463Y16004425D01*
X-31713831Y15960329D01*
X-31737671Y15955587D01*
X-31853575Y15944172D01*
X-31894940Y15940097D01*
X-31907093Y15939500D01*
X-49001291Y15939500D01*
X-49001303Y15939501D01*
X-49052797Y15939501D01*
X-49064950Y15940098D01*
X-49222229Y15955587D01*
X-49246072Y15960330D01*
X-49391446Y16004430D01*
X-49413905Y16013733D01*
X-49547882Y16085348D01*
X-49568095Y16098854D01*
X-49685530Y16195237D01*
X-49702719Y16212428D01*
X-49799087Y16329864D01*
X-49812592Y16350078D01*
X-49884198Y16484065D01*
X-49893499Y16506525D01*
X-49937586Y16651901D01*
X-49942327Y16675743D01*
X-49957787Y16832846D01*
X-49958382Y16844979D01*
X-49958302Y17649000D01*
X-49260583Y17649000D01*
X-49240301Y17443068D01*
X-49210266Y17344056D01*
X-49180232Y17245046D01*
X-49082685Y17062550D01*
X-49082683Y17062548D01*
X-48951411Y16902590D01*
X-48866538Y16832938D01*
X-48791450Y16771315D01*
X-48608954Y16673768D01*
X-48410934Y16613700D01*
X-48410935Y16613700D01*
X-48392471Y16611882D01*
X-48205000Y16593417D01*
X-47999066Y16613700D01*
X-47801046Y16673768D01*
X-47618550Y16771315D01*
X-47458590Y16902590D01*
X-47327315Y17062550D01*
X-47229768Y17245046D01*
X-47169700Y17443066D01*
X-47152470Y17618000D01*
X-33821583Y17618000D01*
X-33801301Y17412068D01*
X-33801300Y17412066D01*
X-33741232Y17214046D01*
X-33643685Y17031550D01*
X-33643683Y17031548D01*
X-33512411Y16871590D01*
X-33465187Y16832835D01*
X-33352450Y16740315D01*
X-33169954Y16642768D01*
X-32971934Y16582700D01*
X-32971935Y16582700D01*
X-32953471Y16580882D01*
X-32766000Y16562417D01*
X-32560066Y16582700D01*
X-32362046Y16642768D01*
X-32179550Y16740315D01*
X-32019590Y16871590D01*
X-31888315Y17031550D01*
X-31790768Y17214046D01*
X-31730700Y17412066D01*
X-31710417Y17618000D01*
X-31730700Y17823934D01*
X-31790768Y18021954D01*
X-31888315Y18204450D01*
X-31940298Y18267791D01*
X-32019590Y18364411D01*
X-32179548Y18495683D01*
X-32179547Y18495683D01*
X-32179550Y18495685D01*
X-32362046Y18593232D01*
X-32560066Y18653300D01*
X-32560068Y18653301D01*
X-32560066Y18653301D01*
X-32766000Y18673583D01*
X-32971933Y18653301D01*
X-33169957Y18593231D01*
X-33222527Y18565131D01*
X-33352450Y18495685D01*
X-33352452Y18495684D01*
X-33352453Y18495683D01*
X-33512411Y18364411D01*
X-33643683Y18204453D01*
X-33741231Y18021957D01*
X-33801301Y17823933D01*
X-33821583Y17618000D01*
X-47152470Y17618000D01*
X-47149417Y17649000D01*
X-47169700Y17854934D01*
X-47229768Y18052954D01*
X-47327315Y18235450D01*
X-47433149Y18364410D01*
X-47458590Y18395411D01*
X-47618548Y18526683D01*
X-47618547Y18526683D01*
X-47618550Y18526685D01*
X-47801046Y18624232D01*
X-47999066Y18684300D01*
X-47999068Y18684301D01*
X-47999066Y18684301D01*
X-48205000Y18704583D01*
X-48410933Y18684301D01*
X-48608957Y18624231D01*
X-48719102Y18565357D01*
X-48791450Y18526685D01*
X-48791452Y18526684D01*
X-48791453Y18526683D01*
X-48951411Y18395411D01*
X-49082683Y18235453D01*
X-49180231Y18052957D01*
X-49240301Y17854933D01*
X-49260583Y17649000D01*
X-49958302Y17649000D01*
X-49958176Y18920003D01*
X-35569869Y18920003D01*
X-35569869Y18919998D01*
X-35552502Y18810342D01*
X-35502096Y18711415D01*
X-35502091Y18711408D01*
X-35423593Y18632910D01*
X-35423590Y18632908D01*
X-35423587Y18632905D01*
X-35345724Y18593232D01*
X-35324659Y18582499D01*
X-35215002Y18565131D01*
X-35215000Y18565131D01*
X-35214998Y18565131D01*
X-35105342Y18582499D01*
X-35105341Y18582500D01*
X-35105339Y18582500D01*
X-35006413Y18632905D01*
X-34927905Y18711413D01*
X-34877500Y18810339D01*
X-34877500Y18810341D01*
X-34877499Y18810342D01*
X-34860131Y18919998D01*
X-34860131Y18920003D01*
X-34877499Y19029659D01*
X-34914571Y19102417D01*
X-34927905Y19128587D01*
X-34927908Y19128590D01*
X-34927910Y19128593D01*
X-35006408Y19207091D01*
X-35006412Y19207094D01*
X-35006413Y19207095D01*
X-35010257Y19209054D01*
X-35105342Y19257502D01*
X-35214998Y19274869D01*
X-35215002Y19274869D01*
X-35324659Y19257502D01*
X-35423586Y19207096D01*
X-35423593Y19207091D01*
X-35502091Y19128593D01*
X-35502096Y19128586D01*
X-35552502Y19029659D01*
X-35569869Y18920003D01*
X-49958176Y18920003D01*
X-49958050Y20189000D01*
X-49260583Y20189000D01*
X-49240301Y19983068D01*
X-49228793Y19945131D01*
X-49180232Y19785046D01*
X-49082685Y19602550D01*
X-49082683Y19602548D01*
X-48951411Y19442590D01*
X-48854791Y19363298D01*
X-48791450Y19311315D01*
X-48608954Y19213768D01*
X-48410934Y19153700D01*
X-48410935Y19153700D01*
X-48392471Y19151882D01*
X-48205000Y19133417D01*
X-47999066Y19153700D01*
X-47801046Y19213768D01*
X-47618550Y19311315D01*
X-47458590Y19442590D01*
X-47327315Y19602550D01*
X-47229768Y19785046D01*
X-47169700Y19983066D01*
X-47149417Y20189000D01*
X-47169700Y20394934D01*
X-47207639Y20520003D01*
X-46499869Y20520003D01*
X-46499869Y20519998D01*
X-46482502Y20410342D01*
X-46432096Y20311415D01*
X-46432091Y20311408D01*
X-46353593Y20232910D01*
X-46353590Y20232908D01*
X-46353587Y20232905D01*
X-46270052Y20190342D01*
X-46254659Y20182499D01*
X-46145002Y20165131D01*
X-46145000Y20165131D01*
X-46144998Y20165131D01*
X-46035342Y20182499D01*
X-46035341Y20182500D01*
X-46035339Y20182500D01*
X-45936413Y20232905D01*
X-45869315Y20300003D01*
X-40159869Y20300003D01*
X-40159869Y20299998D01*
X-40142502Y20190342D01*
X-40092096Y20091415D01*
X-40092091Y20091408D01*
X-40013593Y20012910D01*
X-40013590Y20012908D01*
X-40013587Y20012905D01*
X-39955028Y19983068D01*
X-39914659Y19962499D01*
X-39805002Y19945131D01*
X-39805000Y19945131D01*
X-39804998Y19945131D01*
X-39695342Y19962499D01*
X-39695341Y19962500D01*
X-39695339Y19962500D01*
X-39596413Y20012905D01*
X-39517905Y20091413D01*
X-39483977Y20158000D01*
X-33821583Y20158000D01*
X-33801301Y19952068D01*
X-33771266Y19853056D01*
X-33741232Y19754046D01*
X-33643685Y19571550D01*
X-33643683Y19571548D01*
X-33512411Y19411590D01*
X-33415791Y19332298D01*
X-33352450Y19280315D01*
X-33169954Y19182768D01*
X-32971934Y19122700D01*
X-32971935Y19122700D01*
X-32953471Y19120882D01*
X-32766000Y19102417D01*
X-32560066Y19122700D01*
X-32362046Y19182768D01*
X-32179550Y19280315D01*
X-32019590Y19411590D01*
X-31888315Y19571550D01*
X-31790768Y19754046D01*
X-31730700Y19952066D01*
X-31710417Y20158000D01*
X-31730700Y20363934D01*
X-31790768Y20561954D01*
X-31888315Y20744450D01*
X-31981092Y20857500D01*
X-32019590Y20904411D01*
X-32155549Y21015988D01*
X-32179550Y21035685D01*
X-32362046Y21133232D01*
X-32560066Y21193300D01*
X-32560068Y21193301D01*
X-32560066Y21193301D01*
X-32766000Y21213583D01*
X-32971933Y21193301D01*
X-33169957Y21133231D01*
X-33262496Y21083767D01*
X-33352450Y21035685D01*
X-33352452Y21035684D01*
X-33352453Y21035683D01*
X-33512411Y20904411D01*
X-33643683Y20744453D01*
X-33643685Y20744450D01*
X-33682357Y20672102D01*
X-33741231Y20561957D01*
X-33801301Y20363933D01*
X-33821583Y20158000D01*
X-39483977Y20158000D01*
X-39467500Y20190339D01*
X-39467500Y20190341D01*
X-39467499Y20190342D01*
X-39450131Y20299998D01*
X-39450131Y20300003D01*
X-39467499Y20409659D01*
X-39467847Y20410342D01*
X-39517905Y20508587D01*
X-39517908Y20508590D01*
X-39517910Y20508593D01*
X-39596408Y20587091D01*
X-39596412Y20587094D01*
X-39596413Y20587095D01*
X-39607918Y20592957D01*
X-39695342Y20637502D01*
X-39804998Y20654869D01*
X-39805002Y20654869D01*
X-39914659Y20637502D01*
X-40013586Y20587096D01*
X-40013593Y20587091D01*
X-40092091Y20508593D01*
X-40092096Y20508586D01*
X-40142502Y20409659D01*
X-40159869Y20300003D01*
X-45869315Y20300003D01*
X-45857905Y20311413D01*
X-45807500Y20410339D01*
X-45807500Y20410341D01*
X-45807499Y20410342D01*
X-45790131Y20519998D01*
X-45790131Y20520003D01*
X-45807499Y20629659D01*
X-45820344Y20654869D01*
X-45857905Y20728587D01*
X-45857908Y20728590D01*
X-45857910Y20728593D01*
X-45936408Y20807091D01*
X-45936412Y20807094D01*
X-45936413Y20807095D01*
X-45940257Y20809054D01*
X-46035342Y20857502D01*
X-46144998Y20874869D01*
X-46145002Y20874869D01*
X-46254659Y20857502D01*
X-46353586Y20807096D01*
X-46353593Y20807091D01*
X-46432091Y20728593D01*
X-46432096Y20728586D01*
X-46482502Y20629659D01*
X-46499869Y20520003D01*
X-47207639Y20520003D01*
X-47229768Y20592954D01*
X-47327315Y20775450D01*
X-47394653Y20857502D01*
X-47458590Y20935411D01*
X-47618548Y21066683D01*
X-47618547Y21066683D01*
X-47618550Y21066685D01*
X-47801046Y21164232D01*
X-47999066Y21224300D01*
X-47999068Y21224301D01*
X-47999066Y21224301D01*
X-48056961Y21230003D01*
X-40939869Y21230003D01*
X-40939869Y21229998D01*
X-40922502Y21120342D01*
X-40872096Y21021415D01*
X-40872091Y21021408D01*
X-40793593Y20942910D01*
X-40793590Y20942908D01*
X-40793587Y20942905D01*
X-40718038Y20904411D01*
X-40694659Y20892499D01*
X-40585002Y20875131D01*
X-40585000Y20875131D01*
X-40584998Y20875131D01*
X-40475342Y20892499D01*
X-40475341Y20892500D01*
X-40475339Y20892500D01*
X-40376413Y20942905D01*
X-40297905Y21021413D01*
X-40247500Y21120339D01*
X-40247500Y21120341D01*
X-40247499Y21120342D01*
X-40230131Y21229998D01*
X-40230131Y21230002D01*
X-40246742Y21334877D01*
X-40237788Y21404170D01*
X-40192792Y21457622D01*
X-40126040Y21478262D01*
X-40067971Y21464758D01*
X-40058190Y21459774D01*
X-40007396Y21411799D01*
X-39992015Y21368690D01*
X-39974990Y21261199D01*
X-39924584Y21162272D01*
X-39924579Y21162265D01*
X-39846081Y21083767D01*
X-39846078Y21083765D01*
X-39846075Y21083762D01*
X-39812559Y21066685D01*
X-39747147Y21033356D01*
X-39637490Y21015988D01*
X-39637488Y21015988D01*
X-39637486Y21015988D01*
X-39527830Y21033356D01*
X-39527829Y21033357D01*
X-39527827Y21033357D01*
X-39428901Y21083762D01*
X-39350393Y21162270D01*
X-39299988Y21261196D01*
X-39299988Y21261198D01*
X-39299987Y21261199D01*
X-39282619Y21370855D01*
X-39282619Y21370860D01*
X-39299987Y21480516D01*
X-39318625Y21517095D01*
X-39350393Y21579444D01*
X-39350396Y21579447D01*
X-39350398Y21579450D01*
X-39428896Y21657948D01*
X-39428899Y21657950D01*
X-39428901Y21657952D01*
X-39474298Y21681083D01*
X-39525093Y21729057D01*
X-39540475Y21772170D01*
X-39557499Y21879658D01*
X-39557500Y21879660D01*
X-39557500Y21879661D01*
X-39607905Y21978587D01*
X-39607908Y21978590D01*
X-39607910Y21978593D01*
X-39686408Y22057091D01*
X-39686412Y22057094D01*
X-39686413Y22057095D01*
X-39690257Y22059054D01*
X-39785342Y22107502D01*
X-39894998Y22124869D01*
X-39895000Y22124869D01*
X-39905375Y22123226D01*
X-39974668Y22132183D01*
X-40028119Y22177180D01*
X-40048757Y22243932D01*
X-40047243Y22265099D01*
X-40040131Y22310000D01*
X-40040131Y22310003D01*
X-40057499Y22419659D01*
X-40094393Y22492068D01*
X-40098436Y22500003D01*
X-34859869Y22500003D01*
X-34859869Y22499998D01*
X-34842502Y22390342D01*
X-34792096Y22291415D01*
X-34792091Y22291408D01*
X-34713593Y22212910D01*
X-34713590Y22212908D01*
X-34713587Y22212905D01*
X-34643472Y22177180D01*
X-34614659Y22162499D01*
X-34505002Y22145131D01*
X-34505000Y22145131D01*
X-34504998Y22145131D01*
X-34395342Y22162499D01*
X-34395341Y22162500D01*
X-34395339Y22162500D01*
X-34296413Y22212905D01*
X-34217905Y22291413D01*
X-34167500Y22390339D01*
X-34167500Y22390341D01*
X-34167499Y22390342D01*
X-34150131Y22499998D01*
X-34150131Y22500003D01*
X-34167499Y22609659D01*
X-34178036Y22630339D01*
X-34212511Y22698000D01*
X-33821583Y22698000D01*
X-33801301Y22492068D01*
X-33771266Y22393056D01*
X-33741232Y22294046D01*
X-33643685Y22111550D01*
X-33616638Y22078593D01*
X-33512411Y21951590D01*
X-33452992Y21902827D01*
X-33352450Y21820315D01*
X-33169954Y21722768D01*
X-32971934Y21662700D01*
X-32971935Y21662700D01*
X-32953471Y21660882D01*
X-32766000Y21642417D01*
X-32560066Y21662700D01*
X-32362046Y21722768D01*
X-32179550Y21820315D01*
X-32019590Y21951590D01*
X-31888315Y22111550D01*
X-31790768Y22294046D01*
X-31730700Y22492066D01*
X-31710417Y22698000D01*
X-31730700Y22903934D01*
X-31790768Y23101954D01*
X-31888315Y23284450D01*
X-31951472Y23361408D01*
X-32019590Y23444411D01*
X-32166371Y23564869D01*
X-32179550Y23575685D01*
X-32362046Y23673232D01*
X-32560066Y23733300D01*
X-32560068Y23733301D01*
X-32560066Y23733301D01*
X-32766000Y23753583D01*
X-32971933Y23733301D01*
X-33169957Y23673231D01*
X-33280102Y23614357D01*
X-33352450Y23575685D01*
X-33352452Y23575684D01*
X-33352453Y23575683D01*
X-33512411Y23444411D01*
X-33643683Y23284453D01*
X-33643685Y23284450D01*
X-33671453Y23232500D01*
X-33741231Y23101957D01*
X-33801301Y22903933D01*
X-33821583Y22698000D01*
X-34212511Y22698000D01*
X-34217905Y22708587D01*
X-34217908Y22708590D01*
X-34217910Y22708593D01*
X-34296408Y22787091D01*
X-34296412Y22787094D01*
X-34296413Y22787095D01*
X-34300257Y22789054D01*
X-34395342Y22837502D01*
X-34504998Y22854869D01*
X-34505002Y22854869D01*
X-34614659Y22837502D01*
X-34713586Y22787096D01*
X-34713593Y22787091D01*
X-34792091Y22708593D01*
X-34792096Y22708586D01*
X-34842502Y22609659D01*
X-34859869Y22500003D01*
X-40098436Y22500003D01*
X-40107905Y22518587D01*
X-40107908Y22518590D01*
X-40107910Y22518593D01*
X-40186408Y22597091D01*
X-40186412Y22597094D01*
X-40186413Y22597095D01*
X-40251664Y22630342D01*
X-40285342Y22647502D01*
X-40394998Y22664869D01*
X-40395002Y22664869D01*
X-40504659Y22647502D01*
X-40603586Y22597096D01*
X-40603593Y22597091D01*
X-40682091Y22518593D01*
X-40682096Y22518586D01*
X-40732502Y22419659D01*
X-40749869Y22310003D01*
X-40749869Y22309998D01*
X-40732502Y22200342D01*
X-40682096Y22101415D01*
X-40682091Y22101408D01*
X-40603593Y22022910D01*
X-40603590Y22022908D01*
X-40603587Y22022905D01*
X-40504661Y21972500D01*
X-40504659Y21972499D01*
X-40433286Y21961195D01*
X-40395000Y21955131D01*
X-40384630Y21956774D01*
X-40315339Y21947821D01*
X-40261886Y21902827D01*
X-40241244Y21836076D01*
X-40242757Y21814904D01*
X-40249869Y21769998D01*
X-40249869Y21769997D01*
X-40233259Y21665123D01*
X-40242214Y21595830D01*
X-40287210Y21542378D01*
X-40353962Y21521739D01*
X-40412026Y21535241D01*
X-40475342Y21567502D01*
X-40584998Y21584869D01*
X-40585002Y21584869D01*
X-40694659Y21567502D01*
X-40793586Y21517096D01*
X-40793593Y21517091D01*
X-40872091Y21438593D01*
X-40872096Y21438586D01*
X-40922502Y21339659D01*
X-40939869Y21230003D01*
X-48056961Y21230003D01*
X-48205000Y21244583D01*
X-48410933Y21224301D01*
X-48608957Y21164231D01*
X-48719102Y21105357D01*
X-48791450Y21066685D01*
X-48791452Y21066684D01*
X-48791453Y21066683D01*
X-48951411Y20935411D01*
X-49082683Y20775453D01*
X-49082685Y20775450D01*
X-49121357Y20703102D01*
X-49180231Y20592957D01*
X-49180232Y20592955D01*
X-49180232Y20592954D01*
X-49187102Y20570308D01*
X-49240301Y20394933D01*
X-49260583Y20189000D01*
X-49958050Y20189000D01*
X-49957798Y22729000D01*
X-49260583Y22729000D01*
X-49240301Y22523068D01*
X-49219019Y22452910D01*
X-49180232Y22325046D01*
X-49082685Y22142550D01*
X-49066826Y22123226D01*
X-48951411Y21982590D01*
X-48909044Y21947821D01*
X-48791450Y21851315D01*
X-48608954Y21753768D01*
X-48410934Y21693700D01*
X-48410935Y21693700D01*
X-48392471Y21691882D01*
X-48205000Y21673417D01*
X-47999066Y21693700D01*
X-47801046Y21753768D01*
X-47618550Y21851315D01*
X-47595778Y21870003D01*
X-42969869Y21870003D01*
X-42969869Y21869998D01*
X-42952502Y21760342D01*
X-42902096Y21661415D01*
X-42902091Y21661408D01*
X-42823593Y21582910D01*
X-42823590Y21582908D01*
X-42823587Y21582905D01*
X-42724661Y21532500D01*
X-42724659Y21532499D01*
X-42615002Y21515131D01*
X-42615000Y21515131D01*
X-42614998Y21515131D01*
X-42505342Y21532499D01*
X-42505341Y21532500D01*
X-42505339Y21532500D01*
X-42406413Y21582905D01*
X-42327905Y21661413D01*
X-42277500Y21760339D01*
X-42277500Y21760341D01*
X-42277499Y21760342D01*
X-42260131Y21869998D01*
X-42260131Y21870003D01*
X-42277499Y21979659D01*
X-42299534Y22022905D01*
X-42327905Y22078587D01*
X-42327908Y22078590D01*
X-42327910Y22078593D01*
X-42406408Y22157091D01*
X-42406412Y22157094D01*
X-42406413Y22157095D01*
X-42445832Y22177180D01*
X-42505342Y22207502D01*
X-42614998Y22224869D01*
X-42615002Y22224869D01*
X-42724659Y22207502D01*
X-42823586Y22157096D01*
X-42823593Y22157091D01*
X-42902091Y22078593D01*
X-42902096Y22078586D01*
X-42952502Y21979659D01*
X-42969869Y21870003D01*
X-47595778Y21870003D01*
X-47458590Y21982590D01*
X-47327315Y22142550D01*
X-47229768Y22325046D01*
X-47169700Y22523066D01*
X-47149417Y22729000D01*
X-47150501Y22740003D01*
X-43779869Y22740003D01*
X-43779869Y22739998D01*
X-43762502Y22630342D01*
X-43712096Y22531415D01*
X-43712091Y22531408D01*
X-43633593Y22452910D01*
X-43633590Y22452908D01*
X-43633587Y22452905D01*
X-43534661Y22402500D01*
X-43534659Y22402499D01*
X-43425002Y22385131D01*
X-43425000Y22385131D01*
X-43424998Y22385131D01*
X-43315342Y22402499D01*
X-43315341Y22402500D01*
X-43315339Y22402500D01*
X-43216413Y22452905D01*
X-43137905Y22531413D01*
X-43087500Y22630339D01*
X-43087500Y22630341D01*
X-43087499Y22630342D01*
X-43070131Y22739998D01*
X-43070131Y22740003D01*
X-43087499Y22849659D01*
X-43090287Y22855131D01*
X-43137905Y22948587D01*
X-43137908Y22948590D01*
X-43137910Y22948593D01*
X-43216408Y23027091D01*
X-43216412Y23027094D01*
X-43216413Y23027095D01*
X-43285605Y23062350D01*
X-43315342Y23077502D01*
X-43424998Y23094869D01*
X-43425002Y23094869D01*
X-43534659Y23077502D01*
X-43633586Y23027096D01*
X-43633593Y23027091D01*
X-43712091Y22948593D01*
X-43712096Y22948586D01*
X-43762502Y22849659D01*
X-43779869Y22740003D01*
X-47150501Y22740003D01*
X-47169700Y22934934D01*
X-47208353Y23062355D01*
X-47208777Y23110003D01*
X-42579869Y23110003D01*
X-42579869Y23109998D01*
X-42562502Y23000342D01*
X-42562500Y23000339D01*
X-42513380Y22903934D01*
X-42512096Y22901415D01*
X-42512091Y22901408D01*
X-42433593Y22822910D01*
X-42433590Y22822908D01*
X-42433587Y22822905D01*
X-42334661Y22772500D01*
X-42334659Y22772499D01*
X-42225002Y22755131D01*
X-42225000Y22755131D01*
X-42224998Y22755131D01*
X-42115342Y22772499D01*
X-42115341Y22772500D01*
X-42115339Y22772500D01*
X-42016413Y22822905D01*
X-41937905Y22901413D01*
X-41887500Y23000339D01*
X-41887500Y23000341D01*
X-41887499Y23000342D01*
X-41870131Y23109998D01*
X-41870131Y23110003D01*
X-41885970Y23210003D01*
X-41239869Y23210003D01*
X-41239869Y23209998D01*
X-41222502Y23100342D01*
X-41172096Y23001415D01*
X-41172091Y23001408D01*
X-41093593Y22922910D01*
X-41093590Y22922908D01*
X-41093587Y22922905D01*
X-41051410Y22901415D01*
X-40994659Y22872499D01*
X-40885002Y22855131D01*
X-40885000Y22855131D01*
X-40884998Y22855131D01*
X-40775342Y22872499D01*
X-40775341Y22872500D01*
X-40775339Y22872500D01*
X-40676413Y22922905D01*
X-40597905Y23001413D01*
X-40547500Y23100339D01*
X-40547500Y23100341D01*
X-40547499Y23100342D01*
X-40530131Y23209998D01*
X-40530131Y23210003D01*
X-40547499Y23319659D01*
X-40568775Y23361415D01*
X-40597905Y23418587D01*
X-40597908Y23418590D01*
X-40597910Y23418593D01*
X-40676408Y23497091D01*
X-40676412Y23497094D01*
X-40676413Y23497095D01*
X-40741664Y23530342D01*
X-40775342Y23547502D01*
X-40884998Y23564869D01*
X-40885002Y23564869D01*
X-40994659Y23547502D01*
X-41093586Y23497096D01*
X-41093593Y23497091D01*
X-41172091Y23418593D01*
X-41172096Y23418586D01*
X-41222502Y23319659D01*
X-41239869Y23210003D01*
X-41885970Y23210003D01*
X-41887499Y23219659D01*
X-41904145Y23252328D01*
X-41937905Y23318587D01*
X-41937908Y23318590D01*
X-41937910Y23318593D01*
X-42016408Y23397091D01*
X-42016412Y23397094D01*
X-42016413Y23397095D01*
X-42020257Y23399054D01*
X-42115342Y23447502D01*
X-42224998Y23464869D01*
X-42225002Y23464869D01*
X-42334659Y23447502D01*
X-42433586Y23397096D01*
X-42433593Y23397091D01*
X-42512091Y23318593D01*
X-42512096Y23318586D01*
X-42562502Y23219659D01*
X-42579869Y23110003D01*
X-47208777Y23110003D01*
X-47208975Y23132217D01*
X-47171727Y23191330D01*
X-47109088Y23220819D01*
X-47035343Y23232499D01*
X-47035342Y23232500D01*
X-47035339Y23232500D01*
X-46936413Y23282905D01*
X-46857905Y23361413D01*
X-46807500Y23460339D01*
X-46807500Y23460341D01*
X-46807499Y23460342D01*
X-46790131Y23569998D01*
X-46790131Y23570003D01*
X-46801218Y23640003D01*
X-35659869Y23640003D01*
X-35659869Y23639998D01*
X-35642502Y23530342D01*
X-35592096Y23431415D01*
X-35592091Y23431408D01*
X-35513593Y23352910D01*
X-35513590Y23352908D01*
X-35513587Y23352905D01*
X-35440083Y23315453D01*
X-35414659Y23302499D01*
X-35305002Y23285131D01*
X-35305000Y23285131D01*
X-35304998Y23285131D01*
X-35195342Y23302499D01*
X-35195341Y23302500D01*
X-35195339Y23302500D01*
X-35096413Y23352905D01*
X-35017905Y23431413D01*
X-34967500Y23530339D01*
X-34967500Y23530341D01*
X-34967499Y23530342D01*
X-34950131Y23639998D01*
X-34950131Y23640003D01*
X-34967499Y23749659D01*
X-34982238Y23778586D01*
X-35017905Y23848587D01*
X-35017908Y23848590D01*
X-35017910Y23848593D01*
X-35096408Y23927091D01*
X-35096412Y23927094D01*
X-35096413Y23927095D01*
X-35126647Y23942500D01*
X-35195342Y23977502D01*
X-35304998Y23994869D01*
X-35305002Y23994869D01*
X-35414659Y23977502D01*
X-35513586Y23927096D01*
X-35513593Y23927091D01*
X-35592091Y23848593D01*
X-35592096Y23848586D01*
X-35642502Y23749659D01*
X-35659869Y23640003D01*
X-46801218Y23640003D01*
X-46807499Y23679659D01*
X-46820019Y23704231D01*
X-46857905Y23778587D01*
X-46857908Y23778590D01*
X-46857910Y23778593D01*
X-46936408Y23857091D01*
X-46936412Y23857094D01*
X-46936413Y23857095D01*
X-46940257Y23859054D01*
X-47035342Y23907502D01*
X-47144998Y23924869D01*
X-47145002Y23924869D01*
X-47254659Y23907502D01*
X-47353586Y23857096D01*
X-47353593Y23857091D01*
X-47432091Y23778593D01*
X-47432094Y23778589D01*
X-47432095Y23778587D01*
X-47469980Y23704232D01*
X-47483434Y23677827D01*
X-47531408Y23627031D01*
X-47599229Y23610236D01*
X-47652373Y23624764D01*
X-47801044Y23704231D01*
X-47801045Y23704232D01*
X-47801046Y23704232D01*
X-47999066Y23764300D01*
X-47999068Y23764301D01*
X-47999066Y23764301D01*
X-48205000Y23784583D01*
X-48410933Y23764301D01*
X-48608957Y23704231D01*
X-48719102Y23645357D01*
X-48791450Y23606685D01*
X-48791452Y23606684D01*
X-48791453Y23606683D01*
X-48951411Y23475411D01*
X-49082683Y23315453D01*
X-49082685Y23315450D01*
X-49098891Y23285131D01*
X-49180231Y23132957D01*
X-49180232Y23132955D01*
X-49180232Y23132954D01*
X-49187102Y23110308D01*
X-49240301Y22934933D01*
X-49260583Y22729000D01*
X-49957798Y22729000D01*
X-49957644Y24280003D01*
X-49589869Y24280003D01*
X-49589869Y24279998D01*
X-49572502Y24170342D01*
X-49522096Y24071415D01*
X-49522091Y24071408D01*
X-49443593Y23992910D01*
X-49443590Y23992908D01*
X-49443587Y23992905D01*
X-49344661Y23942500D01*
X-49344659Y23942499D01*
X-49235002Y23925131D01*
X-49235000Y23925131D01*
X-49234998Y23925131D01*
X-49125342Y23942499D01*
X-49125341Y23942500D01*
X-49125339Y23942500D01*
X-49026413Y23992905D01*
X-48947905Y24071413D01*
X-48897500Y24170339D01*
X-48897500Y24170341D01*
X-48897499Y24170342D01*
X-48884213Y24254229D01*
X-48854284Y24317364D01*
X-48794973Y24354296D01*
X-48725111Y24353298D01*
X-48703287Y24344191D01*
X-48608954Y24293768D01*
X-48410934Y24233700D01*
X-48410935Y24233700D01*
X-48392471Y24231882D01*
X-48205000Y24213417D01*
X-47999066Y24233700D01*
X-47801046Y24293768D01*
X-47618550Y24391315D01*
X-47458590Y24522590D01*
X-47327315Y24682550D01*
X-47229768Y24865046D01*
X-47169700Y25063066D01*
X-47149417Y25269000D01*
X-47156410Y25340003D01*
X-45549869Y25340003D01*
X-45549869Y25339998D01*
X-45532502Y25230342D01*
X-45482096Y25131415D01*
X-45482091Y25131408D01*
X-45403593Y25052910D01*
X-45403590Y25052908D01*
X-45403587Y25052905D01*
X-45304661Y25002500D01*
X-45304659Y25002499D01*
X-45195002Y24985131D01*
X-45195000Y24985131D01*
X-45194998Y24985131D01*
X-45085342Y25002499D01*
X-45085341Y25002500D01*
X-45085339Y25002500D01*
X-44986413Y25052905D01*
X-44907905Y25131413D01*
X-44857500Y25230339D01*
X-44857500Y25230341D01*
X-44857499Y25230342D01*
X-44854385Y25250003D01*
X-42839869Y25250003D01*
X-42839869Y25249998D01*
X-42822502Y25140342D01*
X-42772096Y25041415D01*
X-42772091Y25041408D01*
X-42693593Y24962910D01*
X-42693590Y24962908D01*
X-42693587Y24962905D01*
X-42594661Y24912500D01*
X-42594659Y24912499D01*
X-42485002Y24895131D01*
X-42485000Y24895131D01*
X-42484998Y24895131D01*
X-42375342Y24912499D01*
X-42375341Y24912500D01*
X-42375339Y24912500D01*
X-42276413Y24962905D01*
X-42197905Y25041413D01*
X-42147500Y25140339D01*
X-42147500Y25140341D01*
X-42147499Y25140342D01*
X-42130131Y25249998D01*
X-42130131Y25250003D01*
X-42147499Y25359659D01*
X-42147500Y25359661D01*
X-42197905Y25458587D01*
X-42197908Y25458590D01*
X-42197910Y25458593D01*
X-42276408Y25537091D01*
X-42276412Y25537094D01*
X-42276413Y25537095D01*
X-42298979Y25548593D01*
X-42375342Y25587502D01*
X-42484998Y25604869D01*
X-42485002Y25604869D01*
X-42594659Y25587502D01*
X-42693586Y25537096D01*
X-42693593Y25537091D01*
X-42772091Y25458593D01*
X-42772096Y25458586D01*
X-42822502Y25359659D01*
X-42839869Y25250003D01*
X-44854385Y25250003D01*
X-44840131Y25339998D01*
X-44840131Y25340003D01*
X-44857499Y25449659D01*
X-44857500Y25449661D01*
X-44907905Y25548587D01*
X-44907908Y25548590D01*
X-44907910Y25548593D01*
X-44986408Y25627091D01*
X-44986412Y25627094D01*
X-44986413Y25627095D01*
X-45006041Y25637096D01*
X-45085342Y25677502D01*
X-45194998Y25694869D01*
X-45195002Y25694869D01*
X-45304659Y25677502D01*
X-45403586Y25627096D01*
X-45403593Y25627091D01*
X-45482091Y25548593D01*
X-45482096Y25548586D01*
X-45532502Y25449659D01*
X-45549869Y25340003D01*
X-47156410Y25340003D01*
X-47169700Y25474934D01*
X-47229768Y25672954D01*
X-47327315Y25855450D01*
X-47384184Y25924746D01*
X-47458590Y26015411D01*
X-47618548Y26146683D01*
X-47618547Y26146683D01*
X-47618550Y26146685D01*
X-47801046Y26244232D01*
X-47999066Y26304300D01*
X-47999068Y26304301D01*
X-47999066Y26304301D01*
X-48205000Y26324583D01*
X-48410933Y26304301D01*
X-48608957Y26244231D01*
X-48719102Y26185357D01*
X-48791450Y26146685D01*
X-48791452Y26146684D01*
X-48791453Y26146683D01*
X-48951411Y26015411D01*
X-49040305Y25907091D01*
X-49082685Y25855450D01*
X-49097044Y25828586D01*
X-49180231Y25672957D01*
X-49240301Y25474933D01*
X-49260583Y25269000D01*
X-49240301Y25063068D01*
X-49180231Y24865042D01*
X-49153216Y24814501D01*
X-49138974Y24746098D01*
X-49163974Y24680854D01*
X-49220279Y24639484D01*
X-49243175Y24633575D01*
X-49344659Y24617501D01*
X-49443586Y24567096D01*
X-49443593Y24567091D01*
X-49522091Y24488593D01*
X-49522096Y24488586D01*
X-49572502Y24389659D01*
X-49589869Y24280003D01*
X-49957644Y24280003D01*
X-49957423Y26500003D01*
X-46579869Y26500003D01*
X-46579869Y26499998D01*
X-46562502Y26390342D01*
X-46512096Y26291415D01*
X-46512091Y26291408D01*
X-46433593Y26212910D01*
X-46433589Y26212907D01*
X-46433587Y26212905D01*
X-46334661Y26162500D01*
X-46334660Y26162500D01*
X-46334246Y26162289D01*
X-46283450Y26114315D01*
X-46268068Y26071204D01*
X-46260539Y26023673D01*
X-46260539Y26023672D01*
X-46260538Y26023670D01*
X-46223830Y25951627D01*
X-46210134Y25924746D01*
X-46210129Y25924739D01*
X-46131631Y25846241D01*
X-46131628Y25846239D01*
X-46131625Y25846236D01*
X-46088873Y25824453D01*
X-46032697Y25795830D01*
X-45923040Y25778462D01*
X-45923038Y25778462D01*
X-45923036Y25778462D01*
X-45813380Y25795830D01*
X-45813379Y25795831D01*
X-45813377Y25795831D01*
X-45714451Y25846236D01*
X-45635943Y25924744D01*
X-45585538Y26023670D01*
X-45585538Y26023672D01*
X-45585537Y26023673D01*
X-45568169Y26133329D01*
X-45568169Y26133334D01*
X-45582688Y26225000D01*
X-42081710Y26225000D01*
X-42061229Y26082544D01*
X-42004123Y25957502D01*
X-42001440Y25951627D01*
X-41907191Y25842857D01*
X-41786116Y25765047D01*
X-41786113Y25765046D01*
X-41786114Y25765046D01*
X-41648027Y25724501D01*
X-41648025Y25724500D01*
X-41579907Y25724500D01*
X-41512868Y25704815D01*
X-41467113Y25652011D01*
X-41457169Y25582853D01*
X-41469421Y25544210D01*
X-41512500Y25459661D01*
X-41512502Y25459657D01*
X-41529869Y25350003D01*
X-41529869Y25349998D01*
X-41512502Y25240342D01*
X-41462096Y25141415D01*
X-41462091Y25141408D01*
X-41448222Y25127539D01*
X-41414737Y25066216D01*
X-41419721Y24996524D01*
X-41425416Y24983568D01*
X-41432501Y24969664D01*
X-41432501Y24969662D01*
X-41449869Y24860003D01*
X-41449869Y24859998D01*
X-41432502Y24750342D01*
X-41382096Y24651415D01*
X-41382091Y24651408D01*
X-41303593Y24572910D01*
X-41303590Y24572908D01*
X-41303587Y24572905D01*
X-41204838Y24522590D01*
X-41204659Y24522499D01*
X-41095002Y24505131D01*
X-41095000Y24505131D01*
X-41094998Y24505131D01*
X-40985342Y24522499D01*
X-40985341Y24522500D01*
X-40985339Y24522500D01*
X-40886413Y24572905D01*
X-40807905Y24651413D01*
X-40757500Y24750339D01*
X-40757500Y24750341D01*
X-40757499Y24750342D01*
X-40740131Y24859998D01*
X-40740131Y24860003D01*
X-40757499Y24969659D01*
X-40794057Y25041408D01*
X-40807905Y25068587D01*
X-40807908Y25068590D01*
X-40807910Y25068593D01*
X-40821780Y25082463D01*
X-40855265Y25143786D01*
X-40850281Y25213478D01*
X-40844588Y25226429D01*
X-40838692Y25238000D01*
X-33821583Y25238000D01*
X-33801301Y25032068D01*
X-33771266Y24933056D01*
X-33741232Y24834046D01*
X-33643685Y24651550D01*
X-33629995Y24634869D01*
X-33512411Y24491590D01*
X-33415791Y24412298D01*
X-33352450Y24360315D01*
X-33169954Y24262768D01*
X-32971934Y24202700D01*
X-32971935Y24202700D01*
X-32953471Y24200882D01*
X-32766000Y24182417D01*
X-32560066Y24202700D01*
X-32362046Y24262768D01*
X-32179550Y24360315D01*
X-32019590Y24491590D01*
X-31888315Y24651550D01*
X-31790768Y24834046D01*
X-31730700Y25032066D01*
X-31710417Y25238000D01*
X-31730700Y25443934D01*
X-31790768Y25641954D01*
X-31888315Y25824450D01*
X-31956136Y25907091D01*
X-32019590Y25984411D01*
X-32179548Y26115683D01*
X-32179547Y26115683D01*
X-32179550Y26115685D01*
X-32361438Y26212907D01*
X-32362044Y26213231D01*
X-32362045Y26213232D01*
X-32362046Y26213232D01*
X-32560066Y26273300D01*
X-32560068Y26273301D01*
X-32560066Y26273301D01*
X-32766000Y26293583D01*
X-32971933Y26273301D01*
X-33169957Y26213231D01*
X-33264866Y26162500D01*
X-33352450Y26115685D01*
X-33352452Y26115684D01*
X-33352453Y26115683D01*
X-33512411Y25984411D01*
X-33643683Y25824453D01*
X-33741231Y25641957D01*
X-33801301Y25443933D01*
X-33821583Y25238000D01*
X-40838692Y25238000D01*
X-40837500Y25240339D01*
X-40837500Y25240341D01*
X-40837499Y25240342D01*
X-40820131Y25349998D01*
X-40820131Y25350003D01*
X-40837499Y25459659D01*
X-40837500Y25459661D01*
X-40887905Y25558587D01*
X-40887908Y25558590D01*
X-40887910Y25558593D01*
X-40949320Y25620003D01*
X-38299869Y25620003D01*
X-38299869Y25619998D01*
X-38282502Y25510342D01*
X-38232096Y25411415D01*
X-38232091Y25411408D01*
X-38153593Y25332910D01*
X-38153590Y25332908D01*
X-38153587Y25332905D01*
X-38054661Y25282500D01*
X-38054659Y25282499D01*
X-37945002Y25265131D01*
X-37945000Y25265131D01*
X-37944998Y25265131D01*
X-37835342Y25282499D01*
X-37835341Y25282500D01*
X-37835339Y25282500D01*
X-37736413Y25332905D01*
X-37657905Y25411413D01*
X-37607500Y25510339D01*
X-37607500Y25510341D01*
X-37607499Y25510342D01*
X-37590131Y25619998D01*
X-37590131Y25620003D01*
X-37607499Y25729659D01*
X-37607500Y25729661D01*
X-37657905Y25828587D01*
X-37657908Y25828590D01*
X-37657910Y25828593D01*
X-37736408Y25907091D01*
X-37736412Y25907094D01*
X-37736413Y25907095D01*
X-37740257Y25909054D01*
X-37835342Y25957502D01*
X-37944998Y25974869D01*
X-37945002Y25974869D01*
X-38054659Y25957502D01*
X-38153586Y25907096D01*
X-38153593Y25907091D01*
X-38232091Y25828593D01*
X-38232096Y25828586D01*
X-38282502Y25729659D01*
X-38299869Y25620003D01*
X-40949320Y25620003D01*
X-40966408Y25637091D01*
X-40966412Y25637094D01*
X-40966413Y25637095D01*
X-40995687Y25652011D01*
X-41065342Y25687502D01*
X-41121100Y25696333D01*
X-41184235Y25726263D01*
X-41221165Y25785575D01*
X-41220167Y25855438D01*
X-41195413Y25900009D01*
X-41150689Y25951623D01*
X-41150689Y25951625D01*
X-41150686Y25951627D01*
X-41090898Y26082543D01*
X-41070416Y26225000D01*
X-41090898Y26367457D01*
X-41150686Y26498373D01*
X-41244935Y26607143D01*
X-41366010Y26684953D01*
X-41366012Y26684954D01*
X-41366014Y26684955D01*
X-41366013Y26684955D01*
X-41504100Y26725500D01*
X-41504102Y26725500D01*
X-41648024Y26725500D01*
X-41648027Y26725500D01*
X-41786114Y26684955D01*
X-41907190Y26607144D01*
X-42001440Y26498374D01*
X-42001441Y26498372D01*
X-42061229Y26367457D01*
X-42081710Y26225000D01*
X-45582688Y26225000D01*
X-45585537Y26242990D01*
X-45610211Y26291415D01*
X-45635943Y26341918D01*
X-45635946Y26341921D01*
X-45635948Y26341924D01*
X-45714446Y26420422D01*
X-45714450Y26420425D01*
X-45714451Y26420426D01*
X-45813377Y26470831D01*
X-45813379Y26470832D01*
X-45813794Y26471043D01*
X-45864590Y26519017D01*
X-45879972Y26562127D01*
X-45887500Y26609661D01*
X-45937905Y26708587D01*
X-45937908Y26708590D01*
X-45937910Y26708593D01*
X-46016408Y26787091D01*
X-46016412Y26787094D01*
X-46016413Y26787095D01*
X-46108018Y26833770D01*
X-46115342Y26837502D01*
X-46224998Y26854869D01*
X-46225002Y26854869D01*
X-46334659Y26837502D01*
X-46433586Y26787096D01*
X-46433593Y26787091D01*
X-46512091Y26708593D01*
X-46512096Y26708586D01*
X-46562502Y26609659D01*
X-46579869Y26500003D01*
X-49957423Y26500003D01*
X-49957293Y27809000D01*
X-49260583Y27809000D01*
X-49240301Y27603068D01*
X-49229714Y27568169D01*
X-49180232Y27405046D01*
X-49082685Y27222550D01*
X-49066493Y27202820D01*
X-48951411Y27062590D01*
X-48855775Y26984105D01*
X-48791450Y26931315D01*
X-48608954Y26833768D01*
X-48410934Y26773700D01*
X-48410935Y26773700D01*
X-48392471Y26771882D01*
X-48205000Y26753417D01*
X-47999066Y26773700D01*
X-47801046Y26833768D01*
X-47618550Y26931315D01*
X-47458590Y27062590D01*
X-47362232Y27180003D01*
X-44749869Y27180003D01*
X-44749869Y27179998D01*
X-44732502Y27070342D01*
X-44682096Y26971415D01*
X-44682091Y26971408D01*
X-44603593Y26892910D01*
X-44603590Y26892908D01*
X-44603587Y26892905D01*
X-44518715Y26849661D01*
X-44504659Y26842499D01*
X-44395002Y26825131D01*
X-44395000Y26825131D01*
X-44394998Y26825131D01*
X-44285342Y26842499D01*
X-44285341Y26842500D01*
X-44285339Y26842500D01*
X-44186413Y26892905D01*
X-44107905Y26971413D01*
X-44057500Y27070339D01*
X-44057500Y27070341D01*
X-44057499Y27070342D01*
X-44048595Y27126561D01*
X-42983271Y27126561D01*
X-42962790Y26984105D01*
X-42903769Y26854869D01*
X-42903001Y26853188D01*
X-42808752Y26744418D01*
X-42687677Y26666608D01*
X-42687674Y26666607D01*
X-42687675Y26666607D01*
X-42580517Y26635144D01*
X-42564155Y26630339D01*
X-42549588Y26626062D01*
X-42549586Y26626061D01*
X-42549585Y26626061D01*
X-42405662Y26626061D01*
X-42405662Y26626062D01*
X-42267571Y26666608D01*
X-42146496Y26744418D01*
X-42052247Y26853188D01*
X-41992459Y26984104D01*
X-41971977Y27126561D01*
X-41180149Y27126561D01*
X-41159668Y26984105D01*
X-41100647Y26854869D01*
X-41099879Y26853188D01*
X-41005630Y26744418D01*
X-40884555Y26666608D01*
X-40884552Y26666607D01*
X-40884553Y26666607D01*
X-40777395Y26635144D01*
X-40761033Y26630339D01*
X-40746466Y26626062D01*
X-40746464Y26626061D01*
X-40746463Y26626061D01*
X-40602540Y26626061D01*
X-40602540Y26626062D01*
X-40464449Y26666608D01*
X-40350244Y26740003D01*
X-36049869Y26740003D01*
X-36049869Y26739998D01*
X-36032502Y26630342D01*
X-35982096Y26531415D01*
X-35982091Y26531408D01*
X-35903593Y26452910D01*
X-35903590Y26452908D01*
X-35903587Y26452905D01*
X-35839843Y26420426D01*
X-35804659Y26402499D01*
X-35695002Y26385131D01*
X-35695000Y26385131D01*
X-35694998Y26385131D01*
X-35585342Y26402499D01*
X-35585341Y26402500D01*
X-35585339Y26402500D01*
X-35486413Y26452905D01*
X-35407905Y26531413D01*
X-35357500Y26630339D01*
X-35357500Y26630341D01*
X-35357499Y26630342D01*
X-35340131Y26739998D01*
X-35340131Y26740003D01*
X-35357499Y26849659D01*
X-35379534Y26892905D01*
X-35407905Y26948587D01*
X-35407908Y26948590D01*
X-35407910Y26948593D01*
X-35486408Y27027091D01*
X-35486412Y27027094D01*
X-35486413Y27027095D01*
X-35556076Y27062590D01*
X-35585342Y27077502D01*
X-35694998Y27094869D01*
X-35695002Y27094869D01*
X-35804659Y27077502D01*
X-35903586Y27027096D01*
X-35903593Y27027091D01*
X-35982091Y26948593D01*
X-35982096Y26948586D01*
X-36032502Y26849659D01*
X-36049869Y26740003D01*
X-40350244Y26740003D01*
X-40343374Y26744418D01*
X-40249125Y26853188D01*
X-40189337Y26984104D01*
X-40168855Y27126561D01*
X-40189337Y27269018D01*
X-40249125Y27399934D01*
X-40335835Y27500003D01*
X-34359869Y27500003D01*
X-34359869Y27499998D01*
X-34342502Y27390342D01*
X-34292096Y27291415D01*
X-34292091Y27291408D01*
X-34213593Y27212910D01*
X-34213590Y27212908D01*
X-34213587Y27212905D01*
X-34149007Y27180000D01*
X-34114659Y27162499D01*
X-34005002Y27145131D01*
X-34005000Y27145131D01*
X-34004998Y27145131D01*
X-33895344Y27162499D01*
X-33895344Y27162500D01*
X-33895339Y27162500D01*
X-33796413Y27212905D01*
X-33796411Y27212908D01*
X-33789949Y27216200D01*
X-33721280Y27229096D01*
X-33656539Y27202820D01*
X-33637800Y27184379D01*
X-33512411Y27031590D01*
X-33454549Y26984105D01*
X-33352450Y26900315D01*
X-33169954Y26802768D01*
X-32971934Y26742700D01*
X-32971935Y26742700D01*
X-32953471Y26740882D01*
X-32766000Y26722417D01*
X-32560066Y26742700D01*
X-32362046Y26802768D01*
X-32179550Y26900315D01*
X-32019590Y27031590D01*
X-31888315Y27191550D01*
X-31790768Y27374046D01*
X-31730700Y27572066D01*
X-31710417Y27778000D01*
X-31730700Y27983934D01*
X-31790768Y28181954D01*
X-31888315Y28364450D01*
X-31941440Y28429183D01*
X-32019590Y28524411D01*
X-32137323Y28621031D01*
X-32179550Y28655685D01*
X-32362046Y28753232D01*
X-32560066Y28813300D01*
X-32560068Y28813301D01*
X-32560066Y28813301D01*
X-32766000Y28833583D01*
X-32971933Y28813301D01*
X-33169957Y28753231D01*
X-33280102Y28694357D01*
X-33352450Y28655685D01*
X-33352452Y28655684D01*
X-33352453Y28655683D01*
X-33512411Y28524411D01*
X-33643683Y28364453D01*
X-33643685Y28364450D01*
X-33671015Y28313319D01*
X-33741231Y28181957D01*
X-33741232Y28181955D01*
X-33741232Y28181954D01*
X-33748102Y28159308D01*
X-33801301Y27983933D01*
X-33804054Y27955977D01*
X-33830216Y27891190D01*
X-33887251Y27850832D01*
X-33946855Y27845660D01*
X-34004998Y27854869D01*
X-34005002Y27854869D01*
X-34114659Y27837502D01*
X-34213586Y27787096D01*
X-34213593Y27787091D01*
X-34292091Y27708593D01*
X-34292096Y27708586D01*
X-34342502Y27609659D01*
X-34359869Y27500003D01*
X-40335835Y27500003D01*
X-40343374Y27508704D01*
X-40464449Y27586514D01*
X-40464451Y27586515D01*
X-40464453Y27586516D01*
X-40464452Y27586516D01*
X-40602539Y27627061D01*
X-40602541Y27627061D01*
X-40746463Y27627061D01*
X-40746466Y27627061D01*
X-40884553Y27586516D01*
X-41005629Y27508705D01*
X-41099879Y27399935D01*
X-41099880Y27399933D01*
X-41159668Y27269018D01*
X-41180149Y27126561D01*
X-41971977Y27126561D01*
X-41992459Y27269018D01*
X-42052247Y27399934D01*
X-42146496Y27508704D01*
X-42267571Y27586514D01*
X-42267573Y27586515D01*
X-42267575Y27586516D01*
X-42267574Y27586516D01*
X-42405661Y27627061D01*
X-42405663Y27627061D01*
X-42549585Y27627061D01*
X-42549588Y27627061D01*
X-42687675Y27586516D01*
X-42808751Y27508705D01*
X-42903001Y27399935D01*
X-42903002Y27399933D01*
X-42962790Y27269018D01*
X-42983271Y27126561D01*
X-44048595Y27126561D01*
X-44040131Y27179998D01*
X-44040131Y27180003D01*
X-44057499Y27289659D01*
X-44100496Y27374046D01*
X-44107905Y27388587D01*
X-44107908Y27388590D01*
X-44107910Y27388593D01*
X-44186408Y27467091D01*
X-44186412Y27467094D01*
X-44186413Y27467095D01*
X-44250993Y27500000D01*
X-44285342Y27517502D01*
X-44394998Y27534869D01*
X-44395002Y27534869D01*
X-44504659Y27517502D01*
X-44603586Y27467096D01*
X-44603593Y27467091D01*
X-44682091Y27388593D01*
X-44682096Y27388586D01*
X-44732502Y27289659D01*
X-44749869Y27180003D01*
X-47362232Y27180003D01*
X-47327315Y27222550D01*
X-47229768Y27405046D01*
X-47169700Y27603066D01*
X-47149417Y27809000D01*
X-47169700Y28014934D01*
X-47229768Y28212954D01*
X-47327315Y28395450D01*
X-47331052Y28400003D01*
X-45339869Y28400003D01*
X-45339869Y28399998D01*
X-45322502Y28290342D01*
X-45272096Y28191415D01*
X-45272091Y28191408D01*
X-45193593Y28112910D01*
X-45193590Y28112908D01*
X-45193587Y28112905D01*
X-45094661Y28062500D01*
X-45094659Y28062499D01*
X-44985002Y28045131D01*
X-44985000Y28045131D01*
X-44984998Y28045131D01*
X-44875342Y28062499D01*
X-44875341Y28062500D01*
X-44875339Y28062500D01*
X-44776413Y28112905D01*
X-44697905Y28191413D01*
X-44647500Y28290339D01*
X-44634496Y28372448D01*
X-44604568Y28435578D01*
X-44545256Y28472510D01*
X-44475394Y28471512D01*
X-44424342Y28440727D01*
X-44344749Y28361134D01*
X-44344746Y28361132D01*
X-44344743Y28361129D01*
X-44250910Y28313319D01*
X-44245815Y28310723D01*
X-44136158Y28293355D01*
X-44136156Y28293355D01*
X-44136154Y28293355D01*
X-44054519Y28306286D01*
X-44026495Y28310724D01*
X-44026489Y28310728D01*
X-44024678Y28311315D01*
X-44022335Y28311383D01*
X-44016856Y28312250D01*
X-44016744Y28311543D01*
X-43954837Y28313319D01*
X-43895000Y28277246D01*
X-43864165Y28214549D01*
X-43863608Y28175742D01*
X-43884832Y28028123D01*
X-43864351Y27885666D01*
X-43813870Y27775131D01*
X-43804562Y27754749D01*
X-43710313Y27645979D01*
X-43589238Y27568169D01*
X-43589235Y27568168D01*
X-43589236Y27568168D01*
X-43451149Y27527623D01*
X-43451147Y27527622D01*
X-43451146Y27527622D01*
X-43307223Y27527622D01*
X-43307223Y27527623D01*
X-43169132Y27568169D01*
X-43048057Y27645979D01*
X-42953808Y27754749D01*
X-42894020Y27885665D01*
X-42873538Y28028122D01*
X-42081710Y28028122D01*
X-42061229Y27885666D01*
X-42010748Y27775131D01*
X-42001440Y27754749D01*
X-41907191Y27645979D01*
X-41786116Y27568169D01*
X-41786113Y27568168D01*
X-41786114Y27568168D01*
X-41648027Y27527623D01*
X-41648025Y27527622D01*
X-41648024Y27527622D01*
X-41504101Y27527622D01*
X-41504101Y27527623D01*
X-41366010Y27568169D01*
X-41244935Y27645979D01*
X-41150686Y27754749D01*
X-41090898Y27885665D01*
X-41070416Y28028122D01*
X-40278588Y28028122D01*
X-40258107Y27885666D01*
X-40207626Y27775131D01*
X-40198318Y27754749D01*
X-40104069Y27645979D01*
X-39982994Y27568169D01*
X-39982991Y27568168D01*
X-39982992Y27568168D01*
X-39844905Y27527623D01*
X-39844903Y27527622D01*
X-39844902Y27527622D01*
X-39700979Y27527622D01*
X-39700979Y27527623D01*
X-39562888Y27568169D01*
X-39441813Y27645979D01*
X-39347564Y27754749D01*
X-39287776Y27885665D01*
X-39267294Y28028122D01*
X-39281942Y28130003D01*
X-35079869Y28130003D01*
X-35079869Y28129998D01*
X-35062502Y28020342D01*
X-35012096Y27921415D01*
X-35012091Y27921408D01*
X-34933593Y27842910D01*
X-34933590Y27842908D01*
X-34933587Y27842905D01*
X-34867044Y27809000D01*
X-34834659Y27792499D01*
X-34725002Y27775131D01*
X-34725000Y27775131D01*
X-34724998Y27775131D01*
X-34615342Y27792499D01*
X-34615341Y27792500D01*
X-34615339Y27792500D01*
X-34516413Y27842905D01*
X-34437905Y27921413D01*
X-34387500Y28020339D01*
X-34387500Y28020341D01*
X-34387499Y28020342D01*
X-34370131Y28129998D01*
X-34370131Y28130003D01*
X-34387499Y28239659D01*
X-34387500Y28239661D01*
X-34437905Y28338587D01*
X-34437908Y28338590D01*
X-34437910Y28338593D01*
X-34516408Y28417091D01*
X-34516412Y28417094D01*
X-34516413Y28417095D01*
X-34560654Y28439637D01*
X-34615342Y28467502D01*
X-34724998Y28484869D01*
X-34725002Y28484869D01*
X-34834659Y28467502D01*
X-34933586Y28417096D01*
X-34933593Y28417091D01*
X-35012091Y28338593D01*
X-35012096Y28338586D01*
X-35062502Y28239659D01*
X-35079869Y28130003D01*
X-39281942Y28130003D01*
X-39287776Y28170579D01*
X-39347564Y28301495D01*
X-39441813Y28410265D01*
X-39562888Y28488075D01*
X-39562890Y28488076D01*
X-39562892Y28488077D01*
X-39562891Y28488077D01*
X-39700978Y28528622D01*
X-39700980Y28528622D01*
X-39844902Y28528622D01*
X-39844905Y28528622D01*
X-39982992Y28488077D01*
X-40104068Y28410266D01*
X-40198318Y28301496D01*
X-40198319Y28301494D01*
X-40258107Y28170579D01*
X-40278588Y28028122D01*
X-41070416Y28028122D01*
X-41090898Y28170579D01*
X-41150686Y28301495D01*
X-41244935Y28410265D01*
X-41366010Y28488075D01*
X-41366012Y28488076D01*
X-41366014Y28488077D01*
X-41366013Y28488077D01*
X-41504100Y28528622D01*
X-41504102Y28528622D01*
X-41648024Y28528622D01*
X-41648027Y28528622D01*
X-41786114Y28488077D01*
X-41907190Y28410266D01*
X-42001440Y28301496D01*
X-42001441Y28301494D01*
X-42061229Y28170579D01*
X-42081710Y28028122D01*
X-42873538Y28028122D01*
X-42894020Y28170579D01*
X-42953808Y28301495D01*
X-43048057Y28410265D01*
X-43169132Y28488075D01*
X-43169134Y28488076D01*
X-43169136Y28488077D01*
X-43169135Y28488077D01*
X-43307222Y28528622D01*
X-43307224Y28528622D01*
X-43451146Y28528622D01*
X-43451149Y28528622D01*
X-43589236Y28488077D01*
X-43589239Y28488076D01*
X-43598488Y28482131D01*
X-43665527Y28462447D01*
X-43732566Y28482132D01*
X-43778321Y28534937D01*
X-43788264Y28604095D01*
X-43787999Y28605845D01*
X-43781287Y28648223D01*
X-43781287Y28648227D01*
X-43799210Y28761388D01*
X-43790255Y28830682D01*
X-43745259Y28884134D01*
X-43685172Y28902713D01*
X-43685258Y28903259D01*
X-43681459Y28903861D01*
X-43678508Y28904773D01*
X-43676737Y28904786D01*
X-43675617Y28904786D01*
X-43565963Y28922154D01*
X-43565963Y28922155D01*
X-43565958Y28922155D01*
X-43477400Y28967278D01*
X-43408734Y28980173D01*
X-43364814Y28967277D01*
X-43310598Y28939653D01*
X-43200941Y28922285D01*
X-43200939Y28922285D01*
X-43200938Y28922285D01*
X-43178147Y28925896D01*
X-43111313Y28936481D01*
X-43042021Y28927527D01*
X-42988568Y28882531D01*
X-42969177Y28831655D01*
X-42962790Y28787227D01*
X-42916873Y28686685D01*
X-42903001Y28656310D01*
X-42808752Y28547540D01*
X-42687677Y28469730D01*
X-42687674Y28469729D01*
X-42687675Y28469729D01*
X-42549588Y28429184D01*
X-42549586Y28429183D01*
X-42549585Y28429183D01*
X-42405662Y28429183D01*
X-42405662Y28429184D01*
X-42292375Y28462447D01*
X-42267574Y28469729D01*
X-42267574Y28469730D01*
X-42267571Y28469730D01*
X-42146496Y28547540D01*
X-42052247Y28656310D01*
X-41992459Y28787226D01*
X-41971977Y28929683D01*
X-41180149Y28929683D01*
X-41159668Y28787227D01*
X-41113751Y28686685D01*
X-41099879Y28656310D01*
X-41005630Y28547540D01*
X-40884555Y28469730D01*
X-40884552Y28469729D01*
X-40884553Y28469729D01*
X-40746466Y28429184D01*
X-40746464Y28429183D01*
X-40746463Y28429183D01*
X-40602540Y28429183D01*
X-40602540Y28429184D01*
X-40489253Y28462447D01*
X-40464452Y28469729D01*
X-40464452Y28469730D01*
X-40464449Y28469730D01*
X-40343374Y28547540D01*
X-40249125Y28656310D01*
X-40189337Y28787226D01*
X-40168855Y28929683D01*
X-40189337Y29072140D01*
X-40249125Y29203056D01*
X-40289804Y29250003D01*
X-35139869Y29250003D01*
X-35139869Y29249998D01*
X-35122502Y29140342D01*
X-35072096Y29041415D01*
X-35072091Y29041408D01*
X-34993593Y28962910D01*
X-34993590Y28962908D01*
X-34993587Y28962905D01*
X-34924153Y28927527D01*
X-34894659Y28912499D01*
X-34785002Y28895131D01*
X-34785000Y28895131D01*
X-34784998Y28895131D01*
X-34675342Y28912499D01*
X-34675341Y28912500D01*
X-34675339Y28912500D01*
X-34576413Y28962905D01*
X-34497905Y29041413D01*
X-34447500Y29140339D01*
X-34447500Y29140341D01*
X-34447499Y29140342D01*
X-34430131Y29249998D01*
X-34430131Y29250003D01*
X-34447499Y29359659D01*
X-34452418Y29369314D01*
X-34497905Y29458587D01*
X-34497908Y29458590D01*
X-34497910Y29458593D01*
X-34576408Y29537091D01*
X-34576412Y29537094D01*
X-34576413Y29537095D01*
X-34595364Y29546751D01*
X-34675342Y29587502D01*
X-34784998Y29604869D01*
X-34785002Y29604869D01*
X-34894659Y29587502D01*
X-34993586Y29537096D01*
X-34993593Y29537091D01*
X-35072091Y29458593D01*
X-35072096Y29458586D01*
X-35122502Y29359659D01*
X-35139869Y29250003D01*
X-40289804Y29250003D01*
X-40343374Y29311826D01*
X-40464449Y29389636D01*
X-40464451Y29389637D01*
X-40464453Y29389638D01*
X-40464452Y29389638D01*
X-40602539Y29430183D01*
X-40602541Y29430183D01*
X-40746463Y29430183D01*
X-40746466Y29430183D01*
X-40884553Y29389638D01*
X-41005629Y29311827D01*
X-41099879Y29203057D01*
X-41099880Y29203055D01*
X-41159668Y29072140D01*
X-41180149Y28929683D01*
X-41971977Y28929683D01*
X-41992459Y29072140D01*
X-42052247Y29203056D01*
X-42146496Y29311826D01*
X-42146499Y29311828D01*
X-42146501Y29311830D01*
X-42269986Y29391189D01*
X-42315741Y29443992D01*
X-42325685Y29513151D01*
X-42296660Y29576707D01*
X-42259246Y29605986D01*
X-42206413Y29632905D01*
X-42206407Y29632912D01*
X-42200921Y29636896D01*
X-42135114Y29660376D01*
X-42067060Y29644551D01*
X-42018365Y29594445D01*
X-42015241Y29588090D01*
X-42004756Y29565131D01*
X-42001440Y29557871D01*
X-41907191Y29449101D01*
X-41786116Y29371291D01*
X-41786113Y29371290D01*
X-41786114Y29371290D01*
X-41648027Y29330745D01*
X-41648025Y29330744D01*
X-41648024Y29330744D01*
X-41504101Y29330744D01*
X-41504101Y29330745D01*
X-41366010Y29371291D01*
X-41244935Y29449101D01*
X-41150686Y29557871D01*
X-41090898Y29688787D01*
X-41070416Y29831244D01*
X-41087168Y29947758D01*
X-41077224Y30016917D01*
X-41031469Y30069721D01*
X-41014003Y30078002D01*
X-41014034Y30078064D01*
X-41005341Y30082494D01*
X-41005339Y30082494D01*
X-40906413Y30132899D01*
X-40827905Y30211407D01*
X-40777500Y30310333D01*
X-40777500Y30310335D01*
X-40777499Y30310336D01*
X-40776285Y30318000D01*
X-33821583Y30318000D01*
X-33801301Y30112068D01*
X-33792330Y30082494D01*
X-33741232Y29914046D01*
X-33643685Y29731550D01*
X-33643683Y29731548D01*
X-33512411Y29571590D01*
X-33420997Y29496570D01*
X-33352450Y29440315D01*
X-33169954Y29342768D01*
X-32971934Y29282700D01*
X-32971935Y29282700D01*
X-32953471Y29280882D01*
X-32766000Y29262417D01*
X-32560066Y29282700D01*
X-32362046Y29342768D01*
X-32179550Y29440315D01*
X-32019590Y29571590D01*
X-31888315Y29731550D01*
X-31790768Y29914046D01*
X-31730700Y30112066D01*
X-31710417Y30318000D01*
X-31730700Y30523934D01*
X-31790768Y30721954D01*
X-31888315Y30904450D01*
X-31940298Y30967791D01*
X-32019590Y31064411D01*
X-32171152Y31188793D01*
X-32179550Y31195685D01*
X-32362046Y31293232D01*
X-32560066Y31353300D01*
X-32560068Y31353301D01*
X-32560066Y31353301D01*
X-32766000Y31373583D01*
X-32971933Y31353301D01*
X-33169957Y31293231D01*
X-33231492Y31260339D01*
X-33352450Y31195685D01*
X-33352452Y31195684D01*
X-33352453Y31195683D01*
X-33512411Y31064411D01*
X-33643683Y30904453D01*
X-33643685Y30904450D01*
X-33648739Y30894995D01*
X-33741231Y30721957D01*
X-33801301Y30523933D01*
X-33821583Y30318000D01*
X-40776285Y30318000D01*
X-40760131Y30419992D01*
X-40760131Y30419997D01*
X-40777499Y30529653D01*
X-40813955Y30601202D01*
X-40826851Y30669871D01*
X-40813957Y30713786D01*
X-40777500Y30785336D01*
X-40777499Y30785341D01*
X-40760131Y30894995D01*
X-40760131Y30895000D01*
X-40777499Y31004656D01*
X-40807945Y31064410D01*
X-40813956Y31076206D01*
X-40825936Y31140003D01*
X-36579869Y31140003D01*
X-36579869Y31139998D01*
X-36562502Y31030342D01*
X-36512096Y30931415D01*
X-36512091Y30931408D01*
X-36433593Y30852910D01*
X-36433590Y30852908D01*
X-36433587Y30852905D01*
X-36334661Y30802500D01*
X-36334659Y30802499D01*
X-36225002Y30785131D01*
X-36225000Y30785131D01*
X-36224998Y30785131D01*
X-36115342Y30802499D01*
X-36115341Y30802500D01*
X-36115339Y30802500D01*
X-36016413Y30852905D01*
X-35937905Y30931413D01*
X-35887500Y31030339D01*
X-35887500Y31030341D01*
X-35887499Y31030342D01*
X-35870131Y31139998D01*
X-35870131Y31140003D01*
X-35887499Y31249659D01*
X-35909700Y31293231D01*
X-35937905Y31348587D01*
X-35937908Y31348590D01*
X-35937910Y31348593D01*
X-36016408Y31427091D01*
X-36016412Y31427094D01*
X-36016413Y31427095D01*
X-36020257Y31429054D01*
X-36115342Y31477502D01*
X-36224998Y31494869D01*
X-36225002Y31494869D01*
X-36334659Y31477502D01*
X-36433586Y31427096D01*
X-36433593Y31427091D01*
X-36512091Y31348593D01*
X-36512096Y31348586D01*
X-36562502Y31249659D01*
X-36579869Y31140003D01*
X-40825936Y31140003D01*
X-40826851Y31144874D01*
X-40813957Y31188789D01*
X-40777500Y31260339D01*
X-40767380Y31324232D01*
X-40760131Y31369998D01*
X-40760131Y31370003D01*
X-40777499Y31479659D01*
X-40785249Y31494869D01*
X-40827905Y31578587D01*
X-40827908Y31578590D01*
X-40827910Y31578593D01*
X-40906408Y31657091D01*
X-40906412Y31657094D01*
X-40906413Y31657095D01*
X-40910257Y31659054D01*
X-41005342Y31707502D01*
X-41114998Y31724869D01*
X-41115002Y31724869D01*
X-41224659Y31707502D01*
X-41323586Y31657096D01*
X-41323593Y31657091D01*
X-41402091Y31578593D01*
X-41402096Y31578586D01*
X-41452502Y31479659D01*
X-41469869Y31370003D01*
X-41469869Y31369998D01*
X-41452502Y31260342D01*
X-41416046Y31188793D01*
X-41403150Y31120124D01*
X-41416045Y31076206D01*
X-41452502Y31004655D01*
X-41469869Y30895000D01*
X-41469869Y30894995D01*
X-41452502Y30785339D01*
X-41416046Y30713790D01*
X-41403150Y30645121D01*
X-41416045Y30601203D01*
X-41452502Y30529651D01*
X-41467279Y30436347D01*
X-41497208Y30373212D01*
X-41556519Y30336280D01*
X-41589752Y30331744D01*
X-41648027Y30331744D01*
X-41786114Y30291199D01*
X-41907191Y30213388D01*
X-41961806Y30150359D01*
X-42020585Y30112585D01*
X-42090454Y30112586D01*
X-42143199Y30143882D01*
X-42206408Y30207091D01*
X-42206412Y30207094D01*
X-42206413Y30207095D01*
X-42218764Y30213388D01*
X-42305342Y30257502D01*
X-42414998Y30274869D01*
X-42415002Y30274869D01*
X-42524659Y30257502D01*
X-42623586Y30207096D01*
X-42623593Y30207091D01*
X-42702091Y30128593D01*
X-42702094Y30128588D01*
X-42752502Y30029659D01*
X-42755517Y30020377D01*
X-42758125Y30021225D01*
X-42781626Y29971667D01*
X-42840942Y29934744D01*
X-42854760Y29931740D01*
X-42944659Y29917502D01*
X-43043586Y29867096D01*
X-43043593Y29867091D01*
X-43122091Y29788593D01*
X-43122094Y29788588D01*
X-43173266Y29688158D01*
X-43221241Y29637362D01*
X-43264352Y29621980D01*
X-43310597Y29614656D01*
X-43399159Y29569532D01*
X-43467828Y29556637D01*
X-43511746Y29569533D01*
X-43565961Y29597157D01*
X-43675617Y29614524D01*
X-43675621Y29614524D01*
X-43785278Y29597157D01*
X-43884205Y29546751D01*
X-43884212Y29546746D01*
X-43962710Y29468248D01*
X-43962715Y29468241D01*
X-44013121Y29369314D01*
X-44030488Y29259658D01*
X-44030488Y29259653D01*
X-44012565Y29146491D01*
X-44021520Y29077197D01*
X-44066516Y29023745D01*
X-44126605Y29005167D01*
X-44126518Y29004620D01*
X-44130316Y29004019D01*
X-44133267Y29003106D01*
X-44135038Y29003093D01*
X-44136159Y29003093D01*
X-44174113Y28997082D01*
X-44243406Y29006037D01*
X-44281191Y29031874D01*
X-44366408Y29117091D01*
X-44366412Y29117094D01*
X-44366413Y29117095D01*
X-44430981Y29149994D01*
X-44465342Y29167502D01*
X-44574998Y29184869D01*
X-44575002Y29184869D01*
X-44684659Y29167502D01*
X-44783586Y29117096D01*
X-44783593Y29117091D01*
X-44862091Y29038593D01*
X-44862096Y29038586D01*
X-44912502Y28939659D01*
X-44926564Y28850874D01*
X-44956494Y28787739D01*
X-45015806Y28750809D01*
X-45029638Y28747800D01*
X-45094659Y28737502D01*
X-45193586Y28687096D01*
X-45193593Y28687091D01*
X-45272091Y28608593D01*
X-45272096Y28608586D01*
X-45322502Y28509659D01*
X-45339869Y28400003D01*
X-47331052Y28400003D01*
X-47382298Y28462447D01*
X-47458590Y28555411D01*
X-47618548Y28686683D01*
X-47618547Y28686683D01*
X-47618550Y28686685D01*
X-47801046Y28784232D01*
X-47999066Y28844300D01*
X-47999068Y28844301D01*
X-47999066Y28844301D01*
X-48205000Y28864583D01*
X-48410933Y28844301D01*
X-48608957Y28784231D01*
X-48696379Y28737502D01*
X-48791450Y28686685D01*
X-48791452Y28686684D01*
X-48791453Y28686683D01*
X-48951411Y28555411D01*
X-49078951Y28400000D01*
X-49082685Y28395450D01*
X-49099253Y28364453D01*
X-49180231Y28212957D01*
X-49240301Y28014933D01*
X-49260583Y27809000D01*
X-49957293Y27809000D01*
X-49957146Y29287980D01*
X-46868095Y29287980D01*
X-46868095Y29287975D01*
X-46850728Y29178319D01*
X-46800322Y29079392D01*
X-46800317Y29079385D01*
X-46721819Y29000887D01*
X-46721816Y29000885D01*
X-46721813Y29000882D01*
X-46655859Y28967277D01*
X-46622885Y28950476D01*
X-46513228Y28933108D01*
X-46513226Y28933108D01*
X-46513224Y28933108D01*
X-46403568Y28950476D01*
X-46403567Y28950477D01*
X-46403565Y28950477D01*
X-46304639Y29000882D01*
X-46226131Y29079390D01*
X-46175726Y29178316D01*
X-46175726Y29178318D01*
X-46175725Y29178319D01*
X-46162843Y29259655D01*
X-46160868Y29272126D01*
X-46130939Y29335260D01*
X-46094693Y29363211D01*
X-46036413Y29392905D01*
X-45957905Y29471413D01*
X-45907500Y29570339D01*
X-45907500Y29570341D01*
X-45907499Y29570342D01*
X-45890131Y29679998D01*
X-45890131Y29680003D01*
X-45907499Y29789659D01*
X-45917097Y29808496D01*
X-45957905Y29888587D01*
X-45957908Y29888590D01*
X-45957910Y29888593D01*
X-46036408Y29967091D01*
X-46036412Y29967094D01*
X-46036413Y29967095D01*
X-46049378Y29973701D01*
X-46135342Y30017502D01*
X-46244998Y30034869D01*
X-46245002Y30034869D01*
X-46354659Y30017502D01*
X-46453586Y29967096D01*
X-46453593Y29967091D01*
X-46532091Y29888593D01*
X-46532096Y29888586D01*
X-46582502Y29789659D01*
X-46597359Y29695852D01*
X-46627288Y29632717D01*
X-46663536Y29604766D01*
X-46721812Y29575073D01*
X-46721819Y29575068D01*
X-46800317Y29496570D01*
X-46800322Y29496563D01*
X-46850728Y29397636D01*
X-46868095Y29287980D01*
X-49957146Y29287980D01*
X-49957041Y30349000D01*
X-49260583Y30349000D01*
X-49240301Y30143068D01*
X-49216657Y30065125D01*
X-49180232Y29945046D01*
X-49082685Y29762550D01*
X-49082683Y29762548D01*
X-48951411Y29602590D01*
X-48854791Y29523298D01*
X-48791450Y29471315D01*
X-48608954Y29373768D01*
X-48410934Y29313700D01*
X-48410935Y29313700D01*
X-48392471Y29311882D01*
X-48205000Y29293417D01*
X-47999066Y29313700D01*
X-47801046Y29373768D01*
X-47618550Y29471315D01*
X-47458590Y29602590D01*
X-47327315Y29762550D01*
X-47229768Y29945046D01*
X-47169700Y30143066D01*
X-47149417Y30349000D01*
X-47169700Y30554934D01*
X-47229768Y30752954D01*
X-47327315Y30935450D01*
X-47433149Y31064410D01*
X-47458590Y31095411D01*
X-47618548Y31226683D01*
X-47618547Y31226683D01*
X-47618550Y31226685D01*
X-47801046Y31324232D01*
X-47999066Y31384300D01*
X-47999068Y31384301D01*
X-47999066Y31384301D01*
X-48205000Y31404583D01*
X-48410933Y31384301D01*
X-48608957Y31324231D01*
X-48719102Y31265357D01*
X-48791450Y31226685D01*
X-48791452Y31226684D01*
X-48791453Y31226683D01*
X-48951411Y31095411D01*
X-49082683Y30935453D01*
X-49082685Y30935450D01*
X-49099253Y30904453D01*
X-49180231Y30752957D01*
X-49240301Y30554933D01*
X-49260583Y30349000D01*
X-49957041Y30349000D01*
X-49956789Y32889000D01*
X-49260583Y32889000D01*
X-49240301Y32683068D01*
X-49226274Y32636827D01*
X-49180232Y32485046D01*
X-49082685Y32302550D01*
X-49082683Y32302548D01*
X-48951411Y32142590D01*
X-48854791Y32063298D01*
X-48791450Y32011315D01*
X-48608954Y31913768D01*
X-48410934Y31853700D01*
X-48410935Y31853700D01*
X-48392471Y31851882D01*
X-48205000Y31833417D01*
X-47999066Y31853700D01*
X-47801046Y31913768D01*
X-47618550Y32011315D01*
X-47458590Y32142590D01*
X-47327315Y32302550D01*
X-47229768Y32485046D01*
X-47169700Y32683066D01*
X-47165077Y32730003D01*
X-46279869Y32730003D01*
X-46279869Y32729998D01*
X-46262502Y32620342D01*
X-46212096Y32521415D01*
X-46212091Y32521408D01*
X-46133593Y32442910D01*
X-46133590Y32442908D01*
X-46133587Y32442905D01*
X-46053749Y32402226D01*
X-46034659Y32392499D01*
X-45925002Y32375131D01*
X-45925000Y32375131D01*
X-45924998Y32375131D01*
X-45815342Y32392499D01*
X-45815341Y32392500D01*
X-45815339Y32392500D01*
X-45716413Y32442905D01*
X-45701277Y32458041D01*
X-45642681Y32516636D01*
X-45581358Y32550121D01*
X-45511666Y32545137D01*
X-45467319Y32516636D01*
X-45433593Y32482910D01*
X-45433589Y32482907D01*
X-45433587Y32482905D01*
X-45369397Y32450199D01*
X-45318602Y32402226D01*
X-45301806Y32334406D01*
X-45324343Y32268270D01*
X-45369392Y32229233D01*
X-45373584Y32227098D01*
X-45373593Y32227091D01*
X-45452091Y32148593D01*
X-45452096Y32148586D01*
X-45502502Y32049659D01*
X-45519869Y31940003D01*
X-45519869Y31939998D01*
X-45502502Y31830342D01*
X-45452096Y31731415D01*
X-45452091Y31731408D01*
X-45373593Y31652910D01*
X-45373590Y31652908D01*
X-45373587Y31652905D01*
X-45274661Y31602500D01*
X-45274659Y31602499D01*
X-45165002Y31585131D01*
X-45165000Y31585131D01*
X-45164998Y31585131D01*
X-45055342Y31602499D01*
X-45055341Y31602500D01*
X-45055339Y31602500D01*
X-44956413Y31652905D01*
X-44877905Y31731413D01*
X-44827500Y31830339D01*
X-44827500Y31830341D01*
X-44827499Y31830342D01*
X-44810131Y31939998D01*
X-44810131Y31940003D01*
X-44827499Y32049659D01*
X-44827500Y32049661D01*
X-44877905Y32148587D01*
X-44877908Y32148590D01*
X-44877910Y32148593D01*
X-44956408Y32227091D01*
X-44956412Y32227094D01*
X-44956413Y32227095D01*
X-45020604Y32259802D01*
X-45071400Y32307775D01*
X-45088195Y32375596D01*
X-45065658Y32441731D01*
X-45020602Y32480771D01*
X-45016413Y32482905D01*
X-44937905Y32561413D01*
X-44887500Y32660339D01*
X-44886506Y32666617D01*
X-44856578Y32729752D01*
X-44797268Y32766685D01*
X-44727405Y32765689D01*
X-44669171Y32727081D01*
X-44653549Y32703519D01*
X-44634746Y32666616D01*
X-44632096Y32661415D01*
X-44632091Y32661408D01*
X-44553593Y32582910D01*
X-44553590Y32582908D01*
X-44553587Y32582905D01*
X-44454661Y32532500D01*
X-44454659Y32532499D01*
X-44345002Y32515131D01*
X-44345000Y32515131D01*
X-44344998Y32515131D01*
X-44235342Y32532499D01*
X-44235341Y32532500D01*
X-44235339Y32532500D01*
X-44200987Y32550003D01*
X-37679869Y32550003D01*
X-37679869Y32549998D01*
X-37662502Y32440342D01*
X-37612096Y32341415D01*
X-37612091Y32341408D01*
X-37533593Y32262910D01*
X-37533590Y32262908D01*
X-37533587Y32262905D01*
X-37434661Y32212500D01*
X-37434659Y32212499D01*
X-37325002Y32195131D01*
X-37325000Y32195131D01*
X-37324998Y32195131D01*
X-37215342Y32212499D01*
X-37215341Y32212500D01*
X-37215339Y32212500D01*
X-37116413Y32262905D01*
X-37037905Y32341413D01*
X-36987500Y32440339D01*
X-36987500Y32440341D01*
X-36987499Y32440342D01*
X-36970131Y32549998D01*
X-36970131Y32550003D01*
X-36987499Y32659659D01*
X-36991044Y32666616D01*
X-37037905Y32758587D01*
X-37037908Y32758590D01*
X-37037910Y32758593D01*
X-37079320Y32800003D01*
X-36449869Y32800003D01*
X-36449869Y32799998D01*
X-36432502Y32690342D01*
X-36390085Y32607095D01*
X-36382095Y32591413D01*
X-36310044Y32519362D01*
X-36276560Y32458041D01*
X-36275253Y32412284D01*
X-36289869Y32320003D01*
X-36289869Y32319998D01*
X-36272502Y32210342D01*
X-36222096Y32111415D01*
X-36222091Y32111408D01*
X-36143593Y32032910D01*
X-36143590Y32032908D01*
X-36143587Y32032905D01*
X-36044661Y31982500D01*
X-36044659Y31982499D01*
X-35935002Y31965131D01*
X-35935000Y31965131D01*
X-35934998Y31965131D01*
X-35825342Y31982499D01*
X-35825341Y31982500D01*
X-35825339Y31982500D01*
X-35726413Y32032905D01*
X-35647905Y32111413D01*
X-35597500Y32210339D01*
X-35597500Y32210341D01*
X-35597499Y32210342D01*
X-35580131Y32319998D01*
X-35580131Y32320003D01*
X-35597499Y32429659D01*
X-35643206Y32519364D01*
X-35647905Y32528587D01*
X-35719958Y32600640D01*
X-35753441Y32661960D01*
X-35754748Y32707715D01*
X-35740131Y32800000D01*
X-35746007Y32837096D01*
X-35749318Y32858000D01*
X-33821583Y32858000D01*
X-33801301Y32652068D01*
X-33773802Y32561415D01*
X-33741232Y32454046D01*
X-33643685Y32271550D01*
X-33643683Y32271548D01*
X-33512411Y32111590D01*
X-33416538Y32032910D01*
X-33352450Y31980315D01*
X-33169954Y31882768D01*
X-32971934Y31822700D01*
X-32971935Y31822700D01*
X-32953471Y31820882D01*
X-32766000Y31802417D01*
X-32560066Y31822700D01*
X-32362046Y31882768D01*
X-32179550Y31980315D01*
X-32019590Y32111590D01*
X-31888315Y32271550D01*
X-31790768Y32454046D01*
X-31730700Y32652066D01*
X-31710417Y32858000D01*
X-31730700Y33063934D01*
X-31790768Y33261954D01*
X-31888315Y33444450D01*
X-31952705Y33522910D01*
X-32019590Y33604411D01*
X-32179548Y33735683D01*
X-32179547Y33735683D01*
X-32179550Y33735685D01*
X-32362046Y33833232D01*
X-32560066Y33893300D01*
X-32560068Y33893301D01*
X-32560066Y33893301D01*
X-32766000Y33913583D01*
X-32971933Y33893301D01*
X-33169957Y33833231D01*
X-33280102Y33774357D01*
X-33352450Y33735685D01*
X-33352452Y33735684D01*
X-33352453Y33735683D01*
X-33512411Y33604411D01*
X-33643683Y33444453D01*
X-33643685Y33444450D01*
X-33682357Y33372102D01*
X-33741231Y33261957D01*
X-33741232Y33261955D01*
X-33741232Y33261954D01*
X-33742195Y33258778D01*
X-33801301Y33063933D01*
X-33821583Y32858000D01*
X-35749318Y32858000D01*
X-35756893Y32905828D01*
X-35747939Y32975122D01*
X-35722100Y33012909D01*
X-35684822Y33050187D01*
X-35684818Y33050191D01*
X-35634413Y33149117D01*
X-35634413Y33149119D01*
X-35634412Y33149120D01*
X-35617044Y33258776D01*
X-35617044Y33258781D01*
X-35634412Y33368437D01*
X-35634413Y33368439D01*
X-35684818Y33467365D01*
X-35684821Y33467368D01*
X-35684823Y33467371D01*
X-35763321Y33545869D01*
X-35763325Y33545872D01*
X-35763326Y33545873D01*
X-35774203Y33551415D01*
X-35862255Y33596280D01*
X-35971911Y33613647D01*
X-35971915Y33613647D01*
X-36081572Y33596280D01*
X-36180499Y33545874D01*
X-36180506Y33545869D01*
X-36259004Y33467371D01*
X-36259009Y33467364D01*
X-36309415Y33368437D01*
X-36326782Y33258781D01*
X-36326782Y33258776D01*
X-36310021Y33152949D01*
X-36318976Y33083655D01*
X-36344813Y33045870D01*
X-36382091Y33008593D01*
X-36382096Y33008586D01*
X-36432502Y32909659D01*
X-36449869Y32800003D01*
X-37079320Y32800003D01*
X-37116408Y32837091D01*
X-37116412Y32837094D01*
X-37116413Y32837095D01*
X-37121449Y32839661D01*
X-37215342Y32887502D01*
X-37324998Y32904869D01*
X-37325002Y32904869D01*
X-37434659Y32887502D01*
X-37533586Y32837096D01*
X-37533593Y32837091D01*
X-37612091Y32758593D01*
X-37612096Y32758586D01*
X-37662502Y32659659D01*
X-37679869Y32550003D01*
X-44200987Y32550003D01*
X-44136413Y32582905D01*
X-44057905Y32661413D01*
X-44007500Y32760339D01*
X-44007500Y32760341D01*
X-44007499Y32760342D01*
X-43990131Y32869998D01*
X-43990131Y32870003D01*
X-44007499Y32979659D01*
X-44022238Y33008586D01*
X-44057905Y33078587D01*
X-44057908Y33078590D01*
X-44057910Y33078593D01*
X-44136408Y33157091D01*
X-44136412Y33157094D01*
X-44136413Y33157095D01*
X-44140257Y33159054D01*
X-44235342Y33207502D01*
X-44344998Y33224869D01*
X-44345002Y33224869D01*
X-44454659Y33207502D01*
X-44553586Y33157096D01*
X-44553593Y33157091D01*
X-44632091Y33078593D01*
X-44632096Y33078586D01*
X-44682501Y32979660D01*
X-44683496Y32973376D01*
X-44713429Y32910243D01*
X-44772742Y32873314D01*
X-44842604Y32874314D01*
X-44900835Y32912927D01*
X-44916449Y32936477D01*
X-44937905Y32978587D01*
X-44937907Y32978589D01*
X-44937910Y32978593D01*
X-45016409Y33057092D01*
X-45016415Y33057096D01*
X-45115342Y33107502D01*
X-45224998Y33124869D01*
X-45225002Y33124869D01*
X-45334659Y33107502D01*
X-45433586Y33057096D01*
X-45433591Y33057092D01*
X-45507319Y32983364D01*
X-45568642Y32949879D01*
X-45638334Y32954863D01*
X-45682681Y32983364D01*
X-45716408Y33017091D01*
X-45716412Y33017094D01*
X-45716413Y33017095D01*
X-45781360Y33050187D01*
X-45815342Y33067502D01*
X-45924998Y33084869D01*
X-45925002Y33084869D01*
X-46034659Y33067502D01*
X-46133586Y33017096D01*
X-46133593Y33017091D01*
X-46212091Y32938593D01*
X-46212096Y32938586D01*
X-46262502Y32839659D01*
X-46279869Y32730003D01*
X-47165077Y32730003D01*
X-47149417Y32889000D01*
X-47169700Y33094934D01*
X-47229768Y33292954D01*
X-47327315Y33475450D01*
X-47430685Y33601408D01*
X-47458590Y33635411D01*
X-47610402Y33759998D01*
X-47618550Y33766685D01*
X-47718300Y33820003D01*
X-45719869Y33820003D01*
X-45719869Y33819998D01*
X-45702502Y33710342D01*
X-45652096Y33611415D01*
X-45652091Y33611408D01*
X-45573593Y33532910D01*
X-45573590Y33532908D01*
X-45573587Y33532905D01*
X-45474661Y33482500D01*
X-45474659Y33482499D01*
X-45365002Y33465131D01*
X-45365000Y33465131D01*
X-45364998Y33465131D01*
X-45255342Y33482499D01*
X-45255341Y33482500D01*
X-45255339Y33482500D01*
X-45156413Y33532905D01*
X-45077905Y33611413D01*
X-45027500Y33710339D01*
X-45027500Y33710341D01*
X-45027499Y33710342D01*
X-45011714Y33810003D01*
X-39809869Y33810003D01*
X-39809869Y33809998D01*
X-39792502Y33700342D01*
X-39742096Y33601415D01*
X-39742091Y33601408D01*
X-39663593Y33522910D01*
X-39663590Y33522908D01*
X-39663587Y33522905D01*
X-39584287Y33482500D01*
X-39564659Y33472499D01*
X-39455002Y33455131D01*
X-39455000Y33455131D01*
X-39454998Y33455131D01*
X-39345342Y33472499D01*
X-39345341Y33472500D01*
X-39345339Y33472500D01*
X-39246413Y33522905D01*
X-39167905Y33601413D01*
X-39117500Y33700339D01*
X-39117500Y33700341D01*
X-39117499Y33700342D01*
X-39108050Y33760003D01*
X-38849869Y33760003D01*
X-38849869Y33759998D01*
X-38832502Y33650342D01*
X-38782096Y33551415D01*
X-38782091Y33551408D01*
X-38703593Y33472910D01*
X-38703590Y33472908D01*
X-38703587Y33472905D01*
X-38604661Y33422500D01*
X-38604659Y33422499D01*
X-38495002Y33405131D01*
X-38495000Y33405131D01*
X-38494998Y33405131D01*
X-38385342Y33422499D01*
X-38385341Y33422500D01*
X-38385339Y33422500D01*
X-38286413Y33472905D01*
X-38207905Y33551413D01*
X-38157500Y33650339D01*
X-38157500Y33650341D01*
X-38157499Y33650342D01*
X-38140131Y33759998D01*
X-38140131Y33760003D01*
X-38157499Y33869659D01*
X-38185340Y33924300D01*
X-38207905Y33968587D01*
X-38207908Y33968590D01*
X-38207910Y33968593D01*
X-38286408Y34047091D01*
X-38286412Y34047094D01*
X-38286413Y34047095D01*
X-38290257Y34049054D01*
X-38385342Y34097502D01*
X-38494998Y34114869D01*
X-38495002Y34114869D01*
X-38604659Y34097502D01*
X-38703586Y34047096D01*
X-38703593Y34047091D01*
X-38782091Y33968593D01*
X-38782096Y33968586D01*
X-38832502Y33869659D01*
X-38849869Y33760003D01*
X-39108050Y33760003D01*
X-39100131Y33809998D01*
X-39100131Y33810003D01*
X-39117499Y33919659D01*
X-39130198Y33944583D01*
X-39167905Y34018587D01*
X-39167908Y34018590D01*
X-39167910Y34018593D01*
X-39246408Y34097091D01*
X-39246412Y34097094D01*
X-39246413Y34097095D01*
X-39266041Y34107096D01*
X-39345342Y34147502D01*
X-39454998Y34164869D01*
X-39455002Y34164869D01*
X-39564659Y34147502D01*
X-39663586Y34097096D01*
X-39663593Y34097091D01*
X-39742091Y34018593D01*
X-39742096Y34018586D01*
X-39792502Y33919659D01*
X-39809869Y33810003D01*
X-45011714Y33810003D01*
X-45010131Y33819998D01*
X-45010131Y33820003D01*
X-45027499Y33929659D01*
X-45047337Y33968593D01*
X-45077905Y34028587D01*
X-45077908Y34028590D01*
X-45077910Y34028593D01*
X-45156408Y34107091D01*
X-45156412Y34107094D01*
X-45156413Y34107095D01*
X-45171670Y34114869D01*
X-45255342Y34157502D01*
X-45364998Y34174869D01*
X-45365002Y34174869D01*
X-45474659Y34157502D01*
X-45573586Y34107096D01*
X-45573593Y34107091D01*
X-45652091Y34028593D01*
X-45652096Y34028586D01*
X-45702502Y33929659D01*
X-45719869Y33820003D01*
X-47718300Y33820003D01*
X-47801046Y33864232D01*
X-47999066Y33924300D01*
X-47999068Y33924301D01*
X-47999066Y33924301D01*
X-48205000Y33944583D01*
X-48410933Y33924301D01*
X-48608957Y33864231D01*
X-48710414Y33810000D01*
X-48791450Y33766685D01*
X-48791452Y33766684D01*
X-48791453Y33766683D01*
X-48951411Y33635411D01*
X-49082683Y33475453D01*
X-49082685Y33475450D01*
X-49093546Y33455131D01*
X-49180231Y33292957D01*
X-49240301Y33094933D01*
X-49260583Y32889000D01*
X-49956789Y32889000D01*
X-49956537Y35429000D01*
X-49260583Y35429000D01*
X-49240301Y35223068D01*
X-49218565Y35151415D01*
X-49180232Y35025046D01*
X-49082685Y34842550D01*
X-49063899Y34819659D01*
X-48951411Y34682590D01*
X-48854791Y34603298D01*
X-48791450Y34551315D01*
X-48608954Y34453768D01*
X-48410934Y34393700D01*
X-48410935Y34393700D01*
X-48392471Y34391882D01*
X-48205000Y34373417D01*
X-47999066Y34393700D01*
X-47801046Y34453768D01*
X-47618550Y34551315D01*
X-47458590Y34682590D01*
X-47327315Y34842550D01*
X-47229768Y35025046D01*
X-47169700Y35223066D01*
X-47156213Y35360003D01*
X-44809869Y35360003D01*
X-44809869Y35359998D01*
X-44792502Y35250342D01*
X-44742096Y35151415D01*
X-44742091Y35151408D01*
X-44713364Y35122681D01*
X-44679879Y35061358D01*
X-44684863Y34991666D01*
X-44713364Y34947319D01*
X-44742091Y34918593D01*
X-44742096Y34918586D01*
X-44792502Y34819659D01*
X-44809869Y34710003D01*
X-44809869Y34709998D01*
X-44792502Y34600342D01*
X-44742096Y34501415D01*
X-44742091Y34501408D01*
X-44663593Y34422910D01*
X-44663590Y34422908D01*
X-44663587Y34422905D01*
X-44566463Y34373418D01*
X-44564659Y34372499D01*
X-44455002Y34355131D01*
X-44455000Y34355131D01*
X-44454998Y34355131D01*
X-44345342Y34372499D01*
X-44345341Y34372500D01*
X-44345339Y34372500D01*
X-44246413Y34422905D01*
X-44167905Y34501413D01*
X-44117500Y34600339D01*
X-44117500Y34600341D01*
X-44117499Y34600342D01*
X-44100131Y34709998D01*
X-44100131Y34710003D01*
X-44117499Y34819659D01*
X-44117500Y34819661D01*
X-44167905Y34918587D01*
X-44167907Y34918589D01*
X-44167909Y34918592D01*
X-44196636Y34947318D01*
X-44230122Y35008640D01*
X-44225138Y35078332D01*
X-44196636Y35122682D01*
X-44167909Y35151409D01*
X-44167905Y35151413D01*
X-44138052Y35210003D01*
X-37209869Y35210003D01*
X-37209869Y35209998D01*
X-37192502Y35100342D01*
X-37142096Y35001415D01*
X-37142091Y35001408D01*
X-37063593Y34922910D01*
X-37063590Y34922908D01*
X-37063587Y34922905D01*
X-37055110Y34918586D01*
X-36964659Y34872499D01*
X-36855002Y34855131D01*
X-36855000Y34855131D01*
X-36854998Y34855131D01*
X-36745342Y34872499D01*
X-36745341Y34872500D01*
X-36745339Y34872500D01*
X-36646413Y34922905D01*
X-36646407Y34922912D01*
X-36638518Y34928642D01*
X-36636951Y34926486D01*
X-36588598Y34952897D01*
X-36518905Y34947923D01*
X-36505934Y34942224D01*
X-36493938Y34936111D01*
X-36493937Y34936111D01*
X-36493935Y34936110D01*
X-36384279Y34918742D01*
X-36384277Y34918742D01*
X-36384275Y34918742D01*
X-36274621Y34936110D01*
X-36274621Y34936111D01*
X-36274616Y34936111D01*
X-36175690Y34986516D01*
X-36175688Y34986519D01*
X-36170038Y34989397D01*
X-36101369Y35002293D01*
X-36057452Y34989399D01*
X-36004661Y34962500D01*
X-36004659Y34962500D01*
X-36004657Y34962499D01*
X-35895002Y34945131D01*
X-35895000Y34945131D01*
X-35894998Y34945131D01*
X-35785342Y34962499D01*
X-35785341Y34962500D01*
X-35785339Y34962500D01*
X-35686413Y35012905D01*
X-35607905Y35091413D01*
X-35557500Y35190339D01*
X-35557500Y35190341D01*
X-35557499Y35190342D01*
X-35540131Y35299998D01*
X-35540131Y35300003D01*
X-35555652Y35398000D01*
X-33821583Y35398000D01*
X-33801301Y35192068D01*
X-33788969Y35151415D01*
X-33741232Y34994046D01*
X-33643685Y34811550D01*
X-33643683Y34811548D01*
X-33512411Y34651590D01*
X-33449964Y34600342D01*
X-33352450Y34520315D01*
X-33169954Y34422768D01*
X-32971934Y34362700D01*
X-32971935Y34362700D01*
X-32953471Y34360882D01*
X-32766000Y34342417D01*
X-32560066Y34362700D01*
X-32362046Y34422768D01*
X-32179550Y34520315D01*
X-32019590Y34651590D01*
X-31888315Y34811550D01*
X-31790768Y34994046D01*
X-31730700Y35192066D01*
X-31710417Y35398000D01*
X-31730700Y35603934D01*
X-31790768Y35801954D01*
X-31888315Y35984450D01*
X-31940298Y36047791D01*
X-32019590Y36144411D01*
X-32179548Y36275683D01*
X-32179547Y36275683D01*
X-32179550Y36275685D01*
X-32362046Y36373232D01*
X-32560066Y36433300D01*
X-32560068Y36433301D01*
X-32560066Y36433301D01*
X-32766000Y36453583D01*
X-32971933Y36433301D01*
X-33169957Y36373231D01*
X-33280102Y36314357D01*
X-33352450Y36275685D01*
X-33352452Y36275684D01*
X-33352453Y36275683D01*
X-33512411Y36144411D01*
X-33643683Y35984453D01*
X-33741231Y35801957D01*
X-33801301Y35603933D01*
X-33821583Y35398000D01*
X-35555652Y35398000D01*
X-35557499Y35409659D01*
X-35557500Y35409661D01*
X-35607905Y35508587D01*
X-35607908Y35508590D01*
X-35607910Y35508593D01*
X-35686408Y35587091D01*
X-35686412Y35587094D01*
X-35686413Y35587095D01*
X-35690257Y35589054D01*
X-35785342Y35637502D01*
X-35894998Y35654869D01*
X-35895002Y35654869D01*
X-36004659Y35637502D01*
X-36109241Y35584215D01*
X-36177911Y35571319D01*
X-36221829Y35584215D01*
X-36274619Y35611113D01*
X-36384275Y35628480D01*
X-36384279Y35628480D01*
X-36493936Y35611113D01*
X-36592864Y35560708D01*
X-36600755Y35554973D01*
X-36602319Y35557125D01*
X-36650716Y35530707D01*
X-36720407Y35535702D01*
X-36733346Y35541390D01*
X-36745341Y35547501D01*
X-36854998Y35564869D01*
X-36855002Y35564869D01*
X-36964659Y35547502D01*
X-37063586Y35497096D01*
X-37063593Y35497091D01*
X-37142091Y35418593D01*
X-37142096Y35418586D01*
X-37192502Y35319659D01*
X-37209869Y35210003D01*
X-44138052Y35210003D01*
X-44117500Y35250339D01*
X-44117500Y35250341D01*
X-44117499Y35250342D01*
X-44100131Y35359998D01*
X-44100131Y35360003D01*
X-44117499Y35469659D01*
X-44137337Y35508593D01*
X-44167905Y35568587D01*
X-44167908Y35568590D01*
X-44167910Y35568593D01*
X-44246408Y35647091D01*
X-44246412Y35647094D01*
X-44246413Y35647095D01*
X-44261670Y35654869D01*
X-44345342Y35697502D01*
X-44454998Y35714869D01*
X-44455002Y35714869D01*
X-44564659Y35697502D01*
X-44663586Y35647096D01*
X-44663593Y35647091D01*
X-44742091Y35568593D01*
X-44742096Y35568586D01*
X-44792502Y35469659D01*
X-44809869Y35360003D01*
X-47156213Y35360003D01*
X-47149417Y35429000D01*
X-47169700Y35634934D01*
X-47229768Y35832954D01*
X-47327315Y36015450D01*
X-47433149Y36144410D01*
X-47458590Y36175411D01*
X-47601264Y36292499D01*
X-47618550Y36306685D01*
X-47801046Y36404232D01*
X-47999066Y36464300D01*
X-47999068Y36464301D01*
X-47999066Y36464301D01*
X-48205000Y36484583D01*
X-48410933Y36464301D01*
X-48608957Y36404231D01*
X-48719102Y36345357D01*
X-48791450Y36306685D01*
X-48791452Y36306684D01*
X-48791453Y36306683D01*
X-48951411Y36175411D01*
X-49082683Y36015453D01*
X-49180231Y35832957D01*
X-49240301Y35634933D01*
X-49260583Y35429000D01*
X-49956537Y35429000D01*
X-49956418Y36630003D01*
X-44779869Y36630003D01*
X-44779869Y36629998D01*
X-44762502Y36520342D01*
X-44712096Y36421415D01*
X-44712091Y36421408D01*
X-44633593Y36342910D01*
X-44633590Y36342908D01*
X-44633587Y36342905D01*
X-44562497Y36306683D01*
X-44534659Y36292499D01*
X-44425002Y36275131D01*
X-44425000Y36275131D01*
X-44424998Y36275131D01*
X-44315342Y36292499D01*
X-44315341Y36292500D01*
X-44315339Y36292500D01*
X-44216413Y36342905D01*
X-44137905Y36421413D01*
X-44087500Y36520339D01*
X-44087500Y36520341D01*
X-44087499Y36520342D01*
X-44070131Y36629998D01*
X-44070131Y36630003D01*
X-44087499Y36739659D01*
X-44087500Y36739661D01*
X-44137905Y36838587D01*
X-44137908Y36838590D01*
X-44137910Y36838593D01*
X-44216408Y36917091D01*
X-44216412Y36917094D01*
X-44216413Y36917095D01*
X-44249002Y36933700D01*
X-44315342Y36967502D01*
X-44424998Y36984869D01*
X-44425002Y36984869D01*
X-44534659Y36967502D01*
X-44633586Y36917096D01*
X-44633593Y36917091D01*
X-44712091Y36838593D01*
X-44712096Y36838586D01*
X-44762502Y36739659D01*
X-44779869Y36630003D01*
X-49956418Y36630003D01*
X-49956285Y37969000D01*
X-49260583Y37969000D01*
X-49240301Y37763068D01*
X-49221169Y37699998D01*
X-49180232Y37565046D01*
X-49082685Y37382550D01*
X-49057244Y37351550D01*
X-48951411Y37222590D01*
X-48854791Y37143298D01*
X-48791450Y37091315D01*
X-48608954Y36993768D01*
X-48410934Y36933700D01*
X-48410935Y36933700D01*
X-48392471Y36931882D01*
X-48205000Y36913417D01*
X-47999066Y36933700D01*
X-47801046Y36993768D01*
X-47618550Y37091315D01*
X-47458590Y37222590D01*
X-47327315Y37382550D01*
X-47229768Y37565046D01*
X-47188830Y37700003D01*
X-43859869Y37700003D01*
X-43859869Y37699998D01*
X-43842502Y37590342D01*
X-43792096Y37491415D01*
X-43792091Y37491408D01*
X-43713593Y37412910D01*
X-43713590Y37412908D01*
X-43713587Y37412905D01*
X-43614661Y37362500D01*
X-43614659Y37362499D01*
X-43505002Y37345131D01*
X-43505000Y37345131D01*
X-43504998Y37345131D01*
X-43395342Y37362499D01*
X-43395341Y37362500D01*
X-43395339Y37362500D01*
X-43296413Y37412905D01*
X-43217905Y37491413D01*
X-43167500Y37590339D01*
X-43167500Y37590341D01*
X-43167499Y37590342D01*
X-43150131Y37699998D01*
X-43150131Y37700003D01*
X-43167499Y37809659D01*
X-43167500Y37809661D01*
X-43217905Y37908587D01*
X-43217908Y37908590D01*
X-43217910Y37908593D01*
X-43247317Y37938000D01*
X-33821583Y37938000D01*
X-33801301Y37732068D01*
X-33771266Y37633056D01*
X-33741232Y37534046D01*
X-33643685Y37351550D01*
X-33643683Y37351548D01*
X-33512411Y37191590D01*
X-33415791Y37112298D01*
X-33352450Y37060315D01*
X-33169954Y36962768D01*
X-32971934Y36902700D01*
X-32971935Y36902700D01*
X-32953471Y36900882D01*
X-32766000Y36882417D01*
X-32560066Y36902700D01*
X-32362046Y36962768D01*
X-32179550Y37060315D01*
X-32019590Y37191590D01*
X-31888315Y37351550D01*
X-31790768Y37534046D01*
X-31730700Y37732066D01*
X-31710417Y37938000D01*
X-31730700Y38143934D01*
X-31790768Y38341954D01*
X-31888315Y38524450D01*
X-31981989Y38638593D01*
X-32019590Y38684411D01*
X-32179548Y38815683D01*
X-32179547Y38815683D01*
X-32179550Y38815685D01*
X-32362046Y38913232D01*
X-32560066Y38973300D01*
X-32560068Y38973301D01*
X-32560066Y38973301D01*
X-32766000Y38993583D01*
X-32971933Y38973301D01*
X-33169957Y38913231D01*
X-33280102Y38854357D01*
X-33352450Y38815685D01*
X-33352452Y38815684D01*
X-33352453Y38815683D01*
X-33512411Y38684411D01*
X-33643683Y38524453D01*
X-33741231Y38341957D01*
X-33801301Y38143933D01*
X-33821583Y37938000D01*
X-43247317Y37938000D01*
X-43251945Y37942628D01*
X-43285430Y38003951D01*
X-43280446Y38073643D01*
X-43238574Y38129576D01*
X-43220566Y38140790D01*
X-43216413Y38142905D01*
X-43137905Y38221413D01*
X-43087500Y38320339D01*
X-43087500Y38320341D01*
X-43087499Y38320342D01*
X-43070131Y38429998D01*
X-43070131Y38430003D01*
X-43087499Y38539659D01*
X-43095546Y38555453D01*
X-43137905Y38638587D01*
X-43137908Y38638590D01*
X-43137910Y38638593D01*
X-43216408Y38717091D01*
X-43216412Y38717094D01*
X-43216413Y38717095D01*
X-43220257Y38719054D01*
X-43315342Y38767502D01*
X-43424998Y38784869D01*
X-43425002Y38784869D01*
X-43534659Y38767502D01*
X-43633586Y38717096D01*
X-43633593Y38717091D01*
X-43712091Y38638593D01*
X-43712096Y38638586D01*
X-43762502Y38539659D01*
X-43779869Y38430003D01*
X-43779869Y38429998D01*
X-43762502Y38320342D01*
X-43712096Y38221415D01*
X-43712091Y38221408D01*
X-43678056Y38187373D01*
X-43644571Y38126050D01*
X-43649555Y38056358D01*
X-43691427Y38000425D01*
X-43709437Y37989210D01*
X-43713584Y37987097D01*
X-43713593Y37987091D01*
X-43792091Y37908593D01*
X-43792096Y37908586D01*
X-43842502Y37809659D01*
X-43859869Y37700003D01*
X-47188830Y37700003D01*
X-47169700Y37763066D01*
X-47149417Y37969000D01*
X-47169700Y38174934D01*
X-47229768Y38372954D01*
X-47327315Y38555450D01*
X-47379298Y38618791D01*
X-47458590Y38715411D01*
X-47618548Y38846683D01*
X-47618547Y38846683D01*
X-47618550Y38846685D01*
X-47801046Y38944232D01*
X-47999066Y39004300D01*
X-47999068Y39004301D01*
X-47999066Y39004301D01*
X-48205000Y39024583D01*
X-48410933Y39004301D01*
X-48608957Y38944231D01*
X-48719102Y38885357D01*
X-48791450Y38846685D01*
X-48791452Y38846684D01*
X-48791453Y38846683D01*
X-48951411Y38715411D01*
X-49082683Y38555453D01*
X-49082685Y38555450D01*
X-49099253Y38524453D01*
X-49180231Y38372957D01*
X-49240301Y38174933D01*
X-49260583Y37969000D01*
X-49956285Y37969000D01*
X-49956033Y40509000D01*
X-49260583Y40509000D01*
X-49240301Y40303068D01*
X-49210266Y40204056D01*
X-49180232Y40105046D01*
X-49082685Y39922550D01*
X-49057244Y39891550D01*
X-48951411Y39762590D01*
X-48854791Y39683298D01*
X-48791450Y39631315D01*
X-48608954Y39533768D01*
X-48410934Y39473700D01*
X-48410935Y39473700D01*
X-48392471Y39471882D01*
X-48205000Y39453417D01*
X-47999066Y39473700D01*
X-47801046Y39533768D01*
X-47618550Y39631315D01*
X-47607964Y39640003D01*
X-37239869Y39640003D01*
X-37239869Y39639998D01*
X-37222502Y39530342D01*
X-37172096Y39431415D01*
X-37172091Y39431408D01*
X-37093593Y39352910D01*
X-37093590Y39352908D01*
X-37093587Y39352905D01*
X-36994661Y39302500D01*
X-36994659Y39302499D01*
X-36885002Y39285131D01*
X-36885000Y39285131D01*
X-36884998Y39285131D01*
X-36775342Y39302499D01*
X-36775341Y39302500D01*
X-36775339Y39302500D01*
X-36676413Y39352905D01*
X-36652681Y39376638D01*
X-36591360Y39410122D01*
X-36521668Y39405138D01*
X-36477320Y39376638D01*
X-36453587Y39352905D01*
X-36354661Y39302500D01*
X-36354659Y39302499D01*
X-36245002Y39285131D01*
X-36245000Y39285131D01*
X-36244998Y39285131D01*
X-36135342Y39302499D01*
X-36135341Y39302500D01*
X-36135339Y39302500D01*
X-36036413Y39352905D01*
X-35957905Y39431413D01*
X-35907500Y39530339D01*
X-35907500Y39530341D01*
X-35907499Y39530342D01*
X-35890131Y39639998D01*
X-35890131Y39640003D01*
X-35907499Y39749659D01*
X-35925000Y39784007D01*
X-35957905Y39848587D01*
X-35957908Y39848590D01*
X-35957911Y39848594D01*
X-36036408Y39927091D01*
X-36036412Y39927094D01*
X-36036413Y39927095D01*
X-36040257Y39929054D01*
X-36135342Y39977502D01*
X-36244998Y39994869D01*
X-36245002Y39994869D01*
X-36354659Y39977502D01*
X-36453586Y39927096D01*
X-36453593Y39927091D01*
X-36477319Y39903364D01*
X-36538642Y39869879D01*
X-36608334Y39874863D01*
X-36652681Y39903364D01*
X-36676408Y39927091D01*
X-36676412Y39927094D01*
X-36676413Y39927095D01*
X-36680257Y39929054D01*
X-36775342Y39977502D01*
X-36884998Y39994869D01*
X-36885002Y39994869D01*
X-36994659Y39977502D01*
X-37093586Y39927096D01*
X-37093593Y39927091D01*
X-37172089Y39848594D01*
X-37172096Y39848586D01*
X-37222502Y39749659D01*
X-37239869Y39640003D01*
X-47607964Y39640003D01*
X-47458590Y39762590D01*
X-47327315Y39922550D01*
X-47229768Y40105046D01*
X-47169700Y40303066D01*
X-47152470Y40478000D01*
X-33821583Y40478000D01*
X-33801301Y40272068D01*
X-33801300Y40272066D01*
X-33741232Y40074046D01*
X-33643685Y39891550D01*
X-33643683Y39891548D01*
X-33512411Y39731590D01*
X-33415791Y39652298D01*
X-33352450Y39600315D01*
X-33169954Y39502768D01*
X-32971934Y39442700D01*
X-32971935Y39442700D01*
X-32953471Y39440882D01*
X-32766000Y39422417D01*
X-32560066Y39442700D01*
X-32362046Y39502768D01*
X-32179550Y39600315D01*
X-32019590Y39731590D01*
X-31888315Y39891550D01*
X-31790768Y40074046D01*
X-31730700Y40272066D01*
X-31710417Y40478000D01*
X-31730700Y40683934D01*
X-31790768Y40881954D01*
X-31888315Y41064450D01*
X-31940298Y41127791D01*
X-32019590Y41224411D01*
X-32179548Y41355683D01*
X-32179547Y41355683D01*
X-32179550Y41355685D01*
X-32362046Y41453232D01*
X-32560066Y41513300D01*
X-32560068Y41513301D01*
X-32560066Y41513301D01*
X-32766000Y41533583D01*
X-32971933Y41513301D01*
X-33169957Y41453231D01*
X-33222527Y41425131D01*
X-33352450Y41355685D01*
X-33352452Y41355684D01*
X-33352453Y41355683D01*
X-33512411Y41224411D01*
X-33643683Y41064453D01*
X-33741231Y40881957D01*
X-33801301Y40683933D01*
X-33821583Y40478000D01*
X-47152470Y40478000D01*
X-47149417Y40509000D01*
X-47169700Y40714934D01*
X-47229768Y40912954D01*
X-47327315Y41095450D01*
X-47433149Y41224410D01*
X-47458590Y41255411D01*
X-47618548Y41386683D01*
X-47618547Y41386683D01*
X-47618550Y41386685D01*
X-47801046Y41484232D01*
X-47999066Y41544300D01*
X-47999068Y41544301D01*
X-47999066Y41544301D01*
X-48205000Y41564583D01*
X-48410933Y41544301D01*
X-48608957Y41484231D01*
X-48719102Y41425357D01*
X-48791450Y41386685D01*
X-48791452Y41386684D01*
X-48791453Y41386683D01*
X-48951411Y41255411D01*
X-49082683Y41095453D01*
X-49180231Y40912957D01*
X-49240301Y40714933D01*
X-49260583Y40509000D01*
X-49956033Y40509000D01*
X-49955907Y41780003D01*
X-47299869Y41780003D01*
X-47299869Y41779998D01*
X-47282502Y41670342D01*
X-47232096Y41571415D01*
X-47232091Y41571408D01*
X-47153593Y41492910D01*
X-47153590Y41492908D01*
X-47153587Y41492905D01*
X-47075724Y41453232D01*
X-47054659Y41442499D01*
X-46945002Y41425131D01*
X-46945000Y41425131D01*
X-46944998Y41425131D01*
X-46835342Y41442499D01*
X-46835341Y41442500D01*
X-46835339Y41442500D01*
X-46736413Y41492905D01*
X-46657905Y41571413D01*
X-46607500Y41670339D01*
X-46607500Y41670341D01*
X-46607499Y41670342D01*
X-46590131Y41779998D01*
X-46590131Y41780003D01*
X-46607499Y41889659D01*
X-46644571Y41962417D01*
X-46657905Y41988587D01*
X-46657908Y41988590D01*
X-46657910Y41988593D01*
X-46736408Y42067091D01*
X-46736412Y42067094D01*
X-46736413Y42067095D01*
X-46740257Y42069054D01*
X-46835342Y42117502D01*
X-46944998Y42134869D01*
X-46945002Y42134869D01*
X-47054659Y42117502D01*
X-47153586Y42067096D01*
X-47153593Y42067091D01*
X-47232091Y41988593D01*
X-47232096Y41988586D01*
X-47282502Y41889659D01*
X-47299869Y41780003D01*
X-49955907Y41780003D01*
X-49955781Y43049000D01*
X-49260583Y43049000D01*
X-49240301Y42843068D01*
X-49210266Y42744056D01*
X-49180232Y42645046D01*
X-49082685Y42462550D01*
X-49082683Y42462548D01*
X-48951411Y42302590D01*
X-48854791Y42223298D01*
X-48791450Y42171315D01*
X-48608954Y42073768D01*
X-48410934Y42013700D01*
X-48410935Y42013700D01*
X-48392471Y42011882D01*
X-48205000Y41993417D01*
X-47999066Y42013700D01*
X-47801046Y42073768D01*
X-47618550Y42171315D01*
X-47461742Y42300003D01*
X-40719869Y42300003D01*
X-40719869Y42299998D01*
X-40702502Y42190342D01*
X-40652096Y42091415D01*
X-40652091Y42091408D01*
X-40573593Y42012910D01*
X-40573590Y42012908D01*
X-40573587Y42012905D01*
X-40514306Y41982700D01*
X-40474659Y41962499D01*
X-40365002Y41945131D01*
X-40365000Y41945131D01*
X-40364998Y41945131D01*
X-40255342Y41962499D01*
X-40255341Y41962500D01*
X-40255339Y41962500D01*
X-40156413Y42012905D01*
X-40077905Y42091413D01*
X-40027500Y42190339D01*
X-40027500Y42190341D01*
X-40027499Y42190342D01*
X-40010131Y42299998D01*
X-40010131Y42300003D01*
X-40027499Y42409659D01*
X-40054448Y42462550D01*
X-40077905Y42508587D01*
X-40077908Y42508590D01*
X-40077910Y42508593D01*
X-40156408Y42587091D01*
X-40156412Y42587094D01*
X-40156413Y42587095D01*
X-40160257Y42589054D01*
X-40255342Y42637502D01*
X-40364998Y42654869D01*
X-40365002Y42654869D01*
X-40474659Y42637502D01*
X-40573586Y42587096D01*
X-40573593Y42587091D01*
X-40652091Y42508593D01*
X-40652096Y42508586D01*
X-40702502Y42409659D01*
X-40719869Y42300003D01*
X-47461742Y42300003D01*
X-47458590Y42302590D01*
X-47327315Y42462550D01*
X-47229768Y42645046D01*
X-47169700Y42843066D01*
X-47149417Y43049000D01*
X-47166017Y43217540D01*
X-45496736Y43217540D01*
X-45496736Y43217535D01*
X-45479369Y43107879D01*
X-45428963Y43008952D01*
X-45428958Y43008945D01*
X-45350460Y42930447D01*
X-45350457Y42930445D01*
X-45350454Y42930442D01*
X-45325385Y42917669D01*
X-45251526Y42880036D01*
X-45141869Y42862668D01*
X-45141867Y42862668D01*
X-45141865Y42862668D01*
X-45032211Y42880036D01*
X-45032210Y42880037D01*
X-45032206Y42880037D01*
X-45032203Y42880039D01*
X-45022924Y42883053D01*
X-45021901Y42879904D01*
X-44969988Y42889668D01*
X-44905241Y42863409D01*
X-44894647Y42853964D01*
X-44883593Y42842910D01*
X-44883590Y42842908D01*
X-44883587Y42842905D01*
X-44784661Y42792500D01*
X-44784659Y42792499D01*
X-44675002Y42775131D01*
X-44675000Y42775131D01*
X-44674998Y42775131D01*
X-44565342Y42792499D01*
X-44565341Y42792500D01*
X-44565339Y42792500D01*
X-44466413Y42842905D01*
X-44387905Y42921413D01*
X-44337500Y43020339D01*
X-44337500Y43020341D01*
X-44337499Y43020342D01*
X-44320131Y43129998D01*
X-44320131Y43130003D01*
X-44337499Y43239659D01*
X-44337500Y43239661D01*
X-44387905Y43338587D01*
X-44387908Y43338590D01*
X-44387910Y43338593D01*
X-44466408Y43417091D01*
X-44466412Y43417094D01*
X-44466413Y43417095D01*
X-44475955Y43421957D01*
X-44565342Y43467502D01*
X-44674998Y43484869D01*
X-44675002Y43484869D01*
X-44784660Y43467501D01*
X-44793937Y43464486D01*
X-44794958Y43467626D01*
X-44846945Y43457876D01*
X-44911679Y43484169D01*
X-44922215Y43493567D01*
X-44933280Y43504632D01*
X-44937124Y43506591D01*
X-45032209Y43555039D01*
X-45141865Y43572406D01*
X-45141869Y43572406D01*
X-45251526Y43555039D01*
X-45350453Y43504633D01*
X-45350460Y43504628D01*
X-45428958Y43426130D01*
X-45428963Y43426123D01*
X-45479369Y43327196D01*
X-45496736Y43217540D01*
X-47166017Y43217540D01*
X-47169700Y43254934D01*
X-47229768Y43452954D01*
X-47327315Y43635450D01*
X-47433149Y43764410D01*
X-47458590Y43795411D01*
X-47618548Y43926683D01*
X-47618547Y43926683D01*
X-47618550Y43926685D01*
X-47801046Y44024232D01*
X-47999066Y44084300D01*
X-47999068Y44084301D01*
X-47999066Y44084301D01*
X-48205000Y44104583D01*
X-48410933Y44084301D01*
X-48608957Y44024231D01*
X-48719102Y43965357D01*
X-48791450Y43926685D01*
X-48791452Y43926684D01*
X-48791453Y43926683D01*
X-48951411Y43795411D01*
X-49082683Y43635453D01*
X-49180231Y43452957D01*
X-49240301Y43254933D01*
X-49260583Y43049000D01*
X-49955781Y43049000D01*
X-49955529Y45589000D01*
X-49260583Y45589000D01*
X-49240301Y45383068D01*
X-49224307Y45330342D01*
X-49180232Y45185046D01*
X-49082685Y45002550D01*
X-49057244Y44971550D01*
X-48951411Y44842590D01*
X-48854791Y44763298D01*
X-48791450Y44711315D01*
X-48608954Y44613768D01*
X-48410934Y44553700D01*
X-48410935Y44553700D01*
X-48392471Y44551882D01*
X-48205000Y44533417D01*
X-47999066Y44553700D01*
X-47801046Y44613768D01*
X-47618550Y44711315D01*
X-47461742Y44840003D01*
X-46869869Y44840003D01*
X-46869869Y44839998D01*
X-46852502Y44730342D01*
X-46802096Y44631415D01*
X-46802091Y44631408D01*
X-46723593Y44552910D01*
X-46723590Y44552908D01*
X-46723587Y44552905D01*
X-46685341Y44533418D01*
X-46624659Y44502499D01*
X-46515002Y44485131D01*
X-46515000Y44485131D01*
X-46514998Y44485131D01*
X-46405342Y44502499D01*
X-46405341Y44502500D01*
X-46405339Y44502500D01*
X-46306413Y44552905D01*
X-46227905Y44631413D01*
X-46177500Y44730339D01*
X-46177500Y44730341D01*
X-46177499Y44730342D01*
X-46160131Y44839998D01*
X-46160131Y44840003D01*
X-46177499Y44949659D01*
X-46182768Y44960000D01*
X-46227905Y45048587D01*
X-46227908Y45048590D01*
X-46227910Y45048593D01*
X-46306408Y45127091D01*
X-46306412Y45127094D01*
X-46306413Y45127095D01*
X-46357078Y45152910D01*
X-46405342Y45177502D01*
X-46514998Y45194869D01*
X-46515002Y45194869D01*
X-46624659Y45177502D01*
X-46723586Y45127096D01*
X-46723593Y45127091D01*
X-46802091Y45048593D01*
X-46802096Y45048586D01*
X-46852502Y44949659D01*
X-46869869Y44840003D01*
X-47461742Y44840003D01*
X-47458590Y44842590D01*
X-47327315Y45002550D01*
X-47229768Y45185046D01*
X-47169700Y45383066D01*
X-47164092Y45440003D01*
X-44449869Y45440003D01*
X-44449869Y45439998D01*
X-44432502Y45330342D01*
X-44382096Y45231415D01*
X-44382091Y45231408D01*
X-44303593Y45152910D01*
X-44303590Y45152908D01*
X-44303587Y45152905D01*
X-44231855Y45116356D01*
X-44181060Y45068383D01*
X-44164264Y45000562D01*
X-44165676Y44986477D01*
X-44169869Y44960001D01*
X-44169869Y44959998D01*
X-44152502Y44850342D01*
X-44102096Y44751415D01*
X-44102091Y44751408D01*
X-44023593Y44672910D01*
X-44023590Y44672908D01*
X-44023587Y44672905D01*
X-43942158Y44631415D01*
X-43924659Y44622499D01*
X-43815002Y44605131D01*
X-43815000Y44605131D01*
X-43814998Y44605131D01*
X-43705342Y44622499D01*
X-43705341Y44622500D01*
X-43705339Y44622500D01*
X-43606413Y44672905D01*
X-43527905Y44751413D01*
X-43477500Y44850339D01*
X-43477500Y44850341D01*
X-43477499Y44850342D01*
X-43476008Y44859753D01*
X-37475500Y44859753D01*
X-37475500Y43120248D01*
X-37463869Y43061771D01*
X-37463868Y43061770D01*
X-37419553Y42995448D01*
X-37353231Y42951133D01*
X-37353230Y42951132D01*
X-37294753Y42939501D01*
X-37294750Y42939500D01*
X-37294748Y42939500D01*
X-35555250Y42939500D01*
X-35555249Y42939501D01*
X-35540432Y42942448D01*
X-35496771Y42951132D01*
X-35496771Y42951133D01*
X-35496769Y42951133D01*
X-35430448Y42995448D01*
X-35415379Y43018000D01*
X-33821583Y43018000D01*
X-33801301Y42812068D01*
X-33790096Y42775131D01*
X-33741232Y42614046D01*
X-33643685Y42431550D01*
X-33609031Y42389323D01*
X-33512411Y42271590D01*
X-33415791Y42192298D01*
X-33352450Y42140315D01*
X-33169954Y42042768D01*
X-32971934Y41982700D01*
X-32971935Y41982700D01*
X-32953471Y41980882D01*
X-32766000Y41962417D01*
X-32560066Y41982700D01*
X-32362046Y42042768D01*
X-32179550Y42140315D01*
X-32019590Y42271590D01*
X-31888315Y42431550D01*
X-31790768Y42614046D01*
X-31730700Y42812066D01*
X-31710417Y43018000D01*
X-31730700Y43223934D01*
X-31790768Y43421954D01*
X-31888315Y43604450D01*
X-31940298Y43667791D01*
X-32019590Y43764411D01*
X-32179548Y43895683D01*
X-32179547Y43895683D01*
X-32179550Y43895685D01*
X-32362046Y43993232D01*
X-32560066Y44053300D01*
X-32560068Y44053301D01*
X-32560066Y44053301D01*
X-32766000Y44073583D01*
X-32971933Y44053301D01*
X-33169957Y43993231D01*
X-33280102Y43934357D01*
X-33352450Y43895685D01*
X-33352452Y43895684D01*
X-33352453Y43895683D01*
X-33512411Y43764411D01*
X-33643683Y43604453D01*
X-33741231Y43421957D01*
X-33801301Y43223933D01*
X-33821583Y43018000D01*
X-35415379Y43018000D01*
X-35386133Y43061769D01*
X-35386133Y43061771D01*
X-35386132Y43061771D01*
X-35374501Y43120248D01*
X-35374500Y43120250D01*
X-35374500Y44859751D01*
X-35374501Y44859753D01*
X-35386132Y44918230D01*
X-35386133Y44918231D01*
X-35430448Y44984553D01*
X-35496770Y45028868D01*
X-35496771Y45028869D01*
X-35555248Y45040500D01*
X-35555252Y45040500D01*
X-37294748Y45040500D01*
X-37294753Y45040500D01*
X-37353230Y45028869D01*
X-37353231Y45028868D01*
X-37419553Y44984553D01*
X-37463868Y44918231D01*
X-37463869Y44918230D01*
X-37475500Y44859753D01*
X-43476008Y44859753D01*
X-43460131Y44959998D01*
X-43460131Y44969759D01*
X-43457192Y44969759D01*
X-43450264Y45023447D01*
X-43405278Y45076908D01*
X-43393058Y45084044D01*
X-43336413Y45112905D01*
X-43257905Y45191413D01*
X-43207500Y45290339D01*
X-43207500Y45290341D01*
X-43207499Y45290342D01*
X-43190131Y45399998D01*
X-43190131Y45400003D01*
X-43207499Y45509659D01*
X-43241860Y45577096D01*
X-43257905Y45608587D01*
X-43261633Y45612315D01*
X-43295121Y45673636D01*
X-43290140Y45743328D01*
X-43261633Y45787685D01*
X-43260557Y45788761D01*
X-43257905Y45791413D01*
X-43207500Y45890339D01*
X-43207500Y45890341D01*
X-43207499Y45890342D01*
X-43190131Y45999998D01*
X-43190131Y46000003D01*
X-43207499Y46109659D01*
X-43241021Y46175450D01*
X-43257905Y46208587D01*
X-43257906Y46208588D01*
X-43262336Y46217283D01*
X-43260752Y46218091D01*
X-43280315Y46272916D01*
X-43264493Y46340970D01*
X-43258377Y46350489D01*
X-43257908Y46351411D01*
X-43257905Y46351413D01*
X-43207500Y46450339D01*
X-43207500Y46450341D01*
X-43207499Y46450342D01*
X-43190131Y46559998D01*
X-43190131Y46560003D01*
X-43207499Y46669657D01*
X-43207500Y46669659D01*
X-43207500Y46669661D01*
X-43231727Y46717209D01*
X-43244622Y46785874D01*
X-43221556Y46846390D01*
X-43217911Y46851408D01*
X-43217905Y46851413D01*
X-43167500Y46950339D01*
X-43167500Y46950341D01*
X-43167499Y46950342D01*
X-43150131Y47059998D01*
X-43150131Y47060003D01*
X-43167499Y47169659D01*
X-43178036Y47190339D01*
X-43217905Y47268587D01*
X-43217908Y47268590D01*
X-43217910Y47268593D01*
X-43296408Y47347091D01*
X-43296412Y47347094D01*
X-43296413Y47347095D01*
X-43366076Y47382590D01*
X-43395342Y47397502D01*
X-43504998Y47414869D01*
X-43505002Y47414869D01*
X-43614659Y47397502D01*
X-43722283Y47342664D01*
X-43723885Y47345808D01*
X-43772971Y47328315D01*
X-43837383Y47343321D01*
X-43837717Y47342664D01*
X-43840375Y47344019D01*
X-43841018Y47344168D01*
X-43842355Y47345027D01*
X-43846413Y47347095D01*
X-43916076Y47382590D01*
X-43945342Y47397502D01*
X-44054998Y47414869D01*
X-44055002Y47414869D01*
X-44164659Y47397502D01*
X-44263586Y47347096D01*
X-44263593Y47347091D01*
X-44342091Y47268593D01*
X-44342096Y47268586D01*
X-44392502Y47169659D01*
X-44409869Y47060003D01*
X-44409869Y47059998D01*
X-44392502Y46950342D01*
X-44349677Y46866294D01*
X-44336781Y46797625D01*
X-44349677Y46753706D01*
X-44392502Y46669659D01*
X-44409869Y46560003D01*
X-44409869Y46559998D01*
X-44392502Y46450342D01*
X-44348288Y46363567D01*
X-44335392Y46294898D01*
X-44361669Y46230157D01*
X-44371086Y46219597D01*
X-44372092Y46218592D01*
X-44372096Y46218586D01*
X-44422502Y46119659D01*
X-44439869Y46010003D01*
X-44439869Y46009998D01*
X-44422502Y45900342D01*
X-44367664Y45792717D01*
X-44369714Y45791673D01*
X-44350764Y45738569D01*
X-44366586Y45670515D01*
X-44376927Y45656901D01*
X-44376356Y45656486D01*
X-44382096Y45648586D01*
X-44432502Y45549659D01*
X-44449869Y45440003D01*
X-47164092Y45440003D01*
X-47149417Y45589000D01*
X-47169700Y45794934D01*
X-47229768Y45992954D01*
X-47327315Y46175450D01*
X-47405684Y46270944D01*
X-47458590Y46335411D01*
X-47618548Y46466683D01*
X-47618547Y46466683D01*
X-47618550Y46466685D01*
X-47774426Y46550003D01*
X-46769869Y46550003D01*
X-46769869Y46549998D01*
X-46752502Y46440342D01*
X-46702096Y46341415D01*
X-46702091Y46341408D01*
X-46623593Y46262910D01*
X-46623590Y46262908D01*
X-46623587Y46262905D01*
X-46535634Y46218091D01*
X-46524659Y46212499D01*
X-46415002Y46195131D01*
X-46415000Y46195131D01*
X-46414998Y46195131D01*
X-46305342Y46212499D01*
X-46305341Y46212500D01*
X-46305339Y46212500D01*
X-46206413Y46262905D01*
X-46127905Y46341413D01*
X-46077500Y46440339D01*
X-46077500Y46440341D01*
X-46077499Y46440342D01*
X-46060131Y46549998D01*
X-46060131Y46550003D01*
X-46077499Y46659659D01*
X-46106820Y46717205D01*
X-46127905Y46758587D01*
X-46127908Y46758590D01*
X-46127910Y46758593D01*
X-46206408Y46837091D01*
X-46206412Y46837094D01*
X-46206413Y46837095D01*
X-46210776Y46839318D01*
X-46305342Y46887502D01*
X-46414998Y46904869D01*
X-46415002Y46904869D01*
X-46524659Y46887502D01*
X-46623586Y46837096D01*
X-46623593Y46837091D01*
X-46702091Y46758593D01*
X-46702096Y46758586D01*
X-46752502Y46659659D01*
X-46769869Y46550003D01*
X-47774426Y46550003D01*
X-47801046Y46564232D01*
X-47999066Y46624300D01*
X-47999068Y46624301D01*
X-47999066Y46624301D01*
X-48205000Y46644583D01*
X-48410933Y46624301D01*
X-48608957Y46564231D01*
X-48672997Y46530000D01*
X-48791450Y46466685D01*
X-48791452Y46466684D01*
X-48791453Y46466683D01*
X-48951411Y46335411D01*
X-49082683Y46175453D01*
X-49180231Y45992957D01*
X-49240301Y45794933D01*
X-49260583Y45589000D01*
X-49955529Y45589000D01*
X-49955277Y48129000D01*
X-49260583Y48129000D01*
X-49240301Y47923068D01*
X-49227237Y47880003D01*
X-49180232Y47725046D01*
X-49082685Y47542550D01*
X-49057244Y47511550D01*
X-48951411Y47382590D01*
X-48854791Y47303298D01*
X-48791450Y47251315D01*
X-48608954Y47153768D01*
X-48410934Y47093700D01*
X-48410935Y47093700D01*
X-48392471Y47091882D01*
X-48205000Y47073417D01*
X-47999066Y47093700D01*
X-47801046Y47153768D01*
X-47618550Y47251315D01*
X-47458590Y47382590D01*
X-47327315Y47542550D01*
X-47229768Y47725046D01*
X-47182763Y47880003D01*
X-38889869Y47880003D01*
X-38889869Y47879998D01*
X-38872502Y47770342D01*
X-38872500Y47770339D01*
X-38822095Y47671413D01*
X-38751343Y47600661D01*
X-38717859Y47539340D01*
X-38722843Y47469648D01*
X-38728539Y47456688D01*
X-38752502Y47409658D01*
X-38769869Y47300003D01*
X-38769869Y47299998D01*
X-38752502Y47190342D01*
X-38702096Y47091415D01*
X-38702091Y47091408D01*
X-38688364Y47077681D01*
X-38654879Y47016358D01*
X-38659863Y46946666D01*
X-38678336Y46917924D01*
X-38676356Y46916486D01*
X-38682096Y46908586D01*
X-38732502Y46809659D01*
X-38749869Y46700003D01*
X-38749869Y46699998D01*
X-38732502Y46590342D01*
X-38677664Y46482717D01*
X-38679714Y46481673D01*
X-38660764Y46428569D01*
X-38676586Y46360515D01*
X-38686927Y46346901D01*
X-38686356Y46346486D01*
X-38692096Y46338586D01*
X-38742502Y46239659D01*
X-38759869Y46130003D01*
X-38759869Y46129998D01*
X-38742502Y46020342D01*
X-38692096Y45921415D01*
X-38692091Y45921408D01*
X-38606687Y45836004D01*
X-38607983Y45834709D01*
X-38572549Y45788761D01*
X-38566567Y45719148D01*
X-38599170Y45657352D01*
X-38636935Y45633832D01*
X-38635966Y45631930D01*
X-38743586Y45577096D01*
X-38743593Y45577091D01*
X-38822091Y45498593D01*
X-38822096Y45498586D01*
X-38872502Y45399659D01*
X-38889869Y45290003D01*
X-38889869Y45289998D01*
X-38872502Y45180342D01*
X-38822096Y45081415D01*
X-38822091Y45081408D01*
X-38743593Y45002910D01*
X-38743590Y45002908D01*
X-38743587Y45002905D01*
X-38659377Y44959998D01*
X-38644659Y44952499D01*
X-38535002Y44935131D01*
X-38535000Y44935131D01*
X-38534998Y44935131D01*
X-38425342Y44952499D01*
X-38425341Y44952500D01*
X-38425339Y44952500D01*
X-38326413Y45002905D01*
X-38247905Y45081413D01*
X-38197500Y45180339D01*
X-38197500Y45180341D01*
X-38197499Y45180342D01*
X-38180131Y45289998D01*
X-38180131Y45290003D01*
X-38197499Y45399659D01*
X-38235590Y45474417D01*
X-38247905Y45498587D01*
X-38247908Y45498590D01*
X-38247910Y45498593D01*
X-38333313Y45583996D01*
X-38332018Y45585292D01*
X-38367453Y45631243D01*
X-38373434Y45700856D01*
X-38340829Y45762652D01*
X-38303063Y45786165D01*
X-38304034Y45788070D01*
X-38295341Y45792500D01*
X-38295339Y45792500D01*
X-38196413Y45842905D01*
X-38117905Y45921413D01*
X-38067500Y46020339D01*
X-38067500Y46020341D01*
X-38067499Y46020342D01*
X-38050131Y46129998D01*
X-38050131Y46130003D01*
X-38067499Y46239659D01*
X-38088054Y46280000D01*
X-38117905Y46338587D01*
X-38117906Y46338588D01*
X-38122336Y46347283D01*
X-38120287Y46348328D01*
X-38139237Y46401427D01*
X-38123417Y46469482D01*
X-38113071Y46483098D01*
X-38113644Y46483514D01*
X-38107911Y46491408D01*
X-38107905Y46491413D01*
X-38088244Y46530000D01*
X-37480583Y46530000D01*
X-37460301Y46324068D01*
X-37452714Y46299057D01*
X-37400232Y46126046D01*
X-37302685Y45943550D01*
X-37268031Y45901323D01*
X-37171411Y45783590D01*
X-37097465Y45722905D01*
X-37011450Y45652315D01*
X-36828954Y45554768D01*
X-36630934Y45494700D01*
X-36630935Y45494700D01*
X-36612471Y45492882D01*
X-36425000Y45474417D01*
X-36219066Y45494700D01*
X-36021046Y45554768D01*
X-36014999Y45558000D01*
X-33821583Y45558000D01*
X-33801301Y45352068D01*
X-33782576Y45290339D01*
X-33741232Y45154046D01*
X-33643685Y44971550D01*
X-33613797Y44935131D01*
X-33512411Y44811590D01*
X-33439086Y44751415D01*
X-33352450Y44680315D01*
X-33169954Y44582768D01*
X-32971934Y44522700D01*
X-32971935Y44522700D01*
X-32953471Y44520882D01*
X-32766000Y44502417D01*
X-32560066Y44522700D01*
X-32362046Y44582768D01*
X-32179550Y44680315D01*
X-32019590Y44811590D01*
X-31888315Y44971550D01*
X-31790768Y45154046D01*
X-31730700Y45352066D01*
X-31710417Y45558000D01*
X-31730700Y45763934D01*
X-31790768Y45961954D01*
X-31888315Y46144450D01*
X-31959083Y46230682D01*
X-32019590Y46304411D01*
X-32179548Y46435683D01*
X-32179547Y46435683D01*
X-32179550Y46435685D01*
X-32362046Y46533232D01*
X-32560066Y46593300D01*
X-32560068Y46593301D01*
X-32560066Y46593301D01*
X-32766000Y46613583D01*
X-32971933Y46593301D01*
X-33169957Y46533231D01*
X-33248191Y46491413D01*
X-33352450Y46435685D01*
X-33352452Y46435684D01*
X-33352453Y46435683D01*
X-33512411Y46304411D01*
X-33643683Y46144453D01*
X-33643685Y46144450D01*
X-33651410Y46129998D01*
X-33741231Y45961957D01*
X-33801301Y45763933D01*
X-33821583Y45558000D01*
X-36014999Y45558000D01*
X-35838550Y45652315D01*
X-35678590Y45783590D01*
X-35547315Y45943550D01*
X-35449768Y46126046D01*
X-35389700Y46324066D01*
X-35369417Y46530000D01*
X-35389700Y46735934D01*
X-35449768Y46933954D01*
X-35547315Y47116450D01*
X-35632554Y47220315D01*
X-35678590Y47276411D01*
X-35796323Y47373031D01*
X-35838550Y47407685D01*
X-36021046Y47505232D01*
X-36219066Y47565300D01*
X-36219068Y47565301D01*
X-36219066Y47565301D01*
X-36425000Y47585583D01*
X-36630933Y47565301D01*
X-36828957Y47505231D01*
X-36919773Y47456688D01*
X-37011450Y47407685D01*
X-37011452Y47407684D01*
X-37011453Y47407683D01*
X-37171411Y47276411D01*
X-37297500Y47122768D01*
X-37302685Y47116450D01*
X-37325686Y47073418D01*
X-37400231Y46933957D01*
X-37460301Y46735933D01*
X-37480583Y46530000D01*
X-38088244Y46530000D01*
X-38057500Y46590339D01*
X-38057500Y46590341D01*
X-38057499Y46590342D01*
X-38040131Y46699998D01*
X-38040131Y46700003D01*
X-38057499Y46809659D01*
X-38106011Y46904869D01*
X-38107905Y46908587D01*
X-38107908Y46908590D01*
X-38107910Y46908593D01*
X-38121637Y46922320D01*
X-38155122Y46983643D01*
X-38150138Y47053335D01*
X-38131645Y47082062D01*
X-38133644Y47083514D01*
X-38127911Y47091408D01*
X-38127905Y47091413D01*
X-38077500Y47190339D01*
X-38077500Y47190341D01*
X-38077499Y47190342D01*
X-38060131Y47299998D01*
X-38060131Y47300003D01*
X-38077499Y47409659D01*
X-38080154Y47414869D01*
X-38127905Y47508587D01*
X-38198659Y47579341D01*
X-38232142Y47640661D01*
X-38227158Y47710353D01*
X-38221469Y47723298D01*
X-38197500Y47770339D01*
X-38180131Y47880000D01*
X-38186952Y47923068D01*
X-38197499Y47989659D01*
X-38210114Y48014418D01*
X-38247905Y48088587D01*
X-38247908Y48088590D01*
X-38247910Y48088593D01*
X-38326408Y48167091D01*
X-38326412Y48167094D01*
X-38326413Y48167095D01*
X-38375916Y48192318D01*
X-38425342Y48217502D01*
X-38534998Y48234869D01*
X-38535002Y48234869D01*
X-38644659Y48217502D01*
X-38743586Y48167096D01*
X-38743593Y48167091D01*
X-38822091Y48088593D01*
X-38822096Y48088586D01*
X-38872502Y47989659D01*
X-38889869Y47880003D01*
X-47182763Y47880003D01*
X-47169700Y47923066D01*
X-47149417Y48129000D01*
X-47169700Y48334934D01*
X-47229768Y48532954D01*
X-47327315Y48715450D01*
X-47433149Y48844410D01*
X-47458590Y48875411D01*
X-47618548Y49006683D01*
X-47618547Y49006683D01*
X-47618550Y49006685D01*
X-47737003Y49070000D01*
X-37480583Y49070000D01*
X-37460301Y48864068D01*
X-37430266Y48765056D01*
X-37400232Y48666046D01*
X-37302685Y48483550D01*
X-37302683Y48483548D01*
X-37171411Y48323590D01*
X-37147458Y48303933D01*
X-37011450Y48192315D01*
X-36828954Y48094768D01*
X-36630934Y48034700D01*
X-36630935Y48034700D01*
X-36612471Y48032882D01*
X-36425000Y48014417D01*
X-36219066Y48034700D01*
X-36021046Y48094768D01*
X-36014999Y48098000D01*
X-33821583Y48098000D01*
X-33801301Y47892068D01*
X-33771266Y47793056D01*
X-33741232Y47694046D01*
X-33643685Y47511550D01*
X-33638500Y47505232D01*
X-33512411Y47351590D01*
X-33449551Y47300003D01*
X-33352450Y47220315D01*
X-33169954Y47122768D01*
X-32971934Y47062700D01*
X-32971935Y47062700D01*
X-32953471Y47060882D01*
X-32766000Y47042417D01*
X-32560066Y47062700D01*
X-32362046Y47122768D01*
X-32179550Y47220315D01*
X-32019590Y47351590D01*
X-31888315Y47511550D01*
X-31790768Y47694046D01*
X-31730700Y47892066D01*
X-31710417Y48098000D01*
X-31730700Y48303934D01*
X-31790768Y48501954D01*
X-31888315Y48684450D01*
X-31940298Y48747791D01*
X-32019590Y48844411D01*
X-32179548Y48975683D01*
X-32179547Y48975683D01*
X-32179550Y48975685D01*
X-32362046Y49073232D01*
X-32560066Y49133300D01*
X-32560068Y49133301D01*
X-32560066Y49133301D01*
X-32766000Y49153583D01*
X-32971933Y49133301D01*
X-33169957Y49073231D01*
X-33280102Y49014357D01*
X-33352450Y48975685D01*
X-33352452Y48975684D01*
X-33352453Y48975683D01*
X-33512411Y48844411D01*
X-33643683Y48684453D01*
X-33741231Y48501957D01*
X-33801301Y48303933D01*
X-33821583Y48098000D01*
X-36014999Y48098000D01*
X-35838550Y48192315D01*
X-35678590Y48323590D01*
X-35547315Y48483550D01*
X-35449768Y48666046D01*
X-35389700Y48864066D01*
X-35369417Y49070000D01*
X-35389700Y49275934D01*
X-35449768Y49473954D01*
X-35547315Y49656450D01*
X-35632554Y49760315D01*
X-35678590Y49816411D01*
X-35796323Y49913031D01*
X-35838550Y49947685D01*
X-36021046Y50045232D01*
X-36219066Y50105300D01*
X-36219068Y50105301D01*
X-36219066Y50105301D01*
X-36425000Y50125583D01*
X-36630933Y50105301D01*
X-36828957Y50045231D01*
X-36939102Y49986357D01*
X-37011450Y49947685D01*
X-37011452Y49947684D01*
X-37011453Y49947683D01*
X-37171411Y49816411D01*
X-37302683Y49656453D01*
X-37400231Y49473957D01*
X-37460301Y49275933D01*
X-37480583Y49070000D01*
X-47737003Y49070000D01*
X-47801046Y49104232D01*
X-47999066Y49164300D01*
X-47999068Y49164301D01*
X-47999066Y49164301D01*
X-48205000Y49184583D01*
X-48410933Y49164301D01*
X-48608957Y49104231D01*
X-48672997Y49070000D01*
X-48791450Y49006685D01*
X-48791452Y49006684D01*
X-48791453Y49006683D01*
X-48951411Y48875411D01*
X-49082683Y48715453D01*
X-49180231Y48532957D01*
X-49240301Y48334933D01*
X-49260583Y48129000D01*
X-49955277Y48129000D01*
X-49955025Y50669000D01*
X-49260583Y50669000D01*
X-49240301Y50463068D01*
X-49210266Y50364056D01*
X-49180232Y50265046D01*
X-49082685Y50082550D01*
X-49082683Y50082548D01*
X-48951411Y49922590D01*
X-48854791Y49843298D01*
X-48791450Y49791315D01*
X-48608954Y49693768D01*
X-48410934Y49633700D01*
X-48410935Y49633700D01*
X-48392471Y49631882D01*
X-48205000Y49613417D01*
X-47999066Y49633700D01*
X-47801046Y49693768D01*
X-47618550Y49791315D01*
X-47458590Y49922590D01*
X-47327315Y50082550D01*
X-47229768Y50265046D01*
X-47169700Y50463066D01*
X-47152470Y50638000D01*
X-33821583Y50638000D01*
X-33801301Y50432068D01*
X-33801300Y50432066D01*
X-33741232Y50234046D01*
X-33643685Y50051550D01*
X-33643683Y50051548D01*
X-33512411Y49891590D01*
X-33420804Y49816411D01*
X-33352450Y49760315D01*
X-33169954Y49662768D01*
X-32971934Y49602700D01*
X-32971935Y49602700D01*
X-32953471Y49600882D01*
X-32766000Y49582417D01*
X-32560066Y49602700D01*
X-32362046Y49662768D01*
X-32179550Y49760315D01*
X-32019590Y49891590D01*
X-31888315Y50051550D01*
X-31790768Y50234046D01*
X-31730700Y50432066D01*
X-31710417Y50638000D01*
X-31730700Y50843934D01*
X-31790768Y51041954D01*
X-31888315Y51224450D01*
X-31950319Y51300003D01*
X-32019590Y51384411D01*
X-32149977Y51491415D01*
X-32179550Y51515685D01*
X-32362046Y51613232D01*
X-32560066Y51673300D01*
X-32560068Y51673301D01*
X-32560066Y51673301D01*
X-32766000Y51693583D01*
X-32971933Y51673301D01*
X-33147308Y51620102D01*
X-33155877Y51617502D01*
X-33169957Y51613231D01*
X-33256277Y51567091D01*
X-33352450Y51515685D01*
X-33352452Y51515684D01*
X-33352453Y51515683D01*
X-33512411Y51384411D01*
X-33643683Y51224453D01*
X-33643685Y51224450D01*
X-33672608Y51170339D01*
X-33741231Y51041957D01*
X-33801301Y50843933D01*
X-33821583Y50638000D01*
X-47152470Y50638000D01*
X-47149417Y50669000D01*
X-47169700Y50874934D01*
X-47229768Y51072954D01*
X-47327315Y51255450D01*
X-47347465Y51280003D01*
X-46559869Y51280003D01*
X-46559869Y51279998D01*
X-46542502Y51170342D01*
X-46492096Y51071415D01*
X-46492091Y51071408D01*
X-46413593Y50992910D01*
X-46413590Y50992908D01*
X-46413587Y50992905D01*
X-46353913Y50962500D01*
X-46314659Y50942499D01*
X-46205002Y50925131D01*
X-46205000Y50925131D01*
X-46204998Y50925131D01*
X-46095342Y50942499D01*
X-46095341Y50942500D01*
X-46095339Y50942500D01*
X-45996413Y50992905D01*
X-45917905Y51071413D01*
X-45867500Y51170339D01*
X-45867500Y51170341D01*
X-45867499Y51170342D01*
X-45850131Y51279998D01*
X-45850131Y51280003D01*
X-45853299Y51300003D01*
X-40459869Y51300003D01*
X-40459869Y51299998D01*
X-40442502Y51190342D01*
X-40392096Y51091415D01*
X-40392091Y51091408D01*
X-40313593Y51012910D01*
X-40313590Y51012908D01*
X-40313587Y51012905D01*
X-40254718Y50982910D01*
X-40214659Y50962499D01*
X-40105002Y50945131D01*
X-40105000Y50945131D01*
X-40104998Y50945131D01*
X-39995342Y50962499D01*
X-39995341Y50962500D01*
X-39995339Y50962500D01*
X-39896413Y51012905D01*
X-39817905Y51091413D01*
X-39767500Y51190339D01*
X-39767500Y51190341D01*
X-39767499Y51190342D01*
X-39750131Y51299998D01*
X-39750131Y51300003D01*
X-39767499Y51409659D01*
X-39802619Y51478586D01*
X-39817905Y51508587D01*
X-39817908Y51508590D01*
X-39817910Y51508593D01*
X-39896408Y51587091D01*
X-39896412Y51587094D01*
X-39896413Y51587095D01*
X-39902786Y51590342D01*
X-39995342Y51637502D01*
X-40104998Y51654869D01*
X-40105002Y51654869D01*
X-40214659Y51637502D01*
X-40313586Y51587096D01*
X-40313593Y51587091D01*
X-40392091Y51508593D01*
X-40392096Y51508586D01*
X-40442502Y51409659D01*
X-40459869Y51300003D01*
X-45853299Y51300003D01*
X-45867499Y51389659D01*
X-45867500Y51389661D01*
X-45917905Y51488587D01*
X-45917908Y51488590D01*
X-45917910Y51488593D01*
X-45996408Y51567091D01*
X-45996412Y51567094D01*
X-45996413Y51567095D01*
X-46013454Y51575778D01*
X-46095342Y51617502D01*
X-46204998Y51634869D01*
X-46205002Y51634869D01*
X-46314659Y51617502D01*
X-46413586Y51567096D01*
X-46413593Y51567091D01*
X-46492091Y51488593D01*
X-46492096Y51488586D01*
X-46542502Y51389659D01*
X-46559869Y51280003D01*
X-47347465Y51280003D01*
X-47429250Y51379659D01*
X-47458590Y51415411D01*
X-47618548Y51546683D01*
X-47618547Y51546683D01*
X-47618550Y51546685D01*
X-47801046Y51644232D01*
X-47984901Y51700003D01*
X-45359869Y51700003D01*
X-45359869Y51699998D01*
X-45342502Y51590342D01*
X-45292096Y51491415D01*
X-45292091Y51491408D01*
X-45213593Y51412910D01*
X-45213590Y51412908D01*
X-45213587Y51412905D01*
X-45114661Y51362500D01*
X-45114659Y51362499D01*
X-45005002Y51345131D01*
X-45005000Y51345131D01*
X-45004998Y51345131D01*
X-44895342Y51362499D01*
X-44895341Y51362500D01*
X-44895339Y51362500D01*
X-44796413Y51412905D01*
X-44717905Y51491413D01*
X-44667500Y51590339D01*
X-44667500Y51590341D01*
X-44667499Y51590342D01*
X-44650131Y51699998D01*
X-44650131Y51700003D01*
X-44667499Y51809659D01*
X-44692906Y51859523D01*
X-44717905Y51908587D01*
X-44717908Y51908590D01*
X-44717910Y51908593D01*
X-44796408Y51987091D01*
X-44796412Y51987094D01*
X-44796413Y51987095D01*
X-44800257Y51989054D01*
X-44895342Y52037502D01*
X-45004998Y52054869D01*
X-45005002Y52054869D01*
X-45114659Y52037502D01*
X-45213586Y51987096D01*
X-45213593Y51987091D01*
X-45292091Y51908593D01*
X-45292096Y51908586D01*
X-45342502Y51809659D01*
X-45359869Y51700003D01*
X-47984901Y51700003D01*
X-47999066Y51704300D01*
X-47999068Y51704301D01*
X-47999066Y51704301D01*
X-48205000Y51724583D01*
X-48410933Y51704301D01*
X-48608957Y51644231D01*
X-48680445Y51606019D01*
X-48791450Y51546685D01*
X-48791452Y51546684D01*
X-48791453Y51546683D01*
X-48951411Y51415411D01*
X-49082683Y51255453D01*
X-49180231Y51072957D01*
X-49240301Y50874933D01*
X-49260583Y50669000D01*
X-49955025Y50669000D01*
X-49954773Y53209000D01*
X-49260583Y53209000D01*
X-49240301Y53003068D01*
X-49215371Y52920885D01*
X-49180232Y52805046D01*
X-49082685Y52622550D01*
X-49048031Y52580323D01*
X-48951411Y52462590D01*
X-48854791Y52383298D01*
X-48791450Y52331315D01*
X-48608954Y52233768D01*
X-48410934Y52173700D01*
X-48410935Y52173700D01*
X-48392471Y52171882D01*
X-48205000Y52153417D01*
X-47999066Y52173700D01*
X-47801046Y52233768D01*
X-47618550Y52331315D01*
X-47458590Y52462590D01*
X-47327315Y52622550D01*
X-47232464Y52800003D01*
X-46659869Y52800003D01*
X-46659869Y52799998D01*
X-46642502Y52690342D01*
X-46592096Y52591415D01*
X-46592091Y52591408D01*
X-46513593Y52512910D01*
X-46513590Y52512908D01*
X-46513587Y52512905D01*
X-46414838Y52462590D01*
X-46414659Y52462499D01*
X-46305002Y52445131D01*
X-46305000Y52445131D01*
X-46304998Y52445131D01*
X-46274238Y52450003D01*
X-43660249Y52450003D01*
X-43660249Y52449998D01*
X-43641315Y52281944D01*
X-43585455Y52122306D01*
X-43585453Y52122303D01*
X-43495482Y51979116D01*
X-43495477Y51979110D01*
X-43375891Y51859524D01*
X-43375885Y51859519D01*
X-43232698Y51769548D01*
X-43232695Y51769546D01*
X-43232691Y51769545D01*
X-43232690Y51769544D01*
X-43160087Y51744140D01*
X-43073057Y51713686D01*
X-42905003Y51694751D01*
X-42905000Y51694751D01*
X-42904997Y51694751D01*
X-42736944Y51713686D01*
X-42705802Y51724583D01*
X-42577310Y51769544D01*
X-42577308Y51769546D01*
X-42577306Y51769546D01*
X-42577303Y51769548D01*
X-42434116Y51859519D01*
X-42434115Y51859520D01*
X-42434110Y51859523D01*
X-42314523Y51979110D01*
X-42309508Y51987091D01*
X-42224548Y52122303D01*
X-42224546Y52122306D01*
X-42224546Y52122308D01*
X-42224544Y52122310D01*
X-42168687Y52281941D01*
X-42168687Y52281942D01*
X-42168686Y52281944D01*
X-42149751Y52449998D01*
X-42149751Y52450003D01*
X-38860249Y52450003D01*
X-38860249Y52449998D01*
X-38841315Y52281944D01*
X-38785455Y52122306D01*
X-38785453Y52122303D01*
X-38695482Y51979116D01*
X-38695477Y51979110D01*
X-38575890Y51859523D01*
X-38496532Y51809659D01*
X-38467244Y51791256D01*
X-38420953Y51738921D01*
X-38410305Y51669867D01*
X-38438680Y51606019D01*
X-38476920Y51575778D01*
X-38513586Y51557096D01*
X-38513593Y51557091D01*
X-38592091Y51478593D01*
X-38592096Y51478586D01*
X-38642502Y51379659D01*
X-38659869Y51270003D01*
X-38659869Y51269998D01*
X-38642502Y51160342D01*
X-38592096Y51061415D01*
X-38592091Y51061408D01*
X-38513593Y50982910D01*
X-38513590Y50982908D01*
X-38513587Y50982905D01*
X-38439451Y50945131D01*
X-38414659Y50932499D01*
X-38305002Y50915131D01*
X-38305000Y50915131D01*
X-38304998Y50915131D01*
X-38195342Y50932499D01*
X-38195341Y50932500D01*
X-38195339Y50932500D01*
X-38096413Y50982905D01*
X-38017905Y51061413D01*
X-37967500Y51160339D01*
X-37967500Y51160341D01*
X-37967499Y51160342D01*
X-37950131Y51269998D01*
X-37950131Y51270003D01*
X-37967499Y51379659D01*
X-37985715Y51415410D01*
X-38017905Y51478587D01*
X-38017908Y51478590D01*
X-38017910Y51478593D01*
X-38038927Y51499610D01*
X-38072412Y51560933D01*
X-38067428Y51630625D01*
X-38025556Y51686558D01*
X-37965130Y51710511D01*
X-37936941Y51713687D01*
X-37777310Y51769544D01*
X-37777308Y51769546D01*
X-37777306Y51769546D01*
X-37777303Y51769548D01*
X-37634116Y51859519D01*
X-37634115Y51859520D01*
X-37634110Y51859523D01*
X-37514523Y51979110D01*
X-37509508Y51987091D01*
X-37424548Y52122303D01*
X-37424546Y52122306D01*
X-37424546Y52122308D01*
X-37424544Y52122310D01*
X-37368687Y52281941D01*
X-37368687Y52281942D01*
X-37368686Y52281944D01*
X-37349751Y52449998D01*
X-37349751Y52450003D01*
X-37368686Y52618057D01*
X-37424546Y52777695D01*
X-37424548Y52777698D01*
X-37501398Y52900003D01*
X-35059869Y52900003D01*
X-35059869Y52899998D01*
X-35042502Y52790342D01*
X-34992096Y52691415D01*
X-34992091Y52691408D01*
X-34913593Y52612910D01*
X-34913590Y52612908D01*
X-34913587Y52612905D01*
X-34871675Y52591550D01*
X-34814659Y52562499D01*
X-34705002Y52545131D01*
X-34705000Y52545131D01*
X-34704998Y52545131D01*
X-34595342Y52562499D01*
X-34595341Y52562500D01*
X-34595339Y52562500D01*
X-34496413Y52612905D01*
X-34417905Y52691413D01*
X-34367500Y52790339D01*
X-34367500Y52790341D01*
X-34367499Y52790342D01*
X-34350131Y52899998D01*
X-34350131Y52900003D01*
X-34367499Y53009659D01*
X-34367500Y53009661D01*
X-34417905Y53108587D01*
X-34417908Y53108590D01*
X-34417910Y53108593D01*
X-34487317Y53178000D01*
X-33821583Y53178000D01*
X-33801301Y52972068D01*
X-33785776Y52920890D01*
X-33741232Y52774046D01*
X-33643685Y52591550D01*
X-33609031Y52549323D01*
X-33512411Y52431590D01*
X-33415791Y52352298D01*
X-33352450Y52300315D01*
X-33169954Y52202768D01*
X-32971934Y52142700D01*
X-32971935Y52142700D01*
X-32953471Y52140882D01*
X-32766000Y52122417D01*
X-32560066Y52142700D01*
X-32362046Y52202768D01*
X-32179550Y52300315D01*
X-32019590Y52431590D01*
X-31888315Y52591550D01*
X-31790768Y52774046D01*
X-31730700Y52972066D01*
X-31710417Y53178000D01*
X-31730700Y53383934D01*
X-31790768Y53581954D01*
X-31888315Y53764450D01*
X-31982491Y53879205D01*
X-32019590Y53924411D01*
X-32149215Y54030790D01*
X-32179550Y54055685D01*
X-32362046Y54153232D01*
X-32560066Y54213300D01*
X-32560068Y54213301D01*
X-32560066Y54213301D01*
X-32766000Y54233583D01*
X-32971933Y54213301D01*
X-33169957Y54153231D01*
X-33246356Y54112394D01*
X-33352450Y54055685D01*
X-33352452Y54055684D01*
X-33352453Y54055683D01*
X-33512411Y53924411D01*
X-33643683Y53764453D01*
X-33741231Y53581957D01*
X-33801301Y53383933D01*
X-33821583Y53178000D01*
X-34487317Y53178000D01*
X-34496408Y53187091D01*
X-34496412Y53187094D01*
X-34496413Y53187095D01*
X-34539404Y53209000D01*
X-34595342Y53237502D01*
X-34704998Y53254869D01*
X-34705002Y53254869D01*
X-34814659Y53237502D01*
X-34913586Y53187096D01*
X-34913593Y53187091D01*
X-34992091Y53108593D01*
X-34992096Y53108586D01*
X-35042502Y53009659D01*
X-35059869Y52900003D01*
X-37501398Y52900003D01*
X-37514519Y52920885D01*
X-37514524Y52920891D01*
X-37634110Y53040477D01*
X-37634116Y53040482D01*
X-37777303Y53130453D01*
X-37777306Y53130455D01*
X-37936944Y53186315D01*
X-38104997Y53205249D01*
X-38105003Y53205249D01*
X-38273057Y53186315D01*
X-38432695Y53130455D01*
X-38432698Y53130453D01*
X-38575885Y53040482D01*
X-38575891Y53040477D01*
X-38695477Y52920891D01*
X-38695482Y52920885D01*
X-38785453Y52777698D01*
X-38785455Y52777695D01*
X-38841315Y52618057D01*
X-38860249Y52450003D01*
X-42149751Y52450003D01*
X-42168686Y52618057D01*
X-42224546Y52777695D01*
X-42224548Y52777698D01*
X-42314519Y52920885D01*
X-42314524Y52920891D01*
X-42434110Y53040477D01*
X-42434116Y53040482D01*
X-42577303Y53130453D01*
X-42577306Y53130455D01*
X-42736944Y53186315D01*
X-42904997Y53205249D01*
X-42905003Y53205249D01*
X-43073057Y53186315D01*
X-43232695Y53130455D01*
X-43232698Y53130453D01*
X-43375885Y53040482D01*
X-43375891Y53040477D01*
X-43495477Y52920891D01*
X-43495482Y52920885D01*
X-43585453Y52777698D01*
X-43585455Y52777695D01*
X-43641315Y52618057D01*
X-43660249Y52450003D01*
X-46274238Y52450003D01*
X-46195342Y52462499D01*
X-46195341Y52462500D01*
X-46195339Y52462500D01*
X-46096413Y52512905D01*
X-46017905Y52591413D01*
X-45967500Y52690339D01*
X-45967500Y52690341D01*
X-45967499Y52690342D01*
X-45950131Y52799998D01*
X-45950131Y52800003D01*
X-45967499Y52909659D01*
X-45973219Y52920885D01*
X-46017905Y53008587D01*
X-46017908Y53008590D01*
X-46017910Y53008593D01*
X-46096408Y53087091D01*
X-46096412Y53087094D01*
X-46096413Y53087095D01*
X-46100257Y53089054D01*
X-46195342Y53137502D01*
X-46304998Y53154869D01*
X-46305002Y53154869D01*
X-46414659Y53137502D01*
X-46513586Y53087096D01*
X-46513593Y53087091D01*
X-46592091Y53008593D01*
X-46592096Y53008586D01*
X-46642502Y52909659D01*
X-46659869Y52800003D01*
X-47232464Y52800003D01*
X-47229768Y52805046D01*
X-47169700Y53003066D01*
X-47149417Y53209000D01*
X-47169700Y53414934D01*
X-47229768Y53612954D01*
X-47327315Y53795450D01*
X-47379298Y53858791D01*
X-47458590Y53955411D01*
X-47618548Y54086683D01*
X-47618547Y54086683D01*
X-47618550Y54086685D01*
X-47801046Y54184232D01*
X-47999066Y54244300D01*
X-47999068Y54244301D01*
X-47999066Y54244301D01*
X-48205000Y54264583D01*
X-48410933Y54244301D01*
X-48513129Y54213300D01*
X-48599512Y54187096D01*
X-48608957Y54184231D01*
X-48700149Y54135487D01*
X-48791450Y54086685D01*
X-48791452Y54086684D01*
X-48791453Y54086683D01*
X-48951411Y53955411D01*
X-49082683Y53795453D01*
X-49180231Y53612957D01*
X-49240301Y53414933D01*
X-49260583Y53209000D01*
X-49954773Y53209000D01*
X-49954628Y54671158D01*
X-45005500Y54671158D01*
X-45005500Y54528842D01*
X-44968676Y54391415D01*
X-44968666Y54391376D01*
X-44968665Y54391373D01*
X-44897511Y54268129D01*
X-44897509Y54268126D01*
X-44897508Y54268125D01*
X-44796875Y54167492D01*
X-44796874Y54167491D01*
X-44796872Y54167490D01*
X-44735250Y54131913D01*
X-44673625Y54096334D01*
X-44536158Y54059500D01*
X-44536156Y54059500D01*
X-44057550Y54059500D01*
X-43990511Y54039815D01*
X-43944756Y53987011D01*
X-43934812Y53917853D01*
X-43947064Y53879210D01*
X-43982500Y53809661D01*
X-43982502Y53809657D01*
X-43999869Y53700003D01*
X-43999869Y53699998D01*
X-43982502Y53590342D01*
X-43932096Y53491415D01*
X-43932091Y53491408D01*
X-43853593Y53412910D01*
X-43853590Y53412908D01*
X-43853587Y53412905D01*
X-43754661Y53362500D01*
X-43754659Y53362499D01*
X-43645002Y53345131D01*
X-43645000Y53345131D01*
X-43644998Y53345131D01*
X-43535342Y53362499D01*
X-43535341Y53362500D01*
X-43535339Y53362500D01*
X-43436413Y53412905D01*
X-43357905Y53491413D01*
X-43307500Y53590339D01*
X-43307500Y53590341D01*
X-43307499Y53590342D01*
X-43290131Y53699998D01*
X-43290131Y53700003D01*
X-43307499Y53809659D01*
X-43307500Y53809661D01*
X-43353531Y53900003D01*
X-40929869Y53900003D01*
X-40929869Y53899998D01*
X-40912502Y53790342D01*
X-40862096Y53691415D01*
X-40862091Y53691408D01*
X-40783593Y53612910D01*
X-40783590Y53612908D01*
X-40783587Y53612905D01*
X-40684661Y53562500D01*
X-40684659Y53562499D01*
X-40575002Y53545131D01*
X-40575000Y53545131D01*
X-40574998Y53545131D01*
X-40465342Y53562499D01*
X-40465341Y53562500D01*
X-40465339Y53562500D01*
X-40372109Y53610003D01*
X-37619869Y53610003D01*
X-37619869Y53609998D01*
X-37602502Y53500342D01*
X-37552096Y53401415D01*
X-37552091Y53401408D01*
X-37473593Y53322910D01*
X-37473590Y53322908D01*
X-37473587Y53322905D01*
X-37374661Y53272500D01*
X-37374659Y53272499D01*
X-37265002Y53255131D01*
X-37265000Y53255131D01*
X-37264998Y53255131D01*
X-37155342Y53272499D01*
X-37155341Y53272500D01*
X-37155339Y53272500D01*
X-37056413Y53322905D01*
X-36977905Y53401413D01*
X-36927500Y53500339D01*
X-36927500Y53500341D01*
X-36927499Y53500342D01*
X-36910131Y53609998D01*
X-36910131Y53610003D01*
X-36927499Y53719659D01*
X-36963514Y53790342D01*
X-36977905Y53818587D01*
X-36977908Y53818590D01*
X-36977910Y53818593D01*
X-36978742Y53819425D01*
X-36979432Y53820688D01*
X-36983644Y53826486D01*
X-36982895Y53827031D01*
X-37012227Y53880748D01*
X-37007243Y53950440D01*
X-36965371Y54006373D01*
X-36899907Y54030790D01*
X-36858973Y54026882D01*
X-36831424Y54019500D01*
X-36831421Y54019500D01*
X-36678578Y54019500D01*
X-36678576Y54019500D01*
X-36530935Y54059060D01*
X-36398565Y54135484D01*
X-36290484Y54243565D01*
X-36214060Y54375935D01*
X-36174500Y54523576D01*
X-36174500Y54676424D01*
X-36214060Y54824065D01*
X-36290484Y54956435D01*
X-36398565Y55064516D01*
X-36486812Y55115466D01*
X-36530933Y55140939D01*
X-36530934Y55140940D01*
X-36530935Y55140940D01*
X-36678576Y55180500D01*
X-36831424Y55180500D01*
X-36979065Y55140940D01*
X-36979068Y55140939D01*
X-37111432Y55064518D01*
X-37111438Y55064514D01*
X-37219514Y54956438D01*
X-37219518Y54956432D01*
X-37295939Y54824068D01*
X-37295940Y54824065D01*
X-37335500Y54676424D01*
X-37335500Y54523576D01*
X-37295940Y54375935D01*
X-37219516Y54243565D01*
X-37219514Y54243563D01*
X-37149668Y54173717D01*
X-37116183Y54112394D01*
X-37121167Y54042702D01*
X-37163039Y53986769D01*
X-37228503Y53962352D01*
X-37256741Y53963562D01*
X-37264995Y53964869D01*
X-37265002Y53964869D01*
X-37374659Y53947502D01*
X-37473586Y53897096D01*
X-37473593Y53897091D01*
X-37552091Y53818593D01*
X-37552096Y53818586D01*
X-37602502Y53719659D01*
X-37619869Y53610003D01*
X-40372109Y53610003D01*
X-40366413Y53612905D01*
X-40287905Y53691413D01*
X-40237500Y53790339D01*
X-40237500Y53790341D01*
X-40237499Y53790342D01*
X-40220131Y53899998D01*
X-40220131Y53900003D01*
X-40237499Y54009659D01*
X-40254335Y54042702D01*
X-40287905Y54108587D01*
X-40287908Y54108590D01*
X-40287910Y54108593D01*
X-40366408Y54187091D01*
X-40366412Y54187094D01*
X-40366413Y54187095D01*
X-40370257Y54189054D01*
X-40465342Y54237502D01*
X-40574998Y54254869D01*
X-40575002Y54254869D01*
X-40684659Y54237502D01*
X-40783586Y54187096D01*
X-40783593Y54187091D01*
X-40862091Y54108593D01*
X-40862096Y54108586D01*
X-40912502Y54009659D01*
X-40929869Y53900003D01*
X-43353531Y53900003D01*
X-43357905Y53908587D01*
X-43357908Y53908590D01*
X-43357910Y53908593D01*
X-43436408Y53987091D01*
X-43436412Y53987094D01*
X-43436413Y53987095D01*
X-43535339Y54037500D01*
X-43535341Y54037501D01*
X-43535342Y54037501D01*
X-43560670Y54041513D01*
X-43623804Y54071444D01*
X-43660734Y54130756D01*
X-43659736Y54200618D01*
X-43628951Y54251667D01*
X-43612492Y54268125D01*
X-43541334Y54391375D01*
X-43504500Y54528842D01*
X-43504500Y54600003D01*
X-41659869Y54600003D01*
X-41659869Y54599998D01*
X-41642502Y54490342D01*
X-41592096Y54391415D01*
X-41592091Y54391408D01*
X-41513593Y54312910D01*
X-41513590Y54312908D01*
X-41513587Y54312905D01*
X-41425701Y54268125D01*
X-41414659Y54262499D01*
X-41305002Y54245131D01*
X-41305000Y54245131D01*
X-41304998Y54245131D01*
X-41195342Y54262499D01*
X-41195341Y54262500D01*
X-41195339Y54262500D01*
X-41096413Y54312905D01*
X-41017905Y54391413D01*
X-40967500Y54490339D01*
X-40967500Y54490341D01*
X-40967499Y54490342D01*
X-40951714Y54590003D01*
X-40109869Y54590003D01*
X-40109869Y54589998D01*
X-40092502Y54480342D01*
X-40042096Y54381415D01*
X-40042091Y54381408D01*
X-39963593Y54302910D01*
X-39963590Y54302908D01*
X-39963587Y54302905D01*
X-39895327Y54268125D01*
X-39864659Y54252499D01*
X-39755002Y54235131D01*
X-39755000Y54235131D01*
X-39754998Y54235131D01*
X-39645342Y54252499D01*
X-39645341Y54252500D01*
X-39645339Y54252500D01*
X-39546413Y54302905D01*
X-39467905Y54381413D01*
X-39467902Y54381421D01*
X-39466644Y54383150D01*
X-39464559Y54384759D01*
X-39461004Y54388313D01*
X-39460545Y54387854D01*
X-39411318Y54425821D01*
X-39341705Y54431806D01*
X-39279907Y54399206D01*
X-39278638Y54397955D01*
X-39203593Y54322910D01*
X-39203590Y54322908D01*
X-39203587Y54322905D01*
X-39104661Y54272500D01*
X-39104659Y54272499D01*
X-38995002Y54255131D01*
X-38995000Y54255131D01*
X-38994998Y54255131D01*
X-38885342Y54272499D01*
X-38885341Y54272500D01*
X-38885339Y54272500D01*
X-38786413Y54322905D01*
X-38707905Y54401413D01*
X-38657500Y54500339D01*
X-38657500Y54500341D01*
X-38657499Y54500342D01*
X-38640131Y54609998D01*
X-38640131Y54610003D01*
X-38657499Y54719659D01*
X-38699477Y54802046D01*
X-38707905Y54818587D01*
X-38707908Y54818590D01*
X-38707910Y54818593D01*
X-38786408Y54897091D01*
X-38786412Y54897094D01*
X-38786413Y54897095D01*
X-38790257Y54899054D01*
X-38885342Y54947502D01*
X-38994998Y54964869D01*
X-38995002Y54964869D01*
X-39104659Y54947502D01*
X-39203586Y54897096D01*
X-39203593Y54897091D01*
X-39282096Y54818588D01*
X-39283366Y54816839D01*
X-39285454Y54815230D01*
X-39288996Y54811687D01*
X-39289454Y54812145D01*
X-39338697Y54774175D01*
X-39408311Y54768197D01*
X-39470105Y54800805D01*
X-39471363Y54802046D01*
X-39546408Y54877091D01*
X-39546412Y54877094D01*
X-39546413Y54877095D01*
X-39566041Y54887096D01*
X-39645342Y54927502D01*
X-39754998Y54944869D01*
X-39755002Y54944869D01*
X-39864659Y54927502D01*
X-39963586Y54877096D01*
X-39963593Y54877091D01*
X-40042091Y54798593D01*
X-40042096Y54798586D01*
X-40092502Y54699659D01*
X-40109869Y54590003D01*
X-40951714Y54590003D01*
X-40950131Y54599998D01*
X-40950131Y54600003D01*
X-40967499Y54709659D01*
X-40984370Y54742770D01*
X-41017905Y54808587D01*
X-41017908Y54808590D01*
X-41017910Y54808593D01*
X-41096408Y54887091D01*
X-41096412Y54887094D01*
X-41096413Y54887095D01*
X-41116041Y54897096D01*
X-41195342Y54937502D01*
X-41304998Y54954869D01*
X-41305002Y54954869D01*
X-41414659Y54937502D01*
X-41513586Y54887096D01*
X-41513593Y54887091D01*
X-41592091Y54808593D01*
X-41592096Y54808586D01*
X-41642502Y54709659D01*
X-41659869Y54600003D01*
X-43504500Y54600003D01*
X-43504500Y54671158D01*
X-43541334Y54808625D01*
X-43580865Y54877095D01*
X-43612490Y54931872D01*
X-43612494Y54931877D01*
X-43618951Y54938334D01*
X-43652436Y54999657D01*
X-43647452Y55069349D01*
X-43605580Y55125282D01*
X-43550670Y55148488D01*
X-43525339Y55152500D01*
X-43426413Y55202905D01*
X-43347905Y55281413D01*
X-43297500Y55380339D01*
X-43297500Y55380341D01*
X-43297499Y55380342D01*
X-43280131Y55489998D01*
X-43280131Y55490003D01*
X-43297499Y55599659D01*
X-43298394Y55601415D01*
X-43347905Y55698587D01*
X-43347908Y55698590D01*
X-43347910Y55698593D01*
X-43426408Y55777091D01*
X-43426412Y55777094D01*
X-43426413Y55777095D01*
X-43490993Y55810000D01*
X-43525342Y55827502D01*
X-43634998Y55844869D01*
X-43635002Y55844869D01*
X-43744659Y55827502D01*
X-43843586Y55777096D01*
X-43843593Y55777091D01*
X-43922091Y55698593D01*
X-43922096Y55698586D01*
X-43972502Y55599659D01*
X-43989869Y55490003D01*
X-43989869Y55489998D01*
X-43972502Y55380344D01*
X-43972501Y55380341D01*
X-43972500Y55380339D01*
X-43942160Y55320792D01*
X-43929264Y55252126D01*
X-43955540Y55187385D01*
X-44012647Y55147128D01*
X-44052645Y55140500D01*
X-44536158Y55140500D01*
X-44673625Y55103666D01*
X-44673628Y55103665D01*
X-44796872Y55032511D01*
X-44796877Y55032507D01*
X-44897507Y54931877D01*
X-44897511Y54931872D01*
X-44968665Y54808628D01*
X-44968666Y54808625D01*
X-45005500Y54671158D01*
X-49954628Y54671158D01*
X-49954558Y55370330D01*
X-49954556Y55370335D01*
X-49954554Y55394992D01*
X-49954551Y55437643D01*
X-49954156Y55447509D01*
X-49943879Y55575761D01*
X-49940730Y55595289D01*
X-49939662Y55599659D01*
X-49911368Y55715431D01*
X-49905158Y55734198D01*
X-49857059Y55848147D01*
X-49847938Y55865694D01*
X-49782333Y55970532D01*
X-49770540Y55986405D01*
X-49685691Y56083364D01*
X-49678917Y56090507D01*
X-49664549Y56104495D01*
X-49648461Y56120158D01*
X-49648461Y56120160D01*
X-49636096Y56132198D01*
X-49636088Y56132209D01*
X-49281224Y56477735D01*
X-49219464Y56510396D01*
X-49149845Y56504483D01*
X-49094475Y56461869D01*
X-49070933Y56396085D01*
X-49085366Y56330436D01*
X-49180231Y56152959D01*
X-49240301Y55954933D01*
X-49260583Y55749000D01*
X-49240301Y55543068D01*
X-49224204Y55490003D01*
X-49180232Y55345046D01*
X-49082685Y55162550D01*
X-49064950Y55140940D01*
X-48951411Y55002590D01*
X-48859912Y54927500D01*
X-48791450Y54871315D01*
X-48608954Y54773768D01*
X-48410934Y54713700D01*
X-48410935Y54713700D01*
X-48392471Y54711882D01*
X-48205000Y54693417D01*
X-47999066Y54713700D01*
X-47801046Y54773768D01*
X-47618550Y54871315D01*
X-47458590Y55002590D01*
X-47327315Y55162550D01*
X-47229768Y55345046D01*
X-47169700Y55543066D01*
X-47149417Y55749000D01*
X-47169700Y55954934D01*
X-47229768Y56152954D01*
X-47327315Y56335450D01*
X-47380288Y56399998D01*
X-47380292Y56400003D01*
X-46159869Y56400003D01*
X-46159869Y56399998D01*
X-46142502Y56290342D01*
X-46092096Y56191415D01*
X-46092091Y56191408D01*
X-46013593Y56112910D01*
X-46013590Y56112908D01*
X-46013587Y56112905D01*
X-45928486Y56069544D01*
X-45914659Y56062499D01*
X-45805002Y56045131D01*
X-45805000Y56045131D01*
X-45804998Y56045131D01*
X-45695342Y56062499D01*
X-45695341Y56062500D01*
X-45695339Y56062500D01*
X-45596413Y56112905D01*
X-45517905Y56191413D01*
X-45467500Y56290339D01*
X-45467500Y56290341D01*
X-45467499Y56290342D01*
X-45450131Y56399998D01*
X-45450131Y56400003D01*
X-45467499Y56509659D01*
X-45467500Y56509661D01*
X-45517905Y56608587D01*
X-45517908Y56608590D01*
X-45517910Y56608593D01*
X-45596408Y56687091D01*
X-45596412Y56687094D01*
X-45596413Y56687095D01*
X-45641502Y56710069D01*
X-45695342Y56737502D01*
X-45804998Y56754869D01*
X-45805002Y56754869D01*
X-45914659Y56737502D01*
X-46013586Y56687096D01*
X-46013593Y56687091D01*
X-46092091Y56608593D01*
X-46092096Y56608586D01*
X-46142502Y56509659D01*
X-46159869Y56400003D01*
X-47380292Y56400003D01*
X-47458590Y56495411D01*
X-47596496Y56608586D01*
X-47618550Y56626685D01*
X-47801046Y56724232D01*
X-47999066Y56784300D01*
X-47999068Y56784301D01*
X-47999066Y56784301D01*
X-48205000Y56804583D01*
X-48410933Y56784301D01*
X-48608959Y56724231D01*
X-48765473Y56640571D01*
X-48833875Y56626329D01*
X-48899119Y56651329D01*
X-48940490Y56707634D01*
X-48944852Y56777367D01*
X-48910821Y56838389D01*
X-48910788Y56838422D01*
X-48498104Y57240246D01*
X-48491014Y57246634D01*
X-48395494Y57326255D01*
X-48379917Y57337323D01*
X-48277398Y57398848D01*
X-48260305Y57407388D01*
X-48149557Y57452416D01*
X-48131352Y57458228D01*
X-48014999Y57485694D01*
X-47996112Y57488638D01*
X-47872400Y57498242D01*
X-47862881Y57498612D01*
X-43516160Y57499597D01*
X-43449117Y57479928D01*
X-43403350Y57427134D01*
X-43393391Y57357978D01*
X-43422402Y57294416D01*
X-43428451Y57287916D01*
X-43495482Y57220885D01*
X-43585453Y57077698D01*
X-43585455Y57077695D01*
X-43641315Y56918057D01*
X-43660249Y56750003D01*
X-43660249Y56749998D01*
X-43641315Y56581944D01*
X-43585455Y56422306D01*
X-43585453Y56422303D01*
X-43495482Y56279116D01*
X-43495477Y56279110D01*
X-43375891Y56159524D01*
X-43375885Y56159519D01*
X-43232698Y56069548D01*
X-43232695Y56069546D01*
X-43232691Y56069545D01*
X-43232690Y56069544D01*
X-43162921Y56045131D01*
X-43073057Y56013686D01*
X-42905003Y55994751D01*
X-42905000Y55994751D01*
X-42904997Y55994751D01*
X-42736944Y56013686D01*
X-42736941Y56013687D01*
X-42577310Y56069544D01*
X-42577308Y56069546D01*
X-42577306Y56069546D01*
X-42577303Y56069548D01*
X-42434116Y56159519D01*
X-42434115Y56159520D01*
X-42434110Y56159523D01*
X-42314523Y56279110D01*
X-42307465Y56290342D01*
X-42224548Y56422303D01*
X-42224546Y56422306D01*
X-42224546Y56422308D01*
X-42224544Y56422310D01*
X-42168687Y56581941D01*
X-42168687Y56581942D01*
X-42168686Y56581944D01*
X-42149751Y56749998D01*
X-42149751Y56750003D01*
X-42168686Y56918057D01*
X-42224546Y57077695D01*
X-42224548Y57077698D01*
X-42314519Y57220885D01*
X-42314524Y57220891D01*
X-42381826Y57288193D01*
X-42415311Y57349516D01*
X-42410327Y57419208D01*
X-42368455Y57475141D01*
X-42302991Y57499558D01*
X-42294191Y57499874D01*
X-38715072Y57500685D01*
X-38648029Y57481016D01*
X-38602262Y57428222D01*
X-38592303Y57359066D01*
X-38621314Y57295504D01*
X-38627363Y57289004D01*
X-38695482Y57220885D01*
X-38785453Y57077698D01*
X-38785455Y57077695D01*
X-38841315Y56918057D01*
X-38860249Y56750003D01*
X-38860249Y56749998D01*
X-38841315Y56581944D01*
X-38785455Y56422306D01*
X-38785453Y56422303D01*
X-38695482Y56279116D01*
X-38695477Y56279110D01*
X-38575891Y56159524D01*
X-38575885Y56159519D01*
X-38432698Y56069548D01*
X-38432695Y56069546D01*
X-38432691Y56069545D01*
X-38432690Y56069544D01*
X-38362921Y56045131D01*
X-38273057Y56013686D01*
X-38105003Y55994751D01*
X-38105000Y55994751D01*
X-38104997Y55994751D01*
X-37936941Y56013687D01*
X-37936939Y56013687D01*
X-37805354Y56059731D01*
X-37735575Y56063293D01*
X-37674948Y56028565D01*
X-37642720Y55966572D01*
X-37641926Y55923292D01*
X-37659869Y55810003D01*
X-37659869Y55809998D01*
X-37642502Y55700342D01*
X-37592096Y55601415D01*
X-37592091Y55601408D01*
X-37513593Y55522910D01*
X-37513590Y55522908D01*
X-37513587Y55522905D01*
X-37449007Y55490000D01*
X-37414659Y55472499D01*
X-37305002Y55455131D01*
X-37305000Y55455131D01*
X-37304998Y55455131D01*
X-37195342Y55472499D01*
X-37195341Y55472500D01*
X-37195339Y55472500D01*
X-37096413Y55522905D01*
X-37017905Y55601413D01*
X-36967500Y55700339D01*
X-36967500Y55700341D01*
X-36967499Y55700342D01*
X-36964702Y55718000D01*
X-33821583Y55718000D01*
X-33801301Y55512068D01*
X-33794606Y55489998D01*
X-33741232Y55314046D01*
X-33643685Y55131550D01*
X-33609031Y55089323D01*
X-33512411Y54971590D01*
X-33458686Y54927500D01*
X-33352450Y54840315D01*
X-33169954Y54742768D01*
X-32971934Y54682700D01*
X-32971935Y54682700D01*
X-32953471Y54680882D01*
X-32766000Y54662417D01*
X-32560066Y54682700D01*
X-32362046Y54742768D01*
X-32179550Y54840315D01*
X-32019590Y54971590D01*
X-31888315Y55131550D01*
X-31790768Y55314046D01*
X-31730700Y55512066D01*
X-31710417Y55718000D01*
X-31730700Y55923934D01*
X-31790768Y56121954D01*
X-31888315Y56304450D01*
X-31963517Y56396085D01*
X-32019590Y56464411D01*
X-32162803Y56581941D01*
X-32179550Y56595685D01*
X-32362046Y56693232D01*
X-32560066Y56753300D01*
X-32560068Y56753301D01*
X-32560066Y56753301D01*
X-32766000Y56773583D01*
X-32971933Y56753301D01*
X-33169957Y56693231D01*
X-33268475Y56640571D01*
X-33352450Y56595685D01*
X-33352452Y56595684D01*
X-33352453Y56595683D01*
X-33512411Y56464411D01*
X-33643683Y56304453D01*
X-33643685Y56304450D01*
X-33657395Y56278800D01*
X-33741231Y56121957D01*
X-33801301Y55923933D01*
X-33821583Y55718000D01*
X-36964702Y55718000D01*
X-36950131Y55809998D01*
X-36950131Y55810003D01*
X-36967499Y55919659D01*
X-36969677Y55923934D01*
X-37017905Y56018587D01*
X-37017908Y56018590D01*
X-37017910Y56018593D01*
X-37096408Y56097091D01*
X-37096412Y56097094D01*
X-37096413Y56097095D01*
X-37127452Y56112910D01*
X-37195342Y56147502D01*
X-37304998Y56164869D01*
X-37305003Y56164869D01*
X-37347762Y56158097D01*
X-37417055Y56167052D01*
X-37470507Y56212048D01*
X-37491146Y56278800D01*
X-37472421Y56346114D01*
X-37472152Y56346543D01*
X-37438562Y56400000D01*
X-37424544Y56422310D01*
X-37368687Y56581941D01*
X-37368687Y56581942D01*
X-37368686Y56581944D01*
X-37358764Y56670003D01*
X-36109869Y56670003D01*
X-36109869Y56669998D01*
X-36092502Y56560342D01*
X-36042096Y56461415D01*
X-36042091Y56461408D01*
X-35963593Y56382910D01*
X-35963590Y56382908D01*
X-35963587Y56382905D01*
X-35892222Y56346543D01*
X-35864659Y56332499D01*
X-35755002Y56315131D01*
X-35755000Y56315131D01*
X-35754998Y56315131D01*
X-35645342Y56332499D01*
X-35645341Y56332500D01*
X-35645339Y56332500D01*
X-35546413Y56382905D01*
X-35467905Y56461413D01*
X-35417500Y56560339D01*
X-35417500Y56560341D01*
X-35417499Y56560342D01*
X-35400131Y56669998D01*
X-35400131Y56670003D01*
X-35417499Y56779659D01*
X-35430198Y56804583D01*
X-35467905Y56878587D01*
X-35467908Y56878590D01*
X-35467910Y56878593D01*
X-35546408Y56957091D01*
X-35546412Y56957094D01*
X-35546413Y56957095D01*
X-35550257Y56959054D01*
X-35645342Y57007502D01*
X-35754998Y57024869D01*
X-35755002Y57024869D01*
X-35864659Y57007502D01*
X-35963586Y56957096D01*
X-35963593Y56957091D01*
X-36042091Y56878593D01*
X-36042096Y56878586D01*
X-36092502Y56779659D01*
X-36109869Y56670003D01*
X-37358764Y56670003D01*
X-37349751Y56749998D01*
X-37349751Y56750003D01*
X-37368686Y56918057D01*
X-37424546Y57077695D01*
X-37424548Y57077698D01*
X-37514519Y57220885D01*
X-37514524Y57220891D01*
X-37582914Y57289281D01*
X-37616399Y57350604D01*
X-37611415Y57420296D01*
X-37569543Y57476229D01*
X-37504079Y57500646D01*
X-37495282Y57500962D01*
X-31973470Y57502213D01*
X-31973466Y57502212D01*
X-31948799Y57502218D01*
X-31948798Y57502217D01*
X-31907286Y57502227D01*
X-31895143Y57501633D01*
G37*
%TD.AperFunction*%
%TD*%
M02*
