%TF.GenerationSoftware,KiCad,Pcbnew,8.0.2-1*%
%TF.CreationDate,2024-05-26T22:58:53-07:00*%
%TF.ProjectId,PicoROM,5069636f-524f-44d2-9e6b-696361645f70,1.1*%
%TF.SameCoordinates,Original*%
%TF.FileFunction,Legend,Bot*%
%TF.FilePolarity,Positive*%
%FSLAX46Y46*%
G04 Gerber Fmt 4.6, Leading zero omitted, Abs format (unit mm)*
G04 Created by KiCad (PCBNEW 8.0.2-1) date 2024-05-26 22:58:53*
%MOMM*%
%LPD*%
G01*
G04 APERTURE LIST*
G04 Aperture macros list*
%AMRoundRect*
0 Rectangle with rounded corners*
0 $1 Rounding radius*
0 $2 $3 $4 $5 $6 $7 $8 $9 X,Y pos of 4 corners*
0 Add a 4 corners polygon primitive as box body*
4,1,4,$2,$3,$4,$5,$6,$7,$8,$9,$2,$3,0*
0 Add four circle primitives for the rounded corners*
1,1,$1+$1,$2,$3*
1,1,$1+$1,$4,$5*
1,1,$1+$1,$6,$7*
1,1,$1+$1,$8,$9*
0 Add four rect primitives between the rounded corners*
20,1,$1+$1,$2,$3,$4,$5,0*
20,1,$1+$1,$4,$5,$6,$7,0*
20,1,$1+$1,$6,$7,$8,$9,0*
20,1,$1+$1,$8,$9,$2,$3,0*%
G04 Aperture macros list end*
%ADD10C,1.000000*%
%ADD11C,0.150000*%
%ADD12C,0.125000*%
%ADD13C,0.120000*%
%ADD14C,0.152400*%
%ADD15C,0.000000*%
%ADD16C,0.762000*%
%ADD17O,1.102000X0.682000*%
%ADD18C,1.202000*%
%ADD19RoundRect,0.051000X0.850000X0.850000X-0.850000X0.850000X-0.850000X-0.850000X0.850000X-0.850000X0*%
%ADD20O,1.802000X1.802000*%
%ADD21C,1.802000*%
%ADD22RoundRect,0.165500X0.195500X-0.165500X0.195500X0.165500X-0.195500X0.165500X-0.195500X-0.165500X0*%
%ADD23RoundRect,0.165500X0.165500X0.195500X-0.165500X0.195500X-0.165500X-0.195500X0.165500X-0.195500X0*%
%ADD24RoundRect,0.125500X-0.663000X-0.125500X0.663000X-0.125500X0.663000X0.125500X-0.663000X0.125500X0*%
%ADD25RoundRect,0.175500X0.175500X-0.675500X0.175500X0.675500X-0.175500X0.675500X-0.175500X-0.675500X0*%
%ADD26RoundRect,0.125500X0.663000X0.125500X-0.663000X0.125500X-0.663000X-0.125500X0.663000X-0.125500X0*%
%ADD27RoundRect,0.165500X-0.195500X0.165500X-0.195500X-0.165500X0.195500X-0.165500X0.195500X0.165500X0*%
%ADD28RoundRect,0.165500X-0.165500X-0.195500X0.165500X-0.195500X0.165500X0.195500X-0.165500X0.195500X0*%
%ADD29RoundRect,0.051000X-0.290000X0.150000X-0.290000X-0.150000X0.290000X-0.150000X0.290000X0.150000X0*%
%ADD30RoundRect,0.051000X-0.289941X0.124968X-0.289941X-0.124968X0.289941X-0.124968X0.289941X0.124968X0*%
%ADD31RoundRect,0.051000X-0.175000X-0.315000X0.175000X-0.315000X0.175000X0.315000X-0.175000X0.315000X0*%
G04 APERTURE END LIST*
D10*
G36*
X-58369325Y27978247D02*
G01*
X-58175297Y27920063D01*
X-58133222Y27894372D01*
X-57994557Y27748116D01*
X-57965004Y27692734D01*
X-57908584Y27500943D01*
X-57896734Y27411870D01*
X-57886114Y27207851D01*
X-57886114Y26522017D01*
X-59074111Y26522017D01*
X-59074111Y27207851D01*
X-59072012Y27301961D01*
X-59052617Y27500943D01*
X-59040823Y27560856D01*
X-58966644Y27748116D01*
X-58935956Y27793076D01*
X-58785904Y27920063D01*
X-58678879Y27961812D01*
X-58480112Y27984543D01*
X-58369325Y27978247D01*
G37*
G36*
X-59596415Y36056500D02*
G01*
X-59399442Y36027949D01*
X-59291104Y35999340D01*
X-59109282Y35912666D01*
X-59028178Y35850222D01*
X-58904118Y35693825D01*
X-58846616Y35550299D01*
X-58824006Y35352862D01*
X-58837228Y35199511D01*
X-58904118Y35014830D01*
X-58958156Y34935718D01*
X-59109282Y34797942D01*
X-59209162Y34743720D01*
X-59399442Y34682659D01*
X-59533766Y34661153D01*
X-59733566Y34649442D01*
X-59870235Y34654924D01*
X-60064760Y34682659D01*
X-60171775Y34711709D01*
X-60354920Y34797942D01*
X-60437462Y34860596D01*
X-60561061Y35014830D01*
X-60615758Y35156738D01*
X-60637265Y35352862D01*
X-60624688Y35507167D01*
X-60561061Y35693825D01*
X-60501881Y35781834D01*
X-60354920Y35912666D01*
X-60253666Y35967346D01*
X-60064760Y36027949D01*
X-59932333Y36050088D01*
X-59733566Y36062143D01*
X-59596415Y36056500D01*
G37*
G36*
X-58386876Y39902255D02*
G01*
X-58188975Y39865492D01*
X-58018005Y39751187D01*
X-57973182Y39689042D01*
X-57904661Y39502364D01*
X-57886114Y39295918D01*
X-57886114Y38327740D01*
X-59011585Y38327740D01*
X-59011585Y39295918D01*
X-59009493Y39369496D01*
X-58973810Y39575733D01*
X-58877740Y39751187D01*
X-58831505Y39795093D01*
X-58643572Y39882162D01*
X-58440056Y39903594D01*
X-58386876Y39902255D01*
G37*
G36*
X-59099879Y44374295D02*
G01*
X-58904905Y44356137D01*
X-58698954Y44317551D01*
X-58622132Y44297492D01*
X-58434897Y44229040D01*
X-58253455Y44128996D01*
X-58205614Y44095519D01*
X-58057885Y43958877D01*
X-57940824Y43791940D01*
X-57895143Y43696598D01*
X-57840074Y43496712D01*
X-57823587Y43285869D01*
X-57829197Y43159425D01*
X-57864918Y42962893D01*
X-57940824Y42778821D01*
X-57971141Y42728019D01*
X-58096964Y42569444D01*
X-58253455Y42440789D01*
X-58315851Y42402182D01*
X-58504773Y42312103D01*
X-58698954Y42252234D01*
X-58809169Y42229393D01*
X-59018072Y42201858D01*
X-59215772Y42193615D01*
X-59311278Y42195676D01*
X-59514910Y42214281D01*
X-59714027Y42252234D01*
X-59773607Y42268216D01*
X-59970356Y42341226D01*
X-60148779Y42440789D01*
X-60195720Y42474495D01*
X-60341498Y42611698D01*
X-60458479Y42778821D01*
X-60503780Y42874210D01*
X-60558390Y43074431D01*
X-60574739Y43285869D01*
X-60569176Y43411933D01*
X-60533753Y43608029D01*
X-60458479Y43791940D01*
X-60427995Y43842728D01*
X-60302786Y44001009D01*
X-60148779Y44128996D01*
X-60087160Y44167860D01*
X-59902192Y44258153D01*
X-59714027Y44317551D01*
X-59622688Y44337804D01*
X-59421487Y44367311D01*
X-59215772Y44377146D01*
X-59099879Y44374295D01*
G37*
G36*
X-56573273Y25137858D02*
G01*
X-61825053Y25137858D01*
X-61825053Y26522017D01*
X-61200000Y26522017D01*
X-61200000Y25637858D01*
X-57198326Y25637858D01*
X-57198326Y27450140D01*
X-57198753Y27496840D01*
X-57211255Y27696128D01*
X-57245449Y27896712D01*
X-57307746Y28092010D01*
X-57358603Y28203074D01*
X-57461666Y28371281D01*
X-57595953Y28521878D01*
X-57641443Y28561995D01*
X-57813161Y28680284D01*
X-58004327Y28764167D01*
X-58091007Y28790064D01*
X-58282818Y28827794D01*
X-58480112Y28840370D01*
X-58555026Y28838510D01*
X-58762755Y28813506D01*
X-58952966Y28764167D01*
X-59024341Y28738159D01*
X-59210484Y28641988D01*
X-59365248Y28521878D01*
X-59440148Y28444874D01*
X-59561635Y28276566D01*
X-59653455Y28092010D01*
X-59666587Y28058476D01*
X-59723668Y27858351D01*
X-59753321Y27653378D01*
X-59761899Y27450140D01*
X-59761899Y27207851D01*
X-59761899Y26522017D01*
X-61200000Y26522017D01*
X-61825053Y26522017D01*
X-61825053Y29308340D01*
X-61200000Y29308340D01*
X-58290580Y29308340D01*
X-57823587Y29308340D01*
X-57135800Y29308340D01*
X-57135800Y30107502D01*
X-57823587Y30107502D01*
X-57823587Y29308340D01*
X-58290580Y29308340D01*
X-58290580Y30107502D01*
X-61200000Y30107502D01*
X-61200000Y29308340D01*
X-61825053Y29308340D01*
X-61825053Y32106386D01*
X-61262527Y32106386D01*
X-61251841Y31907690D01*
X-61215403Y31701247D01*
X-61153106Y31507502D01*
X-61092534Y31376283D01*
X-60981525Y31198459D01*
X-60846337Y31043441D01*
X-60729301Y30942376D01*
X-60554499Y30828299D01*
X-60375437Y30744488D01*
X-60181136Y30683859D01*
X-59974367Y30648397D01*
X-59775576Y30637998D01*
X-59754496Y30638094D01*
X-59548836Y30649657D01*
X-59352526Y30680493D01*
X-59147384Y30736672D01*
X-58973761Y30807311D01*
X-58800628Y30905732D01*
X-58646197Y31025855D01*
X-58523370Y31153739D01*
X-58409197Y31313365D01*
X-58316958Y31492848D01*
X-58309685Y31510204D01*
X-58244922Y31711201D01*
X-58210289Y31909953D01*
X-58198744Y32123971D01*
X-58201183Y32220039D01*
X-58223198Y32423708D01*
X-58268109Y32621250D01*
X-58286336Y32680295D01*
X-58367921Y32874453D01*
X-58477181Y33049163D01*
X-58513436Y33095203D01*
X-58657398Y33239031D01*
X-58827914Y33355932D01*
X-58923123Y33402789D01*
X-59119784Y33464010D01*
X-59324215Y33490754D01*
X-59324215Y32709177D01*
X-59293441Y32703808D01*
X-59082415Y32630429D01*
X-58933915Y32502949D01*
X-58847942Y32321370D01*
X-58824006Y32118109D01*
X-58835959Y31983150D01*
X-58909003Y31796686D01*
X-58973325Y31713567D01*
X-59128821Y31585660D01*
X-59233052Y31531438D01*
X-59423867Y31470377D01*
X-59544492Y31450136D01*
X-59744313Y31437160D01*
X-59860176Y31441831D01*
X-60056944Y31470377D01*
X-60162291Y31498734D01*
X-60344174Y31579798D01*
X-60420194Y31632577D01*
X-60555199Y31784962D01*
X-60608334Y31899727D01*
X-60637265Y32100524D01*
X-60634761Y32170255D01*
X-60592046Y32368206D01*
X-60477042Y32542115D01*
X-60424300Y32587820D01*
X-60248201Y32685593D01*
X-60047174Y32736532D01*
X-60047174Y33507363D01*
X-60221851Y33475783D01*
X-60414650Y33418996D01*
X-60616401Y33326699D01*
X-60793188Y33206352D01*
X-60945011Y33057956D01*
X-61052917Y32911387D01*
X-61150590Y32721811D01*
X-61217876Y32512226D01*
X-61251364Y32316656D01*
X-61262527Y32106386D01*
X-61825053Y32106386D01*
X-61825053Y35352862D01*
X-61262527Y35352862D01*
X-61262423Y35331435D01*
X-61249943Y35124516D01*
X-61216665Y34930953D01*
X-61156037Y34733462D01*
X-61096564Y34600594D01*
X-60985830Y34419610D01*
X-60849268Y34260608D01*
X-60716175Y34146558D01*
X-60551479Y34041158D01*
X-60367621Y33956770D01*
X-60349909Y33950218D01*
X-60146520Y33891877D01*
X-59947996Y33860679D01*
X-59736497Y33850280D01*
X-59714702Y33850384D01*
X-59503775Y33862863D01*
X-59305633Y33896141D01*
X-59102443Y33956770D01*
X-58949248Y34024252D01*
X-58780271Y34125831D01*
X-58618842Y34260608D01*
X-58513372Y34377798D01*
X-58395105Y34553287D01*
X-58309142Y34733462D01*
X-58302350Y34750748D01*
X-58241869Y34949708D01*
X-58209525Y35144606D01*
X-58198744Y35352862D01*
X-58198852Y35374231D01*
X-58211789Y35580998D01*
X-58246289Y35775171D01*
X-58309142Y35974215D01*
X-58377878Y36124345D01*
X-58481410Y36290205D01*
X-58618842Y36449024D01*
X-58751706Y36563493D01*
X-58917031Y36668914D01*
X-59102443Y36752862D01*
X-59120276Y36759473D01*
X-59324872Y36818349D01*
X-59524292Y36849834D01*
X-59736497Y36860328D01*
X-59758231Y36860224D01*
X-59968433Y36847630D01*
X-60165659Y36814046D01*
X-60367621Y36752862D01*
X-60519476Y36685774D01*
X-60687655Y36584258D01*
X-60849268Y36449024D01*
X-60954111Y36332073D01*
X-61071302Y36155944D01*
X-61156037Y35974215D01*
X-61162588Y35956750D01*
X-61220929Y35756320D01*
X-61252127Y35560888D01*
X-61262527Y35352862D01*
X-61825053Y35352862D01*
X-61825053Y40021808D01*
X-61200000Y40021808D01*
X-61138701Y40000294D01*
X-60948283Y39954773D01*
X-60746686Y39931927D01*
X-60648557Y39925080D01*
X-60441366Y39906004D01*
X-60241592Y39881124D01*
X-60147692Y39864599D01*
X-59955808Y39804699D01*
X-59782415Y39689638D01*
X-59718729Y39604763D01*
X-59654047Y39417355D01*
X-59643928Y39295918D01*
X-59636846Y39210922D01*
X-59636846Y38327740D01*
X-61200000Y38327740D01*
X-61200000Y37443580D01*
X-57198326Y37443580D01*
X-57198326Y39610503D01*
X-57200449Y39693479D01*
X-57225837Y39897160D01*
X-57285276Y40097035D01*
X-57302146Y40137152D01*
X-57395859Y40309831D01*
X-57523657Y40468284D01*
X-57542773Y40487411D01*
X-57698063Y40612376D01*
X-57874390Y40704711D01*
X-57912025Y40719377D01*
X-58108188Y40771069D01*
X-58303280Y40786776D01*
X-58325291Y40786631D01*
X-58535111Y40769114D01*
X-58726231Y40722402D01*
X-58914864Y40637300D01*
X-58930864Y40627834D01*
X-59090994Y40499272D01*
X-59211322Y40343529D01*
X-59307607Y40150768D01*
X-59318354Y40150768D01*
X-59351116Y40247206D01*
X-59456107Y40420412D01*
X-59510469Y40477694D01*
X-59673971Y40595290D01*
X-59763618Y40637364D01*
X-59951431Y40693964D01*
X-60055424Y40713033D01*
X-60253315Y40735974D01*
X-60277770Y40737424D01*
X-60478019Y40746721D01*
X-60542865Y40750140D01*
X-60741801Y40766260D01*
X-60799704Y40773419D01*
X-60995813Y40811201D01*
X-61018027Y40817337D01*
X-61200000Y40904990D01*
X-61200000Y40021808D01*
X-61825053Y40021808D01*
X-61825053Y43285869D01*
X-61325053Y43285869D01*
X-61324894Y43257079D01*
X-61314917Y43060677D01*
X-61284509Y42847209D01*
X-61233828Y42645465D01*
X-61162876Y42455444D01*
X-61109214Y42343135D01*
X-60997596Y42155044D01*
X-60866658Y41985037D01*
X-60716400Y41833113D01*
X-60605952Y41742380D01*
X-60427272Y41621867D01*
X-60232982Y41520055D01*
X-60047174Y41445255D01*
X-59851414Y41386271D01*
X-59648081Y41344139D01*
X-59437178Y41318860D01*
X-59218703Y41310433D01*
X-58995159Y41318860D01*
X-58779798Y41344139D01*
X-58572619Y41386271D01*
X-58373622Y41445255D01*
X-58230946Y41499969D01*
X-58051611Y41585851D01*
X-57864748Y41700131D01*
X-57693650Y41833113D01*
X-57589236Y41932386D01*
X-57449102Y42096366D01*
X-57328751Y42278429D01*
X-57238382Y42455444D01*
X-57228223Y42478555D01*
X-57158568Y42670041D01*
X-57109552Y42873252D01*
X-57081174Y43088185D01*
X-57073273Y43285869D01*
X-57073435Y43314957D01*
X-57083593Y43513015D01*
X-57114550Y43727460D01*
X-57166147Y43929205D01*
X-57238382Y44118249D01*
X-57293031Y44229689D01*
X-57406787Y44416458D01*
X-57540327Y44585452D01*
X-57693650Y44736672D01*
X-57825364Y44842099D01*
X-58008723Y44960887D01*
X-58184945Y45050646D01*
X-58373622Y45125506D01*
X-58398049Y45133801D01*
X-58598069Y45190679D01*
X-58806271Y45230704D01*
X-59022655Y45253877D01*
X-59218703Y45260328D01*
X-59437178Y45251902D01*
X-59648081Y45226623D01*
X-59851414Y45184491D01*
X-60047174Y45125506D01*
X-60187686Y45070758D01*
X-60364243Y44984723D01*
X-60548127Y44870126D01*
X-60716400Y44736672D01*
X-60818718Y44637834D01*
X-60956096Y44474764D01*
X-61074154Y44293921D01*
X-61162876Y44118249D01*
X-61172853Y44095313D01*
X-61241272Y43904681D01*
X-61289418Y43701349D01*
X-61317292Y43485316D01*
X-61325053Y43285869D01*
X-61825053Y43285869D01*
X-61825053Y49338207D01*
X-61200000Y49338207D01*
X-58363853Y49338207D01*
X-58363853Y49326483D01*
X-61200000Y48341696D01*
X-61200000Y47661724D01*
X-58392185Y46676937D01*
X-58392185Y46665213D01*
X-61200000Y46665213D01*
X-61200000Y45837719D01*
X-57198326Y45837719D01*
X-57198326Y47081403D01*
X-59950454Y48021250D01*
X-59950454Y48032973D01*
X-57198326Y48922017D01*
X-57198326Y50165702D01*
X-61200000Y50165702D01*
X-61200000Y49338207D01*
X-61825053Y49338207D01*
X-61825053Y50665702D01*
X-56573273Y50665702D01*
X-56573273Y25137858D01*
G37*
D11*
X-39072732Y17204705D02*
X-39072732Y16633277D01*
X-39072732Y16633277D02*
X-39034637Y16518991D01*
X-39034637Y16518991D02*
X-38958446Y16442800D01*
X-38958446Y16442800D02*
X-38844161Y16404705D01*
X-38844161Y16404705D02*
X-38767970Y16404705D01*
X-39834637Y16404705D02*
X-39453685Y16404705D01*
X-39453685Y16404705D02*
X-39453685Y17204705D01*
X-40558447Y16480896D02*
X-40520351Y16442800D01*
X-40520351Y16442800D02*
X-40406066Y16404705D01*
X-40406066Y16404705D02*
X-40329875Y16404705D01*
X-40329875Y16404705D02*
X-40215589Y16442800D01*
X-40215589Y16442800D02*
X-40139399Y16518991D01*
X-40139399Y16518991D02*
X-40101304Y16595181D01*
X-40101304Y16595181D02*
X-40063208Y16747562D01*
X-40063208Y16747562D02*
X-40063208Y16861848D01*
X-40063208Y16861848D02*
X-40101304Y17014229D01*
X-40101304Y17014229D02*
X-40139399Y17090420D01*
X-40139399Y17090420D02*
X-40215589Y17166610D01*
X-40215589Y17166610D02*
X-40329875Y17204705D01*
X-40329875Y17204705D02*
X-40406066Y17204705D01*
X-40406066Y17204705D02*
X-40520351Y17166610D01*
X-40520351Y17166610D02*
X-40558447Y17128515D01*
X-41129875Y17204705D02*
X-41129875Y16633277D01*
X-41129875Y16633277D02*
X-41091780Y16518991D01*
X-41091780Y16518991D02*
X-41015589Y16442800D01*
X-41015589Y16442800D02*
X-40901304Y16404705D01*
X-40901304Y16404705D02*
X-40825113Y16404705D01*
X-41891780Y16404705D02*
X-41510828Y16404705D01*
X-41510828Y16404705D02*
X-41510828Y17204705D01*
X-42615590Y16480896D02*
X-42577494Y16442800D01*
X-42577494Y16442800D02*
X-42463209Y16404705D01*
X-42463209Y16404705D02*
X-42387018Y16404705D01*
X-42387018Y16404705D02*
X-42272732Y16442800D01*
X-42272732Y16442800D02*
X-42196542Y16518991D01*
X-42196542Y16518991D02*
X-42158447Y16595181D01*
X-42158447Y16595181D02*
X-42120351Y16747562D01*
X-42120351Y16747562D02*
X-42120351Y16861848D01*
X-42120351Y16861848D02*
X-42158447Y17014229D01*
X-42158447Y17014229D02*
X-42196542Y17090420D01*
X-42196542Y17090420D02*
X-42272732Y17166610D01*
X-42272732Y17166610D02*
X-42387018Y17204705D01*
X-42387018Y17204705D02*
X-42463209Y17204705D01*
X-42463209Y17204705D02*
X-42577494Y17166610D01*
X-42577494Y17166610D02*
X-42615590Y17128515D01*
X-43187018Y17204705D02*
X-43187018Y16633277D01*
X-43187018Y16633277D02*
X-43148923Y16518991D01*
X-43148923Y16518991D02*
X-43072732Y16442800D01*
X-43072732Y16442800D02*
X-42958447Y16404705D01*
X-42958447Y16404705D02*
X-42882256Y16404705D01*
X-43948923Y16404705D02*
X-43567971Y16404705D01*
X-43567971Y16404705D02*
X-43567971Y17204705D01*
X-44672733Y16480896D02*
X-44634637Y16442800D01*
X-44634637Y16442800D02*
X-44520352Y16404705D01*
X-44520352Y16404705D02*
X-44444161Y16404705D01*
X-44444161Y16404705D02*
X-44329875Y16442800D01*
X-44329875Y16442800D02*
X-44253685Y16518991D01*
X-44253685Y16518991D02*
X-44215590Y16595181D01*
X-44215590Y16595181D02*
X-44177494Y16747562D01*
X-44177494Y16747562D02*
X-44177494Y16861848D01*
X-44177494Y16861848D02*
X-44215590Y17014229D01*
X-44215590Y17014229D02*
X-44253685Y17090420D01*
X-44253685Y17090420D02*
X-44329875Y17166610D01*
X-44329875Y17166610D02*
X-44444161Y17204705D01*
X-44444161Y17204705D02*
X-44520352Y17204705D01*
X-44520352Y17204705D02*
X-44634637Y17166610D01*
X-44634637Y17166610D02*
X-44672733Y17128515D01*
X-45244161Y17204705D02*
X-45244161Y16633277D01*
X-45244161Y16633277D02*
X-45206066Y16518991D01*
X-45206066Y16518991D02*
X-45129875Y16442800D01*
X-45129875Y16442800D02*
X-45015590Y16404705D01*
X-45015590Y16404705D02*
X-44939399Y16404705D01*
X-46006066Y16404705D02*
X-45625114Y16404705D01*
X-45625114Y16404705D02*
X-45625114Y17204705D01*
X-46729876Y16480896D02*
X-46691780Y16442800D01*
X-46691780Y16442800D02*
X-46577495Y16404705D01*
X-46577495Y16404705D02*
X-46501304Y16404705D01*
X-46501304Y16404705D02*
X-46387018Y16442800D01*
X-46387018Y16442800D02*
X-46310828Y16518991D01*
X-46310828Y16518991D02*
X-46272733Y16595181D01*
X-46272733Y16595181D02*
X-46234637Y16747562D01*
X-46234637Y16747562D02*
X-46234637Y16861848D01*
X-46234637Y16861848D02*
X-46272733Y17014229D01*
X-46272733Y17014229D02*
X-46310828Y17090420D01*
X-46310828Y17090420D02*
X-46387018Y17166610D01*
X-46387018Y17166610D02*
X-46501304Y17204705D01*
X-46501304Y17204705D02*
X-46577495Y17204705D01*
X-46577495Y17204705D02*
X-46691780Y17166610D01*
X-46691780Y17166610D02*
X-46729876Y17128515D01*
X-45974820Y22285780D02*
X-44974820Y22285780D01*
X-44974820Y22285780D02*
X-45689105Y22619113D01*
X-45689105Y22619113D02*
X-44974820Y22952446D01*
X-44974820Y22952446D02*
X-45974820Y22952446D01*
X-45974820Y23857208D02*
X-45451010Y23857208D01*
X-45451010Y23857208D02*
X-45355772Y23809589D01*
X-45355772Y23809589D02*
X-45308153Y23714351D01*
X-45308153Y23714351D02*
X-45308153Y23523875D01*
X-45308153Y23523875D02*
X-45355772Y23428637D01*
X-45927200Y23857208D02*
X-45974820Y23761970D01*
X-45974820Y23761970D02*
X-45974820Y23523875D01*
X-45974820Y23523875D02*
X-45927200Y23428637D01*
X-45927200Y23428637D02*
X-45831962Y23381018D01*
X-45831962Y23381018D02*
X-45736724Y23381018D01*
X-45736724Y23381018D02*
X-45641486Y23428637D01*
X-45641486Y23428637D02*
X-45593867Y23523875D01*
X-45593867Y23523875D02*
X-45593867Y23761970D01*
X-45593867Y23761970D02*
X-45546248Y23857208D01*
X-45974820Y24333399D02*
X-45308153Y24333399D01*
X-45498629Y24333399D02*
X-45403391Y24381018D01*
X-45403391Y24381018D02*
X-45355772Y24428637D01*
X-45355772Y24428637D02*
X-45308153Y24523875D01*
X-45308153Y24523875D02*
X-45308153Y24619113D01*
X-45308153Y24809590D02*
X-45308153Y25190542D01*
X-44974820Y24952447D02*
X-45831962Y24952447D01*
X-45831962Y24952447D02*
X-45927200Y25000066D01*
X-45927200Y25000066D02*
X-45974820Y25095304D01*
X-45974820Y25095304D02*
X-45974820Y25190542D01*
X-45974820Y25523876D02*
X-45308153Y25523876D01*
X-44974820Y25523876D02*
X-45022439Y25476257D01*
X-45022439Y25476257D02*
X-45070058Y25523876D01*
X-45070058Y25523876D02*
X-45022439Y25571495D01*
X-45022439Y25571495D02*
X-44974820Y25523876D01*
X-44974820Y25523876D02*
X-45070058Y25523876D01*
X-45308153Y26000066D02*
X-45974820Y26000066D01*
X-45403391Y26000066D02*
X-45355772Y26047685D01*
X-45355772Y26047685D02*
X-45308153Y26142923D01*
X-45308153Y26142923D02*
X-45308153Y26285780D01*
X-45308153Y26285780D02*
X-45355772Y26381018D01*
X-45355772Y26381018D02*
X-45451010Y26428637D01*
X-45451010Y26428637D02*
X-45974820Y26428637D01*
X-45974820Y27666733D02*
X-44974820Y27666733D01*
X-44974820Y27666733D02*
X-44974820Y27904828D01*
X-44974820Y27904828D02*
X-45022439Y28047685D01*
X-45022439Y28047685D02*
X-45117677Y28142923D01*
X-45117677Y28142923D02*
X-45212915Y28190542D01*
X-45212915Y28190542D02*
X-45403391Y28238161D01*
X-45403391Y28238161D02*
X-45546248Y28238161D01*
X-45546248Y28238161D02*
X-45736724Y28190542D01*
X-45736724Y28190542D02*
X-45831962Y28142923D01*
X-45831962Y28142923D02*
X-45927200Y28047685D01*
X-45927200Y28047685D02*
X-45974820Y27904828D01*
X-45974820Y27904828D02*
X-45974820Y27666733D01*
X-45974820Y28809590D02*
X-45927200Y28714352D01*
X-45927200Y28714352D02*
X-45879581Y28666733D01*
X-45879581Y28666733D02*
X-45784343Y28619114D01*
X-45784343Y28619114D02*
X-45498629Y28619114D01*
X-45498629Y28619114D02*
X-45403391Y28666733D01*
X-45403391Y28666733D02*
X-45355772Y28714352D01*
X-45355772Y28714352D02*
X-45308153Y28809590D01*
X-45308153Y28809590D02*
X-45308153Y28952447D01*
X-45308153Y28952447D02*
X-45355772Y29047685D01*
X-45355772Y29047685D02*
X-45403391Y29095304D01*
X-45403391Y29095304D02*
X-45498629Y29142923D01*
X-45498629Y29142923D02*
X-45784343Y29142923D01*
X-45784343Y29142923D02*
X-45879581Y29095304D01*
X-45879581Y29095304D02*
X-45927200Y29047685D01*
X-45927200Y29047685D02*
X-45974820Y28952447D01*
X-45974820Y28952447D02*
X-45974820Y28809590D01*
X-45308153Y29571495D02*
X-45974820Y29571495D01*
X-45403391Y29571495D02*
X-45355772Y29619114D01*
X-45355772Y29619114D02*
X-45308153Y29714352D01*
X-45308153Y29714352D02*
X-45308153Y29857209D01*
X-45308153Y29857209D02*
X-45355772Y29952447D01*
X-45355772Y29952447D02*
X-45451010Y30000066D01*
X-45451010Y30000066D02*
X-45974820Y30000066D01*
X-45974820Y30619114D02*
X-45927200Y30523876D01*
X-45927200Y30523876D02*
X-45831962Y30476257D01*
X-45831962Y30476257D02*
X-44974820Y30476257D01*
X-45974820Y31142924D02*
X-45927200Y31047686D01*
X-45927200Y31047686D02*
X-45879581Y31000067D01*
X-45879581Y31000067D02*
X-45784343Y30952448D01*
X-45784343Y30952448D02*
X-45498629Y30952448D01*
X-45498629Y30952448D02*
X-45403391Y31000067D01*
X-45403391Y31000067D02*
X-45355772Y31047686D01*
X-45355772Y31047686D02*
X-45308153Y31142924D01*
X-45308153Y31142924D02*
X-45308153Y31285781D01*
X-45308153Y31285781D02*
X-45355772Y31381019D01*
X-45355772Y31381019D02*
X-45403391Y31428638D01*
X-45403391Y31428638D02*
X-45498629Y31476257D01*
X-45498629Y31476257D02*
X-45784343Y31476257D01*
X-45784343Y31476257D02*
X-45879581Y31428638D01*
X-45879581Y31428638D02*
X-45927200Y31381019D01*
X-45927200Y31381019D02*
X-45974820Y31285781D01*
X-45974820Y31285781D02*
X-45974820Y31142924D01*
X-45308153Y31904829D02*
X-45974820Y31904829D01*
X-45403391Y31904829D02*
X-45355772Y31952448D01*
X-45355772Y31952448D02*
X-45308153Y32047686D01*
X-45308153Y32047686D02*
X-45308153Y32190543D01*
X-45308153Y32190543D02*
X-45355772Y32285781D01*
X-45355772Y32285781D02*
X-45451010Y32333400D01*
X-45451010Y32333400D02*
X-45974820Y32333400D01*
X-46355772Y33857210D02*
X-46308153Y33809591D01*
X-46308153Y33809591D02*
X-46165296Y33714353D01*
X-46165296Y33714353D02*
X-46070058Y33666734D01*
X-46070058Y33666734D02*
X-45927200Y33619115D01*
X-45927200Y33619115D02*
X-45689105Y33571496D01*
X-45689105Y33571496D02*
X-45498629Y33571496D01*
X-45498629Y33571496D02*
X-45260534Y33619115D01*
X-45260534Y33619115D02*
X-45117677Y33666734D01*
X-45117677Y33666734D02*
X-45022439Y33714353D01*
X-45022439Y33714353D02*
X-44879581Y33809591D01*
X-44879581Y33809591D02*
X-44831962Y33857210D01*
X-45498629Y34857210D02*
X-45451010Y34809591D01*
X-45451010Y34809591D02*
X-45403391Y34714353D01*
X-45403391Y34714353D02*
X-45403391Y34619115D01*
X-45403391Y34619115D02*
X-45451010Y34523877D01*
X-45451010Y34523877D02*
X-45498629Y34476258D01*
X-45498629Y34476258D02*
X-45593867Y34428639D01*
X-45593867Y34428639D02*
X-45689105Y34428639D01*
X-45689105Y34428639D02*
X-45784343Y34476258D01*
X-45784343Y34476258D02*
X-45831962Y34523877D01*
X-45831962Y34523877D02*
X-45879581Y34619115D01*
X-45879581Y34619115D02*
X-45879581Y34714353D01*
X-45879581Y34714353D02*
X-45831962Y34809591D01*
X-45831962Y34809591D02*
X-45784343Y34857210D01*
X-45403391Y34857210D02*
X-45784343Y34857210D01*
X-45784343Y34857210D02*
X-45831962Y34904829D01*
X-45831962Y34904829D02*
X-45831962Y34952448D01*
X-45831962Y34952448D02*
X-45784343Y35047687D01*
X-45784343Y35047687D02*
X-45689105Y35095306D01*
X-45689105Y35095306D02*
X-45451010Y35095306D01*
X-45451010Y35095306D02*
X-45308153Y35000067D01*
X-45308153Y35000067D02*
X-45212915Y34857210D01*
X-45212915Y34857210D02*
X-45165296Y34666734D01*
X-45165296Y34666734D02*
X-45212915Y34476258D01*
X-45212915Y34476258D02*
X-45308153Y34333401D01*
X-45308153Y34333401D02*
X-45451010Y34238163D01*
X-45451010Y34238163D02*
X-45641486Y34190544D01*
X-45641486Y34190544D02*
X-45831962Y34238163D01*
X-45831962Y34238163D02*
X-45974820Y34333401D01*
X-45974820Y34333401D02*
X-46070058Y34476258D01*
X-46070058Y34476258D02*
X-46117677Y34666734D01*
X-46117677Y34666734D02*
X-46070058Y34857210D01*
X-46070058Y34857210D02*
X-45974820Y35000067D01*
X-45308153Y35428639D02*
X-45974820Y35619115D01*
X-45974820Y35619115D02*
X-45498629Y35809591D01*
X-45498629Y35809591D02*
X-45974820Y36000067D01*
X-45974820Y36000067D02*
X-45308153Y36190543D01*
X-45974820Y36571496D02*
X-45308153Y36571496D01*
X-44974820Y36571496D02*
X-45022439Y36523877D01*
X-45022439Y36523877D02*
X-45070058Y36571496D01*
X-45070058Y36571496D02*
X-45022439Y36619115D01*
X-45022439Y36619115D02*
X-44974820Y36571496D01*
X-44974820Y36571496D02*
X-45070058Y36571496D01*
X-45927200Y37476257D02*
X-45974820Y37381019D01*
X-45974820Y37381019D02*
X-45974820Y37190543D01*
X-45974820Y37190543D02*
X-45927200Y37095305D01*
X-45927200Y37095305D02*
X-45879581Y37047686D01*
X-45879581Y37047686D02*
X-45784343Y37000067D01*
X-45784343Y37000067D02*
X-45498629Y37000067D01*
X-45498629Y37000067D02*
X-45403391Y37047686D01*
X-45403391Y37047686D02*
X-45355772Y37095305D01*
X-45355772Y37095305D02*
X-45308153Y37190543D01*
X-45308153Y37190543D02*
X-45308153Y37381019D01*
X-45308153Y37381019D02*
X-45355772Y37476257D01*
X-45974820Y37904829D02*
X-44974820Y37904829D01*
X-45593867Y38000067D02*
X-45974820Y38285781D01*
X-45308153Y38285781D02*
X-45689105Y37904829D01*
X-45927200Y39095305D02*
X-45974820Y39000067D01*
X-45974820Y39000067D02*
X-45974820Y38809591D01*
X-45974820Y38809591D02*
X-45927200Y38714353D01*
X-45927200Y38714353D02*
X-45831962Y38666734D01*
X-45831962Y38666734D02*
X-45451010Y38666734D01*
X-45451010Y38666734D02*
X-45355772Y38714353D01*
X-45355772Y38714353D02*
X-45308153Y38809591D01*
X-45308153Y38809591D02*
X-45308153Y39000067D01*
X-45308153Y39000067D02*
X-45355772Y39095305D01*
X-45355772Y39095305D02*
X-45451010Y39142924D01*
X-45451010Y39142924D02*
X-45546248Y39142924D01*
X-45546248Y39142924D02*
X-45641486Y38666734D01*
X-45974820Y39571496D02*
X-45308153Y39571496D01*
X-45498629Y39571496D02*
X-45403391Y39619115D01*
X-45403391Y39619115D02*
X-45355772Y39666734D01*
X-45355772Y39666734D02*
X-45308153Y39761972D01*
X-45308153Y39761972D02*
X-45308153Y39857210D01*
X-45308153Y40095306D02*
X-45974820Y40285782D01*
X-45974820Y40285782D02*
X-45498629Y40476258D01*
X-45498629Y40476258D02*
X-45974820Y40666734D01*
X-45974820Y40666734D02*
X-45308153Y40857210D01*
X-45974820Y41666734D02*
X-45451010Y41666734D01*
X-45451010Y41666734D02*
X-45355772Y41619115D01*
X-45355772Y41619115D02*
X-45308153Y41523877D01*
X-45308153Y41523877D02*
X-45308153Y41333401D01*
X-45308153Y41333401D02*
X-45355772Y41238163D01*
X-45927200Y41666734D02*
X-45974820Y41571496D01*
X-45974820Y41571496D02*
X-45974820Y41333401D01*
X-45974820Y41333401D02*
X-45927200Y41238163D01*
X-45927200Y41238163D02*
X-45831962Y41190544D01*
X-45831962Y41190544D02*
X-45736724Y41190544D01*
X-45736724Y41190544D02*
X-45641486Y41238163D01*
X-45641486Y41238163D02*
X-45593867Y41333401D01*
X-45593867Y41333401D02*
X-45593867Y41571496D01*
X-45593867Y41571496D02*
X-45546248Y41666734D01*
X-45974820Y42142925D02*
X-44974820Y42142925D01*
X-45593867Y42238163D02*
X-45974820Y42523877D01*
X-45308153Y42523877D02*
X-45689105Y42142925D01*
X-45974820Y43381020D02*
X-45451010Y43381020D01*
X-45451010Y43381020D02*
X-45355772Y43333401D01*
X-45355772Y43333401D02*
X-45308153Y43238163D01*
X-45308153Y43238163D02*
X-45308153Y43047687D01*
X-45308153Y43047687D02*
X-45355772Y42952449D01*
X-45927200Y43381020D02*
X-45974820Y43285782D01*
X-45974820Y43285782D02*
X-45974820Y43047687D01*
X-45974820Y43047687D02*
X-45927200Y42952449D01*
X-45927200Y42952449D02*
X-45831962Y42904830D01*
X-45831962Y42904830D02*
X-45736724Y42904830D01*
X-45736724Y42904830D02*
X-45641486Y42952449D01*
X-45641486Y42952449D02*
X-45593867Y43047687D01*
X-45593867Y43047687D02*
X-45593867Y43285782D01*
X-45593867Y43285782D02*
X-45546248Y43381020D01*
X-46355772Y43761973D02*
X-46308153Y43809592D01*
X-46308153Y43809592D02*
X-46165296Y43904830D01*
X-46165296Y43904830D02*
X-46070058Y43952449D01*
X-46070058Y43952449D02*
X-45927200Y44000068D01*
X-45927200Y44000068D02*
X-45689105Y44047687D01*
X-45689105Y44047687D02*
X-45498629Y44047687D01*
X-45498629Y44047687D02*
X-45260534Y44000068D01*
X-45260534Y44000068D02*
X-45117677Y43952449D01*
X-45117677Y43952449D02*
X-45022439Y43904830D01*
X-45022439Y43904830D02*
X-44879581Y43809592D01*
X-44879581Y43809592D02*
X-44831962Y43761973D01*
D12*
X-45486667Y52350191D02*
X-45320001Y52588286D01*
X-45200953Y52350191D02*
X-45200953Y52850191D01*
X-45200953Y52850191D02*
X-45391429Y52850191D01*
X-45391429Y52850191D02*
X-45439048Y52826381D01*
X-45439048Y52826381D02*
X-45462858Y52802572D01*
X-45462858Y52802572D02*
X-45486667Y52754953D01*
X-45486667Y52754953D02*
X-45486667Y52683524D01*
X-45486667Y52683524D02*
X-45462858Y52635905D01*
X-45462858Y52635905D02*
X-45439048Y52612096D01*
X-45439048Y52612096D02*
X-45391429Y52588286D01*
X-45391429Y52588286D02*
X-45200953Y52588286D01*
X-45653334Y52850191D02*
X-45986667Y52850191D01*
X-45986667Y52850191D02*
X-45772382Y52350191D01*
D11*
X-35282143Y41110420D02*
X-35234524Y41062800D01*
X-35234524Y41062800D02*
X-35091667Y41015181D01*
X-35091667Y41015181D02*
X-34996429Y41015181D01*
X-34996429Y41015181D02*
X-34853572Y41062800D01*
X-34853572Y41062800D02*
X-34758334Y41158039D01*
X-34758334Y41158039D02*
X-34710715Y41253277D01*
X-34710715Y41253277D02*
X-34663096Y41443753D01*
X-34663096Y41443753D02*
X-34663096Y41586610D01*
X-34663096Y41586610D02*
X-34710715Y41777086D01*
X-34710715Y41777086D02*
X-34758334Y41872324D01*
X-34758334Y41872324D02*
X-34853572Y41967562D01*
X-34853572Y41967562D02*
X-34996429Y42015181D01*
X-34996429Y42015181D02*
X-35091667Y42015181D01*
X-35091667Y42015181D02*
X-35234524Y41967562D01*
X-35234524Y41967562D02*
X-35282143Y41919943D01*
X-35663096Y41919943D02*
X-35710715Y41967562D01*
X-35710715Y41967562D02*
X-35805953Y42015181D01*
X-35805953Y42015181D02*
X-36044048Y42015181D01*
X-36044048Y42015181D02*
X-36139286Y41967562D01*
X-36139286Y41967562D02*
X-36186905Y41919943D01*
X-36186905Y41919943D02*
X-36234524Y41824705D01*
X-36234524Y41824705D02*
X-36234524Y41729467D01*
X-36234524Y41729467D02*
X-36186905Y41586610D01*
X-36186905Y41586610D02*
X-35615477Y41015181D01*
X-35615477Y41015181D02*
X-36234524Y41015181D01*
X-36615477Y41919943D02*
X-36663096Y41967562D01*
X-36663096Y41967562D02*
X-36758334Y42015181D01*
X-36758334Y42015181D02*
X-36996429Y42015181D01*
X-36996429Y42015181D02*
X-37091667Y41967562D01*
X-37091667Y41967562D02*
X-37139286Y41919943D01*
X-37139286Y41919943D02*
X-37186905Y41824705D01*
X-37186905Y41824705D02*
X-37186905Y41729467D01*
X-37186905Y41729467D02*
X-37139286Y41586610D01*
X-37139286Y41586610D02*
X-36567858Y41015181D01*
X-36567858Y41015181D02*
X-37186905Y41015181D01*
X-37772143Y23010420D02*
X-37724524Y22962800D01*
X-37724524Y22962800D02*
X-37581667Y22915181D01*
X-37581667Y22915181D02*
X-37486429Y22915181D01*
X-37486429Y22915181D02*
X-37343572Y22962800D01*
X-37343572Y22962800D02*
X-37248334Y23058039D01*
X-37248334Y23058039D02*
X-37200715Y23153277D01*
X-37200715Y23153277D02*
X-37153096Y23343753D01*
X-37153096Y23343753D02*
X-37153096Y23486610D01*
X-37153096Y23486610D02*
X-37200715Y23677086D01*
X-37200715Y23677086D02*
X-37248334Y23772324D01*
X-37248334Y23772324D02*
X-37343572Y23867562D01*
X-37343572Y23867562D02*
X-37486429Y23915181D01*
X-37486429Y23915181D02*
X-37581667Y23915181D01*
X-37581667Y23915181D02*
X-37724524Y23867562D01*
X-37724524Y23867562D02*
X-37772143Y23819943D01*
X-38153096Y23819943D02*
X-38200715Y23867562D01*
X-38200715Y23867562D02*
X-38295953Y23915181D01*
X-38295953Y23915181D02*
X-38534048Y23915181D01*
X-38534048Y23915181D02*
X-38629286Y23867562D01*
X-38629286Y23867562D02*
X-38676905Y23819943D01*
X-38676905Y23819943D02*
X-38724524Y23724705D01*
X-38724524Y23724705D02*
X-38724524Y23629467D01*
X-38724524Y23629467D02*
X-38676905Y23486610D01*
X-38676905Y23486610D02*
X-38105477Y22915181D01*
X-38105477Y22915181D02*
X-38724524Y22915181D01*
X-39676905Y22915181D02*
X-39105477Y22915181D01*
X-39391191Y22915181D02*
X-39391191Y23915181D01*
X-39391191Y23915181D02*
X-39295953Y23772324D01*
X-39295953Y23772324D02*
X-39200715Y23677086D01*
X-39200715Y23677086D02*
X-39105477Y23629467D01*
X-41753096Y42945181D02*
X-41753096Y42135658D01*
X-41753096Y42135658D02*
X-41800715Y42040420D01*
X-41800715Y42040420D02*
X-41848334Y41992800D01*
X-41848334Y41992800D02*
X-41943572Y41945181D01*
X-41943572Y41945181D02*
X-42134048Y41945181D01*
X-42134048Y41945181D02*
X-42229286Y41992800D01*
X-42229286Y41992800D02*
X-42276905Y42040420D01*
X-42276905Y42040420D02*
X-42324524Y42135658D01*
X-42324524Y42135658D02*
X-42324524Y42945181D01*
X-43229286Y42945181D02*
X-43038810Y42945181D01*
X-43038810Y42945181D02*
X-42943572Y42897562D01*
X-42943572Y42897562D02*
X-42895953Y42849943D01*
X-42895953Y42849943D02*
X-42800715Y42707086D01*
X-42800715Y42707086D02*
X-42753096Y42516610D01*
X-42753096Y42516610D02*
X-42753096Y42135658D01*
X-42753096Y42135658D02*
X-42800715Y42040420D01*
X-42800715Y42040420D02*
X-42848334Y41992800D01*
X-42848334Y41992800D02*
X-42943572Y41945181D01*
X-42943572Y41945181D02*
X-43134048Y41945181D01*
X-43134048Y41945181D02*
X-43229286Y41992800D01*
X-43229286Y41992800D02*
X-43276905Y42040420D01*
X-43276905Y42040420D02*
X-43324524Y42135658D01*
X-43324524Y42135658D02*
X-43324524Y42373753D01*
X-43324524Y42373753D02*
X-43276905Y42468991D01*
X-43276905Y42468991D02*
X-43229286Y42516610D01*
X-43229286Y42516610D02*
X-43134048Y42564229D01*
X-43134048Y42564229D02*
X-42943572Y42564229D01*
X-42943572Y42564229D02*
X-42848334Y42516610D01*
X-42848334Y42516610D02*
X-42800715Y42468991D01*
X-42800715Y42468991D02*
X-42753096Y42373753D01*
X-34480181Y38241905D02*
X-33670658Y38241905D01*
X-33670658Y38241905D02*
X-33575420Y38194286D01*
X-33575420Y38194286D02*
X-33527800Y38146667D01*
X-33527800Y38146667D02*
X-33480181Y38051429D01*
X-33480181Y38051429D02*
X-33480181Y37860953D01*
X-33480181Y37860953D02*
X-33527800Y37765715D01*
X-33527800Y37765715D02*
X-33575420Y37718096D01*
X-33575420Y37718096D02*
X-33670658Y37670477D01*
X-33670658Y37670477D02*
X-34480181Y37670477D01*
X-34051610Y37051429D02*
X-34099229Y37146667D01*
X-34099229Y37146667D02*
X-34146848Y37194286D01*
X-34146848Y37194286D02*
X-34242086Y37241905D01*
X-34242086Y37241905D02*
X-34289705Y37241905D01*
X-34289705Y37241905D02*
X-34384943Y37194286D01*
X-34384943Y37194286D02*
X-34432562Y37146667D01*
X-34432562Y37146667D02*
X-34480181Y37051429D01*
X-34480181Y37051429D02*
X-34480181Y36860953D01*
X-34480181Y36860953D02*
X-34432562Y36765715D01*
X-34432562Y36765715D02*
X-34384943Y36718096D01*
X-34384943Y36718096D02*
X-34289705Y36670477D01*
X-34289705Y36670477D02*
X-34242086Y36670477D01*
X-34242086Y36670477D02*
X-34146848Y36718096D01*
X-34146848Y36718096D02*
X-34099229Y36765715D01*
X-34099229Y36765715D02*
X-34051610Y36860953D01*
X-34051610Y36860953D02*
X-34051610Y37051429D01*
X-34051610Y37051429D02*
X-34003991Y37146667D01*
X-34003991Y37146667D02*
X-33956372Y37194286D01*
X-33956372Y37194286D02*
X-33861134Y37241905D01*
X-33861134Y37241905D02*
X-33670658Y37241905D01*
X-33670658Y37241905D02*
X-33575420Y37194286D01*
X-33575420Y37194286D02*
X-33527800Y37146667D01*
X-33527800Y37146667D02*
X-33480181Y37051429D01*
X-33480181Y37051429D02*
X-33480181Y36860953D01*
X-33480181Y36860953D02*
X-33527800Y36765715D01*
X-33527800Y36765715D02*
X-33575420Y36718096D01*
X-33575420Y36718096D02*
X-33670658Y36670477D01*
X-33670658Y36670477D02*
X-33861134Y36670477D01*
X-33861134Y36670477D02*
X-33956372Y36718096D01*
X-33956372Y36718096D02*
X-34003991Y36765715D01*
X-34003991Y36765715D02*
X-34051610Y36860953D01*
X-36665420Y44862858D02*
X-36617800Y44910477D01*
X-36617800Y44910477D02*
X-36570181Y45053334D01*
X-36570181Y45053334D02*
X-36570181Y45148572D01*
X-36570181Y45148572D02*
X-36617800Y45291429D01*
X-36617800Y45291429D02*
X-36713039Y45386667D01*
X-36713039Y45386667D02*
X-36808277Y45434286D01*
X-36808277Y45434286D02*
X-36998753Y45481905D01*
X-36998753Y45481905D02*
X-37141610Y45481905D01*
X-37141610Y45481905D02*
X-37332086Y45434286D01*
X-37332086Y45434286D02*
X-37427324Y45386667D01*
X-37427324Y45386667D02*
X-37522562Y45291429D01*
X-37522562Y45291429D02*
X-37570181Y45148572D01*
X-37570181Y45148572D02*
X-37570181Y45053334D01*
X-37570181Y45053334D02*
X-37522562Y44910477D01*
X-37522562Y44910477D02*
X-37474943Y44862858D01*
X-37474943Y44481905D02*
X-37522562Y44434286D01*
X-37522562Y44434286D02*
X-37570181Y44339048D01*
X-37570181Y44339048D02*
X-37570181Y44100953D01*
X-37570181Y44100953D02*
X-37522562Y44005715D01*
X-37522562Y44005715D02*
X-37474943Y43958096D01*
X-37474943Y43958096D02*
X-37379705Y43910477D01*
X-37379705Y43910477D02*
X-37284467Y43910477D01*
X-37284467Y43910477D02*
X-37141610Y43958096D01*
X-37141610Y43958096D02*
X-36570181Y44529524D01*
X-36570181Y44529524D02*
X-36570181Y43910477D01*
X-37570181Y43291429D02*
X-37570181Y43196191D01*
X-37570181Y43196191D02*
X-37522562Y43100953D01*
X-37522562Y43100953D02*
X-37474943Y43053334D01*
X-37474943Y43053334D02*
X-37379705Y43005715D01*
X-37379705Y43005715D02*
X-37189229Y42958096D01*
X-37189229Y42958096D02*
X-36951134Y42958096D01*
X-36951134Y42958096D02*
X-36760658Y43005715D01*
X-36760658Y43005715D02*
X-36665420Y43053334D01*
X-36665420Y43053334D02*
X-36617800Y43100953D01*
X-36617800Y43100953D02*
X-36570181Y43196191D01*
X-36570181Y43196191D02*
X-36570181Y43291429D01*
X-36570181Y43291429D02*
X-36617800Y43386667D01*
X-36617800Y43386667D02*
X-36665420Y43434286D01*
X-36665420Y43434286D02*
X-36760658Y43481905D01*
X-36760658Y43481905D02*
X-36951134Y43529524D01*
X-36951134Y43529524D02*
X-37189229Y43529524D01*
X-37189229Y43529524D02*
X-37379705Y43481905D01*
X-37379705Y43481905D02*
X-37474943Y43434286D01*
X-37474943Y43434286D02*
X-37522562Y43386667D01*
X-37522562Y43386667D02*
X-37570181Y43291429D01*
X-41773096Y43275181D02*
X-41773096Y42465658D01*
X-41773096Y42465658D02*
X-41820715Y42370420D01*
X-41820715Y42370420D02*
X-41868334Y42322800D01*
X-41868334Y42322800D02*
X-41963572Y42275181D01*
X-41963572Y42275181D02*
X-42154048Y42275181D01*
X-42154048Y42275181D02*
X-42249286Y42322800D01*
X-42249286Y42322800D02*
X-42296905Y42370420D01*
X-42296905Y42370420D02*
X-42344524Y42465658D01*
X-42344524Y42465658D02*
X-42344524Y43275181D01*
X-43296905Y43275181D02*
X-42820715Y43275181D01*
X-42820715Y43275181D02*
X-42773096Y42798991D01*
X-42773096Y42798991D02*
X-42820715Y42846610D01*
X-42820715Y42846610D02*
X-42915953Y42894229D01*
X-42915953Y42894229D02*
X-43154048Y42894229D01*
X-43154048Y42894229D02*
X-43249286Y42846610D01*
X-43249286Y42846610D02*
X-43296905Y42798991D01*
X-43296905Y42798991D02*
X-43344524Y42703753D01*
X-43344524Y42703753D02*
X-43344524Y42465658D01*
X-43344524Y42465658D02*
X-43296905Y42370420D01*
X-43296905Y42370420D02*
X-43249286Y42322800D01*
X-43249286Y42322800D02*
X-43154048Y42275181D01*
X-43154048Y42275181D02*
X-42915953Y42275181D01*
X-42915953Y42275181D02*
X-42820715Y42322800D01*
X-42820715Y42322800D02*
X-42773096Y42370420D01*
D12*
X-36381667Y54850191D02*
X-36215001Y55088286D01*
X-36095953Y54850191D02*
X-36095953Y55350191D01*
X-36095953Y55350191D02*
X-36286429Y55350191D01*
X-36286429Y55350191D02*
X-36334048Y55326381D01*
X-36334048Y55326381D02*
X-36357858Y55302572D01*
X-36357858Y55302572D02*
X-36381667Y55254953D01*
X-36381667Y55254953D02*
X-36381667Y55183524D01*
X-36381667Y55183524D02*
X-36357858Y55135905D01*
X-36357858Y55135905D02*
X-36334048Y55112096D01*
X-36334048Y55112096D02*
X-36286429Y55088286D01*
X-36286429Y55088286D02*
X-36095953Y55088286D01*
X-36810239Y55350191D02*
X-36715001Y55350191D01*
X-36715001Y55350191D02*
X-36667382Y55326381D01*
X-36667382Y55326381D02*
X-36643572Y55302572D01*
X-36643572Y55302572D02*
X-36595953Y55231143D01*
X-36595953Y55231143D02*
X-36572144Y55135905D01*
X-36572144Y55135905D02*
X-36572144Y54945429D01*
X-36572144Y54945429D02*
X-36595953Y54897810D01*
X-36595953Y54897810D02*
X-36619763Y54874000D01*
X-36619763Y54874000D02*
X-36667382Y54850191D01*
X-36667382Y54850191D02*
X-36762620Y54850191D01*
X-36762620Y54850191D02*
X-36810239Y54874000D01*
X-36810239Y54874000D02*
X-36834048Y54897810D01*
X-36834048Y54897810D02*
X-36857858Y54945429D01*
X-36857858Y54945429D02*
X-36857858Y55064477D01*
X-36857858Y55064477D02*
X-36834048Y55112096D01*
X-36834048Y55112096D02*
X-36810239Y55135905D01*
X-36810239Y55135905D02*
X-36762620Y55159715D01*
X-36762620Y55159715D02*
X-36667382Y55159715D01*
X-36667382Y55159715D02*
X-36619763Y55135905D01*
X-36619763Y55135905D02*
X-36595953Y55112096D01*
X-36595953Y55112096D02*
X-36572144Y55064477D01*
D11*
X-44742143Y41050420D02*
X-44694524Y41002800D01*
X-44694524Y41002800D02*
X-44551667Y40955181D01*
X-44551667Y40955181D02*
X-44456429Y40955181D01*
X-44456429Y40955181D02*
X-44313572Y41002800D01*
X-44313572Y41002800D02*
X-44218334Y41098039D01*
X-44218334Y41098039D02*
X-44170715Y41193277D01*
X-44170715Y41193277D02*
X-44123096Y41383753D01*
X-44123096Y41383753D02*
X-44123096Y41526610D01*
X-44123096Y41526610D02*
X-44170715Y41717086D01*
X-44170715Y41717086D02*
X-44218334Y41812324D01*
X-44218334Y41812324D02*
X-44313572Y41907562D01*
X-44313572Y41907562D02*
X-44456429Y41955181D01*
X-44456429Y41955181D02*
X-44551667Y41955181D01*
X-44551667Y41955181D02*
X-44694524Y41907562D01*
X-44694524Y41907562D02*
X-44742143Y41859943D01*
X-45694524Y40955181D02*
X-45123096Y40955181D01*
X-45408810Y40955181D02*
X-45408810Y41955181D01*
X-45408810Y41955181D02*
X-45313572Y41812324D01*
X-45313572Y41812324D02*
X-45218334Y41717086D01*
X-45218334Y41717086D02*
X-45123096Y41669467D01*
X-46170715Y40955181D02*
X-46361191Y40955181D01*
X-46361191Y40955181D02*
X-46456429Y41002800D01*
X-46456429Y41002800D02*
X-46504048Y41050420D01*
X-46504048Y41050420D02*
X-46599286Y41193277D01*
X-46599286Y41193277D02*
X-46646905Y41383753D01*
X-46646905Y41383753D02*
X-46646905Y41764705D01*
X-46646905Y41764705D02*
X-46599286Y41859943D01*
X-46599286Y41859943D02*
X-46551667Y41907562D01*
X-46551667Y41907562D02*
X-46456429Y41955181D01*
X-46456429Y41955181D02*
X-46265953Y41955181D01*
X-46265953Y41955181D02*
X-46170715Y41907562D01*
X-46170715Y41907562D02*
X-46123096Y41859943D01*
X-46123096Y41859943D02*
X-46075477Y41764705D01*
X-46075477Y41764705D02*
X-46075477Y41526610D01*
X-46075477Y41526610D02*
X-46123096Y41431372D01*
X-46123096Y41431372D02*
X-46170715Y41383753D01*
X-46170715Y41383753D02*
X-46265953Y41336134D01*
X-46265953Y41336134D02*
X-46456429Y41336134D01*
X-46456429Y41336134D02*
X-46551667Y41383753D01*
X-46551667Y41383753D02*
X-46599286Y41431372D01*
X-46599286Y41431372D02*
X-46646905Y41526610D01*
X-38076905Y21709820D02*
X-38076905Y22519343D01*
X-38076905Y22519343D02*
X-38029286Y22614581D01*
X-38029286Y22614581D02*
X-37981667Y22662200D01*
X-37981667Y22662200D02*
X-37886429Y22709820D01*
X-37886429Y22709820D02*
X-37695953Y22709820D01*
X-37695953Y22709820D02*
X-37600715Y22662200D01*
X-37600715Y22662200D02*
X-37553096Y22614581D01*
X-37553096Y22614581D02*
X-37505477Y22519343D01*
X-37505477Y22519343D02*
X-37505477Y21709820D01*
X-37124524Y21709820D02*
X-36457858Y21709820D01*
X-36457858Y21709820D02*
X-36886429Y22709820D01*
X-38875001Y23669181D02*
X-38875001Y23431086D01*
X-38636906Y23526324D02*
X-38875001Y23431086D01*
X-38875001Y23431086D02*
X-39113096Y23526324D01*
X-38732144Y23240610D02*
X-38875001Y23431086D01*
X-38875001Y23431086D02*
X-39017858Y23240610D01*
X-38875000Y22578820D02*
X-38875000Y22816915D01*
X-39113095Y22721677D02*
X-38875000Y22816915D01*
X-38875000Y22816915D02*
X-38636905Y22721677D01*
X-39017857Y23007391D02*
X-38875000Y22816915D01*
X-38875000Y22816915D02*
X-38732143Y23007391D01*
D13*
%TO.C,J4*%
X-34096000Y54448000D02*
X-34096000Y16288000D01*
X-31436000Y57048000D02*
X-32766000Y57048000D01*
X-31436000Y55718000D02*
X-31436000Y57048000D01*
X-31436000Y54448000D02*
X-34096000Y54448000D01*
X-31436000Y54448000D02*
X-31436000Y16288000D01*
X-31436000Y16288000D02*
X-34096000Y16288000D01*
%TO.C,R7*%
X-44965000Y52787836D02*
X-44965000Y52572164D01*
X-44245000Y52787836D02*
X-44245000Y52572164D01*
%TO.C,C22*%
X-36032836Y40670000D02*
X-35817164Y40670000D01*
X-36032836Y39950000D02*
X-35817164Y39950000D01*
%TO.C,C21*%
X-38522836Y22570000D02*
X-38307164Y22570000D01*
X-38522836Y21850000D02*
X-38307164Y21850000D01*
%TO.C,U6*%
X-42515000Y51285000D02*
X-44715000Y51285000D01*
X-42515000Y51285000D02*
X-40315000Y51285000D01*
X-42515000Y43215000D02*
X-46115000Y43215000D01*
X-42515000Y43215000D02*
X-40315000Y43215000D01*
%TO.C,U8*%
X-37895000Y38255000D02*
X-37895000Y37480000D01*
X-37895000Y36705000D02*
X-37895000Y37480000D01*
X-34775000Y38255000D02*
X-34775000Y37480000D01*
X-34775000Y36705000D02*
X-34775000Y37480000D01*
X-34495000Y35877500D02*
X-34825000Y36117500D01*
X-34495000Y36357500D01*
X-34495000Y35877500D01*
G36*
X-34495000Y35877500D02*
G01*
X-34825000Y36117500D01*
X-34495000Y36357500D01*
X-34495000Y35877500D01*
G37*
%TO.C,C20*%
X-38545000Y44112164D02*
X-38545000Y44327836D01*
X-37825000Y44112164D02*
X-37825000Y44327836D01*
%TO.C,J3*%
X-49535000Y54479000D02*
X-49535000Y16319000D01*
X-46875000Y57079000D02*
X-48205000Y57079000D01*
X-46875000Y55749000D02*
X-46875000Y57079000D01*
X-46875000Y54479000D02*
X-49535000Y54479000D01*
X-46875000Y54479000D02*
X-46875000Y16319000D01*
X-46875000Y16319000D02*
X-49535000Y16319000D01*
%TO.C,U5*%
X-42535000Y41915000D02*
X-44735000Y41915000D01*
X-42535000Y41915000D02*
X-38935000Y41915000D01*
X-42535000Y33845000D02*
X-44735000Y33845000D01*
X-42535000Y33845000D02*
X-40335000Y33845000D01*
%TO.C,R6*%
X-36765000Y56292164D02*
X-36765000Y56507836D01*
X-36045000Y56292164D02*
X-36045000Y56507836D01*
%TO.C,C19*%
X-45492836Y42930000D02*
X-45277164Y42930000D01*
X-45492836Y42210000D02*
X-45277164Y42210000D01*
D14*
%TO.C,U7*%
X-38344000Y23226000D02*
X-37675935Y23226000D01*
X-37675935Y25284000D02*
X-38344000Y25284000D01*
X-36954065Y23226000D02*
X-36286000Y23226000D01*
X-36286000Y25284000D02*
X-36954065Y25284000D01*
%TD*%
%LPC*%
D15*
%TO.C,U7*%
G36*
X-37610001Y24554999D02*
G01*
X-38289999Y24554999D01*
X-38289999Y24955001D01*
X-37610001Y24955001D01*
X-37610001Y24554999D01*
G37*
G36*
X-37610001Y24055000D02*
G01*
X-38289999Y24055000D01*
X-38289999Y24455000D01*
X-37610001Y24455000D01*
X-37610001Y24055000D01*
G37*
G36*
X-37610001Y23554999D02*
G01*
X-38289999Y23554999D01*
X-38289999Y23955001D01*
X-37610001Y23955001D01*
X-37610001Y23554999D01*
G37*
G36*
X-37115000Y24350001D02*
G01*
X-37515000Y24350001D01*
X-37515000Y25030000D01*
X-37115000Y25030000D01*
X-37115000Y24350001D01*
G37*
G36*
X-37115000Y23480000D02*
G01*
X-37515000Y23480000D01*
X-37515000Y24159999D01*
X-37115000Y24159999D01*
X-37115000Y23480000D01*
G37*
G36*
X-36340001Y24554999D02*
G01*
X-37019999Y24554999D01*
X-37019999Y24955001D01*
X-36340001Y24955001D01*
X-36340001Y24554999D01*
G37*
G36*
X-36340001Y24055000D02*
G01*
X-37019999Y24055000D01*
X-37019999Y24455000D01*
X-36340001Y24455000D01*
X-36340001Y24055000D01*
G37*
G36*
X-36340001Y23554999D02*
G01*
X-37019999Y23554999D01*
X-37019999Y23955001D01*
X-36340001Y23955001D01*
X-36340001Y23554999D01*
G37*
%TD*%
D16*
%TO.C,J1*%
X-36755000Y54600000D03*
D17*
X-44255000Y54600000D03*
D18*
X-38105000Y52450000D03*
X-38105000Y56750000D03*
X-42905000Y52450000D03*
X-42905000Y56750000D03*
%TD*%
D19*
%TO.C,J2*%
X-36425000Y43990000D03*
D20*
X-36425000Y46530000D03*
X-36425000Y49070000D03*
%TD*%
D21*
%TO.C,J4*%
X-32766000Y55718000D03*
D20*
X-32766000Y53178000D03*
X-32766000Y50638000D03*
X-32766000Y48098000D03*
X-32766000Y45558000D03*
X-32766000Y43018000D03*
X-32766000Y40478000D03*
X-32766000Y37938000D03*
X-32766000Y35398000D03*
X-32766000Y32858000D03*
X-32766000Y30318000D03*
X-32766000Y27778000D03*
X-32766000Y25238000D03*
X-32766000Y22698000D03*
X-32766000Y20158000D03*
X-32766000Y17618000D03*
%TD*%
D22*
%TO.C,R7*%
X-44605000Y52200000D03*
X-44605000Y53160000D03*
%TD*%
D23*
%TO.C,C22*%
X-35445000Y40310000D03*
X-36405000Y40310000D03*
%TD*%
%TO.C,C21*%
X-37935000Y22210000D03*
X-38895000Y22210000D03*
%TD*%
D24*
%TO.C,U6*%
X-45377500Y43675000D03*
X-45377500Y44325000D03*
X-45377500Y44975000D03*
X-45377500Y45625000D03*
X-45377500Y46275000D03*
X-45377500Y46925000D03*
X-45377500Y47575000D03*
X-45377500Y48225000D03*
X-45377500Y48875000D03*
X-45377500Y49525000D03*
X-45377500Y50175000D03*
X-45377500Y50825000D03*
X-39652500Y50825000D03*
X-39652500Y50175000D03*
X-39652500Y49525000D03*
X-39652500Y48875000D03*
X-39652500Y48225000D03*
X-39652500Y47575000D03*
X-39652500Y46925000D03*
X-39652500Y46275000D03*
X-39652500Y45625000D03*
X-39652500Y44975000D03*
X-39652500Y44325000D03*
X-39652500Y43675000D03*
%TD*%
D25*
%TO.C,U8*%
X-35385000Y36330000D03*
X-36335000Y36330000D03*
X-37285000Y36330000D03*
X-37285000Y38630000D03*
X-35385000Y38630000D03*
%TD*%
D22*
%TO.C,C20*%
X-38185000Y43740000D03*
X-38185000Y44700000D03*
%TD*%
D21*
%TO.C,J3*%
X-48205000Y55749000D03*
D20*
X-48205000Y53209000D03*
X-48205000Y50669000D03*
X-48205000Y48129000D03*
X-48205000Y45589000D03*
X-48205000Y43049000D03*
X-48205000Y40509000D03*
X-48205000Y37969000D03*
X-48205000Y35429000D03*
X-48205000Y32889000D03*
X-48205000Y30349000D03*
X-48205000Y27809000D03*
X-48205000Y25269000D03*
X-48205000Y22729000D03*
X-48205000Y20189000D03*
X-48205000Y17649000D03*
%TD*%
D26*
%TO.C,U5*%
X-39672500Y41455000D03*
X-39672500Y40805000D03*
X-39672500Y40155000D03*
X-39672500Y39505000D03*
X-39672500Y38855000D03*
X-39672500Y38205000D03*
X-39672500Y37555000D03*
X-39672500Y36905000D03*
X-39672500Y36255000D03*
X-39672500Y35605000D03*
X-39672500Y34955000D03*
X-39672500Y34305000D03*
X-45397500Y34305000D03*
X-45397500Y34955000D03*
X-45397500Y35605000D03*
X-45397500Y36255000D03*
X-45397500Y36905000D03*
X-45397500Y37555000D03*
X-45397500Y38205000D03*
X-45397500Y38855000D03*
X-45397500Y39505000D03*
X-45397500Y40155000D03*
X-45397500Y40805000D03*
X-45397500Y41455000D03*
%TD*%
D27*
%TO.C,R6*%
X-36405000Y56880000D03*
X-36405000Y55920000D03*
%TD*%
D28*
%TO.C,C19*%
X-45865000Y42570000D03*
X-44905000Y42570000D03*
%TD*%
D29*
%TO.C,U7*%
X-37950000Y23755001D03*
D30*
X-37950000Y24255000D03*
D29*
X-37950000Y24754999D03*
D31*
X-37315000Y24690000D03*
D29*
X-36680000Y24754999D03*
D30*
X-36680000Y24255000D03*
D29*
X-36680000Y23755001D03*
D31*
X-37315000Y23820000D03*
%TD*%
%LPD*%
M02*
