%TF.GenerationSoftware,KiCad,Pcbnew,7.0.5-0*%
%TF.CreationDate,2023-06-29T21:31:29-07:00*%
%TF.ProjectId,PicoROM,5069636f-524f-44d2-9e6b-696361645f70,REV1*%
%TF.SameCoordinates,Original*%
%TF.FileFunction,Legend,Top*%
%TF.FilePolarity,Positive*%
%FSLAX46Y46*%
G04 Gerber Fmt 4.6, Leading zero omitted, Abs format (unit mm)*
G04 Created by KiCad (PCBNEW 7.0.5-0) date 2023-06-29 21:31:29*
%MOMM*%
%LPD*%
G01*
G04 APERTURE LIST*
G04 Aperture macros list*
%AMRoundRect*
0 Rectangle with rounded corners*
0 $1 Rounding radius*
0 $2 $3 $4 $5 $6 $7 $8 $9 X,Y pos of 4 corners*
0 Add a 4 corners polygon primitive as box body*
4,1,4,$2,$3,$4,$5,$6,$7,$8,$9,$2,$3,0*
0 Add four circle primitives for the rounded corners*
1,1,$1+$1,$2,$3*
1,1,$1+$1,$4,$5*
1,1,$1+$1,$6,$7*
1,1,$1+$1,$8,$9*
0 Add four rect primitives between the rounded corners*
20,1,$1+$1,$2,$3,$4,$5,0*
20,1,$1+$1,$4,$5,$6,$7,0*
20,1,$1+$1,$6,$7,$8,$9,0*
20,1,$1+$1,$8,$9,$2,$3,0*%
G04 Aperture macros list end*
%ADD10C,0.100000*%
%ADD11C,0.125000*%
%ADD12C,0.150000*%
%ADD13C,0.300000*%
%ADD14C,0.120000*%
%ADD15RoundRect,0.191000X0.170000X-0.140000X0.170000X0.140000X-0.170000X0.140000X-0.170000X-0.140000X0*%
%ADD16RoundRect,0.191000X-0.170000X0.140000X-0.170000X-0.140000X0.170000X-0.140000X0.170000X0.140000X0*%
%ADD17RoundRect,0.051000X-1.200000X1.000000X-1.200000X-1.000000X1.200000X-1.000000X1.200000X1.000000X0*%
%ADD18RoundRect,0.101000X-0.387500X-0.050000X0.387500X-0.050000X0.387500X0.050000X-0.387500X0.050000X0*%
%ADD19RoundRect,0.101000X-0.050000X-0.387500X0.050000X-0.387500X0.050000X0.387500X-0.050000X0.387500X0*%
%ADD20RoundRect,0.195000X-1.456000X-1.456000X1.456000X-1.456000X1.456000X1.456000X-1.456000X1.456000X0*%
%ADD21RoundRect,0.201000X0.150000X-0.825000X0.150000X0.825000X-0.150000X0.825000X-0.150000X-0.825000X0*%
%ADD22C,0.762000*%
%ADD23O,0.682000X1.102000*%
%ADD24RoundRect,0.126000X-0.425000X0.075000X-0.425000X-0.075000X0.425000X-0.075000X0.425000X0.075000X0*%
%ADD25C,1.202000*%
%ADD26RoundRect,0.201000X-0.150000X0.512500X-0.150000X-0.512500X0.150000X-0.512500X0.150000X0.512500X0*%
%ADD27RoundRect,0.301000X0.250000X0.475000X-0.250000X0.475000X-0.250000X-0.475000X0.250000X-0.475000X0*%
%ADD28RoundRect,0.191000X0.140000X0.170000X-0.140000X0.170000X-0.140000X-0.170000X0.140000X-0.170000X0*%
%ADD29RoundRect,0.051000X0.500000X0.500000X-0.500000X0.500000X-0.500000X-0.500000X0.500000X-0.500000X0*%
%ADD30O,1.102000X1.102000*%
%ADD31RoundRect,0.113500X-0.350000X0.062500X-0.350000X-0.062500X0.350000X-0.062500X0.350000X0.062500X0*%
%ADD32RoundRect,0.113500X-0.062500X0.350000X-0.062500X-0.350000X0.062500X-0.350000X0.062500X0.350000X0*%
%ADD33RoundRect,0.051000X-1.500000X0.500000X-1.500000X-0.500000X1.500000X-0.500000X1.500000X0.500000X0*%
%ADD34C,1.802000*%
%ADD35O,1.802000X1.802000*%
G04 APERTURE END LIST*
D10*
X-46358105Y31555266D02*
X-47158105Y31555266D01*
X-47158105Y31555266D02*
X-46586677Y31821932D01*
X-46586677Y31821932D02*
X-47158105Y32088599D01*
X-47158105Y32088599D02*
X-46358105Y32088599D01*
X-46358105Y32812409D02*
X-46777153Y32812409D01*
X-46777153Y32812409D02*
X-46853343Y32774314D01*
X-46853343Y32774314D02*
X-46891439Y32698123D01*
X-46891439Y32698123D02*
X-46891439Y32545742D01*
X-46891439Y32545742D02*
X-46853343Y32469552D01*
X-46396200Y32812409D02*
X-46358105Y32736218D01*
X-46358105Y32736218D02*
X-46358105Y32545742D01*
X-46358105Y32545742D02*
X-46396200Y32469552D01*
X-46396200Y32469552D02*
X-46472391Y32431456D01*
X-46472391Y32431456D02*
X-46548581Y32431456D01*
X-46548581Y32431456D02*
X-46624772Y32469552D01*
X-46624772Y32469552D02*
X-46662867Y32545742D01*
X-46662867Y32545742D02*
X-46662867Y32736218D01*
X-46662867Y32736218D02*
X-46700962Y32812409D01*
X-46358105Y33193362D02*
X-46891439Y33193362D01*
X-46739058Y33193362D02*
X-46815248Y33231457D01*
X-46815248Y33231457D02*
X-46853343Y33269552D01*
X-46853343Y33269552D02*
X-46891439Y33345743D01*
X-46891439Y33345743D02*
X-46891439Y33421933D01*
X-46891439Y33574314D02*
X-46891439Y33879076D01*
X-47158105Y33688600D02*
X-46472391Y33688600D01*
X-46472391Y33688600D02*
X-46396200Y33726695D01*
X-46396200Y33726695D02*
X-46358105Y33802885D01*
X-46358105Y33802885D02*
X-46358105Y33879076D01*
X-46358105Y34145743D02*
X-46891439Y34145743D01*
X-47158105Y34145743D02*
X-47120010Y34107647D01*
X-47120010Y34107647D02*
X-47081915Y34145743D01*
X-47081915Y34145743D02*
X-47120010Y34183838D01*
X-47120010Y34183838D02*
X-47158105Y34145743D01*
X-47158105Y34145743D02*
X-47081915Y34145743D01*
X-46891439Y34526695D02*
X-46358105Y34526695D01*
X-46815248Y34526695D02*
X-46853343Y34564790D01*
X-46853343Y34564790D02*
X-46891439Y34640980D01*
X-46891439Y34640980D02*
X-46891439Y34755266D01*
X-46891439Y34755266D02*
X-46853343Y34831457D01*
X-46853343Y34831457D02*
X-46777153Y34869552D01*
X-46777153Y34869552D02*
X-46358105Y34869552D01*
X-46358105Y35860029D02*
X-47158105Y35860029D01*
X-47158105Y35860029D02*
X-47158105Y36050505D01*
X-47158105Y36050505D02*
X-47120010Y36164791D01*
X-47120010Y36164791D02*
X-47043820Y36240981D01*
X-47043820Y36240981D02*
X-46967629Y36279076D01*
X-46967629Y36279076D02*
X-46815248Y36317172D01*
X-46815248Y36317172D02*
X-46700962Y36317172D01*
X-46700962Y36317172D02*
X-46548581Y36279076D01*
X-46548581Y36279076D02*
X-46472391Y36240981D01*
X-46472391Y36240981D02*
X-46396200Y36164791D01*
X-46396200Y36164791D02*
X-46358105Y36050505D01*
X-46358105Y36050505D02*
X-46358105Y35860029D01*
X-46358105Y36774314D02*
X-46396200Y36698124D01*
X-46396200Y36698124D02*
X-46434296Y36660029D01*
X-46434296Y36660029D02*
X-46510486Y36621933D01*
X-46510486Y36621933D02*
X-46739058Y36621933D01*
X-46739058Y36621933D02*
X-46815248Y36660029D01*
X-46815248Y36660029D02*
X-46853343Y36698124D01*
X-46853343Y36698124D02*
X-46891439Y36774314D01*
X-46891439Y36774314D02*
X-46891439Y36888600D01*
X-46891439Y36888600D02*
X-46853343Y36964791D01*
X-46853343Y36964791D02*
X-46815248Y37002886D01*
X-46815248Y37002886D02*
X-46739058Y37040981D01*
X-46739058Y37040981D02*
X-46510486Y37040981D01*
X-46510486Y37040981D02*
X-46434296Y37002886D01*
X-46434296Y37002886D02*
X-46396200Y36964791D01*
X-46396200Y36964791D02*
X-46358105Y36888600D01*
X-46358105Y36888600D02*
X-46358105Y36774314D01*
X-46891439Y37383839D02*
X-46358105Y37383839D01*
X-46815248Y37383839D02*
X-46853343Y37421934D01*
X-46853343Y37421934D02*
X-46891439Y37498124D01*
X-46891439Y37498124D02*
X-46891439Y37612410D01*
X-46891439Y37612410D02*
X-46853343Y37688601D01*
X-46853343Y37688601D02*
X-46777153Y37726696D01*
X-46777153Y37726696D02*
X-46358105Y37726696D01*
X-46358105Y38221934D02*
X-46396200Y38145744D01*
X-46396200Y38145744D02*
X-46472391Y38107649D01*
X-46472391Y38107649D02*
X-47158105Y38107649D01*
X-46358105Y38640982D02*
X-46396200Y38564792D01*
X-46396200Y38564792D02*
X-46434296Y38526697D01*
X-46434296Y38526697D02*
X-46510486Y38488601D01*
X-46510486Y38488601D02*
X-46739058Y38488601D01*
X-46739058Y38488601D02*
X-46815248Y38526697D01*
X-46815248Y38526697D02*
X-46853343Y38564792D01*
X-46853343Y38564792D02*
X-46891439Y38640982D01*
X-46891439Y38640982D02*
X-46891439Y38755268D01*
X-46891439Y38755268D02*
X-46853343Y38831459D01*
X-46853343Y38831459D02*
X-46815248Y38869554D01*
X-46815248Y38869554D02*
X-46739058Y38907649D01*
X-46739058Y38907649D02*
X-46510486Y38907649D01*
X-46510486Y38907649D02*
X-46434296Y38869554D01*
X-46434296Y38869554D02*
X-46396200Y38831459D01*
X-46396200Y38831459D02*
X-46358105Y38755268D01*
X-46358105Y38755268D02*
X-46358105Y38640982D01*
X-46891439Y39250507D02*
X-46358105Y39250507D01*
X-46815248Y39250507D02*
X-46853343Y39288602D01*
X-46853343Y39288602D02*
X-46891439Y39364792D01*
X-46891439Y39364792D02*
X-46891439Y39479078D01*
X-46891439Y39479078D02*
X-46853343Y39555269D01*
X-46853343Y39555269D02*
X-46777153Y39593364D01*
X-46777153Y39593364D02*
X-46358105Y39593364D01*
X-46739058Y41079079D02*
X-46777153Y41040984D01*
X-46777153Y41040984D02*
X-46815248Y40964793D01*
X-46815248Y40964793D02*
X-46815248Y40888603D01*
X-46815248Y40888603D02*
X-46777153Y40812412D01*
X-46777153Y40812412D02*
X-46739058Y40774317D01*
X-46739058Y40774317D02*
X-46662867Y40736222D01*
X-46662867Y40736222D02*
X-46586677Y40736222D01*
X-46586677Y40736222D02*
X-46510486Y40774317D01*
X-46510486Y40774317D02*
X-46472391Y40812412D01*
X-46472391Y40812412D02*
X-46434296Y40888603D01*
X-46434296Y40888603D02*
X-46434296Y40964793D01*
X-46434296Y40964793D02*
X-46472391Y41040984D01*
X-46472391Y41040984D02*
X-46510486Y41079079D01*
X-46815248Y41079079D02*
X-46510486Y41079079D01*
X-46510486Y41079079D02*
X-46472391Y41117174D01*
X-46472391Y41117174D02*
X-46472391Y41155269D01*
X-46472391Y41155269D02*
X-46510486Y41231460D01*
X-46510486Y41231460D02*
X-46586677Y41269555D01*
X-46586677Y41269555D02*
X-46777153Y41269555D01*
X-46777153Y41269555D02*
X-46891439Y41193364D01*
X-46891439Y41193364D02*
X-46967629Y41079079D01*
X-46967629Y41079079D02*
X-47005724Y40926698D01*
X-47005724Y40926698D02*
X-46967629Y40774317D01*
X-46967629Y40774317D02*
X-46891439Y40660031D01*
X-46891439Y40660031D02*
X-46777153Y40583841D01*
X-46777153Y40583841D02*
X-46624772Y40545745D01*
X-46624772Y40545745D02*
X-46472391Y40583841D01*
X-46472391Y40583841D02*
X-46358105Y40660031D01*
X-46358105Y40660031D02*
X-46281915Y40774317D01*
X-46281915Y40774317D02*
X-46243820Y40926698D01*
X-46243820Y40926698D02*
X-46281915Y41079079D01*
X-46281915Y41079079D02*
X-46358105Y41193364D01*
X-46891439Y41536221D02*
X-46358105Y41688602D01*
X-46358105Y41688602D02*
X-46739058Y41840983D01*
X-46739058Y41840983D02*
X-46358105Y41993364D01*
X-46358105Y41993364D02*
X-46891439Y42145745D01*
X-46358105Y42450507D02*
X-46891439Y42450507D01*
X-47158105Y42450507D02*
X-47120010Y42412411D01*
X-47120010Y42412411D02*
X-47081915Y42450507D01*
X-47081915Y42450507D02*
X-47120010Y42488602D01*
X-47120010Y42488602D02*
X-47158105Y42450507D01*
X-47158105Y42450507D02*
X-47081915Y42450507D01*
X-46396200Y43174316D02*
X-46358105Y43098125D01*
X-46358105Y43098125D02*
X-46358105Y42945744D01*
X-46358105Y42945744D02*
X-46396200Y42869554D01*
X-46396200Y42869554D02*
X-46434296Y42831459D01*
X-46434296Y42831459D02*
X-46510486Y42793363D01*
X-46510486Y42793363D02*
X-46739058Y42793363D01*
X-46739058Y42793363D02*
X-46815248Y42831459D01*
X-46815248Y42831459D02*
X-46853343Y42869554D01*
X-46853343Y42869554D02*
X-46891439Y42945744D01*
X-46891439Y42945744D02*
X-46891439Y43098125D01*
X-46891439Y43098125D02*
X-46853343Y43174316D01*
X-46358105Y43517173D02*
X-47158105Y43517173D01*
X-46662867Y43593363D02*
X-46358105Y43821935D01*
X-46891439Y43821935D02*
X-46586677Y43517173D01*
X-46396200Y44469554D02*
X-46358105Y44393363D01*
X-46358105Y44393363D02*
X-46358105Y44240982D01*
X-46358105Y44240982D02*
X-46396200Y44164792D01*
X-46396200Y44164792D02*
X-46472391Y44126696D01*
X-46472391Y44126696D02*
X-46777153Y44126696D01*
X-46777153Y44126696D02*
X-46853343Y44164792D01*
X-46853343Y44164792D02*
X-46891439Y44240982D01*
X-46891439Y44240982D02*
X-46891439Y44393363D01*
X-46891439Y44393363D02*
X-46853343Y44469554D01*
X-46853343Y44469554D02*
X-46777153Y44507649D01*
X-46777153Y44507649D02*
X-46700962Y44507649D01*
X-46700962Y44507649D02*
X-46624772Y44126696D01*
X-46358105Y44850506D02*
X-46891439Y44850506D01*
X-46739058Y44850506D02*
X-46815248Y44888601D01*
X-46815248Y44888601D02*
X-46853343Y44926696D01*
X-46853343Y44926696D02*
X-46891439Y45002887D01*
X-46891439Y45002887D02*
X-46891439Y45079077D01*
X-46891439Y45269553D02*
X-46358105Y45421934D01*
X-46358105Y45421934D02*
X-46739058Y45574315D01*
X-46739058Y45574315D02*
X-46358105Y45726696D01*
X-46358105Y45726696D02*
X-46891439Y45879077D01*
X-46358105Y46526696D02*
X-46777153Y46526696D01*
X-46777153Y46526696D02*
X-46853343Y46488601D01*
X-46853343Y46488601D02*
X-46891439Y46412410D01*
X-46891439Y46412410D02*
X-46891439Y46260029D01*
X-46891439Y46260029D02*
X-46853343Y46183839D01*
X-46396200Y46526696D02*
X-46358105Y46450505D01*
X-46358105Y46450505D02*
X-46358105Y46260029D01*
X-46358105Y46260029D02*
X-46396200Y46183839D01*
X-46396200Y46183839D02*
X-46472391Y46145743D01*
X-46472391Y46145743D02*
X-46548581Y46145743D01*
X-46548581Y46145743D02*
X-46624772Y46183839D01*
X-46624772Y46183839D02*
X-46662867Y46260029D01*
X-46662867Y46260029D02*
X-46662867Y46450505D01*
X-46662867Y46450505D02*
X-46700962Y46526696D01*
X-46358105Y46907649D02*
X-47158105Y46907649D01*
X-46662867Y46983839D02*
X-46358105Y47212411D01*
X-46891439Y47212411D02*
X-46586677Y46907649D01*
X-46358105Y47898125D02*
X-46777153Y47898125D01*
X-46777153Y47898125D02*
X-46853343Y47860030D01*
X-46853343Y47860030D02*
X-46891439Y47783839D01*
X-46891439Y47783839D02*
X-46891439Y47631458D01*
X-46891439Y47631458D02*
X-46853343Y47555268D01*
X-46396200Y47898125D02*
X-46358105Y47821934D01*
X-46358105Y47821934D02*
X-46358105Y47631458D01*
X-46358105Y47631458D02*
X-46396200Y47555268D01*
X-46396200Y47555268D02*
X-46472391Y47517172D01*
X-46472391Y47517172D02*
X-46548581Y47517172D01*
X-46548581Y47517172D02*
X-46624772Y47555268D01*
X-46624772Y47555268D02*
X-46662867Y47631458D01*
X-46662867Y47631458D02*
X-46662867Y47821934D01*
X-46662867Y47821934D02*
X-46700962Y47898125D01*
D11*
X-31807731Y56761106D02*
X-31976089Y56592747D01*
X-31976089Y56592747D02*
X-31824566Y56407553D01*
X-31824566Y56407553D02*
X-31824566Y56441224D01*
X-31824566Y56441224D02*
X-31807731Y56491732D01*
X-31807731Y56491732D02*
X-31723551Y56575911D01*
X-31723551Y56575911D02*
X-31673044Y56592747D01*
X-31673044Y56592747D02*
X-31639372Y56592747D01*
X-31639372Y56592747D02*
X-31588864Y56575911D01*
X-31588864Y56575911D02*
X-31504685Y56491732D01*
X-31504685Y56491732D02*
X-31487849Y56441224D01*
X-31487849Y56441224D02*
X-31487849Y56407553D01*
X-31487849Y56407553D02*
X-31504685Y56357045D01*
X-31504685Y56357045D02*
X-31588864Y56272866D01*
X-31588864Y56272866D02*
X-31639372Y56256030D01*
X-31639372Y56256030D02*
X-31673044Y56256030D01*
X-31689880Y56878957D02*
X-31218475Y56643255D01*
X-31218475Y56643255D02*
X-31454177Y57114659D01*
D12*
X-34667031Y19884658D02*
X-34524174Y19741800D01*
X-34524174Y19741800D02*
X-34667031Y19598943D01*
X-34667031Y19598943D02*
X-34809888Y19741800D01*
X-34809888Y19741800D02*
X-34667031Y19884658D01*
X-34667031Y19884658D02*
X-34667031Y19598943D01*
D13*
X-33911458Y39998083D02*
X-35111458Y39998083D01*
X-35111458Y39998083D02*
X-35111458Y40455226D01*
X-35111458Y40455226D02*
X-35054315Y40569511D01*
X-35054315Y40569511D02*
X-34997172Y40626654D01*
X-34997172Y40626654D02*
X-34882886Y40683797D01*
X-34882886Y40683797D02*
X-34711458Y40683797D01*
X-34711458Y40683797D02*
X-34597172Y40626654D01*
X-34597172Y40626654D02*
X-34540029Y40569511D01*
X-34540029Y40569511D02*
X-34482886Y40455226D01*
X-34482886Y40455226D02*
X-34482886Y39998083D01*
X-33911458Y41198083D02*
X-34711458Y41198083D01*
X-35111458Y41198083D02*
X-35054315Y41140940D01*
X-35054315Y41140940D02*
X-34997172Y41198083D01*
X-34997172Y41198083D02*
X-35054315Y41255226D01*
X-35054315Y41255226D02*
X-35111458Y41198083D01*
X-35111458Y41198083D02*
X-34997172Y41198083D01*
X-33968600Y42283797D02*
X-33911458Y42169512D01*
X-33911458Y42169512D02*
X-33911458Y41940940D01*
X-33911458Y41940940D02*
X-33968600Y41826655D01*
X-33968600Y41826655D02*
X-34025743Y41769512D01*
X-34025743Y41769512D02*
X-34140029Y41712369D01*
X-34140029Y41712369D02*
X-34482886Y41712369D01*
X-34482886Y41712369D02*
X-34597172Y41769512D01*
X-34597172Y41769512D02*
X-34654315Y41826655D01*
X-34654315Y41826655D02*
X-34711458Y41940940D01*
X-34711458Y41940940D02*
X-34711458Y42169512D01*
X-34711458Y42169512D02*
X-34654315Y42283797D01*
X-33911458Y42969511D02*
X-33968600Y42855226D01*
X-33968600Y42855226D02*
X-34025743Y42798083D01*
X-34025743Y42798083D02*
X-34140029Y42740940D01*
X-34140029Y42740940D02*
X-34482886Y42740940D01*
X-34482886Y42740940D02*
X-34597172Y42798083D01*
X-34597172Y42798083D02*
X-34654315Y42855226D01*
X-34654315Y42855226D02*
X-34711458Y42969511D01*
X-34711458Y42969511D02*
X-34711458Y43140940D01*
X-34711458Y43140940D02*
X-34654315Y43255226D01*
X-34654315Y43255226D02*
X-34597172Y43312368D01*
X-34597172Y43312368D02*
X-34482886Y43369511D01*
X-34482886Y43369511D02*
X-34140029Y43369511D01*
X-34140029Y43369511D02*
X-34025743Y43312368D01*
X-34025743Y43312368D02*
X-33968600Y43255226D01*
X-33968600Y43255226D02*
X-33911458Y43140940D01*
X-33911458Y43140940D02*
X-33911458Y42969511D01*
X-33911458Y45483797D02*
X-34482886Y45083797D01*
X-33911458Y44798083D02*
X-35111458Y44798083D01*
X-35111458Y44798083D02*
X-35111458Y45255226D01*
X-35111458Y45255226D02*
X-35054315Y45369511D01*
X-35054315Y45369511D02*
X-34997172Y45426654D01*
X-34997172Y45426654D02*
X-34882886Y45483797D01*
X-34882886Y45483797D02*
X-34711458Y45483797D01*
X-34711458Y45483797D02*
X-34597172Y45426654D01*
X-34597172Y45426654D02*
X-34540029Y45369511D01*
X-34540029Y45369511D02*
X-34482886Y45255226D01*
X-34482886Y45255226D02*
X-34482886Y44798083D01*
X-35111458Y46226654D02*
X-35111458Y46455226D01*
X-35111458Y46455226D02*
X-35054315Y46569511D01*
X-35054315Y46569511D02*
X-34940029Y46683797D01*
X-34940029Y46683797D02*
X-34711458Y46740940D01*
X-34711458Y46740940D02*
X-34311458Y46740940D01*
X-34311458Y46740940D02*
X-34082886Y46683797D01*
X-34082886Y46683797D02*
X-33968600Y46569511D01*
X-33968600Y46569511D02*
X-33911458Y46455226D01*
X-33911458Y46455226D02*
X-33911458Y46226654D01*
X-33911458Y46226654D02*
X-33968600Y46112368D01*
X-33968600Y46112368D02*
X-34082886Y45998083D01*
X-34082886Y45998083D02*
X-34311458Y45940940D01*
X-34311458Y45940940D02*
X-34711458Y45940940D01*
X-34711458Y45940940D02*
X-34940029Y45998083D01*
X-34940029Y45998083D02*
X-35054315Y46112368D01*
X-35054315Y46112368D02*
X-35111458Y46226654D01*
X-33911458Y47255226D02*
X-35111458Y47255226D01*
X-35111458Y47255226D02*
X-34254315Y47655226D01*
X-34254315Y47655226D02*
X-35111458Y48055226D01*
X-35111458Y48055226D02*
X-33911458Y48055226D01*
D11*
X-31740387Y46139373D02*
X-31572028Y46307732D01*
X-31673044Y46004686D02*
X-31908746Y46476091D01*
X-31908746Y46476091D02*
X-31437341Y46240389D01*
X-31134296Y46543434D02*
X-31336326Y46341403D01*
X-31235311Y46442419D02*
X-31588864Y46795972D01*
X-31588864Y46795972D02*
X-31572029Y46711793D01*
X-31572029Y46711793D02*
X-31572029Y46644449D01*
X-31572029Y46644449D02*
X-31588864Y46593942D01*
X-31369998Y47014838D02*
X-31151132Y47233705D01*
X-31151132Y47233705D02*
X-31134296Y46981166D01*
X-31134296Y46981166D02*
X-31083788Y47031674D01*
X-31083788Y47031674D02*
X-31033281Y47048510D01*
X-31033281Y47048510D02*
X-30999609Y47048510D01*
X-30999609Y47048510D02*
X-30949101Y47031674D01*
X-30949101Y47031674D02*
X-30864922Y46947495D01*
X-30864922Y46947495D02*
X-30848086Y46896987D01*
X-30848086Y46896987D02*
X-30848086Y46863315D01*
X-30848086Y46863315D02*
X-30864922Y46812808D01*
X-30864922Y46812808D02*
X-30965937Y46711792D01*
X-30965937Y46711792D02*
X-31016445Y46694957D01*
X-31016445Y46694957D02*
X-31050117Y46694957D01*
X-49724690Y46644449D02*
X-49556331Y46476090D01*
X-49859377Y46577105D02*
X-49387972Y46812808D01*
X-49387972Y46812808D02*
X-49623674Y46341403D01*
X-49185942Y46610777D02*
X-48950240Y46375075D01*
X-48950240Y46375075D02*
X-49455316Y46173045D01*
X-49859377Y21177106D02*
X-49505824Y21530659D01*
X-49505824Y21530659D02*
X-49421644Y21446480D01*
X-49421644Y21446480D02*
X-49387972Y21379136D01*
X-49387972Y21379136D02*
X-49387972Y21311793D01*
X-49387972Y21311793D02*
X-49404808Y21261285D01*
X-49404808Y21261285D02*
X-49455316Y21177106D01*
X-49455316Y21177106D02*
X-49505824Y21126598D01*
X-49505824Y21126598D02*
X-49590003Y21076090D01*
X-49590003Y21076090D02*
X-49640511Y21059255D01*
X-49640511Y21059255D02*
X-49707854Y21059255D01*
X-49707854Y21059255D02*
X-49775198Y21092926D01*
X-49775198Y21092926D02*
X-49859377Y21177106D01*
X-49202778Y21160270D02*
X-49169106Y21160270D01*
X-49169106Y21160270D02*
X-49118598Y21143434D01*
X-49118598Y21143434D02*
X-49034419Y21059255D01*
X-49034419Y21059255D02*
X-49017583Y21008747D01*
X-49017583Y21008747D02*
X-49017583Y20975075D01*
X-49017583Y20975075D02*
X-49034419Y20924568D01*
X-49034419Y20924568D02*
X-49068091Y20890896D01*
X-49068091Y20890896D02*
X-49135434Y20857224D01*
X-49135434Y20857224D02*
X-49539495Y20857224D01*
X-49539495Y20857224D02*
X-49320629Y20638358D01*
X-31740387Y53759373D02*
X-31572028Y53927732D01*
X-31673044Y53624686D02*
X-31908746Y54096091D01*
X-31908746Y54096091D02*
X-31437341Y53860389D01*
X-31134296Y54163434D02*
X-31336326Y53961403D01*
X-31235311Y54062419D02*
X-31588864Y54415972D01*
X-31588864Y54415972D02*
X-31572029Y54331793D01*
X-31572029Y54331793D02*
X-31572029Y54264449D01*
X-31572029Y54264449D02*
X-31588864Y54213942D01*
X-31134296Y54567495D02*
X-31184804Y54550659D01*
X-31184804Y54550659D02*
X-31218476Y54550659D01*
X-31218476Y54550659D02*
X-31268983Y54567495D01*
X-31268983Y54567495D02*
X-31285819Y54584331D01*
X-31285819Y54584331D02*
X-31302655Y54634838D01*
X-31302655Y54634838D02*
X-31302655Y54668510D01*
X-31302655Y54668510D02*
X-31285819Y54719018D01*
X-31285819Y54719018D02*
X-31218476Y54786361D01*
X-31218476Y54786361D02*
X-31167968Y54803197D01*
X-31167968Y54803197D02*
X-31134296Y54803197D01*
X-31134296Y54803197D02*
X-31083788Y54786361D01*
X-31083788Y54786361D02*
X-31066953Y54769525D01*
X-31066953Y54769525D02*
X-31050117Y54719018D01*
X-31050117Y54719018D02*
X-31050117Y54685346D01*
X-31050117Y54685346D02*
X-31066953Y54634838D01*
X-31066953Y54634838D02*
X-31134296Y54567495D01*
X-31134296Y54567495D02*
X-31151132Y54516987D01*
X-31151132Y54516987D02*
X-31151132Y54483315D01*
X-31151132Y54483315D02*
X-31134296Y54432808D01*
X-31134296Y54432808D02*
X-31066953Y54365464D01*
X-31066953Y54365464D02*
X-31016445Y54348628D01*
X-31016445Y54348628D02*
X-30982773Y54348628D01*
X-30982773Y54348628D02*
X-30932266Y54365464D01*
X-30932266Y54365464D02*
X-30864922Y54432808D01*
X-30864922Y54432808D02*
X-30848086Y54483315D01*
X-30848086Y54483315D02*
X-30848086Y54516987D01*
X-30848086Y54516987D02*
X-30864922Y54567495D01*
X-30864922Y54567495D02*
X-30932266Y54634838D01*
X-30932266Y54634838D02*
X-30982773Y54651674D01*
X-30982773Y54651674D02*
X-31016445Y54651674D01*
X-31016445Y54651674D02*
X-31066953Y54634838D01*
X-31622536Y20655194D02*
X-31976089Y21008747D01*
X-31976089Y21008747D02*
X-31891910Y21092927D01*
X-31891910Y21092927D02*
X-31824566Y21126598D01*
X-31824566Y21126598D02*
X-31757223Y21126598D01*
X-31757223Y21126598D02*
X-31706715Y21109763D01*
X-31706715Y21109763D02*
X-31622536Y21059255D01*
X-31622536Y21059255D02*
X-31572028Y21008747D01*
X-31572028Y21008747D02*
X-31521521Y20924568D01*
X-31521521Y20924568D02*
X-31504685Y20874060D01*
X-31504685Y20874060D02*
X-31504685Y20806717D01*
X-31504685Y20806717D02*
X-31538357Y20739373D01*
X-31538357Y20739373D02*
X-31622536Y20655194D01*
X-31353162Y21395972D02*
X-31117460Y21160270D01*
X-31572028Y21446480D02*
X-31403669Y21109763D01*
X-31403669Y21109763D02*
X-31184803Y21328629D01*
X-49724690Y36484449D02*
X-49556331Y36316090D01*
X-49859377Y36417105D02*
X-49387972Y36652808D01*
X-49387972Y36652808D02*
X-49623674Y36181403D01*
X-49185942Y36450777D02*
X-48967076Y36231911D01*
X-48967076Y36231911D02*
X-49219614Y36215075D01*
X-49219614Y36215075D02*
X-49169106Y36164568D01*
X-49169106Y36164568D02*
X-49152270Y36114060D01*
X-49152270Y36114060D02*
X-49152270Y36080388D01*
X-49152270Y36080388D02*
X-49169106Y36029881D01*
X-49169106Y36029881D02*
X-49253285Y35945701D01*
X-49253285Y35945701D02*
X-49303793Y35928865D01*
X-49303793Y35928865D02*
X-49337465Y35928865D01*
X-49337465Y35928865D02*
X-49387972Y35945701D01*
X-49387972Y35945701D02*
X-49488988Y36046716D01*
X-49488988Y36046716D02*
X-49505824Y36097224D01*
X-49505824Y36097224D02*
X-49505824Y36130896D01*
X-49724690Y39024449D02*
X-49556331Y38856090D01*
X-49859377Y38957105D02*
X-49387972Y39192808D01*
X-49387972Y39192808D02*
X-49623674Y38721403D01*
X-49118598Y38687732D02*
X-49354301Y38452029D01*
X-49068091Y38906598D02*
X-49404808Y38738239D01*
X-49404808Y38738239D02*
X-49185942Y38519373D01*
X-31622536Y25735194D02*
X-31976089Y26088747D01*
X-31976089Y26088747D02*
X-31891910Y26172927D01*
X-31891910Y26172927D02*
X-31824566Y26206598D01*
X-31824566Y26206598D02*
X-31757223Y26206598D01*
X-31757223Y26206598D02*
X-31706715Y26189763D01*
X-31706715Y26189763D02*
X-31622536Y26139255D01*
X-31622536Y26139255D02*
X-31572028Y26088747D01*
X-31572028Y26088747D02*
X-31521521Y26004568D01*
X-31521521Y26004568D02*
X-31504685Y25954060D01*
X-31504685Y25954060D02*
X-31504685Y25886717D01*
X-31504685Y25886717D02*
X-31538357Y25819373D01*
X-31538357Y25819373D02*
X-31622536Y25735194D01*
X-31471013Y26593824D02*
X-31538357Y26526480D01*
X-31538357Y26526480D02*
X-31555192Y26475972D01*
X-31555192Y26475972D02*
X-31555192Y26442301D01*
X-31555192Y26442301D02*
X-31538357Y26358121D01*
X-31538357Y26358121D02*
X-31487849Y26273942D01*
X-31487849Y26273942D02*
X-31353162Y26139255D01*
X-31353162Y26139255D02*
X-31302654Y26122419D01*
X-31302654Y26122419D02*
X-31268982Y26122419D01*
X-31268982Y26122419D02*
X-31218475Y26139255D01*
X-31218475Y26139255D02*
X-31151131Y26206598D01*
X-31151131Y26206598D02*
X-31134295Y26257106D01*
X-31134295Y26257106D02*
X-31134295Y26290778D01*
X-31134295Y26290778D02*
X-31151131Y26341285D01*
X-31151131Y26341285D02*
X-31235311Y26425465D01*
X-31235311Y26425465D02*
X-31285818Y26442301D01*
X-31285818Y26442301D02*
X-31319490Y26442301D01*
X-31319490Y26442301D02*
X-31369998Y26425465D01*
X-31369998Y26425465D02*
X-31437341Y26358121D01*
X-31437341Y26358121D02*
X-31454177Y26307614D01*
X-31454177Y26307614D02*
X-31454177Y26273942D01*
X-31454177Y26273942D02*
X-31437341Y26223434D01*
X-31740387Y41059373D02*
X-31572028Y41227732D01*
X-31673044Y40924686D02*
X-31908746Y41396091D01*
X-31908746Y41396091D02*
X-31437341Y41160389D01*
X-31302655Y41295075D02*
X-31235311Y41362419D01*
X-31235311Y41362419D02*
X-31218475Y41412926D01*
X-31218475Y41412926D02*
X-31218475Y41446598D01*
X-31218475Y41446598D02*
X-31235311Y41530778D01*
X-31235311Y41530778D02*
X-31285819Y41614957D01*
X-31285819Y41614957D02*
X-31420506Y41749644D01*
X-31420506Y41749644D02*
X-31471013Y41766480D01*
X-31471013Y41766480D02*
X-31504685Y41766480D01*
X-31504685Y41766480D02*
X-31555193Y41749644D01*
X-31555193Y41749644D02*
X-31622536Y41682300D01*
X-31622536Y41682300D02*
X-31639372Y41631793D01*
X-31639372Y41631793D02*
X-31639372Y41598121D01*
X-31639372Y41598121D02*
X-31622536Y41547613D01*
X-31622536Y41547613D02*
X-31538357Y41463434D01*
X-31538357Y41463434D02*
X-31487849Y41446598D01*
X-31487849Y41446598D02*
X-31454177Y41446598D01*
X-31454177Y41446598D02*
X-31403670Y41463434D01*
X-31403670Y41463434D02*
X-31336326Y41530778D01*
X-31336326Y41530778D02*
X-31319490Y41581285D01*
X-31319490Y41581285D02*
X-31319490Y41614957D01*
X-31319490Y41614957D02*
X-31336326Y41665465D01*
X-49859377Y26257106D02*
X-49505824Y26610659D01*
X-49505824Y26610659D02*
X-49421644Y26526480D01*
X-49421644Y26526480D02*
X-49387972Y26459136D01*
X-49387972Y26459136D02*
X-49387972Y26391793D01*
X-49387972Y26391793D02*
X-49404808Y26341285D01*
X-49404808Y26341285D02*
X-49455316Y26257106D01*
X-49455316Y26257106D02*
X-49505824Y26206598D01*
X-49505824Y26206598D02*
X-49590003Y26156090D01*
X-49590003Y26156090D02*
X-49640511Y26139255D01*
X-49640511Y26139255D02*
X-49707854Y26139255D01*
X-49707854Y26139255D02*
X-49775198Y26172926D01*
X-49775198Y26172926D02*
X-49859377Y26257106D01*
X-49084927Y26189762D02*
X-49051255Y26156090D01*
X-49051255Y26156090D02*
X-49034419Y26105583D01*
X-49034419Y26105583D02*
X-49034419Y26071911D01*
X-49034419Y26071911D02*
X-49051255Y26021403D01*
X-49051255Y26021403D02*
X-49101763Y25937224D01*
X-49101763Y25937224D02*
X-49185942Y25853045D01*
X-49185942Y25853045D02*
X-49270121Y25802537D01*
X-49270121Y25802537D02*
X-49320629Y25785701D01*
X-49320629Y25785701D02*
X-49354301Y25785701D01*
X-49354301Y25785701D02*
X-49404808Y25802537D01*
X-49404808Y25802537D02*
X-49438480Y25836209D01*
X-49438480Y25836209D02*
X-49455316Y25886716D01*
X-49455316Y25886716D02*
X-49455316Y25920388D01*
X-49455316Y25920388D02*
X-49438480Y25970896D01*
X-49438480Y25970896D02*
X-49387972Y26055075D01*
X-49387972Y26055075D02*
X-49303793Y26139255D01*
X-49303793Y26139255D02*
X-49219614Y26189762D01*
X-49219614Y26189762D02*
X-49169106Y26206598D01*
X-49169106Y26206598D02*
X-49135434Y26206598D01*
X-49135434Y26206598D02*
X-49084927Y26189762D01*
X-31622536Y18115194D02*
X-31976089Y18468747D01*
X-31976089Y18468747D02*
X-31891910Y18552927D01*
X-31891910Y18552927D02*
X-31824566Y18586598D01*
X-31824566Y18586598D02*
X-31757223Y18586598D01*
X-31757223Y18586598D02*
X-31706715Y18569763D01*
X-31706715Y18569763D02*
X-31622536Y18519255D01*
X-31622536Y18519255D02*
X-31572028Y18468747D01*
X-31572028Y18468747D02*
X-31521521Y18384568D01*
X-31521521Y18384568D02*
X-31504685Y18334060D01*
X-31504685Y18334060D02*
X-31504685Y18266717D01*
X-31504685Y18266717D02*
X-31538357Y18199373D01*
X-31538357Y18199373D02*
X-31622536Y18115194D01*
X-31656208Y18788629D02*
X-31437341Y19007495D01*
X-31437341Y19007495D02*
X-31420505Y18754957D01*
X-31420505Y18754957D02*
X-31369998Y18805465D01*
X-31369998Y18805465D02*
X-31319490Y18822301D01*
X-31319490Y18822301D02*
X-31285818Y18822301D01*
X-31285818Y18822301D02*
X-31235311Y18805465D01*
X-31235311Y18805465D02*
X-31151131Y18721285D01*
X-31151131Y18721285D02*
X-31134295Y18670778D01*
X-31134295Y18670778D02*
X-31134295Y18637106D01*
X-31134295Y18637106D02*
X-31151131Y18586598D01*
X-31151131Y18586598D02*
X-31252147Y18485583D01*
X-31252147Y18485583D02*
X-31302654Y18468747D01*
X-31302654Y18468747D02*
X-31336326Y18468747D01*
X-31622536Y28275194D02*
X-31976089Y28628747D01*
X-31976089Y28628747D02*
X-31891910Y28712927D01*
X-31891910Y28712927D02*
X-31824566Y28746598D01*
X-31824566Y28746598D02*
X-31757223Y28746598D01*
X-31757223Y28746598D02*
X-31706715Y28729763D01*
X-31706715Y28729763D02*
X-31622536Y28679255D01*
X-31622536Y28679255D02*
X-31572028Y28628747D01*
X-31572028Y28628747D02*
X-31521521Y28544568D01*
X-31521521Y28544568D02*
X-31504685Y28494060D01*
X-31504685Y28494060D02*
X-31504685Y28426717D01*
X-31504685Y28426717D02*
X-31538357Y28359373D01*
X-31538357Y28359373D02*
X-31622536Y28275194D01*
X-31656208Y28948629D02*
X-31420505Y29184331D01*
X-31420505Y29184331D02*
X-31218475Y28679255D01*
X-49724690Y31404449D02*
X-49556331Y31236090D01*
X-49859377Y31337105D02*
X-49387972Y31572808D01*
X-49387972Y31572808D02*
X-49623674Y31101403D01*
X-49320629Y30798358D02*
X-49522659Y31000388D01*
X-49421644Y30899373D02*
X-49068091Y31252926D01*
X-49068091Y31252926D02*
X-49152270Y31236090D01*
X-49152270Y31236090D02*
X-49219614Y31236090D01*
X-49219614Y31236090D02*
X-49270121Y31252926D01*
D12*
X-43842031Y38949658D02*
X-43699174Y38806800D01*
X-43699174Y38806800D02*
X-43842031Y38663943D01*
X-43842031Y38663943D02*
X-43984888Y38806800D01*
X-43984888Y38806800D02*
X-43842031Y38949658D01*
X-43842031Y38949658D02*
X-43842031Y38663943D01*
D11*
X-31740387Y33439373D02*
X-31572028Y33607732D01*
X-31673044Y33304686D02*
X-31908746Y33776091D01*
X-31908746Y33776091D02*
X-31437341Y33540389D01*
X-31134296Y33843434D02*
X-31336326Y33641403D01*
X-31235311Y33742419D02*
X-31588864Y34095972D01*
X-31588864Y34095972D02*
X-31572029Y34011793D01*
X-31572029Y34011793D02*
X-31572029Y33944449D01*
X-31572029Y33944449D02*
X-31588864Y33893942D01*
X-31268983Y34415853D02*
X-31235311Y34449525D01*
X-31235311Y34449525D02*
X-31184804Y34466361D01*
X-31184804Y34466361D02*
X-31151132Y34466361D01*
X-31151132Y34466361D02*
X-31100624Y34449525D01*
X-31100624Y34449525D02*
X-31016445Y34399018D01*
X-31016445Y34399018D02*
X-30932266Y34314838D01*
X-30932266Y34314838D02*
X-30881758Y34230659D01*
X-30881758Y34230659D02*
X-30864922Y34180151D01*
X-30864922Y34180151D02*
X-30864922Y34146479D01*
X-30864922Y34146479D02*
X-30881758Y34095972D01*
X-30881758Y34095972D02*
X-30915430Y34062300D01*
X-30915430Y34062300D02*
X-30965937Y34045464D01*
X-30965937Y34045464D02*
X-30999609Y34045464D01*
X-30999609Y34045464D02*
X-31050117Y34062300D01*
X-31050117Y34062300D02*
X-31134296Y34112808D01*
X-31134296Y34112808D02*
X-31218476Y34196987D01*
X-31218476Y34196987D02*
X-31268983Y34281166D01*
X-31268983Y34281166D02*
X-31285819Y34331674D01*
X-31285819Y34331674D02*
X-31285819Y34365346D01*
X-31285819Y34365346D02*
X-31268983Y34415853D01*
X-49724691Y19175854D02*
X-49741526Y19226362D01*
X-49741526Y19226362D02*
X-49792034Y19276870D01*
X-49792034Y19276870D02*
X-49859378Y19310541D01*
X-49859378Y19310541D02*
X-49926721Y19310541D01*
X-49926721Y19310541D02*
X-49977229Y19293706D01*
X-49977229Y19293706D02*
X-50061408Y19243198D01*
X-50061408Y19243198D02*
X-50111916Y19192690D01*
X-50111916Y19192690D02*
X-50162423Y19108511D01*
X-50162423Y19108511D02*
X-50179259Y19058003D01*
X-50179259Y19058003D02*
X-50179259Y18990660D01*
X-50179259Y18990660D02*
X-50145587Y18923316D01*
X-50145587Y18923316D02*
X-50111916Y18889645D01*
X-50111916Y18889645D02*
X-50044572Y18855973D01*
X-50044572Y18855973D02*
X-50010900Y18855973D01*
X-50010900Y18855973D02*
X-49893049Y18973824D01*
X-49893049Y18973824D02*
X-49960393Y19041167D01*
X-49893049Y18670778D02*
X-49539496Y19024332D01*
X-49539496Y19024332D02*
X-49691019Y18468748D01*
X-49691019Y18468748D02*
X-49337465Y18822301D01*
X-49522660Y18300389D02*
X-49169106Y18653942D01*
X-49169106Y18653942D02*
X-49084927Y18569763D01*
X-49084927Y18569763D02*
X-49051255Y18502419D01*
X-49051255Y18502419D02*
X-49051255Y18435076D01*
X-49051255Y18435076D02*
X-49068091Y18384568D01*
X-49068091Y18384568D02*
X-49118599Y18300389D01*
X-49118599Y18300389D02*
X-49169106Y18249881D01*
X-49169106Y18249881D02*
X-49253286Y18199373D01*
X-49253286Y18199373D02*
X-49303793Y18182537D01*
X-49303793Y18182537D02*
X-49371137Y18182537D01*
X-49371137Y18182537D02*
X-49438480Y18216209D01*
X-49438480Y18216209D02*
X-49522660Y18300389D01*
X-50061407Y49521166D02*
X-49893048Y49352807D01*
X-50196094Y49453823D02*
X-49724689Y49689525D01*
X-49724689Y49689525D02*
X-49960392Y49218120D01*
X-49657346Y48915075D02*
X-49859377Y49117105D01*
X-49758361Y49016090D02*
X-49404808Y49369644D01*
X-49404808Y49369644D02*
X-49488987Y49352808D01*
X-49488987Y49352808D02*
X-49556331Y49352808D01*
X-49556331Y49352808D02*
X-49606838Y49369644D01*
X-49202778Y49100270D02*
X-49169106Y49100270D01*
X-49169106Y49100270D02*
X-49118598Y49083434D01*
X-49118598Y49083434D02*
X-49034419Y48999255D01*
X-49034419Y48999255D02*
X-49017583Y48948747D01*
X-49017583Y48948747D02*
X-49017583Y48915075D01*
X-49017583Y48915075D02*
X-49034419Y48864568D01*
X-49034419Y48864568D02*
X-49068091Y48830896D01*
X-49068091Y48830896D02*
X-49135434Y48797224D01*
X-49135434Y48797224D02*
X-49539495Y48797224D01*
X-49539495Y48797224D02*
X-49320629Y48578358D01*
X-49724690Y44104449D02*
X-49556331Y43936090D01*
X-49859377Y44037105D02*
X-49387972Y44272808D01*
X-49387972Y44272808D02*
X-49623674Y43801403D01*
X-49000747Y43885583D02*
X-49068091Y43952926D01*
X-49068091Y43952926D02*
X-49118598Y43969762D01*
X-49118598Y43969762D02*
X-49152270Y43969762D01*
X-49152270Y43969762D02*
X-49236450Y43952926D01*
X-49236450Y43952926D02*
X-49320629Y43902419D01*
X-49320629Y43902419D02*
X-49455316Y43767732D01*
X-49455316Y43767732D02*
X-49472152Y43717224D01*
X-49472152Y43717224D02*
X-49472152Y43683552D01*
X-49472152Y43683552D02*
X-49455316Y43633045D01*
X-49455316Y43633045D02*
X-49387972Y43565701D01*
X-49387972Y43565701D02*
X-49337465Y43548865D01*
X-49337465Y43548865D02*
X-49303793Y43548865D01*
X-49303793Y43548865D02*
X-49253285Y43565701D01*
X-49253285Y43565701D02*
X-49169106Y43649881D01*
X-49169106Y43649881D02*
X-49152270Y43700388D01*
X-49152270Y43700388D02*
X-49152270Y43734060D01*
X-49152270Y43734060D02*
X-49169106Y43784568D01*
X-49169106Y43784568D02*
X-49236450Y43851911D01*
X-49236450Y43851911D02*
X-49286957Y43868747D01*
X-49286957Y43868747D02*
X-49320629Y43868747D01*
X-49320629Y43868747D02*
X-49371137Y43851911D01*
D12*
X-42422031Y54939658D02*
X-42279174Y54796800D01*
X-42279174Y54796800D02*
X-42422031Y54653943D01*
X-42422031Y54653943D02*
X-42564888Y54796800D01*
X-42564888Y54796800D02*
X-42422031Y54939658D01*
X-42422031Y54939658D02*
X-42422031Y54653943D01*
D11*
X-49724690Y28864449D02*
X-49556331Y28696090D01*
X-49859377Y28797105D02*
X-49387972Y29032808D01*
X-49387972Y29032808D02*
X-49623674Y28561403D01*
X-49084927Y28729762D02*
X-49051255Y28696090D01*
X-49051255Y28696090D02*
X-49034419Y28645583D01*
X-49034419Y28645583D02*
X-49034419Y28611911D01*
X-49034419Y28611911D02*
X-49051255Y28561403D01*
X-49051255Y28561403D02*
X-49101763Y28477224D01*
X-49101763Y28477224D02*
X-49185942Y28393045D01*
X-49185942Y28393045D02*
X-49270121Y28342537D01*
X-49270121Y28342537D02*
X-49320629Y28325701D01*
X-49320629Y28325701D02*
X-49354301Y28325701D01*
X-49354301Y28325701D02*
X-49404808Y28342537D01*
X-49404808Y28342537D02*
X-49438480Y28376209D01*
X-49438480Y28376209D02*
X-49455316Y28426716D01*
X-49455316Y28426716D02*
X-49455316Y28460388D01*
X-49455316Y28460388D02*
X-49438480Y28510896D01*
X-49438480Y28510896D02*
X-49387972Y28595075D01*
X-49387972Y28595075D02*
X-49303793Y28679255D01*
X-49303793Y28679255D02*
X-49219614Y28729762D01*
X-49219614Y28729762D02*
X-49169106Y28746598D01*
X-49169106Y28746598D02*
X-49135434Y28746598D01*
X-49135434Y28746598D02*
X-49084927Y28729762D01*
X-49724690Y33944449D02*
X-49556331Y33776090D01*
X-49859377Y33877105D02*
X-49387972Y34112808D01*
X-49387972Y34112808D02*
X-49623674Y33641403D01*
X-49202778Y33860270D02*
X-49169106Y33860270D01*
X-49169106Y33860270D02*
X-49118598Y33843434D01*
X-49118598Y33843434D02*
X-49034419Y33759255D01*
X-49034419Y33759255D02*
X-49017583Y33708747D01*
X-49017583Y33708747D02*
X-49017583Y33675075D01*
X-49017583Y33675075D02*
X-49034419Y33624568D01*
X-49034419Y33624568D02*
X-49068091Y33590896D01*
X-49068091Y33590896D02*
X-49135434Y33557224D01*
X-49135434Y33557224D02*
X-49539495Y33557224D01*
X-49539495Y33557224D02*
X-49320629Y33338358D01*
X-31740387Y43599373D02*
X-31572028Y43767732D01*
X-31673044Y43464686D02*
X-31908746Y43936091D01*
X-31908746Y43936091D02*
X-31437341Y43700389D01*
X-31471013Y44070778D02*
X-31521521Y44053942D01*
X-31521521Y44053942D02*
X-31555193Y44053942D01*
X-31555193Y44053942D02*
X-31605700Y44070778D01*
X-31605700Y44070778D02*
X-31622536Y44087613D01*
X-31622536Y44087613D02*
X-31639372Y44138121D01*
X-31639372Y44138121D02*
X-31639372Y44171793D01*
X-31639372Y44171793D02*
X-31622536Y44222300D01*
X-31622536Y44222300D02*
X-31555193Y44289644D01*
X-31555193Y44289644D02*
X-31504685Y44306480D01*
X-31504685Y44306480D02*
X-31471013Y44306480D01*
X-31471013Y44306480D02*
X-31420506Y44289644D01*
X-31420506Y44289644D02*
X-31403670Y44272808D01*
X-31403670Y44272808D02*
X-31386834Y44222300D01*
X-31386834Y44222300D02*
X-31386834Y44188629D01*
X-31386834Y44188629D02*
X-31403670Y44138121D01*
X-31403670Y44138121D02*
X-31471013Y44070778D01*
X-31471013Y44070778D02*
X-31487849Y44020270D01*
X-31487849Y44020270D02*
X-31487849Y43986598D01*
X-31487849Y43986598D02*
X-31471013Y43936090D01*
X-31471013Y43936090D02*
X-31403670Y43868747D01*
X-31403670Y43868747D02*
X-31353162Y43851911D01*
X-31353162Y43851911D02*
X-31319490Y43851911D01*
X-31319490Y43851911D02*
X-31268983Y43868747D01*
X-31268983Y43868747D02*
X-31201639Y43936090D01*
X-31201639Y43936090D02*
X-31184803Y43986598D01*
X-31184803Y43986598D02*
X-31184803Y44020270D01*
X-31184803Y44020270D02*
X-31201639Y44070778D01*
X-31201639Y44070778D02*
X-31268983Y44138121D01*
X-31268983Y44138121D02*
X-31319490Y44154957D01*
X-31319490Y44154957D02*
X-31353162Y44154957D01*
X-31353162Y44154957D02*
X-31403670Y44138121D01*
X-31908746Y36316091D02*
X-31841402Y36383434D01*
X-31841402Y36383434D02*
X-31790895Y36400270D01*
X-31790895Y36400270D02*
X-31723551Y36400270D01*
X-31723551Y36400270D02*
X-31639372Y36349763D01*
X-31639372Y36349763D02*
X-31521521Y36231911D01*
X-31521521Y36231911D02*
X-31471013Y36147732D01*
X-31471013Y36147732D02*
X-31471013Y36080389D01*
X-31471013Y36080389D02*
X-31487849Y36029881D01*
X-31487849Y36029881D02*
X-31555192Y35962537D01*
X-31555192Y35962537D02*
X-31605700Y35945702D01*
X-31605700Y35945702D02*
X-31673044Y35945702D01*
X-31673044Y35945702D02*
X-31757223Y35996209D01*
X-31757223Y35996209D02*
X-31875074Y36114060D01*
X-31875074Y36114060D02*
X-31925582Y36198240D01*
X-31925582Y36198240D02*
X-31925582Y36265583D01*
X-31925582Y36265583D02*
X-31908746Y36316091D01*
X-31437341Y36450778D02*
X-31319490Y36568629D01*
X-31083788Y36433942D02*
X-31252146Y36265584D01*
X-31252146Y36265584D02*
X-31605700Y36619137D01*
X-31605700Y36619137D02*
X-31437341Y36787496D01*
X-32123066Y36298076D02*
X-31503506Y36917637D01*
D12*
X-34545848Y48900542D02*
X-33879181Y49138637D01*
X-33879181Y49138637D02*
X-34545848Y49376732D01*
X-33879181Y50281494D02*
X-33879181Y49710066D01*
X-33879181Y49995780D02*
X-34879181Y49995780D01*
X-34879181Y49995780D02*
X-34736324Y49900542D01*
X-34736324Y49900542D02*
X-34641086Y49805304D01*
X-34641086Y49805304D02*
X-34593467Y49710066D01*
X-33974420Y50710066D02*
X-33926800Y50757685D01*
X-33926800Y50757685D02*
X-33879181Y50710066D01*
X-33879181Y50710066D02*
X-33926800Y50662447D01*
X-33926800Y50662447D02*
X-33974420Y50710066D01*
X-33974420Y50710066D02*
X-33879181Y50710066D01*
X-33879181Y51710065D02*
X-33879181Y51138637D01*
X-33879181Y51424351D02*
X-34879181Y51424351D01*
X-34879181Y51424351D02*
X-34736324Y51329113D01*
X-34736324Y51329113D02*
X-34641086Y51233875D01*
X-34641086Y51233875D02*
X-34593467Y51138637D01*
X-46937269Y17154705D02*
X-46937269Y16583277D01*
X-46937269Y16583277D02*
X-46975364Y16468991D01*
X-46975364Y16468991D02*
X-47051555Y16392800D01*
X-47051555Y16392800D02*
X-47165840Y16354705D01*
X-47165840Y16354705D02*
X-47242031Y16354705D01*
X-46175364Y16354705D02*
X-46556316Y16354705D01*
X-46556316Y16354705D02*
X-46556316Y17154705D01*
X-45451554Y16430896D02*
X-45489650Y16392800D01*
X-45489650Y16392800D02*
X-45603935Y16354705D01*
X-45603935Y16354705D02*
X-45680126Y16354705D01*
X-45680126Y16354705D02*
X-45794412Y16392800D01*
X-45794412Y16392800D02*
X-45870602Y16468991D01*
X-45870602Y16468991D02*
X-45908697Y16545181D01*
X-45908697Y16545181D02*
X-45946793Y16697562D01*
X-45946793Y16697562D02*
X-45946793Y16811848D01*
X-45946793Y16811848D02*
X-45908697Y16964229D01*
X-45908697Y16964229D02*
X-45870602Y17040420D01*
X-45870602Y17040420D02*
X-45794412Y17116610D01*
X-45794412Y17116610D02*
X-45680126Y17154705D01*
X-45680126Y17154705D02*
X-45603935Y17154705D01*
X-45603935Y17154705D02*
X-45489650Y17116610D01*
X-45489650Y17116610D02*
X-45451554Y17078515D01*
X-44880126Y17154705D02*
X-44880126Y16583277D01*
X-44880126Y16583277D02*
X-44918221Y16468991D01*
X-44918221Y16468991D02*
X-44994412Y16392800D01*
X-44994412Y16392800D02*
X-45108697Y16354705D01*
X-45108697Y16354705D02*
X-45184888Y16354705D01*
X-44118221Y16354705D02*
X-44499173Y16354705D01*
X-44499173Y16354705D02*
X-44499173Y17154705D01*
X-43394411Y16430896D02*
X-43432507Y16392800D01*
X-43432507Y16392800D02*
X-43546792Y16354705D01*
X-43546792Y16354705D02*
X-43622983Y16354705D01*
X-43622983Y16354705D02*
X-43737269Y16392800D01*
X-43737269Y16392800D02*
X-43813459Y16468991D01*
X-43813459Y16468991D02*
X-43851554Y16545181D01*
X-43851554Y16545181D02*
X-43889650Y16697562D01*
X-43889650Y16697562D02*
X-43889650Y16811848D01*
X-43889650Y16811848D02*
X-43851554Y16964229D01*
X-43851554Y16964229D02*
X-43813459Y17040420D01*
X-43813459Y17040420D02*
X-43737269Y17116610D01*
X-43737269Y17116610D02*
X-43622983Y17154705D01*
X-43622983Y17154705D02*
X-43546792Y17154705D01*
X-43546792Y17154705D02*
X-43432507Y17116610D01*
X-43432507Y17116610D02*
X-43394411Y17078515D01*
X-42822983Y17154705D02*
X-42822983Y16583277D01*
X-42822983Y16583277D02*
X-42861078Y16468991D01*
X-42861078Y16468991D02*
X-42937269Y16392800D01*
X-42937269Y16392800D02*
X-43051554Y16354705D01*
X-43051554Y16354705D02*
X-43127745Y16354705D01*
X-42061078Y16354705D02*
X-42442030Y16354705D01*
X-42442030Y16354705D02*
X-42442030Y17154705D01*
X-41337268Y16430896D02*
X-41375364Y16392800D01*
X-41375364Y16392800D02*
X-41489649Y16354705D01*
X-41489649Y16354705D02*
X-41565840Y16354705D01*
X-41565840Y16354705D02*
X-41680126Y16392800D01*
X-41680126Y16392800D02*
X-41756316Y16468991D01*
X-41756316Y16468991D02*
X-41794411Y16545181D01*
X-41794411Y16545181D02*
X-41832507Y16697562D01*
X-41832507Y16697562D02*
X-41832507Y16811848D01*
X-41832507Y16811848D02*
X-41794411Y16964229D01*
X-41794411Y16964229D02*
X-41756316Y17040420D01*
X-41756316Y17040420D02*
X-41680126Y17116610D01*
X-41680126Y17116610D02*
X-41565840Y17154705D01*
X-41565840Y17154705D02*
X-41489649Y17154705D01*
X-41489649Y17154705D02*
X-41375364Y17116610D01*
X-41375364Y17116610D02*
X-41337268Y17078515D01*
X-40765840Y17154705D02*
X-40765840Y16583277D01*
X-40765840Y16583277D02*
X-40803935Y16468991D01*
X-40803935Y16468991D02*
X-40880126Y16392800D01*
X-40880126Y16392800D02*
X-40994411Y16354705D01*
X-40994411Y16354705D02*
X-41070602Y16354705D01*
X-40003935Y16354705D02*
X-40384887Y16354705D01*
X-40384887Y16354705D02*
X-40384887Y17154705D01*
X-39280125Y16430896D02*
X-39318221Y16392800D01*
X-39318221Y16392800D02*
X-39432506Y16354705D01*
X-39432506Y16354705D02*
X-39508697Y16354705D01*
X-39508697Y16354705D02*
X-39622983Y16392800D01*
X-39622983Y16392800D02*
X-39699173Y16468991D01*
X-39699173Y16468991D02*
X-39737268Y16545181D01*
X-39737268Y16545181D02*
X-39775364Y16697562D01*
X-39775364Y16697562D02*
X-39775364Y16811848D01*
X-39775364Y16811848D02*
X-39737268Y16964229D01*
X-39737268Y16964229D02*
X-39699173Y17040420D01*
X-39699173Y17040420D02*
X-39622983Y17116610D01*
X-39622983Y17116610D02*
X-39508697Y17154705D01*
X-39508697Y17154705D02*
X-39432506Y17154705D01*
X-39432506Y17154705D02*
X-39318221Y17116610D01*
X-39318221Y17116610D02*
X-39280125Y17078515D01*
D11*
X-31622536Y23195194D02*
X-31976089Y23548747D01*
X-31976089Y23548747D02*
X-31891910Y23632927D01*
X-31891910Y23632927D02*
X-31824566Y23666598D01*
X-31824566Y23666598D02*
X-31757223Y23666598D01*
X-31757223Y23666598D02*
X-31706715Y23649763D01*
X-31706715Y23649763D02*
X-31622536Y23599255D01*
X-31622536Y23599255D02*
X-31572028Y23548747D01*
X-31572028Y23548747D02*
X-31521521Y23464568D01*
X-31521521Y23464568D02*
X-31504685Y23414060D01*
X-31504685Y23414060D02*
X-31504685Y23346717D01*
X-31504685Y23346717D02*
X-31538357Y23279373D01*
X-31538357Y23279373D02*
X-31622536Y23195194D01*
X-31454177Y24070659D02*
X-31622536Y23902301D01*
X-31622536Y23902301D02*
X-31471013Y23717106D01*
X-31471013Y23717106D02*
X-31471013Y23750778D01*
X-31471013Y23750778D02*
X-31454177Y23801285D01*
X-31454177Y23801285D02*
X-31369998Y23885465D01*
X-31369998Y23885465D02*
X-31319490Y23902301D01*
X-31319490Y23902301D02*
X-31285818Y23902301D01*
X-31285818Y23902301D02*
X-31235311Y23885465D01*
X-31235311Y23885465D02*
X-31151131Y23801285D01*
X-31151131Y23801285D02*
X-31134295Y23750778D01*
X-31134295Y23750778D02*
X-31134295Y23717106D01*
X-31134295Y23717106D02*
X-31151131Y23666598D01*
X-31151131Y23666598D02*
X-31235311Y23582419D01*
X-31235311Y23582419D02*
X-31285818Y23565583D01*
X-31285818Y23565583D02*
X-31319490Y23565583D01*
X-50061407Y54601166D02*
X-49893048Y54432807D01*
X-50196094Y54533823D02*
X-49724689Y54769525D01*
X-49724689Y54769525D02*
X-49960392Y54298120D01*
X-49657346Y53995075D02*
X-49859377Y54197105D01*
X-49758361Y54096090D02*
X-49404808Y54449644D01*
X-49404808Y54449644D02*
X-49488987Y54432808D01*
X-49488987Y54432808D02*
X-49556331Y54432808D01*
X-49556331Y54432808D02*
X-49606838Y54449644D01*
X-49000747Y54045583D02*
X-49068091Y54112926D01*
X-49068091Y54112926D02*
X-49118598Y54129762D01*
X-49118598Y54129762D02*
X-49152270Y54129762D01*
X-49152270Y54129762D02*
X-49236450Y54112926D01*
X-49236450Y54112926D02*
X-49320629Y54062419D01*
X-49320629Y54062419D02*
X-49455316Y53927732D01*
X-49455316Y53927732D02*
X-49472152Y53877224D01*
X-49472152Y53877224D02*
X-49472152Y53843552D01*
X-49472152Y53843552D02*
X-49455316Y53793045D01*
X-49455316Y53793045D02*
X-49387972Y53725701D01*
X-49387972Y53725701D02*
X-49337465Y53708865D01*
X-49337465Y53708865D02*
X-49303793Y53708865D01*
X-49303793Y53708865D02*
X-49253285Y53725701D01*
X-49253285Y53725701D02*
X-49169106Y53809881D01*
X-49169106Y53809881D02*
X-49152270Y53860388D01*
X-49152270Y53860388D02*
X-49152270Y53894060D01*
X-49152270Y53894060D02*
X-49169106Y53944568D01*
X-49169106Y53944568D02*
X-49236450Y54011911D01*
X-49236450Y54011911D02*
X-49286957Y54028747D01*
X-49286957Y54028747D02*
X-49320629Y54028747D01*
X-49320629Y54028747D02*
X-49371137Y54011911D01*
X-31740387Y51219373D02*
X-31572028Y51387732D01*
X-31673044Y51084686D02*
X-31908746Y51556091D01*
X-31908746Y51556091D02*
X-31437341Y51320389D01*
X-31134296Y51623434D02*
X-31336326Y51421403D01*
X-31235311Y51522419D02*
X-31588864Y51875972D01*
X-31588864Y51875972D02*
X-31572029Y51791793D01*
X-31572029Y51791793D02*
X-31572029Y51724449D01*
X-31572029Y51724449D02*
X-31588864Y51673942D01*
X-31369998Y52094838D02*
X-31134296Y52330540D01*
X-31134296Y52330540D02*
X-30932266Y51825464D01*
X-50061407Y52061166D02*
X-49893048Y51892807D01*
X-50196094Y51993823D02*
X-49724689Y52229525D01*
X-49724689Y52229525D02*
X-49960392Y51758120D01*
X-49657346Y51455075D02*
X-49859377Y51657105D01*
X-49758361Y51556090D02*
X-49404808Y51909644D01*
X-49404808Y51909644D02*
X-49488987Y51892808D01*
X-49488987Y51892808D02*
X-49556331Y51892808D01*
X-49556331Y51892808D02*
X-49606838Y51909644D01*
X-48983911Y51488747D02*
X-49152270Y51657106D01*
X-49152270Y51657106D02*
X-49337465Y51505583D01*
X-49337465Y51505583D02*
X-49303793Y51505583D01*
X-49303793Y51505583D02*
X-49253285Y51488747D01*
X-49253285Y51488747D02*
X-49169106Y51404568D01*
X-49169106Y51404568D02*
X-49152270Y51354060D01*
X-49152270Y51354060D02*
X-49152270Y51320388D01*
X-49152270Y51320388D02*
X-49169106Y51269881D01*
X-49169106Y51269881D02*
X-49253285Y51185701D01*
X-49253285Y51185701D02*
X-49303793Y51168865D01*
X-49303793Y51168865D02*
X-49337465Y51168865D01*
X-49337465Y51168865D02*
X-49387972Y51185701D01*
X-49387972Y51185701D02*
X-49472152Y51269881D01*
X-49472152Y51269881D02*
X-49488988Y51320388D01*
X-49488988Y51320388D02*
X-49488988Y51354060D01*
D12*
X-44632031Y32359658D02*
X-44489174Y32216800D01*
X-44489174Y32216800D02*
X-44632031Y32073943D01*
X-44632031Y32073943D02*
X-44774888Y32216800D01*
X-44774888Y32216800D02*
X-44632031Y32359658D01*
X-44632031Y32359658D02*
X-44632031Y32073943D01*
D11*
X-49859377Y23717106D02*
X-49505824Y24070659D01*
X-49505824Y24070659D02*
X-49421644Y23986480D01*
X-49421644Y23986480D02*
X-49387972Y23919136D01*
X-49387972Y23919136D02*
X-49387972Y23851793D01*
X-49387972Y23851793D02*
X-49404808Y23801285D01*
X-49404808Y23801285D02*
X-49455316Y23717106D01*
X-49455316Y23717106D02*
X-49505824Y23666598D01*
X-49505824Y23666598D02*
X-49590003Y23616090D01*
X-49590003Y23616090D02*
X-49640511Y23599255D01*
X-49640511Y23599255D02*
X-49707854Y23599255D01*
X-49707854Y23599255D02*
X-49775198Y23632926D01*
X-49775198Y23632926D02*
X-49859377Y23717106D01*
X-49320629Y23178358D02*
X-49522659Y23380388D01*
X-49421644Y23279373D02*
X-49068091Y23632926D01*
X-49068091Y23632926D02*
X-49152270Y23616090D01*
X-49152270Y23616090D02*
X-49219614Y23616090D01*
X-49219614Y23616090D02*
X-49270121Y23632926D01*
X-31740387Y38519373D02*
X-31572028Y38687732D01*
X-31673044Y38384686D02*
X-31908746Y38856091D01*
X-31908746Y38856091D02*
X-31437341Y38620389D01*
X-31134296Y38923434D02*
X-31336326Y38721403D01*
X-31235311Y38822419D02*
X-31588864Y39175972D01*
X-31588864Y39175972D02*
X-31572029Y39091793D01*
X-31572029Y39091793D02*
X-31572029Y39024449D01*
X-31572029Y39024449D02*
X-31588864Y38973942D01*
X-30797579Y39260151D02*
X-30999609Y39058121D01*
X-30898594Y39159136D02*
X-31252147Y39512689D01*
X-31252147Y39512689D02*
X-31235311Y39428510D01*
X-31235311Y39428510D02*
X-31235311Y39361166D01*
X-31235311Y39361166D02*
X-31252147Y39310659D01*
X-49724690Y41564449D02*
X-49556331Y41396090D01*
X-49859377Y41497105D02*
X-49387972Y41732808D01*
X-49387972Y41732808D02*
X-49623674Y41261403D01*
X-48983911Y41328747D02*
X-49152270Y41497106D01*
X-49152270Y41497106D02*
X-49337465Y41345583D01*
X-49337465Y41345583D02*
X-49303793Y41345583D01*
X-49303793Y41345583D02*
X-49253285Y41328747D01*
X-49253285Y41328747D02*
X-49169106Y41244568D01*
X-49169106Y41244568D02*
X-49152270Y41194060D01*
X-49152270Y41194060D02*
X-49152270Y41160388D01*
X-49152270Y41160388D02*
X-49169106Y41109881D01*
X-49169106Y41109881D02*
X-49253285Y41025701D01*
X-49253285Y41025701D02*
X-49303793Y41008865D01*
X-49303793Y41008865D02*
X-49337465Y41008865D01*
X-49337465Y41008865D02*
X-49387972Y41025701D01*
X-49387972Y41025701D02*
X-49472152Y41109881D01*
X-49472152Y41109881D02*
X-49488988Y41160388D01*
X-49488988Y41160388D02*
X-49488988Y41194060D01*
X-31454177Y31050896D02*
X-31454177Y31017224D01*
X-31454177Y31017224D02*
X-31487849Y30949881D01*
X-31487849Y30949881D02*
X-31521521Y30916209D01*
X-31521521Y30916209D02*
X-31588864Y30882537D01*
X-31588864Y30882537D02*
X-31656208Y30882537D01*
X-31656208Y30882537D02*
X-31706715Y30899373D01*
X-31706715Y30899373D02*
X-31790895Y30949881D01*
X-31790895Y30949881D02*
X-31841402Y31000389D01*
X-31841402Y31000389D02*
X-31891910Y31084568D01*
X-31891910Y31084568D02*
X-31908746Y31135076D01*
X-31908746Y31135076D02*
X-31908746Y31202419D01*
X-31908746Y31202419D02*
X-31875074Y31269763D01*
X-31875074Y31269763D02*
X-31841402Y31303434D01*
X-31841402Y31303434D02*
X-31774059Y31337106D01*
X-31774059Y31337106D02*
X-31740387Y31337106D01*
X-31454177Y31353942D02*
X-31336326Y31471793D01*
X-31100624Y31337106D02*
X-31268982Y31168747D01*
X-31268982Y31168747D02*
X-31622536Y31522301D01*
X-31622536Y31522301D02*
X-31454177Y31690659D01*
X-32123066Y31218076D02*
X-31520342Y31820801D01*
X-31740387Y48679373D02*
X-31572028Y48847732D01*
X-31673044Y48544686D02*
X-31908746Y49016091D01*
X-31908746Y49016091D02*
X-31437341Y48780389D01*
X-31134296Y49083434D02*
X-31336326Y48881403D01*
X-31235311Y48982419D02*
X-31588864Y49335972D01*
X-31588864Y49335972D02*
X-31572029Y49251793D01*
X-31572029Y49251793D02*
X-31572029Y49184449D01*
X-31572029Y49184449D02*
X-31588864Y49133942D01*
X-31066953Y49622182D02*
X-30831250Y49386479D01*
X-31285819Y49672689D02*
X-31117460Y49335972D01*
X-31117460Y49335972D02*
X-30898594Y49554838D01*
%TO.C,R7*%
X-36398334Y45544191D02*
X-36565000Y45782286D01*
X-36684048Y45544191D02*
X-36684048Y46044191D01*
X-36684048Y46044191D02*
X-36493572Y46044191D01*
X-36493572Y46044191D02*
X-36445953Y46020381D01*
X-36445953Y46020381D02*
X-36422143Y45996572D01*
X-36422143Y45996572D02*
X-36398334Y45948953D01*
X-36398334Y45948953D02*
X-36398334Y45877524D01*
X-36398334Y45877524D02*
X-36422143Y45829905D01*
X-36422143Y45829905D02*
X-36445953Y45806096D01*
X-36445953Y45806096D02*
X-36493572Y45782286D01*
X-36493572Y45782286D02*
X-36684048Y45782286D01*
X-36231667Y46044191D02*
X-35898334Y46044191D01*
X-35898334Y46044191D02*
X-36112619Y45544191D01*
%TO.C,C12*%
X-41426429Y23896810D02*
X-41450238Y23873000D01*
X-41450238Y23873000D02*
X-41521667Y23849191D01*
X-41521667Y23849191D02*
X-41569286Y23849191D01*
X-41569286Y23849191D02*
X-41640714Y23873000D01*
X-41640714Y23873000D02*
X-41688333Y23920620D01*
X-41688333Y23920620D02*
X-41712143Y23968239D01*
X-41712143Y23968239D02*
X-41735952Y24063477D01*
X-41735952Y24063477D02*
X-41735952Y24134905D01*
X-41735952Y24134905D02*
X-41712143Y24230143D01*
X-41712143Y24230143D02*
X-41688333Y24277762D01*
X-41688333Y24277762D02*
X-41640714Y24325381D01*
X-41640714Y24325381D02*
X-41569286Y24349191D01*
X-41569286Y24349191D02*
X-41521667Y24349191D01*
X-41521667Y24349191D02*
X-41450238Y24325381D01*
X-41450238Y24325381D02*
X-41426429Y24301572D01*
X-40950238Y23849191D02*
X-41235952Y23849191D01*
X-41093095Y23849191D02*
X-41093095Y24349191D01*
X-41093095Y24349191D02*
X-41140714Y24277762D01*
X-41140714Y24277762D02*
X-41188333Y24230143D01*
X-41188333Y24230143D02*
X-41235952Y24206334D01*
X-40759762Y24301572D02*
X-40735953Y24325381D01*
X-40735953Y24325381D02*
X-40688334Y24349191D01*
X-40688334Y24349191D02*
X-40569286Y24349191D01*
X-40569286Y24349191D02*
X-40521667Y24325381D01*
X-40521667Y24325381D02*
X-40497858Y24301572D01*
X-40497858Y24301572D02*
X-40474048Y24253953D01*
X-40474048Y24253953D02*
X-40474048Y24206334D01*
X-40474048Y24206334D02*
X-40497858Y24134905D01*
X-40497858Y24134905D02*
X-40783572Y23849191D01*
X-40783572Y23849191D02*
X-40474048Y23849191D01*
%TO.C,R2*%
X-34338334Y20099191D02*
X-34505000Y20337286D01*
X-34624048Y20099191D02*
X-34624048Y20599191D01*
X-34624048Y20599191D02*
X-34433572Y20599191D01*
X-34433572Y20599191D02*
X-34385953Y20575381D01*
X-34385953Y20575381D02*
X-34362143Y20551572D01*
X-34362143Y20551572D02*
X-34338334Y20503953D01*
X-34338334Y20503953D02*
X-34338334Y20432524D01*
X-34338334Y20432524D02*
X-34362143Y20384905D01*
X-34362143Y20384905D02*
X-34385953Y20361096D01*
X-34385953Y20361096D02*
X-34433572Y20337286D01*
X-34433572Y20337286D02*
X-34624048Y20337286D01*
X-34147857Y20551572D02*
X-34124048Y20575381D01*
X-34124048Y20575381D02*
X-34076429Y20599191D01*
X-34076429Y20599191D02*
X-33957381Y20599191D01*
X-33957381Y20599191D02*
X-33909762Y20575381D01*
X-33909762Y20575381D02*
X-33885953Y20551572D01*
X-33885953Y20551572D02*
X-33862143Y20503953D01*
X-33862143Y20503953D02*
X-33862143Y20456334D01*
X-33862143Y20456334D02*
X-33885953Y20384905D01*
X-33885953Y20384905D02*
X-34171667Y20099191D01*
X-34171667Y20099191D02*
X-33862143Y20099191D01*
%TO.C,Y1*%
X-44543095Y24312286D02*
X-44543095Y24074191D01*
X-44709761Y24574191D02*
X-44543095Y24312286D01*
X-44543095Y24312286D02*
X-44376428Y24574191D01*
X-43947857Y24074191D02*
X-44233571Y24074191D01*
X-44090714Y24074191D02*
X-44090714Y24574191D01*
X-44090714Y24574191D02*
X-44138333Y24502762D01*
X-44138333Y24502762D02*
X-44185952Y24455143D01*
X-44185952Y24455143D02*
X-44233571Y24431334D01*
%TO.C,C17*%
X-40797810Y37577572D02*
X-40774000Y37553763D01*
X-40774000Y37553763D02*
X-40750191Y37482334D01*
X-40750191Y37482334D02*
X-40750191Y37434715D01*
X-40750191Y37434715D02*
X-40774000Y37363287D01*
X-40774000Y37363287D02*
X-40821620Y37315668D01*
X-40821620Y37315668D02*
X-40869239Y37291858D01*
X-40869239Y37291858D02*
X-40964477Y37268049D01*
X-40964477Y37268049D02*
X-41035905Y37268049D01*
X-41035905Y37268049D02*
X-41131143Y37291858D01*
X-41131143Y37291858D02*
X-41178762Y37315668D01*
X-41178762Y37315668D02*
X-41226381Y37363287D01*
X-41226381Y37363287D02*
X-41250191Y37434715D01*
X-41250191Y37434715D02*
X-41250191Y37482334D01*
X-41250191Y37482334D02*
X-41226381Y37553763D01*
X-41226381Y37553763D02*
X-41202572Y37577572D01*
X-40750191Y38053763D02*
X-40750191Y37768049D01*
X-40750191Y37910906D02*
X-41250191Y37910906D01*
X-41250191Y37910906D02*
X-41178762Y37863287D01*
X-41178762Y37863287D02*
X-41131143Y37815668D01*
X-41131143Y37815668D02*
X-41107334Y37768049D01*
X-41250191Y38220429D02*
X-41250191Y38553762D01*
X-41250191Y38553762D02*
X-40750191Y38339477D01*
%TO.C,R4*%
X-37740191Y38265667D02*
X-37978286Y38099001D01*
X-37740191Y37979953D02*
X-38240191Y37979953D01*
X-38240191Y37979953D02*
X-38240191Y38170429D01*
X-38240191Y38170429D02*
X-38216381Y38218048D01*
X-38216381Y38218048D02*
X-38192572Y38241858D01*
X-38192572Y38241858D02*
X-38144953Y38265667D01*
X-38144953Y38265667D02*
X-38073524Y38265667D01*
X-38073524Y38265667D02*
X-38025905Y38241858D01*
X-38025905Y38241858D02*
X-38002096Y38218048D01*
X-38002096Y38218048D02*
X-37978286Y38170429D01*
X-37978286Y38170429D02*
X-37978286Y37979953D01*
X-38073524Y38694239D02*
X-37740191Y38694239D01*
X-38264000Y38575191D02*
X-37906858Y38456144D01*
X-37906858Y38456144D02*
X-37906858Y38765667D01*
%TO.C,U3*%
X-45985953Y32474191D02*
X-45985953Y32069429D01*
X-45985953Y32069429D02*
X-45962143Y32021810D01*
X-45962143Y32021810D02*
X-45938334Y31998000D01*
X-45938334Y31998000D02*
X-45890715Y31974191D01*
X-45890715Y31974191D02*
X-45795477Y31974191D01*
X-45795477Y31974191D02*
X-45747858Y31998000D01*
X-45747858Y31998000D02*
X-45724048Y32021810D01*
X-45724048Y32021810D02*
X-45700239Y32069429D01*
X-45700239Y32069429D02*
X-45700239Y32474191D01*
X-45509762Y32474191D02*
X-45200238Y32474191D01*
X-45200238Y32474191D02*
X-45366905Y32283715D01*
X-45366905Y32283715D02*
X-45295476Y32283715D01*
X-45295476Y32283715D02*
X-45247857Y32259905D01*
X-45247857Y32259905D02*
X-45224048Y32236096D01*
X-45224048Y32236096D02*
X-45200238Y32188477D01*
X-45200238Y32188477D02*
X-45200238Y32069429D01*
X-45200238Y32069429D02*
X-45224048Y32021810D01*
X-45224048Y32021810D02*
X-45247857Y31998000D01*
X-45247857Y31998000D02*
X-45295476Y31974191D01*
X-45295476Y31974191D02*
X-45438333Y31974191D01*
X-45438333Y31974191D02*
X-45485952Y31998000D01*
X-45485952Y31998000D02*
X-45509762Y32021810D01*
%TO.C,R5*%
X-41229810Y20807334D02*
X-40991715Y20974000D01*
X-41229810Y21093048D02*
X-40729810Y21093048D01*
X-40729810Y21093048D02*
X-40729810Y20902572D01*
X-40729810Y20902572D02*
X-40753620Y20854953D01*
X-40753620Y20854953D02*
X-40777429Y20831143D01*
X-40777429Y20831143D02*
X-40825048Y20807334D01*
X-40825048Y20807334D02*
X-40896477Y20807334D01*
X-40896477Y20807334D02*
X-40944096Y20831143D01*
X-40944096Y20831143D02*
X-40967905Y20854953D01*
X-40967905Y20854953D02*
X-40991715Y20902572D01*
X-40991715Y20902572D02*
X-40991715Y21093048D01*
X-40729810Y20354953D02*
X-40729810Y20593048D01*
X-40729810Y20593048D02*
X-40967905Y20616857D01*
X-40967905Y20616857D02*
X-40944096Y20593048D01*
X-40944096Y20593048D02*
X-40920286Y20545429D01*
X-40920286Y20545429D02*
X-40920286Y20426381D01*
X-40920286Y20426381D02*
X-40944096Y20378762D01*
X-40944096Y20378762D02*
X-40967905Y20354953D01*
X-40967905Y20354953D02*
X-41015524Y20331143D01*
X-41015524Y20331143D02*
X-41134572Y20331143D01*
X-41134572Y20331143D02*
X-41182191Y20354953D01*
X-41182191Y20354953D02*
X-41206000Y20378762D01*
X-41206000Y20378762D02*
X-41229810Y20426381D01*
X-41229810Y20426381D02*
X-41229810Y20545429D01*
X-41229810Y20545429D02*
X-41206000Y20593048D01*
X-41206000Y20593048D02*
X-41182191Y20616857D01*
%TO.C,U2*%
X-44750191Y39838048D02*
X-44345429Y39838048D01*
X-44345429Y39838048D02*
X-44297810Y39861858D01*
X-44297810Y39861858D02*
X-44274000Y39885667D01*
X-44274000Y39885667D02*
X-44250191Y39933286D01*
X-44250191Y39933286D02*
X-44250191Y40028524D01*
X-44250191Y40028524D02*
X-44274000Y40076143D01*
X-44274000Y40076143D02*
X-44297810Y40099953D01*
X-44297810Y40099953D02*
X-44345429Y40123762D01*
X-44345429Y40123762D02*
X-44750191Y40123762D01*
X-44702572Y40338049D02*
X-44726381Y40361858D01*
X-44726381Y40361858D02*
X-44750191Y40409477D01*
X-44750191Y40409477D02*
X-44750191Y40528525D01*
X-44750191Y40528525D02*
X-44726381Y40576144D01*
X-44726381Y40576144D02*
X-44702572Y40599953D01*
X-44702572Y40599953D02*
X-44654953Y40623763D01*
X-44654953Y40623763D02*
X-44607334Y40623763D01*
X-44607334Y40623763D02*
X-44535905Y40599953D01*
X-44535905Y40599953D02*
X-44250191Y40314239D01*
X-44250191Y40314239D02*
X-44250191Y40623763D01*
%TO.C,C10*%
X-39747810Y37597572D02*
X-39724000Y37573763D01*
X-39724000Y37573763D02*
X-39700191Y37502334D01*
X-39700191Y37502334D02*
X-39700191Y37454715D01*
X-39700191Y37454715D02*
X-39724000Y37383287D01*
X-39724000Y37383287D02*
X-39771620Y37335668D01*
X-39771620Y37335668D02*
X-39819239Y37311858D01*
X-39819239Y37311858D02*
X-39914477Y37288049D01*
X-39914477Y37288049D02*
X-39985905Y37288049D01*
X-39985905Y37288049D02*
X-40081143Y37311858D01*
X-40081143Y37311858D02*
X-40128762Y37335668D01*
X-40128762Y37335668D02*
X-40176381Y37383287D01*
X-40176381Y37383287D02*
X-40200191Y37454715D01*
X-40200191Y37454715D02*
X-40200191Y37502334D01*
X-40200191Y37502334D02*
X-40176381Y37573763D01*
X-40176381Y37573763D02*
X-40152572Y37597572D01*
X-39700191Y38073763D02*
X-39700191Y37788049D01*
X-39700191Y37930906D02*
X-40200191Y37930906D01*
X-40200191Y37930906D02*
X-40128762Y37883287D01*
X-40128762Y37883287D02*
X-40081143Y37835668D01*
X-40081143Y37835668D02*
X-40057334Y37788049D01*
X-40200191Y38383286D02*
X-40200191Y38430905D01*
X-40200191Y38430905D02*
X-40176381Y38478524D01*
X-40176381Y38478524D02*
X-40152572Y38502334D01*
X-40152572Y38502334D02*
X-40104953Y38526143D01*
X-40104953Y38526143D02*
X-40009715Y38549953D01*
X-40009715Y38549953D02*
X-39890667Y38549953D01*
X-39890667Y38549953D02*
X-39795429Y38526143D01*
X-39795429Y38526143D02*
X-39747810Y38502334D01*
X-39747810Y38502334D02*
X-39724000Y38478524D01*
X-39724000Y38478524D02*
X-39700191Y38430905D01*
X-39700191Y38430905D02*
X-39700191Y38383286D01*
X-39700191Y38383286D02*
X-39724000Y38335667D01*
X-39724000Y38335667D02*
X-39747810Y38311858D01*
X-39747810Y38311858D02*
X-39795429Y38288048D01*
X-39795429Y38288048D02*
X-39890667Y38264239D01*
X-39890667Y38264239D02*
X-40009715Y38264239D01*
X-40009715Y38264239D02*
X-40104953Y38288048D01*
X-40104953Y38288048D02*
X-40152572Y38311858D01*
X-40152572Y38311858D02*
X-40176381Y38335667D01*
X-40176381Y38335667D02*
X-40200191Y38383286D01*
%TO.C,J1*%
X-36181667Y56694191D02*
X-36181667Y56337048D01*
X-36181667Y56337048D02*
X-36205476Y56265620D01*
X-36205476Y56265620D02*
X-36253095Y56218000D01*
X-36253095Y56218000D02*
X-36324524Y56194191D01*
X-36324524Y56194191D02*
X-36372143Y56194191D01*
X-35681667Y56194191D02*
X-35967381Y56194191D01*
X-35824524Y56194191D02*
X-35824524Y56694191D01*
X-35824524Y56694191D02*
X-35872143Y56622762D01*
X-35872143Y56622762D02*
X-35919762Y56575143D01*
X-35919762Y56575143D02*
X-35967381Y56551334D01*
%TO.C,C8*%
X-38877810Y34505667D02*
X-38854000Y34481858D01*
X-38854000Y34481858D02*
X-38830191Y34410429D01*
X-38830191Y34410429D02*
X-38830191Y34362810D01*
X-38830191Y34362810D02*
X-38854000Y34291382D01*
X-38854000Y34291382D02*
X-38901620Y34243763D01*
X-38901620Y34243763D02*
X-38949239Y34219953D01*
X-38949239Y34219953D02*
X-39044477Y34196144D01*
X-39044477Y34196144D02*
X-39115905Y34196144D01*
X-39115905Y34196144D02*
X-39211143Y34219953D01*
X-39211143Y34219953D02*
X-39258762Y34243763D01*
X-39258762Y34243763D02*
X-39306381Y34291382D01*
X-39306381Y34291382D02*
X-39330191Y34362810D01*
X-39330191Y34362810D02*
X-39330191Y34410429D01*
X-39330191Y34410429D02*
X-39306381Y34481858D01*
X-39306381Y34481858D02*
X-39282572Y34505667D01*
X-39115905Y34791382D02*
X-39139715Y34743763D01*
X-39139715Y34743763D02*
X-39163524Y34719953D01*
X-39163524Y34719953D02*
X-39211143Y34696144D01*
X-39211143Y34696144D02*
X-39234953Y34696144D01*
X-39234953Y34696144D02*
X-39282572Y34719953D01*
X-39282572Y34719953D02*
X-39306381Y34743763D01*
X-39306381Y34743763D02*
X-39330191Y34791382D01*
X-39330191Y34791382D02*
X-39330191Y34886620D01*
X-39330191Y34886620D02*
X-39306381Y34934239D01*
X-39306381Y34934239D02*
X-39282572Y34958048D01*
X-39282572Y34958048D02*
X-39234953Y34981858D01*
X-39234953Y34981858D02*
X-39211143Y34981858D01*
X-39211143Y34981858D02*
X-39163524Y34958048D01*
X-39163524Y34958048D02*
X-39139715Y34934239D01*
X-39139715Y34934239D02*
X-39115905Y34886620D01*
X-39115905Y34886620D02*
X-39115905Y34791382D01*
X-39115905Y34791382D02*
X-39092096Y34743763D01*
X-39092096Y34743763D02*
X-39068286Y34719953D01*
X-39068286Y34719953D02*
X-39020667Y34696144D01*
X-39020667Y34696144D02*
X-38925429Y34696144D01*
X-38925429Y34696144D02*
X-38877810Y34719953D01*
X-38877810Y34719953D02*
X-38854000Y34743763D01*
X-38854000Y34743763D02*
X-38830191Y34791382D01*
X-38830191Y34791382D02*
X-38830191Y34886620D01*
X-38830191Y34886620D02*
X-38854000Y34934239D01*
X-38854000Y34934239D02*
X-38877810Y34958048D01*
X-38877810Y34958048D02*
X-38925429Y34981858D01*
X-38925429Y34981858D02*
X-39020667Y34981858D01*
X-39020667Y34981858D02*
X-39068286Y34958048D01*
X-39068286Y34958048D02*
X-39092096Y34934239D01*
X-39092096Y34934239D02*
X-39115905Y34886620D01*
%TO.C,C3*%
X-41232191Y18882334D02*
X-41256000Y18906143D01*
X-41256000Y18906143D02*
X-41279810Y18977572D01*
X-41279810Y18977572D02*
X-41279810Y19025191D01*
X-41279810Y19025191D02*
X-41256000Y19096619D01*
X-41256000Y19096619D02*
X-41208381Y19144238D01*
X-41208381Y19144238D02*
X-41160762Y19168048D01*
X-41160762Y19168048D02*
X-41065524Y19191857D01*
X-41065524Y19191857D02*
X-40994096Y19191857D01*
X-40994096Y19191857D02*
X-40898858Y19168048D01*
X-40898858Y19168048D02*
X-40851239Y19144238D01*
X-40851239Y19144238D02*
X-40803620Y19096619D01*
X-40803620Y19096619D02*
X-40779810Y19025191D01*
X-40779810Y19025191D02*
X-40779810Y18977572D01*
X-40779810Y18977572D02*
X-40803620Y18906143D01*
X-40803620Y18906143D02*
X-40827429Y18882334D01*
X-40779810Y18715667D02*
X-40779810Y18406143D01*
X-40779810Y18406143D02*
X-40970286Y18572810D01*
X-40970286Y18572810D02*
X-40970286Y18501381D01*
X-40970286Y18501381D02*
X-40994096Y18453762D01*
X-40994096Y18453762D02*
X-41017905Y18429953D01*
X-41017905Y18429953D02*
X-41065524Y18406143D01*
X-41065524Y18406143D02*
X-41184572Y18406143D01*
X-41184572Y18406143D02*
X-41232191Y18429953D01*
X-41232191Y18429953D02*
X-41256000Y18453762D01*
X-41256000Y18453762D02*
X-41279810Y18501381D01*
X-41279810Y18501381D02*
X-41279810Y18644238D01*
X-41279810Y18644238D02*
X-41256000Y18691857D01*
X-41256000Y18691857D02*
X-41232191Y18715667D01*
%TO.C,U1*%
X-46635953Y52954191D02*
X-46635953Y52549429D01*
X-46635953Y52549429D02*
X-46612143Y52501810D01*
X-46612143Y52501810D02*
X-46588334Y52478000D01*
X-46588334Y52478000D02*
X-46540715Y52454191D01*
X-46540715Y52454191D02*
X-46445477Y52454191D01*
X-46445477Y52454191D02*
X-46397858Y52478000D01*
X-46397858Y52478000D02*
X-46374048Y52501810D01*
X-46374048Y52501810D02*
X-46350239Y52549429D01*
X-46350239Y52549429D02*
X-46350239Y52954191D01*
X-45850238Y52454191D02*
X-46135952Y52454191D01*
X-45993095Y52454191D02*
X-45993095Y52954191D01*
X-45993095Y52954191D02*
X-46040714Y52882762D01*
X-46040714Y52882762D02*
X-46088333Y52835143D01*
X-46088333Y52835143D02*
X-46135952Y52811334D01*
%TO.C,C4*%
X-44098334Y49871810D02*
X-44122143Y49848000D01*
X-44122143Y49848000D02*
X-44193572Y49824191D01*
X-44193572Y49824191D02*
X-44241191Y49824191D01*
X-44241191Y49824191D02*
X-44312619Y49848000D01*
X-44312619Y49848000D02*
X-44360238Y49895620D01*
X-44360238Y49895620D02*
X-44384048Y49943239D01*
X-44384048Y49943239D02*
X-44407857Y50038477D01*
X-44407857Y50038477D02*
X-44407857Y50109905D01*
X-44407857Y50109905D02*
X-44384048Y50205143D01*
X-44384048Y50205143D02*
X-44360238Y50252762D01*
X-44360238Y50252762D02*
X-44312619Y50300381D01*
X-44312619Y50300381D02*
X-44241191Y50324191D01*
X-44241191Y50324191D02*
X-44193572Y50324191D01*
X-44193572Y50324191D02*
X-44122143Y50300381D01*
X-44122143Y50300381D02*
X-44098334Y50276572D01*
X-43669762Y50157524D02*
X-43669762Y49824191D01*
X-43788810Y50348000D02*
X-43907857Y49990858D01*
X-43907857Y49990858D02*
X-43598334Y49990858D01*
%TO.C,C13*%
X-34152810Y31902572D02*
X-34129000Y31878763D01*
X-34129000Y31878763D02*
X-34105191Y31807334D01*
X-34105191Y31807334D02*
X-34105191Y31759715D01*
X-34105191Y31759715D02*
X-34129000Y31688287D01*
X-34129000Y31688287D02*
X-34176620Y31640668D01*
X-34176620Y31640668D02*
X-34224239Y31616858D01*
X-34224239Y31616858D02*
X-34319477Y31593049D01*
X-34319477Y31593049D02*
X-34390905Y31593049D01*
X-34390905Y31593049D02*
X-34486143Y31616858D01*
X-34486143Y31616858D02*
X-34533762Y31640668D01*
X-34533762Y31640668D02*
X-34581381Y31688287D01*
X-34581381Y31688287D02*
X-34605191Y31759715D01*
X-34605191Y31759715D02*
X-34605191Y31807334D01*
X-34605191Y31807334D02*
X-34581381Y31878763D01*
X-34581381Y31878763D02*
X-34557572Y31902572D01*
X-34105191Y32378763D02*
X-34105191Y32093049D01*
X-34105191Y32235906D02*
X-34605191Y32235906D01*
X-34605191Y32235906D02*
X-34533762Y32188287D01*
X-34533762Y32188287D02*
X-34486143Y32140668D01*
X-34486143Y32140668D02*
X-34462334Y32093049D01*
X-34605191Y32545429D02*
X-34605191Y32854953D01*
X-34605191Y32854953D02*
X-34414715Y32688286D01*
X-34414715Y32688286D02*
X-34414715Y32759715D01*
X-34414715Y32759715D02*
X-34390905Y32807334D01*
X-34390905Y32807334D02*
X-34367096Y32831143D01*
X-34367096Y32831143D02*
X-34319477Y32854953D01*
X-34319477Y32854953D02*
X-34200429Y32854953D01*
X-34200429Y32854953D02*
X-34152810Y32831143D01*
X-34152810Y32831143D02*
X-34129000Y32807334D01*
X-34129000Y32807334D02*
X-34105191Y32759715D01*
X-34105191Y32759715D02*
X-34105191Y32616858D01*
X-34105191Y32616858D02*
X-34129000Y32569239D01*
X-34129000Y32569239D02*
X-34152810Y32545429D01*
%TO.C,C9*%
X-45077810Y36715667D02*
X-45054000Y36691858D01*
X-45054000Y36691858D02*
X-45030191Y36620429D01*
X-45030191Y36620429D02*
X-45030191Y36572810D01*
X-45030191Y36572810D02*
X-45054000Y36501382D01*
X-45054000Y36501382D02*
X-45101620Y36453763D01*
X-45101620Y36453763D02*
X-45149239Y36429953D01*
X-45149239Y36429953D02*
X-45244477Y36406144D01*
X-45244477Y36406144D02*
X-45315905Y36406144D01*
X-45315905Y36406144D02*
X-45411143Y36429953D01*
X-45411143Y36429953D02*
X-45458762Y36453763D01*
X-45458762Y36453763D02*
X-45506381Y36501382D01*
X-45506381Y36501382D02*
X-45530191Y36572810D01*
X-45530191Y36572810D02*
X-45530191Y36620429D01*
X-45530191Y36620429D02*
X-45506381Y36691858D01*
X-45506381Y36691858D02*
X-45482572Y36715667D01*
X-45030191Y36953763D02*
X-45030191Y37049001D01*
X-45030191Y37049001D02*
X-45054000Y37096620D01*
X-45054000Y37096620D02*
X-45077810Y37120429D01*
X-45077810Y37120429D02*
X-45149239Y37168048D01*
X-45149239Y37168048D02*
X-45244477Y37191858D01*
X-45244477Y37191858D02*
X-45434953Y37191858D01*
X-45434953Y37191858D02*
X-45482572Y37168048D01*
X-45482572Y37168048D02*
X-45506381Y37144239D01*
X-45506381Y37144239D02*
X-45530191Y37096620D01*
X-45530191Y37096620D02*
X-45530191Y37001382D01*
X-45530191Y37001382D02*
X-45506381Y36953763D01*
X-45506381Y36953763D02*
X-45482572Y36929953D01*
X-45482572Y36929953D02*
X-45434953Y36906144D01*
X-45434953Y36906144D02*
X-45315905Y36906144D01*
X-45315905Y36906144D02*
X-45268286Y36929953D01*
X-45268286Y36929953D02*
X-45244477Y36953763D01*
X-45244477Y36953763D02*
X-45220667Y37001382D01*
X-45220667Y37001382D02*
X-45220667Y37096620D01*
X-45220667Y37096620D02*
X-45244477Y37144239D01*
X-45244477Y37144239D02*
X-45268286Y37168048D01*
X-45268286Y37168048D02*
X-45315905Y37191858D01*
%TO.C,C11*%
X-46527810Y26937572D02*
X-46504000Y26913763D01*
X-46504000Y26913763D02*
X-46480191Y26842334D01*
X-46480191Y26842334D02*
X-46480191Y26794715D01*
X-46480191Y26794715D02*
X-46504000Y26723287D01*
X-46504000Y26723287D02*
X-46551620Y26675668D01*
X-46551620Y26675668D02*
X-46599239Y26651858D01*
X-46599239Y26651858D02*
X-46694477Y26628049D01*
X-46694477Y26628049D02*
X-46765905Y26628049D01*
X-46765905Y26628049D02*
X-46861143Y26651858D01*
X-46861143Y26651858D02*
X-46908762Y26675668D01*
X-46908762Y26675668D02*
X-46956381Y26723287D01*
X-46956381Y26723287D02*
X-46980191Y26794715D01*
X-46980191Y26794715D02*
X-46980191Y26842334D01*
X-46980191Y26842334D02*
X-46956381Y26913763D01*
X-46956381Y26913763D02*
X-46932572Y26937572D01*
X-46480191Y27413763D02*
X-46480191Y27128049D01*
X-46480191Y27270906D02*
X-46980191Y27270906D01*
X-46980191Y27270906D02*
X-46908762Y27223287D01*
X-46908762Y27223287D02*
X-46861143Y27175668D01*
X-46861143Y27175668D02*
X-46837334Y27128049D01*
X-46480191Y27889953D02*
X-46480191Y27604239D01*
X-46480191Y27747096D02*
X-46980191Y27747096D01*
X-46980191Y27747096D02*
X-46908762Y27699477D01*
X-46908762Y27699477D02*
X-46861143Y27651858D01*
X-46861143Y27651858D02*
X-46837334Y27604239D01*
%TO.C,R6*%
X-35178334Y52724191D02*
X-35345000Y52962286D01*
X-35464048Y52724191D02*
X-35464048Y53224191D01*
X-35464048Y53224191D02*
X-35273572Y53224191D01*
X-35273572Y53224191D02*
X-35225953Y53200381D01*
X-35225953Y53200381D02*
X-35202143Y53176572D01*
X-35202143Y53176572D02*
X-35178334Y53128953D01*
X-35178334Y53128953D02*
X-35178334Y53057524D01*
X-35178334Y53057524D02*
X-35202143Y53009905D01*
X-35202143Y53009905D02*
X-35225953Y52986096D01*
X-35225953Y52986096D02*
X-35273572Y52962286D01*
X-35273572Y52962286D02*
X-35464048Y52962286D01*
X-34749762Y53224191D02*
X-34845000Y53224191D01*
X-34845000Y53224191D02*
X-34892619Y53200381D01*
X-34892619Y53200381D02*
X-34916429Y53176572D01*
X-34916429Y53176572D02*
X-34964048Y53105143D01*
X-34964048Y53105143D02*
X-34987857Y53009905D01*
X-34987857Y53009905D02*
X-34987857Y52819429D01*
X-34987857Y52819429D02*
X-34964048Y52771810D01*
X-34964048Y52771810D02*
X-34940238Y52748000D01*
X-34940238Y52748000D02*
X-34892619Y52724191D01*
X-34892619Y52724191D02*
X-34797381Y52724191D01*
X-34797381Y52724191D02*
X-34749762Y52748000D01*
X-34749762Y52748000D02*
X-34725953Y52771810D01*
X-34725953Y52771810D02*
X-34702143Y52819429D01*
X-34702143Y52819429D02*
X-34702143Y52938477D01*
X-34702143Y52938477D02*
X-34725953Y52986096D01*
X-34725953Y52986096D02*
X-34749762Y53009905D01*
X-34749762Y53009905D02*
X-34797381Y53033715D01*
X-34797381Y53033715D02*
X-34892619Y53033715D01*
X-34892619Y53033715D02*
X-34940238Y53009905D01*
X-34940238Y53009905D02*
X-34964048Y52986096D01*
X-34964048Y52986096D02*
X-34987857Y52938477D01*
%TO.C,R1*%
X-45160191Y43075667D02*
X-45398286Y42909001D01*
X-45160191Y42789953D02*
X-45660191Y42789953D01*
X-45660191Y42789953D02*
X-45660191Y42980429D01*
X-45660191Y42980429D02*
X-45636381Y43028048D01*
X-45636381Y43028048D02*
X-45612572Y43051858D01*
X-45612572Y43051858D02*
X-45564953Y43075667D01*
X-45564953Y43075667D02*
X-45493524Y43075667D01*
X-45493524Y43075667D02*
X-45445905Y43051858D01*
X-45445905Y43051858D02*
X-45422096Y43028048D01*
X-45422096Y43028048D02*
X-45398286Y42980429D01*
X-45398286Y42980429D02*
X-45398286Y42789953D01*
X-45160191Y43551858D02*
X-45160191Y43266144D01*
X-45160191Y43409001D02*
X-45660191Y43409001D01*
X-45660191Y43409001D02*
X-45588762Y43361382D01*
X-45588762Y43361382D02*
X-45541143Y43313763D01*
X-45541143Y43313763D02*
X-45517334Y43266144D01*
%TO.C,C18*%
X-34776429Y16546810D02*
X-34800238Y16523000D01*
X-34800238Y16523000D02*
X-34871667Y16499191D01*
X-34871667Y16499191D02*
X-34919286Y16499191D01*
X-34919286Y16499191D02*
X-34990714Y16523000D01*
X-34990714Y16523000D02*
X-35038333Y16570620D01*
X-35038333Y16570620D02*
X-35062143Y16618239D01*
X-35062143Y16618239D02*
X-35085952Y16713477D01*
X-35085952Y16713477D02*
X-35085952Y16784905D01*
X-35085952Y16784905D02*
X-35062143Y16880143D01*
X-35062143Y16880143D02*
X-35038333Y16927762D01*
X-35038333Y16927762D02*
X-34990714Y16975381D01*
X-34990714Y16975381D02*
X-34919286Y16999191D01*
X-34919286Y16999191D02*
X-34871667Y16999191D01*
X-34871667Y16999191D02*
X-34800238Y16975381D01*
X-34800238Y16975381D02*
X-34776429Y16951572D01*
X-34300238Y16499191D02*
X-34585952Y16499191D01*
X-34443095Y16499191D02*
X-34443095Y16999191D01*
X-34443095Y16999191D02*
X-34490714Y16927762D01*
X-34490714Y16927762D02*
X-34538333Y16880143D01*
X-34538333Y16880143D02*
X-34585952Y16856334D01*
X-34014524Y16784905D02*
X-34062143Y16808715D01*
X-34062143Y16808715D02*
X-34085953Y16832524D01*
X-34085953Y16832524D02*
X-34109762Y16880143D01*
X-34109762Y16880143D02*
X-34109762Y16903953D01*
X-34109762Y16903953D02*
X-34085953Y16951572D01*
X-34085953Y16951572D02*
X-34062143Y16975381D01*
X-34062143Y16975381D02*
X-34014524Y16999191D01*
X-34014524Y16999191D02*
X-33919286Y16999191D01*
X-33919286Y16999191D02*
X-33871667Y16975381D01*
X-33871667Y16975381D02*
X-33847858Y16951572D01*
X-33847858Y16951572D02*
X-33824048Y16903953D01*
X-33824048Y16903953D02*
X-33824048Y16880143D01*
X-33824048Y16880143D02*
X-33847858Y16832524D01*
X-33847858Y16832524D02*
X-33871667Y16808715D01*
X-33871667Y16808715D02*
X-33919286Y16784905D01*
X-33919286Y16784905D02*
X-34014524Y16784905D01*
X-34014524Y16784905D02*
X-34062143Y16761096D01*
X-34062143Y16761096D02*
X-34085953Y16737286D01*
X-34085953Y16737286D02*
X-34109762Y16689667D01*
X-34109762Y16689667D02*
X-34109762Y16594429D01*
X-34109762Y16594429D02*
X-34085953Y16546810D01*
X-34085953Y16546810D02*
X-34062143Y16523000D01*
X-34062143Y16523000D02*
X-34014524Y16499191D01*
X-34014524Y16499191D02*
X-33919286Y16499191D01*
X-33919286Y16499191D02*
X-33871667Y16523000D01*
X-33871667Y16523000D02*
X-33847858Y16546810D01*
X-33847858Y16546810D02*
X-33824048Y16594429D01*
X-33824048Y16594429D02*
X-33824048Y16689667D01*
X-33824048Y16689667D02*
X-33847858Y16737286D01*
X-33847858Y16737286D02*
X-33871667Y16761096D01*
X-33871667Y16761096D02*
X-33919286Y16784905D01*
%TO.C,C15*%
X-35967810Y36547572D02*
X-35944000Y36523763D01*
X-35944000Y36523763D02*
X-35920191Y36452334D01*
X-35920191Y36452334D02*
X-35920191Y36404715D01*
X-35920191Y36404715D02*
X-35944000Y36333287D01*
X-35944000Y36333287D02*
X-35991620Y36285668D01*
X-35991620Y36285668D02*
X-36039239Y36261858D01*
X-36039239Y36261858D02*
X-36134477Y36238049D01*
X-36134477Y36238049D02*
X-36205905Y36238049D01*
X-36205905Y36238049D02*
X-36301143Y36261858D01*
X-36301143Y36261858D02*
X-36348762Y36285668D01*
X-36348762Y36285668D02*
X-36396381Y36333287D01*
X-36396381Y36333287D02*
X-36420191Y36404715D01*
X-36420191Y36404715D02*
X-36420191Y36452334D01*
X-36420191Y36452334D02*
X-36396381Y36523763D01*
X-36396381Y36523763D02*
X-36372572Y36547572D01*
X-35920191Y37023763D02*
X-35920191Y36738049D01*
X-35920191Y36880906D02*
X-36420191Y36880906D01*
X-36420191Y36880906D02*
X-36348762Y36833287D01*
X-36348762Y36833287D02*
X-36301143Y36785668D01*
X-36301143Y36785668D02*
X-36277334Y36738049D01*
X-36420191Y37476143D02*
X-36420191Y37238048D01*
X-36420191Y37238048D02*
X-36182096Y37214239D01*
X-36182096Y37214239D02*
X-36205905Y37238048D01*
X-36205905Y37238048D02*
X-36229715Y37285667D01*
X-36229715Y37285667D02*
X-36229715Y37404715D01*
X-36229715Y37404715D02*
X-36205905Y37452334D01*
X-36205905Y37452334D02*
X-36182096Y37476143D01*
X-36182096Y37476143D02*
X-36134477Y37499953D01*
X-36134477Y37499953D02*
X-36015429Y37499953D01*
X-36015429Y37499953D02*
X-35967810Y37476143D01*
X-35967810Y37476143D02*
X-35944000Y37452334D01*
X-35944000Y37452334D02*
X-35920191Y37404715D01*
X-35920191Y37404715D02*
X-35920191Y37285667D01*
X-35920191Y37285667D02*
X-35944000Y37238048D01*
X-35944000Y37238048D02*
X-35967810Y37214239D01*
%TO.C,C16*%
X-36897810Y36567572D02*
X-36874000Y36543763D01*
X-36874000Y36543763D02*
X-36850191Y36472334D01*
X-36850191Y36472334D02*
X-36850191Y36424715D01*
X-36850191Y36424715D02*
X-36874000Y36353287D01*
X-36874000Y36353287D02*
X-36921620Y36305668D01*
X-36921620Y36305668D02*
X-36969239Y36281858D01*
X-36969239Y36281858D02*
X-37064477Y36258049D01*
X-37064477Y36258049D02*
X-37135905Y36258049D01*
X-37135905Y36258049D02*
X-37231143Y36281858D01*
X-37231143Y36281858D02*
X-37278762Y36305668D01*
X-37278762Y36305668D02*
X-37326381Y36353287D01*
X-37326381Y36353287D02*
X-37350191Y36424715D01*
X-37350191Y36424715D02*
X-37350191Y36472334D01*
X-37350191Y36472334D02*
X-37326381Y36543763D01*
X-37326381Y36543763D02*
X-37302572Y36567572D01*
X-36850191Y37043763D02*
X-36850191Y36758049D01*
X-36850191Y36900906D02*
X-37350191Y36900906D01*
X-37350191Y36900906D02*
X-37278762Y36853287D01*
X-37278762Y36853287D02*
X-37231143Y36805668D01*
X-37231143Y36805668D02*
X-37207334Y36758049D01*
X-37350191Y37472334D02*
X-37350191Y37377096D01*
X-37350191Y37377096D02*
X-37326381Y37329477D01*
X-37326381Y37329477D02*
X-37302572Y37305667D01*
X-37302572Y37305667D02*
X-37231143Y37258048D01*
X-37231143Y37258048D02*
X-37135905Y37234239D01*
X-37135905Y37234239D02*
X-36945429Y37234239D01*
X-36945429Y37234239D02*
X-36897810Y37258048D01*
X-36897810Y37258048D02*
X-36874000Y37281858D01*
X-36874000Y37281858D02*
X-36850191Y37329477D01*
X-36850191Y37329477D02*
X-36850191Y37424715D01*
X-36850191Y37424715D02*
X-36874000Y37472334D01*
X-36874000Y37472334D02*
X-36897810Y37496143D01*
X-36897810Y37496143D02*
X-36945429Y37519953D01*
X-36945429Y37519953D02*
X-37064477Y37519953D01*
X-37064477Y37519953D02*
X-37112096Y37496143D01*
X-37112096Y37496143D02*
X-37135905Y37472334D01*
X-37135905Y37472334D02*
X-37159715Y37424715D01*
X-37159715Y37424715D02*
X-37159715Y37329477D01*
X-37159715Y37329477D02*
X-37135905Y37281858D01*
X-37135905Y37281858D02*
X-37112096Y37258048D01*
X-37112096Y37258048D02*
X-37064477Y37234239D01*
%TO.C,C2*%
X-41182191Y22982334D02*
X-41206000Y23006143D01*
X-41206000Y23006143D02*
X-41229810Y23077572D01*
X-41229810Y23077572D02*
X-41229810Y23125191D01*
X-41229810Y23125191D02*
X-41206000Y23196619D01*
X-41206000Y23196619D02*
X-41158381Y23244238D01*
X-41158381Y23244238D02*
X-41110762Y23268048D01*
X-41110762Y23268048D02*
X-41015524Y23291857D01*
X-41015524Y23291857D02*
X-40944096Y23291857D01*
X-40944096Y23291857D02*
X-40848858Y23268048D01*
X-40848858Y23268048D02*
X-40801239Y23244238D01*
X-40801239Y23244238D02*
X-40753620Y23196619D01*
X-40753620Y23196619D02*
X-40729810Y23125191D01*
X-40729810Y23125191D02*
X-40729810Y23077572D01*
X-40729810Y23077572D02*
X-40753620Y23006143D01*
X-40753620Y23006143D02*
X-40777429Y22982334D01*
X-40777429Y22791857D02*
X-40753620Y22768048D01*
X-40753620Y22768048D02*
X-40729810Y22720429D01*
X-40729810Y22720429D02*
X-40729810Y22601381D01*
X-40729810Y22601381D02*
X-40753620Y22553762D01*
X-40753620Y22553762D02*
X-40777429Y22529953D01*
X-40777429Y22529953D02*
X-40825048Y22506143D01*
X-40825048Y22506143D02*
X-40872667Y22506143D01*
X-40872667Y22506143D02*
X-40944096Y22529953D01*
X-40944096Y22529953D02*
X-41229810Y22815667D01*
X-41229810Y22815667D02*
X-41229810Y22506143D01*
%TO.C,C7*%
X-41827810Y37545667D02*
X-41804000Y37521858D01*
X-41804000Y37521858D02*
X-41780191Y37450429D01*
X-41780191Y37450429D02*
X-41780191Y37402810D01*
X-41780191Y37402810D02*
X-41804000Y37331382D01*
X-41804000Y37331382D02*
X-41851620Y37283763D01*
X-41851620Y37283763D02*
X-41899239Y37259953D01*
X-41899239Y37259953D02*
X-41994477Y37236144D01*
X-41994477Y37236144D02*
X-42065905Y37236144D01*
X-42065905Y37236144D02*
X-42161143Y37259953D01*
X-42161143Y37259953D02*
X-42208762Y37283763D01*
X-42208762Y37283763D02*
X-42256381Y37331382D01*
X-42256381Y37331382D02*
X-42280191Y37402810D01*
X-42280191Y37402810D02*
X-42280191Y37450429D01*
X-42280191Y37450429D02*
X-42256381Y37521858D01*
X-42256381Y37521858D02*
X-42232572Y37545667D01*
X-42280191Y37712334D02*
X-42280191Y38045667D01*
X-42280191Y38045667D02*
X-41780191Y37831382D01*
%TO.C,C5*%
X-45608334Y45981810D02*
X-45632143Y45958000D01*
X-45632143Y45958000D02*
X-45703572Y45934191D01*
X-45703572Y45934191D02*
X-45751191Y45934191D01*
X-45751191Y45934191D02*
X-45822619Y45958000D01*
X-45822619Y45958000D02*
X-45870238Y46005620D01*
X-45870238Y46005620D02*
X-45894048Y46053239D01*
X-45894048Y46053239D02*
X-45917857Y46148477D01*
X-45917857Y46148477D02*
X-45917857Y46219905D01*
X-45917857Y46219905D02*
X-45894048Y46315143D01*
X-45894048Y46315143D02*
X-45870238Y46362762D01*
X-45870238Y46362762D02*
X-45822619Y46410381D01*
X-45822619Y46410381D02*
X-45751191Y46434191D01*
X-45751191Y46434191D02*
X-45703572Y46434191D01*
X-45703572Y46434191D02*
X-45632143Y46410381D01*
X-45632143Y46410381D02*
X-45608334Y46386572D01*
X-45155953Y46434191D02*
X-45394048Y46434191D01*
X-45394048Y46434191D02*
X-45417857Y46196096D01*
X-45417857Y46196096D02*
X-45394048Y46219905D01*
X-45394048Y46219905D02*
X-45346429Y46243715D01*
X-45346429Y46243715D02*
X-45227381Y46243715D01*
X-45227381Y46243715D02*
X-45179762Y46219905D01*
X-45179762Y46219905D02*
X-45155953Y46196096D01*
X-45155953Y46196096D02*
X-45132143Y46148477D01*
X-45132143Y46148477D02*
X-45132143Y46029429D01*
X-45132143Y46029429D02*
X-45155953Y45981810D01*
X-45155953Y45981810D02*
X-45179762Y45958000D01*
X-45179762Y45958000D02*
X-45227381Y45934191D01*
X-45227381Y45934191D02*
X-45346429Y45934191D01*
X-45346429Y45934191D02*
X-45394048Y45958000D01*
X-45394048Y45958000D02*
X-45417857Y45981810D01*
%TO.C,C1*%
X-46188334Y56291810D02*
X-46212143Y56268000D01*
X-46212143Y56268000D02*
X-46283572Y56244191D01*
X-46283572Y56244191D02*
X-46331191Y56244191D01*
X-46331191Y56244191D02*
X-46402619Y56268000D01*
X-46402619Y56268000D02*
X-46450238Y56315620D01*
X-46450238Y56315620D02*
X-46474048Y56363239D01*
X-46474048Y56363239D02*
X-46497857Y56458477D01*
X-46497857Y56458477D02*
X-46497857Y56529905D01*
X-46497857Y56529905D02*
X-46474048Y56625143D01*
X-46474048Y56625143D02*
X-46450238Y56672762D01*
X-46450238Y56672762D02*
X-46402619Y56720381D01*
X-46402619Y56720381D02*
X-46331191Y56744191D01*
X-46331191Y56744191D02*
X-46283572Y56744191D01*
X-46283572Y56744191D02*
X-46212143Y56720381D01*
X-46212143Y56720381D02*
X-46188334Y56696572D01*
X-45712143Y56244191D02*
X-45997857Y56244191D01*
X-45855000Y56244191D02*
X-45855000Y56744191D01*
X-45855000Y56744191D02*
X-45902619Y56672762D01*
X-45902619Y56672762D02*
X-45950238Y56625143D01*
X-45950238Y56625143D02*
X-45997857Y56601334D01*
%TO.C,C6*%
X-38013334Y22621810D02*
X-38037143Y22598000D01*
X-38037143Y22598000D02*
X-38108572Y22574191D01*
X-38108572Y22574191D02*
X-38156191Y22574191D01*
X-38156191Y22574191D02*
X-38227619Y22598000D01*
X-38227619Y22598000D02*
X-38275238Y22645620D01*
X-38275238Y22645620D02*
X-38299048Y22693239D01*
X-38299048Y22693239D02*
X-38322857Y22788477D01*
X-38322857Y22788477D02*
X-38322857Y22859905D01*
X-38322857Y22859905D02*
X-38299048Y22955143D01*
X-38299048Y22955143D02*
X-38275238Y23002762D01*
X-38275238Y23002762D02*
X-38227619Y23050381D01*
X-38227619Y23050381D02*
X-38156191Y23074191D01*
X-38156191Y23074191D02*
X-38108572Y23074191D01*
X-38108572Y23074191D02*
X-38037143Y23050381D01*
X-38037143Y23050381D02*
X-38013334Y23026572D01*
X-37584762Y23074191D02*
X-37680000Y23074191D01*
X-37680000Y23074191D02*
X-37727619Y23050381D01*
X-37727619Y23050381D02*
X-37751429Y23026572D01*
X-37751429Y23026572D02*
X-37799048Y22955143D01*
X-37799048Y22955143D02*
X-37822857Y22859905D01*
X-37822857Y22859905D02*
X-37822857Y22669429D01*
X-37822857Y22669429D02*
X-37799048Y22621810D01*
X-37799048Y22621810D02*
X-37775238Y22598000D01*
X-37775238Y22598000D02*
X-37727619Y22574191D01*
X-37727619Y22574191D02*
X-37632381Y22574191D01*
X-37632381Y22574191D02*
X-37584762Y22598000D01*
X-37584762Y22598000D02*
X-37560953Y22621810D01*
X-37560953Y22621810D02*
X-37537143Y22669429D01*
X-37537143Y22669429D02*
X-37537143Y22788477D01*
X-37537143Y22788477D02*
X-37560953Y22836096D01*
X-37560953Y22836096D02*
X-37584762Y22859905D01*
X-37584762Y22859905D02*
X-37632381Y22883715D01*
X-37632381Y22883715D02*
X-37727619Y22883715D01*
X-37727619Y22883715D02*
X-37775238Y22859905D01*
X-37775238Y22859905D02*
X-37799048Y22836096D01*
X-37799048Y22836096D02*
X-37822857Y22788477D01*
%TO.C,C14*%
X-35017810Y35907572D02*
X-34994000Y35883763D01*
X-34994000Y35883763D02*
X-34970191Y35812334D01*
X-34970191Y35812334D02*
X-34970191Y35764715D01*
X-34970191Y35764715D02*
X-34994000Y35693287D01*
X-34994000Y35693287D02*
X-35041620Y35645668D01*
X-35041620Y35645668D02*
X-35089239Y35621858D01*
X-35089239Y35621858D02*
X-35184477Y35598049D01*
X-35184477Y35598049D02*
X-35255905Y35598049D01*
X-35255905Y35598049D02*
X-35351143Y35621858D01*
X-35351143Y35621858D02*
X-35398762Y35645668D01*
X-35398762Y35645668D02*
X-35446381Y35693287D01*
X-35446381Y35693287D02*
X-35470191Y35764715D01*
X-35470191Y35764715D02*
X-35470191Y35812334D01*
X-35470191Y35812334D02*
X-35446381Y35883763D01*
X-35446381Y35883763D02*
X-35422572Y35907572D01*
X-34970191Y36383763D02*
X-34970191Y36098049D01*
X-34970191Y36240906D02*
X-35470191Y36240906D01*
X-35470191Y36240906D02*
X-35398762Y36193287D01*
X-35398762Y36193287D02*
X-35351143Y36145668D01*
X-35351143Y36145668D02*
X-35327334Y36098049D01*
X-35303524Y36812334D02*
X-34970191Y36812334D01*
X-35494000Y36693286D02*
X-35136858Y36574239D01*
X-35136858Y36574239D02*
X-35136858Y36883762D01*
%TO.C,R8*%
X-35338334Y23924191D02*
X-35505000Y24162286D01*
X-35624048Y23924191D02*
X-35624048Y24424191D01*
X-35624048Y24424191D02*
X-35433572Y24424191D01*
X-35433572Y24424191D02*
X-35385953Y24400381D01*
X-35385953Y24400381D02*
X-35362143Y24376572D01*
X-35362143Y24376572D02*
X-35338334Y24328953D01*
X-35338334Y24328953D02*
X-35338334Y24257524D01*
X-35338334Y24257524D02*
X-35362143Y24209905D01*
X-35362143Y24209905D02*
X-35385953Y24186096D01*
X-35385953Y24186096D02*
X-35433572Y24162286D01*
X-35433572Y24162286D02*
X-35624048Y24162286D01*
X-35052619Y24209905D02*
X-35100238Y24233715D01*
X-35100238Y24233715D02*
X-35124048Y24257524D01*
X-35124048Y24257524D02*
X-35147857Y24305143D01*
X-35147857Y24305143D02*
X-35147857Y24328953D01*
X-35147857Y24328953D02*
X-35124048Y24376572D01*
X-35124048Y24376572D02*
X-35100238Y24400381D01*
X-35100238Y24400381D02*
X-35052619Y24424191D01*
X-35052619Y24424191D02*
X-34957381Y24424191D01*
X-34957381Y24424191D02*
X-34909762Y24400381D01*
X-34909762Y24400381D02*
X-34885953Y24376572D01*
X-34885953Y24376572D02*
X-34862143Y24328953D01*
X-34862143Y24328953D02*
X-34862143Y24305143D01*
X-34862143Y24305143D02*
X-34885953Y24257524D01*
X-34885953Y24257524D02*
X-34909762Y24233715D01*
X-34909762Y24233715D02*
X-34957381Y24209905D01*
X-34957381Y24209905D02*
X-35052619Y24209905D01*
X-35052619Y24209905D02*
X-35100238Y24186096D01*
X-35100238Y24186096D02*
X-35124048Y24162286D01*
X-35124048Y24162286D02*
X-35147857Y24114667D01*
X-35147857Y24114667D02*
X-35147857Y24019429D01*
X-35147857Y24019429D02*
X-35124048Y23971810D01*
X-35124048Y23971810D02*
X-35100238Y23948000D01*
X-35100238Y23948000D02*
X-35052619Y23924191D01*
X-35052619Y23924191D02*
X-34957381Y23924191D01*
X-34957381Y23924191D02*
X-34909762Y23948000D01*
X-34909762Y23948000D02*
X-34885953Y23971810D01*
X-34885953Y23971810D02*
X-34862143Y24019429D01*
X-34862143Y24019429D02*
X-34862143Y24114667D01*
X-34862143Y24114667D02*
X-34885953Y24162286D01*
X-34885953Y24162286D02*
X-34909762Y24186096D01*
X-34909762Y24186096D02*
X-34957381Y24209905D01*
%TO.C,R3*%
X-38740191Y38255667D02*
X-38978286Y38089001D01*
X-38740191Y37969953D02*
X-39240191Y37969953D01*
X-39240191Y37969953D02*
X-39240191Y38160429D01*
X-39240191Y38160429D02*
X-39216381Y38208048D01*
X-39216381Y38208048D02*
X-39192572Y38231858D01*
X-39192572Y38231858D02*
X-39144953Y38255667D01*
X-39144953Y38255667D02*
X-39073524Y38255667D01*
X-39073524Y38255667D02*
X-39025905Y38231858D01*
X-39025905Y38231858D02*
X-39002096Y38208048D01*
X-39002096Y38208048D02*
X-38978286Y38160429D01*
X-38978286Y38160429D02*
X-38978286Y37969953D01*
X-39240191Y38422334D02*
X-39240191Y38731858D01*
X-39240191Y38731858D02*
X-39049715Y38565191D01*
X-39049715Y38565191D02*
X-39049715Y38636620D01*
X-39049715Y38636620D02*
X-39025905Y38684239D01*
X-39025905Y38684239D02*
X-39002096Y38708048D01*
X-39002096Y38708048D02*
X-38954477Y38731858D01*
X-38954477Y38731858D02*
X-38835429Y38731858D01*
X-38835429Y38731858D02*
X-38787810Y38708048D01*
X-38787810Y38708048D02*
X-38764000Y38684239D01*
X-38764000Y38684239D02*
X-38740191Y38636620D01*
X-38740191Y38636620D02*
X-38740191Y38493763D01*
X-38740191Y38493763D02*
X-38764000Y38446144D01*
X-38764000Y38446144D02*
X-38787810Y38422334D01*
%TO.C,J2*%
X-37031667Y41144191D02*
X-37031667Y40787048D01*
X-37031667Y40787048D02*
X-37055476Y40715620D01*
X-37055476Y40715620D02*
X-37103095Y40668000D01*
X-37103095Y40668000D02*
X-37174524Y40644191D01*
X-37174524Y40644191D02*
X-37222143Y40644191D01*
X-36817381Y41096572D02*
X-36793572Y41120381D01*
X-36793572Y41120381D02*
X-36745953Y41144191D01*
X-36745953Y41144191D02*
X-36626905Y41144191D01*
X-36626905Y41144191D02*
X-36579286Y41120381D01*
X-36579286Y41120381D02*
X-36555477Y41096572D01*
X-36555477Y41096572D02*
X-36531667Y41048953D01*
X-36531667Y41048953D02*
X-36531667Y41001334D01*
X-36531667Y41001334D02*
X-36555477Y40929905D01*
X-36555477Y40929905D02*
X-36841191Y40644191D01*
X-36841191Y40644191D02*
X-36531667Y40644191D01*
%TO.C,U4*%
X-40560953Y21474191D02*
X-40560953Y21069429D01*
X-40560953Y21069429D02*
X-40537143Y21021810D01*
X-40537143Y21021810D02*
X-40513334Y20998000D01*
X-40513334Y20998000D02*
X-40465715Y20974191D01*
X-40465715Y20974191D02*
X-40370477Y20974191D01*
X-40370477Y20974191D02*
X-40322858Y20998000D01*
X-40322858Y20998000D02*
X-40299048Y21021810D01*
X-40299048Y21021810D02*
X-40275239Y21069429D01*
X-40275239Y21069429D02*
X-40275239Y21474191D01*
X-39822857Y21307524D02*
X-39822857Y20974191D01*
X-39941905Y21498000D02*
X-40060952Y21140858D01*
X-40060952Y21140858D02*
X-39751429Y21140858D01*
D14*
%TO.C,R7*%
X-37640000Y45766164D02*
X-37640000Y45981836D01*
X-36920000Y45766164D02*
X-36920000Y45981836D01*
%TO.C,C12*%
X-39595000Y23056836D02*
X-39595000Y22841164D01*
X-40315000Y23056836D02*
X-40315000Y22841164D01*
%TO.C,R2*%
X-34615000Y21566164D02*
X-34615000Y21781836D01*
X-33895000Y21566164D02*
X-33895000Y21781836D01*
%TO.C,Y1*%
X-42520400Y23683600D02*
X-46120400Y23683600D01*
X-46120400Y23683600D02*
X-46120400Y17933600D01*
X-42520400Y17933600D02*
X-42520400Y23683600D01*
%TO.C,C17*%
X-41365000Y35641164D02*
X-41365000Y35856836D01*
X-40645000Y35641164D02*
X-40645000Y35856836D01*
%TO.C,R4*%
X-37585000Y37056836D02*
X-37585000Y36841164D01*
X-38305000Y37056836D02*
X-38305000Y36841164D01*
%TO.C,U3*%
X-43915000Y25276500D02*
X-43915000Y25926500D01*
X-43265000Y32496500D02*
X-43915000Y32496500D01*
X-43265000Y25276500D02*
X-43915000Y25276500D01*
X-37345000Y32496500D02*
X-36695000Y32496500D01*
X-37345000Y25276500D02*
X-36695000Y25276500D01*
X-36695000Y32496500D02*
X-36695000Y31846500D01*
X-36695000Y25276500D02*
X-36695000Y25926500D01*
%TO.C,R5*%
X-41495000Y20881836D02*
X-41495000Y20666164D01*
X-42215000Y20881836D02*
X-42215000Y20666164D01*
%TO.C,U2*%
X-43865000Y42749000D02*
X-43865000Y39299000D01*
X-43865000Y42749000D02*
X-43865000Y44699000D01*
X-38745000Y42749000D02*
X-38745000Y40799000D01*
X-38745000Y42749000D02*
X-38745000Y44699000D01*
%TO.C,C10*%
X-40365000Y35641164D02*
X-40365000Y35856836D01*
X-39645000Y35641164D02*
X-39645000Y35856836D01*
%TO.C,J1*%
X-36770000Y56869000D02*
X-37270000Y56869000D01*
X-36770000Y56869000D02*
X-36770000Y56369000D01*
X-36920000Y56719000D02*
X-37820000Y56719000D01*
X-36920000Y56719000D02*
X-36920000Y55919000D01*
X-40960000Y56719000D02*
X-40060000Y56719000D01*
X-40960000Y56719000D02*
X-40960000Y55919000D01*
X-36920000Y48179000D02*
X-36920000Y48979000D01*
X-36920000Y48179000D02*
X-37820000Y48179000D01*
X-40960000Y48179000D02*
X-40960000Y48979000D01*
X-40960000Y48179000D02*
X-40060000Y48179000D01*
%TO.C,C8*%
X-38565000Y34441164D02*
X-38565000Y34656836D01*
X-37845000Y34441164D02*
X-37845000Y34656836D01*
%TO.C,C3*%
X-41495000Y18806836D02*
X-41495000Y18591164D01*
X-42215000Y18806836D02*
X-42215000Y18591164D01*
%TO.C,U1*%
X-42445000Y52639000D02*
X-42445000Y54439000D01*
X-42445000Y52639000D02*
X-42445000Y51839000D01*
X-45565000Y52639000D02*
X-45565000Y53439000D01*
X-45565000Y52639000D02*
X-45565000Y51839000D01*
%TO.C,C4*%
X-43743748Y48094000D02*
X-44266252Y48094000D01*
X-43743748Y49564000D02*
X-44266252Y49564000D01*
%TO.C,C13*%
X-34615000Y30141164D02*
X-34615000Y30356836D01*
X-33895000Y30141164D02*
X-33895000Y30356836D01*
%TO.C,C9*%
X-45665000Y34421164D02*
X-45665000Y34636836D01*
X-44945000Y34421164D02*
X-44945000Y34636836D01*
%TO.C,C11*%
X-45545000Y27456836D02*
X-45545000Y27241164D01*
X-46265000Y27456836D02*
X-46265000Y27241164D01*
%TO.C,R6*%
X-34795000Y54381836D02*
X-34795000Y54166164D01*
X-35515000Y54381836D02*
X-35515000Y54166164D01*
%TO.C,R1*%
X-44915000Y43041164D02*
X-44915000Y43256836D01*
X-44195000Y43041164D02*
X-44195000Y43256836D01*
%TO.C,C18*%
X-33945000Y18506836D02*
X-33945000Y18291164D01*
X-34665000Y18506836D02*
X-34665000Y18291164D01*
%TO.C,C15*%
X-36565000Y34441164D02*
X-36565000Y34656836D01*
X-35845000Y34441164D02*
X-35845000Y34656836D01*
%TO.C,C16*%
X-37565000Y34441164D02*
X-37565000Y34656836D01*
X-36845000Y34441164D02*
X-36845000Y34656836D01*
%TO.C,C2*%
X-41495000Y22906836D02*
X-41495000Y22691164D01*
X-42215000Y22906836D02*
X-42215000Y22691164D01*
%TO.C,C7*%
X-42365000Y35641164D02*
X-42365000Y35856836D01*
X-41645000Y35641164D02*
X-41645000Y35856836D01*
%TO.C,C5*%
X-45397164Y46689000D02*
X-45612836Y46689000D01*
X-45397164Y47409000D02*
X-45612836Y47409000D01*
%TO.C,C1*%
X-43743748Y55714000D02*
X-44266252Y55714000D01*
X-43743748Y57184000D02*
X-44266252Y57184000D01*
%TO.C,C6*%
X-38545000Y23056836D02*
X-38545000Y22841164D01*
X-39265000Y23056836D02*
X-39265000Y22841164D01*
%TO.C,C14*%
X-35565000Y34441164D02*
X-35565000Y34656836D01*
X-34845000Y34441164D02*
X-34845000Y34656836D01*
%TO.C,R8*%
X-35615000Y22741164D02*
X-35615000Y22956836D01*
X-34895000Y22741164D02*
X-34895000Y22956836D01*
%TO.C,R3*%
X-38585000Y37056836D02*
X-38585000Y36841164D01*
X-39305000Y37056836D02*
X-39305000Y36841164D01*
%TO.C,J2*%
X-35775000Y41519000D02*
X-36885000Y41519000D01*
X-35775000Y42279000D02*
X-35775000Y41519000D01*
X-35775000Y43039000D02*
X-35775000Y44244000D01*
X-35775000Y43039000D02*
X-36321529Y43039000D01*
X-35775000Y44244000D02*
X-36577470Y44244000D01*
X-37192530Y44244000D02*
X-37995000Y44244000D01*
X-37448471Y43039000D02*
X-37995000Y43039000D01*
X-37995000Y43039000D02*
X-37995000Y44244000D01*
%TO.C,U4*%
X-40140000Y20646500D02*
X-39915000Y20646500D01*
X-35420000Y19921500D02*
X-35420000Y20646500D01*
X-40140000Y19921500D02*
X-40140000Y20646500D01*
X-35420000Y18651500D02*
X-35420000Y17926500D01*
X-40140000Y18651500D02*
X-40140000Y17926500D01*
X-35420000Y17926500D02*
X-35645000Y17926500D01*
X-40140000Y17926500D02*
X-39915000Y17926500D01*
%TD*%
%LPC*%
D15*
%TO.C,R7*%
X-37280000Y45394000D03*
X-37280000Y46354000D03*
%TD*%
D16*
%TO.C,C12*%
X-39955000Y23429000D03*
X-39955000Y22469000D03*
%TD*%
D15*
%TO.C,R2*%
X-34255000Y21194000D03*
X-34255000Y22154000D03*
%TD*%
D17*
%TO.C,Y1*%
X-44320400Y22483600D03*
X-44320400Y18783600D03*
%TD*%
D15*
%TO.C,C17*%
X-41005000Y35269000D03*
X-41005000Y36229000D03*
%TD*%
D16*
%TO.C,R4*%
X-37945000Y37429000D03*
X-37945000Y36469000D03*
%TD*%
D18*
%TO.C,U3*%
X-43742500Y31486500D03*
X-43742500Y31086500D03*
X-43742500Y30686500D03*
X-43742500Y30286500D03*
X-43742500Y29886500D03*
X-43742500Y29486500D03*
X-43742500Y29086500D03*
X-43742500Y28686500D03*
X-43742500Y28286500D03*
X-43742500Y27886500D03*
X-43742500Y27486500D03*
X-43742500Y27086500D03*
X-43742500Y26686500D03*
X-43742500Y26286500D03*
D19*
X-42905000Y25449000D03*
X-42505000Y25449000D03*
X-42105000Y25449000D03*
X-41705000Y25449000D03*
X-41305000Y25449000D03*
X-40905000Y25449000D03*
X-40505000Y25449000D03*
X-40105000Y25449000D03*
X-39705000Y25449000D03*
X-39305000Y25449000D03*
X-38905000Y25449000D03*
X-38505000Y25449000D03*
X-38105000Y25449000D03*
X-37705000Y25449000D03*
D18*
X-36867500Y26286500D03*
X-36867500Y26686500D03*
X-36867500Y27086500D03*
X-36867500Y27486500D03*
X-36867500Y27886500D03*
X-36867500Y28286500D03*
X-36867500Y28686500D03*
X-36867500Y29086500D03*
X-36867500Y29486500D03*
X-36867500Y29886500D03*
X-36867500Y30286500D03*
X-36867500Y30686500D03*
X-36867500Y31086500D03*
X-36867500Y31486500D03*
D19*
X-37705000Y32324000D03*
X-38105000Y32324000D03*
X-38505000Y32324000D03*
X-38905000Y32324000D03*
X-39305000Y32324000D03*
X-39705000Y32324000D03*
X-40105000Y32324000D03*
X-40505000Y32324000D03*
X-40905000Y32324000D03*
X-41305000Y32324000D03*
X-41705000Y32324000D03*
X-42105000Y32324000D03*
X-42505000Y32324000D03*
X-42905000Y32324000D03*
D20*
X-40305000Y28886500D03*
%TD*%
D16*
%TO.C,R5*%
X-41855000Y21254000D03*
X-41855000Y20294000D03*
%TD*%
D21*
%TO.C,U2*%
X-43210000Y40274000D03*
X-41940000Y40274000D03*
X-40670000Y40274000D03*
X-39400000Y40274000D03*
X-39400000Y45224000D03*
X-40670000Y45224000D03*
X-41940000Y45224000D03*
X-43210000Y45224000D03*
%TD*%
D15*
%TO.C,C10*%
X-40005000Y35269000D03*
X-40005000Y36229000D03*
%TD*%
D22*
%TO.C,J1*%
X-38940000Y56199000D03*
D23*
X-38940000Y48699000D03*
D24*
X-38180000Y55229000D03*
X-38180000Y54439000D03*
X-38180000Y53649000D03*
X-38180000Y52859000D03*
X-38180000Y52069000D03*
X-38180000Y51279000D03*
X-38180000Y50489000D03*
X-38180000Y49699000D03*
X-39700000Y49699000D03*
X-39700000Y50489000D03*
X-39700000Y51279000D03*
X-39700000Y52069000D03*
X-39700000Y52859000D03*
X-39700000Y53649000D03*
X-39700000Y54439000D03*
X-39700000Y55229000D03*
D25*
X-36790000Y54849000D03*
X-41090000Y54849000D03*
X-36790000Y50049000D03*
X-41090000Y50049000D03*
%TD*%
D15*
%TO.C,C8*%
X-38205000Y34069000D03*
X-38205000Y35029000D03*
%TD*%
D16*
%TO.C,C3*%
X-41855000Y19179000D03*
X-41855000Y18219000D03*
%TD*%
D26*
%TO.C,U1*%
X-43055000Y53776500D03*
X-44005000Y53776500D03*
X-44955000Y53776500D03*
X-44955000Y51501500D03*
X-43055000Y51501500D03*
%TD*%
D27*
%TO.C,C4*%
X-43055000Y48829000D03*
X-44955000Y48829000D03*
%TD*%
D15*
%TO.C,C13*%
X-34255000Y29769000D03*
X-34255000Y30729000D03*
%TD*%
%TO.C,C9*%
X-45305000Y34049000D03*
X-45305000Y35009000D03*
%TD*%
D16*
%TO.C,C11*%
X-45905000Y27829000D03*
X-45905000Y26869000D03*
%TD*%
%TO.C,R6*%
X-35155000Y54754000D03*
X-35155000Y53794000D03*
%TD*%
D15*
%TO.C,R1*%
X-44555000Y42669000D03*
X-44555000Y43629000D03*
%TD*%
D16*
%TO.C,C18*%
X-34305000Y18879000D03*
X-34305000Y17919000D03*
%TD*%
D15*
%TO.C,C15*%
X-36205000Y34069000D03*
X-36205000Y35029000D03*
%TD*%
%TO.C,C16*%
X-37205000Y34069000D03*
X-37205000Y35029000D03*
%TD*%
D16*
%TO.C,C2*%
X-41855000Y23279000D03*
X-41855000Y22319000D03*
%TD*%
D15*
%TO.C,C7*%
X-42005000Y35269000D03*
X-42005000Y36229000D03*
%TD*%
D28*
%TO.C,C5*%
X-45025000Y47049000D03*
X-45985000Y47049000D03*
%TD*%
D27*
%TO.C,C1*%
X-43055000Y56449000D03*
X-44955000Y56449000D03*
%TD*%
D16*
%TO.C,C6*%
X-38905000Y23429000D03*
X-38905000Y22469000D03*
%TD*%
D15*
%TO.C,C14*%
X-35205000Y34069000D03*
X-35205000Y35029000D03*
%TD*%
%TO.C,R8*%
X-35255000Y22369000D03*
X-35255000Y23329000D03*
%TD*%
D16*
%TO.C,R3*%
X-38945000Y37429000D03*
X-38945000Y36469000D03*
%TD*%
D29*
%TO.C,J2*%
X-36885000Y42279000D03*
D30*
X-36885000Y43549000D03*
%TD*%
D31*
%TO.C,U4*%
X-35592500Y19536500D03*
D32*
X-36030000Y20474000D03*
X-36530000Y20474000D03*
X-37030000Y20474000D03*
X-37530000Y20474000D03*
X-38030000Y20474000D03*
X-38530000Y20474000D03*
X-39030000Y20474000D03*
X-39530000Y20474000D03*
D31*
X-39967500Y19536500D03*
X-39967500Y19036500D03*
D32*
X-39530000Y18099000D03*
X-39030000Y18099000D03*
X-38530000Y18099000D03*
X-38030000Y18099000D03*
X-37530000Y18099000D03*
X-37030000Y18099000D03*
X-36530000Y18099000D03*
X-36030000Y18099000D03*
D31*
X-35592500Y19036500D03*
D33*
X-37780000Y19286500D03*
%TD*%
D34*
%TO.C,J4*%
X-32766000Y55718000D03*
D35*
X-32766000Y53178000D03*
X-32766000Y50638000D03*
X-32766000Y48098000D03*
X-32766000Y45558000D03*
X-32766000Y43018000D03*
X-32766000Y40478000D03*
X-32766000Y37938000D03*
X-32766000Y35398000D03*
X-32766000Y32858000D03*
X-32766000Y30318000D03*
X-32766000Y27778000D03*
X-32766000Y25238000D03*
X-32766000Y22698000D03*
X-32766000Y20158000D03*
X-32766000Y17618000D03*
%TD*%
D34*
%TO.C,J3*%
X-48205000Y55749000D03*
D35*
X-48205000Y53209000D03*
X-48205000Y50669000D03*
X-48205000Y48129000D03*
X-48205000Y45589000D03*
X-48205000Y43049000D03*
X-48205000Y40509000D03*
X-48205000Y37969000D03*
X-48205000Y35429000D03*
X-48205000Y32889000D03*
X-48205000Y30349000D03*
X-48205000Y27809000D03*
X-48205000Y25269000D03*
X-48205000Y22729000D03*
X-48205000Y20189000D03*
X-48205000Y17649000D03*
%TD*%
%LPD*%
M02*
