%TF.GenerationSoftware,KiCad,Pcbnew,7.0.5-0*%
%TF.CreationDate,2023-06-29T21:31:29-07:00*%
%TF.ProjectId,PicoROM,5069636f-524f-44d2-9e6b-696361645f70,REV1*%
%TF.SameCoordinates,Original*%
%TF.FileFunction,Copper,L1,Top*%
%TF.FilePolarity,Positive*%
%FSLAX46Y46*%
G04 Gerber Fmt 4.6, Leading zero omitted, Abs format (unit mm)*
G04 Created by KiCad (PCBNEW 7.0.5-0) date 2023-06-29 21:31:29*
%MOMM*%
%LPD*%
G01*
G04 APERTURE LIST*
G04 Aperture macros list*
%AMRoundRect*
0 Rectangle with rounded corners*
0 $1 Rounding radius*
0 $2 $3 $4 $5 $6 $7 $8 $9 X,Y pos of 4 corners*
0 Add a 4 corners polygon primitive as box body*
4,1,4,$2,$3,$4,$5,$6,$7,$8,$9,$2,$3,0*
0 Add four circle primitives for the rounded corners*
1,1,$1+$1,$2,$3*
1,1,$1+$1,$4,$5*
1,1,$1+$1,$6,$7*
1,1,$1+$1,$8,$9*
0 Add four rect primitives between the rounded corners*
20,1,$1+$1,$2,$3,$4,$5,0*
20,1,$1+$1,$4,$5,$6,$7,0*
20,1,$1+$1,$6,$7,$8,$9,0*
20,1,$1+$1,$8,$9,$2,$3,0*%
G04 Aperture macros list end*
%TA.AperFunction,SMDPad,CuDef*%
%ADD10RoundRect,0.140000X0.170000X-0.140000X0.170000X0.140000X-0.170000X0.140000X-0.170000X-0.140000X0*%
%TD*%
%TA.AperFunction,SMDPad,CuDef*%
%ADD11RoundRect,0.140000X-0.170000X0.140000X-0.170000X-0.140000X0.170000X-0.140000X0.170000X0.140000X0*%
%TD*%
%TA.AperFunction,SMDPad,CuDef*%
%ADD12R,2.400000X2.000000*%
%TD*%
%TA.AperFunction,SMDPad,CuDef*%
%ADD13RoundRect,0.050000X-0.387500X-0.050000X0.387500X-0.050000X0.387500X0.050000X-0.387500X0.050000X0*%
%TD*%
%TA.AperFunction,SMDPad,CuDef*%
%ADD14RoundRect,0.050000X-0.050000X-0.387500X0.050000X-0.387500X0.050000X0.387500X-0.050000X0.387500X0*%
%TD*%
%TA.AperFunction,ComponentPad*%
%ADD15C,0.600000*%
%TD*%
%TA.AperFunction,SMDPad,CuDef*%
%ADD16RoundRect,0.144000X-1.456000X-1.456000X1.456000X-1.456000X1.456000X1.456000X-1.456000X1.456000X0*%
%TD*%
%TA.AperFunction,SMDPad,CuDef*%
%ADD17RoundRect,0.150000X0.150000X-0.825000X0.150000X0.825000X-0.150000X0.825000X-0.150000X-0.825000X0*%
%TD*%
%TA.AperFunction,SMDPad,CuDef*%
%ADD18RoundRect,0.075000X-0.425000X0.075000X-0.425000X-0.075000X0.425000X-0.075000X0.425000X0.075000X0*%
%TD*%
%TA.AperFunction,ComponentPad*%
%ADD19C,1.100000*%
%TD*%
%TA.AperFunction,SMDPad,CuDef*%
%ADD20RoundRect,0.150000X-0.150000X0.512500X-0.150000X-0.512500X0.150000X-0.512500X0.150000X0.512500X0*%
%TD*%
%TA.AperFunction,SMDPad,CuDef*%
%ADD21RoundRect,0.250000X0.250000X0.475000X-0.250000X0.475000X-0.250000X-0.475000X0.250000X-0.475000X0*%
%TD*%
%TA.AperFunction,SMDPad,CuDef*%
%ADD22RoundRect,0.140000X0.140000X0.170000X-0.140000X0.170000X-0.140000X-0.170000X0.140000X-0.170000X0*%
%TD*%
%TA.AperFunction,ComponentPad*%
%ADD23R,1.000000X1.000000*%
%TD*%
%TA.AperFunction,ComponentPad*%
%ADD24O,1.000000X1.000000*%
%TD*%
%TA.AperFunction,SMDPad,CuDef*%
%ADD25RoundRect,0.062500X-0.350000X0.062500X-0.350000X-0.062500X0.350000X-0.062500X0.350000X0.062500X0*%
%TD*%
%TA.AperFunction,SMDPad,CuDef*%
%ADD26RoundRect,0.062500X-0.062500X0.350000X-0.062500X-0.350000X0.062500X-0.350000X0.062500X0.350000X0*%
%TD*%
%TA.AperFunction,SMDPad,CuDef*%
%ADD27R,3.000000X1.000000*%
%TD*%
%TA.AperFunction,ComponentPad*%
%ADD28C,1.700000*%
%TD*%
%TA.AperFunction,ComponentPad*%
%ADD29O,1.700000X1.700000*%
%TD*%
%TA.AperFunction,ViaPad*%
%ADD30C,0.500000*%
%TD*%
%TA.AperFunction,Conductor*%
%ADD31C,0.150000*%
%TD*%
%TA.AperFunction,Conductor*%
%ADD32C,0.300000*%
%TD*%
%TA.AperFunction,Conductor*%
%ADD33C,0.200000*%
%TD*%
%TA.AperFunction,Conductor*%
%ADD34C,0.600000*%
%TD*%
%TA.AperFunction,Conductor*%
%ADD35C,0.176500*%
%TD*%
%TA.AperFunction,Conductor*%
%ADD36C,0.175600*%
%TD*%
G04 APERTURE END LIST*
D10*
%TO.P,R7,1*%
%TO.N,GND*%
X-37280000Y45394000D03*
%TO.P,R7,2*%
%TO.N,Net-(J1-CC2)*%
X-37280000Y46354000D03*
%TD*%
D11*
%TO.P,C12,1*%
%TO.N,+3V3*%
X-39955000Y23429000D03*
%TO.P,C12,2*%
%TO.N,GND*%
X-39955000Y22469000D03*
%TD*%
D10*
%TO.P,R2,1*%
%TO.N,/VCC_SEL*%
X-34255000Y21194000D03*
%TO.P,R2,2*%
%TO.N,+3V3*%
X-34255000Y22154000D03*
%TD*%
D12*
%TO.P,Y1,1,1*%
%TO.N,/XIN*%
X-44320400Y22483600D03*
%TO.P,Y1,2,2*%
%TO.N,Net-(C3-Pad1)*%
X-44320400Y18783600D03*
%TD*%
D10*
%TO.P,C17,1*%
%TO.N,+3V3*%
X-41005000Y35269000D03*
%TO.P,C17,2*%
%TO.N,GND*%
X-41005000Y36229000D03*
%TD*%
D11*
%TO.P,R4,1*%
%TO.N,/USB_D-*%
X-37945000Y37429000D03*
%TO.P,R4,2*%
%TO.N,Net-(U3-USB_DM)*%
X-37945000Y36469000D03*
%TD*%
D13*
%TO.P,U3,1,IOVDD*%
%TO.N,+3V3*%
X-43742500Y31486500D03*
%TO.P,U3,2,GPIO0*%
%TO.N,/A0*%
X-43742500Y31086500D03*
%TO.P,U3,3,GPIO1*%
%TO.N,/A1*%
X-43742500Y30686500D03*
%TO.P,U3,4,GPIO2*%
%TO.N,/A2*%
X-43742500Y30286500D03*
%TO.P,U3,5,GPIO3*%
%TO.N,/A3*%
X-43742500Y29886500D03*
%TO.P,U3,6,GPIO4*%
%TO.N,/A4*%
X-43742500Y29486500D03*
%TO.P,U3,7,GPIO5*%
%TO.N,/A5*%
X-43742500Y29086500D03*
%TO.P,U3,8,GPIO6*%
%TO.N,/A6*%
X-43742500Y28686500D03*
%TO.P,U3,9,GPIO7*%
%TO.N,/A7*%
X-43742500Y28286500D03*
%TO.P,U3,10,IOVDD*%
%TO.N,+3V3*%
X-43742500Y27886500D03*
%TO.P,U3,11,GPIO8*%
%TO.N,/A8*%
X-43742500Y27486500D03*
%TO.P,U3,12,GPIO9*%
%TO.N,/A9*%
X-43742500Y27086500D03*
%TO.P,U3,13,GPIO10*%
%TO.N,/A10*%
X-43742500Y26686500D03*
%TO.P,U3,14,GPIO11*%
%TO.N,/A11*%
X-43742500Y26286500D03*
D14*
%TO.P,U3,15,GPIO12*%
%TO.N,/A12*%
X-42905000Y25449000D03*
%TO.P,U3,16,GPIO13*%
%TO.N,/A13*%
X-42505000Y25449000D03*
%TO.P,U3,17,GPIO14*%
%TO.N,/A14*%
X-42105000Y25449000D03*
%TO.P,U3,18,GPIO15*%
%TO.N,/A15*%
X-41705000Y25449000D03*
%TO.P,U3,19,TESTEN*%
%TO.N,GND*%
X-41305000Y25449000D03*
%TO.P,U3,20,XIN*%
%TO.N,/XIN*%
X-40905000Y25449000D03*
%TO.P,U3,21,XOUT*%
%TO.N,/XOUT*%
X-40505000Y25449000D03*
%TO.P,U3,22,IOVDD*%
%TO.N,+3V3*%
X-40105000Y25449000D03*
%TO.P,U3,23,DVDD*%
%TO.N,+1V1*%
X-39705000Y25449000D03*
%TO.P,U3,24,SWCLK*%
%TO.N,unconnected-(U3-SWCLK-Pad24)*%
X-39305000Y25449000D03*
%TO.P,U3,25,SWD*%
%TO.N,unconnected-(U3-SWD-Pad25)*%
X-38905000Y25449000D03*
%TO.P,U3,26,RUN*%
%TO.N,unconnected-(U3-RUN-Pad26)*%
X-38505000Y25449000D03*
%TO.P,U3,27,GPIO16*%
%TO.N,/A16*%
X-38105000Y25449000D03*
%TO.P,U3,28,GPIO17*%
%TO.N,/A17*%
X-37705000Y25449000D03*
D13*
%TO.P,U3,29,GPIO18*%
%TO.N,/A18*%
X-36867500Y26286500D03*
%TO.P,U3,30,GPIO19*%
%TO.N,/~{BUF_OE}*%
X-36867500Y26686500D03*
%TO.P,U3,31,GPIO20*%
%TO.N,/~{OE}*%
X-36867500Y27086500D03*
%TO.P,U3,32,GPIO21*%
%TO.N,/~{CE}*%
X-36867500Y27486500D03*
%TO.P,U3,33,IOVDD*%
%TO.N,+3V3*%
X-36867500Y27886500D03*
%TO.P,U3,34,GPIO22*%
%TO.N,/D0*%
X-36867500Y28286500D03*
%TO.P,U3,35,GPIO23*%
%TO.N,/D1*%
X-36867500Y28686500D03*
%TO.P,U3,36,GPIO24*%
%TO.N,/D2*%
X-36867500Y29086500D03*
%TO.P,U3,37,GPIO25*%
%TO.N,/D3*%
X-36867500Y29486500D03*
%TO.P,U3,38,GPIO26_ADC0*%
%TO.N,/D4*%
X-36867500Y29886500D03*
%TO.P,U3,39,GPIO27_ADC1*%
%TO.N,/D5*%
X-36867500Y30286500D03*
%TO.P,U3,40,GPIO28_ADC2*%
%TO.N,/D6*%
X-36867500Y30686500D03*
%TO.P,U3,41,GPIO29_ADC3*%
%TO.N,/D7*%
X-36867500Y31086500D03*
%TO.P,U3,42,IOVDD*%
%TO.N,+3V3*%
X-36867500Y31486500D03*
D14*
%TO.P,U3,43,ADC_AVDD*%
X-37705000Y32324000D03*
%TO.P,U3,44,VREG_IN*%
X-38105000Y32324000D03*
%TO.P,U3,45,VREG_VOUT*%
%TO.N,+1V1*%
X-38505000Y32324000D03*
%TO.P,U3,46,USB_DM*%
%TO.N,Net-(U3-USB_DM)*%
X-38905000Y32324000D03*
%TO.P,U3,47,USB_DP*%
%TO.N,Net-(U3-USB_DP)*%
X-39305000Y32324000D03*
%TO.P,U3,48,USB_VDD*%
%TO.N,+3V3*%
X-39705000Y32324000D03*
%TO.P,U3,49,IOVDD*%
X-40105000Y32324000D03*
%TO.P,U3,50,DVDD*%
%TO.N,+1V1*%
X-40505000Y32324000D03*
%TO.P,U3,51,QSPI_SD3*%
%TO.N,/QSPI_SD3*%
X-40905000Y32324000D03*
%TO.P,U3,52,QSPI_SCLK*%
%TO.N,/QSPI_SCLK*%
X-41305000Y32324000D03*
%TO.P,U3,53,QSPI_SD0*%
%TO.N,/QSPI_SD0*%
X-41705000Y32324000D03*
%TO.P,U3,54,QSPI_SD2*%
%TO.N,/QSPI_SD2*%
X-42105000Y32324000D03*
%TO.P,U3,55,QSPI_SD1*%
%TO.N,/QSPI_SD1*%
X-42505000Y32324000D03*
%TO.P,U3,56,QSPI_SS*%
%TO.N,/QSPI_SS*%
X-42905000Y32324000D03*
D15*
%TO.P,U3,57,GND*%
%TO.N,GND*%
X-41580000Y30161500D03*
X-41580000Y28886500D03*
X-41580000Y27611500D03*
X-40305000Y30161500D03*
X-40305000Y28886500D03*
D16*
X-40305000Y28886500D03*
D15*
X-40305000Y27611500D03*
X-39030000Y30161500D03*
X-39030000Y28886500D03*
X-39030000Y27611500D03*
%TD*%
D11*
%TO.P,R5,1*%
%TO.N,/XOUT*%
X-41855000Y21254000D03*
%TO.P,R5,2*%
%TO.N,Net-(C3-Pad1)*%
X-41855000Y20294000D03*
%TD*%
D17*
%TO.P,U2,1,~{CS}*%
%TO.N,/QSPI_SS*%
X-43210000Y40274000D03*
%TO.P,U2,2,DO(IO1)*%
%TO.N,/QSPI_SD1*%
X-41940000Y40274000D03*
%TO.P,U2,3,IO2*%
%TO.N,/QSPI_SD2*%
X-40670000Y40274000D03*
%TO.P,U2,4,GND*%
%TO.N,GND*%
X-39400000Y40274000D03*
%TO.P,U2,5,DI(IO0)*%
%TO.N,/QSPI_SD0*%
X-39400000Y45224000D03*
%TO.P,U2,6,CLK*%
%TO.N,/QSPI_SCLK*%
X-40670000Y45224000D03*
%TO.P,U2,7,IO3*%
%TO.N,/QSPI_SD3*%
X-41940000Y45224000D03*
%TO.P,U2,8,VCC*%
%TO.N,+3V3*%
X-43210000Y45224000D03*
%TD*%
D10*
%TO.P,C10,1*%
%TO.N,+3V3*%
X-40005000Y35269000D03*
%TO.P,C10,2*%
%TO.N,GND*%
X-40005000Y36229000D03*
%TD*%
D18*
%TO.P,J1,A1,GND*%
%TO.N,GND*%
X-38180000Y55229000D03*
%TO.P,J1,A4,VBUS*%
%TO.N,VBUS*%
X-38180000Y54439000D03*
%TO.P,J1,A5,CC1*%
%TO.N,Net-(J1-CC1)*%
X-38180000Y53649000D03*
%TO.P,J1,A6,D+*%
%TO.N,/USB_D+*%
X-38180000Y52859000D03*
%TO.P,J1,A7,D-*%
%TO.N,/USB_D-*%
X-38180000Y52069000D03*
%TO.P,J1,A8,SBU1*%
%TO.N,unconnected-(J1-SBU1-PadA8)*%
X-38180000Y51279000D03*
%TO.P,J1,A9,VBUS*%
%TO.N,VBUS*%
X-38180000Y50489000D03*
%TO.P,J1,A12,GND*%
%TO.N,GND*%
X-38180000Y49699000D03*
%TO.P,J1,B1,GND*%
X-39700000Y49699000D03*
%TO.P,J1,B4,VBUS*%
%TO.N,VBUS*%
X-39700000Y50489000D03*
%TO.P,J1,B5,CC2*%
%TO.N,Net-(J1-CC2)*%
X-39700000Y51279000D03*
%TO.P,J1,B6,D+*%
%TO.N,/USB_D+*%
X-39700000Y52069000D03*
%TO.P,J1,B7,D-*%
%TO.N,/USB_D-*%
X-39700000Y52859000D03*
%TO.P,J1,B8,SBU2*%
%TO.N,unconnected-(J1-SBU2-PadB8)*%
X-39700000Y53649000D03*
%TO.P,J1,B9,VBUS*%
%TO.N,VBUS*%
X-39700000Y54439000D03*
%TO.P,J1,B12,GND*%
%TO.N,GND*%
X-39700000Y55229000D03*
D19*
%TO.P,J1,S1,SHIELD*%
X-36790000Y54849000D03*
X-41090000Y54849000D03*
X-36790000Y50049000D03*
X-41090000Y50049000D03*
%TD*%
D10*
%TO.P,C8,1*%
%TO.N,+1V1*%
X-38205000Y34069000D03*
%TO.P,C8,2*%
%TO.N,GND*%
X-38205000Y35029000D03*
%TD*%
D11*
%TO.P,C3,1*%
%TO.N,Net-(C3-Pad1)*%
X-41855000Y19179000D03*
%TO.P,C3,2*%
%TO.N,GND*%
X-41855000Y18219000D03*
%TD*%
D20*
%TO.P,U1,1,VIN*%
%TO.N,VBUS*%
X-43055000Y53776500D03*
%TO.P,U1,2,GND*%
%TO.N,GND*%
X-44005000Y53776500D03*
%TO.P,U1,3,EN*%
%TO.N,VBUS*%
X-44955000Y53776500D03*
%TO.P,U1,4,NC*%
%TO.N,unconnected-(U1-NC-Pad4)*%
X-44955000Y51501500D03*
%TO.P,U1,5,VOUT*%
%TO.N,+3V3*%
X-43055000Y51501500D03*
%TD*%
D21*
%TO.P,C4,1*%
%TO.N,+3V3*%
X-43055000Y48829000D03*
%TO.P,C4,2*%
%TO.N,GND*%
X-44955000Y48829000D03*
%TD*%
D10*
%TO.P,C13,1*%
%TO.N,+3V3*%
X-34255000Y29769000D03*
%TO.P,C13,2*%
%TO.N,GND*%
X-34255000Y30729000D03*
%TD*%
%TO.P,C9,1*%
%TO.N,+3V3*%
X-45305000Y34049000D03*
%TO.P,C9,2*%
%TO.N,GND*%
X-45305000Y35009000D03*
%TD*%
D11*
%TO.P,C11,1*%
%TO.N,+3V3*%
X-45905000Y27829000D03*
%TO.P,C11,2*%
%TO.N,GND*%
X-45905000Y26869000D03*
%TD*%
%TO.P,R6,1*%
%TO.N,GND*%
X-35155000Y54754000D03*
%TO.P,R6,2*%
%TO.N,Net-(J1-CC1)*%
X-35155000Y53794000D03*
%TD*%
D10*
%TO.P,R1,1*%
%TO.N,/QSPI_SS*%
X-44555000Y42669000D03*
%TO.P,R1,2*%
%TO.N,/~{USB_BOOT}*%
X-44555000Y43629000D03*
%TD*%
D11*
%TO.P,C18,1*%
%TO.N,/VCC_SEL*%
X-34305000Y18879000D03*
%TO.P,C18,2*%
%TO.N,GND*%
X-34305000Y17919000D03*
%TD*%
D10*
%TO.P,C15,1*%
%TO.N,+3V3*%
X-36205000Y34069000D03*
%TO.P,C15,2*%
%TO.N,GND*%
X-36205000Y35029000D03*
%TD*%
%TO.P,C16,1*%
%TO.N,+3V3*%
X-37205000Y34069000D03*
%TO.P,C16,2*%
%TO.N,GND*%
X-37205000Y35029000D03*
%TD*%
D11*
%TO.P,C2,1*%
%TO.N,/XIN*%
X-41855000Y23279000D03*
%TO.P,C2,2*%
%TO.N,GND*%
X-41855000Y22319000D03*
%TD*%
D10*
%TO.P,C7,1*%
%TO.N,+1V1*%
X-42005000Y35269000D03*
%TO.P,C7,2*%
%TO.N,GND*%
X-42005000Y36229000D03*
%TD*%
D22*
%TO.P,C5,1*%
%TO.N,+3V3*%
X-45025000Y47049000D03*
%TO.P,C5,2*%
%TO.N,GND*%
X-45985000Y47049000D03*
%TD*%
D21*
%TO.P,C1,1*%
%TO.N,VBUS*%
X-43055000Y56449000D03*
%TO.P,C1,2*%
%TO.N,GND*%
X-44955000Y56449000D03*
%TD*%
D11*
%TO.P,C6,1*%
%TO.N,+1V1*%
X-38905000Y23429000D03*
%TO.P,C6,2*%
%TO.N,GND*%
X-38905000Y22469000D03*
%TD*%
D10*
%TO.P,C14,1*%
%TO.N,+3V3*%
X-35205000Y34069000D03*
%TO.P,C14,2*%
%TO.N,GND*%
X-35205000Y35029000D03*
%TD*%
%TO.P,R8,1*%
%TO.N,/VCC_SEL*%
X-35255000Y22369000D03*
%TO.P,R8,2*%
%TO.N,/+5V*%
X-35255000Y23329000D03*
%TD*%
D11*
%TO.P,R3,1*%
%TO.N,/USB_D+*%
X-38945000Y37429000D03*
%TO.P,R3,2*%
%TO.N,Net-(U3-USB_DP)*%
X-38945000Y36469000D03*
%TD*%
D23*
%TO.P,J2,1,Pin_1*%
%TO.N,/~{USB_BOOT}*%
X-36885000Y42279000D03*
D24*
%TO.P,J2,2,Pin_2*%
%TO.N,GND*%
X-36885000Y43549000D03*
%TD*%
D25*
%TO.P,U4,1,A->B*%
%TO.N,+3V3*%
X-35592500Y19536500D03*
D26*
%TO.P,U4,2,A0*%
%TO.N,/D7*%
X-36030000Y20474000D03*
%TO.P,U4,3,A1*%
%TO.N,/D6*%
X-36530000Y20474000D03*
%TO.P,U4,4,A2*%
%TO.N,/D5*%
X-37030000Y20474000D03*
%TO.P,U4,5,A3*%
%TO.N,/D4*%
X-37530000Y20474000D03*
%TO.P,U4,6,A4*%
%TO.N,/D3*%
X-38030000Y20474000D03*
%TO.P,U4,7,A5*%
%TO.N,/D2*%
X-38530000Y20474000D03*
%TO.P,U4,8,A6*%
%TO.N,/D1*%
X-39030000Y20474000D03*
%TO.P,U4,9,A7*%
%TO.N,/D0*%
X-39530000Y20474000D03*
D25*
%TO.P,U4,10,GND*%
%TO.N,GND*%
X-39967500Y19536500D03*
%TO.P,U4,11,B7*%
%TO.N,/BUF_D0*%
X-39967500Y19036500D03*
D26*
%TO.P,U4,12,B6*%
%TO.N,/BUF_D1*%
X-39530000Y18099000D03*
%TO.P,U4,13,B5*%
%TO.N,/BUF_D2*%
X-39030000Y18099000D03*
%TO.P,U4,14,B4*%
%TO.N,/BUF_D3*%
X-38530000Y18099000D03*
%TO.P,U4,15,B3*%
%TO.N,/BUF_D4*%
X-38030000Y18099000D03*
%TO.P,U4,16,B2*%
%TO.N,/BUF_D5*%
X-37530000Y18099000D03*
%TO.P,U4,17,B1*%
%TO.N,/BUF_D6*%
X-37030000Y18099000D03*
%TO.P,U4,18,B0*%
%TO.N,/BUF_D7*%
X-36530000Y18099000D03*
%TO.P,U4,19,CE*%
%TO.N,/~{BUF_OE}*%
X-36030000Y18099000D03*
D25*
%TO.P,U4,20,VCC*%
%TO.N,/VCC_SEL*%
X-35592500Y19036500D03*
D27*
%TO.P,U4,21*%
%TO.N,N/C*%
X-37780000Y19286500D03*
%TD*%
D28*
%TO.P,J4,1,Pin_1*%
%TO.N,/+5V*%
X-32766000Y55718000D03*
D29*
%TO.P,J4,2,Pin_2*%
%TO.N,/A18*%
X-32766000Y53178000D03*
%TO.P,J4,3,Pin_3*%
%TO.N,/A17*%
X-32766000Y50638000D03*
%TO.P,J4,4,Pin_4*%
%TO.N,/A14*%
X-32766000Y48098000D03*
%TO.P,J4,5,Pin_5*%
%TO.N,/A13*%
X-32766000Y45558000D03*
%TO.P,J4,6,Pin_6*%
%TO.N,/A8*%
X-32766000Y43018000D03*
%TO.P,J4,7,Pin_7*%
%TO.N,/A9*%
X-32766000Y40478000D03*
%TO.P,J4,8,Pin_8*%
%TO.N,/A11*%
X-32766000Y37938000D03*
%TO.P,J4,9,Pin_9*%
%TO.N,/~{OE}*%
X-32766000Y35398000D03*
%TO.P,J4,10,Pin_10*%
%TO.N,/A10*%
X-32766000Y32858000D03*
%TO.P,J4,11,Pin_11*%
%TO.N,/~{CE}*%
X-32766000Y30318000D03*
%TO.P,J4,12,Pin_12*%
%TO.N,/BUF_D7*%
X-32766000Y27778000D03*
%TO.P,J4,13,Pin_13*%
%TO.N,/BUF_D6*%
X-32766000Y25238000D03*
%TO.P,J4,14,Pin_14*%
%TO.N,/BUF_D5*%
X-32766000Y22698000D03*
%TO.P,J4,15,Pin_15*%
%TO.N,/BUF_D4*%
X-32766000Y20158000D03*
%TO.P,J4,16,Pin_16*%
%TO.N,/BUF_D3*%
X-32766000Y17618000D03*
%TD*%
D28*
%TO.P,J3,1,Pin_1*%
%TO.N,unconnected-(J3-Pin_1-Pad1)*%
X-48205000Y55749000D03*
D29*
%TO.P,J3,2,Pin_2*%
%TO.N,/A16*%
X-48205000Y53209000D03*
%TO.P,J3,3,Pin_3*%
%TO.N,/A15*%
X-48205000Y50669000D03*
%TO.P,J3,4,Pin_4*%
%TO.N,/A12*%
X-48205000Y48129000D03*
%TO.P,J3,5,Pin_5*%
%TO.N,/A7*%
X-48205000Y45589000D03*
%TO.P,J3,6,Pin_6*%
%TO.N,/A6*%
X-48205000Y43049000D03*
%TO.P,J3,7,Pin_7*%
%TO.N,/A5*%
X-48205000Y40509000D03*
%TO.P,J3,8,Pin_8*%
%TO.N,/A4*%
X-48205000Y37969000D03*
%TO.P,J3,9,Pin_9*%
%TO.N,/A3*%
X-48205000Y35429000D03*
%TO.P,J3,10,Pin_10*%
%TO.N,/A2*%
X-48205000Y32889000D03*
%TO.P,J3,11,Pin_11*%
%TO.N,/A1*%
X-48205000Y30349000D03*
%TO.P,J3,12,Pin_12*%
%TO.N,/A0*%
X-48205000Y27809000D03*
%TO.P,J3,13,Pin_13*%
%TO.N,/BUF_D0*%
X-48205000Y25269000D03*
%TO.P,J3,14,Pin_14*%
%TO.N,/BUF_D1*%
X-48205000Y22729000D03*
%TO.P,J3,15,Pin_15*%
%TO.N,/BUF_D2*%
X-48205000Y20189000D03*
%TO.P,J3,16,Pin_16*%
%TO.N,GND*%
X-48205000Y17649000D03*
%TD*%
D30*
%TO.N,/D7*%
X-35230000Y31324000D03*
X-34930000Y20799000D03*
%TO.N,/BUF_D3*%
X-38705000Y17324000D03*
%TO.N,/BUF_D4*%
X-37855000Y16899000D03*
%TO.N,/BUF_D5*%
X-37205000Y17149000D03*
%TO.N,/~{BUF_OE}*%
X-34014870Y23225176D03*
X-35530000Y18499000D03*
%TO.N,/+5V*%
X-34530000Y23624000D03*
%TO.N,/A17*%
X-32005000Y28949000D03*
%TO.N,/BUF_D6*%
X-31980000Y26624000D03*
%TO.N,+3V3*%
X-34505000Y22799000D03*
X-35230000Y19999000D03*
%TO.N,GND*%
X-40005000Y36849000D03*
X-44460000Y54765000D03*
X-40105000Y19974000D03*
X-39399500Y41649000D03*
X-45905000Y26051000D03*
X-41005000Y36849000D03*
X-41605000Y36849000D03*
X-41305000Y21899000D03*
X-45984000Y49558000D03*
X-45305000Y35827000D03*
X-42280000Y17699000D03*
X-33880000Y31274000D03*
X-40205000Y21874000D03*
X-34230000Y17319000D03*
X-45984000Y48288000D03*
X-45412534Y55395233D03*
X-37105000Y35749000D03*
X-45984000Y48923000D03*
X-39305000Y21924000D03*
X-41305000Y26399000D03*
X-44206000Y55400000D03*
X-36205000Y35749000D03*
X-43825000Y54892000D03*
%TO.N,+3V3*%
X-43190000Y47526000D03*
X-35205000Y33349000D03*
X-45305000Y33287000D03*
X-34055000Y29174000D03*
X-36205000Y33349000D03*
X-40105000Y33749000D03*
X-45905000Y28591000D03*
X-43825000Y47526000D03*
X-39705000Y33249000D03*
X-42555000Y47526000D03*
X-40055000Y24074000D03*
%TO.N,/~{USB_BOOT}*%
X-40845000Y42279000D03*
%TO.N,/A16*%
X-38905000Y24324000D03*
%TO.N,/A15*%
X-49305000Y26349000D03*
X-42155000Y26374000D03*
%TO.N,/A7*%
X-44895000Y28369000D03*
%TO.N,/A6*%
X-44788222Y29009665D03*
%TO.N,/A5*%
X-44886941Y29651622D03*
%TO.N,/A4*%
X-45905000Y37489000D03*
%TO.N,/A3*%
X-44907246Y30300807D03*
%TO.N,/A2*%
X-45395966Y30728599D03*
%TO.N,/A1*%
X-45895000Y30229000D03*
%TO.N,/A0*%
X-46435419Y29868721D03*
%TO.N,/D0*%
X-37955000Y27999000D03*
X-38030000Y23799000D03*
%TO.N,/D1*%
X-37980000Y28799000D03*
X-37355000Y23649000D03*
%TO.N,/D2*%
X-37105000Y22949000D03*
X-37980000Y29549000D03*
%TO.N,/A18*%
X-34505000Y26199000D03*
%TO.N,/A17*%
X-34205000Y24624000D03*
%TO.N,/A14*%
X-42655000Y24249000D03*
%TO.N,/A13*%
X-48930000Y49449000D03*
%TO.N,/A8*%
X-44625000Y44769000D03*
%TO.N,/A9*%
X-45995000Y44129000D03*
%TO.N,/A11*%
X-42835000Y28089000D03*
%TO.N,/A10*%
X-42905000Y27329000D03*
%TO.N,/D6*%
X-35105000Y30624000D03*
X-35580000Y21174000D03*
%TO.N,/D5*%
X-36011506Y21659444D03*
X-35510741Y30116824D03*
%TO.N,/D4*%
X-35980000Y29549000D03*
X-36030000Y22424000D03*
%TO.N,/D3*%
X-37755000Y30774000D03*
X-36755000Y22374000D03*
%TD*%
D31*
%TO.N,/D7*%
X-36030000Y20474000D02*
X-35255000Y20474000D01*
X-35255000Y20474000D02*
X-34930000Y20799000D01*
X-35230000Y31324000D02*
X-35467500Y31086500D01*
X-35467500Y31086500D02*
X-36867500Y31086500D01*
%TO.N,/BUF_D3*%
X-38530000Y17499000D02*
X-38705000Y17324000D01*
X-38530000Y18099000D02*
X-38530000Y17499000D01*
%TO.N,/BUF_D4*%
X-38030000Y17074000D02*
X-37855000Y16899000D01*
X-38030000Y18099000D02*
X-38030000Y17074000D01*
%TO.N,/BUF_D5*%
X-37530000Y17474000D02*
X-37205000Y17149000D01*
X-37530000Y18099000D02*
X-37530000Y17474000D01*
%TO.N,/~{BUF_OE}*%
X-34014870Y23225176D02*
X-33730000Y23510046D01*
X-34030000Y26395752D02*
X-34320748Y26686500D01*
X-35930000Y18099000D02*
X-35530000Y18499000D01*
X-36030000Y18099000D02*
X-35930000Y18099000D01*
X-34320748Y26686500D02*
X-36867500Y26686500D01*
X-33730000Y23510046D02*
X-33730000Y24820752D01*
X-33730000Y24820752D02*
X-34030000Y25120752D01*
X-34030000Y25120752D02*
X-34030000Y26395752D01*
%TO.N,/+5V*%
X-34960000Y23624000D02*
X-35255000Y23329000D01*
X-34530000Y23624000D02*
X-34960000Y23624000D01*
%TO.N,/A17*%
X-31491000Y49363000D02*
X-32766000Y50638000D01*
X-31491000Y29463000D02*
X-31491000Y49363000D01*
X-32005000Y28949000D02*
X-31491000Y29463000D01*
%TO.N,/BUF_D6*%
X-31491000Y26135000D02*
X-31980000Y26624000D01*
X-35223248Y16014000D02*
X-32566878Y16014000D01*
X-37030000Y17820752D02*
X-35223248Y16014000D01*
X-31491000Y17089878D02*
X-31491000Y26135000D01*
X-32566878Y16014000D02*
X-31491000Y17089878D01*
X-37030000Y18099000D02*
X-37030000Y17820752D01*
%TO.N,/BUF_D7*%
X-36530000Y18099000D02*
X-36530000Y17850624D01*
X-36530000Y17850624D02*
X-35272376Y16593000D01*
X-35272376Y16593000D02*
X-32341431Y16593000D01*
X-32341431Y16593000D02*
X-31741000Y17193431D01*
X-31741000Y17193431D02*
X-31741000Y25710000D01*
X-31741000Y25710000D02*
X-32766000Y26735000D01*
X-32766000Y26735000D02*
X-32766000Y27778000D01*
%TO.N,+3V3*%
X-34255000Y22549000D02*
X-34505000Y22799000D01*
X-34255000Y22154000D02*
X-34255000Y22549000D01*
%TO.N,/VCC_SEL*%
X-34305000Y18879000D02*
X-34255000Y18929000D01*
X-34255000Y18929000D02*
X-34255000Y21194000D01*
X-35255000Y22369000D02*
X-35255000Y22194000D01*
X-35255000Y22194000D02*
X-34255000Y21194000D01*
%TO.N,+3V3*%
X-35592500Y19586500D02*
X-35205000Y19974000D01*
X-35592500Y19536500D02*
X-35592500Y19586500D01*
%TO.N,/VCC_SEL*%
X-35592500Y19036500D02*
X-34462500Y19036500D01*
X-34462500Y19036500D02*
X-34305000Y18879000D01*
D32*
%TO.N,GND*%
X-44005000Y54310000D02*
X-44460000Y54765000D01*
X-42005000Y36229000D02*
X-42005000Y36449000D01*
X-38180000Y49699000D02*
X-37140000Y49699000D01*
X-41725000Y22319000D02*
X-41305000Y21899000D01*
X-38905000Y22324000D02*
X-39305000Y21924000D01*
X-45049000Y48923000D02*
X-44955000Y48829000D01*
D33*
X-45985000Y47049000D02*
X-45985000Y48287000D01*
D32*
X-44955000Y56449000D02*
X-44955000Y55852767D01*
D31*
X-37280000Y45394000D02*
X-36885000Y44999000D01*
D32*
X-39955000Y22469000D02*
X-39955000Y22124000D01*
D31*
X-35155000Y54754000D02*
X-35250000Y54849000D01*
D32*
X-39955000Y22124000D02*
X-40205000Y21874000D01*
X-45984000Y48288000D02*
X-45496000Y48288000D01*
X-40740000Y49699000D02*
X-41090000Y50049000D01*
X-45905000Y26869000D02*
X-45905000Y26051000D01*
X-42005000Y36449000D02*
X-41605000Y36849000D01*
X-34255000Y30899000D02*
X-33880000Y31274000D01*
X-44005000Y54712000D02*
X-43825000Y54892000D01*
X-37170000Y55229000D02*
X-36790000Y54849000D01*
X-36205000Y35029000D02*
X-36205000Y35749000D01*
X-45684000Y49558000D02*
X-44955000Y48829000D01*
D31*
X-35250000Y54849000D02*
X-36790000Y54849000D01*
D33*
X-41305000Y25449000D02*
X-41305000Y26399000D01*
D32*
X-45984000Y49558000D02*
X-45684000Y49558000D01*
X-44955000Y56449000D02*
X-44955000Y56149000D01*
X-34255000Y30729000D02*
X-34255000Y30899000D01*
X-37205000Y35649000D02*
X-37105000Y35749000D01*
D31*
X-36885000Y44999000D02*
X-36885000Y43549000D01*
D32*
X-40005000Y36229000D02*
X-40005000Y36849000D01*
X-39400000Y40274000D02*
X-39400000Y41648500D01*
X-41855000Y18219000D02*
X-41855000Y18124000D01*
X-41855000Y18124000D02*
X-42280000Y17699000D01*
X-44955000Y55852767D02*
X-45412534Y55395233D01*
X-44005000Y53776500D02*
X-44005000Y54712000D01*
X-45305000Y35009000D02*
X-45305000Y35827000D01*
X-39700000Y49699000D02*
X-40740000Y49699000D01*
X-38205000Y35029000D02*
X-35205000Y35029000D01*
X-44955000Y56149000D02*
X-44206000Y55400000D01*
D33*
X-45985000Y48287000D02*
X-45984000Y48288000D01*
D32*
X-39700000Y55229000D02*
X-40710000Y55229000D01*
X-40710000Y55229000D02*
X-41090000Y54849000D01*
X-37140000Y49699000D02*
X-36790000Y50049000D01*
X-44005000Y53776500D02*
X-44005000Y54310000D01*
X-41855000Y22319000D02*
X-41725000Y22319000D01*
D31*
X-39967500Y19536500D02*
X-39967500Y19836500D01*
D32*
X-45984000Y48923000D02*
X-45049000Y48923000D01*
X-39400000Y41648500D02*
X-39399500Y41649000D01*
D31*
X-39967500Y19836500D02*
X-40105000Y19974000D01*
D32*
X-38180000Y55229000D02*
X-37170000Y55229000D01*
X-45496000Y48288000D02*
X-44955000Y48829000D01*
X-41005000Y36229000D02*
X-41005000Y36849000D01*
X-37205000Y35029000D02*
X-37205000Y35649000D01*
X-38905000Y22469000D02*
X-38905000Y22324000D01*
X-34305000Y17919000D02*
X-34305000Y17394000D01*
%TO.N,VBUS*%
X-40455000Y53574000D02*
X-42852500Y53574000D01*
X-39869619Y50489000D02*
X-40455000Y51074381D01*
X-39535000Y50324000D02*
X-38345000Y50324000D01*
D34*
X-43606472Y52664000D02*
X-44518000Y52664000D01*
D32*
X-38180000Y54439000D02*
X-39700000Y54439000D01*
X-42852500Y53574000D02*
X-43055000Y53776500D01*
D34*
X-44518000Y52664000D02*
X-44955000Y53101000D01*
D32*
X-40455000Y51074381D02*
X-40455000Y53574000D01*
D34*
X-43055000Y53776500D02*
X-43055000Y53215472D01*
D32*
X-39700000Y50489000D02*
X-39535000Y50324000D01*
X-39700000Y50489000D02*
X-39869619Y50489000D01*
X-40455000Y53574000D02*
X-40455000Y53853619D01*
X-42977881Y53853619D02*
X-43055000Y53776500D01*
X-39869619Y54439000D02*
X-39700000Y54439000D01*
X-40455000Y53853619D02*
X-39869619Y54439000D01*
X-38345000Y50324000D02*
X-38180000Y50489000D01*
D34*
X-44955000Y53101000D02*
X-44955000Y53776500D01*
X-43055000Y56449000D02*
X-43055000Y53776500D01*
X-43055000Y53215472D02*
X-43606472Y52664000D01*
D32*
X-40455000Y53853619D02*
X-42977881Y53853619D01*
D31*
%TO.N,/XIN*%
X-40905000Y24229000D02*
X-41855000Y23279000D01*
D34*
X-43525000Y23279000D02*
X-41855000Y23279000D01*
D31*
X-40905000Y25449000D02*
X-40905000Y24229000D01*
D34*
X-44320400Y22483600D02*
X-43525000Y23279000D01*
D31*
%TO.N,/XOUT*%
X-40505000Y24275446D02*
X-40805723Y23974723D01*
X-40505000Y25449000D02*
X-40505000Y24275446D01*
X-40805723Y23974723D02*
X-40805723Y21726525D01*
X-40805723Y21726525D02*
X-41278248Y21254000D01*
X-41278248Y21254000D02*
X-41855000Y21254000D01*
D32*
%TO.N,+3V3*%
X-42555000Y48329000D02*
X-43055000Y48829000D01*
D31*
X-43742500Y27886500D02*
X-45847500Y27886500D01*
X-37305000Y33349000D02*
X-36925000Y33349000D01*
X-39705000Y34969000D02*
X-40005000Y35269000D01*
X-40105000Y24124000D02*
X-40055000Y24074000D01*
D32*
X-34255000Y29769000D02*
X-34255000Y29374000D01*
D31*
X-45305000Y33287000D02*
X-43742500Y31724500D01*
X-37705000Y32324000D02*
X-37705000Y32949000D01*
D32*
X-35205000Y34069000D02*
X-37205000Y34069000D01*
D31*
X-45905000Y27829000D02*
X-45905000Y28591000D01*
D32*
X-36205000Y33349000D02*
X-36205000Y34069000D01*
X-35205000Y34069000D02*
X-35205000Y33349000D01*
D31*
X-39705000Y32324000D02*
X-39705000Y34969000D01*
D32*
X-43190000Y48694000D02*
X-43055000Y48829000D01*
X-45025000Y47039000D02*
X-43210000Y45224000D01*
X-39955000Y23974000D02*
X-40055000Y24074000D01*
D31*
X-40105000Y25449000D02*
X-40105000Y24124000D01*
D32*
X-45025000Y47049000D02*
X-45025000Y47039000D01*
X-43825000Y48059000D02*
X-43055000Y48829000D01*
D31*
X-36925000Y33349000D02*
X-36205000Y34069000D01*
X-36867500Y31486500D02*
X-36867500Y31686500D01*
D32*
X-42555000Y47526000D02*
X-42555000Y48329000D01*
X-34255000Y29374000D02*
X-34055000Y29174000D01*
D31*
X-45847500Y27886500D02*
X-45905000Y27829000D01*
X-36867500Y31686500D02*
X-35205000Y33349000D01*
D32*
X-43190000Y47526000D02*
X-43190000Y48694000D01*
X-43825000Y47526000D02*
X-44548000Y47526000D01*
D31*
X-40105000Y32324000D02*
X-40105000Y34369000D01*
D32*
X-39955000Y23429000D02*
X-39955000Y23974000D01*
D31*
X-45305000Y34049000D02*
X-45305000Y33287000D01*
X-36137500Y27886500D02*
X-34255000Y29769000D01*
D32*
X-43825000Y47526000D02*
X-43825000Y48059000D01*
D31*
X-38105000Y33169000D02*
X-37205000Y34069000D01*
X-38105000Y32324000D02*
X-38105000Y33169000D01*
D32*
X-44548000Y47526000D02*
X-45025000Y47049000D01*
D31*
X-43742500Y31724500D02*
X-43742500Y31486500D01*
X-40105000Y34369000D02*
X-41005000Y35269000D01*
X-37705000Y32949000D02*
X-37305000Y33349000D01*
X-36867500Y27886500D02*
X-36137500Y27886500D01*
D34*
X-43055000Y51501500D02*
X-43055000Y48829000D01*
D31*
%TO.N,+1V1*%
X-39580000Y24104000D02*
X-39580000Y25324000D01*
X-38505000Y27323366D02*
X-38729366Y27099000D01*
X-38505000Y32324000D02*
X-38505000Y33769000D01*
X-39580000Y25324000D02*
X-39705000Y25449000D01*
X-38905000Y23429000D02*
X-39580000Y24104000D01*
X-39705000Y26624000D02*
X-39705000Y25449000D01*
X-42005000Y35269000D02*
X-40630000Y33894000D01*
X-38729366Y27099000D02*
X-39230000Y27099000D01*
X-40505000Y31968302D02*
X-40505000Y32324000D01*
X-40248198Y31711500D02*
X-40505000Y31968302D01*
X-38505000Y32324000D02*
X-38505000Y31968302D01*
X-38505000Y31968302D02*
X-38761802Y31711500D01*
X-40630000Y32449000D02*
X-40505000Y32324000D01*
X-40630000Y33894000D02*
X-40630000Y32449000D01*
X-39230000Y27099000D02*
X-39705000Y26624000D01*
X-38505000Y32324000D02*
X-38505000Y27323366D01*
X-38505000Y33769000D02*
X-38205000Y34069000D01*
X-38761802Y31711500D02*
X-40248198Y31711500D01*
%TO.N,/~{USB_BOOT}*%
X-41849500Y43629000D02*
X-44555000Y43629000D01*
X-40845000Y42279000D02*
X-40845000Y42624500D01*
X-40845000Y42624500D02*
X-41849500Y43629000D01*
%TO.N,/QSPI_SS*%
X-44305000Y39179000D02*
X-44305000Y33724000D01*
X-43210000Y41324000D02*
X-43210000Y40274000D01*
X-43210000Y40274000D02*
X-44305000Y39179000D01*
X-44555000Y42669000D02*
X-43210000Y41324000D01*
X-44305000Y33724000D02*
X-42905000Y32324000D01*
%TO.N,Net-(J1-CC1)*%
X-35300000Y53649000D02*
X-35155000Y53794000D01*
X-38180000Y53649000D02*
X-35300000Y53649000D01*
%TO.N,/QSPI_SD3*%
X-41940000Y45459330D02*
X-40650330Y46749000D01*
X-38575000Y46328594D02*
X-38575000Y38979000D01*
X-39664061Y37889939D02*
X-41545939Y37889939D01*
X-38995406Y46749000D02*
X-38575000Y46328594D01*
X-40650330Y46749000D02*
X-38995406Y46749000D01*
X-41545939Y37889939D02*
X-42805000Y36630878D01*
X-42805000Y36630878D02*
X-42805000Y34747465D01*
X-38575000Y38979000D02*
X-39664061Y37889939D01*
X-42805000Y34747465D02*
X-40905000Y32847465D01*
X-40905000Y32847465D02*
X-40905000Y32324000D01*
X-41940000Y45224000D02*
X-41940000Y45459330D01*
%TO.N,/QSPI_SCLK*%
X-40670000Y45224000D02*
X-40670000Y45459330D01*
X-43105000Y34623201D02*
X-41305000Y32823201D01*
X-41305000Y32823201D02*
X-41305000Y32324000D01*
X-38875000Y39279000D02*
X-39851929Y38302071D01*
X-41558071Y38302071D02*
X-43105000Y36755142D01*
X-39094670Y46424000D02*
X-38875000Y46204330D01*
X-43105000Y36755142D02*
X-43105000Y34623201D01*
X-39851929Y38302071D02*
X-41558071Y38302071D01*
X-40670000Y45459330D02*
X-39705330Y46424000D01*
X-39705330Y46424000D02*
X-39094670Y46424000D01*
X-38875000Y46204330D02*
X-38875000Y39279000D01*
%TO.N,/QSPI_SD0*%
X-40145000Y44479000D02*
X-40145000Y39293670D01*
X-40674467Y38764203D02*
X-41520203Y38764203D01*
X-41520203Y38764203D02*
X-43405000Y36879406D01*
X-40145000Y39293670D02*
X-40674467Y38764203D01*
X-43405000Y34498937D02*
X-41705000Y32798937D01*
X-43405000Y36879406D02*
X-43405000Y34498937D01*
X-39400000Y45224000D02*
X-40145000Y44479000D01*
X-41705000Y32798937D02*
X-41705000Y32324000D01*
%TO.N,/QSPI_SD2*%
X-43705000Y37003670D02*
X-43705000Y34374673D01*
X-40670000Y40038670D02*
X-43705000Y37003670D01*
X-42105000Y32774673D02*
X-42105000Y32324000D01*
X-43705000Y34374673D02*
X-42105000Y32774673D01*
X-40670000Y40274000D02*
X-40670000Y40038670D01*
%TO.N,/QSPI_SD1*%
X-44005000Y37973670D02*
X-44005000Y34250409D01*
X-42505000Y32750409D02*
X-42505000Y32324000D01*
X-44005000Y34250409D02*
X-42505000Y32750409D01*
X-41940000Y40274000D02*
X-41940000Y40038670D01*
X-41940000Y40038670D02*
X-44005000Y37973670D01*
D35*
%TO.N,/USB_D+*%
X-38945000Y37894001D02*
X-38585750Y38253251D01*
X-35292247Y41710805D02*
X-35292247Y51308145D01*
D31*
X-38109376Y52859000D02*
X-37345000Y52094624D01*
D35*
X-37345000Y51729196D02*
X-37345000Y51739000D01*
X-38585750Y38417302D02*
X-35292247Y41710805D01*
X-35292247Y51308145D02*
X-35544852Y51560750D01*
D31*
X-39700000Y52069000D02*
X-39370000Y51739000D01*
D35*
X-38585750Y38253251D02*
X-38585750Y38417302D01*
D31*
X-37345000Y52094624D02*
X-37345000Y51739000D01*
X-38180000Y52859000D02*
X-38109376Y52859000D01*
D35*
X-35544852Y51560750D02*
X-37176554Y51560750D01*
X-38945000Y37429000D02*
X-38945000Y37894001D01*
X-37176554Y51560750D02*
X-37345000Y51729196D01*
D31*
X-39370000Y51739000D02*
X-37345000Y51739000D01*
D35*
%TO.N,/USB_D-*%
X-36403446Y53337250D02*
X-37358887Y53337250D01*
X-36065000Y52998804D02*
X-36403446Y53337250D01*
X-37945000Y37894001D02*
X-38304250Y38253251D01*
X-37493887Y53202250D02*
X-39356750Y53202250D01*
D31*
X-39340000Y52859000D02*
X-38955000Y52474000D01*
X-38180000Y52069000D02*
X-38550000Y52069000D01*
X-39700000Y52859000D02*
X-39340000Y52859000D01*
D35*
X-39356750Y53202250D02*
X-39700000Y52859000D01*
X-37358887Y53337250D02*
X-37493887Y53202250D01*
X-35010747Y41594201D02*
X-35010747Y51424747D01*
X-38304250Y38253251D02*
X-38304250Y38300698D01*
D31*
X-38550000Y52069000D02*
X-38955000Y52474000D01*
D35*
X-37945000Y37429000D02*
X-37945000Y37894001D01*
X-35010747Y51424747D02*
X-36065000Y52479000D01*
X-36065000Y52479000D02*
X-36065000Y52998804D01*
X-38304250Y38300698D02*
X-35010747Y41594201D01*
D31*
%TO.N,Net-(C3-Pad1)*%
X-41855000Y19179000D02*
X-41855000Y20294000D01*
D34*
X-43925000Y19179000D02*
X-41855000Y19179000D01*
X-44320400Y18783600D02*
X-43925000Y19179000D01*
D36*
%TO.N,Net-(J1-CC2)*%
X-36052200Y47581800D02*
X-37280000Y46354000D01*
X-39700000Y51279000D02*
X-39247800Y50826800D01*
X-36524393Y50826800D02*
X-36052200Y50354607D01*
X-39247800Y50826800D02*
X-36524393Y50826800D01*
X-36052200Y50354607D02*
X-36052200Y47581800D01*
D31*
%TO.N,Net-(U3-USB_DP)*%
X-39230000Y32399000D02*
X-39230000Y36184000D01*
X-39305000Y32324000D02*
X-39230000Y32399000D01*
X-39230000Y36184000D02*
X-38945000Y36469000D01*
%TO.N,/A16*%
X-38105000Y25827554D02*
X-38230000Y25952554D01*
X-38874302Y24324000D02*
X-38905000Y24324000D01*
X-38230000Y25952554D02*
X-38230000Y24968302D01*
X-38230000Y24968302D02*
X-38874302Y24324000D01*
X-38105000Y25449000D02*
X-38105000Y25827554D01*
%TO.N,/A15*%
X-47180000Y53633569D02*
X-47780431Y54234000D01*
X-48629569Y54234000D02*
X-49730000Y53133569D01*
X-49730000Y53133569D02*
X-49730000Y26774000D01*
X-42155000Y26374000D02*
X-41705000Y25924000D01*
X-49730000Y26774000D02*
X-49305000Y26349000D01*
X-47180000Y51694000D02*
X-47180000Y53633569D01*
X-48205000Y50669000D02*
X-47180000Y51694000D01*
X-47780431Y54234000D02*
X-48629569Y54234000D01*
X-41705000Y25924000D02*
X-41705000Y25449000D01*
%TO.N,/A12*%
X-47780431Y26784000D02*
X-48629569Y26784000D01*
X-49230000Y47104000D02*
X-48205000Y48129000D01*
X-49230000Y27384431D02*
X-49230000Y47104000D01*
X-46322431Y25326000D02*
X-47780431Y26784000D01*
X-43028000Y25326000D02*
X-46322431Y25326000D01*
X-48629569Y26784000D02*
X-49230000Y27384431D01*
X-42905000Y25449000D02*
X-43028000Y25326000D01*
%TO.N,/A7*%
X-43742500Y28286500D02*
X-44812500Y28286500D01*
X-44812500Y28286500D02*
X-44825000Y28299000D01*
%TO.N,/A6*%
X-44482500Y28686500D02*
X-44735000Y28939000D01*
X-43742500Y28686500D02*
X-44482500Y28686500D01*
%TO.N,/A5*%
X-43742500Y29086500D02*
X-44193305Y29086500D01*
X-44193305Y29086500D02*
X-44758427Y29651622D01*
X-44758427Y29651622D02*
X-44886941Y29651622D01*
%TO.N,/A4*%
X-43130000Y31629698D02*
X-44555000Y33054698D01*
X-43386802Y29486500D02*
X-43130000Y29743302D01*
X-44555000Y36139000D02*
X-45905000Y37489000D01*
X-43130000Y29743302D02*
X-43130000Y31629698D01*
X-43742500Y29486500D02*
X-43386802Y29486500D01*
X-44555000Y33054698D02*
X-44555000Y36139000D01*
%TO.N,/A3*%
X-44450067Y29886500D02*
X-44864374Y30300807D01*
X-44864374Y30300807D02*
X-44907246Y30300807D01*
X-43742500Y29886500D02*
X-44450067Y29886500D01*
%TO.N,/A2*%
X-43742500Y30286500D02*
X-44221187Y30286500D01*
X-44221187Y30286500D02*
X-44710494Y30775807D01*
X-45348758Y30775807D02*
X-45395966Y30728599D01*
X-44710494Y30775807D02*
X-45348758Y30775807D01*
%TO.N,/A1*%
X-43742500Y30686500D02*
X-44267633Y30686500D01*
X-44267633Y30686500D02*
X-44784732Y31203599D01*
X-45592718Y31203599D02*
X-45895000Y30901317D01*
X-44784732Y31203599D02*
X-45592718Y31203599D01*
X-45895000Y30901317D02*
X-45895000Y30229000D01*
%TO.N,/A0*%
X-45696272Y31453599D02*
X-46435419Y30714451D01*
X-46435419Y30714451D02*
X-46435419Y29868721D01*
X-44314079Y31086500D02*
X-44681179Y31453599D01*
X-43742500Y31086500D02*
X-44314079Y31086500D01*
X-44681179Y31453599D02*
X-45696272Y31453599D01*
%TO.N,/D0*%
X-39530000Y20474000D02*
X-39530000Y20724000D01*
X-39530000Y20724000D02*
X-38030000Y22224000D01*
X-38030000Y22224000D02*
X-38030000Y23799000D01*
X-37667500Y28286500D02*
X-36867500Y28286500D01*
X-37955000Y27999000D02*
X-37667500Y28286500D01*
%TO.N,/D1*%
X-38005000Y28849000D02*
X-37842500Y28686500D01*
X-37842500Y28686500D02*
X-36867500Y28686500D01*
X-39030000Y20722376D02*
X-37580000Y22172376D01*
X-37580000Y23424000D02*
X-37355000Y23649000D01*
X-37580000Y22172376D02*
X-37580000Y23424000D01*
X-39030000Y20474000D02*
X-39030000Y20722376D01*
%TO.N,/D2*%
X-37306777Y22747223D02*
X-37105000Y22949000D01*
X-36867500Y29086500D02*
X-37517500Y29086500D01*
X-37306777Y21925777D02*
X-37306777Y22747223D01*
X-37326599Y21925777D02*
X-37306777Y21925777D01*
X-37517500Y29086500D02*
X-37980000Y29549000D01*
X-38530000Y20474000D02*
X-38530000Y20722376D01*
X-38530000Y20722376D02*
X-37326599Y21925777D01*
%TO.N,Net-(U3-USB_DM)*%
X-38905000Y35509000D02*
X-37945000Y36469000D01*
X-38905000Y32324000D02*
X-38905000Y35509000D01*
%TO.N,/A18*%
X-34517500Y26286500D02*
X-34480000Y26249000D01*
X-36867500Y26286500D02*
X-34517500Y26286500D01*
%TO.N,/A17*%
X-35030000Y25449000D02*
X-34205000Y24624000D01*
X-37705000Y25449000D02*
X-35030000Y25449000D01*
%TO.N,/A14*%
X-42105000Y25449000D02*
X-42105000Y24799000D01*
X-42105000Y24799000D02*
X-42655000Y24249000D01*
%TO.N,/A13*%
X-48020431Y26534000D02*
X-48733123Y26534000D01*
X-49480000Y27280878D02*
X-49480000Y48899000D01*
X-42505000Y25449000D02*
X-42505000Y25093302D01*
X-42505000Y25093302D02*
X-42761802Y24836500D01*
X-49480000Y48899000D02*
X-48930000Y49449000D01*
X-42761802Y24836500D02*
X-46322931Y24836500D01*
X-46322931Y24836500D02*
X-48020431Y26534000D01*
X-48733123Y26534000D02*
X-49480000Y27280878D01*
%TO.N,/A8*%
X-43742500Y27486500D02*
X-43855000Y27374000D01*
X-46915000Y42479000D02*
X-44625000Y44769000D01*
X-46915000Y28083523D02*
X-46915000Y42479000D01*
X-46205477Y27374000D02*
X-46915000Y28083523D01*
X-43855000Y27374000D02*
X-46205477Y27374000D01*
%TO.N,/A9*%
X-45708248Y25576000D02*
X-44197748Y27086500D01*
X-44197748Y27086500D02*
X-43742500Y27086500D01*
X-45995000Y44129000D02*
X-47165000Y42959000D01*
X-47165000Y42959000D02*
X-47165000Y26639248D01*
X-46101752Y25576000D02*
X-45708248Y25576000D01*
X-47165000Y26639248D02*
X-46101752Y25576000D01*
%TO.N,/A11*%
X-43386802Y26286500D02*
X-43130000Y26543302D01*
X-42430000Y27684000D02*
X-42835000Y28089000D01*
X-43742500Y26286500D02*
X-43386802Y26286500D01*
X-42430000Y27132248D02*
X-42430000Y27684000D01*
X-43130000Y26543302D02*
X-43018946Y26543302D01*
X-43018946Y26543302D02*
X-42430000Y27132248D01*
%TO.N,/~{OE}*%
X-32341431Y29293000D02*
X-31741000Y29893431D01*
X-36867500Y27086500D02*
X-35117194Y27086500D01*
X-31741000Y29893431D02*
X-31741000Y34373000D01*
X-32910694Y29293000D02*
X-32341431Y29293000D01*
X-31741000Y34373000D02*
X-32766000Y35398000D01*
X-35117194Y27086500D02*
X-32910694Y29293000D01*
%TO.N,/A10*%
X-43742500Y26686500D02*
X-43386802Y26686500D01*
X-43386802Y26686500D02*
X-42905000Y27168302D01*
X-42905000Y27168302D02*
X-42905000Y27329000D01*
%TO.N,/~{CE}*%
X-36867500Y27486500D02*
X-35892500Y27486500D01*
X-35330000Y28049000D02*
X-34508248Y28049000D01*
X-34508248Y28049000D02*
X-32766000Y29791248D01*
X-32766000Y29791248D02*
X-32766000Y30318000D01*
X-35892500Y27486500D02*
X-35330000Y28049000D01*
%TO.N,/D6*%
X-35092500Y30686500D02*
X-35080000Y30674000D01*
X-35580000Y21174000D02*
X-36078376Y21174000D01*
X-36078376Y21174000D02*
X-36530000Y20722376D01*
X-36530000Y20722376D02*
X-36530000Y20474000D01*
X-36867500Y30686500D02*
X-35092500Y30686500D01*
%TO.N,/D5*%
X-36867500Y30286500D02*
X-35680417Y30286500D01*
X-36011506Y21659444D02*
X-36092932Y21659444D01*
X-37030000Y20722376D02*
X-37030000Y20474000D01*
X-35680417Y30286500D02*
X-35510741Y30116824D01*
X-36092932Y21659444D02*
X-37030000Y20722376D01*
%TO.N,/D4*%
X-37530000Y20924000D02*
X-37530000Y20474000D01*
X-36317500Y29886500D02*
X-35980000Y29549000D01*
X-36867500Y29886500D02*
X-36317500Y29886500D01*
X-36030000Y22424000D02*
X-37530000Y20924000D01*
%TO.N,/D3*%
X-37755000Y30774000D02*
X-37755000Y30018302D01*
X-37755000Y30018302D02*
X-37223198Y29486500D01*
X-38030000Y20474000D02*
X-38030000Y20849000D01*
X-37223198Y29486500D02*
X-36867500Y29486500D01*
X-38030000Y20849000D02*
X-36605000Y22274000D01*
%TO.N,/BUF_D0*%
X-39967500Y19036500D02*
X-41780000Y17224000D01*
X-46005000Y17918200D02*
X-46005000Y23069000D01*
X-45310800Y17224000D02*
X-46005000Y17918200D01*
X-46005000Y23069000D02*
X-48205000Y25269000D01*
X-41780000Y17224000D02*
X-45310800Y17224000D01*
%TO.N,/BUF_D1*%
X-39530000Y18099000D02*
X-40655000Y16974000D01*
X-46280000Y17839646D02*
X-46280000Y20804000D01*
X-46280000Y20804000D02*
X-48205000Y22729000D01*
X-40655000Y16974000D02*
X-45414354Y16974000D01*
X-45414354Y16974000D02*
X-46280000Y17839646D01*
%TO.N,/BUF_D2*%
X-46530000Y17736093D02*
X-46530000Y18514000D01*
X-45517908Y16724000D02*
X-46530000Y17736093D01*
X-39030000Y18099000D02*
X-39030000Y17850624D01*
X-39030000Y17850624D02*
X-40156624Y16724000D01*
X-46530000Y18514000D02*
X-48205000Y20189000D01*
X-40156624Y16724000D02*
X-45517908Y16724000D01*
%TD*%
M02*
