M48
; DRILL file {KiCad 8.0.2-1} date 2024-05-26T22:58:53-0700
; FORMAT={-:-/ absolute / inch / decimal}
; #@! TF.CreationDate,2024-05-26T22:58:53-07:00
; #@! TF.GenerationSoftware,Kicad,Pcbnew,8.0.2-1
; #@! TF.FileFunction,Plated,1,4,PTH
FMAT,2
INCH
; #@! TA.AperFunction,Plated,PTH,ViaDrill
T1C0.0059
; #@! TA.AperFunction,Plated,PTH,ComponentDrill
T2C0.0138
; #@! TA.AperFunction,Plated,PTH,ComponentDrill
T3C0.0276
; #@! TA.AperFunction,Plated,PTH,ComponentDrill
T4C0.0394
%
G90
G05
T1
X-1.9384Y0.9559
X-1.8561Y0.928
X-1.8482Y1.6449
X-1.8313Y1.7654
X-1.8312Y1.1531
X-1.8274Y1.8327
X-1.823Y2.0787
X-1.8207Y1.1685
X-1.8199Y1.0433
X-1.8191Y2.0189
X-1.8167Y0.8079
X-1.8132Y1.6988
X-1.8081Y1.2886
X-1.8081Y1.1913
X-1.808Y1.0289
X-1.8033Y2.2205
X-1.786Y1.3315
X-1.7805Y1.2902
X-1.7793Y0.9976
X-1.7781Y1.2575
X-1.7772Y1.7015
X-1.7719Y2.0354
X-1.7711Y1.1181
X-1.7589Y1.698
X-1.7549Y1.135
X-1.7502Y1.3921
X-1.7502Y1.3665
X-1.749Y1.4421
X-1.7478Y1.0701
X-1.7459Y1.2941
X-1.7376Y1.1279
X-1.736Y1.789
X-1.7356Y1.8114
X-1.7344Y1.8528
X-1.7344Y1.8331
X-1.7329Y0.9177
X-1.725Y1.7701
X-1.7195Y1.152
X-1.7183Y2.1142
X-1.7179Y2.1846
X-1.7144Y1.8331
X-1.7144Y1.811
X-1.7144Y1.7874
X-1.7128Y1.8528
X-1.7128Y1.7087
X-1.7128Y1.4843
X-1.7128Y1.2795
X-1.7096Y1.5906
X-1.7096Y1.513
X-1.7096Y0.8953
X-1.7008Y1.1526
X-1.6864Y1.1646
X-1.6778Y0.861
X-1.6726Y0.9941
X-1.6699Y1.178
X-1.6624Y0.9098
X-1.6553Y1.9394
X-1.6419Y1.9528
X-1.638Y2.0004
X-1.6262Y2.1496
X-1.6211Y0.998
X-1.6199Y1.9476
X-1.6187Y1.235
X-1.6187Y1.2163
X-1.6187Y1.1976
X-1.6183Y1.9768
X-1.6179Y0.9787
X-1.6167Y2.0181
X-1.6104Y1.9965
X-1.6096Y0.9138
X-1.5978Y0.8358
X-1.5974Y2.122
X-1.5904Y0.8783
X-1.5892Y1.6654
X-1.5821Y0.8965
X-1.5789Y2.0197
X-1.5707Y0.8571
X-1.5671Y0.7992
X-1.5652Y2.1492
X-1.5605Y0.8414
X-1.5533Y1.3311
X-1.5352Y2.15
X-1.5238Y1.7083
X-1.5171Y1.885
X-1.5171Y1.7831
X-1.5156Y1.3291
X-1.5124Y1.8622
X-1.512Y1.8161
X-1.5116Y1.8386
X-1.5081Y2.0185
X-1.4939Y1.0087
X-1.4778Y0.8925
X-1.4695Y1.2815
X-1.4687Y2.1972
X-1.4687Y1.2295
X-1.4671Y2.1106
X-1.4522Y1.5606
X-1.4512Y1.2778
X-1.451Y1.3862
X-1.4415Y1.0756
X-1.4325Y1.3887
X-1.427Y1.5606
X-1.4262Y1.226
X-1.4211Y1.2913
X-1.4162Y1.3094
X-1.4148Y1.2724
X-1.4132Y1.3898
X-1.4077Y2.2311
X-1.4053Y1.0528
X-1.3959Y1.1043
X-1.39Y0.9307
X-1.3864Y0.7449
X-1.3837Y1.0902
X-1.3695Y1.1516
X-1.3671Y1.1075
X-1.3663Y2.0827
X-1.3585Y0.8858
X-1.3388Y1.0827
T2
X-1.7078Y1.1035
X-1.6723Y1.139
X-1.6723Y1.068
X-1.6369Y1.1745
X-1.6369Y1.1035
X-1.6369Y1.0325
X-1.6014Y1.139
X-1.6014Y1.068
X-1.5659Y1.1035
T3
X-1.6892Y2.2343
X-1.6892Y2.065
X-1.5002Y2.2343
X-1.5002Y2.065
T4
X-1.8978Y2.1948
X-1.8978Y2.0948
X-1.8978Y1.9948
X-1.8978Y1.8948
X-1.8978Y1.7948
X-1.8978Y1.6948
X-1.8978Y1.5948
X-1.8978Y1.4948
X-1.8978Y1.3948
X-1.8978Y1.2948
X-1.8978Y1.1948
X-1.8978Y1.0948
X-1.8978Y0.9948
X-1.8978Y0.8948
X-1.8978Y0.7948
X-1.8978Y0.6948
X-1.4341Y1.9319
X-1.4341Y1.8319
X-1.4341Y1.7319
X-1.29Y2.1936
X-1.29Y2.0936
X-1.29Y1.9936
X-1.29Y1.8936
X-1.29Y1.7936
X-1.29Y1.6936
X-1.29Y1.5936
X-1.29Y1.4936
X-1.29Y1.3936
X-1.29Y1.2936
X-1.29Y1.1936
X-1.29Y1.0936
X-1.29Y0.9936
X-1.29Y0.8936
X-1.29Y0.7936
X-1.29Y0.6936
M30
