%TF.GenerationSoftware,KiCad,Pcbnew,8.0.2-1*%
%TF.CreationDate,2024-05-26T22:58:53-07:00*%
%TF.ProjectId,PicoROM,5069636f-524f-44d2-9e6b-696361645f70,1.1*%
%TF.SameCoordinates,Original*%
%TF.FileFunction,Copper,L2,Inr*%
%TF.FilePolarity,Positive*%
%FSLAX46Y46*%
G04 Gerber Fmt 4.6, Leading zero omitted, Abs format (unit mm)*
G04 Created by KiCad (PCBNEW 8.0.2-1) date 2024-05-26 22:58:53*
%MOMM*%
%LPD*%
G01*
G04 APERTURE LIST*
%TA.AperFunction,ComponentPad*%
%ADD10C,0.600000*%
%TD*%
%TA.AperFunction,ComponentPad*%
%ADD11C,1.100000*%
%TD*%
%TA.AperFunction,ComponentPad*%
%ADD12R,1.700000X1.700000*%
%TD*%
%TA.AperFunction,ComponentPad*%
%ADD13O,1.700000X1.700000*%
%TD*%
%TA.AperFunction,ComponentPad*%
%ADD14C,1.700000*%
%TD*%
%TA.AperFunction,ViaPad*%
%ADD15C,0.300000*%
%TD*%
G04 APERTURE END LIST*
D10*
%TO.N,GND*%
%TO.C,U3*%
X-41576063Y29831244D03*
X-42477624Y28929683D03*
X-43379185Y28028122D03*
X-40674502Y28929683D03*
X-41576063Y28028122D03*
X-42477624Y27126561D03*
X-39772941Y28028122D03*
X-40674502Y27126561D03*
X-41576063Y26225000D03*
%TD*%
D11*
%TO.N,GND*%
%TO.C,J1*%
X-38105000Y52450000D03*
X-38105000Y56750000D03*
X-42905000Y52450000D03*
X-42905000Y56750000D03*
%TD*%
D12*
%TO.N,/EXT_RESET*%
%TO.C,J2*%
X-36425000Y43990000D03*
D13*
%TO.N,/~{USB_BOOT}*%
X-36425000Y46530000D03*
%TO.N,GND*%
X-36425000Y49070000D03*
%TD*%
D14*
%TO.N,/VSYS*%
%TO.C,J4*%
X-32766000Y55718000D03*
D13*
%TO.N,unconnected-(J4-Pin_2-Pad2)*%
X-32766000Y53178000D03*
%TO.N,/PIN_A17*%
X-32766000Y50638000D03*
%TO.N,/PIN_A14*%
X-32766000Y48098000D03*
%TO.N,/PIN_A13*%
X-32766000Y45558000D03*
%TO.N,/PIN_A8*%
X-32766000Y43018000D03*
%TO.N,/PIN_A9*%
X-32766000Y40478000D03*
%TO.N,/PIN_A11*%
X-32766000Y37938000D03*
%TO.N,/~{PIN_OE}*%
X-32766000Y35398000D03*
%TO.N,/PIN_A10*%
X-32766000Y32858000D03*
%TO.N,/~{PIN_CE}*%
X-32766000Y30318000D03*
%TO.N,/PIN_D7*%
X-32766000Y27778000D03*
%TO.N,/PIN_D6*%
X-32766000Y25238000D03*
%TO.N,/PIN_D5*%
X-32766000Y22698000D03*
%TO.N,/PIN_D4*%
X-32766000Y20158000D03*
%TO.N,/PIN_D3*%
X-32766000Y17618000D03*
%TD*%
D14*
%TO.N,unconnected-(J3-Pin_1-Pad1)*%
%TO.C,J3*%
X-48205000Y55749000D03*
D13*
%TO.N,/PIN_A16*%
X-48205000Y53209000D03*
%TO.N,/PIN_A15*%
X-48205000Y50669000D03*
%TO.N,/PIN_A12*%
X-48205000Y48129000D03*
%TO.N,/PIN_A7*%
X-48205000Y45589000D03*
%TO.N,/PIN_A6*%
X-48205000Y43049000D03*
%TO.N,/PIN_A5*%
X-48205000Y40509000D03*
%TO.N,/PIN_A4*%
X-48205000Y37969000D03*
%TO.N,/PIN_A3*%
X-48205000Y35429000D03*
%TO.N,/PIN_A2*%
X-48205000Y32889000D03*
%TO.N,/PIN_A1*%
X-48205000Y30349000D03*
%TO.N,/PIN_A0*%
X-48205000Y27809000D03*
%TO.N,/PIN_D0*%
X-48205000Y25269000D03*
%TO.N,/PIN_D1*%
X-48205000Y22729000D03*
%TO.N,/PIN_D2*%
X-48205000Y20189000D03*
%TO.N,GND*%
X-48205000Y17649000D03*
%TD*%
D15*
%TO.N,GND*%
X-44095000Y45440000D03*
X-35305000Y23640000D03*
X-40105000Y51300000D03*
X-45165000Y31940000D03*
X-40365000Y42300000D03*
X-43425000Y38430000D03*
X-43545000Y46560000D03*
X-45195000Y25340000D03*
X-35695000Y26740000D03*
X-42615000Y21870000D03*
X-44675000Y43130000D03*
X-43645000Y53700000D03*
X-38395000Y46700000D03*
X-34725000Y28130000D03*
X-36245000Y39640000D03*
X-46305000Y52800000D03*
X-36855000Y35210000D03*
X-37325000Y32550000D03*
X-43545000Y46000000D03*
X-44055000Y47060000D03*
X-43505000Y47060000D03*
X-38535000Y45290000D03*
X-43425000Y22740000D03*
X-40585000Y21230000D03*
X-38495000Y33760000D03*
X-34785000Y29250000D03*
X-45365000Y33820000D03*
X-38405000Y46130000D03*
X-43505000Y37700000D03*
X-44085000Y46010000D03*
X-46145000Y20520000D03*
X-44345000Y32870000D03*
X-44055000Y46560000D03*
X-43545000Y45400000D03*
X-37305000Y55810000D03*
X-35935000Y32320000D03*
X-36225000Y31140000D03*
X-37945000Y25620000D03*
X-39637488Y21370857D03*
X-34705000Y52900000D03*
X-39805000Y20300000D03*
X-45005000Y51700000D03*
X-43635000Y55490000D03*
X-35755000Y56670000D03*
X-37265000Y53610000D03*
X-43815000Y44960000D03*
X-39895000Y21770000D03*
X-45141867Y43217537D03*
X-46205000Y51280000D03*
X-38535000Y47880000D03*
X-39455000Y33810000D03*
X-38415000Y47300000D03*
%TO.N,+3V3*%
X-42045000Y49260000D03*
X-45925000Y30260000D03*
X-35456686Y28048439D03*
X-37535000Y22670000D03*
X-43505000Y32500000D03*
X-46055000Y43150000D03*
X-36615000Y27320000D03*
X-40185000Y22770000D03*
X-41105000Y50210000D03*
X-41705000Y49600000D03*
X-43505000Y43400000D03*
X-38705000Y43390000D03*
X-41145000Y49470000D03*
X-36859222Y32456844D03*
X-44015000Y23310000D03*
X-37305000Y31230000D03*
X-41605000Y50810000D03*
X-43425000Y40400000D03*
X-41065000Y51260000D03*
X-35145000Y27690000D03*
X-40905000Y50710000D03*
%TO.N,Net-(J1-CC1)*%
X-38995000Y54610000D03*
%TO.N,/USB_D-*%
X-40575000Y53900000D03*
X-39755000Y54590000D03*
X-38305000Y51270000D03*
%TO.N,Net-(J1-CC2)*%
X-41305000Y54600000D03*
%TO.N,/A16*%
X-42485000Y25250000D03*
%TO.N,/A15*%
X-44395000Y27180000D03*
%TO.N,/A12*%
X-44136156Y28648224D03*
%TO.N,/A7*%
X-43675619Y29259655D03*
%TO.N,/A6*%
X-43200939Y29277154D03*
%TO.N,/A5*%
X-42835000Y29580000D03*
%TO.N,/A4*%
X-42415000Y29920000D03*
%TO.N,/A3*%
X-41115000Y30419994D03*
%TO.N,/A2*%
X-41115000Y30894997D03*
%TO.N,/A1*%
X-41115000Y31370000D03*
%TO.N,/A0*%
X-44455000Y34710000D03*
%TO.N,/A17*%
X-42225000Y23110000D03*
%TO.N,/A14*%
X-45923038Y26133331D03*
%TO.N,/A13*%
X-46225000Y26500000D03*
%TO.N,/A8*%
X-44575000Y28830000D03*
%TO.N,/A9*%
X-44985000Y28400000D03*
%TO.N,/A11*%
X-46513226Y29287977D03*
%TO.N,/~{OE}*%
X-44425000Y36630000D03*
X-47145000Y23570000D03*
X-41095000Y24860000D03*
%TO.N,/A10*%
X-46245000Y29680000D03*
%TO.N,/~{CE}*%
X-41175000Y25350000D03*
X-49235000Y24280000D03*
X-44455000Y35360000D03*
%TO.N,/PIN_A1*%
X-45925000Y32730000D03*
%TO.N,/PIN_A2*%
X-45225000Y32770000D03*
%TO.N,/PIN_A5*%
X-46415000Y46550000D03*
%TO.N,/~{BUF_OE}*%
X-40395000Y22310000D03*
X-35215000Y18920000D03*
%TO.N,/PIN_A3*%
X-46515000Y44840000D03*
%TO.N,/VSYS*%
X-34505000Y22500000D03*
%TO.N,/PIN_A4*%
X-46945000Y41780000D03*
%TO.N,/EXT_RESET*%
X-36885000Y39640000D03*
%TO.N,/INFO_LED2*%
X-45805000Y56400000D03*
%TO.N,/INFO_LED1*%
X-34005000Y27500000D03*
%TO.N,/IO_EXPAND*%
X-40885000Y23210000D03*
%TO.N,/EXT_RESET_VALUE*%
X-36095000Y32800000D03*
X-36384277Y35273611D03*
%TO.N,/EXT_RESET_EN*%
X-35971913Y33258778D03*
X-35895000Y35300000D03*
%TD*%
%TA.AperFunction,Conductor*%
%TO.N,GND*%
G36*
X-31895053Y57501624D02*
G01*
X-31738036Y57486193D01*
X-31713810Y57481379D01*
X-31618072Y57452356D01*
X-31568794Y57437418D01*
X-31545969Y57427969D01*
X-31412307Y57356553D01*
X-31391769Y57342834D01*
X-31274613Y57246715D01*
X-31257145Y57229252D01*
X-31160995Y57112119D01*
X-31147269Y57091581D01*
X-31075821Y56957940D01*
X-31066366Y56935117D01*
X-31022370Y56790112D01*
X-31017549Y56765884D01*
X-31002107Y56609167D01*
X-31001500Y56596812D01*
X-31001500Y16845188D01*
X-31002107Y16832837D01*
X-31017568Y16675868D01*
X-31022386Y16651644D01*
X-31066368Y16506651D01*
X-31075821Y16483829D01*
X-31147243Y16350210D01*
X-31160965Y16329674D01*
X-31257084Y16212551D01*
X-31274551Y16195084D01*
X-31391674Y16098965D01*
X-31412210Y16085243D01*
X-31471431Y16053589D01*
X-31545832Y16013820D01*
X-31568651Y16004368D01*
X-31713644Y15960386D01*
X-31737868Y15955568D01*
X-31869627Y15942591D01*
X-31894839Y15940107D01*
X-31907187Y15939500D01*
X-49001130Y15939500D01*
X-49001142Y15939501D01*
X-49052702Y15939501D01*
X-49065051Y15940108D01*
X-49222030Y15955567D01*
X-49246258Y15960386D01*
X-49391258Y16004373D01*
X-49414079Y16013826D01*
X-49547709Y16085256D01*
X-49568247Y16098980D01*
X-49685377Y16195112D01*
X-49702842Y16212578D01*
X-49798965Y16329716D01*
X-49812685Y16350252D01*
X-49884106Y16483893D01*
X-49893555Y16506709D01*
X-49937532Y16651722D01*
X-49942346Y16675937D01*
X-49957777Y16832745D01*
X-49958382Y16845073D01*
X-49958277Y17903001D01*
X-49541545Y17903001D01*
X-49541544Y17903000D01*
X-48635703Y17903000D01*
X-48670925Y17841993D01*
X-48705000Y17714826D01*
X-48705000Y17583174D01*
X-48670925Y17456007D01*
X-48635703Y17395000D01*
X-49541545Y17395000D01*
X-49493824Y17206551D01*
X-49493821Y17206544D01*
X-49403420Y17000452D01*
X-49280326Y16812042D01*
X-49127903Y16646466D01*
X-48950302Y16508233D01*
X-48950301Y16508232D01*
X-48752372Y16401118D01*
X-48752370Y16401117D01*
X-48539517Y16328045D01*
X-48539508Y16328043D01*
X-48459000Y16314609D01*
X-48459000Y17218298D01*
X-48397993Y17183075D01*
X-48270826Y17149000D01*
X-48139174Y17149000D01*
X-48012007Y17183075D01*
X-47951000Y17218298D01*
X-47951000Y16314610D01*
X-47870493Y16328043D01*
X-47870484Y16328045D01*
X-47657631Y16401117D01*
X-47657629Y16401118D01*
X-47459700Y16508232D01*
X-47459699Y16508233D01*
X-47282098Y16646466D01*
X-47129675Y16812042D01*
X-47006581Y17000452D01*
X-46916180Y17206544D01*
X-46916177Y17206551D01*
X-46868456Y17395000D01*
X-47774297Y17395000D01*
X-47739075Y17456007D01*
X-47705000Y17583174D01*
X-47705000Y17618004D01*
X-33821583Y17618004D01*
X-33821583Y17617997D01*
X-33801302Y17412073D01*
X-33801301Y17412067D01*
X-33801300Y17412066D01*
X-33741232Y17214046D01*
X-33643685Y17031550D01*
X-33512410Y16871590D01*
X-33352450Y16740315D01*
X-33169954Y16642768D01*
X-32971934Y16582700D01*
X-32971930Y16582700D01*
X-32971928Y16582699D01*
X-32766003Y16562417D01*
X-32766000Y16562417D01*
X-32765997Y16562417D01*
X-32560073Y16582699D01*
X-32560072Y16582700D01*
X-32560066Y16582700D01*
X-32362046Y16642768D01*
X-32179550Y16740315D01*
X-32019590Y16871590D01*
X-31888315Y17031550D01*
X-31790768Y17214046D01*
X-31730700Y17412066D01*
X-31710417Y17618000D01*
X-31710417Y17618004D01*
X-31730699Y17823928D01*
X-31730700Y17823930D01*
X-31730700Y17823934D01*
X-31790768Y18021954D01*
X-31888315Y18204450D01*
X-32019590Y18364410D01*
X-32179550Y18495685D01*
X-32179552Y18495686D01*
X-32179553Y18495687D01*
X-32362046Y18593232D01*
X-32560073Y18653302D01*
X-32765997Y18673583D01*
X-32766003Y18673583D01*
X-32971928Y18653302D01*
X-33169955Y18593232D01*
X-33352448Y18495687D01*
X-33512410Y18364410D01*
X-33643687Y18204448D01*
X-33741232Y18021955D01*
X-33801302Y17823928D01*
X-33821583Y17618004D01*
X-47705000Y17618004D01*
X-47705000Y17714826D01*
X-47739075Y17841993D01*
X-47774297Y17903000D01*
X-46868456Y17903000D01*
X-46868456Y17903001D01*
X-46916177Y18091450D01*
X-46916180Y18091457D01*
X-47006581Y18297549D01*
X-47129675Y18485959D01*
X-47282098Y18651535D01*
X-47459699Y18789768D01*
X-47459700Y18789769D01*
X-47657629Y18896883D01*
X-47657632Y18896884D01*
X-47724967Y18920000D01*
X-35569869Y18920000D01*
X-35552500Y18810339D01*
X-35502095Y18711413D01*
X-35423587Y18632905D01*
X-35324661Y18582500D01*
X-35215000Y18565131D01*
X-35105339Y18582500D01*
X-35006413Y18632905D01*
X-34927905Y18711413D01*
X-34877500Y18810339D01*
X-34860131Y18920000D01*
X-34877500Y19029661D01*
X-34927905Y19128587D01*
X-35006413Y19207095D01*
X-35006414Y19207096D01*
X-35105337Y19257499D01*
X-35105338Y19257500D01*
X-35105339Y19257500D01*
X-35215000Y19274869D01*
X-35324661Y19257500D01*
X-35324663Y19257500D01*
X-35324664Y19257499D01*
X-35423587Y19207096D01*
X-35502096Y19128587D01*
X-35552499Y19029664D01*
X-35552500Y19029663D01*
X-35552500Y19029661D01*
X-35569869Y18920000D01*
X-47724967Y18920000D01*
X-47846231Y18961630D01*
X-47904166Y19002667D01*
X-47930718Y19068512D01*
X-47917456Y19138259D01*
X-47868592Y19189764D01*
X-47841895Y19201377D01*
X-47801046Y19213768D01*
X-47618550Y19311315D01*
X-47458590Y19442590D01*
X-47327315Y19602550D01*
X-47229768Y19785046D01*
X-47169700Y19983066D01*
X-47152470Y20157997D01*
X-47152469Y20158004D01*
X-33821583Y20158004D01*
X-33821583Y20157997D01*
X-33801302Y19952073D01*
X-33801301Y19952067D01*
X-33801300Y19952066D01*
X-33741232Y19754046D01*
X-33643685Y19571550D01*
X-33512410Y19411590D01*
X-33352450Y19280315D01*
X-33169954Y19182768D01*
X-32971934Y19122700D01*
X-32971930Y19122700D01*
X-32971928Y19122699D01*
X-32766003Y19102417D01*
X-32766000Y19102417D01*
X-32765997Y19102417D01*
X-32560073Y19122699D01*
X-32560072Y19122700D01*
X-32560066Y19122700D01*
X-32362046Y19182768D01*
X-32179550Y19280315D01*
X-32019590Y19411590D01*
X-31888315Y19571550D01*
X-31790768Y19754046D01*
X-31730700Y19952066D01*
X-31727646Y19983066D01*
X-31710417Y20157997D01*
X-31710417Y20158004D01*
X-31730699Y20363928D01*
X-31730700Y20363930D01*
X-31730700Y20363934D01*
X-31790768Y20561954D01*
X-31888315Y20744450D01*
X-32019590Y20904410D01*
X-32179550Y21035685D01*
X-32179552Y21035686D01*
X-32179553Y21035687D01*
X-32362046Y21133232D01*
X-32560073Y21193302D01*
X-32765997Y21213583D01*
X-32766003Y21213583D01*
X-32971928Y21193302D01*
X-33169955Y21133232D01*
X-33352448Y21035687D01*
X-33512410Y20904410D01*
X-33643687Y20744448D01*
X-33741232Y20561955D01*
X-33801302Y20363928D01*
X-33821583Y20158004D01*
X-47152469Y20158004D01*
X-47149417Y20188997D01*
X-47149417Y20189004D01*
X-47169699Y20394928D01*
X-47169700Y20394930D01*
X-47169700Y20394934D01*
X-47229768Y20592954D01*
X-47327315Y20775450D01*
X-47458590Y20935410D01*
X-47618550Y21066685D01*
X-47618552Y21066686D01*
X-47618553Y21066687D01*
X-47801046Y21164232D01*
X-47999066Y21224300D01*
X-47999067Y21224301D01*
X-47999073Y21224302D01*
X-48204997Y21244583D01*
X-48205003Y21244583D01*
X-48410928Y21224302D01*
X-48608955Y21164232D01*
X-48791448Y21066687D01*
X-48951410Y20935410D01*
X-49082687Y20775448D01*
X-49180232Y20592955D01*
X-49240302Y20394928D01*
X-49260583Y20189004D01*
X-49260583Y20188997D01*
X-49240302Y19983073D01*
X-49240301Y19983067D01*
X-49240300Y19983066D01*
X-49180232Y19785046D01*
X-49082685Y19602550D01*
X-48951410Y19442590D01*
X-48791450Y19311315D01*
X-48608954Y19213768D01*
X-48568107Y19201378D01*
X-48508726Y19162464D01*
X-48479810Y19097623D01*
X-48490539Y19027442D01*
X-48537508Y18974202D01*
X-48563769Y18961630D01*
X-48752372Y18896882D01*
X-48950301Y18789769D01*
X-48950302Y18789768D01*
X-49127903Y18651535D01*
X-49280326Y18485959D01*
X-49403420Y18297549D01*
X-49493821Y18091457D01*
X-49493824Y18091450D01*
X-49541545Y17903001D01*
X-49958277Y17903001D01*
X-49957798Y22729004D01*
X-49260583Y22729004D01*
X-49260583Y22728997D01*
X-49240302Y22523073D01*
X-49180232Y22325046D01*
X-49084066Y22145132D01*
X-49082685Y22142550D01*
X-48951410Y21982590D01*
X-48791450Y21851315D01*
X-48608954Y21753768D01*
X-48410934Y21693700D01*
X-48410930Y21693700D01*
X-48410928Y21693699D01*
X-48205003Y21673417D01*
X-48205000Y21673417D01*
X-48204997Y21673417D01*
X-47999073Y21693699D01*
X-47999072Y21693700D01*
X-47999066Y21693700D01*
X-47801046Y21753768D01*
X-47618550Y21851315D01*
X-47458590Y21982590D01*
X-47327315Y22142550D01*
X-47229768Y22325046D01*
X-47169700Y22523066D01*
X-47162408Y22597095D01*
X-47149417Y22728997D01*
X-47149417Y22729004D01*
X-47169699Y22934926D01*
X-47169700Y22934928D01*
X-47169700Y22934934D01*
X-47207687Y23060159D01*
X-47208319Y23131148D01*
X-47170470Y23191214D01*
X-47106826Y23221178D01*
X-47035339Y23232500D01*
X-46936413Y23282905D01*
X-46909318Y23310000D01*
X-44369869Y23310000D01*
X-44352500Y23200339D01*
X-44352500Y23200338D01*
X-44352499Y23200337D01*
X-44302372Y23101955D01*
X-44302095Y23101413D01*
X-44223587Y23022905D01*
X-44124661Y22972500D01*
X-44015000Y22955131D01*
X-43905339Y22972500D01*
X-43806413Y23022905D01*
X-43727905Y23101413D01*
X-43723530Y23110000D01*
X-42579869Y23110000D01*
X-42562500Y23000339D01*
X-42562500Y23000338D01*
X-42562499Y23000337D01*
X-42513377Y22903928D01*
X-42512095Y22901413D01*
X-42433587Y22822905D01*
X-42334661Y22772500D01*
X-42225000Y22755131D01*
X-42115339Y22772500D01*
X-42016413Y22822905D01*
X-41937905Y22901413D01*
X-41887500Y23000339D01*
X-41870131Y23110000D01*
X-41885970Y23210000D01*
X-41239869Y23210000D01*
X-41222500Y23100339D01*
X-41222500Y23100338D01*
X-41222499Y23100337D01*
X-41175197Y23007500D01*
X-41172095Y23001413D01*
X-41093587Y22922905D01*
X-40994661Y22872500D01*
X-40885000Y22855131D01*
X-40775339Y22872500D01*
X-40721875Y22899742D01*
X-40652099Y22912846D01*
X-40586314Y22886146D01*
X-40545407Y22828119D01*
X-40541267Y22779917D01*
X-40539869Y22779917D01*
X-40539869Y22770003D01*
X-40539869Y22770000D01*
X-40533608Y22730466D01*
X-40542706Y22660057D01*
X-40588428Y22605742D01*
X-40600847Y22598492D01*
X-40603585Y22597097D01*
X-40603587Y22597096D01*
X-40682096Y22518586D01*
X-40732499Y22419664D01*
X-40732500Y22419663D01*
X-40732500Y22419661D01*
X-40749869Y22310000D01*
X-40732500Y22200339D01*
X-40732500Y22200338D01*
X-40732499Y22200337D01*
X-40703056Y22142550D01*
X-40682095Y22101413D01*
X-40603587Y22022905D01*
X-40504661Y21972500D01*
X-40395000Y21955131D01*
X-40285339Y21972500D01*
X-40186413Y22022905D01*
X-40107905Y22101413D01*
X-40057500Y22200339D01*
X-40040131Y22310000D01*
X-40046393Y22349535D01*
X-40037295Y22419944D01*
X-39991575Y22474259D01*
X-39979158Y22481507D01*
X-39976413Y22482905D01*
X-39897905Y22561413D01*
X-39847500Y22660339D01*
X-39845970Y22670000D01*
X-37889869Y22670000D01*
X-37872500Y22560339D01*
X-37872500Y22560338D01*
X-37872499Y22560337D01*
X-37828641Y22474259D01*
X-37822095Y22461413D01*
X-37743587Y22382905D01*
X-37644661Y22332500D01*
X-37535000Y22315131D01*
X-37425339Y22332500D01*
X-37326413Y22382905D01*
X-37247905Y22461413D01*
X-37228244Y22500000D01*
X-34859869Y22500000D01*
X-34842500Y22390339D01*
X-34842500Y22390338D01*
X-34842499Y22390337D01*
X-34801566Y22310000D01*
X-34792095Y22291413D01*
X-34713587Y22212905D01*
X-34614661Y22162500D01*
X-34505000Y22145131D01*
X-34395339Y22162500D01*
X-34296413Y22212905D01*
X-34217905Y22291413D01*
X-34167500Y22390339D01*
X-34150131Y22500000D01*
X-34167500Y22609661D01*
X-34212513Y22698004D01*
X-33821583Y22698004D01*
X-33821583Y22697997D01*
X-33801302Y22492073D01*
X-33801301Y22492067D01*
X-33801300Y22492066D01*
X-33741232Y22294046D01*
X-33643685Y22111550D01*
X-33512410Y21951590D01*
X-33352450Y21820315D01*
X-33169954Y21722768D01*
X-32971934Y21662700D01*
X-32971930Y21662700D01*
X-32971928Y21662699D01*
X-32766003Y21642417D01*
X-32766000Y21642417D01*
X-32765997Y21642417D01*
X-32560073Y21662699D01*
X-32560072Y21662700D01*
X-32560066Y21662700D01*
X-32362046Y21722768D01*
X-32179550Y21820315D01*
X-32019590Y21951590D01*
X-31888315Y22111550D01*
X-31790768Y22294046D01*
X-31730700Y22492066D01*
X-31729918Y22500000D01*
X-31710417Y22697997D01*
X-31710417Y22698004D01*
X-31730699Y22903928D01*
X-31730700Y22903930D01*
X-31730700Y22903934D01*
X-31790768Y23101954D01*
X-31888315Y23284450D01*
X-32019590Y23444410D01*
X-32179550Y23575685D01*
X-32179552Y23575686D01*
X-32179553Y23575687D01*
X-32362046Y23673232D01*
X-32560073Y23733302D01*
X-32765997Y23753583D01*
X-32766003Y23753583D01*
X-32971928Y23733302D01*
X-33169955Y23673232D01*
X-33352448Y23575687D01*
X-33512410Y23444410D01*
X-33643687Y23284448D01*
X-33741232Y23101955D01*
X-33801302Y22903928D01*
X-33821583Y22698004D01*
X-34212513Y22698004D01*
X-34217905Y22708587D01*
X-34296413Y22787095D01*
X-34296414Y22787096D01*
X-34395337Y22837499D01*
X-34395338Y22837500D01*
X-34395339Y22837500D01*
X-34505000Y22854869D01*
X-34614661Y22837500D01*
X-34614663Y22837500D01*
X-34614664Y22837499D01*
X-34713587Y22787096D01*
X-34792096Y22708587D01*
X-34842499Y22609664D01*
X-34842500Y22609663D01*
X-34842500Y22609661D01*
X-34859869Y22500000D01*
X-37228244Y22500000D01*
X-37197500Y22560339D01*
X-37180131Y22670000D01*
X-37197500Y22779661D01*
X-37247905Y22878587D01*
X-37326413Y22957095D01*
X-37326414Y22957096D01*
X-37425337Y23007499D01*
X-37425338Y23007500D01*
X-37425339Y23007500D01*
X-37535000Y23024869D01*
X-37644661Y23007500D01*
X-37644663Y23007500D01*
X-37644664Y23007499D01*
X-37743587Y22957096D01*
X-37822096Y22878587D01*
X-37872499Y22779664D01*
X-37872500Y22779663D01*
X-37872500Y22779661D01*
X-37889869Y22670000D01*
X-39845970Y22670000D01*
X-39830131Y22770000D01*
X-39847500Y22879661D01*
X-39897905Y22978587D01*
X-39976413Y23057095D01*
X-39976414Y23057096D01*
X-40075337Y23107499D01*
X-40075338Y23107500D01*
X-40075339Y23107500D01*
X-40185000Y23124869D01*
X-40294661Y23107500D01*
X-40294663Y23107500D01*
X-40294664Y23107499D01*
X-40348128Y23080258D01*
X-40417904Y23067155D01*
X-40483689Y23093856D01*
X-40524594Y23151884D01*
X-40528730Y23200083D01*
X-40530131Y23200083D01*
X-40530131Y23209998D01*
X-40530944Y23215131D01*
X-40547500Y23319661D01*
X-40597905Y23418587D01*
X-40676413Y23497095D01*
X-40676414Y23497096D01*
X-40775337Y23547499D01*
X-40775338Y23547500D01*
X-40775339Y23547500D01*
X-40885000Y23564869D01*
X-40994661Y23547500D01*
X-40994663Y23547500D01*
X-40994664Y23547499D01*
X-41093587Y23497096D01*
X-41172096Y23418587D01*
X-41222499Y23319664D01*
X-41222500Y23319663D01*
X-41222500Y23319661D01*
X-41239869Y23210000D01*
X-41885970Y23210000D01*
X-41887500Y23219661D01*
X-41937905Y23318587D01*
X-42016413Y23397095D01*
X-42016414Y23397096D01*
X-42115337Y23447499D01*
X-42115338Y23447500D01*
X-42115339Y23447500D01*
X-42225000Y23464869D01*
X-42334661Y23447500D01*
X-42334663Y23447500D01*
X-42334664Y23447499D01*
X-42433587Y23397096D01*
X-42512096Y23318587D01*
X-42562499Y23219664D01*
X-42562500Y23219663D01*
X-42562500Y23219661D01*
X-42579869Y23110000D01*
X-43723530Y23110000D01*
X-43677500Y23200339D01*
X-43660131Y23310000D01*
X-43677500Y23419661D01*
X-43727905Y23518587D01*
X-43806413Y23597095D01*
X-43806414Y23597096D01*
X-43905337Y23647499D01*
X-43905338Y23647500D01*
X-43905339Y23647500D01*
X-44015000Y23664869D01*
X-44124661Y23647500D01*
X-44124663Y23647500D01*
X-44124664Y23647499D01*
X-44223587Y23597096D01*
X-44302096Y23518587D01*
X-44352499Y23419664D01*
X-44352500Y23419663D01*
X-44352500Y23419661D01*
X-44369869Y23310000D01*
X-46909318Y23310000D01*
X-46857905Y23361413D01*
X-46807500Y23460339D01*
X-46790131Y23570000D01*
X-46807500Y23679661D01*
X-46857905Y23778587D01*
X-46936413Y23857095D01*
X-46936414Y23857096D01*
X-47035337Y23907499D01*
X-47035338Y23907500D01*
X-47035339Y23907500D01*
X-47145000Y23924869D01*
X-47254661Y23907500D01*
X-47254663Y23907500D01*
X-47254664Y23907499D01*
X-47353587Y23857096D01*
X-47432094Y23778589D01*
X-47432098Y23778584D01*
X-47482510Y23679644D01*
X-47531258Y23628030D01*
X-47600173Y23610964D01*
X-47654172Y23625726D01*
X-47801046Y23704232D01*
X-47999066Y23764300D01*
X-47999067Y23764301D01*
X-47999073Y23764302D01*
X-48204997Y23784583D01*
X-48205003Y23784583D01*
X-48410928Y23764302D01*
X-48608955Y23704232D01*
X-48791448Y23606687D01*
X-48951410Y23475410D01*
X-49082687Y23315448D01*
X-49180232Y23132955D01*
X-49240302Y22934928D01*
X-49260583Y22729004D01*
X-49957798Y22729004D01*
X-49957644Y24280000D01*
X-49589869Y24280000D01*
X-49572500Y24170339D01*
X-49522095Y24071413D01*
X-49443587Y23992905D01*
X-49344661Y23942500D01*
X-49235000Y23925131D01*
X-49125339Y23942500D01*
X-49026413Y23992905D01*
X-48947905Y24071413D01*
X-48897500Y24170339D01*
X-48884652Y24251458D01*
X-48854240Y24315608D01*
X-48793972Y24353135D01*
X-48722983Y24352121D01*
X-48700817Y24342870D01*
X-48608954Y24293768D01*
X-48410934Y24233700D01*
X-48410930Y24233700D01*
X-48410928Y24233699D01*
X-48205003Y24213417D01*
X-48205000Y24213417D01*
X-48204997Y24213417D01*
X-47999073Y24233699D01*
X-47999072Y24233700D01*
X-47999066Y24233700D01*
X-47801046Y24293768D01*
X-47618550Y24391315D01*
X-47458590Y24522590D01*
X-47327315Y24682550D01*
X-47229768Y24865046D01*
X-47169700Y25063066D01*
X-47163248Y25128567D01*
X-47151288Y25250000D01*
X-42839869Y25250000D01*
X-42822500Y25140339D01*
X-42822500Y25140338D01*
X-42822499Y25140337D01*
X-42783132Y25063073D01*
X-42772095Y25041413D01*
X-42693587Y24962905D01*
X-42594661Y24912500D01*
X-42485000Y24895131D01*
X-42375339Y24912500D01*
X-42276413Y24962905D01*
X-42197905Y25041413D01*
X-42147500Y25140339D01*
X-42130131Y25250000D01*
X-42145970Y25350000D01*
X-41529869Y25350000D01*
X-41512500Y25240339D01*
X-41512500Y25240338D01*
X-41512499Y25240337D01*
X-41462096Y25141414D01*
X-41449249Y25128567D01*
X-41415223Y25066255D01*
X-41420288Y24995440D01*
X-41426075Y24982274D01*
X-41432499Y24969667D01*
X-41432500Y24969662D01*
X-41432500Y24969661D01*
X-41449869Y24860000D01*
X-41432500Y24750339D01*
X-41432500Y24750338D01*
X-41432499Y24750337D01*
X-41382167Y24651553D01*
X-41382095Y24651413D01*
X-41303587Y24572905D01*
X-41204661Y24522500D01*
X-41095000Y24505131D01*
X-40985339Y24522500D01*
X-40886413Y24572905D01*
X-40807905Y24651413D01*
X-40757500Y24750339D01*
X-40740131Y24860000D01*
X-40757500Y24969661D01*
X-40807905Y25068587D01*
X-40820752Y25081434D01*
X-40854778Y25143746D01*
X-40849713Y25214561D01*
X-40843922Y25227735D01*
X-40842617Y25230298D01*
X-40838690Y25238004D01*
X-33821583Y25238004D01*
X-33821583Y25237997D01*
X-33801302Y25032073D01*
X-33801301Y25032067D01*
X-33801300Y25032066D01*
X-33741232Y24834046D01*
X-33643685Y24651550D01*
X-33512410Y24491590D01*
X-33352450Y24360315D01*
X-33169954Y24262768D01*
X-32971934Y24202700D01*
X-32971930Y24202700D01*
X-32971928Y24202699D01*
X-32766003Y24182417D01*
X-32766000Y24182417D01*
X-32765997Y24182417D01*
X-32560073Y24202699D01*
X-32560072Y24202700D01*
X-32560066Y24202700D01*
X-32362046Y24262768D01*
X-32179550Y24360315D01*
X-32019590Y24491590D01*
X-31888315Y24651550D01*
X-31790768Y24834046D01*
X-31730700Y25032066D01*
X-31727646Y25063066D01*
X-31710417Y25237997D01*
X-31710417Y25238004D01*
X-31730699Y25443928D01*
X-31730700Y25443930D01*
X-31730700Y25443934D01*
X-31790768Y25641954D01*
X-31888315Y25824450D01*
X-32019590Y25984410D01*
X-32179550Y26115685D01*
X-32179552Y26115686D01*
X-32179553Y26115687D01*
X-32362046Y26213232D01*
X-32560073Y26273302D01*
X-32765997Y26293583D01*
X-32766003Y26293583D01*
X-32971928Y26273302D01*
X-33169955Y26213232D01*
X-33352448Y26115687D01*
X-33512410Y25984410D01*
X-33643687Y25824448D01*
X-33741232Y25641955D01*
X-33801302Y25443928D01*
X-33821583Y25238004D01*
X-40838690Y25238004D01*
X-40837500Y25240339D01*
X-40820131Y25350000D01*
X-40837500Y25459661D01*
X-40887905Y25558587D01*
X-40910586Y25581268D01*
X-40944612Y25643580D01*
X-40939547Y25714395D01*
X-40928178Y25737400D01*
X-40843475Y25872203D01*
X-40808903Y25971000D01*
X-41322063Y25971000D01*
X-41322063Y25745656D01*
X-41342065Y25677535D01*
X-41377448Y25645523D01*
X-41375561Y25642926D01*
X-41383589Y25637094D01*
X-41462096Y25558587D01*
X-41512499Y25459664D01*
X-41512500Y25459663D01*
X-41512500Y25459661D01*
X-41529869Y25350000D01*
X-42145970Y25350000D01*
X-42147500Y25359661D01*
X-42147504Y25359669D01*
X-42150395Y25368567D01*
X-42152423Y25439535D01*
X-42115761Y25500333D01*
X-42052050Y25531659D01*
X-41981516Y25523567D01*
X-41963527Y25514193D01*
X-41928862Y25492412D01*
X-41830063Y25457841D01*
X-41830063Y25971000D01*
X-42343223Y25971000D01*
X-42308651Y25872200D01*
X-42250206Y25779185D01*
X-42230900Y25710863D01*
X-42251596Y25642950D01*
X-42305723Y25597007D01*
X-42376096Y25587621D01*
X-42376479Y25587681D01*
X-42485000Y25604869D01*
X-42594661Y25587500D01*
X-42594663Y25587500D01*
X-42594664Y25587499D01*
X-42693587Y25537096D01*
X-42772096Y25458587D01*
X-42822499Y25359664D01*
X-42822500Y25359663D01*
X-42822500Y25359661D01*
X-42839869Y25250000D01*
X-47151288Y25250000D01*
X-47149417Y25268997D01*
X-47149417Y25269004D01*
X-47169699Y25474928D01*
X-47169700Y25474930D01*
X-47169700Y25474934D01*
X-47229768Y25672954D01*
X-47327315Y25855450D01*
X-47458590Y26015410D01*
X-47618550Y26146685D01*
X-47618552Y26146686D01*
X-47618553Y26146687D01*
X-47801046Y26244232D01*
X-47852400Y26259810D01*
X-47999066Y26304300D01*
X-47999067Y26304301D01*
X-47999073Y26304302D01*
X-48204997Y26324583D01*
X-48205003Y26324583D01*
X-48410928Y26304302D01*
X-48608955Y26244232D01*
X-48791448Y26146687D01*
X-48951410Y26015410D01*
X-49082687Y25855448D01*
X-49180232Y25672955D01*
X-49240302Y25474928D01*
X-49260583Y25269004D01*
X-49260583Y25268997D01*
X-49240302Y25063073D01*
X-49180232Y24865046D01*
X-49154540Y24816980D01*
X-49140068Y24747474D01*
X-49165471Y24681178D01*
X-49222684Y24639140D01*
X-49245949Y24633136D01*
X-49344661Y24617501D01*
X-49443587Y24567096D01*
X-49522096Y24488587D01*
X-49572499Y24389664D01*
X-49572500Y24389663D01*
X-49572500Y24389661D01*
X-49589869Y24280000D01*
X-49957644Y24280000D01*
X-49957423Y26500000D01*
X-46579869Y26500000D01*
X-46562500Y26390339D01*
X-46562500Y26390338D01*
X-46562499Y26390337D01*
X-46518662Y26304300D01*
X-46512095Y26291413D01*
X-46433587Y26212905D01*
X-46335153Y26162751D01*
X-46283538Y26114003D01*
X-46267908Y26070197D01*
X-46260539Y26023671D01*
X-46233701Y25971000D01*
X-46210133Y25924744D01*
X-46131625Y25846236D01*
X-46032699Y25795831D01*
X-45923038Y25778462D01*
X-45813377Y25795831D01*
X-45714451Y25846236D01*
X-45635943Y25924744D01*
X-45585538Y26023670D01*
X-45568169Y26133331D01*
X-45585538Y26242992D01*
X-45594107Y26259810D01*
X-41751063Y26259810D01*
X-41751063Y26190190D01*
X-41724420Y26125871D01*
X-41675192Y26076643D01*
X-41610873Y26050000D01*
X-41541253Y26050000D01*
X-41476934Y26076643D01*
X-41427706Y26125871D01*
X-41401063Y26190190D01*
X-41401063Y26259810D01*
X-41427706Y26324129D01*
X-41462980Y26359403D01*
X-40420502Y26359403D01*
X-40321702Y26393974D01*
X-40167535Y26490844D01*
X-40167532Y26490846D01*
X-40038787Y26619591D01*
X-40038785Y26619594D01*
X-39941915Y26773761D01*
X-39907342Y26872561D01*
X-40420502Y26872561D01*
X-40420502Y26359403D01*
X-41462980Y26359403D01*
X-41476934Y26373357D01*
X-41541253Y26400000D01*
X-41610873Y26400000D01*
X-41675192Y26373357D01*
X-41724420Y26324129D01*
X-41751063Y26259810D01*
X-45594107Y26259810D01*
X-45635943Y26341918D01*
X-45714451Y26420426D01*
X-45812886Y26470581D01*
X-45864501Y26519329D01*
X-45880131Y26563133D01*
X-45887500Y26609661D01*
X-45937905Y26708587D01*
X-46016413Y26787095D01*
X-46016414Y26787096D01*
X-46115337Y26837499D01*
X-46115338Y26837500D01*
X-46115339Y26837500D01*
X-46225000Y26854869D01*
X-46334661Y26837500D01*
X-46334663Y26837500D01*
X-46334664Y26837499D01*
X-46433587Y26787096D01*
X-46512096Y26708587D01*
X-46562499Y26609664D01*
X-46562500Y26609663D01*
X-46562500Y26609661D01*
X-46579869Y26500000D01*
X-49957423Y26500000D01*
X-49957293Y27809004D01*
X-49260583Y27809004D01*
X-49260583Y27808997D01*
X-49240302Y27603073D01*
X-49240301Y27603067D01*
X-49240300Y27603066D01*
X-49233406Y27580340D01*
X-49180232Y27405046D01*
X-49084364Y27225690D01*
X-49082685Y27222550D01*
X-48951410Y27062590D01*
X-48791450Y26931315D01*
X-48608954Y26833768D01*
X-48410934Y26773700D01*
X-48410930Y26773700D01*
X-48410928Y26773699D01*
X-48205003Y26753417D01*
X-48205000Y26753417D01*
X-48204997Y26753417D01*
X-47999073Y26773699D01*
X-47999072Y26773700D01*
X-47999066Y26773700D01*
X-47801046Y26833768D01*
X-47618550Y26931315D01*
X-47458590Y27062590D01*
X-47362235Y27180000D01*
X-44749869Y27180000D01*
X-44732500Y27070339D01*
X-44732500Y27070338D01*
X-44732499Y27070337D01*
X-44685556Y26978204D01*
X-44682095Y26971413D01*
X-44603587Y26892905D01*
X-44504661Y26842500D01*
X-44395000Y26825131D01*
X-44285339Y26842500D01*
X-44226341Y26872561D01*
X-43244784Y26872561D01*
X-43210212Y26773761D01*
X-43113342Y26619594D01*
X-43113340Y26619591D01*
X-42984595Y26490846D01*
X-42984592Y26490844D01*
X-42830424Y26393974D01*
X-42830425Y26393974D01*
X-42731624Y26359402D01*
X-42731624Y26872561D01*
X-43244784Y26872561D01*
X-44226341Y26872561D01*
X-44186413Y26892905D01*
X-44107905Y26971413D01*
X-44057500Y27070339D01*
X-44043082Y27161371D01*
X-42652624Y27161371D01*
X-42652624Y27091751D01*
X-42625981Y27027432D01*
X-42576753Y26978204D01*
X-42512434Y26951561D01*
X-42442814Y26951561D01*
X-42378495Y26978204D01*
X-42329267Y27027432D01*
X-42302624Y27091751D01*
X-42302624Y27161371D01*
X-42329267Y27225690D01*
X-42378495Y27274918D01*
X-42442814Y27301561D01*
X-42512434Y27301561D01*
X-42576753Y27274918D01*
X-42625981Y27225690D01*
X-42652624Y27161371D01*
X-44043082Y27161371D01*
X-44040131Y27180000D01*
X-44051114Y27249341D01*
X-44042016Y27319751D01*
X-43996295Y27374065D01*
X-43928467Y27395039D01*
X-43860067Y27376013D01*
X-43859630Y27375739D01*
X-43731985Y27295535D01*
X-43731986Y27295535D01*
X-43633185Y27260963D01*
X-43633185Y27774122D01*
X-44146345Y27774122D01*
X-44110652Y27672120D01*
X-44107032Y27601215D01*
X-44142321Y27539610D01*
X-44205314Y27506863D01*
X-44276012Y27513371D01*
X-44284678Y27517286D01*
X-44285332Y27517499D01*
X-44395000Y27534869D01*
X-44504661Y27517500D01*
X-44504663Y27517500D01*
X-44504664Y27517499D01*
X-44603587Y27467096D01*
X-44682096Y27388587D01*
X-44732499Y27289664D01*
X-44732500Y27289663D01*
X-44732500Y27289661D01*
X-44749869Y27180000D01*
X-47362235Y27180000D01*
X-47327315Y27222550D01*
X-47229768Y27405046D01*
X-47169700Y27603066D01*
X-47164338Y27657499D01*
X-47149417Y27808997D01*
X-47149417Y27809004D01*
X-47169699Y28014928D01*
X-47169700Y28014930D01*
X-47169700Y28014934D01*
X-47229768Y28212954D01*
X-47327315Y28395450D01*
X-47331049Y28400000D01*
X-45339869Y28400000D01*
X-45322500Y28290339D01*
X-45322500Y28290338D01*
X-45322499Y28290337D01*
X-45283072Y28212955D01*
X-45272095Y28191413D01*
X-45193587Y28112905D01*
X-45094661Y28062500D01*
X-44985000Y28045131D01*
X-44875339Y28062500D01*
X-44874491Y28062932D01*
X-43554185Y28062932D01*
X-43554185Y27993312D01*
X-43527542Y27928993D01*
X-43478314Y27879765D01*
X-43413995Y27853122D01*
X-43344375Y27853122D01*
X-43280056Y27879765D01*
X-43230828Y27928993D01*
X-43204185Y27993312D01*
X-43204185Y28062932D01*
X-43230828Y28127251D01*
X-43280056Y28176479D01*
X-43344375Y28203122D01*
X-43413995Y28203122D01*
X-43478314Y28176479D01*
X-43527542Y28127251D01*
X-43554185Y28062932D01*
X-44874491Y28062932D01*
X-44776413Y28112905D01*
X-44697905Y28191413D01*
X-44647500Y28290339D01*
X-44635109Y28368572D01*
X-44604699Y28432720D01*
X-44544431Y28470248D01*
X-44473442Y28469234D01*
X-44421567Y28437953D01*
X-44344743Y28361129D01*
X-44245817Y28310724D01*
X-44208983Y28304890D01*
X-44160955Y28282122D01*
X-43251185Y28282122D01*
X-43183064Y28262120D01*
X-43136571Y28208464D01*
X-43125185Y28156122D01*
X-43125185Y27380561D01*
X-42349624Y27380561D01*
X-42281503Y27360559D01*
X-42235010Y27306903D01*
X-42223624Y27254561D01*
X-42223624Y26479000D01*
X-40928502Y26479000D01*
X-40928502Y27161371D01*
X-40849502Y27161371D01*
X-40849502Y27091751D01*
X-40822859Y27027432D01*
X-40773631Y26978204D01*
X-40709312Y26951561D01*
X-40639692Y26951561D01*
X-40575373Y26978204D01*
X-40526145Y27027432D01*
X-40499502Y27091751D01*
X-40499502Y27161371D01*
X-40526145Y27225690D01*
X-40561419Y27260964D01*
X-39518941Y27260964D01*
X-39420141Y27295535D01*
X-39381205Y27320000D01*
X-36969869Y27320000D01*
X-36952500Y27210339D01*
X-36902095Y27111413D01*
X-36823587Y27032905D01*
X-36724661Y26982500D01*
X-36615000Y26965131D01*
X-36505339Y26982500D01*
X-36406413Y27032905D01*
X-36327905Y27111413D01*
X-36277500Y27210339D01*
X-36260131Y27320000D01*
X-36277500Y27429661D01*
X-36327905Y27528587D01*
X-36406413Y27607095D01*
X-36406414Y27607096D01*
X-36505337Y27657499D01*
X-36505338Y27657500D01*
X-36505339Y27657500D01*
X-36615000Y27674869D01*
X-36724661Y27657500D01*
X-36724663Y27657500D01*
X-36724664Y27657499D01*
X-36823587Y27607096D01*
X-36902096Y27528587D01*
X-36952499Y27429664D01*
X-36952500Y27429663D01*
X-36952500Y27429661D01*
X-36969869Y27320000D01*
X-39381205Y27320000D01*
X-39265974Y27392405D01*
X-39265971Y27392407D01*
X-39137226Y27521152D01*
X-39137224Y27521155D01*
X-39040354Y27675322D01*
X-39005781Y27774122D01*
X-39518941Y27774122D01*
X-39518941Y27260964D01*
X-40561419Y27260964D01*
X-40575373Y27274918D01*
X-40639692Y27301561D01*
X-40709312Y27301561D01*
X-40773631Y27274918D01*
X-40822859Y27225690D01*
X-40849502Y27161371D01*
X-40928502Y27161371D01*
X-40928502Y27254561D01*
X-40908500Y27322682D01*
X-40854844Y27369175D01*
X-40802502Y27380561D01*
X-40026941Y27380561D01*
X-40026941Y28062932D01*
X-39947941Y28062932D01*
X-39947941Y27993312D01*
X-39921298Y27928993D01*
X-39872070Y27879765D01*
X-39807751Y27853122D01*
X-39738131Y27853122D01*
X-39673812Y27879765D01*
X-39624584Y27928993D01*
X-39597941Y27993312D01*
X-39597941Y28048439D01*
X-35811555Y28048439D01*
X-35794186Y27938778D01*
X-35794186Y27938777D01*
X-35794185Y27938776D01*
X-35743782Y27839853D01*
X-35665273Y27761344D01*
X-35557511Y27706437D01*
X-35559021Y27703474D01*
X-35514585Y27673087D01*
X-35487681Y27613044D01*
X-35482501Y27580340D01*
X-35441565Y27500000D01*
X-35432095Y27481413D01*
X-35353587Y27402905D01*
X-35254661Y27352500D01*
X-35145000Y27335131D01*
X-35035339Y27352500D01*
X-34936413Y27402905D01*
X-34857905Y27481413D01*
X-34848435Y27500000D01*
X-34359869Y27500000D01*
X-34342500Y27390339D01*
X-34342500Y27390338D01*
X-34342499Y27390337D01*
X-34294196Y27295535D01*
X-34292095Y27291413D01*
X-34213587Y27212905D01*
X-34114661Y27162500D01*
X-34005000Y27145131D01*
X-33895339Y27162500D01*
X-33796413Y27212905D01*
X-33796412Y27212907D01*
X-33791382Y27215469D01*
X-33721605Y27228573D01*
X-33655820Y27201873D01*
X-33636779Y27183135D01*
X-33577920Y27111414D01*
X-33512410Y27031590D01*
X-33352450Y26900315D01*
X-33169954Y26802768D01*
X-32971934Y26742700D01*
X-32971930Y26742700D01*
X-32971928Y26742699D01*
X-32766003Y26722417D01*
X-32766000Y26722417D01*
X-32765997Y26722417D01*
X-32560073Y26742699D01*
X-32560072Y26742700D01*
X-32560066Y26742700D01*
X-32362046Y26802768D01*
X-32179550Y26900315D01*
X-32019590Y27031590D01*
X-31888315Y27191550D01*
X-31790768Y27374046D01*
X-31730700Y27572066D01*
X-31727646Y27603066D01*
X-31710417Y27777997D01*
X-31710417Y27778004D01*
X-31730699Y27983928D01*
X-31730700Y27983930D01*
X-31730700Y27983934D01*
X-31790768Y28181954D01*
X-31888315Y28364450D01*
X-32019590Y28524410D01*
X-32179550Y28655685D01*
X-32179552Y28655686D01*
X-32179553Y28655687D01*
X-32362046Y28753232D01*
X-32464241Y28784232D01*
X-32560066Y28813300D01*
X-32560067Y28813301D01*
X-32560073Y28813302D01*
X-32765997Y28833583D01*
X-32766003Y28833583D01*
X-32971928Y28813302D01*
X-33169955Y28753232D01*
X-33352448Y28655687D01*
X-33512410Y28524410D01*
X-33643687Y28364448D01*
X-33741232Y28181955D01*
X-33748468Y28158100D01*
X-33801300Y27983934D01*
X-33801974Y27977095D01*
X-33803846Y27958087D01*
X-33830430Y27892255D01*
X-33888386Y27851247D01*
X-33948949Y27845992D01*
X-34005000Y27854869D01*
X-34114661Y27837500D01*
X-34114663Y27837500D01*
X-34114664Y27837499D01*
X-34213587Y27787096D01*
X-34292096Y27708587D01*
X-34342499Y27609664D01*
X-34342500Y27609663D01*
X-34342500Y27609661D01*
X-34359869Y27500000D01*
X-34848435Y27500000D01*
X-34807500Y27580339D01*
X-34790131Y27690000D01*
X-34807500Y27799661D01*
X-34857905Y27898587D01*
X-34936413Y27977095D01*
X-34936414Y27977096D01*
X-35044175Y28032002D01*
X-35042667Y28034964D01*
X-35087113Y28065365D01*
X-35114007Y28125398D01*
X-35119186Y28158100D01*
X-35128551Y28176479D01*
X-35169591Y28257026D01*
X-35248100Y28335535D01*
X-35347023Y28385938D01*
X-35347024Y28385939D01*
X-35347025Y28385939D01*
X-35456686Y28403308D01*
X-35566347Y28385939D01*
X-35566349Y28385939D01*
X-35566350Y28385938D01*
X-35665273Y28335535D01*
X-35743782Y28257026D01*
X-35794185Y28158103D01*
X-35794186Y28158102D01*
X-35794186Y28158100D01*
X-35811555Y28048439D01*
X-39597941Y28048439D01*
X-39597941Y28062932D01*
X-39624584Y28127251D01*
X-39673812Y28176479D01*
X-39738131Y28203122D01*
X-39807751Y28203122D01*
X-39872070Y28176479D01*
X-39921298Y28127251D01*
X-39947941Y28062932D01*
X-40026941Y28062932D01*
X-40026941Y28282122D01*
X-39518941Y28282122D01*
X-39005782Y28282122D01*
X-39040354Y28380923D01*
X-39137224Y28535090D01*
X-39137226Y28535093D01*
X-39265971Y28663838D01*
X-39265974Y28663840D01*
X-39420142Y28760710D01*
X-39518941Y28795283D01*
X-39518941Y28282122D01*
X-40026941Y28282122D01*
X-40026941Y28675683D01*
X-40802502Y28675683D01*
X-40870623Y28695685D01*
X-40917116Y28749341D01*
X-40928502Y28801683D01*
X-40928502Y28964493D01*
X-40849502Y28964493D01*
X-40849502Y28894873D01*
X-40822859Y28830554D01*
X-40773631Y28781326D01*
X-40709312Y28754683D01*
X-40639692Y28754683D01*
X-40575373Y28781326D01*
X-40526145Y28830554D01*
X-40499502Y28894873D01*
X-40499502Y28964493D01*
X-40526145Y29028812D01*
X-40575373Y29078040D01*
X-40639692Y29104683D01*
X-40709312Y29104683D01*
X-40773631Y29078040D01*
X-40822859Y29028812D01*
X-40849502Y28964493D01*
X-40928502Y28964493D01*
X-40928502Y29183683D01*
X-40420502Y29183683D01*
X-39907343Y29183683D01*
X-39941915Y29282484D01*
X-40038785Y29436651D01*
X-40038787Y29436654D01*
X-40167532Y29565399D01*
X-40167535Y29565401D01*
X-40321703Y29662271D01*
X-40420502Y29696844D01*
X-40420502Y29183683D01*
X-40928502Y29183683D01*
X-40928502Y29577244D01*
X-41704063Y29577244D01*
X-41772184Y29597246D01*
X-41818677Y29650902D01*
X-41830063Y29703244D01*
X-41830063Y29866054D01*
X-41751063Y29866054D01*
X-41751063Y29796434D01*
X-41724420Y29732115D01*
X-41675192Y29682887D01*
X-41610873Y29656244D01*
X-41541253Y29656244D01*
X-41476934Y29682887D01*
X-41427706Y29732115D01*
X-41401063Y29796434D01*
X-41401063Y29866054D01*
X-41427706Y29930373D01*
X-41476934Y29979601D01*
X-41541253Y30006244D01*
X-41610873Y30006244D01*
X-41675192Y29979601D01*
X-41724420Y29930373D01*
X-41751063Y29866054D01*
X-41830063Y29866054D01*
X-41830063Y30598405D01*
X-41928863Y30563832D01*
X-42083031Y30466962D01*
X-42083034Y30466960D01*
X-42211779Y30338215D01*
X-42211781Y30338212D01*
X-42222123Y30321752D01*
X-42275302Y30274714D01*
X-42345469Y30263894D01*
X-42348469Y30264332D01*
X-42415000Y30274869D01*
X-42524661Y30257500D01*
X-42524663Y30257500D01*
X-42524664Y30257499D01*
X-42623587Y30207096D01*
X-42702096Y30128587D01*
X-42752500Y30029662D01*
X-42755563Y30020233D01*
X-42758584Y30021215D01*
X-42781874Y29972091D01*
X-42842145Y29934568D01*
X-42856189Y29931514D01*
X-42944661Y29917500D01*
X-42944663Y29917500D01*
X-42944663Y29917499D01*
X-43043587Y29867096D01*
X-43122094Y29788589D01*
X-43122098Y29788584D01*
X-43172805Y29689065D01*
X-43221553Y29637451D01*
X-43265357Y29621821D01*
X-43310602Y29614654D01*
X-43398249Y29569996D01*
X-43468026Y29556892D01*
X-43512652Y29569996D01*
X-43565953Y29597154D01*
X-43565958Y29597155D01*
X-43675619Y29614524D01*
X-43785280Y29597155D01*
X-43785282Y29597155D01*
X-43785283Y29597154D01*
X-43884206Y29546751D01*
X-43962715Y29468242D01*
X-44013118Y29369319D01*
X-44013119Y29369318D01*
X-44013119Y29369316D01*
X-44030488Y29259655D01*
X-44013119Y29149994D01*
X-44013119Y29149993D01*
X-44012930Y29148804D01*
X-44022029Y29078393D01*
X-44067751Y29024079D01*
X-44126562Y29005895D01*
X-44126364Y29004644D01*
X-44135058Y29003268D01*
X-44135579Y29003106D01*
X-44136099Y29003103D01*
X-44173108Y28997241D01*
X-44243519Y29006341D01*
X-44281912Y29032594D01*
X-44317885Y29068567D01*
X-44366413Y29117095D01*
X-44366415Y29117096D01*
X-44366414Y29117096D01*
X-44465337Y29167499D01*
X-44465338Y29167500D01*
X-44465339Y29167500D01*
X-44575000Y29184869D01*
X-44684661Y29167500D01*
X-44684663Y29167500D01*
X-44684664Y29167499D01*
X-44783587Y29117096D01*
X-44862096Y29038587D01*
X-44912501Y28939661D01*
X-44926337Y28852308D01*
X-44956750Y28788156D01*
X-45017019Y28750630D01*
X-45031072Y28747573D01*
X-45094661Y28737501D01*
X-45193587Y28687096D01*
X-45272096Y28608587D01*
X-45322499Y28509664D01*
X-45322500Y28509663D01*
X-45322500Y28509661D01*
X-45339869Y28400000D01*
X-47331049Y28400000D01*
X-47458590Y28555410D01*
X-47618550Y28686685D01*
X-47618552Y28686686D01*
X-47618553Y28686687D01*
X-47801046Y28784232D01*
X-47858575Y28801683D01*
X-47999066Y28844300D01*
X-47999067Y28844301D01*
X-47999073Y28844302D01*
X-48204997Y28864583D01*
X-48205003Y28864583D01*
X-48410928Y28844302D01*
X-48608955Y28784232D01*
X-48791448Y28686687D01*
X-48951410Y28555410D01*
X-49082687Y28395448D01*
X-49180232Y28212955D01*
X-49240302Y28014928D01*
X-49260583Y27809004D01*
X-49957293Y27809004D01*
X-49957146Y29287977D01*
X-46868095Y29287977D01*
X-46850726Y29178316D01*
X-46850726Y29178315D01*
X-46850725Y29178314D01*
X-46813209Y29104683D01*
X-46800321Y29079390D01*
X-46721813Y29000882D01*
X-46622887Y28950477D01*
X-46513226Y28933108D01*
X-46403565Y28950477D01*
X-46304639Y29000882D01*
X-46226131Y29079390D01*
X-46175726Y29178316D01*
X-46161027Y29271122D01*
X-46130615Y29335272D01*
X-46093783Y29363675D01*
X-46036413Y29392905D01*
X-45957905Y29471413D01*
X-45907500Y29570339D01*
X-45890131Y29680000D01*
X-45890131Y29680003D01*
X-45890131Y29680004D01*
X-45903206Y29762550D01*
X-45906165Y29781231D01*
X-45897067Y29851640D01*
X-45851346Y29905954D01*
X-45820646Y29920776D01*
X-45815341Y29922500D01*
X-45815339Y29922500D01*
X-45716413Y29972905D01*
X-45637905Y30051413D01*
X-45587500Y30150339D01*
X-45570131Y30260000D01*
X-45587500Y30369661D01*
X-45637905Y30468587D01*
X-45716413Y30547095D01*
X-45716414Y30547096D01*
X-45815337Y30597499D01*
X-45815338Y30597500D01*
X-45815339Y30597500D01*
X-45925000Y30614869D01*
X-46034661Y30597500D01*
X-46034663Y30597500D01*
X-46034664Y30597499D01*
X-46133587Y30547096D01*
X-46212096Y30468587D01*
X-46262499Y30369664D01*
X-46262500Y30369663D01*
X-46262500Y30369661D01*
X-46279869Y30260000D01*
X-46263836Y30158770D01*
X-46272934Y30088360D01*
X-46318656Y30034046D01*
X-46349345Y30019228D01*
X-46354657Y30017502D01*
X-46453587Y29967096D01*
X-46532096Y29888587D01*
X-46582501Y29789661D01*
X-46597200Y29696858D01*
X-46627613Y29632705D01*
X-46664444Y29604304D01*
X-46721810Y29575075D01*
X-46721815Y29575071D01*
X-46800322Y29496564D01*
X-46850725Y29397641D01*
X-46850726Y29397640D01*
X-46850726Y29397638D01*
X-46868095Y29287977D01*
X-49957146Y29287977D01*
X-49957041Y30349004D01*
X-49260583Y30349004D01*
X-49260583Y30348997D01*
X-49240302Y30143073D01*
X-49240301Y30143067D01*
X-49240300Y30143066D01*
X-49205900Y30029662D01*
X-49180232Y29945046D01*
X-49092670Y29781229D01*
X-49082685Y29762550D01*
X-48951410Y29602590D01*
X-48791450Y29471315D01*
X-48608954Y29373768D01*
X-48410934Y29313700D01*
X-48410930Y29313700D01*
X-48410928Y29313699D01*
X-48205003Y29293417D01*
X-48205000Y29293417D01*
X-48204997Y29293417D01*
X-47999073Y29313699D01*
X-47999072Y29313700D01*
X-47999066Y29313700D01*
X-47801046Y29373768D01*
X-47618550Y29471315D01*
X-47458590Y29602590D01*
X-47327315Y29762550D01*
X-47229768Y29945046D01*
X-47169700Y30143066D01*
X-47168983Y30150339D01*
X-47149417Y30348997D01*
X-47149417Y30349004D01*
X-47169699Y30554928D01*
X-47169700Y30554930D01*
X-47169700Y30554934D01*
X-47229768Y30752954D01*
X-47327315Y30935450D01*
X-47458590Y31095410D01*
X-47618550Y31226685D01*
X-47618552Y31226686D01*
X-47618553Y31226687D01*
X-47801046Y31324232D01*
X-47851919Y31339664D01*
X-47951925Y31370000D01*
X-41469869Y31370000D01*
X-41452500Y31260339D01*
X-41452500Y31260338D01*
X-41452499Y31260336D01*
X-41416509Y31189701D01*
X-41403405Y31119924D01*
X-41416509Y31075297D01*
X-41452499Y31004662D01*
X-41452500Y31004660D01*
X-41452500Y31004658D01*
X-41469869Y30894997D01*
X-41452500Y30785336D01*
X-41452500Y30785335D01*
X-41452499Y30785333D01*
X-41416509Y30714698D01*
X-41403405Y30644921D01*
X-41416509Y30600294D01*
X-41452499Y30529659D01*
X-41452500Y30529657D01*
X-41452500Y30529655D01*
X-41469869Y30419994D01*
X-41452500Y30310333D01*
X-41452500Y30310332D01*
X-41452499Y30310331D01*
X-41402096Y30211408D01*
X-41358968Y30168280D01*
X-41324942Y30105968D01*
X-41322793Y30085973D01*
X-41322064Y30085244D01*
X-41251938Y30085244D01*
X-41232226Y30083693D01*
X-41224664Y30082496D01*
X-41224661Y30082494D01*
X-41115000Y30065125D01*
X-41005339Y30082494D01*
X-41005337Y30082496D01*
X-40997774Y30083693D01*
X-40978062Y30085244D01*
X-40808904Y30085244D01*
X-40825025Y30131316D01*
X-40828645Y30202221D01*
X-40818363Y30230135D01*
X-40777500Y30310333D01*
X-40776285Y30318004D01*
X-33821583Y30318004D01*
X-33821583Y30317997D01*
X-33801302Y30112073D01*
X-33801301Y30112067D01*
X-33801300Y30112066D01*
X-33787061Y30065126D01*
X-33741232Y29914046D01*
X-33670240Y29781229D01*
X-33643685Y29731550D01*
X-33512410Y29571590D01*
X-33352450Y29440315D01*
X-33169954Y29342768D01*
X-32971934Y29282700D01*
X-32971930Y29282700D01*
X-32971928Y29282699D01*
X-32766003Y29262417D01*
X-32766000Y29262417D01*
X-32765997Y29262417D01*
X-32560073Y29282699D01*
X-32560072Y29282700D01*
X-32560066Y29282700D01*
X-32362046Y29342768D01*
X-32179550Y29440315D01*
X-32019590Y29571590D01*
X-31888315Y29731550D01*
X-31790768Y29914046D01*
X-31730700Y30112066D01*
X-31729072Y30128587D01*
X-31710417Y30317997D01*
X-31710417Y30318004D01*
X-31730699Y30523928D01*
X-31730700Y30523930D01*
X-31730700Y30523934D01*
X-31790768Y30721954D01*
X-31888315Y30904450D01*
X-32019590Y31064410D01*
X-32179550Y31195685D01*
X-32179552Y31195686D01*
X-32179553Y31195687D01*
X-32362046Y31293232D01*
X-32560073Y31353302D01*
X-32765997Y31373583D01*
X-32766003Y31373583D01*
X-32971928Y31353302D01*
X-33169955Y31293232D01*
X-33352448Y31195687D01*
X-33512410Y31064410D01*
X-33643687Y30904448D01*
X-33741232Y30721955D01*
X-33801302Y30523928D01*
X-33821583Y30318004D01*
X-40776285Y30318004D01*
X-40760131Y30419994D01*
X-40777500Y30529655D01*
X-40813493Y30600295D01*
X-40826596Y30670070D01*
X-40813492Y30714698D01*
X-40777500Y30785336D01*
X-40760131Y30894997D01*
X-40777500Y31004658D01*
X-40813493Y31075298D01*
X-40826596Y31145073D01*
X-40813492Y31189701D01*
X-40792959Y31230000D01*
X-37659869Y31230000D01*
X-37642500Y31120339D01*
X-37592095Y31021413D01*
X-37513587Y30942905D01*
X-37414661Y30892500D01*
X-37305000Y30875131D01*
X-37195339Y30892500D01*
X-37096413Y30942905D01*
X-37017905Y31021413D01*
X-36967500Y31120339D01*
X-36950131Y31230000D01*
X-36967500Y31339661D01*
X-37017905Y31438587D01*
X-37096413Y31517095D01*
X-37096414Y31517096D01*
X-37195337Y31567499D01*
X-37195338Y31567500D01*
X-37195339Y31567500D01*
X-37305000Y31584869D01*
X-37414661Y31567500D01*
X-37414663Y31567500D01*
X-37414664Y31567499D01*
X-37513587Y31517096D01*
X-37592096Y31438587D01*
X-37642499Y31339664D01*
X-37642500Y31339663D01*
X-37642500Y31339661D01*
X-37659869Y31230000D01*
X-40792959Y31230000D01*
X-40777500Y31260339D01*
X-40760131Y31370000D01*
X-40777500Y31479661D01*
X-40827905Y31578587D01*
X-40906413Y31657095D01*
X-40906414Y31657096D01*
X-41005337Y31707499D01*
X-41005338Y31707500D01*
X-41005339Y31707500D01*
X-41115000Y31724869D01*
X-41224661Y31707500D01*
X-41224663Y31707500D01*
X-41224664Y31707499D01*
X-41323587Y31657096D01*
X-41402096Y31578587D01*
X-41452499Y31479664D01*
X-41452500Y31479663D01*
X-41452500Y31479661D01*
X-41469869Y31370000D01*
X-47951925Y31370000D01*
X-47999066Y31384300D01*
X-47999067Y31384301D01*
X-47999073Y31384302D01*
X-48204997Y31404583D01*
X-48205003Y31404583D01*
X-48410928Y31384302D01*
X-48608955Y31324232D01*
X-48791448Y31226687D01*
X-48951410Y31095410D01*
X-49082687Y30935448D01*
X-49180232Y30752955D01*
X-49240302Y30554928D01*
X-49260583Y30349004D01*
X-49957041Y30349004D01*
X-49956788Y32889004D01*
X-49260583Y32889004D01*
X-49260583Y32888997D01*
X-49240302Y32683073D01*
X-49240301Y32683067D01*
X-49240300Y32683066D01*
X-49198171Y32544184D01*
X-49180232Y32485046D01*
X-49152147Y32432502D01*
X-49082685Y32302550D01*
X-48951410Y32142590D01*
X-48791450Y32011315D01*
X-48608954Y31913768D01*
X-48410934Y31853700D01*
X-48410930Y31853700D01*
X-48410928Y31853699D01*
X-48205003Y31833417D01*
X-48205000Y31833417D01*
X-48204997Y31833417D01*
X-47999073Y31853699D01*
X-47999072Y31853700D01*
X-47999066Y31853700D01*
X-47801046Y31913768D01*
X-47618550Y32011315D01*
X-47458590Y32142590D01*
X-47327315Y32302550D01*
X-47229768Y32485046D01*
X-47169700Y32683066D01*
X-47168983Y32690339D01*
X-47165077Y32730000D01*
X-46279869Y32730000D01*
X-46262500Y32620339D01*
X-46262500Y32620338D01*
X-46262499Y32620337D01*
X-46219282Y32535517D01*
X-46212095Y32521413D01*
X-46133587Y32442905D01*
X-46034661Y32392500D01*
X-45925000Y32375131D01*
X-45815339Y32392500D01*
X-45716413Y32442905D01*
X-45644095Y32515223D01*
X-45581783Y32549249D01*
X-45510968Y32544184D01*
X-45465905Y32515223D01*
X-45433587Y32482905D01*
X-45334661Y32432500D01*
X-45225000Y32415131D01*
X-45115339Y32432500D01*
X-45016413Y32482905D01*
X-44999318Y32500000D01*
X-43859869Y32500000D01*
X-43842500Y32390339D01*
X-43842500Y32390338D01*
X-43842499Y32390337D01*
X-43797772Y32302553D01*
X-43792095Y32291413D01*
X-43713587Y32212905D01*
X-43614661Y32162500D01*
X-43505000Y32145131D01*
X-43395339Y32162500D01*
X-43296413Y32212905D01*
X-43217905Y32291413D01*
X-43167500Y32390339D01*
X-43156966Y32456844D01*
X-37214091Y32456844D01*
X-37196722Y32347183D01*
X-37196722Y32347182D01*
X-37196721Y32347181D01*
X-37158186Y32271550D01*
X-37146317Y32248257D01*
X-37067809Y32169749D01*
X-36968883Y32119344D01*
X-36859222Y32101975D01*
X-36749561Y32119344D01*
X-36650635Y32169749D01*
X-36572127Y32248257D01*
X-36521722Y32347183D01*
X-36507837Y32434853D01*
X-36477424Y32499004D01*
X-36417156Y32536531D01*
X-36346166Y32535517D01*
X-36309324Y32517074D01*
X-36303590Y32512908D01*
X-36303587Y32512905D01*
X-36204661Y32462500D01*
X-36095000Y32445131D01*
X-35985339Y32462500D01*
X-35886413Y32512905D01*
X-35807905Y32591413D01*
X-35757500Y32690339D01*
X-35740131Y32800000D01*
X-35740131Y32800003D01*
X-35740131Y32800004D01*
X-35749319Y32858004D01*
X-33821583Y32858004D01*
X-33821583Y32857997D01*
X-33801302Y32652073D01*
X-33801301Y32652067D01*
X-33801300Y32652066D01*
X-33741232Y32454046D01*
X-33643685Y32271550D01*
X-33512410Y32111590D01*
X-33352450Y31980315D01*
X-33169954Y31882768D01*
X-32971934Y31822700D01*
X-32971930Y31822700D01*
X-32971928Y31822699D01*
X-32766003Y31802417D01*
X-32766000Y31802417D01*
X-32765997Y31802417D01*
X-32560073Y31822699D01*
X-32560072Y31822700D01*
X-32560066Y31822700D01*
X-32362046Y31882768D01*
X-32179550Y31980315D01*
X-32019590Y32111590D01*
X-31888315Y32271550D01*
X-31790768Y32454046D01*
X-31730700Y32652066D01*
X-31729383Y32665431D01*
X-31710417Y32857997D01*
X-31710417Y32858004D01*
X-31730699Y33063928D01*
X-31730700Y33063930D01*
X-31730700Y33063934D01*
X-31790768Y33261954D01*
X-31888315Y33444450D01*
X-32019590Y33604410D01*
X-32179550Y33735685D01*
X-32179552Y33735686D01*
X-32179553Y33735687D01*
X-32362046Y33833232D01*
X-32560073Y33893302D01*
X-32765997Y33913583D01*
X-32766003Y33913583D01*
X-32971928Y33893302D01*
X-33169955Y33833232D01*
X-33352448Y33735687D01*
X-33512410Y33604410D01*
X-33643687Y33444448D01*
X-33741232Y33261955D01*
X-33801302Y33063928D01*
X-33821583Y32858004D01*
X-35749319Y32858004D01*
X-35749929Y32861855D01*
X-35756734Y32904824D01*
X-35747636Y32975233D01*
X-35721383Y33013627D01*
X-35684818Y33050191D01*
X-35634413Y33149117D01*
X-35617044Y33258778D01*
X-35634413Y33368439D01*
X-35684818Y33467365D01*
X-35763326Y33545873D01*
X-35763327Y33545874D01*
X-35862250Y33596277D01*
X-35862251Y33596278D01*
X-35862252Y33596278D01*
X-35971913Y33613647D01*
X-36081574Y33596278D01*
X-36081576Y33596278D01*
X-36081577Y33596277D01*
X-36180500Y33545874D01*
X-36259009Y33467365D01*
X-36309412Y33368442D01*
X-36309413Y33368441D01*
X-36309413Y33368439D01*
X-36321369Y33292955D01*
X-36326782Y33258778D01*
X-36310179Y33153956D01*
X-36319278Y33083545D01*
X-36345532Y33045151D01*
X-36382096Y33008587D01*
X-36432501Y32909661D01*
X-36446387Y32821992D01*
X-36476800Y32757840D01*
X-36537069Y32720314D01*
X-36608058Y32721329D01*
X-36644898Y32739770D01*
X-36650634Y32743938D01*
X-36650635Y32743939D01*
X-36749561Y32794344D01*
X-36859222Y32811713D01*
X-36968883Y32794344D01*
X-36968885Y32794344D01*
X-36968886Y32794343D01*
X-37067809Y32743940D01*
X-37146318Y32665431D01*
X-37196721Y32566508D01*
X-37196722Y32566507D01*
X-37196722Y32566505D01*
X-37214091Y32456844D01*
X-43156966Y32456844D01*
X-43150131Y32500000D01*
X-43167500Y32609661D01*
X-43217905Y32708587D01*
X-43296413Y32787095D01*
X-43296414Y32787096D01*
X-43395337Y32837499D01*
X-43395338Y32837500D01*
X-43395339Y32837500D01*
X-43505000Y32854869D01*
X-43614661Y32837500D01*
X-43614663Y32837500D01*
X-43614664Y32837499D01*
X-43713587Y32787096D01*
X-43792096Y32708587D01*
X-43842499Y32609664D01*
X-43842500Y32609663D01*
X-43842500Y32609661D01*
X-43859869Y32500000D01*
X-44999318Y32500000D01*
X-44937905Y32561413D01*
X-44887500Y32660339D01*
X-44870131Y32770000D01*
X-44887500Y32879661D01*
X-44937905Y32978587D01*
X-45016413Y33057095D01*
X-45016414Y33057096D01*
X-45115337Y33107499D01*
X-45115338Y33107500D01*
X-45115339Y33107500D01*
X-45225000Y33124869D01*
X-45334661Y33107500D01*
X-45334663Y33107500D01*
X-45334664Y33107499D01*
X-45433587Y33057096D01*
X-45433589Y33057094D01*
X-45505905Y32984777D01*
X-45568217Y32950751D01*
X-45639032Y32955816D01*
X-45684095Y32984777D01*
X-45716414Y33017096D01*
X-45815337Y33067499D01*
X-45815338Y33067500D01*
X-45815339Y33067500D01*
X-45925000Y33084869D01*
X-46034661Y33067500D01*
X-46034663Y33067500D01*
X-46034664Y33067499D01*
X-46133587Y33017096D01*
X-46212096Y32938587D01*
X-46262499Y32839664D01*
X-46262500Y32839663D01*
X-46262500Y32839661D01*
X-46279869Y32730000D01*
X-47165077Y32730000D01*
X-47149417Y32888997D01*
X-47149417Y32889004D01*
X-47169699Y33094928D01*
X-47169700Y33094930D01*
X-47169700Y33094934D01*
X-47229768Y33292954D01*
X-47327315Y33475450D01*
X-47458590Y33635410D01*
X-47618550Y33766685D01*
X-47618552Y33766686D01*
X-47618553Y33766687D01*
X-47801046Y33864232D01*
X-47999066Y33924300D01*
X-47999067Y33924301D01*
X-47999073Y33924302D01*
X-48204997Y33944583D01*
X-48205003Y33944583D01*
X-48410928Y33924302D01*
X-48608955Y33864232D01*
X-48791448Y33766687D01*
X-48951410Y33635410D01*
X-49082687Y33475448D01*
X-49180232Y33292955D01*
X-49240302Y33094928D01*
X-49260583Y32889004D01*
X-49956788Y32889004D01*
X-49956536Y35429004D01*
X-49260583Y35429004D01*
X-49260583Y35428997D01*
X-49240302Y35223073D01*
X-49240301Y35223067D01*
X-49240300Y35223066D01*
X-49218564Y35151412D01*
X-49180232Y35025046D01*
X-49123412Y34918743D01*
X-49082685Y34842550D01*
X-48951410Y34682590D01*
X-48791450Y34551315D01*
X-48608954Y34453768D01*
X-48410934Y34393700D01*
X-48410930Y34393700D01*
X-48410928Y34393699D01*
X-48205003Y34373417D01*
X-48205000Y34373417D01*
X-48204997Y34373417D01*
X-47999073Y34393699D01*
X-47999072Y34393700D01*
X-47999066Y34393700D01*
X-47801046Y34453768D01*
X-47618550Y34551315D01*
X-47458590Y34682590D01*
X-47327315Y34842550D01*
X-47229768Y35025046D01*
X-47169700Y35223066D01*
X-47167013Y35250339D01*
X-47156213Y35360000D01*
X-44809869Y35360000D01*
X-44792500Y35250339D01*
X-44792500Y35250338D01*
X-44792499Y35250337D01*
X-44742096Y35151414D01*
X-44714777Y35124095D01*
X-44680751Y35061783D01*
X-44685816Y34990968D01*
X-44714777Y34945905D01*
X-44742094Y34918589D01*
X-44742096Y34918587D01*
X-44792499Y34819664D01*
X-44792500Y34819663D01*
X-44792500Y34819661D01*
X-44809869Y34710000D01*
X-44792500Y34600339D01*
X-44792500Y34600338D01*
X-44792499Y34600337D01*
X-44751726Y34520314D01*
X-44742095Y34501413D01*
X-44663587Y34422905D01*
X-44564661Y34372500D01*
X-44455000Y34355131D01*
X-44345339Y34372500D01*
X-44246413Y34422905D01*
X-44167905Y34501413D01*
X-44117500Y34600339D01*
X-44100131Y34710000D01*
X-44117500Y34819661D01*
X-44167905Y34918587D01*
X-44195223Y34945905D01*
X-44229249Y35008217D01*
X-44224184Y35079032D01*
X-44195223Y35124095D01*
X-44167905Y35151413D01*
X-44117500Y35250339D01*
X-44113814Y35273611D01*
X-36739146Y35273611D01*
X-36721777Y35163950D01*
X-36721777Y35163949D01*
X-36721776Y35163948D01*
X-36678510Y35079032D01*
X-36671372Y35065024D01*
X-36592864Y34986516D01*
X-36493938Y34936111D01*
X-36384277Y34918742D01*
X-36274616Y34936111D01*
X-36175690Y34986516D01*
X-36175689Y34986518D01*
X-36170946Y34988934D01*
X-36101169Y35002038D01*
X-36056543Y34988935D01*
X-36004661Y34962500D01*
X-35895000Y34945131D01*
X-35785339Y34962500D01*
X-35686413Y35012905D01*
X-35607905Y35091413D01*
X-35557500Y35190339D01*
X-35540131Y35300000D01*
X-35555654Y35398004D01*
X-33821583Y35398004D01*
X-33821583Y35397997D01*
X-33801302Y35192073D01*
X-33801301Y35192067D01*
X-33801300Y35192066D01*
X-33788968Y35151414D01*
X-33741232Y34994046D01*
X-33648021Y34819661D01*
X-33643685Y34811550D01*
X-33512410Y34651590D01*
X-33352450Y34520315D01*
X-33169954Y34422768D01*
X-32971934Y34362700D01*
X-32971930Y34362700D01*
X-32971928Y34362699D01*
X-32766003Y34342417D01*
X-32766000Y34342417D01*
X-32765997Y34342417D01*
X-32560073Y34362699D01*
X-32560072Y34362700D01*
X-32560066Y34362700D01*
X-32362046Y34422768D01*
X-32179550Y34520315D01*
X-32019590Y34651590D01*
X-31888315Y34811550D01*
X-31790768Y34994046D01*
X-31730700Y35192066D01*
X-31727646Y35223066D01*
X-31710417Y35397997D01*
X-31710417Y35398004D01*
X-31730699Y35603928D01*
X-31730700Y35603930D01*
X-31730700Y35603934D01*
X-31790768Y35801954D01*
X-31888315Y35984450D01*
X-32019590Y36144410D01*
X-32179550Y36275685D01*
X-32179552Y36275686D01*
X-32179553Y36275687D01*
X-32362046Y36373232D01*
X-32464241Y36404232D01*
X-32560066Y36433300D01*
X-32560067Y36433301D01*
X-32560073Y36433302D01*
X-32765997Y36453583D01*
X-32766003Y36453583D01*
X-32971928Y36433302D01*
X-33169955Y36373232D01*
X-33352448Y36275687D01*
X-33512410Y36144410D01*
X-33643687Y35984448D01*
X-33741232Y35801955D01*
X-33801302Y35603928D01*
X-33821583Y35398004D01*
X-35555654Y35398004D01*
X-35557500Y35409661D01*
X-35607905Y35508587D01*
X-35686413Y35587095D01*
X-35686414Y35587096D01*
X-35785337Y35637499D01*
X-35785338Y35637500D01*
X-35785339Y35637500D01*
X-35895000Y35654869D01*
X-36004661Y35637500D01*
X-36004663Y35637500D01*
X-36004665Y35637499D01*
X-36108333Y35584678D01*
X-36178110Y35571574D01*
X-36222737Y35584678D01*
X-36274613Y35611110D01*
X-36274615Y35611111D01*
X-36274616Y35611111D01*
X-36384277Y35628480D01*
X-36493938Y35611111D01*
X-36493940Y35611111D01*
X-36493941Y35611110D01*
X-36592864Y35560707D01*
X-36671373Y35482198D01*
X-36721776Y35383275D01*
X-36721777Y35383274D01*
X-36721777Y35383272D01*
X-36739146Y35273611D01*
X-44113814Y35273611D01*
X-44100131Y35360000D01*
X-44117500Y35469661D01*
X-44167905Y35568587D01*
X-44246413Y35647095D01*
X-44246414Y35647096D01*
X-44345337Y35697499D01*
X-44345338Y35697500D01*
X-44345339Y35697500D01*
X-44455000Y35714869D01*
X-44564661Y35697500D01*
X-44564663Y35697500D01*
X-44564664Y35697499D01*
X-44663587Y35647096D01*
X-44742096Y35568587D01*
X-44792499Y35469664D01*
X-44792500Y35469663D01*
X-44792500Y35469661D01*
X-44809869Y35360000D01*
X-47156213Y35360000D01*
X-47149417Y35428997D01*
X-47149417Y35429004D01*
X-47169699Y35634928D01*
X-47169700Y35634930D01*
X-47169700Y35634934D01*
X-47229768Y35832954D01*
X-47327315Y36015450D01*
X-47458590Y36175410D01*
X-47618550Y36306685D01*
X-47618552Y36306686D01*
X-47618553Y36306687D01*
X-47801046Y36404232D01*
X-47857688Y36421414D01*
X-47999066Y36464300D01*
X-47999067Y36464301D01*
X-47999073Y36464302D01*
X-48204997Y36484583D01*
X-48205003Y36484583D01*
X-48410928Y36464302D01*
X-48608955Y36404232D01*
X-48791448Y36306687D01*
X-48951410Y36175410D01*
X-49082687Y36015448D01*
X-49180232Y35832955D01*
X-49240302Y35634928D01*
X-49260583Y35429004D01*
X-49956536Y35429004D01*
X-49956417Y36630000D01*
X-44779869Y36630000D01*
X-44762500Y36520339D01*
X-44762500Y36520338D01*
X-44762499Y36520337D01*
X-44728487Y36453583D01*
X-44712095Y36421413D01*
X-44633587Y36342905D01*
X-44534661Y36292500D01*
X-44425000Y36275131D01*
X-44315339Y36292500D01*
X-44216413Y36342905D01*
X-44137905Y36421413D01*
X-44087500Y36520339D01*
X-44070131Y36630000D01*
X-44087500Y36739661D01*
X-44137905Y36838587D01*
X-44216413Y36917095D01*
X-44216414Y36917096D01*
X-44315337Y36967499D01*
X-44315338Y36967500D01*
X-44315339Y36967500D01*
X-44425000Y36984869D01*
X-44534661Y36967500D01*
X-44534663Y36967500D01*
X-44534664Y36967499D01*
X-44633587Y36917096D01*
X-44712096Y36838587D01*
X-44762499Y36739664D01*
X-44762500Y36739663D01*
X-44762500Y36739661D01*
X-44779869Y36630000D01*
X-49956417Y36630000D01*
X-49956284Y37969004D01*
X-49260583Y37969004D01*
X-49260583Y37968997D01*
X-49240302Y37763073D01*
X-49240301Y37763067D01*
X-49240300Y37763066D01*
X-49180232Y37565046D01*
X-49082685Y37382550D01*
X-48951410Y37222590D01*
X-48791450Y37091315D01*
X-48608954Y36993768D01*
X-48410934Y36933700D01*
X-48410930Y36933700D01*
X-48410928Y36933699D01*
X-48205003Y36913417D01*
X-48205000Y36913417D01*
X-48204997Y36913417D01*
X-47999073Y36933699D01*
X-47999072Y36933700D01*
X-47999066Y36933700D01*
X-47801046Y36993768D01*
X-47618550Y37091315D01*
X-47458590Y37222590D01*
X-47327315Y37382550D01*
X-47229768Y37565046D01*
X-47169700Y37763066D01*
X-47152470Y37937997D01*
X-47152469Y37938004D01*
X-33821583Y37938004D01*
X-33821583Y37937997D01*
X-33801302Y37732073D01*
X-33801301Y37732067D01*
X-33801300Y37732066D01*
X-33741232Y37534046D01*
X-33643685Y37351550D01*
X-33512410Y37191590D01*
X-33352450Y37060315D01*
X-33169954Y36962768D01*
X-32971934Y36902700D01*
X-32971930Y36902700D01*
X-32971928Y36902699D01*
X-32766003Y36882417D01*
X-32766000Y36882417D01*
X-32765997Y36882417D01*
X-32560073Y36902699D01*
X-32560072Y36902700D01*
X-32560066Y36902700D01*
X-32362046Y36962768D01*
X-32179550Y37060315D01*
X-32019590Y37191590D01*
X-31888315Y37351550D01*
X-31790768Y37534046D01*
X-31730700Y37732066D01*
X-31727646Y37763066D01*
X-31710417Y37937997D01*
X-31710417Y37938004D01*
X-31730699Y38143928D01*
X-31730700Y38143930D01*
X-31730700Y38143934D01*
X-31790768Y38341954D01*
X-31888315Y38524450D01*
X-32019590Y38684410D01*
X-32179550Y38815685D01*
X-32179552Y38815686D01*
X-32179553Y38815687D01*
X-32362046Y38913232D01*
X-32560073Y38973302D01*
X-32765997Y38993583D01*
X-32766003Y38993583D01*
X-32971928Y38973302D01*
X-33169955Y38913232D01*
X-33352448Y38815687D01*
X-33512410Y38684410D01*
X-33643687Y38524448D01*
X-33741232Y38341955D01*
X-33801302Y38143928D01*
X-33821583Y37938004D01*
X-47152469Y37938004D01*
X-47149417Y37968997D01*
X-47149417Y37969004D01*
X-47169699Y38174928D01*
X-47169700Y38174930D01*
X-47169700Y38174934D01*
X-47229768Y38372954D01*
X-47327315Y38555450D01*
X-47458590Y38715410D01*
X-47618550Y38846685D01*
X-47618552Y38846686D01*
X-47618553Y38846687D01*
X-47801046Y38944232D01*
X-47999066Y39004300D01*
X-47999067Y39004301D01*
X-47999073Y39004302D01*
X-48204997Y39024583D01*
X-48205003Y39024583D01*
X-48410928Y39004302D01*
X-48608955Y38944232D01*
X-48791448Y38846687D01*
X-48951410Y38715410D01*
X-49082687Y38555448D01*
X-49180232Y38372955D01*
X-49240302Y38174928D01*
X-49260583Y37969004D01*
X-49956284Y37969004D01*
X-49956032Y40509004D01*
X-49260583Y40509004D01*
X-49260583Y40508997D01*
X-49240302Y40303073D01*
X-49180232Y40105046D01*
X-49085115Y39927095D01*
X-49082685Y39922550D01*
X-48951410Y39762590D01*
X-48791450Y39631315D01*
X-48608954Y39533768D01*
X-48410934Y39473700D01*
X-48410930Y39473700D01*
X-48410928Y39473699D01*
X-48205003Y39453417D01*
X-48205000Y39453417D01*
X-48204997Y39453417D01*
X-47999073Y39473699D01*
X-47999072Y39473700D01*
X-47999066Y39473700D01*
X-47801046Y39533768D01*
X-47618550Y39631315D01*
X-47607967Y39640000D01*
X-37239869Y39640000D01*
X-37222500Y39530339D01*
X-37222500Y39530338D01*
X-37222499Y39530337D01*
X-37177846Y39442699D01*
X-37172095Y39431413D01*
X-37093587Y39352905D01*
X-36994661Y39302500D01*
X-36885000Y39285131D01*
X-36775339Y39302500D01*
X-36676413Y39352905D01*
X-36597905Y39431413D01*
X-36547500Y39530339D01*
X-36530131Y39640000D01*
X-36547500Y39749661D01*
X-36597905Y39848587D01*
X-36676413Y39927095D01*
X-36676414Y39927096D01*
X-36775337Y39977499D01*
X-36775338Y39977500D01*
X-36775339Y39977500D01*
X-36885000Y39994869D01*
X-36994661Y39977500D01*
X-36994663Y39977500D01*
X-36994664Y39977499D01*
X-37093587Y39927096D01*
X-37172096Y39848587D01*
X-37222499Y39749664D01*
X-37222500Y39749663D01*
X-37222500Y39749661D01*
X-37239869Y39640000D01*
X-47607967Y39640000D01*
X-47458590Y39762590D01*
X-47327315Y39922550D01*
X-47229768Y40105046D01*
X-47169700Y40303066D01*
X-47160152Y40400000D01*
X-43779869Y40400000D01*
X-43762500Y40290339D01*
X-43762500Y40290338D01*
X-43762499Y40290337D01*
X-43753190Y40272066D01*
X-43712095Y40191413D01*
X-43633587Y40112905D01*
X-43534661Y40062500D01*
X-43425000Y40045131D01*
X-43315339Y40062500D01*
X-43216413Y40112905D01*
X-43137905Y40191413D01*
X-43087500Y40290339D01*
X-43070131Y40400000D01*
X-43082486Y40478004D01*
X-33821583Y40478004D01*
X-33821583Y40477997D01*
X-33801302Y40272073D01*
X-33741232Y40074046D01*
X-33662685Y39927095D01*
X-33643685Y39891550D01*
X-33512410Y39731590D01*
X-33352450Y39600315D01*
X-33169954Y39502768D01*
X-32971934Y39442700D01*
X-32971930Y39442700D01*
X-32971928Y39442699D01*
X-32766003Y39422417D01*
X-32766000Y39422417D01*
X-32765997Y39422417D01*
X-32560073Y39442699D01*
X-32560072Y39442700D01*
X-32560066Y39442700D01*
X-32362046Y39502768D01*
X-32179550Y39600315D01*
X-32019590Y39731590D01*
X-31888315Y39891550D01*
X-31790768Y40074046D01*
X-31730700Y40272066D01*
X-31727646Y40303066D01*
X-31710417Y40477997D01*
X-31710417Y40478004D01*
X-31730699Y40683928D01*
X-31730700Y40683930D01*
X-31730700Y40683934D01*
X-31790768Y40881954D01*
X-31888315Y41064450D01*
X-32019590Y41224410D01*
X-32179550Y41355685D01*
X-32179552Y41355686D01*
X-32179553Y41355687D01*
X-32362046Y41453232D01*
X-32560073Y41513302D01*
X-32765997Y41533583D01*
X-32766003Y41533583D01*
X-32971928Y41513302D01*
X-33169955Y41453232D01*
X-33352448Y41355687D01*
X-33512410Y41224410D01*
X-33643687Y41064448D01*
X-33741232Y40881955D01*
X-33801302Y40683928D01*
X-33821583Y40478004D01*
X-43082486Y40478004D01*
X-43087500Y40509661D01*
X-43137905Y40608587D01*
X-43216413Y40687095D01*
X-43216414Y40687096D01*
X-43315337Y40737499D01*
X-43315338Y40737500D01*
X-43315339Y40737500D01*
X-43425000Y40754869D01*
X-43534661Y40737500D01*
X-43534663Y40737500D01*
X-43534664Y40737499D01*
X-43633587Y40687096D01*
X-43712096Y40608587D01*
X-43762499Y40509664D01*
X-43762500Y40509663D01*
X-43762500Y40509661D01*
X-43779869Y40400000D01*
X-47160152Y40400000D01*
X-47149417Y40508997D01*
X-47149417Y40509004D01*
X-47169699Y40714928D01*
X-47169700Y40714930D01*
X-47169700Y40714934D01*
X-47229768Y40912954D01*
X-47327315Y41095450D01*
X-47458590Y41255410D01*
X-47618550Y41386685D01*
X-47618552Y41386686D01*
X-47618553Y41386687D01*
X-47801046Y41484232D01*
X-47829637Y41492905D01*
X-47999066Y41544300D01*
X-47999067Y41544301D01*
X-47999073Y41544302D01*
X-48204997Y41564583D01*
X-48205003Y41564583D01*
X-48410928Y41544302D01*
X-48608955Y41484232D01*
X-48791448Y41386687D01*
X-48951410Y41255410D01*
X-49082687Y41095448D01*
X-49180232Y40912955D01*
X-49240302Y40714928D01*
X-49260583Y40509004D01*
X-49956032Y40509004D01*
X-49955906Y41780000D01*
X-47299869Y41780000D01*
X-47282500Y41670339D01*
X-47232095Y41571413D01*
X-47153587Y41492905D01*
X-47054661Y41442500D01*
X-46945000Y41425131D01*
X-46835339Y41442500D01*
X-46736413Y41492905D01*
X-46657905Y41571413D01*
X-46607500Y41670339D01*
X-46590131Y41780000D01*
X-46607500Y41889661D01*
X-46657905Y41988587D01*
X-46736413Y42067095D01*
X-46736414Y42067096D01*
X-46835337Y42117499D01*
X-46835338Y42117500D01*
X-46835339Y42117500D01*
X-46945000Y42134869D01*
X-47054661Y42117500D01*
X-47054663Y42117500D01*
X-47054664Y42117499D01*
X-47153587Y42067096D01*
X-47232096Y41988587D01*
X-47282499Y41889664D01*
X-47282500Y41889663D01*
X-47282500Y41889661D01*
X-47299869Y41780000D01*
X-49955906Y41780000D01*
X-49955780Y43049004D01*
X-49260583Y43049004D01*
X-49260583Y43048997D01*
X-49240302Y42843073D01*
X-49240301Y42843067D01*
X-49240300Y42843066D01*
X-49180232Y42645046D01*
X-49082685Y42462550D01*
X-48951410Y42302590D01*
X-48791450Y42171315D01*
X-48608954Y42073768D01*
X-48410934Y42013700D01*
X-48410930Y42013700D01*
X-48410928Y42013699D01*
X-48205003Y41993417D01*
X-48205000Y41993417D01*
X-48204997Y41993417D01*
X-47999073Y42013699D01*
X-47999072Y42013700D01*
X-47999066Y42013700D01*
X-47801046Y42073768D01*
X-47618550Y42171315D01*
X-47458590Y42302590D01*
X-47327315Y42462550D01*
X-47229768Y42645046D01*
X-47169700Y42843066D01*
X-47160013Y42941413D01*
X-47149417Y43048997D01*
X-47149417Y43049004D01*
X-47159364Y43150000D01*
X-46409869Y43150000D01*
X-46392500Y43040339D01*
X-46392500Y43040338D01*
X-46392499Y43040337D01*
X-46347049Y42951134D01*
X-46342095Y42941413D01*
X-46263587Y42862905D01*
X-46164661Y42812500D01*
X-46055000Y42795131D01*
X-45945339Y42812500D01*
X-45846413Y42862905D01*
X-45767905Y42941413D01*
X-45717500Y43040339D01*
X-45700131Y43150000D01*
X-45717500Y43259661D01*
X-45767905Y43358587D01*
X-45809318Y43400000D01*
X-43859869Y43400000D01*
X-43842500Y43290339D01*
X-43842500Y43290338D01*
X-43842499Y43290337D01*
X-43808666Y43223934D01*
X-43792095Y43191413D01*
X-43713587Y43112905D01*
X-43614661Y43062500D01*
X-43505000Y43045131D01*
X-43395339Y43062500D01*
X-43296413Y43112905D01*
X-43217905Y43191413D01*
X-43167500Y43290339D01*
X-43151715Y43390000D01*
X-39059869Y43390000D01*
X-39042500Y43280339D01*
X-39042500Y43280338D01*
X-39042499Y43280337D01*
X-38997191Y43191413D01*
X-38992095Y43181413D01*
X-38913587Y43102905D01*
X-38814661Y43052500D01*
X-38705000Y43035131D01*
X-38595339Y43052500D01*
X-38496413Y43102905D01*
X-38417905Y43181413D01*
X-38367500Y43280339D01*
X-38350131Y43390000D01*
X-38367500Y43499661D01*
X-38417905Y43598587D01*
X-38496413Y43677095D01*
X-38496414Y43677096D01*
X-38595337Y43727499D01*
X-38595338Y43727500D01*
X-38595339Y43727500D01*
X-38705000Y43744869D01*
X-38814661Y43727500D01*
X-38814663Y43727500D01*
X-38814664Y43727499D01*
X-38913587Y43677096D01*
X-38992096Y43598587D01*
X-39042499Y43499664D01*
X-39042500Y43499663D01*
X-39042500Y43499661D01*
X-39059869Y43390000D01*
X-43151715Y43390000D01*
X-43150131Y43400000D01*
X-43167500Y43509661D01*
X-43217905Y43608587D01*
X-43296413Y43687095D01*
X-43296414Y43687096D01*
X-43395337Y43737499D01*
X-43395338Y43737500D01*
X-43395339Y43737500D01*
X-43505000Y43754869D01*
X-43614661Y43737500D01*
X-43614663Y43737500D01*
X-43614664Y43737499D01*
X-43713587Y43687096D01*
X-43792096Y43608587D01*
X-43842499Y43509664D01*
X-43842500Y43509663D01*
X-43842500Y43509661D01*
X-43859869Y43400000D01*
X-45809318Y43400000D01*
X-45846413Y43437095D01*
X-45846414Y43437096D01*
X-45945337Y43487499D01*
X-45945338Y43487500D01*
X-45945339Y43487500D01*
X-46055000Y43504869D01*
X-46164661Y43487500D01*
X-46164663Y43487500D01*
X-46164664Y43487499D01*
X-46263587Y43437096D01*
X-46342096Y43358587D01*
X-46392499Y43259664D01*
X-46392500Y43259663D01*
X-46392500Y43259661D01*
X-46409869Y43150000D01*
X-47159364Y43150000D01*
X-47169699Y43254928D01*
X-47169700Y43254930D01*
X-47169700Y43254934D01*
X-47229768Y43452954D01*
X-47327315Y43635450D01*
X-47458590Y43795410D01*
X-47618550Y43926685D01*
X-47618552Y43926686D01*
X-47618553Y43926687D01*
X-47801046Y44024232D01*
X-47999066Y44084300D01*
X-47999067Y44084301D01*
X-47999073Y44084302D01*
X-48204997Y44104583D01*
X-48205003Y44104583D01*
X-48410928Y44084302D01*
X-48608955Y44024232D01*
X-48791448Y43926687D01*
X-48951410Y43795410D01*
X-49082687Y43635448D01*
X-49180232Y43452955D01*
X-49240302Y43254928D01*
X-49260583Y43049004D01*
X-49955780Y43049004D01*
X-49955528Y45589004D01*
X-49260583Y45589004D01*
X-49260583Y45588997D01*
X-49240302Y45383073D01*
X-49180232Y45185046D01*
X-49096753Y45028868D01*
X-49082685Y45002550D01*
X-48951410Y44842590D01*
X-48791450Y44711315D01*
X-48608954Y44613768D01*
X-48410934Y44553700D01*
X-48410930Y44553700D01*
X-48410928Y44553699D01*
X-48205003Y44533417D01*
X-48205000Y44533417D01*
X-48204997Y44533417D01*
X-47999073Y44553699D01*
X-47999072Y44553700D01*
X-47999066Y44553700D01*
X-47801046Y44613768D01*
X-47618550Y44711315D01*
X-47461746Y44840000D01*
X-46869869Y44840000D01*
X-46852500Y44730339D01*
X-46802095Y44631413D01*
X-46723587Y44552905D01*
X-46624661Y44502500D01*
X-46515000Y44485131D01*
X-46405339Y44502500D01*
X-46306413Y44552905D01*
X-46227905Y44631413D01*
X-46177500Y44730339D01*
X-46160131Y44840000D01*
X-46163259Y44859751D01*
X-37475500Y44859751D01*
X-37475500Y43120250D01*
X-37464013Y43062500D01*
X-37463867Y43061769D01*
X-37419552Y42995448D01*
X-37353231Y42951133D01*
X-37294748Y42939500D01*
X-37294747Y42939500D01*
X-35555253Y42939500D01*
X-35555252Y42939500D01*
X-35496769Y42951133D01*
X-35430448Y42995448D01*
X-35415376Y43018004D01*
X-33821583Y43018004D01*
X-33821583Y43017997D01*
X-33801302Y42812073D01*
X-33801301Y42812067D01*
X-33801300Y42812066D01*
X-33741232Y42614046D01*
X-33643685Y42431550D01*
X-33512410Y42271590D01*
X-33352450Y42140315D01*
X-33169954Y42042768D01*
X-32971934Y41982700D01*
X-32971930Y41982700D01*
X-32971928Y41982699D01*
X-32766003Y41962417D01*
X-32766000Y41962417D01*
X-32765997Y41962417D01*
X-32560073Y41982699D01*
X-32560072Y41982700D01*
X-32560066Y41982700D01*
X-32362046Y42042768D01*
X-32179550Y42140315D01*
X-32019590Y42271590D01*
X-31888315Y42431550D01*
X-31790768Y42614046D01*
X-31730700Y42812066D01*
X-31727646Y42843066D01*
X-31710417Y43017997D01*
X-31710417Y43018004D01*
X-31730699Y43223928D01*
X-31730700Y43223930D01*
X-31730700Y43223934D01*
X-31790768Y43421954D01*
X-31888315Y43604450D01*
X-32019590Y43764410D01*
X-32179550Y43895685D01*
X-32179552Y43895686D01*
X-32179553Y43895687D01*
X-32362046Y43993232D01*
X-32560073Y44053302D01*
X-32765997Y44073583D01*
X-32766003Y44073583D01*
X-32971928Y44053302D01*
X-33169955Y43993232D01*
X-33352448Y43895687D01*
X-33512410Y43764410D01*
X-33643687Y43604448D01*
X-33741232Y43421955D01*
X-33801302Y43223928D01*
X-33821583Y43018004D01*
X-35415376Y43018004D01*
X-35386133Y43061769D01*
X-35374500Y43120252D01*
X-35374500Y44859748D01*
X-35386133Y44918231D01*
X-35430448Y44984552D01*
X-35496769Y45028867D01*
X-35496772Y45028868D01*
X-35555250Y45040500D01*
X-35555252Y45040500D01*
X-37294748Y45040500D01*
X-37294751Y45040500D01*
X-37353229Y45028868D01*
X-37353232Y45028867D01*
X-37419552Y44984552D01*
X-37463867Y44918232D01*
X-37463868Y44918229D01*
X-37475500Y44859751D01*
X-46163259Y44859751D01*
X-46177500Y44949661D01*
X-46227905Y45048587D01*
X-46306413Y45127095D01*
X-46306414Y45127096D01*
X-46405337Y45177499D01*
X-46405338Y45177500D01*
X-46405339Y45177500D01*
X-46515000Y45194869D01*
X-46624661Y45177500D01*
X-46624663Y45177500D01*
X-46624664Y45177499D01*
X-46723587Y45127096D01*
X-46802096Y45048587D01*
X-46852499Y44949664D01*
X-46852500Y44949663D01*
X-46852500Y44949661D01*
X-46869869Y44840000D01*
X-47461746Y44840000D01*
X-47458590Y44842590D01*
X-47327315Y45002550D01*
X-47229768Y45185046D01*
X-47169700Y45383066D01*
X-47160702Y45474417D01*
X-47149417Y45588997D01*
X-47149417Y45589004D01*
X-47169699Y45794928D01*
X-47169700Y45794930D01*
X-47169700Y45794934D01*
X-47229768Y45992954D01*
X-47327315Y46175450D01*
X-47458590Y46335410D01*
X-47618550Y46466685D01*
X-47618552Y46466686D01*
X-47618553Y46466687D01*
X-47774420Y46550000D01*
X-46769869Y46550000D01*
X-46752500Y46440339D01*
X-46702095Y46341413D01*
X-46623587Y46262905D01*
X-46524661Y46212500D01*
X-46415000Y46195131D01*
X-46305339Y46212500D01*
X-46206413Y46262905D01*
X-46127905Y46341413D01*
X-46077500Y46440339D01*
X-46060131Y46550000D01*
X-46077500Y46659661D01*
X-46127905Y46758587D01*
X-46206413Y46837095D01*
X-46206414Y46837096D01*
X-46305337Y46887499D01*
X-46305338Y46887500D01*
X-46305339Y46887500D01*
X-46415000Y46904869D01*
X-46524661Y46887500D01*
X-46524663Y46887500D01*
X-46524664Y46887499D01*
X-46623587Y46837096D01*
X-46702096Y46758587D01*
X-46752499Y46659664D01*
X-46752500Y46659663D01*
X-46752500Y46659661D01*
X-46769869Y46550000D01*
X-47774420Y46550000D01*
X-47801046Y46564232D01*
X-47999066Y46624300D01*
X-47999067Y46624301D01*
X-47999073Y46624302D01*
X-48204997Y46644583D01*
X-48205003Y46644583D01*
X-48410928Y46624302D01*
X-48608955Y46564232D01*
X-48791448Y46466687D01*
X-48951410Y46335410D01*
X-49082687Y46175448D01*
X-49180232Y45992955D01*
X-49240302Y45794928D01*
X-49260583Y45589004D01*
X-49955528Y45589004D01*
X-49955276Y48129004D01*
X-49260583Y48129004D01*
X-49260583Y48128997D01*
X-49240302Y47923073D01*
X-49180232Y47725046D01*
X-49094846Y47565300D01*
X-49082685Y47542550D01*
X-48951410Y47382590D01*
X-48791450Y47251315D01*
X-48608954Y47153768D01*
X-48410934Y47093700D01*
X-48410930Y47093700D01*
X-48410928Y47093699D01*
X-48205003Y47073417D01*
X-48205000Y47073417D01*
X-48204997Y47073417D01*
X-47999073Y47093699D01*
X-47999072Y47093700D01*
X-47999066Y47093700D01*
X-47801046Y47153768D01*
X-47618550Y47251315D01*
X-47458590Y47382590D01*
X-47327315Y47542550D01*
X-47229768Y47725046D01*
X-47169700Y47923066D01*
X-47169092Y47929232D01*
X-47149417Y48128997D01*
X-47149417Y48129004D01*
X-47169699Y48334928D01*
X-47169700Y48334930D01*
X-47169700Y48334934D01*
X-47229768Y48532954D01*
X-47327315Y48715450D01*
X-47458590Y48875410D01*
X-47618550Y49006685D01*
X-47618552Y49006686D01*
X-47618553Y49006687D01*
X-47801046Y49104232D01*
X-47894241Y49132502D01*
X-47999066Y49164300D01*
X-47999067Y49164301D01*
X-47999073Y49164302D01*
X-48204997Y49184583D01*
X-48205003Y49184583D01*
X-48410928Y49164302D01*
X-48608955Y49104232D01*
X-48791448Y49006687D01*
X-48951410Y48875410D01*
X-49082687Y48715448D01*
X-49180232Y48532955D01*
X-49240302Y48334928D01*
X-49260583Y48129004D01*
X-49955276Y48129004D01*
X-49955164Y49260000D01*
X-42399869Y49260000D01*
X-42382500Y49150339D01*
X-42382500Y49150338D01*
X-42382499Y49150337D01*
X-42343213Y49073232D01*
X-42332095Y49051413D01*
X-42253587Y48972905D01*
X-42154661Y48922500D01*
X-42045000Y48905131D01*
X-41935339Y48922500D01*
X-41836413Y48972905D01*
X-41757905Y49051413D01*
X-41707500Y49150339D01*
X-41706487Y49156741D01*
X-41676079Y49220894D01*
X-41615814Y49258425D01*
X-41601750Y49261485D01*
X-41595339Y49262500D01*
X-41569485Y49275674D01*
X-41499710Y49288779D01*
X-41433925Y49262081D01*
X-41423186Y49252504D01*
X-41353587Y49182905D01*
X-41254661Y49132500D01*
X-41145000Y49115131D01*
X-41035339Y49132500D01*
X-40936413Y49182905D01*
X-40857905Y49261413D01*
X-40826015Y49324001D01*
X-37761545Y49324001D01*
X-37761544Y49324000D01*
X-36855703Y49324000D01*
X-36890925Y49262993D01*
X-36925000Y49135826D01*
X-36925000Y49004174D01*
X-36890925Y48877007D01*
X-36855703Y48816000D01*
X-37761545Y48816000D01*
X-37713824Y48627551D01*
X-37713821Y48627544D01*
X-37623420Y48421452D01*
X-37500326Y48233042D01*
X-37347903Y48067466D01*
X-37170302Y47929233D01*
X-37170301Y47929232D01*
X-36972372Y47822118D01*
X-36972370Y47822117D01*
X-36783770Y47757371D01*
X-36725835Y47716334D01*
X-36699283Y47650489D01*
X-36712544Y47580742D01*
X-36761409Y47529237D01*
X-36788106Y47517624D01*
X-36828949Y47505235D01*
X-36828954Y47505233D01*
X-37011448Y47407687D01*
X-37171410Y47276410D01*
X-37302687Y47116448D01*
X-37400232Y46933955D01*
X-37460302Y46735928D01*
X-37480583Y46530004D01*
X-37480583Y46529997D01*
X-37460302Y46324073D01*
X-37400232Y46126046D01*
X-37312523Y45961954D01*
X-37302685Y45943550D01*
X-37171410Y45783590D01*
X-37011450Y45652315D01*
X-36828954Y45554768D01*
X-36630934Y45494700D01*
X-36630930Y45494700D01*
X-36630928Y45494699D01*
X-36425003Y45474417D01*
X-36425000Y45474417D01*
X-36424997Y45474417D01*
X-36219073Y45494699D01*
X-36219072Y45494700D01*
X-36219066Y45494700D01*
X-36021046Y45554768D01*
X-36014992Y45558004D01*
X-33821583Y45558004D01*
X-33821583Y45557997D01*
X-33801302Y45352073D01*
X-33741232Y45154046D01*
X-33674323Y45028868D01*
X-33643685Y44971550D01*
X-33512410Y44811590D01*
X-33352450Y44680315D01*
X-33169954Y44582768D01*
X-32971934Y44522700D01*
X-32971930Y44522700D01*
X-32971928Y44522699D01*
X-32766003Y44502417D01*
X-32766000Y44502417D01*
X-32765997Y44502417D01*
X-32560073Y44522699D01*
X-32560072Y44522700D01*
X-32560066Y44522700D01*
X-32362046Y44582768D01*
X-32179550Y44680315D01*
X-32019590Y44811590D01*
X-31888315Y44971550D01*
X-31790768Y45154046D01*
X-31730700Y45352066D01*
X-31727646Y45383066D01*
X-31710417Y45557997D01*
X-31710417Y45558004D01*
X-31730699Y45763928D01*
X-31730700Y45763930D01*
X-31730700Y45763934D01*
X-31790768Y45961954D01*
X-31888315Y46144450D01*
X-32019590Y46304410D01*
X-32179550Y46435685D01*
X-32179552Y46435686D01*
X-32179553Y46435687D01*
X-32362046Y46533232D01*
X-32560073Y46593302D01*
X-32765997Y46613583D01*
X-32766003Y46613583D01*
X-32971928Y46593302D01*
X-33169955Y46533232D01*
X-33352448Y46435687D01*
X-33512410Y46304410D01*
X-33643687Y46144448D01*
X-33741232Y45961955D01*
X-33801302Y45763928D01*
X-33821583Y45558004D01*
X-36014992Y45558004D01*
X-35838550Y45652315D01*
X-35678590Y45783590D01*
X-35547315Y45943550D01*
X-35449768Y46126046D01*
X-35389700Y46324066D01*
X-35388582Y46335410D01*
X-35369417Y46529997D01*
X-35369417Y46530004D01*
X-35389699Y46735928D01*
X-35389700Y46735930D01*
X-35389700Y46735934D01*
X-35449768Y46933954D01*
X-35547315Y47116450D01*
X-35678590Y47276410D01*
X-35838550Y47407685D01*
X-35838552Y47407686D01*
X-35838553Y47407687D01*
X-36021045Y47505232D01*
X-36042958Y47511879D01*
X-36061896Y47517624D01*
X-36121276Y47556538D01*
X-36150192Y47621380D01*
X-36139461Y47691561D01*
X-36092491Y47744800D01*
X-36066231Y47757371D01*
X-35877631Y47822117D01*
X-35877629Y47822118D01*
X-35679700Y47929232D01*
X-35679699Y47929233D01*
X-35502098Y48067466D01*
X-35473986Y48098004D01*
X-33821583Y48098004D01*
X-33821583Y48097997D01*
X-33801302Y47892073D01*
X-33741232Y47694046D01*
X-33672416Y47565300D01*
X-33643685Y47511550D01*
X-33512410Y47351590D01*
X-33352450Y47220315D01*
X-33169954Y47122768D01*
X-32971934Y47062700D01*
X-32971930Y47062700D01*
X-32971928Y47062699D01*
X-32766003Y47042417D01*
X-32766000Y47042417D01*
X-32765997Y47042417D01*
X-32560073Y47062699D01*
X-32560072Y47062700D01*
X-32560066Y47062700D01*
X-32362046Y47122768D01*
X-32179550Y47220315D01*
X-32019590Y47351590D01*
X-31888315Y47511550D01*
X-31790768Y47694046D01*
X-31730700Y47892066D01*
X-31727646Y47923066D01*
X-31710417Y48097997D01*
X-31710417Y48098004D01*
X-31730699Y48303928D01*
X-31730700Y48303930D01*
X-31730700Y48303934D01*
X-31790768Y48501954D01*
X-31888315Y48684450D01*
X-32019590Y48844410D01*
X-32179550Y48975685D01*
X-32179552Y48975686D01*
X-32179553Y48975687D01*
X-32362046Y49073232D01*
X-32500170Y49115131D01*
X-32560066Y49133300D01*
X-32560067Y49133301D01*
X-32560073Y49133302D01*
X-32765997Y49153583D01*
X-32766003Y49153583D01*
X-32971928Y49133302D01*
X-33169955Y49073232D01*
X-33352448Y48975687D01*
X-33512410Y48844410D01*
X-33643687Y48684448D01*
X-33741232Y48501955D01*
X-33801302Y48303928D01*
X-33821583Y48098004D01*
X-35473986Y48098004D01*
X-35349675Y48233042D01*
X-35226581Y48421452D01*
X-35136180Y48627544D01*
X-35136177Y48627551D01*
X-35088456Y48816000D01*
X-35994297Y48816000D01*
X-35959075Y48877007D01*
X-35925000Y49004174D01*
X-35925000Y49135826D01*
X-35959075Y49262993D01*
X-35994297Y49324000D01*
X-35088456Y49324000D01*
X-35088456Y49324001D01*
X-35136177Y49512450D01*
X-35136180Y49512457D01*
X-35226581Y49718549D01*
X-35349675Y49906959D01*
X-35502098Y50072535D01*
X-35679699Y50210768D01*
X-35679700Y50210769D01*
X-35877629Y50317883D01*
X-35877631Y50317884D01*
X-36090488Y50390957D01*
X-36090499Y50390960D01*
X-36171000Y50404394D01*
X-36171000Y49500703D01*
X-36232007Y49535925D01*
X-36359174Y49570000D01*
X-36490826Y49570000D01*
X-36617993Y49535925D01*
X-36679000Y49500703D01*
X-36679000Y50404393D01*
X-36679001Y50404394D01*
X-36759502Y50390960D01*
X-36759513Y50390957D01*
X-36972370Y50317884D01*
X-36972372Y50317883D01*
X-37170301Y50210769D01*
X-37170302Y50210768D01*
X-37347903Y50072535D01*
X-37500326Y49906959D01*
X-37623420Y49718549D01*
X-37713821Y49512457D01*
X-37713824Y49512450D01*
X-37761545Y49324001D01*
X-40826015Y49324001D01*
X-40807500Y49360339D01*
X-40790131Y49470000D01*
X-40807500Y49579661D01*
X-40857905Y49678587D01*
X-40911300Y49731982D01*
X-40945326Y49794294D01*
X-40940261Y49865109D01*
X-40902750Y49915218D01*
X-40903425Y49915893D01*
X-40898730Y49920589D01*
X-40897714Y49921945D01*
X-40896415Y49922904D01*
X-40896416Y49922904D01*
X-40896413Y49922905D01*
X-40817905Y50001413D01*
X-40767500Y50100339D01*
X-40750131Y50210000D01*
X-40750131Y50210003D01*
X-40750131Y50210004D01*
X-40763002Y50291261D01*
X-40753904Y50361672D01*
X-40708183Y50415987D01*
X-40696751Y50422660D01*
X-40696416Y50422903D01*
X-40696416Y50422904D01*
X-40696413Y50422905D01*
X-40617905Y50501413D01*
X-40567500Y50600339D01*
X-40561534Y50638004D01*
X-33821583Y50638004D01*
X-33821583Y50637997D01*
X-33801302Y50432073D01*
X-33801301Y50432067D01*
X-33801300Y50432066D01*
X-33792504Y50403070D01*
X-33741232Y50234046D01*
X-33666836Y50094861D01*
X-33643685Y50051550D01*
X-33512410Y49891590D01*
X-33352450Y49760315D01*
X-33169954Y49662768D01*
X-32971934Y49602700D01*
X-32971930Y49602700D01*
X-32971928Y49602699D01*
X-32766003Y49582417D01*
X-32766000Y49582417D01*
X-32765997Y49582417D01*
X-32560073Y49602699D01*
X-32560072Y49602700D01*
X-32560066Y49602700D01*
X-32362046Y49662768D01*
X-32179550Y49760315D01*
X-32019590Y49891590D01*
X-31888315Y50051550D01*
X-31790768Y50234046D01*
X-31730700Y50432066D01*
X-31729052Y50448790D01*
X-31710417Y50637997D01*
X-31710417Y50638004D01*
X-31730699Y50843928D01*
X-31730700Y50843930D01*
X-31730700Y50843934D01*
X-31790768Y51041954D01*
X-31888315Y51224450D01*
X-32019590Y51384410D01*
X-32179550Y51515685D01*
X-32179552Y51515686D01*
X-32179553Y51515687D01*
X-32362046Y51613232D01*
X-32560073Y51673302D01*
X-32765997Y51693583D01*
X-32766003Y51693583D01*
X-32971928Y51673302D01*
X-33169955Y51613232D01*
X-33352448Y51515687D01*
X-33512410Y51384410D01*
X-33643687Y51224448D01*
X-33741232Y51041955D01*
X-33801302Y50843928D01*
X-33821583Y50638004D01*
X-40561534Y50638004D01*
X-40550131Y50710000D01*
X-40567500Y50819661D01*
X-40617905Y50918587D01*
X-40696413Y50997095D01*
X-40696414Y50997096D01*
X-40703425Y51004107D01*
X-40700684Y51006849D01*
X-40732376Y51047940D01*
X-40738457Y51118676D01*
X-40728663Y51146761D01*
X-40727502Y51150332D01*
X-40727502Y51150337D01*
X-40727500Y51150339D01*
X-40710131Y51260000D01*
X-40711715Y51270000D01*
X-38659869Y51270000D01*
X-38642500Y51160339D01*
X-38642500Y51160338D01*
X-38642499Y51160337D01*
X-38597976Y51072954D01*
X-38592095Y51061413D01*
X-38513587Y50982905D01*
X-38414661Y50932500D01*
X-38305000Y50915131D01*
X-38195339Y50932500D01*
X-38096413Y50982905D01*
X-38017905Y51061413D01*
X-37967500Y51160339D01*
X-37950131Y51270000D01*
X-37951301Y51277387D01*
X-37942204Y51347797D01*
X-37896483Y51402113D01*
X-37863428Y51417675D01*
X-37698162Y51467807D01*
X-37698154Y51467810D01*
X-37557308Y51543096D01*
X-37557308Y51543097D01*
X-38105000Y52090790D01*
X-38105001Y52090790D01*
X-38652695Y51543097D01*
X-38649934Y51524487D01*
X-38637546Y51512318D01*
X-38621837Y51443081D01*
X-38635323Y51393749D01*
X-38642499Y51379666D01*
X-38642500Y51379662D01*
X-38642500Y51379661D01*
X-38659869Y51270000D01*
X-40711715Y51270000D01*
X-40727500Y51369661D01*
X-40777905Y51468587D01*
X-40856413Y51547095D01*
X-40856414Y51547096D01*
X-40955337Y51597499D01*
X-40955338Y51597500D01*
X-40955339Y51597500D01*
X-41065000Y51614869D01*
X-41174661Y51597500D01*
X-41174663Y51597500D01*
X-41174664Y51597499D01*
X-41273587Y51547096D01*
X-41352096Y51468587D01*
X-41402501Y51369661D01*
X-41419389Y51263039D01*
X-41449802Y51198887D01*
X-41510071Y51161361D01*
X-41563546Y51158304D01*
X-41605000Y51164869D01*
X-41605001Y51164869D01*
X-41627148Y51161361D01*
X-41714661Y51147500D01*
X-41714663Y51147500D01*
X-41714664Y51147499D01*
X-41813587Y51097096D01*
X-41892096Y51018587D01*
X-41942499Y50919664D01*
X-41942500Y50919663D01*
X-41942500Y50919661D01*
X-41959869Y50810000D01*
X-41942500Y50700339D01*
X-41942500Y50700338D01*
X-41942499Y50700337D01*
X-41910736Y50637997D01*
X-41892095Y50601413D01*
X-41813587Y50522905D01*
X-41714661Y50472500D01*
X-41605000Y50455131D01*
X-41587602Y50457887D01*
X-41517192Y50448790D01*
X-41462877Y50403070D01*
X-41441902Y50335242D01*
X-41443440Y50313728D01*
X-41459869Y50210003D01*
X-41459869Y50210000D01*
X-41442500Y50100339D01*
X-41442500Y50100338D01*
X-41442499Y50100337D01*
X-41441719Y50097936D01*
X-41441632Y50094861D01*
X-41440948Y50090546D01*
X-41441506Y50090458D01*
X-41439697Y50026968D01*
X-41476363Y49966172D01*
X-41540077Y49934851D01*
X-41585209Y49938079D01*
X-41585546Y49935948D01*
X-41595337Y49937499D01*
X-41595339Y49937500D01*
X-41705000Y49954869D01*
X-41814661Y49937500D01*
X-41814663Y49937500D01*
X-41814664Y49937499D01*
X-41913587Y49887096D01*
X-41992096Y49808587D01*
X-42042500Y49709662D01*
X-42043516Y49703247D01*
X-42073932Y49639095D01*
X-42134202Y49601572D01*
X-42148247Y49598516D01*
X-42154662Y49597500D01*
X-42253587Y49547096D01*
X-42332096Y49468587D01*
X-42382499Y49369664D01*
X-42382500Y49369663D01*
X-42382500Y49369661D01*
X-42399869Y49260000D01*
X-49955164Y49260000D01*
X-49955024Y50669004D01*
X-49260583Y50669004D01*
X-49260583Y50668997D01*
X-49240302Y50463073D01*
X-49180232Y50265046D01*
X-49089266Y50094861D01*
X-49082685Y50082550D01*
X-48951410Y49922590D01*
X-48791450Y49791315D01*
X-48608954Y49693768D01*
X-48410934Y49633700D01*
X-48410930Y49633700D01*
X-48410928Y49633699D01*
X-48205003Y49613417D01*
X-48205000Y49613417D01*
X-48204997Y49613417D01*
X-47999073Y49633699D01*
X-47999072Y49633700D01*
X-47999066Y49633700D01*
X-47801046Y49693768D01*
X-47618550Y49791315D01*
X-47458590Y49922590D01*
X-47327315Y50082550D01*
X-47229768Y50265046D01*
X-47169700Y50463066D01*
X-47168770Y50472502D01*
X-47149417Y50668997D01*
X-47149417Y50669004D01*
X-47169699Y50874928D01*
X-47169700Y50874930D01*
X-47169700Y50874934D01*
X-47229768Y51072954D01*
X-47327315Y51255450D01*
X-47458590Y51415410D01*
X-47614178Y51543097D01*
X-43452695Y51543097D01*
X-43311837Y51467806D01*
X-43112398Y51407308D01*
X-42905003Y51386881D01*
X-42904997Y51386881D01*
X-42697603Y51407308D01*
X-42498162Y51467807D01*
X-42498154Y51467810D01*
X-42357308Y51543096D01*
X-42357308Y51543097D01*
X-42905000Y52090790D01*
X-42905001Y52090790D01*
X-43452695Y51543097D01*
X-47614178Y51543097D01*
X-47618550Y51546685D01*
X-47618552Y51546686D01*
X-47618553Y51546687D01*
X-47801046Y51644232D01*
X-47999066Y51704300D01*
X-47999067Y51704301D01*
X-47999073Y51704302D01*
X-48204997Y51724583D01*
X-48205003Y51724583D01*
X-48410928Y51704302D01*
X-48608955Y51644232D01*
X-48791448Y51546687D01*
X-48951410Y51415410D01*
X-49082687Y51255448D01*
X-49180232Y51072955D01*
X-49240302Y50874928D01*
X-49260583Y50669004D01*
X-49955024Y50669004D01*
X-49954772Y53209004D01*
X-49260583Y53209004D01*
X-49260583Y53208997D01*
X-49240302Y53003073D01*
X-49180232Y52805046D01*
X-49105325Y52664905D01*
X-49082685Y52622550D01*
X-48951410Y52462590D01*
X-48791450Y52331315D01*
X-48608954Y52233768D01*
X-48410934Y52173700D01*
X-48410930Y52173700D01*
X-48410928Y52173699D01*
X-48205003Y52153417D01*
X-48205000Y52153417D01*
X-48204997Y52153417D01*
X-47999073Y52173699D01*
X-47999072Y52173700D01*
X-47999066Y52173700D01*
X-47801046Y52233768D01*
X-47618550Y52331315D01*
X-47473927Y52450003D01*
X-43968119Y52450003D01*
X-43968119Y52449998D01*
X-43947693Y52242603D01*
X-43887194Y52043162D01*
X-43811905Y51902308D01*
X-43264211Y52450001D01*
X-43310288Y52496078D01*
X-43255000Y52496078D01*
X-43255000Y52403922D01*
X-43231148Y52314905D01*
X-43185070Y52235095D01*
X-43119905Y52169930D01*
X-43040095Y52123852D01*
X-42951078Y52100000D01*
X-42858922Y52100000D01*
X-42769905Y52123852D01*
X-42690095Y52169930D01*
X-42624930Y52235095D01*
X-42578852Y52314905D01*
X-42555000Y52403922D01*
X-42555000Y52450001D01*
X-42545790Y52450001D01*
X-41998097Y51902308D01*
X-41998096Y51902308D01*
X-41922810Y52043154D01*
X-41922807Y52043162D01*
X-41862308Y52242603D01*
X-41841881Y52449998D01*
X-41841881Y52450003D01*
X-39168119Y52450003D01*
X-39168119Y52449998D01*
X-39147693Y52242603D01*
X-39087194Y52043162D01*
X-39011905Y51902308D01*
X-38464211Y52450001D01*
X-38510288Y52496078D01*
X-38455000Y52496078D01*
X-38455000Y52403922D01*
X-38431148Y52314905D01*
X-38385070Y52235095D01*
X-38319905Y52169930D01*
X-38240095Y52123852D01*
X-38151078Y52100000D01*
X-38058922Y52100000D01*
X-37969905Y52123852D01*
X-37890095Y52169930D01*
X-37824930Y52235095D01*
X-37778852Y52314905D01*
X-37755000Y52403922D01*
X-37755000Y52450001D01*
X-37745790Y52450001D01*
X-37198097Y51902308D01*
X-37198096Y51902308D01*
X-37122810Y52043154D01*
X-37122807Y52043162D01*
X-37062308Y52242603D01*
X-37041881Y52449998D01*
X-37041881Y52450003D01*
X-37062308Y52657398D01*
X-37122806Y52856837D01*
X-37198097Y52997695D01*
X-37745790Y52450001D01*
X-37755000Y52450001D01*
X-37755000Y52496078D01*
X-37778852Y52585095D01*
X-37824930Y52664905D01*
X-37890095Y52730070D01*
X-37969905Y52776148D01*
X-38058922Y52800000D01*
X-38151078Y52800000D01*
X-38240095Y52776148D01*
X-38319905Y52730070D01*
X-38385070Y52664905D01*
X-38431148Y52585095D01*
X-38455000Y52496078D01*
X-38510288Y52496078D01*
X-39011905Y52997695D01*
X-39011906Y52997694D01*
X-39087194Y52856839D01*
X-39147693Y52657398D01*
X-39168119Y52450003D01*
X-41841881Y52450003D01*
X-41862308Y52657398D01*
X-41922806Y52856837D01*
X-41998097Y52997695D01*
X-42545790Y52450001D01*
X-42555000Y52450001D01*
X-42555000Y52496078D01*
X-42578852Y52585095D01*
X-42624930Y52664905D01*
X-42690095Y52730070D01*
X-42769905Y52776148D01*
X-42858922Y52800000D01*
X-42951078Y52800000D01*
X-43040095Y52776148D01*
X-43119905Y52730070D01*
X-43185070Y52664905D01*
X-43231148Y52585095D01*
X-43255000Y52496078D01*
X-43310288Y52496078D01*
X-43811905Y52997695D01*
X-43811906Y52997694D01*
X-43887194Y52856839D01*
X-43947693Y52657398D01*
X-43968119Y52450003D01*
X-47473927Y52450003D01*
X-47458590Y52462590D01*
X-47327315Y52622550D01*
X-47229768Y52805046D01*
X-47169700Y53003066D01*
X-47152470Y53177997D01*
X-47149417Y53208997D01*
X-47149417Y53209004D01*
X-47163984Y53356905D01*
X-43452695Y53356905D01*
X-42905001Y52809211D01*
X-42905000Y52809211D01*
X-42357308Y53356905D01*
X-38652695Y53356905D01*
X-38105001Y52809211D01*
X-38105000Y52809211D01*
X-37736208Y53178004D01*
X-33821583Y53178004D01*
X-33821583Y53177997D01*
X-33801302Y52972073D01*
X-33741232Y52774046D01*
X-33682895Y52664905D01*
X-33643685Y52591550D01*
X-33512410Y52431590D01*
X-33352450Y52300315D01*
X-33169954Y52202768D01*
X-32971934Y52142700D01*
X-32971930Y52142700D01*
X-32971928Y52142699D01*
X-32766003Y52122417D01*
X-32766000Y52122417D01*
X-32765997Y52122417D01*
X-32560073Y52142699D01*
X-32560072Y52142700D01*
X-32560066Y52142700D01*
X-32362046Y52202768D01*
X-32179550Y52300315D01*
X-32019590Y52431590D01*
X-31888315Y52591550D01*
X-31790768Y52774046D01*
X-31730700Y52972066D01*
X-31728175Y52997695D01*
X-31710417Y53177997D01*
X-31710417Y53178004D01*
X-31730699Y53383928D01*
X-31730700Y53383930D01*
X-31730700Y53383934D01*
X-31790768Y53581954D01*
X-31888315Y53764450D01*
X-32019590Y53924410D01*
X-32179550Y54055685D01*
X-32179552Y54055686D01*
X-32179553Y54055687D01*
X-32362046Y54153232D01*
X-32409049Y54167490D01*
X-32560066Y54213300D01*
X-32560067Y54213301D01*
X-32560073Y54213302D01*
X-32765997Y54233583D01*
X-32766003Y54233583D01*
X-32971928Y54213302D01*
X-33169955Y54153232D01*
X-33352448Y54055687D01*
X-33512410Y53924410D01*
X-33643687Y53764448D01*
X-33741232Y53581955D01*
X-33801302Y53383928D01*
X-33821583Y53178004D01*
X-37736208Y53178004D01*
X-37557308Y53356905D01*
X-37698162Y53432194D01*
X-37897603Y53492693D01*
X-38104997Y53513119D01*
X-38105003Y53513119D01*
X-38312398Y53492693D01*
X-38511839Y53432194D01*
X-38652694Y53356906D01*
X-38652695Y53356905D01*
X-42357308Y53356905D01*
X-42498162Y53432194D01*
X-42697603Y53492693D01*
X-42904997Y53513119D01*
X-42905003Y53513119D01*
X-43112398Y53492693D01*
X-43311839Y53432194D01*
X-43452694Y53356906D01*
X-43452695Y53356905D01*
X-47163984Y53356905D01*
X-47169699Y53414928D01*
X-47169700Y53414930D01*
X-47169700Y53414934D01*
X-47229768Y53612954D01*
X-47327315Y53795450D01*
X-47413116Y53900000D01*
X-40929869Y53900000D01*
X-40912500Y53790339D01*
X-40862095Y53691413D01*
X-40783587Y53612905D01*
X-40684661Y53562500D01*
X-40575000Y53545131D01*
X-40465339Y53562500D01*
X-40366413Y53612905D01*
X-40287905Y53691413D01*
X-40237500Y53790339D01*
X-40220131Y53900000D01*
X-40237500Y54009661D01*
X-40287905Y54108587D01*
X-40366413Y54187095D01*
X-40366414Y54187096D01*
X-40465337Y54237499D01*
X-40465338Y54237500D01*
X-40465339Y54237500D01*
X-40575000Y54254869D01*
X-40684661Y54237500D01*
X-40684663Y54237500D01*
X-40684664Y54237499D01*
X-40783587Y54187096D01*
X-40862096Y54108587D01*
X-40912499Y54009664D01*
X-40912500Y54009663D01*
X-40912500Y54009661D01*
X-40929869Y53900000D01*
X-47413116Y53900000D01*
X-47458590Y53955410D01*
X-47618550Y54086685D01*
X-47618552Y54086686D01*
X-47618553Y54086687D01*
X-47801046Y54184232D01*
X-47810487Y54187096D01*
X-47999066Y54244300D01*
X-47999067Y54244301D01*
X-47999073Y54244302D01*
X-48204997Y54264583D01*
X-48205003Y54264583D01*
X-48410928Y54244302D01*
X-48608955Y54184232D01*
X-48791448Y54086687D01*
X-48951410Y53955410D01*
X-49082687Y53795448D01*
X-49180232Y53612955D01*
X-49240302Y53414928D01*
X-49260583Y53209004D01*
X-49954772Y53209004D01*
X-49954627Y54671158D01*
X-45005500Y54671158D01*
X-45005500Y54528842D01*
X-44992503Y54480337D01*
X-44968665Y54391371D01*
X-44897511Y54268129D01*
X-44897503Y54268119D01*
X-44796882Y54167498D01*
X-44796877Y54167494D01*
X-44796875Y54167492D01*
X-44796874Y54167491D01*
X-44796872Y54167490D01*
X-44673630Y54096336D01*
X-44673628Y54096336D01*
X-44673625Y54096334D01*
X-44536158Y54059500D01*
X-44536156Y54059500D01*
X-43973844Y54059500D01*
X-43973842Y54059500D01*
X-43836375Y54096334D01*
X-43836372Y54096336D01*
X-43836371Y54096336D01*
X-43768554Y54135490D01*
X-43713125Y54167492D01*
X-43612492Y54268125D01*
X-43576913Y54329750D01*
X-43541336Y54391371D01*
X-43541336Y54391372D01*
X-43541334Y54391375D01*
X-43504500Y54528842D01*
X-43504500Y54600000D01*
X-41659869Y54600000D01*
X-41642500Y54490339D01*
X-41642500Y54490338D01*
X-41642499Y54490337D01*
X-41594586Y54396300D01*
X-41592095Y54391413D01*
X-41513587Y54312905D01*
X-41414661Y54262500D01*
X-41305000Y54245131D01*
X-41195339Y54262500D01*
X-41096413Y54312905D01*
X-41017905Y54391413D01*
X-40967500Y54490339D01*
X-40951715Y54590000D01*
X-40109869Y54590000D01*
X-40092500Y54480339D01*
X-40092500Y54480338D01*
X-40092499Y54480337D01*
X-40047191Y54391413D01*
X-40042095Y54381413D01*
X-39963587Y54302905D01*
X-39864661Y54252500D01*
X-39755000Y54235131D01*
X-39645339Y54252500D01*
X-39546413Y54302905D01*
X-39467905Y54381413D01*
X-39467905Y54381414D01*
X-39460893Y54388425D01*
X-39459951Y54387483D01*
X-39411796Y54424618D01*
X-39341060Y54430696D01*
X-39278267Y54397567D01*
X-39276982Y54396300D01*
X-39203587Y54322905D01*
X-39104661Y54272500D01*
X-38995000Y54255131D01*
X-38885339Y54272500D01*
X-38786413Y54322905D01*
X-38707905Y54401413D01*
X-38657500Y54500339D01*
X-38640131Y54610000D01*
X-38650652Y54676424D01*
X-37335500Y54676424D01*
X-37335500Y54523576D01*
X-37323914Y54480337D01*
X-37295941Y54375938D01*
X-37295938Y54375931D01*
X-37219519Y54243569D01*
X-37219511Y54243559D01*
X-37111442Y54135490D01*
X-37111437Y54135486D01*
X-37111435Y54135484D01*
X-36979065Y54059060D01*
X-36831424Y54019500D01*
X-36831422Y54019500D01*
X-36678578Y54019500D01*
X-36678576Y54019500D01*
X-36530935Y54059060D01*
X-36398565Y54135484D01*
X-36290484Y54243565D01*
X-36214060Y54375935D01*
X-36174500Y54523576D01*
X-36174500Y54676424D01*
X-36214060Y54824065D01*
X-36244677Y54877095D01*
X-36290482Y54956432D01*
X-36290490Y54956442D01*
X-36398559Y55064511D01*
X-36398569Y55064519D01*
X-36530931Y55140938D01*
X-36530934Y55140939D01*
X-36530935Y55140940D01*
X-36530937Y55140941D01*
X-36530938Y55140941D01*
X-36570500Y55151542D01*
X-36678576Y55180500D01*
X-36831424Y55180500D01*
X-36910542Y55159301D01*
X-36979063Y55140941D01*
X-36979070Y55140938D01*
X-37111432Y55064519D01*
X-37111442Y55064511D01*
X-37219511Y54956442D01*
X-37219519Y54956432D01*
X-37295938Y54824070D01*
X-37295941Y54824063D01*
X-37301733Y54802446D01*
X-37335500Y54676424D01*
X-38650652Y54676424D01*
X-38657500Y54719661D01*
X-38707905Y54818587D01*
X-38786413Y54897095D01*
X-38786414Y54897096D01*
X-38885337Y54947499D01*
X-38885338Y54947500D01*
X-38885339Y54947500D01*
X-38995000Y54964869D01*
X-39104661Y54947500D01*
X-39104663Y54947500D01*
X-39104664Y54947499D01*
X-39203587Y54897096D01*
X-39203589Y54897094D01*
X-39289107Y54811575D01*
X-39290049Y54812517D01*
X-39338222Y54775377D01*
X-39408959Y54769308D01*
X-39471747Y54802446D01*
X-39473019Y54803701D01*
X-39546414Y54877096D01*
X-39645337Y54927499D01*
X-39645338Y54927500D01*
X-39645339Y54927500D01*
X-39755000Y54944869D01*
X-39864661Y54927500D01*
X-39864663Y54927500D01*
X-39864664Y54927499D01*
X-39963587Y54877096D01*
X-40042096Y54798587D01*
X-40092499Y54699664D01*
X-40092500Y54699663D01*
X-40092500Y54699661D01*
X-40109869Y54590000D01*
X-40951715Y54590000D01*
X-40950131Y54600000D01*
X-40967500Y54709661D01*
X-41017905Y54808587D01*
X-41096413Y54887095D01*
X-41096414Y54887096D01*
X-41195337Y54937499D01*
X-41195338Y54937500D01*
X-41195339Y54937500D01*
X-41305000Y54954869D01*
X-41414661Y54937500D01*
X-41414663Y54937500D01*
X-41414664Y54937499D01*
X-41513587Y54887096D01*
X-41592096Y54808587D01*
X-41642499Y54709664D01*
X-41642500Y54709663D01*
X-41642500Y54709661D01*
X-41659869Y54600000D01*
X-43504500Y54600000D01*
X-43504500Y54671158D01*
X-43541334Y54808625D01*
X-43541336Y54808628D01*
X-43541336Y54808630D01*
X-43612490Y54931872D01*
X-43612498Y54931882D01*
X-43713119Y55032503D01*
X-43713129Y55032511D01*
X-43836371Y55103665D01*
X-43852612Y55108017D01*
X-43973842Y55140500D01*
X-44536158Y55140500D01*
X-44620292Y55117957D01*
X-44673630Y55103665D01*
X-44796872Y55032511D01*
X-44796882Y55032503D01*
X-44897503Y54931882D01*
X-44897511Y54931872D01*
X-44968665Y54808630D01*
X-44970322Y54802446D01*
X-45005500Y54671158D01*
X-49954627Y54671158D01*
X-49954558Y55369933D01*
X-49954556Y55369938D01*
X-49954554Y55394992D01*
X-49954551Y55437570D01*
X-49954149Y55447597D01*
X-49943892Y55575596D01*
X-49940693Y55595440D01*
X-49911408Y55715267D01*
X-49905092Y55734353D01*
X-49859190Y55843097D01*
X-49857121Y55848000D01*
X-49847857Y55865826D01*
X-49782417Y55970398D01*
X-49770427Y55986534D01*
X-49685764Y56083279D01*
X-49678842Y56090579D01*
X-49664551Y56104493D01*
X-49664550Y56104494D01*
X-49655911Y56112905D01*
X-49648461Y56120158D01*
X-49648461Y56120159D01*
X-49635894Y56132394D01*
X-49635885Y56132407D01*
X-49290464Y56468738D01*
X-49227705Y56501928D01*
X-49156963Y56495919D01*
X-49100700Y56452618D01*
X-49076778Y56385773D01*
X-49091444Y56319065D01*
X-49180232Y56152955D01*
X-49240302Y55954928D01*
X-49260583Y55749004D01*
X-49260583Y55748997D01*
X-49240302Y55543073D01*
X-49240301Y55543067D01*
X-49240300Y55543066D01*
X-49180232Y55345046D01*
X-49082685Y55162550D01*
X-48951410Y55002590D01*
X-48791450Y54871315D01*
X-48608954Y54773768D01*
X-48410934Y54713700D01*
X-48410930Y54713700D01*
X-48410928Y54713699D01*
X-48205003Y54693417D01*
X-48205000Y54693417D01*
X-48204997Y54693417D01*
X-47999073Y54713699D01*
X-47999072Y54713700D01*
X-47999066Y54713700D01*
X-47801046Y54773768D01*
X-47618550Y54871315D01*
X-47458590Y55002590D01*
X-47327315Y55162550D01*
X-47229768Y55345046D01*
X-47169700Y55543066D01*
X-47164541Y55595440D01*
X-47149417Y55748997D01*
X-47149417Y55749004D01*
X-47158684Y55843097D01*
X-43452695Y55843097D01*
X-43311837Y55767806D01*
X-43112398Y55707308D01*
X-42905003Y55686881D01*
X-42904997Y55686881D01*
X-42697603Y55707308D01*
X-42498162Y55767807D01*
X-42498154Y55767810D01*
X-42357308Y55843096D01*
X-42357308Y55843097D01*
X-38652695Y55843097D01*
X-38511837Y55767806D01*
X-38312398Y55707308D01*
X-38105003Y55686881D01*
X-38104997Y55686881D01*
X-37897603Y55707308D01*
X-37862343Y55718004D01*
X-33821583Y55718004D01*
X-33821583Y55717997D01*
X-33801302Y55512073D01*
X-33801301Y55512067D01*
X-33801300Y55512066D01*
X-33741232Y55314046D01*
X-33643685Y55131550D01*
X-33512410Y54971590D01*
X-33352450Y54840315D01*
X-33169954Y54742768D01*
X-32971934Y54682700D01*
X-32971930Y54682700D01*
X-32971928Y54682699D01*
X-32766003Y54662417D01*
X-32766000Y54662417D01*
X-32765997Y54662417D01*
X-32560073Y54682699D01*
X-32560072Y54682700D01*
X-32560066Y54682700D01*
X-32362046Y54742768D01*
X-32179550Y54840315D01*
X-32019590Y54971590D01*
X-31888315Y55131550D01*
X-31790768Y55314046D01*
X-31730700Y55512066D01*
X-31727646Y55543066D01*
X-31710417Y55717997D01*
X-31710417Y55718004D01*
X-31730699Y55923928D01*
X-31730700Y55923930D01*
X-31730700Y55923934D01*
X-31790768Y56121954D01*
X-31888315Y56304450D01*
X-32019590Y56464410D01*
X-32179550Y56595685D01*
X-32179552Y56595686D01*
X-32179553Y56595687D01*
X-32362046Y56693232D01*
X-32464241Y56724232D01*
X-32560066Y56753300D01*
X-32560067Y56753301D01*
X-32560073Y56753302D01*
X-32765997Y56773583D01*
X-32766003Y56773583D01*
X-32971928Y56753302D01*
X-33169955Y56693232D01*
X-33352448Y56595687D01*
X-33512410Y56464410D01*
X-33643687Y56304448D01*
X-33741232Y56121955D01*
X-33801302Y55923928D01*
X-33821583Y55718004D01*
X-37862343Y55718004D01*
X-37698162Y55767807D01*
X-37698154Y55767810D01*
X-37557308Y55843096D01*
X-37557308Y55843097D01*
X-38105000Y56390790D01*
X-38105001Y56390790D01*
X-38652695Y55843097D01*
X-42357308Y55843097D01*
X-42905000Y56390790D01*
X-42905001Y56390790D01*
X-43452695Y55843097D01*
X-47158684Y55843097D01*
X-47169699Y55954928D01*
X-47169700Y55954930D01*
X-47169700Y55954934D01*
X-47229768Y56152954D01*
X-47327315Y56335450D01*
X-47380290Y56400000D01*
X-46159869Y56400000D01*
X-46142500Y56290339D01*
X-46142500Y56290338D01*
X-46142499Y56290337D01*
X-46097647Y56202308D01*
X-46092095Y56191413D01*
X-46013587Y56112905D01*
X-45914661Y56062500D01*
X-45805000Y56045131D01*
X-45695339Y56062500D01*
X-45596413Y56112905D01*
X-45517905Y56191413D01*
X-45467500Y56290339D01*
X-45450131Y56400000D01*
X-45467500Y56509661D01*
X-45517905Y56608587D01*
X-45596413Y56687095D01*
X-45596414Y56687096D01*
X-45695337Y56737499D01*
X-45695338Y56737500D01*
X-45695339Y56737500D01*
X-45805000Y56754869D01*
X-45914661Y56737500D01*
X-45914663Y56737500D01*
X-45914664Y56737499D01*
X-46013587Y56687096D01*
X-46092096Y56608587D01*
X-46142499Y56509664D01*
X-46142500Y56509663D01*
X-46142500Y56509661D01*
X-46159869Y56400000D01*
X-47380290Y56400000D01*
X-47458590Y56495410D01*
X-47618550Y56626685D01*
X-47618552Y56626686D01*
X-47618553Y56626687D01*
X-47801046Y56724232D01*
X-47886003Y56750003D01*
X-47999066Y56784300D01*
X-47999067Y56784301D01*
X-47999073Y56784302D01*
X-48204997Y56804583D01*
X-48205003Y56804583D01*
X-48410928Y56784302D01*
X-48608955Y56724232D01*
X-48753008Y56647234D01*
X-48822514Y56632762D01*
X-48888810Y56658166D01*
X-48930848Y56715379D01*
X-48935281Y56786237D01*
X-48900701Y56848243D01*
X-48498151Y57240200D01*
X-48490944Y57246693D01*
X-48490918Y57246715D01*
X-48395609Y57326160D01*
X-48379787Y57337401D01*
X-48277533Y57398767D01*
X-48260165Y57407445D01*
X-48149691Y57452362D01*
X-48131209Y57458262D01*
X-48015136Y57485662D01*
X-47995965Y57488650D01*
X-47872479Y57498235D01*
X-47862804Y57498612D01*
X-43914278Y57499507D01*
X-43846155Y57479520D01*
X-43799650Y57425875D01*
X-43789530Y57355604D01*
X-43803130Y57314111D01*
X-43887194Y57156839D01*
X-43947693Y56957398D01*
X-43968119Y56750003D01*
X-43968119Y56749998D01*
X-43947693Y56542603D01*
X-43887194Y56343162D01*
X-43811905Y56202308D01*
X-43811905Y56202307D01*
X-43255000Y56759212D01*
X-43255000Y56703922D01*
X-43231148Y56614905D01*
X-43185070Y56535095D01*
X-43119905Y56469930D01*
X-43040095Y56423852D01*
X-42951078Y56400000D01*
X-42858922Y56400000D01*
X-42769905Y56423852D01*
X-42690095Y56469930D01*
X-42624930Y56535095D01*
X-42578852Y56614905D01*
X-42555000Y56703922D01*
X-42555000Y56759211D01*
X-41998097Y56202308D01*
X-41998096Y56202308D01*
X-41922810Y56343154D01*
X-41922807Y56343162D01*
X-41862308Y56542603D01*
X-41841881Y56749998D01*
X-41841881Y56750003D01*
X-41862308Y56957398D01*
X-41922807Y57156839D01*
X-42007115Y57314568D01*
X-42021587Y57384074D01*
X-41996184Y57450370D01*
X-41938970Y57492408D01*
X-41896026Y57499964D01*
X-39113696Y57500595D01*
X-39045573Y57480608D01*
X-38999068Y57426963D01*
X-38988948Y57356692D01*
X-39002548Y57315199D01*
X-39087194Y57156839D01*
X-39147693Y56957398D01*
X-39168119Y56750003D01*
X-39168119Y56749998D01*
X-39147693Y56542603D01*
X-39087194Y56343162D01*
X-39011905Y56202308D01*
X-39011905Y56202307D01*
X-38455000Y56759212D01*
X-38455000Y56703922D01*
X-38431148Y56614905D01*
X-38385070Y56535095D01*
X-38319905Y56469930D01*
X-38240095Y56423852D01*
X-38151078Y56400000D01*
X-38058922Y56400000D01*
X-37969905Y56423852D01*
X-37890095Y56469930D01*
X-37824930Y56535095D01*
X-37778852Y56614905D01*
X-37755000Y56703922D01*
X-37755000Y56759211D01*
X-37198097Y56202308D01*
X-37198096Y56202308D01*
X-37122810Y56343154D01*
X-37122807Y56343162D01*
X-37062308Y56542603D01*
X-37041881Y56749998D01*
X-37041881Y56750003D01*
X-37062308Y56957398D01*
X-37122806Y57156837D01*
X-37207697Y57315655D01*
X-37222169Y57385161D01*
X-37196766Y57451458D01*
X-37139553Y57493496D01*
X-37096609Y57501052D01*
X-31973867Y57502213D01*
X-31973864Y57502212D01*
X-31948799Y57502218D01*
X-31948798Y57502217D01*
X-31907389Y57502227D01*
X-31895053Y57501624D01*
G37*
%TD.AperFunction*%
%TD*%
M02*
