%TF.GenerationSoftware,KiCad,Pcbnew,8.0.2-1*%
%TF.CreationDate,2024-05-26T22:58:53-07:00*%
%TF.ProjectId,PicoROM,5069636f-524f-44d2-9e6b-696361645f70,1.1*%
%TF.SameCoordinates,Original*%
%TF.FileFunction,Soldermask,Bot*%
%TF.FilePolarity,Negative*%
%FSLAX46Y46*%
G04 Gerber Fmt 4.6, Leading zero omitted, Abs format (unit mm)*
G04 Created by KiCad (PCBNEW 8.0.2-1) date 2024-05-26 22:58:53*
%MOMM*%
%LPD*%
G01*
G04 APERTURE LIST*
G04 APERTURE END LIST*
G36*
X-32718087Y18514064D02*
G01*
X-32671820Y18514064D01*
X-32631871Y18505573D01*
X-32590267Y18501475D01*
X-32538002Y18485621D01*
X-32487576Y18474902D01*
X-32455306Y18460535D01*
X-32421288Y18450215D01*
X-32367233Y18421322D01*
X-32315500Y18398289D01*
X-32291449Y18380815D01*
X-32265553Y18366973D01*
X-32212729Y18323622D01*
X-32163113Y18287573D01*
X-32147004Y18269682D01*
X-32129052Y18254949D01*
X-32080812Y18196169D01*
X-32037076Y18147595D01*
X-32027889Y18131681D01*
X-32017028Y18118448D01*
X-31976851Y18043281D01*
X-31942896Y17984470D01*
X-31938991Y17972450D01*
X-31933786Y17962713D01*
X-31905087Y17868104D01*
X-31884689Y17805328D01*
X-31883972Y17798498D01*
X-31882526Y17793734D01*
X-31868464Y17650958D01*
X-31865000Y17618000D01*
X-31868465Y17585041D01*
X-31882526Y17442267D01*
X-31883971Y17437504D01*
X-31884689Y17430672D01*
X-31905091Y17367883D01*
X-31933786Y17273288D01*
X-31938990Y17263553D01*
X-31942896Y17251530D01*
X-31976858Y17192707D01*
X-32017028Y17117553D01*
X-32027887Y17104323D01*
X-32037076Y17088405D01*
X-32080822Y17039822D01*
X-32129052Y16981052D01*
X-32147000Y16966323D01*
X-32163113Y16948427D01*
X-32212740Y16912372D01*
X-32265553Y16869028D01*
X-32291443Y16855190D01*
X-32315500Y16837711D01*
X-32367244Y16814674D01*
X-32421288Y16785786D01*
X-32455299Y16775469D01*
X-32487576Y16761098D01*
X-32538013Y16750378D01*
X-32590267Y16734526D01*
X-32631862Y16730430D01*
X-32671820Y16721936D01*
X-32718097Y16721936D01*
X-32766000Y16717218D01*
X-32813903Y16721936D01*
X-32860180Y16721936D01*
X-32900138Y16730430D01*
X-32941734Y16734526D01*
X-32993991Y16750379D01*
X-33044424Y16761098D01*
X-33076700Y16775468D01*
X-33110713Y16785786D01*
X-33164763Y16814677D01*
X-33216500Y16837711D01*
X-33240555Y16855188D01*
X-33266448Y16869028D01*
X-33319270Y16912378D01*
X-33368887Y16948427D01*
X-33384998Y16966320D01*
X-33402949Y16981052D01*
X-33451191Y17039834D01*
X-33494924Y17088405D01*
X-33504112Y17104319D01*
X-33514973Y17117553D01*
X-33555156Y17192731D01*
X-33589104Y17251530D01*
X-33593009Y17263549D01*
X-33598215Y17273288D01*
X-33626925Y17367929D01*
X-33647311Y17430672D01*
X-33648029Y17437499D01*
X-33649475Y17442267D01*
X-33663552Y17585192D01*
X-33667000Y17618000D01*
X-33663552Y17650806D01*
X-33649475Y17793734D01*
X-33648029Y17798503D01*
X-33647311Y17805328D01*
X-33626929Y17868058D01*
X-33598215Y17962713D01*
X-33593009Y17972455D01*
X-33589104Y17984470D01*
X-33555164Y18043258D01*
X-33514973Y18118448D01*
X-33504110Y18131686D01*
X-33494924Y18147595D01*
X-33451200Y18196157D01*
X-33402949Y18254949D01*
X-33384995Y18269685D01*
X-33368887Y18287573D01*
X-33319280Y18323615D01*
X-33266448Y18366973D01*
X-33240550Y18380817D01*
X-33216500Y18398289D01*
X-33164774Y18421319D01*
X-33110713Y18450215D01*
X-33076693Y18460536D01*
X-33044424Y18474902D01*
X-32994002Y18485620D01*
X-32941734Y18501475D01*
X-32900129Y18505573D01*
X-32860180Y18514064D01*
X-32813914Y18514064D01*
X-32766000Y18518783D01*
X-32718087Y18514064D01*
G37*
G36*
X-48157087Y18545064D02*
G01*
X-48110820Y18545064D01*
X-48070871Y18536573D01*
X-48029267Y18532475D01*
X-47977002Y18516621D01*
X-47926576Y18505902D01*
X-47894306Y18491535D01*
X-47860288Y18481215D01*
X-47806233Y18452322D01*
X-47754500Y18429289D01*
X-47730449Y18411815D01*
X-47704553Y18397973D01*
X-47651729Y18354622D01*
X-47602113Y18318573D01*
X-47586004Y18300682D01*
X-47568052Y18285949D01*
X-47519812Y18227169D01*
X-47476076Y18178595D01*
X-47466889Y18162681D01*
X-47456028Y18149448D01*
X-47415851Y18074281D01*
X-47381896Y18015470D01*
X-47377991Y18003450D01*
X-47372786Y17993713D01*
X-47344087Y17899104D01*
X-47323689Y17836328D01*
X-47322972Y17829498D01*
X-47321526Y17824734D01*
X-47307464Y17681958D01*
X-47304000Y17649000D01*
X-47307465Y17616041D01*
X-47321526Y17473267D01*
X-47322971Y17468504D01*
X-47323689Y17461672D01*
X-47344091Y17398883D01*
X-47372786Y17304288D01*
X-47377990Y17294553D01*
X-47381896Y17282530D01*
X-47415858Y17223707D01*
X-47456028Y17148553D01*
X-47466887Y17135323D01*
X-47476076Y17119405D01*
X-47519822Y17070822D01*
X-47568052Y17012052D01*
X-47586000Y16997323D01*
X-47602113Y16979427D01*
X-47651740Y16943372D01*
X-47704553Y16900028D01*
X-47730443Y16886190D01*
X-47754500Y16868711D01*
X-47806244Y16845674D01*
X-47860288Y16816786D01*
X-47894299Y16806469D01*
X-47926576Y16792098D01*
X-47977013Y16781378D01*
X-48029267Y16765526D01*
X-48070862Y16761430D01*
X-48110820Y16752936D01*
X-48157097Y16752936D01*
X-48205000Y16748218D01*
X-48252903Y16752936D01*
X-48299180Y16752936D01*
X-48339138Y16761430D01*
X-48380734Y16765526D01*
X-48432991Y16781379D01*
X-48483424Y16792098D01*
X-48515700Y16806468D01*
X-48549713Y16816786D01*
X-48603763Y16845677D01*
X-48655500Y16868711D01*
X-48679555Y16886188D01*
X-48705448Y16900028D01*
X-48758270Y16943378D01*
X-48807887Y16979427D01*
X-48823998Y16997320D01*
X-48841949Y17012052D01*
X-48890191Y17070834D01*
X-48933924Y17119405D01*
X-48943112Y17135319D01*
X-48953973Y17148553D01*
X-48994156Y17223731D01*
X-49028104Y17282530D01*
X-49032009Y17294549D01*
X-49037215Y17304288D01*
X-49065925Y17398929D01*
X-49086311Y17461672D01*
X-49087029Y17468499D01*
X-49088475Y17473267D01*
X-49102552Y17616192D01*
X-49106000Y17649000D01*
X-49102552Y17681806D01*
X-49088475Y17824734D01*
X-49087029Y17829503D01*
X-49086311Y17836328D01*
X-49065929Y17899058D01*
X-49037215Y17993713D01*
X-49032009Y18003455D01*
X-49028104Y18015470D01*
X-48994164Y18074258D01*
X-48953973Y18149448D01*
X-48943110Y18162686D01*
X-48933924Y18178595D01*
X-48890200Y18227157D01*
X-48841949Y18285949D01*
X-48823995Y18300685D01*
X-48807887Y18318573D01*
X-48758280Y18354615D01*
X-48705448Y18397973D01*
X-48679550Y18411817D01*
X-48655500Y18429289D01*
X-48603774Y18452319D01*
X-48549713Y18481215D01*
X-48515693Y18491536D01*
X-48483424Y18505902D01*
X-48433002Y18516620D01*
X-48380734Y18532475D01*
X-48339129Y18536573D01*
X-48299180Y18545064D01*
X-48252914Y18545064D01*
X-48205000Y18549783D01*
X-48157087Y18545064D01*
G37*
G36*
X-32718087Y21054064D02*
G01*
X-32671820Y21054064D01*
X-32631871Y21045573D01*
X-32590267Y21041475D01*
X-32538002Y21025621D01*
X-32487576Y21014902D01*
X-32455306Y21000535D01*
X-32421288Y20990215D01*
X-32367233Y20961322D01*
X-32315500Y20938289D01*
X-32291449Y20920815D01*
X-32265553Y20906973D01*
X-32212729Y20863622D01*
X-32163113Y20827573D01*
X-32147004Y20809682D01*
X-32129052Y20794949D01*
X-32080812Y20736169D01*
X-32037076Y20687595D01*
X-32027889Y20671681D01*
X-32017028Y20658448D01*
X-31976851Y20583281D01*
X-31942896Y20524470D01*
X-31938991Y20512450D01*
X-31933786Y20502713D01*
X-31905087Y20408104D01*
X-31884689Y20345328D01*
X-31883972Y20338498D01*
X-31882526Y20333734D01*
X-31868464Y20190958D01*
X-31865000Y20158000D01*
X-31868465Y20125041D01*
X-31882526Y19982267D01*
X-31883971Y19977504D01*
X-31884689Y19970672D01*
X-31905091Y19907883D01*
X-31933786Y19813288D01*
X-31938990Y19803553D01*
X-31942896Y19791530D01*
X-31976858Y19732707D01*
X-32017028Y19657553D01*
X-32027887Y19644323D01*
X-32037076Y19628405D01*
X-32080822Y19579822D01*
X-32129052Y19521052D01*
X-32147000Y19506323D01*
X-32163113Y19488427D01*
X-32212740Y19452372D01*
X-32265553Y19409028D01*
X-32291443Y19395190D01*
X-32315500Y19377711D01*
X-32367244Y19354674D01*
X-32421288Y19325786D01*
X-32455299Y19315469D01*
X-32487576Y19301098D01*
X-32538013Y19290378D01*
X-32590267Y19274526D01*
X-32631862Y19270430D01*
X-32671820Y19261936D01*
X-32718097Y19261936D01*
X-32766000Y19257218D01*
X-32813903Y19261936D01*
X-32860180Y19261936D01*
X-32900138Y19270430D01*
X-32941734Y19274526D01*
X-32993991Y19290379D01*
X-33044424Y19301098D01*
X-33076700Y19315468D01*
X-33110713Y19325786D01*
X-33164763Y19354677D01*
X-33216500Y19377711D01*
X-33240555Y19395188D01*
X-33266448Y19409028D01*
X-33319270Y19452378D01*
X-33368887Y19488427D01*
X-33384998Y19506320D01*
X-33402949Y19521052D01*
X-33451191Y19579834D01*
X-33494924Y19628405D01*
X-33504112Y19644319D01*
X-33514973Y19657553D01*
X-33555156Y19732731D01*
X-33589104Y19791530D01*
X-33593009Y19803549D01*
X-33598215Y19813288D01*
X-33626925Y19907929D01*
X-33647311Y19970672D01*
X-33648029Y19977499D01*
X-33649475Y19982267D01*
X-33663552Y20125192D01*
X-33667000Y20158000D01*
X-33663552Y20190806D01*
X-33649475Y20333734D01*
X-33648029Y20338503D01*
X-33647311Y20345328D01*
X-33626929Y20408058D01*
X-33598215Y20502713D01*
X-33593009Y20512455D01*
X-33589104Y20524470D01*
X-33555164Y20583258D01*
X-33514973Y20658448D01*
X-33504110Y20671686D01*
X-33494924Y20687595D01*
X-33451200Y20736157D01*
X-33402949Y20794949D01*
X-33384995Y20809685D01*
X-33368887Y20827573D01*
X-33319280Y20863615D01*
X-33266448Y20906973D01*
X-33240550Y20920817D01*
X-33216500Y20938289D01*
X-33164774Y20961319D01*
X-33110713Y20990215D01*
X-33076693Y21000536D01*
X-33044424Y21014902D01*
X-32994002Y21025620D01*
X-32941734Y21041475D01*
X-32900129Y21045573D01*
X-32860180Y21054064D01*
X-32813914Y21054064D01*
X-32766000Y21058783D01*
X-32718087Y21054064D01*
G37*
G36*
X-48157087Y21085064D02*
G01*
X-48110820Y21085064D01*
X-48070871Y21076573D01*
X-48029267Y21072475D01*
X-47977002Y21056621D01*
X-47926576Y21045902D01*
X-47894306Y21031535D01*
X-47860288Y21021215D01*
X-47806233Y20992322D01*
X-47754500Y20969289D01*
X-47730449Y20951815D01*
X-47704553Y20937973D01*
X-47651729Y20894622D01*
X-47602113Y20858573D01*
X-47586004Y20840682D01*
X-47568052Y20825949D01*
X-47519812Y20767169D01*
X-47476076Y20718595D01*
X-47466889Y20702681D01*
X-47456028Y20689448D01*
X-47415851Y20614281D01*
X-47381896Y20555470D01*
X-47377991Y20543450D01*
X-47372786Y20533713D01*
X-47344087Y20439104D01*
X-47323689Y20376328D01*
X-47322972Y20369498D01*
X-47321526Y20364734D01*
X-47307464Y20221958D01*
X-47304000Y20189000D01*
X-47307465Y20156041D01*
X-47321526Y20013267D01*
X-47322971Y20008504D01*
X-47323689Y20001672D01*
X-47344091Y19938883D01*
X-47372786Y19844288D01*
X-47377990Y19834553D01*
X-47381896Y19822530D01*
X-47415858Y19763707D01*
X-47456028Y19688553D01*
X-47466887Y19675323D01*
X-47476076Y19659405D01*
X-47519822Y19610822D01*
X-47568052Y19552052D01*
X-47586000Y19537323D01*
X-47602113Y19519427D01*
X-47651740Y19483372D01*
X-47704553Y19440028D01*
X-47730443Y19426190D01*
X-47754500Y19408711D01*
X-47806244Y19385674D01*
X-47860288Y19356786D01*
X-47894299Y19346469D01*
X-47926576Y19332098D01*
X-47977013Y19321378D01*
X-48029267Y19305526D01*
X-48070862Y19301430D01*
X-48110820Y19292936D01*
X-48157097Y19292936D01*
X-48205000Y19288218D01*
X-48252903Y19292936D01*
X-48299180Y19292936D01*
X-48339138Y19301430D01*
X-48380734Y19305526D01*
X-48432991Y19321379D01*
X-48483424Y19332098D01*
X-48515700Y19346468D01*
X-48549713Y19356786D01*
X-48603763Y19385677D01*
X-48655500Y19408711D01*
X-48679555Y19426188D01*
X-48705448Y19440028D01*
X-48758270Y19483378D01*
X-48807887Y19519427D01*
X-48823998Y19537320D01*
X-48841949Y19552052D01*
X-48890191Y19610834D01*
X-48933924Y19659405D01*
X-48943112Y19675319D01*
X-48953973Y19688553D01*
X-48994156Y19763731D01*
X-49028104Y19822530D01*
X-49032009Y19834549D01*
X-49037215Y19844288D01*
X-49065925Y19938929D01*
X-49086311Y20001672D01*
X-49087029Y20008499D01*
X-49088475Y20013267D01*
X-49102552Y20156192D01*
X-49106000Y20189000D01*
X-49102552Y20221806D01*
X-49088475Y20364734D01*
X-49087029Y20369503D01*
X-49086311Y20376328D01*
X-49065929Y20439058D01*
X-49037215Y20533713D01*
X-49032009Y20543455D01*
X-49028104Y20555470D01*
X-48994164Y20614258D01*
X-48953973Y20689448D01*
X-48943110Y20702686D01*
X-48933924Y20718595D01*
X-48890200Y20767157D01*
X-48841949Y20825949D01*
X-48823995Y20840685D01*
X-48807887Y20858573D01*
X-48758280Y20894615D01*
X-48705448Y20937973D01*
X-48679550Y20951817D01*
X-48655500Y20969289D01*
X-48603774Y20992319D01*
X-48549713Y21021215D01*
X-48515693Y21031536D01*
X-48483424Y21045902D01*
X-48433002Y21056620D01*
X-48380734Y21072475D01*
X-48339129Y21076573D01*
X-48299180Y21085064D01*
X-48252914Y21085064D01*
X-48205000Y21089783D01*
X-48157087Y21085064D01*
G37*
G36*
X-32718087Y23594064D02*
G01*
X-32671820Y23594064D01*
X-32631871Y23585573D01*
X-32590267Y23581475D01*
X-32538002Y23565621D01*
X-32487576Y23554902D01*
X-32455306Y23540535D01*
X-32421288Y23530215D01*
X-32367233Y23501322D01*
X-32315500Y23478289D01*
X-32291449Y23460815D01*
X-32265553Y23446973D01*
X-32212729Y23403622D01*
X-32163113Y23367573D01*
X-32147004Y23349682D01*
X-32129052Y23334949D01*
X-32080812Y23276169D01*
X-32037076Y23227595D01*
X-32027889Y23211681D01*
X-32017028Y23198448D01*
X-31976851Y23123281D01*
X-31942896Y23064470D01*
X-31938991Y23052450D01*
X-31933786Y23042713D01*
X-31905087Y22948104D01*
X-31884689Y22885328D01*
X-31883972Y22878498D01*
X-31882526Y22873734D01*
X-31868464Y22730958D01*
X-31865000Y22698000D01*
X-31868465Y22665041D01*
X-31882526Y22522267D01*
X-31883971Y22517504D01*
X-31884689Y22510672D01*
X-31905091Y22447883D01*
X-31933786Y22353288D01*
X-31938990Y22343553D01*
X-31942896Y22331530D01*
X-31976858Y22272707D01*
X-32017028Y22197553D01*
X-32027887Y22184323D01*
X-32037076Y22168405D01*
X-32080822Y22119822D01*
X-32129052Y22061052D01*
X-32147000Y22046323D01*
X-32163113Y22028427D01*
X-32212740Y21992372D01*
X-32265553Y21949028D01*
X-32291443Y21935190D01*
X-32315500Y21917711D01*
X-32367244Y21894674D01*
X-32421288Y21865786D01*
X-32455299Y21855469D01*
X-32487576Y21841098D01*
X-32538013Y21830378D01*
X-32590267Y21814526D01*
X-32631862Y21810430D01*
X-32671820Y21801936D01*
X-32718097Y21801936D01*
X-32766000Y21797218D01*
X-32813903Y21801936D01*
X-32860180Y21801936D01*
X-32900138Y21810430D01*
X-32941734Y21814526D01*
X-32993991Y21830379D01*
X-33044424Y21841098D01*
X-33076700Y21855468D01*
X-33110713Y21865786D01*
X-33164763Y21894677D01*
X-33216500Y21917711D01*
X-33240555Y21935188D01*
X-33266448Y21949028D01*
X-33319270Y21992378D01*
X-33368887Y22028427D01*
X-33384998Y22046320D01*
X-33402949Y22061052D01*
X-33451191Y22119834D01*
X-33494924Y22168405D01*
X-33504112Y22184319D01*
X-33514973Y22197553D01*
X-33555156Y22272731D01*
X-33589104Y22331530D01*
X-33593009Y22343549D01*
X-33598215Y22353288D01*
X-33626925Y22447929D01*
X-33647311Y22510672D01*
X-33648029Y22517499D01*
X-33649475Y22522267D01*
X-33663552Y22665192D01*
X-33667000Y22698000D01*
X-33663552Y22730806D01*
X-33649475Y22873734D01*
X-33648029Y22878503D01*
X-33647311Y22885328D01*
X-33626929Y22948058D01*
X-33598215Y23042713D01*
X-33593009Y23052455D01*
X-33589104Y23064470D01*
X-33555164Y23123258D01*
X-33514973Y23198448D01*
X-33504110Y23211686D01*
X-33494924Y23227595D01*
X-33451200Y23276157D01*
X-33402949Y23334949D01*
X-33384995Y23349685D01*
X-33368887Y23367573D01*
X-33319280Y23403615D01*
X-33266448Y23446973D01*
X-33240550Y23460817D01*
X-33216500Y23478289D01*
X-33164774Y23501319D01*
X-33110713Y23530215D01*
X-33076693Y23540536D01*
X-33044424Y23554902D01*
X-32994002Y23565620D01*
X-32941734Y23581475D01*
X-32900129Y23585573D01*
X-32860180Y23594064D01*
X-32813914Y23594064D01*
X-32766000Y23598783D01*
X-32718087Y23594064D01*
G37*
G36*
X-48157087Y23625064D02*
G01*
X-48110820Y23625064D01*
X-48070871Y23616573D01*
X-48029267Y23612475D01*
X-47977002Y23596621D01*
X-47926576Y23585902D01*
X-47894306Y23571535D01*
X-47860288Y23561215D01*
X-47806233Y23532322D01*
X-47754500Y23509289D01*
X-47730449Y23491815D01*
X-47704553Y23477973D01*
X-47651729Y23434622D01*
X-47602113Y23398573D01*
X-47586004Y23380682D01*
X-47568052Y23365949D01*
X-47519812Y23307169D01*
X-47476076Y23258595D01*
X-47466889Y23242681D01*
X-47456028Y23229448D01*
X-47415851Y23154281D01*
X-47381896Y23095470D01*
X-47377991Y23083450D01*
X-47372786Y23073713D01*
X-47344087Y22979104D01*
X-47323689Y22916328D01*
X-47322972Y22909498D01*
X-47321526Y22904734D01*
X-47307464Y22761958D01*
X-47304000Y22729000D01*
X-47307465Y22696041D01*
X-47321526Y22553267D01*
X-47322971Y22548504D01*
X-47323689Y22541672D01*
X-47344091Y22478883D01*
X-47372786Y22384288D01*
X-47377990Y22374553D01*
X-47381896Y22362530D01*
X-47415858Y22303707D01*
X-47456028Y22228553D01*
X-47466887Y22215323D01*
X-47476076Y22199405D01*
X-47519822Y22150822D01*
X-47568052Y22092052D01*
X-47586000Y22077323D01*
X-47602113Y22059427D01*
X-47651740Y22023372D01*
X-47704553Y21980028D01*
X-47730443Y21966190D01*
X-47754500Y21948711D01*
X-47806244Y21925674D01*
X-47860288Y21896786D01*
X-47894299Y21886469D01*
X-47926576Y21872098D01*
X-47977013Y21861378D01*
X-48029267Y21845526D01*
X-48070862Y21841430D01*
X-48110820Y21832936D01*
X-48157097Y21832936D01*
X-48205000Y21828218D01*
X-48252903Y21832936D01*
X-48299180Y21832936D01*
X-48339138Y21841430D01*
X-48380734Y21845526D01*
X-48432991Y21861379D01*
X-48483424Y21872098D01*
X-48515700Y21886468D01*
X-48549713Y21896786D01*
X-48603763Y21925677D01*
X-48655500Y21948711D01*
X-48679555Y21966188D01*
X-48705448Y21980028D01*
X-48758270Y22023378D01*
X-48807887Y22059427D01*
X-48823998Y22077320D01*
X-48841949Y22092052D01*
X-48890191Y22150834D01*
X-48933924Y22199405D01*
X-48943112Y22215319D01*
X-48953973Y22228553D01*
X-48994156Y22303731D01*
X-49028104Y22362530D01*
X-49032009Y22374549D01*
X-49037215Y22384288D01*
X-49065925Y22478929D01*
X-49086311Y22541672D01*
X-49087029Y22548499D01*
X-49088475Y22553267D01*
X-49102552Y22696192D01*
X-49106000Y22729000D01*
X-49102552Y22761806D01*
X-49088475Y22904734D01*
X-49087029Y22909503D01*
X-49086311Y22916328D01*
X-49065929Y22979058D01*
X-49037215Y23073713D01*
X-49032009Y23083455D01*
X-49028104Y23095470D01*
X-48994164Y23154258D01*
X-48953973Y23229448D01*
X-48943110Y23242686D01*
X-48933924Y23258595D01*
X-48890200Y23307157D01*
X-48841949Y23365949D01*
X-48823995Y23380685D01*
X-48807887Y23398573D01*
X-48758280Y23434615D01*
X-48705448Y23477973D01*
X-48679550Y23491817D01*
X-48655500Y23509289D01*
X-48603774Y23532319D01*
X-48549713Y23561215D01*
X-48515693Y23571536D01*
X-48483424Y23585902D01*
X-48433002Y23596620D01*
X-48380734Y23612475D01*
X-48339129Y23616573D01*
X-48299180Y23625064D01*
X-48252914Y23625064D01*
X-48205000Y23629783D01*
X-48157087Y23625064D01*
G37*
G36*
X-38681907Y22556461D02*
G01*
X-38619943Y22515057D01*
X-38578539Y22453093D01*
X-38564000Y22380000D01*
X-38564000Y22040000D01*
X-38578539Y21966907D01*
X-38619943Y21904943D01*
X-38681907Y21863539D01*
X-38755000Y21849000D01*
X-39035000Y21849000D01*
X-39108093Y21863539D01*
X-39170057Y21904943D01*
X-39211461Y21966907D01*
X-39226000Y22040000D01*
X-39226000Y22380000D01*
X-39211461Y22453093D01*
X-39170057Y22515057D01*
X-39108093Y22556461D01*
X-39035000Y22571000D01*
X-38755000Y22571000D01*
X-38681907Y22556461D01*
G37*
G36*
X-37721907Y22556461D02*
G01*
X-37659943Y22515057D01*
X-37618539Y22453093D01*
X-37604000Y22380000D01*
X-37604000Y22040000D01*
X-37618539Y21966907D01*
X-37659943Y21904943D01*
X-37721907Y21863539D01*
X-37795000Y21849000D01*
X-38075000Y21849000D01*
X-38148093Y21863539D01*
X-38210057Y21904943D01*
X-38251461Y21966907D01*
X-38266000Y22040000D01*
X-38266000Y22380000D01*
X-38251461Y22453093D01*
X-38210057Y22515057D01*
X-38148093Y22556461D01*
X-38075000Y22571000D01*
X-37795000Y22571000D01*
X-37721907Y22556461D01*
G37*
G36*
X-37120483Y25052118D02*
G01*
X-37103938Y25041062D01*
X-37092882Y25024517D01*
X-37089000Y25005000D01*
X-37089000Y24971006D01*
X-37049004Y24944280D01*
X-37011048Y24960001D01*
X-36348952Y24960001D01*
X-36339088Y24955915D01*
X-36335001Y24946050D01*
X-36335001Y24563951D01*
X-36339088Y24554086D01*
X-36348952Y24549999D01*
X-37011048Y24549999D01*
X-37049004Y24565720D01*
X-37089000Y24538995D01*
X-37089000Y24471006D01*
X-37049005Y24444280D01*
X-37011050Y24460000D01*
X-36348952Y24460000D01*
X-36339088Y24455914D01*
X-36335001Y24446049D01*
X-36335001Y24063952D01*
X-36339088Y24054087D01*
X-36348952Y24050000D01*
X-37011048Y24050000D01*
X-37049004Y24065721D01*
X-37089000Y24038996D01*
X-37089000Y23971007D01*
X-37049005Y23944281D01*
X-37011050Y23960001D01*
X-36348952Y23960001D01*
X-36339088Y23955915D01*
X-36335001Y23946050D01*
X-36335001Y23563951D01*
X-36339088Y23554086D01*
X-36348952Y23549999D01*
X-37011048Y23549999D01*
X-37049005Y23565721D01*
X-37089000Y23538994D01*
X-37089000Y23505000D01*
X-37092882Y23485483D01*
X-37103938Y23468938D01*
X-37120483Y23457882D01*
X-37140000Y23454000D01*
X-37490000Y23454000D01*
X-37509517Y23457882D01*
X-37526062Y23468938D01*
X-37537118Y23485483D01*
X-37541000Y23505000D01*
X-37541000Y23509436D01*
X-37541002Y23538999D01*
X-37581001Y23565721D01*
X-37618953Y23549999D01*
X-38281048Y23549999D01*
X-38290913Y23554086D01*
X-38294999Y23563951D01*
X-38294999Y23946050D01*
X-38290913Y23955915D01*
X-38281048Y23960001D01*
X-37618951Y23960001D01*
X-37580997Y23944281D01*
X-37541000Y23971007D01*
X-37541000Y24038995D01*
X-37580998Y24065721D01*
X-37618952Y24050000D01*
X-38281048Y24050000D01*
X-38290913Y24054087D01*
X-38294999Y24063952D01*
X-38294999Y24343665D01*
X-37605001Y24343665D01*
X-37605001Y24166339D01*
X-37541133Y24146960D01*
X-37537557Y24152312D01*
X-37537118Y24154517D01*
X-37526062Y24171062D01*
X-37509517Y24182118D01*
X-37490000Y24186000D01*
X-37140000Y24186000D01*
X-37120483Y24182118D01*
X-37103938Y24171062D01*
X-37092882Y24154517D01*
X-37092444Y24152312D01*
X-37088867Y24146960D01*
X-37024999Y24166339D01*
X-37024999Y24343665D01*
X-37088873Y24363040D01*
X-37092442Y24357700D01*
X-37092882Y24355483D01*
X-37103938Y24338938D01*
X-37120483Y24327882D01*
X-37140000Y24324000D01*
X-37490000Y24324000D01*
X-37509517Y24327882D01*
X-37526062Y24338938D01*
X-37537118Y24355483D01*
X-37537559Y24357700D01*
X-37541127Y24363040D01*
X-37605001Y24343665D01*
X-38294999Y24343665D01*
X-38294999Y24446049D01*
X-38290913Y24455914D01*
X-38281048Y24460000D01*
X-37618951Y24460000D01*
X-37580997Y24444280D01*
X-37541000Y24471006D01*
X-37541000Y24538994D01*
X-37580998Y24565720D01*
X-37618952Y24549999D01*
X-38281048Y24549999D01*
X-38290913Y24554086D01*
X-38294999Y24563951D01*
X-38294999Y24946050D01*
X-38290913Y24955915D01*
X-38281048Y24960001D01*
X-37618951Y24960001D01*
X-37580997Y24944281D01*
X-37541000Y24971007D01*
X-37541000Y25000571D01*
X-37541000Y25005000D01*
X-37537118Y25024517D01*
X-37526062Y25041062D01*
X-37509517Y25052118D01*
X-37490000Y25056000D01*
X-37140000Y25056000D01*
X-37120483Y25052118D01*
G37*
G36*
X-32718087Y26134064D02*
G01*
X-32671820Y26134064D01*
X-32631871Y26125573D01*
X-32590267Y26121475D01*
X-32538002Y26105621D01*
X-32487576Y26094902D01*
X-32455306Y26080535D01*
X-32421288Y26070215D01*
X-32367233Y26041322D01*
X-32315500Y26018289D01*
X-32291449Y26000815D01*
X-32265553Y25986973D01*
X-32212729Y25943622D01*
X-32163113Y25907573D01*
X-32147004Y25889682D01*
X-32129052Y25874949D01*
X-32080812Y25816169D01*
X-32037076Y25767595D01*
X-32027889Y25751681D01*
X-32017028Y25738448D01*
X-31976851Y25663281D01*
X-31942896Y25604470D01*
X-31938991Y25592450D01*
X-31933786Y25582713D01*
X-31905087Y25488104D01*
X-31884689Y25425328D01*
X-31883972Y25418498D01*
X-31882526Y25413734D01*
X-31868464Y25270958D01*
X-31865000Y25238000D01*
X-31868465Y25205041D01*
X-31882526Y25062267D01*
X-31883971Y25057504D01*
X-31884689Y25050672D01*
X-31905091Y24987883D01*
X-31933786Y24893288D01*
X-31938990Y24883553D01*
X-31942896Y24871530D01*
X-31976858Y24812707D01*
X-32017028Y24737553D01*
X-32027887Y24724323D01*
X-32037076Y24708405D01*
X-32080822Y24659822D01*
X-32129052Y24601052D01*
X-32147000Y24586323D01*
X-32163113Y24568427D01*
X-32212740Y24532372D01*
X-32265553Y24489028D01*
X-32291443Y24475190D01*
X-32315500Y24457711D01*
X-32367244Y24434674D01*
X-32421288Y24405786D01*
X-32455299Y24395469D01*
X-32487576Y24381098D01*
X-32538013Y24370378D01*
X-32590267Y24354526D01*
X-32631862Y24350430D01*
X-32671820Y24341936D01*
X-32718097Y24341936D01*
X-32766000Y24337218D01*
X-32813903Y24341936D01*
X-32860180Y24341936D01*
X-32900138Y24350430D01*
X-32941734Y24354526D01*
X-32993991Y24370379D01*
X-33044424Y24381098D01*
X-33076700Y24395468D01*
X-33110713Y24405786D01*
X-33164763Y24434677D01*
X-33216500Y24457711D01*
X-33240555Y24475188D01*
X-33266448Y24489028D01*
X-33319270Y24532378D01*
X-33368887Y24568427D01*
X-33384998Y24586320D01*
X-33402949Y24601052D01*
X-33451191Y24659834D01*
X-33494924Y24708405D01*
X-33504112Y24724319D01*
X-33514973Y24737553D01*
X-33555156Y24812731D01*
X-33589104Y24871530D01*
X-33593009Y24883549D01*
X-33598215Y24893288D01*
X-33626925Y24987929D01*
X-33647311Y25050672D01*
X-33648029Y25057499D01*
X-33649475Y25062267D01*
X-33663552Y25205192D01*
X-33667000Y25238000D01*
X-33663552Y25270806D01*
X-33649475Y25413734D01*
X-33648029Y25418503D01*
X-33647311Y25425328D01*
X-33626929Y25488058D01*
X-33598215Y25582713D01*
X-33593009Y25592455D01*
X-33589104Y25604470D01*
X-33555164Y25663258D01*
X-33514973Y25738448D01*
X-33504110Y25751686D01*
X-33494924Y25767595D01*
X-33451200Y25816157D01*
X-33402949Y25874949D01*
X-33384995Y25889685D01*
X-33368887Y25907573D01*
X-33319280Y25943615D01*
X-33266448Y25986973D01*
X-33240550Y26000817D01*
X-33216500Y26018289D01*
X-33164774Y26041319D01*
X-33110713Y26070215D01*
X-33076693Y26080536D01*
X-33044424Y26094902D01*
X-32994002Y26105620D01*
X-32941734Y26121475D01*
X-32900129Y26125573D01*
X-32860180Y26134064D01*
X-32813914Y26134064D01*
X-32766000Y26138783D01*
X-32718087Y26134064D01*
G37*
G36*
X-48157087Y26165064D02*
G01*
X-48110820Y26165064D01*
X-48070871Y26156573D01*
X-48029267Y26152475D01*
X-47977002Y26136621D01*
X-47926576Y26125902D01*
X-47894306Y26111535D01*
X-47860288Y26101215D01*
X-47806233Y26072322D01*
X-47754500Y26049289D01*
X-47730449Y26031815D01*
X-47704553Y26017973D01*
X-47651729Y25974622D01*
X-47602113Y25938573D01*
X-47586004Y25920682D01*
X-47568052Y25905949D01*
X-47519812Y25847169D01*
X-47476076Y25798595D01*
X-47466889Y25782681D01*
X-47456028Y25769448D01*
X-47415851Y25694281D01*
X-47381896Y25635470D01*
X-47377991Y25623450D01*
X-47372786Y25613713D01*
X-47344087Y25519104D01*
X-47323689Y25456328D01*
X-47322972Y25449498D01*
X-47321526Y25444734D01*
X-47307464Y25301958D01*
X-47304000Y25269000D01*
X-47307465Y25236041D01*
X-47321526Y25093267D01*
X-47322971Y25088504D01*
X-47323689Y25081672D01*
X-47344091Y25018883D01*
X-47372786Y24924288D01*
X-47377990Y24914553D01*
X-47381896Y24902530D01*
X-47415858Y24843707D01*
X-47456028Y24768553D01*
X-47466887Y24755323D01*
X-47476076Y24739405D01*
X-47519822Y24690822D01*
X-47568052Y24632052D01*
X-47586000Y24617323D01*
X-47602113Y24599427D01*
X-47651740Y24563372D01*
X-47704553Y24520028D01*
X-47730443Y24506190D01*
X-47754500Y24488711D01*
X-47806244Y24465674D01*
X-47860288Y24436786D01*
X-47894299Y24426469D01*
X-47926576Y24412098D01*
X-47977013Y24401378D01*
X-48029267Y24385526D01*
X-48070862Y24381430D01*
X-48110820Y24372936D01*
X-48157097Y24372936D01*
X-48205000Y24368218D01*
X-48252903Y24372936D01*
X-48299180Y24372936D01*
X-48339138Y24381430D01*
X-48380734Y24385526D01*
X-48432991Y24401379D01*
X-48483424Y24412098D01*
X-48515700Y24426468D01*
X-48549713Y24436786D01*
X-48603763Y24465677D01*
X-48655500Y24488711D01*
X-48679555Y24506188D01*
X-48705448Y24520028D01*
X-48758270Y24563378D01*
X-48807887Y24599427D01*
X-48823998Y24617320D01*
X-48841949Y24632052D01*
X-48890191Y24690834D01*
X-48933924Y24739405D01*
X-48943112Y24755319D01*
X-48953973Y24768553D01*
X-48994156Y24843731D01*
X-49028104Y24902530D01*
X-49032009Y24914549D01*
X-49037215Y24924288D01*
X-49065925Y25018929D01*
X-49086311Y25081672D01*
X-49087029Y25088499D01*
X-49088475Y25093267D01*
X-49102552Y25236192D01*
X-49106000Y25269000D01*
X-49102552Y25301806D01*
X-49088475Y25444734D01*
X-49087029Y25449503D01*
X-49086311Y25456328D01*
X-49065929Y25519058D01*
X-49037215Y25613713D01*
X-49032009Y25623455D01*
X-49028104Y25635470D01*
X-48994164Y25694258D01*
X-48953973Y25769448D01*
X-48943110Y25782686D01*
X-48933924Y25798595D01*
X-48890200Y25847157D01*
X-48841949Y25905949D01*
X-48823995Y25920685D01*
X-48807887Y25938573D01*
X-48758280Y25974615D01*
X-48705448Y26017973D01*
X-48679550Y26031817D01*
X-48655500Y26049289D01*
X-48603774Y26072319D01*
X-48549713Y26101215D01*
X-48515693Y26111536D01*
X-48483424Y26125902D01*
X-48433002Y26136620D01*
X-48380734Y26152475D01*
X-48339129Y26156573D01*
X-48299180Y26165064D01*
X-48252914Y26165064D01*
X-48205000Y26169783D01*
X-48157087Y26165064D01*
G37*
G36*
X-32718087Y28674064D02*
G01*
X-32671820Y28674064D01*
X-32631871Y28665573D01*
X-32590267Y28661475D01*
X-32538002Y28645621D01*
X-32487576Y28634902D01*
X-32455306Y28620535D01*
X-32421288Y28610215D01*
X-32367233Y28581322D01*
X-32315500Y28558289D01*
X-32291449Y28540815D01*
X-32265553Y28526973D01*
X-32212729Y28483622D01*
X-32163113Y28447573D01*
X-32147004Y28429682D01*
X-32129052Y28414949D01*
X-32080812Y28356169D01*
X-32037076Y28307595D01*
X-32027889Y28291681D01*
X-32017028Y28278448D01*
X-31976851Y28203281D01*
X-31942896Y28144470D01*
X-31938991Y28132450D01*
X-31933786Y28122713D01*
X-31905087Y28028104D01*
X-31884689Y27965328D01*
X-31883972Y27958498D01*
X-31882526Y27953734D01*
X-31868464Y27810958D01*
X-31865000Y27778000D01*
X-31868465Y27745041D01*
X-31882526Y27602267D01*
X-31883971Y27597504D01*
X-31884689Y27590672D01*
X-31905091Y27527883D01*
X-31933786Y27433288D01*
X-31938990Y27423553D01*
X-31942896Y27411530D01*
X-31976858Y27352707D01*
X-32017028Y27277553D01*
X-32027887Y27264323D01*
X-32037076Y27248405D01*
X-32080822Y27199822D01*
X-32129052Y27141052D01*
X-32147000Y27126323D01*
X-32163113Y27108427D01*
X-32212740Y27072372D01*
X-32265553Y27029028D01*
X-32291443Y27015190D01*
X-32315500Y26997711D01*
X-32367244Y26974674D01*
X-32421288Y26945786D01*
X-32455299Y26935469D01*
X-32487576Y26921098D01*
X-32538013Y26910378D01*
X-32590267Y26894526D01*
X-32631862Y26890430D01*
X-32671820Y26881936D01*
X-32718097Y26881936D01*
X-32766000Y26877218D01*
X-32813903Y26881936D01*
X-32860180Y26881936D01*
X-32900138Y26890430D01*
X-32941734Y26894526D01*
X-32993991Y26910379D01*
X-33044424Y26921098D01*
X-33076700Y26935468D01*
X-33110713Y26945786D01*
X-33164763Y26974677D01*
X-33216500Y26997711D01*
X-33240555Y27015188D01*
X-33266448Y27029028D01*
X-33319270Y27072378D01*
X-33368887Y27108427D01*
X-33384998Y27126320D01*
X-33402949Y27141052D01*
X-33451191Y27199834D01*
X-33494924Y27248405D01*
X-33504112Y27264319D01*
X-33514973Y27277553D01*
X-33555156Y27352731D01*
X-33589104Y27411530D01*
X-33593009Y27423549D01*
X-33598215Y27433288D01*
X-33626925Y27527929D01*
X-33647311Y27590672D01*
X-33648029Y27597499D01*
X-33649475Y27602267D01*
X-33663552Y27745192D01*
X-33667000Y27778000D01*
X-33663552Y27810806D01*
X-33649475Y27953734D01*
X-33648029Y27958503D01*
X-33647311Y27965328D01*
X-33626929Y28028058D01*
X-33598215Y28122713D01*
X-33593009Y28132455D01*
X-33589104Y28144470D01*
X-33555164Y28203258D01*
X-33514973Y28278448D01*
X-33504110Y28291686D01*
X-33494924Y28307595D01*
X-33451200Y28356157D01*
X-33402949Y28414949D01*
X-33384995Y28429685D01*
X-33368887Y28447573D01*
X-33319280Y28483615D01*
X-33266448Y28526973D01*
X-33240550Y28540817D01*
X-33216500Y28558289D01*
X-33164774Y28581319D01*
X-33110713Y28610215D01*
X-33076693Y28620536D01*
X-33044424Y28634902D01*
X-32994002Y28645620D01*
X-32941734Y28661475D01*
X-32900129Y28665573D01*
X-32860180Y28674064D01*
X-32813914Y28674064D01*
X-32766000Y28678783D01*
X-32718087Y28674064D01*
G37*
G36*
X-48157087Y28705064D02*
G01*
X-48110820Y28705064D01*
X-48070871Y28696573D01*
X-48029267Y28692475D01*
X-47977002Y28676621D01*
X-47926576Y28665902D01*
X-47894306Y28651535D01*
X-47860288Y28641215D01*
X-47806233Y28612322D01*
X-47754500Y28589289D01*
X-47730449Y28571815D01*
X-47704553Y28557973D01*
X-47651729Y28514622D01*
X-47602113Y28478573D01*
X-47586004Y28460682D01*
X-47568052Y28445949D01*
X-47519812Y28387169D01*
X-47476076Y28338595D01*
X-47466889Y28322681D01*
X-47456028Y28309448D01*
X-47415851Y28234281D01*
X-47381896Y28175470D01*
X-47377991Y28163450D01*
X-47372786Y28153713D01*
X-47344087Y28059104D01*
X-47323689Y27996328D01*
X-47322972Y27989498D01*
X-47321526Y27984734D01*
X-47307464Y27841958D01*
X-47304000Y27809000D01*
X-47307465Y27776041D01*
X-47321526Y27633267D01*
X-47322971Y27628504D01*
X-47323689Y27621672D01*
X-47344091Y27558883D01*
X-47372786Y27464288D01*
X-47377990Y27454553D01*
X-47381896Y27442530D01*
X-47415858Y27383707D01*
X-47456028Y27308553D01*
X-47466887Y27295323D01*
X-47476076Y27279405D01*
X-47519822Y27230822D01*
X-47568052Y27172052D01*
X-47586000Y27157323D01*
X-47602113Y27139427D01*
X-47651740Y27103372D01*
X-47704553Y27060028D01*
X-47730443Y27046190D01*
X-47754500Y27028711D01*
X-47806244Y27005674D01*
X-47860288Y26976786D01*
X-47894299Y26966469D01*
X-47926576Y26952098D01*
X-47977013Y26941378D01*
X-48029267Y26925526D01*
X-48070862Y26921430D01*
X-48110820Y26912936D01*
X-48157097Y26912936D01*
X-48205000Y26908218D01*
X-48252903Y26912936D01*
X-48299180Y26912936D01*
X-48339138Y26921430D01*
X-48380734Y26925526D01*
X-48432991Y26941379D01*
X-48483424Y26952098D01*
X-48515700Y26966468D01*
X-48549713Y26976786D01*
X-48603763Y27005677D01*
X-48655500Y27028711D01*
X-48679555Y27046188D01*
X-48705448Y27060028D01*
X-48758270Y27103378D01*
X-48807887Y27139427D01*
X-48823998Y27157320D01*
X-48841949Y27172052D01*
X-48890191Y27230834D01*
X-48933924Y27279405D01*
X-48943112Y27295319D01*
X-48953973Y27308553D01*
X-48994156Y27383731D01*
X-49028104Y27442530D01*
X-49032009Y27454549D01*
X-49037215Y27464288D01*
X-49065925Y27558929D01*
X-49086311Y27621672D01*
X-49087029Y27628499D01*
X-49088475Y27633267D01*
X-49102552Y27776192D01*
X-49106000Y27809000D01*
X-49102552Y27841806D01*
X-49088475Y27984734D01*
X-49087029Y27989503D01*
X-49086311Y27996328D01*
X-49065929Y28059058D01*
X-49037215Y28153713D01*
X-49032009Y28163455D01*
X-49028104Y28175470D01*
X-48994164Y28234258D01*
X-48953973Y28309448D01*
X-48943110Y28322686D01*
X-48933924Y28338595D01*
X-48890200Y28387157D01*
X-48841949Y28445949D01*
X-48823995Y28460685D01*
X-48807887Y28478573D01*
X-48758280Y28514615D01*
X-48705448Y28557973D01*
X-48679550Y28571817D01*
X-48655500Y28589289D01*
X-48603774Y28612319D01*
X-48549713Y28641215D01*
X-48515693Y28651536D01*
X-48483424Y28665902D01*
X-48433002Y28676620D01*
X-48380734Y28692475D01*
X-48339129Y28696573D01*
X-48299180Y28705064D01*
X-48252914Y28705064D01*
X-48205000Y28709783D01*
X-48157087Y28705064D01*
G37*
G36*
X-32718087Y31214064D02*
G01*
X-32671820Y31214064D01*
X-32631871Y31205573D01*
X-32590267Y31201475D01*
X-32538002Y31185621D01*
X-32487576Y31174902D01*
X-32455306Y31160535D01*
X-32421288Y31150215D01*
X-32367233Y31121322D01*
X-32315500Y31098289D01*
X-32291449Y31080815D01*
X-32265553Y31066973D01*
X-32212729Y31023622D01*
X-32163113Y30987573D01*
X-32147004Y30969682D01*
X-32129052Y30954949D01*
X-32080812Y30896169D01*
X-32037076Y30847595D01*
X-32027889Y30831681D01*
X-32017028Y30818448D01*
X-31976851Y30743281D01*
X-31942896Y30684470D01*
X-31938991Y30672450D01*
X-31933786Y30662713D01*
X-31905087Y30568104D01*
X-31884689Y30505328D01*
X-31883972Y30498498D01*
X-31882526Y30493734D01*
X-31868464Y30350958D01*
X-31865000Y30318000D01*
X-31868465Y30285041D01*
X-31882526Y30142267D01*
X-31883971Y30137504D01*
X-31884689Y30130672D01*
X-31905091Y30067883D01*
X-31933786Y29973288D01*
X-31938990Y29963553D01*
X-31942896Y29951530D01*
X-31976858Y29892707D01*
X-32017028Y29817553D01*
X-32027887Y29804323D01*
X-32037076Y29788405D01*
X-32080822Y29739822D01*
X-32129052Y29681052D01*
X-32147000Y29666323D01*
X-32163113Y29648427D01*
X-32212740Y29612372D01*
X-32265553Y29569028D01*
X-32291443Y29555190D01*
X-32315500Y29537711D01*
X-32367244Y29514674D01*
X-32421288Y29485786D01*
X-32455299Y29475469D01*
X-32487576Y29461098D01*
X-32538013Y29450378D01*
X-32590267Y29434526D01*
X-32631862Y29430430D01*
X-32671820Y29421936D01*
X-32718097Y29421936D01*
X-32766000Y29417218D01*
X-32813903Y29421936D01*
X-32860180Y29421936D01*
X-32900138Y29430430D01*
X-32941734Y29434526D01*
X-32993991Y29450379D01*
X-33044424Y29461098D01*
X-33076700Y29475468D01*
X-33110713Y29485786D01*
X-33164763Y29514677D01*
X-33216500Y29537711D01*
X-33240555Y29555188D01*
X-33266448Y29569028D01*
X-33319270Y29612378D01*
X-33368887Y29648427D01*
X-33384998Y29666320D01*
X-33402949Y29681052D01*
X-33451191Y29739834D01*
X-33494924Y29788405D01*
X-33504112Y29804319D01*
X-33514973Y29817553D01*
X-33555156Y29892731D01*
X-33589104Y29951530D01*
X-33593009Y29963549D01*
X-33598215Y29973288D01*
X-33626925Y30067929D01*
X-33647311Y30130672D01*
X-33648029Y30137499D01*
X-33649475Y30142267D01*
X-33663552Y30285192D01*
X-33667000Y30318000D01*
X-33663552Y30350806D01*
X-33649475Y30493734D01*
X-33648029Y30498503D01*
X-33647311Y30505328D01*
X-33626929Y30568058D01*
X-33598215Y30662713D01*
X-33593009Y30672455D01*
X-33589104Y30684470D01*
X-33555164Y30743258D01*
X-33514973Y30818448D01*
X-33504110Y30831686D01*
X-33494924Y30847595D01*
X-33451200Y30896157D01*
X-33402949Y30954949D01*
X-33384995Y30969685D01*
X-33368887Y30987573D01*
X-33319280Y31023615D01*
X-33266448Y31066973D01*
X-33240550Y31080817D01*
X-33216500Y31098289D01*
X-33164774Y31121319D01*
X-33110713Y31150215D01*
X-33076693Y31160536D01*
X-33044424Y31174902D01*
X-32994002Y31185620D01*
X-32941734Y31201475D01*
X-32900129Y31205573D01*
X-32860180Y31214064D01*
X-32813914Y31214064D01*
X-32766000Y31218783D01*
X-32718087Y31214064D01*
G37*
G36*
X-48157087Y31245064D02*
G01*
X-48110820Y31245064D01*
X-48070871Y31236573D01*
X-48029267Y31232475D01*
X-47977002Y31216621D01*
X-47926576Y31205902D01*
X-47894306Y31191535D01*
X-47860288Y31181215D01*
X-47806233Y31152322D01*
X-47754500Y31129289D01*
X-47730449Y31111815D01*
X-47704553Y31097973D01*
X-47651729Y31054622D01*
X-47602113Y31018573D01*
X-47586004Y31000682D01*
X-47568052Y30985949D01*
X-47519812Y30927169D01*
X-47476076Y30878595D01*
X-47466889Y30862681D01*
X-47456028Y30849448D01*
X-47415851Y30774281D01*
X-47381896Y30715470D01*
X-47377991Y30703450D01*
X-47372786Y30693713D01*
X-47344087Y30599104D01*
X-47323689Y30536328D01*
X-47322972Y30529498D01*
X-47321526Y30524734D01*
X-47307464Y30381958D01*
X-47304000Y30349000D01*
X-47307465Y30316041D01*
X-47321526Y30173267D01*
X-47322971Y30168504D01*
X-47323689Y30161672D01*
X-47344091Y30098883D01*
X-47372786Y30004288D01*
X-47377990Y29994553D01*
X-47381896Y29982530D01*
X-47415858Y29923707D01*
X-47456028Y29848553D01*
X-47466887Y29835323D01*
X-47476076Y29819405D01*
X-47519822Y29770822D01*
X-47568052Y29712052D01*
X-47586000Y29697323D01*
X-47602113Y29679427D01*
X-47651740Y29643372D01*
X-47704553Y29600028D01*
X-47730443Y29586190D01*
X-47754500Y29568711D01*
X-47806244Y29545674D01*
X-47860288Y29516786D01*
X-47894299Y29506469D01*
X-47926576Y29492098D01*
X-47977013Y29481378D01*
X-48029267Y29465526D01*
X-48070862Y29461430D01*
X-48110820Y29452936D01*
X-48157097Y29452936D01*
X-48205000Y29448218D01*
X-48252903Y29452936D01*
X-48299180Y29452936D01*
X-48339138Y29461430D01*
X-48380734Y29465526D01*
X-48432991Y29481379D01*
X-48483424Y29492098D01*
X-48515700Y29506468D01*
X-48549713Y29516786D01*
X-48603763Y29545677D01*
X-48655500Y29568711D01*
X-48679555Y29586188D01*
X-48705448Y29600028D01*
X-48758270Y29643378D01*
X-48807887Y29679427D01*
X-48823998Y29697320D01*
X-48841949Y29712052D01*
X-48890191Y29770834D01*
X-48933924Y29819405D01*
X-48943112Y29835319D01*
X-48953973Y29848553D01*
X-48994156Y29923731D01*
X-49028104Y29982530D01*
X-49032009Y29994549D01*
X-49037215Y30004288D01*
X-49065925Y30098929D01*
X-49086311Y30161672D01*
X-49087029Y30168499D01*
X-49088475Y30173267D01*
X-49102552Y30316192D01*
X-49106000Y30349000D01*
X-49102552Y30381806D01*
X-49088475Y30524734D01*
X-49087029Y30529503D01*
X-49086311Y30536328D01*
X-49065929Y30599058D01*
X-49037215Y30693713D01*
X-49032009Y30703455D01*
X-49028104Y30715470D01*
X-48994164Y30774258D01*
X-48953973Y30849448D01*
X-48943110Y30862686D01*
X-48933924Y30878595D01*
X-48890200Y30927157D01*
X-48841949Y30985949D01*
X-48823995Y31000685D01*
X-48807887Y31018573D01*
X-48758280Y31054615D01*
X-48705448Y31097973D01*
X-48679550Y31111817D01*
X-48655500Y31129289D01*
X-48603774Y31152319D01*
X-48549713Y31181215D01*
X-48515693Y31191536D01*
X-48483424Y31205902D01*
X-48433002Y31216620D01*
X-48380734Y31232475D01*
X-48339129Y31236573D01*
X-48299180Y31245064D01*
X-48252914Y31245064D01*
X-48205000Y31249783D01*
X-48157087Y31245064D01*
G37*
G36*
X-32718087Y33754064D02*
G01*
X-32671820Y33754064D01*
X-32631871Y33745573D01*
X-32590267Y33741475D01*
X-32538002Y33725621D01*
X-32487576Y33714902D01*
X-32455306Y33700535D01*
X-32421288Y33690215D01*
X-32367233Y33661322D01*
X-32315500Y33638289D01*
X-32291449Y33620815D01*
X-32265553Y33606973D01*
X-32212729Y33563622D01*
X-32163113Y33527573D01*
X-32147004Y33509682D01*
X-32129052Y33494949D01*
X-32080812Y33436169D01*
X-32037076Y33387595D01*
X-32027889Y33371681D01*
X-32017028Y33358448D01*
X-31976851Y33283281D01*
X-31942896Y33224470D01*
X-31938991Y33212450D01*
X-31933786Y33202713D01*
X-31905087Y33108104D01*
X-31884689Y33045328D01*
X-31883972Y33038498D01*
X-31882526Y33033734D01*
X-31868464Y32890958D01*
X-31865000Y32858000D01*
X-31868465Y32825041D01*
X-31882526Y32682267D01*
X-31883971Y32677504D01*
X-31884689Y32670672D01*
X-31905091Y32607883D01*
X-31933786Y32513288D01*
X-31938990Y32503553D01*
X-31942896Y32491530D01*
X-31976858Y32432707D01*
X-32017028Y32357553D01*
X-32027887Y32344323D01*
X-32037076Y32328405D01*
X-32080822Y32279822D01*
X-32129052Y32221052D01*
X-32147000Y32206323D01*
X-32163113Y32188427D01*
X-32212740Y32152372D01*
X-32265553Y32109028D01*
X-32291443Y32095190D01*
X-32315500Y32077711D01*
X-32367244Y32054674D01*
X-32421288Y32025786D01*
X-32455299Y32015469D01*
X-32487576Y32001098D01*
X-32538013Y31990378D01*
X-32590267Y31974526D01*
X-32631862Y31970430D01*
X-32671820Y31961936D01*
X-32718097Y31961936D01*
X-32766000Y31957218D01*
X-32813903Y31961936D01*
X-32860180Y31961936D01*
X-32900138Y31970430D01*
X-32941734Y31974526D01*
X-32993991Y31990379D01*
X-33044424Y32001098D01*
X-33076700Y32015468D01*
X-33110713Y32025786D01*
X-33164763Y32054677D01*
X-33216500Y32077711D01*
X-33240555Y32095188D01*
X-33266448Y32109028D01*
X-33319270Y32152378D01*
X-33368887Y32188427D01*
X-33384998Y32206320D01*
X-33402949Y32221052D01*
X-33451191Y32279834D01*
X-33494924Y32328405D01*
X-33504112Y32344319D01*
X-33514973Y32357553D01*
X-33555156Y32432731D01*
X-33589104Y32491530D01*
X-33593009Y32503549D01*
X-33598215Y32513288D01*
X-33626925Y32607929D01*
X-33647311Y32670672D01*
X-33648029Y32677499D01*
X-33649475Y32682267D01*
X-33663552Y32825192D01*
X-33667000Y32858000D01*
X-33663552Y32890806D01*
X-33649475Y33033734D01*
X-33648029Y33038503D01*
X-33647311Y33045328D01*
X-33626929Y33108058D01*
X-33598215Y33202713D01*
X-33593009Y33212455D01*
X-33589104Y33224470D01*
X-33555164Y33283258D01*
X-33514973Y33358448D01*
X-33504110Y33371686D01*
X-33494924Y33387595D01*
X-33451200Y33436157D01*
X-33402949Y33494949D01*
X-33384995Y33509685D01*
X-33368887Y33527573D01*
X-33319280Y33563615D01*
X-33266448Y33606973D01*
X-33240550Y33620817D01*
X-33216500Y33638289D01*
X-33164774Y33661319D01*
X-33110713Y33690215D01*
X-33076693Y33700536D01*
X-33044424Y33714902D01*
X-32994002Y33725620D01*
X-32941734Y33741475D01*
X-32900129Y33745573D01*
X-32860180Y33754064D01*
X-32813914Y33754064D01*
X-32766000Y33758783D01*
X-32718087Y33754064D01*
G37*
G36*
X-48157087Y33785064D02*
G01*
X-48110820Y33785064D01*
X-48070871Y33776573D01*
X-48029267Y33772475D01*
X-47977002Y33756621D01*
X-47926576Y33745902D01*
X-47894306Y33731535D01*
X-47860288Y33721215D01*
X-47806233Y33692322D01*
X-47754500Y33669289D01*
X-47730449Y33651815D01*
X-47704553Y33637973D01*
X-47651729Y33594622D01*
X-47602113Y33558573D01*
X-47586004Y33540682D01*
X-47568052Y33525949D01*
X-47519812Y33467169D01*
X-47476076Y33418595D01*
X-47466889Y33402681D01*
X-47456028Y33389448D01*
X-47415851Y33314281D01*
X-47381896Y33255470D01*
X-47377991Y33243450D01*
X-47372786Y33233713D01*
X-47344087Y33139104D01*
X-47323689Y33076328D01*
X-47322972Y33069498D01*
X-47321526Y33064734D01*
X-47307464Y32921958D01*
X-47304000Y32889000D01*
X-47307465Y32856041D01*
X-47321526Y32713267D01*
X-47322971Y32708504D01*
X-47323689Y32701672D01*
X-47344091Y32638883D01*
X-47372786Y32544288D01*
X-47377990Y32534553D01*
X-47381896Y32522530D01*
X-47415858Y32463707D01*
X-47456028Y32388553D01*
X-47466887Y32375323D01*
X-47476076Y32359405D01*
X-47519822Y32310822D01*
X-47568052Y32252052D01*
X-47586000Y32237323D01*
X-47602113Y32219427D01*
X-47651740Y32183372D01*
X-47704553Y32140028D01*
X-47730443Y32126190D01*
X-47754500Y32108711D01*
X-47806244Y32085674D01*
X-47860288Y32056786D01*
X-47894299Y32046469D01*
X-47926576Y32032098D01*
X-47977013Y32021378D01*
X-48029267Y32005526D01*
X-48070862Y32001430D01*
X-48110820Y31992936D01*
X-48157097Y31992936D01*
X-48205000Y31988218D01*
X-48252903Y31992936D01*
X-48299180Y31992936D01*
X-48339138Y32001430D01*
X-48380734Y32005526D01*
X-48432991Y32021379D01*
X-48483424Y32032098D01*
X-48515700Y32046468D01*
X-48549713Y32056786D01*
X-48603763Y32085677D01*
X-48655500Y32108711D01*
X-48679555Y32126188D01*
X-48705448Y32140028D01*
X-48758270Y32183378D01*
X-48807887Y32219427D01*
X-48823998Y32237320D01*
X-48841949Y32252052D01*
X-48890191Y32310834D01*
X-48933924Y32359405D01*
X-48943112Y32375319D01*
X-48953973Y32388553D01*
X-48994156Y32463731D01*
X-49028104Y32522530D01*
X-49032009Y32534549D01*
X-49037215Y32544288D01*
X-49065925Y32638929D01*
X-49086311Y32701672D01*
X-49087029Y32708499D01*
X-49088475Y32713267D01*
X-49102552Y32856192D01*
X-49106000Y32889000D01*
X-49102552Y32921806D01*
X-49088475Y33064734D01*
X-49087029Y33069503D01*
X-49086311Y33076328D01*
X-49065929Y33139058D01*
X-49037215Y33233713D01*
X-49032009Y33243455D01*
X-49028104Y33255470D01*
X-48994164Y33314258D01*
X-48953973Y33389448D01*
X-48943110Y33402686D01*
X-48933924Y33418595D01*
X-48890200Y33467157D01*
X-48841949Y33525949D01*
X-48823995Y33540685D01*
X-48807887Y33558573D01*
X-48758280Y33594615D01*
X-48705448Y33637973D01*
X-48679550Y33651817D01*
X-48655500Y33669289D01*
X-48603774Y33692319D01*
X-48549713Y33721215D01*
X-48515693Y33731536D01*
X-48483424Y33745902D01*
X-48433002Y33756620D01*
X-48380734Y33772475D01*
X-48339129Y33776573D01*
X-48299180Y33785064D01*
X-48252914Y33785064D01*
X-48205000Y33789783D01*
X-48157087Y33785064D01*
G37*
G36*
X-44702215Y34544506D02*
G01*
X-44653227Y34511773D01*
X-44620494Y34462785D01*
X-44609000Y34405000D01*
X-44609000Y34205000D01*
X-44620494Y34147215D01*
X-44653227Y34098227D01*
X-44702215Y34065494D01*
X-44760000Y34054000D01*
X-46035000Y34054000D01*
X-46092785Y34065494D01*
X-46141773Y34098227D01*
X-46174506Y34147215D01*
X-46186000Y34205000D01*
X-46186000Y34405000D01*
X-46174506Y34462785D01*
X-46141773Y34511773D01*
X-46092785Y34544506D01*
X-46035000Y34556000D01*
X-44760000Y34556000D01*
X-44702215Y34544506D01*
G37*
G36*
X-38977215Y34544506D02*
G01*
X-38928227Y34511773D01*
X-38895494Y34462785D01*
X-38884000Y34405000D01*
X-38884000Y34205000D01*
X-38895494Y34147215D01*
X-38928227Y34098227D01*
X-38977215Y34065494D01*
X-39035000Y34054000D01*
X-40310000Y34054000D01*
X-40367785Y34065494D01*
X-40416773Y34098227D01*
X-40449506Y34147215D01*
X-40461000Y34205000D01*
X-40461000Y34405000D01*
X-40449506Y34462785D01*
X-40416773Y34511773D01*
X-40367785Y34544506D01*
X-40310000Y34556000D01*
X-39035000Y34556000D01*
X-38977215Y34544506D01*
G37*
G36*
X-32718087Y36294064D02*
G01*
X-32671820Y36294064D01*
X-32631871Y36285573D01*
X-32590267Y36281475D01*
X-32538002Y36265621D01*
X-32487576Y36254902D01*
X-32455306Y36240535D01*
X-32421288Y36230215D01*
X-32367233Y36201322D01*
X-32315500Y36178289D01*
X-32291449Y36160815D01*
X-32265553Y36146973D01*
X-32212729Y36103622D01*
X-32163113Y36067573D01*
X-32147004Y36049682D01*
X-32129052Y36034949D01*
X-32080812Y35976169D01*
X-32037076Y35927595D01*
X-32027889Y35911681D01*
X-32017028Y35898448D01*
X-31976851Y35823281D01*
X-31942896Y35764470D01*
X-31938991Y35752450D01*
X-31933786Y35742713D01*
X-31905087Y35648104D01*
X-31884689Y35585328D01*
X-31883972Y35578498D01*
X-31882526Y35573734D01*
X-31868464Y35430958D01*
X-31865000Y35398000D01*
X-31868465Y35365041D01*
X-31882526Y35222267D01*
X-31883971Y35217504D01*
X-31884689Y35210672D01*
X-31905091Y35147883D01*
X-31933786Y35053288D01*
X-31938990Y35043553D01*
X-31942896Y35031530D01*
X-31976858Y34972707D01*
X-32017028Y34897553D01*
X-32027887Y34884323D01*
X-32037076Y34868405D01*
X-32080822Y34819822D01*
X-32129052Y34761052D01*
X-32147000Y34746323D01*
X-32163113Y34728427D01*
X-32212740Y34692372D01*
X-32265553Y34649028D01*
X-32291443Y34635190D01*
X-32315500Y34617711D01*
X-32367244Y34594674D01*
X-32421288Y34565786D01*
X-32455299Y34555469D01*
X-32487576Y34541098D01*
X-32538013Y34530378D01*
X-32590267Y34514526D01*
X-32631862Y34510430D01*
X-32671820Y34501936D01*
X-32718097Y34501936D01*
X-32766000Y34497218D01*
X-32813903Y34501936D01*
X-32860180Y34501936D01*
X-32900138Y34510430D01*
X-32941734Y34514526D01*
X-32993991Y34530379D01*
X-33044424Y34541098D01*
X-33076700Y34555468D01*
X-33110713Y34565786D01*
X-33164763Y34594677D01*
X-33216500Y34617711D01*
X-33240555Y34635188D01*
X-33266448Y34649028D01*
X-33319270Y34692378D01*
X-33368887Y34728427D01*
X-33384998Y34746320D01*
X-33402949Y34761052D01*
X-33451191Y34819834D01*
X-33494924Y34868405D01*
X-33504112Y34884319D01*
X-33514973Y34897553D01*
X-33555156Y34972731D01*
X-33589104Y35031530D01*
X-33593009Y35043549D01*
X-33598215Y35053288D01*
X-33626925Y35147929D01*
X-33647311Y35210672D01*
X-33648029Y35217499D01*
X-33649475Y35222267D01*
X-33663552Y35365192D01*
X-33667000Y35398000D01*
X-33663552Y35430806D01*
X-33649475Y35573734D01*
X-33648029Y35578503D01*
X-33647311Y35585328D01*
X-33626929Y35648058D01*
X-33598215Y35742713D01*
X-33593009Y35752455D01*
X-33589104Y35764470D01*
X-33555164Y35823258D01*
X-33514973Y35898448D01*
X-33504110Y35911686D01*
X-33494924Y35927595D01*
X-33451200Y35976157D01*
X-33402949Y36034949D01*
X-33384995Y36049685D01*
X-33368887Y36067573D01*
X-33319280Y36103615D01*
X-33266448Y36146973D01*
X-33240550Y36160817D01*
X-33216500Y36178289D01*
X-33164774Y36201319D01*
X-33110713Y36230215D01*
X-33076693Y36240536D01*
X-33044424Y36254902D01*
X-32994002Y36265620D01*
X-32941734Y36281475D01*
X-32900129Y36285573D01*
X-32860180Y36294064D01*
X-32813914Y36294064D01*
X-32766000Y36298783D01*
X-32718087Y36294064D01*
G37*
G36*
X-48157087Y36325064D02*
G01*
X-48110820Y36325064D01*
X-48070871Y36316573D01*
X-48029267Y36312475D01*
X-47977002Y36296621D01*
X-47926576Y36285902D01*
X-47894306Y36271535D01*
X-47860288Y36261215D01*
X-47806233Y36232322D01*
X-47754500Y36209289D01*
X-47730449Y36191815D01*
X-47704553Y36177973D01*
X-47651729Y36134622D01*
X-47602113Y36098573D01*
X-47586004Y36080682D01*
X-47568052Y36065949D01*
X-47519812Y36007169D01*
X-47476076Y35958595D01*
X-47466889Y35942681D01*
X-47456028Y35929448D01*
X-47415851Y35854281D01*
X-47381896Y35795470D01*
X-47377991Y35783450D01*
X-47372786Y35773713D01*
X-47344087Y35679104D01*
X-47323689Y35616328D01*
X-47322972Y35609498D01*
X-47321526Y35604734D01*
X-47307464Y35461958D01*
X-47304000Y35429000D01*
X-47307465Y35396041D01*
X-47321526Y35253267D01*
X-47322971Y35248504D01*
X-47323689Y35241672D01*
X-47344091Y35178883D01*
X-47372786Y35084288D01*
X-47377990Y35074553D01*
X-47381896Y35062530D01*
X-47415858Y35003707D01*
X-47456028Y34928553D01*
X-47466887Y34915323D01*
X-47476076Y34899405D01*
X-47519822Y34850822D01*
X-47568052Y34792052D01*
X-47586000Y34777323D01*
X-47602113Y34759427D01*
X-47651740Y34723372D01*
X-47704553Y34680028D01*
X-47730443Y34666190D01*
X-47754500Y34648711D01*
X-47806244Y34625674D01*
X-47860288Y34596786D01*
X-47894299Y34586469D01*
X-47926576Y34572098D01*
X-47977013Y34561378D01*
X-48029267Y34545526D01*
X-48070862Y34541430D01*
X-48110820Y34532936D01*
X-48157097Y34532936D01*
X-48205000Y34528218D01*
X-48252903Y34532936D01*
X-48299180Y34532936D01*
X-48339138Y34541430D01*
X-48380734Y34545526D01*
X-48432991Y34561379D01*
X-48483424Y34572098D01*
X-48515700Y34586468D01*
X-48549713Y34596786D01*
X-48603763Y34625677D01*
X-48655500Y34648711D01*
X-48679555Y34666188D01*
X-48705448Y34680028D01*
X-48758270Y34723378D01*
X-48807887Y34759427D01*
X-48823998Y34777320D01*
X-48841949Y34792052D01*
X-48890191Y34850834D01*
X-48933924Y34899405D01*
X-48943112Y34915319D01*
X-48953973Y34928553D01*
X-48994156Y35003731D01*
X-49028104Y35062530D01*
X-49032009Y35074549D01*
X-49037215Y35084288D01*
X-49065925Y35178929D01*
X-49086311Y35241672D01*
X-49087029Y35248499D01*
X-49088475Y35253267D01*
X-49102552Y35396192D01*
X-49106000Y35429000D01*
X-49102552Y35461806D01*
X-49088475Y35604734D01*
X-49087029Y35609503D01*
X-49086311Y35616328D01*
X-49065929Y35679058D01*
X-49037215Y35773713D01*
X-49032009Y35783455D01*
X-49028104Y35795470D01*
X-48994164Y35854258D01*
X-48953973Y35929448D01*
X-48943110Y35942686D01*
X-48933924Y35958595D01*
X-48890200Y36007157D01*
X-48841949Y36065949D01*
X-48823995Y36080685D01*
X-48807887Y36098573D01*
X-48758280Y36134615D01*
X-48705448Y36177973D01*
X-48679550Y36191817D01*
X-48655500Y36209289D01*
X-48603774Y36232319D01*
X-48549713Y36261215D01*
X-48515693Y36271536D01*
X-48483424Y36285902D01*
X-48433002Y36296620D01*
X-48380734Y36312475D01*
X-48339129Y36316573D01*
X-48299180Y36325064D01*
X-48252914Y36325064D01*
X-48205000Y36329783D01*
X-48157087Y36325064D01*
G37*
G36*
X-44702215Y35194506D02*
G01*
X-44653227Y35161773D01*
X-44620494Y35112785D01*
X-44609000Y35055000D01*
X-44609000Y34855000D01*
X-44620494Y34797215D01*
X-44653227Y34748227D01*
X-44702215Y34715494D01*
X-44760000Y34704000D01*
X-46035000Y34704000D01*
X-46092785Y34715494D01*
X-46141773Y34748227D01*
X-46174506Y34797215D01*
X-46186000Y34855000D01*
X-46186000Y35055000D01*
X-46174506Y35112785D01*
X-46141773Y35161773D01*
X-46092785Y35194506D01*
X-46035000Y35206000D01*
X-44760000Y35206000D01*
X-44702215Y35194506D01*
G37*
G36*
X-38977215Y35194506D02*
G01*
X-38928227Y35161773D01*
X-38895494Y35112785D01*
X-38884000Y35055000D01*
X-38884000Y34855000D01*
X-38895494Y34797215D01*
X-38928227Y34748227D01*
X-38977215Y34715494D01*
X-39035000Y34704000D01*
X-40310000Y34704000D01*
X-40367785Y34715494D01*
X-40416773Y34748227D01*
X-40449506Y34797215D01*
X-40461000Y34855000D01*
X-40461000Y35055000D01*
X-40449506Y35112785D01*
X-40416773Y35161773D01*
X-40367785Y35194506D01*
X-40310000Y35206000D01*
X-39035000Y35206000D01*
X-38977215Y35194506D01*
G37*
G36*
X-44702215Y35844506D02*
G01*
X-44653227Y35811773D01*
X-44620494Y35762785D01*
X-44609000Y35705000D01*
X-44609000Y35505000D01*
X-44620494Y35447215D01*
X-44653227Y35398227D01*
X-44702215Y35365494D01*
X-44760000Y35354000D01*
X-46035000Y35354000D01*
X-46092785Y35365494D01*
X-46141773Y35398227D01*
X-46174506Y35447215D01*
X-46186000Y35505000D01*
X-46186000Y35705000D01*
X-46174506Y35762785D01*
X-46141773Y35811773D01*
X-46092785Y35844506D01*
X-46035000Y35856000D01*
X-44760000Y35856000D01*
X-44702215Y35844506D01*
G37*
G36*
X-38977215Y35844506D02*
G01*
X-38928227Y35811773D01*
X-38895494Y35762785D01*
X-38884000Y35705000D01*
X-38884000Y35505000D01*
X-38895494Y35447215D01*
X-38928227Y35398227D01*
X-38977215Y35365494D01*
X-39035000Y35354000D01*
X-40310000Y35354000D01*
X-40367785Y35365494D01*
X-40416773Y35398227D01*
X-40449506Y35447215D01*
X-40461000Y35505000D01*
X-40461000Y35705000D01*
X-40449506Y35762785D01*
X-40416773Y35811773D01*
X-40367785Y35844506D01*
X-40310000Y35856000D01*
X-39035000Y35856000D01*
X-38977215Y35844506D01*
G37*
G36*
X-37058081Y37165700D02*
G01*
X-36992872Y37122128D01*
X-36949300Y37056919D01*
X-36934000Y36980000D01*
X-36934000Y35680000D01*
X-36949300Y35603081D01*
X-36992872Y35537872D01*
X-37058081Y35494300D01*
X-37135000Y35479000D01*
X-37435000Y35479000D01*
X-37511919Y35494300D01*
X-37577128Y35537872D01*
X-37620700Y35603081D01*
X-37636000Y35680000D01*
X-37636000Y36980000D01*
X-37620700Y37056919D01*
X-37577128Y37122128D01*
X-37511919Y37165700D01*
X-37435000Y37181000D01*
X-37135000Y37181000D01*
X-37058081Y37165700D01*
G37*
G36*
X-36108081Y37165700D02*
G01*
X-36042872Y37122128D01*
X-35999300Y37056919D01*
X-35984000Y36980000D01*
X-35984000Y35680000D01*
X-35999300Y35603081D01*
X-36042872Y35537872D01*
X-36108081Y35494300D01*
X-36185000Y35479000D01*
X-36485000Y35479000D01*
X-36561919Y35494300D01*
X-36627128Y35537872D01*
X-36670700Y35603081D01*
X-36686000Y35680000D01*
X-36686000Y36980000D01*
X-36670700Y37056919D01*
X-36627128Y37122128D01*
X-36561919Y37165700D01*
X-36485000Y37181000D01*
X-36185000Y37181000D01*
X-36108081Y37165700D01*
G37*
G36*
X-35158081Y37165700D02*
G01*
X-35092872Y37122128D01*
X-35049300Y37056919D01*
X-35034000Y36980000D01*
X-35034000Y35680000D01*
X-35049300Y35603081D01*
X-35092872Y35537872D01*
X-35158081Y35494300D01*
X-35235000Y35479000D01*
X-35535000Y35479000D01*
X-35611919Y35494300D01*
X-35677128Y35537872D01*
X-35720700Y35603081D01*
X-35736000Y35680000D01*
X-35736000Y36980000D01*
X-35720700Y37056919D01*
X-35677128Y37122128D01*
X-35611919Y37165700D01*
X-35535000Y37181000D01*
X-35235000Y37181000D01*
X-35158081Y37165700D01*
G37*
G36*
X-44702215Y36494506D02*
G01*
X-44653227Y36461773D01*
X-44620494Y36412785D01*
X-44609000Y36355000D01*
X-44609000Y36155000D01*
X-44620494Y36097215D01*
X-44653227Y36048227D01*
X-44702215Y36015494D01*
X-44760000Y36004000D01*
X-46035000Y36004000D01*
X-46092785Y36015494D01*
X-46141773Y36048227D01*
X-46174506Y36097215D01*
X-46186000Y36155000D01*
X-46186000Y36355000D01*
X-46174506Y36412785D01*
X-46141773Y36461773D01*
X-46092785Y36494506D01*
X-46035000Y36506000D01*
X-44760000Y36506000D01*
X-44702215Y36494506D01*
G37*
G36*
X-38977215Y36494506D02*
G01*
X-38928227Y36461773D01*
X-38895494Y36412785D01*
X-38884000Y36355000D01*
X-38884000Y36155000D01*
X-38895494Y36097215D01*
X-38928227Y36048227D01*
X-38977215Y36015494D01*
X-39035000Y36004000D01*
X-40310000Y36004000D01*
X-40367785Y36015494D01*
X-40416773Y36048227D01*
X-40449506Y36097215D01*
X-40461000Y36155000D01*
X-40461000Y36355000D01*
X-40449506Y36412785D01*
X-40416773Y36461773D01*
X-40367785Y36494506D01*
X-40310000Y36506000D01*
X-39035000Y36506000D01*
X-38977215Y36494506D01*
G37*
G36*
X-44702215Y37144506D02*
G01*
X-44653227Y37111773D01*
X-44620494Y37062785D01*
X-44609000Y37005000D01*
X-44609000Y36805000D01*
X-44620494Y36747215D01*
X-44653227Y36698227D01*
X-44702215Y36665494D01*
X-44760000Y36654000D01*
X-46035000Y36654000D01*
X-46092785Y36665494D01*
X-46141773Y36698227D01*
X-46174506Y36747215D01*
X-46186000Y36805000D01*
X-46186000Y37005000D01*
X-46174506Y37062785D01*
X-46141773Y37111773D01*
X-46092785Y37144506D01*
X-46035000Y37156000D01*
X-44760000Y37156000D01*
X-44702215Y37144506D01*
G37*
G36*
X-38977215Y37144506D02*
G01*
X-38928227Y37111773D01*
X-38895494Y37062785D01*
X-38884000Y37005000D01*
X-38884000Y36805000D01*
X-38895494Y36747215D01*
X-38928227Y36698227D01*
X-38977215Y36665494D01*
X-39035000Y36654000D01*
X-40310000Y36654000D01*
X-40367785Y36665494D01*
X-40416773Y36698227D01*
X-40449506Y36747215D01*
X-40461000Y36805000D01*
X-40461000Y37005000D01*
X-40449506Y37062785D01*
X-40416773Y37111773D01*
X-40367785Y37144506D01*
X-40310000Y37156000D01*
X-39035000Y37156000D01*
X-38977215Y37144506D01*
G37*
G36*
X-32718087Y38834064D02*
G01*
X-32671820Y38834064D01*
X-32631871Y38825573D01*
X-32590267Y38821475D01*
X-32538002Y38805621D01*
X-32487576Y38794902D01*
X-32455306Y38780535D01*
X-32421288Y38770215D01*
X-32367233Y38741322D01*
X-32315500Y38718289D01*
X-32291449Y38700815D01*
X-32265553Y38686973D01*
X-32212729Y38643622D01*
X-32163113Y38607573D01*
X-32147004Y38589682D01*
X-32129052Y38574949D01*
X-32080812Y38516169D01*
X-32037076Y38467595D01*
X-32027889Y38451681D01*
X-32017028Y38438448D01*
X-31976851Y38363281D01*
X-31942896Y38304470D01*
X-31938991Y38292450D01*
X-31933786Y38282713D01*
X-31905087Y38188104D01*
X-31884689Y38125328D01*
X-31883972Y38118498D01*
X-31882526Y38113734D01*
X-31868464Y37970958D01*
X-31865000Y37938000D01*
X-31868465Y37905041D01*
X-31882526Y37762267D01*
X-31883971Y37757504D01*
X-31884689Y37750672D01*
X-31905091Y37687883D01*
X-31933786Y37593288D01*
X-31938990Y37583553D01*
X-31942896Y37571530D01*
X-31976858Y37512707D01*
X-32017028Y37437553D01*
X-32027887Y37424323D01*
X-32037076Y37408405D01*
X-32080822Y37359822D01*
X-32129052Y37301052D01*
X-32147000Y37286323D01*
X-32163113Y37268427D01*
X-32212740Y37232372D01*
X-32265553Y37189028D01*
X-32291443Y37175190D01*
X-32315500Y37157711D01*
X-32367244Y37134674D01*
X-32421288Y37105786D01*
X-32455299Y37095469D01*
X-32487576Y37081098D01*
X-32538013Y37070378D01*
X-32590267Y37054526D01*
X-32631862Y37050430D01*
X-32671820Y37041936D01*
X-32718097Y37041936D01*
X-32766000Y37037218D01*
X-32813903Y37041936D01*
X-32860180Y37041936D01*
X-32900138Y37050430D01*
X-32941734Y37054526D01*
X-32993991Y37070379D01*
X-33044424Y37081098D01*
X-33076700Y37095468D01*
X-33110713Y37105786D01*
X-33164763Y37134677D01*
X-33216500Y37157711D01*
X-33240555Y37175188D01*
X-33266448Y37189028D01*
X-33319270Y37232378D01*
X-33368887Y37268427D01*
X-33384998Y37286320D01*
X-33402949Y37301052D01*
X-33451191Y37359834D01*
X-33494924Y37408405D01*
X-33504112Y37424319D01*
X-33514973Y37437553D01*
X-33555156Y37512731D01*
X-33589104Y37571530D01*
X-33593009Y37583549D01*
X-33598215Y37593288D01*
X-33626925Y37687929D01*
X-33647311Y37750672D01*
X-33648029Y37757499D01*
X-33649475Y37762267D01*
X-33663552Y37905192D01*
X-33667000Y37938000D01*
X-33663552Y37970806D01*
X-33649475Y38113734D01*
X-33648029Y38118503D01*
X-33647311Y38125328D01*
X-33626929Y38188058D01*
X-33598215Y38282713D01*
X-33593009Y38292455D01*
X-33589104Y38304470D01*
X-33555164Y38363258D01*
X-33514973Y38438448D01*
X-33504110Y38451686D01*
X-33494924Y38467595D01*
X-33451200Y38516157D01*
X-33402949Y38574949D01*
X-33384995Y38589685D01*
X-33368887Y38607573D01*
X-33319280Y38643615D01*
X-33266448Y38686973D01*
X-33240550Y38700817D01*
X-33216500Y38718289D01*
X-33164774Y38741319D01*
X-33110713Y38770215D01*
X-33076693Y38780536D01*
X-33044424Y38794902D01*
X-32994002Y38805620D01*
X-32941734Y38821475D01*
X-32900129Y38825573D01*
X-32860180Y38834064D01*
X-32813914Y38834064D01*
X-32766000Y38838783D01*
X-32718087Y38834064D01*
G37*
G36*
X-48157087Y38865064D02*
G01*
X-48110820Y38865064D01*
X-48070871Y38856573D01*
X-48029267Y38852475D01*
X-47977002Y38836621D01*
X-47926576Y38825902D01*
X-47894306Y38811535D01*
X-47860288Y38801215D01*
X-47806233Y38772322D01*
X-47754500Y38749289D01*
X-47730449Y38731815D01*
X-47704553Y38717973D01*
X-47651729Y38674622D01*
X-47602113Y38638573D01*
X-47586004Y38620682D01*
X-47568052Y38605949D01*
X-47519812Y38547169D01*
X-47476076Y38498595D01*
X-47466889Y38482681D01*
X-47456028Y38469448D01*
X-47415851Y38394281D01*
X-47381896Y38335470D01*
X-47377991Y38323450D01*
X-47372786Y38313713D01*
X-47344087Y38219104D01*
X-47323689Y38156328D01*
X-47322972Y38149498D01*
X-47321526Y38144734D01*
X-47307464Y38001958D01*
X-47304000Y37969000D01*
X-47307465Y37936041D01*
X-47321526Y37793267D01*
X-47322971Y37788504D01*
X-47323689Y37781672D01*
X-47344091Y37718883D01*
X-47372786Y37624288D01*
X-47377990Y37614553D01*
X-47381896Y37602530D01*
X-47415858Y37543707D01*
X-47456028Y37468553D01*
X-47466887Y37455323D01*
X-47476076Y37439405D01*
X-47519822Y37390822D01*
X-47568052Y37332052D01*
X-47586000Y37317323D01*
X-47602113Y37299427D01*
X-47651740Y37263372D01*
X-47704553Y37220028D01*
X-47730443Y37206190D01*
X-47754500Y37188711D01*
X-47806244Y37165674D01*
X-47860288Y37136786D01*
X-47894299Y37126469D01*
X-47926576Y37112098D01*
X-47977013Y37101378D01*
X-48029267Y37085526D01*
X-48070862Y37081430D01*
X-48110820Y37072936D01*
X-48157097Y37072936D01*
X-48205000Y37068218D01*
X-48252903Y37072936D01*
X-48299180Y37072936D01*
X-48339138Y37081430D01*
X-48380734Y37085526D01*
X-48432991Y37101379D01*
X-48483424Y37112098D01*
X-48515700Y37126468D01*
X-48549713Y37136786D01*
X-48603763Y37165677D01*
X-48655500Y37188711D01*
X-48679555Y37206188D01*
X-48705448Y37220028D01*
X-48758270Y37263378D01*
X-48807887Y37299427D01*
X-48823998Y37317320D01*
X-48841949Y37332052D01*
X-48890191Y37390834D01*
X-48933924Y37439405D01*
X-48943112Y37455319D01*
X-48953973Y37468553D01*
X-48994156Y37543731D01*
X-49028104Y37602530D01*
X-49032009Y37614549D01*
X-49037215Y37624288D01*
X-49065925Y37718929D01*
X-49086311Y37781672D01*
X-49087029Y37788499D01*
X-49088475Y37793267D01*
X-49102552Y37936192D01*
X-49106000Y37969000D01*
X-49102552Y38001806D01*
X-49088475Y38144734D01*
X-49087029Y38149503D01*
X-49086311Y38156328D01*
X-49065929Y38219058D01*
X-49037215Y38313713D01*
X-49032009Y38323455D01*
X-49028104Y38335470D01*
X-48994164Y38394258D01*
X-48953973Y38469448D01*
X-48943110Y38482686D01*
X-48933924Y38498595D01*
X-48890200Y38547157D01*
X-48841949Y38605949D01*
X-48823995Y38620685D01*
X-48807887Y38638573D01*
X-48758280Y38674615D01*
X-48705448Y38717973D01*
X-48679550Y38731817D01*
X-48655500Y38749289D01*
X-48603774Y38772319D01*
X-48549713Y38801215D01*
X-48515693Y38811536D01*
X-48483424Y38825902D01*
X-48433002Y38836620D01*
X-48380734Y38852475D01*
X-48339129Y38856573D01*
X-48299180Y38865064D01*
X-48252914Y38865064D01*
X-48205000Y38869783D01*
X-48157087Y38865064D01*
G37*
G36*
X-44702215Y37794506D02*
G01*
X-44653227Y37761773D01*
X-44620494Y37712785D01*
X-44609000Y37655000D01*
X-44609000Y37455000D01*
X-44620494Y37397215D01*
X-44653227Y37348227D01*
X-44702215Y37315494D01*
X-44760000Y37304000D01*
X-46035000Y37304000D01*
X-46092785Y37315494D01*
X-46141773Y37348227D01*
X-46174506Y37397215D01*
X-46186000Y37455000D01*
X-46186000Y37655000D01*
X-46174506Y37712785D01*
X-46141773Y37761773D01*
X-46092785Y37794506D01*
X-46035000Y37806000D01*
X-44760000Y37806000D01*
X-44702215Y37794506D01*
G37*
G36*
X-38977215Y37794506D02*
G01*
X-38928227Y37761773D01*
X-38895494Y37712785D01*
X-38884000Y37655000D01*
X-38884000Y37455000D01*
X-38895494Y37397215D01*
X-38928227Y37348227D01*
X-38977215Y37315494D01*
X-39035000Y37304000D01*
X-40310000Y37304000D01*
X-40367785Y37315494D01*
X-40416773Y37348227D01*
X-40449506Y37397215D01*
X-40461000Y37455000D01*
X-40461000Y37655000D01*
X-40449506Y37712785D01*
X-40416773Y37761773D01*
X-40367785Y37794506D01*
X-40310000Y37806000D01*
X-39035000Y37806000D01*
X-38977215Y37794506D01*
G37*
G36*
X-37058081Y39465700D02*
G01*
X-36992872Y39422128D01*
X-36949300Y39356919D01*
X-36934000Y39280000D01*
X-36934000Y37980000D01*
X-36949300Y37903081D01*
X-36992872Y37837872D01*
X-37058081Y37794300D01*
X-37135000Y37779000D01*
X-37435000Y37779000D01*
X-37511919Y37794300D01*
X-37577128Y37837872D01*
X-37620700Y37903081D01*
X-37636000Y37980000D01*
X-37636000Y39280000D01*
X-37620700Y39356919D01*
X-37577128Y39422128D01*
X-37511919Y39465700D01*
X-37435000Y39481000D01*
X-37135000Y39481000D01*
X-37058081Y39465700D01*
G37*
G36*
X-35158081Y39465700D02*
G01*
X-35092872Y39422128D01*
X-35049300Y39356919D01*
X-35034000Y39280000D01*
X-35034000Y37980000D01*
X-35049300Y37903081D01*
X-35092872Y37837872D01*
X-35158081Y37794300D01*
X-35235000Y37779000D01*
X-35535000Y37779000D01*
X-35611919Y37794300D01*
X-35677128Y37837872D01*
X-35720700Y37903081D01*
X-35736000Y37980000D01*
X-35736000Y39280000D01*
X-35720700Y39356919D01*
X-35677128Y39422128D01*
X-35611919Y39465700D01*
X-35535000Y39481000D01*
X-35235000Y39481000D01*
X-35158081Y39465700D01*
G37*
G36*
X-44702215Y38444506D02*
G01*
X-44653227Y38411773D01*
X-44620494Y38362785D01*
X-44609000Y38305000D01*
X-44609000Y38105000D01*
X-44620494Y38047215D01*
X-44653227Y37998227D01*
X-44702215Y37965494D01*
X-44760000Y37954000D01*
X-46035000Y37954000D01*
X-46092785Y37965494D01*
X-46141773Y37998227D01*
X-46174506Y38047215D01*
X-46186000Y38105000D01*
X-46186000Y38305000D01*
X-46174506Y38362785D01*
X-46141773Y38411773D01*
X-46092785Y38444506D01*
X-46035000Y38456000D01*
X-44760000Y38456000D01*
X-44702215Y38444506D01*
G37*
G36*
X-38977215Y38444506D02*
G01*
X-38928227Y38411773D01*
X-38895494Y38362785D01*
X-38884000Y38305000D01*
X-38884000Y38105000D01*
X-38895494Y38047215D01*
X-38928227Y37998227D01*
X-38977215Y37965494D01*
X-39035000Y37954000D01*
X-40310000Y37954000D01*
X-40367785Y37965494D01*
X-40416773Y37998227D01*
X-40449506Y38047215D01*
X-40461000Y38105000D01*
X-40461000Y38305000D01*
X-40449506Y38362785D01*
X-40416773Y38411773D01*
X-40367785Y38444506D01*
X-40310000Y38456000D01*
X-39035000Y38456000D01*
X-38977215Y38444506D01*
G37*
G36*
X-44702215Y39094506D02*
G01*
X-44653227Y39061773D01*
X-44620494Y39012785D01*
X-44609000Y38955000D01*
X-44609000Y38755000D01*
X-44620494Y38697215D01*
X-44653227Y38648227D01*
X-44702215Y38615494D01*
X-44760000Y38604000D01*
X-46035000Y38604000D01*
X-46092785Y38615494D01*
X-46141773Y38648227D01*
X-46174506Y38697215D01*
X-46186000Y38755000D01*
X-46186000Y38955000D01*
X-46174506Y39012785D01*
X-46141773Y39061773D01*
X-46092785Y39094506D01*
X-46035000Y39106000D01*
X-44760000Y39106000D01*
X-44702215Y39094506D01*
G37*
G36*
X-38977215Y39094506D02*
G01*
X-38928227Y39061773D01*
X-38895494Y39012785D01*
X-38884000Y38955000D01*
X-38884000Y38755000D01*
X-38895494Y38697215D01*
X-38928227Y38648227D01*
X-38977215Y38615494D01*
X-39035000Y38604000D01*
X-40310000Y38604000D01*
X-40367785Y38615494D01*
X-40416773Y38648227D01*
X-40449506Y38697215D01*
X-40461000Y38755000D01*
X-40461000Y38955000D01*
X-40449506Y39012785D01*
X-40416773Y39061773D01*
X-40367785Y39094506D01*
X-40310000Y39106000D01*
X-39035000Y39106000D01*
X-38977215Y39094506D01*
G37*
G36*
X-44702215Y39744506D02*
G01*
X-44653227Y39711773D01*
X-44620494Y39662785D01*
X-44609000Y39605000D01*
X-44609000Y39405000D01*
X-44620494Y39347215D01*
X-44653227Y39298227D01*
X-44702215Y39265494D01*
X-44760000Y39254000D01*
X-46035000Y39254000D01*
X-46092785Y39265494D01*
X-46141773Y39298227D01*
X-46174506Y39347215D01*
X-46186000Y39405000D01*
X-46186000Y39605000D01*
X-46174506Y39662785D01*
X-46141773Y39711773D01*
X-46092785Y39744506D01*
X-46035000Y39756000D01*
X-44760000Y39756000D01*
X-44702215Y39744506D01*
G37*
G36*
X-38977215Y39744506D02*
G01*
X-38928227Y39711773D01*
X-38895494Y39662785D01*
X-38884000Y39605000D01*
X-38884000Y39405000D01*
X-38895494Y39347215D01*
X-38928227Y39298227D01*
X-38977215Y39265494D01*
X-39035000Y39254000D01*
X-40310000Y39254000D01*
X-40367785Y39265494D01*
X-40416773Y39298227D01*
X-40449506Y39347215D01*
X-40461000Y39405000D01*
X-40461000Y39605000D01*
X-40449506Y39662785D01*
X-40416773Y39711773D01*
X-40367785Y39744506D01*
X-40310000Y39756000D01*
X-39035000Y39756000D01*
X-38977215Y39744506D01*
G37*
G36*
X-32718087Y41374064D02*
G01*
X-32671820Y41374064D01*
X-32631871Y41365573D01*
X-32590267Y41361475D01*
X-32538002Y41345621D01*
X-32487576Y41334902D01*
X-32455306Y41320535D01*
X-32421288Y41310215D01*
X-32367233Y41281322D01*
X-32315500Y41258289D01*
X-32291449Y41240815D01*
X-32265553Y41226973D01*
X-32212729Y41183622D01*
X-32163113Y41147573D01*
X-32147004Y41129682D01*
X-32129052Y41114949D01*
X-32080812Y41056169D01*
X-32037076Y41007595D01*
X-32027889Y40991681D01*
X-32017028Y40978448D01*
X-31976851Y40903281D01*
X-31942896Y40844470D01*
X-31938991Y40832450D01*
X-31933786Y40822713D01*
X-31905087Y40728104D01*
X-31884689Y40665328D01*
X-31883972Y40658498D01*
X-31882526Y40653734D01*
X-31868464Y40510958D01*
X-31865000Y40478000D01*
X-31868465Y40445041D01*
X-31882526Y40302267D01*
X-31883971Y40297504D01*
X-31884689Y40290672D01*
X-31905091Y40227883D01*
X-31933786Y40133288D01*
X-31938990Y40123553D01*
X-31942896Y40111530D01*
X-31976858Y40052707D01*
X-32017028Y39977553D01*
X-32027887Y39964323D01*
X-32037076Y39948405D01*
X-32080822Y39899822D01*
X-32129052Y39841052D01*
X-32147000Y39826323D01*
X-32163113Y39808427D01*
X-32212740Y39772372D01*
X-32265553Y39729028D01*
X-32291443Y39715190D01*
X-32315500Y39697711D01*
X-32367244Y39674674D01*
X-32421288Y39645786D01*
X-32455299Y39635469D01*
X-32487576Y39621098D01*
X-32538013Y39610378D01*
X-32590267Y39594526D01*
X-32631862Y39590430D01*
X-32671820Y39581936D01*
X-32718097Y39581936D01*
X-32766000Y39577218D01*
X-32813903Y39581936D01*
X-32860180Y39581936D01*
X-32900138Y39590430D01*
X-32941734Y39594526D01*
X-32993991Y39610379D01*
X-33044424Y39621098D01*
X-33076700Y39635468D01*
X-33110713Y39645786D01*
X-33164763Y39674677D01*
X-33216500Y39697711D01*
X-33240555Y39715188D01*
X-33266448Y39729028D01*
X-33319270Y39772378D01*
X-33368887Y39808427D01*
X-33384998Y39826320D01*
X-33402949Y39841052D01*
X-33451191Y39899834D01*
X-33494924Y39948405D01*
X-33504112Y39964319D01*
X-33514973Y39977553D01*
X-33555156Y40052731D01*
X-33589104Y40111530D01*
X-33593009Y40123549D01*
X-33598215Y40133288D01*
X-33626925Y40227929D01*
X-33647311Y40290672D01*
X-33648029Y40297499D01*
X-33649475Y40302267D01*
X-33663552Y40445192D01*
X-33667000Y40478000D01*
X-33663552Y40510806D01*
X-33649475Y40653734D01*
X-33648029Y40658503D01*
X-33647311Y40665328D01*
X-33626929Y40728058D01*
X-33598215Y40822713D01*
X-33593009Y40832455D01*
X-33589104Y40844470D01*
X-33555164Y40903258D01*
X-33514973Y40978448D01*
X-33504110Y40991686D01*
X-33494924Y41007595D01*
X-33451200Y41056157D01*
X-33402949Y41114949D01*
X-33384995Y41129685D01*
X-33368887Y41147573D01*
X-33319280Y41183615D01*
X-33266448Y41226973D01*
X-33240550Y41240817D01*
X-33216500Y41258289D01*
X-33164774Y41281319D01*
X-33110713Y41310215D01*
X-33076693Y41320536D01*
X-33044424Y41334902D01*
X-32994002Y41345620D01*
X-32941734Y41361475D01*
X-32900129Y41365573D01*
X-32860180Y41374064D01*
X-32813914Y41374064D01*
X-32766000Y41378783D01*
X-32718087Y41374064D01*
G37*
G36*
X-48157087Y41405064D02*
G01*
X-48110820Y41405064D01*
X-48070871Y41396573D01*
X-48029267Y41392475D01*
X-47977002Y41376621D01*
X-47926576Y41365902D01*
X-47894306Y41351535D01*
X-47860288Y41341215D01*
X-47806233Y41312322D01*
X-47754500Y41289289D01*
X-47730449Y41271815D01*
X-47704553Y41257973D01*
X-47651729Y41214622D01*
X-47602113Y41178573D01*
X-47586004Y41160682D01*
X-47568052Y41145949D01*
X-47519812Y41087169D01*
X-47476076Y41038595D01*
X-47466889Y41022681D01*
X-47456028Y41009448D01*
X-47415851Y40934281D01*
X-47381896Y40875470D01*
X-47377991Y40863450D01*
X-47372786Y40853713D01*
X-47344087Y40759104D01*
X-47323689Y40696328D01*
X-47322972Y40689498D01*
X-47321526Y40684734D01*
X-47307464Y40541958D01*
X-47304000Y40509000D01*
X-47307465Y40476041D01*
X-47321526Y40333267D01*
X-47322971Y40328504D01*
X-47323689Y40321672D01*
X-47344091Y40258883D01*
X-47372786Y40164288D01*
X-47377990Y40154553D01*
X-47381896Y40142530D01*
X-47415858Y40083707D01*
X-47456028Y40008553D01*
X-47466887Y39995323D01*
X-47476076Y39979405D01*
X-47519822Y39930822D01*
X-47568052Y39872052D01*
X-47586000Y39857323D01*
X-47602113Y39839427D01*
X-47651740Y39803372D01*
X-47704553Y39760028D01*
X-47730443Y39746190D01*
X-47754500Y39728711D01*
X-47806244Y39705674D01*
X-47860288Y39676786D01*
X-47894299Y39666469D01*
X-47926576Y39652098D01*
X-47977013Y39641378D01*
X-48029267Y39625526D01*
X-48070862Y39621430D01*
X-48110820Y39612936D01*
X-48157097Y39612936D01*
X-48205000Y39608218D01*
X-48252903Y39612936D01*
X-48299180Y39612936D01*
X-48339138Y39621430D01*
X-48380734Y39625526D01*
X-48432991Y39641379D01*
X-48483424Y39652098D01*
X-48515700Y39666468D01*
X-48549713Y39676786D01*
X-48603763Y39705677D01*
X-48655500Y39728711D01*
X-48679555Y39746188D01*
X-48705448Y39760028D01*
X-48758270Y39803378D01*
X-48807887Y39839427D01*
X-48823998Y39857320D01*
X-48841949Y39872052D01*
X-48890191Y39930834D01*
X-48933924Y39979405D01*
X-48943112Y39995319D01*
X-48953973Y40008553D01*
X-48994156Y40083731D01*
X-49028104Y40142530D01*
X-49032009Y40154549D01*
X-49037215Y40164288D01*
X-49065925Y40258929D01*
X-49086311Y40321672D01*
X-49087029Y40328499D01*
X-49088475Y40333267D01*
X-49102552Y40476192D01*
X-49106000Y40509000D01*
X-49102552Y40541806D01*
X-49088475Y40684734D01*
X-49087029Y40689503D01*
X-49086311Y40696328D01*
X-49065929Y40759058D01*
X-49037215Y40853713D01*
X-49032009Y40863455D01*
X-49028104Y40875470D01*
X-48994164Y40934258D01*
X-48953973Y41009448D01*
X-48943110Y41022686D01*
X-48933924Y41038595D01*
X-48890200Y41087157D01*
X-48841949Y41145949D01*
X-48823995Y41160685D01*
X-48807887Y41178573D01*
X-48758280Y41214615D01*
X-48705448Y41257973D01*
X-48679550Y41271817D01*
X-48655500Y41289289D01*
X-48603774Y41312319D01*
X-48549713Y41341215D01*
X-48515693Y41351536D01*
X-48483424Y41365902D01*
X-48433002Y41376620D01*
X-48380734Y41392475D01*
X-48339129Y41396573D01*
X-48299180Y41405064D01*
X-48252914Y41405064D01*
X-48205000Y41409783D01*
X-48157087Y41405064D01*
G37*
G36*
X-44702215Y40394506D02*
G01*
X-44653227Y40361773D01*
X-44620494Y40312785D01*
X-44609000Y40255000D01*
X-44609000Y40055000D01*
X-44620494Y39997215D01*
X-44653227Y39948227D01*
X-44702215Y39915494D01*
X-44760000Y39904000D01*
X-46035000Y39904000D01*
X-46092785Y39915494D01*
X-46141773Y39948227D01*
X-46174506Y39997215D01*
X-46186000Y40055000D01*
X-46186000Y40255000D01*
X-46174506Y40312785D01*
X-46141773Y40361773D01*
X-46092785Y40394506D01*
X-46035000Y40406000D01*
X-44760000Y40406000D01*
X-44702215Y40394506D01*
G37*
G36*
X-38977215Y40394506D02*
G01*
X-38928227Y40361773D01*
X-38895494Y40312785D01*
X-38884000Y40255000D01*
X-38884000Y40055000D01*
X-38895494Y39997215D01*
X-38928227Y39948227D01*
X-38977215Y39915494D01*
X-39035000Y39904000D01*
X-40310000Y39904000D01*
X-40367785Y39915494D01*
X-40416773Y39948227D01*
X-40449506Y39997215D01*
X-40461000Y40055000D01*
X-40461000Y40255000D01*
X-40449506Y40312785D01*
X-40416773Y40361773D01*
X-40367785Y40394506D01*
X-40310000Y40406000D01*
X-39035000Y40406000D01*
X-38977215Y40394506D01*
G37*
G36*
X-36191907Y40656461D02*
G01*
X-36129943Y40615057D01*
X-36088539Y40553093D01*
X-36074000Y40480000D01*
X-36074000Y40140000D01*
X-36088539Y40066907D01*
X-36129943Y40004943D01*
X-36191907Y39963539D01*
X-36265000Y39949000D01*
X-36545000Y39949000D01*
X-36618093Y39963539D01*
X-36680057Y40004943D01*
X-36721461Y40066907D01*
X-36736000Y40140000D01*
X-36736000Y40480000D01*
X-36721461Y40553093D01*
X-36680057Y40615057D01*
X-36618093Y40656461D01*
X-36545000Y40671000D01*
X-36265000Y40671000D01*
X-36191907Y40656461D01*
G37*
G36*
X-35231907Y40656461D02*
G01*
X-35169943Y40615057D01*
X-35128539Y40553093D01*
X-35114000Y40480000D01*
X-35114000Y40140000D01*
X-35128539Y40066907D01*
X-35169943Y40004943D01*
X-35231907Y39963539D01*
X-35305000Y39949000D01*
X-35585000Y39949000D01*
X-35658093Y39963539D01*
X-35720057Y40004943D01*
X-35761461Y40066907D01*
X-35776000Y40140000D01*
X-35776000Y40480000D01*
X-35761461Y40553093D01*
X-35720057Y40615057D01*
X-35658093Y40656461D01*
X-35585000Y40671000D01*
X-35305000Y40671000D01*
X-35231907Y40656461D01*
G37*
G36*
X-44702215Y41044506D02*
G01*
X-44653227Y41011773D01*
X-44620494Y40962785D01*
X-44609000Y40905000D01*
X-44609000Y40705000D01*
X-44620494Y40647215D01*
X-44653227Y40598227D01*
X-44702215Y40565494D01*
X-44760000Y40554000D01*
X-46035000Y40554000D01*
X-46092785Y40565494D01*
X-46141773Y40598227D01*
X-46174506Y40647215D01*
X-46186000Y40705000D01*
X-46186000Y40905000D01*
X-46174506Y40962785D01*
X-46141773Y41011773D01*
X-46092785Y41044506D01*
X-46035000Y41056000D01*
X-44760000Y41056000D01*
X-44702215Y41044506D01*
G37*
G36*
X-38977215Y41044506D02*
G01*
X-38928227Y41011773D01*
X-38895494Y40962785D01*
X-38884000Y40905000D01*
X-38884000Y40705000D01*
X-38895494Y40647215D01*
X-38928227Y40598227D01*
X-38977215Y40565494D01*
X-39035000Y40554000D01*
X-40310000Y40554000D01*
X-40367785Y40565494D01*
X-40416773Y40598227D01*
X-40449506Y40647215D01*
X-40461000Y40705000D01*
X-40461000Y40905000D01*
X-40449506Y40962785D01*
X-40416773Y41011773D01*
X-40367785Y41044506D01*
X-40310000Y41056000D01*
X-39035000Y41056000D01*
X-38977215Y41044506D01*
G37*
G36*
X-44702215Y41694506D02*
G01*
X-44653227Y41661773D01*
X-44620494Y41612785D01*
X-44609000Y41555000D01*
X-44609000Y41355000D01*
X-44620494Y41297215D01*
X-44653227Y41248227D01*
X-44702215Y41215494D01*
X-44760000Y41204000D01*
X-46035000Y41204000D01*
X-46092785Y41215494D01*
X-46141773Y41248227D01*
X-46174506Y41297215D01*
X-46186000Y41355000D01*
X-46186000Y41555000D01*
X-46174506Y41612785D01*
X-46141773Y41661773D01*
X-46092785Y41694506D01*
X-46035000Y41706000D01*
X-44760000Y41706000D01*
X-44702215Y41694506D01*
G37*
G36*
X-38977215Y41694506D02*
G01*
X-38928227Y41661773D01*
X-38895494Y41612785D01*
X-38884000Y41555000D01*
X-38884000Y41355000D01*
X-38895494Y41297215D01*
X-38928227Y41248227D01*
X-38977215Y41215494D01*
X-39035000Y41204000D01*
X-40310000Y41204000D01*
X-40367785Y41215494D01*
X-40416773Y41248227D01*
X-40449506Y41297215D01*
X-40461000Y41355000D01*
X-40461000Y41555000D01*
X-40449506Y41612785D01*
X-40416773Y41661773D01*
X-40367785Y41694506D01*
X-40310000Y41706000D01*
X-39035000Y41706000D01*
X-38977215Y41694506D01*
G37*
G36*
X-32718087Y43914064D02*
G01*
X-32671820Y43914064D01*
X-32631871Y43905573D01*
X-32590267Y43901475D01*
X-32538002Y43885621D01*
X-32487576Y43874902D01*
X-32455306Y43860535D01*
X-32421288Y43850215D01*
X-32367233Y43821322D01*
X-32315500Y43798289D01*
X-32291449Y43780815D01*
X-32265553Y43766973D01*
X-32212729Y43723622D01*
X-32163113Y43687573D01*
X-32147004Y43669682D01*
X-32129052Y43654949D01*
X-32080812Y43596169D01*
X-32037076Y43547595D01*
X-32027889Y43531681D01*
X-32017028Y43518448D01*
X-31976851Y43443281D01*
X-31942896Y43384470D01*
X-31938991Y43372450D01*
X-31933786Y43362713D01*
X-31905087Y43268104D01*
X-31884689Y43205328D01*
X-31883972Y43198498D01*
X-31882526Y43193734D01*
X-31868464Y43050958D01*
X-31865000Y43018000D01*
X-31868465Y42985041D01*
X-31882526Y42842267D01*
X-31883971Y42837504D01*
X-31884689Y42830672D01*
X-31905091Y42767883D01*
X-31933786Y42673288D01*
X-31938990Y42663553D01*
X-31942896Y42651530D01*
X-31976858Y42592707D01*
X-32017028Y42517553D01*
X-32027887Y42504323D01*
X-32037076Y42488405D01*
X-32080822Y42439822D01*
X-32129052Y42381052D01*
X-32147000Y42366323D01*
X-32163113Y42348427D01*
X-32212740Y42312372D01*
X-32265553Y42269028D01*
X-32291443Y42255190D01*
X-32315500Y42237711D01*
X-32367244Y42214674D01*
X-32421288Y42185786D01*
X-32455299Y42175469D01*
X-32487576Y42161098D01*
X-32538013Y42150378D01*
X-32590267Y42134526D01*
X-32631862Y42130430D01*
X-32671820Y42121936D01*
X-32718097Y42121936D01*
X-32766000Y42117218D01*
X-32813903Y42121936D01*
X-32860180Y42121936D01*
X-32900138Y42130430D01*
X-32941734Y42134526D01*
X-32993991Y42150379D01*
X-33044424Y42161098D01*
X-33076700Y42175468D01*
X-33110713Y42185786D01*
X-33164763Y42214677D01*
X-33216500Y42237711D01*
X-33240555Y42255188D01*
X-33266448Y42269028D01*
X-33319270Y42312378D01*
X-33368887Y42348427D01*
X-33384998Y42366320D01*
X-33402949Y42381052D01*
X-33451191Y42439834D01*
X-33494924Y42488405D01*
X-33504112Y42504319D01*
X-33514973Y42517553D01*
X-33555156Y42592731D01*
X-33589104Y42651530D01*
X-33593009Y42663549D01*
X-33598215Y42673288D01*
X-33626925Y42767929D01*
X-33647311Y42830672D01*
X-33648029Y42837499D01*
X-33649475Y42842267D01*
X-33663552Y42985192D01*
X-33667000Y43018000D01*
X-33663552Y43050806D01*
X-33649475Y43193734D01*
X-33648029Y43198503D01*
X-33647311Y43205328D01*
X-33626929Y43268058D01*
X-33598215Y43362713D01*
X-33593009Y43372455D01*
X-33589104Y43384470D01*
X-33555164Y43443258D01*
X-33514973Y43518448D01*
X-33504110Y43531686D01*
X-33494924Y43547595D01*
X-33451200Y43596157D01*
X-33402949Y43654949D01*
X-33384995Y43669685D01*
X-33368887Y43687573D01*
X-33319280Y43723615D01*
X-33266448Y43766973D01*
X-33240550Y43780817D01*
X-33216500Y43798289D01*
X-33164774Y43821319D01*
X-33110713Y43850215D01*
X-33076693Y43860536D01*
X-33044424Y43874902D01*
X-32994002Y43885620D01*
X-32941734Y43901475D01*
X-32900129Y43905573D01*
X-32860180Y43914064D01*
X-32813914Y43914064D01*
X-32766000Y43918783D01*
X-32718087Y43914064D01*
G37*
G36*
X-48157087Y43945064D02*
G01*
X-48110820Y43945064D01*
X-48070871Y43936573D01*
X-48029267Y43932475D01*
X-47977002Y43916621D01*
X-47926576Y43905902D01*
X-47894306Y43891535D01*
X-47860288Y43881215D01*
X-47806233Y43852322D01*
X-47754500Y43829289D01*
X-47730449Y43811815D01*
X-47704553Y43797973D01*
X-47651729Y43754622D01*
X-47602113Y43718573D01*
X-47586004Y43700682D01*
X-47568052Y43685949D01*
X-47519812Y43627169D01*
X-47476076Y43578595D01*
X-47466889Y43562681D01*
X-47456028Y43549448D01*
X-47415851Y43474281D01*
X-47381896Y43415470D01*
X-47377991Y43403450D01*
X-47372786Y43393713D01*
X-47344087Y43299104D01*
X-47323689Y43236328D01*
X-47322972Y43229498D01*
X-47321526Y43224734D01*
X-47307464Y43081958D01*
X-47304000Y43049000D01*
X-47307465Y43016041D01*
X-47321526Y42873267D01*
X-47322971Y42868504D01*
X-47323689Y42861672D01*
X-47344091Y42798883D01*
X-47372786Y42704288D01*
X-47377990Y42694553D01*
X-47381896Y42682530D01*
X-47415858Y42623707D01*
X-47456028Y42548553D01*
X-47466887Y42535323D01*
X-47476076Y42519405D01*
X-47519822Y42470822D01*
X-47568052Y42412052D01*
X-47586000Y42397323D01*
X-47602113Y42379427D01*
X-47651740Y42343372D01*
X-47704553Y42300028D01*
X-47730443Y42286190D01*
X-47754500Y42268711D01*
X-47806244Y42245674D01*
X-47860288Y42216786D01*
X-47894299Y42206469D01*
X-47926576Y42192098D01*
X-47977013Y42181378D01*
X-48029267Y42165526D01*
X-48070862Y42161430D01*
X-48110820Y42152936D01*
X-48157097Y42152936D01*
X-48205000Y42148218D01*
X-48252903Y42152936D01*
X-48299180Y42152936D01*
X-48339138Y42161430D01*
X-48380734Y42165526D01*
X-48432991Y42181379D01*
X-48483424Y42192098D01*
X-48515700Y42206468D01*
X-48549713Y42216786D01*
X-48603763Y42245677D01*
X-48655500Y42268711D01*
X-48679555Y42286188D01*
X-48705448Y42300028D01*
X-48758270Y42343378D01*
X-48807887Y42379427D01*
X-48823998Y42397320D01*
X-48841949Y42412052D01*
X-48890191Y42470834D01*
X-48933924Y42519405D01*
X-48943112Y42535319D01*
X-48953973Y42548553D01*
X-48994156Y42623731D01*
X-49028104Y42682530D01*
X-49032009Y42694549D01*
X-49037215Y42704288D01*
X-49065925Y42798929D01*
X-49086311Y42861672D01*
X-49087029Y42868499D01*
X-49088475Y42873267D01*
X-49102552Y43016192D01*
X-49106000Y43049000D01*
X-49102552Y43081806D01*
X-49088475Y43224734D01*
X-49087029Y43229503D01*
X-49086311Y43236328D01*
X-49065929Y43299058D01*
X-49037215Y43393713D01*
X-49032009Y43403455D01*
X-49028104Y43415470D01*
X-48994164Y43474258D01*
X-48953973Y43549448D01*
X-48943110Y43562686D01*
X-48933924Y43578595D01*
X-48890200Y43627157D01*
X-48841949Y43685949D01*
X-48823995Y43700685D01*
X-48807887Y43718573D01*
X-48758280Y43754615D01*
X-48705448Y43797973D01*
X-48679550Y43811817D01*
X-48655500Y43829289D01*
X-48603774Y43852319D01*
X-48549713Y43881215D01*
X-48515693Y43891536D01*
X-48483424Y43905902D01*
X-48433002Y43916620D01*
X-48380734Y43932475D01*
X-48339129Y43936573D01*
X-48299180Y43945064D01*
X-48252914Y43945064D01*
X-48205000Y43949783D01*
X-48157087Y43945064D01*
G37*
G36*
X-45651907Y42916461D02*
G01*
X-45589943Y42875057D01*
X-45548539Y42813093D01*
X-45534000Y42740000D01*
X-45534000Y42400000D01*
X-45548539Y42326907D01*
X-45589943Y42264943D01*
X-45651907Y42223539D01*
X-45725000Y42209000D01*
X-46005000Y42209000D01*
X-46078093Y42223539D01*
X-46140057Y42264943D01*
X-46181461Y42326907D01*
X-46196000Y42400000D01*
X-46196000Y42740000D01*
X-46181461Y42813093D01*
X-46140057Y42875057D01*
X-46078093Y42916461D01*
X-46005000Y42931000D01*
X-45725000Y42931000D01*
X-45651907Y42916461D01*
G37*
G36*
X-44691907Y42916461D02*
G01*
X-44629943Y42875057D01*
X-44588539Y42813093D01*
X-44574000Y42740000D01*
X-44574000Y42400000D01*
X-44588539Y42326907D01*
X-44629943Y42264943D01*
X-44691907Y42223539D01*
X-44765000Y42209000D01*
X-45045000Y42209000D01*
X-45118093Y42223539D01*
X-45180057Y42264943D01*
X-45221461Y42326907D01*
X-45236000Y42400000D01*
X-45236000Y42740000D01*
X-45221461Y42813093D01*
X-45180057Y42875057D01*
X-45118093Y42916461D01*
X-45045000Y42931000D01*
X-44765000Y42931000D01*
X-44691907Y42916461D01*
G37*
G36*
X-35555483Y44887118D02*
G01*
X-35538938Y44876062D01*
X-35527882Y44859517D01*
X-35524000Y44840000D01*
X-35524000Y43140000D01*
X-35527882Y43120483D01*
X-35538938Y43103938D01*
X-35555483Y43092882D01*
X-35575000Y43089000D01*
X-37275000Y43089000D01*
X-37294517Y43092882D01*
X-37311062Y43103938D01*
X-37322118Y43120483D01*
X-37326000Y43140000D01*
X-37326000Y44840000D01*
X-37322118Y44859517D01*
X-37311062Y44876062D01*
X-37294517Y44887118D01*
X-37275000Y44891000D01*
X-35575000Y44891000D01*
X-35555483Y44887118D01*
G37*
G36*
X-37941907Y44056461D02*
G01*
X-37879943Y44015057D01*
X-37838539Y43953093D01*
X-37824000Y43880000D01*
X-37824000Y43600000D01*
X-37838539Y43526907D01*
X-37879943Y43464943D01*
X-37941907Y43423539D01*
X-38015000Y43409000D01*
X-38355000Y43409000D01*
X-38428093Y43423539D01*
X-38490057Y43464943D01*
X-38531461Y43526907D01*
X-38546000Y43600000D01*
X-38546000Y43880000D01*
X-38531461Y43953093D01*
X-38490057Y44015057D01*
X-38428093Y44056461D01*
X-38355000Y44071000D01*
X-38015000Y44071000D01*
X-37941907Y44056461D01*
G37*
G36*
X-44682215Y43914506D02*
G01*
X-44633227Y43881773D01*
X-44600494Y43832785D01*
X-44589000Y43775000D01*
X-44589000Y43575000D01*
X-44600494Y43517215D01*
X-44633227Y43468227D01*
X-44682215Y43435494D01*
X-44740000Y43424000D01*
X-46015000Y43424000D01*
X-46072785Y43435494D01*
X-46121773Y43468227D01*
X-46154506Y43517215D01*
X-46166000Y43575000D01*
X-46166000Y43775000D01*
X-46154506Y43832785D01*
X-46121773Y43881773D01*
X-46072785Y43914506D01*
X-46015000Y43926000D01*
X-44740000Y43926000D01*
X-44682215Y43914506D01*
G37*
G36*
X-38957215Y43914506D02*
G01*
X-38908227Y43881773D01*
X-38875494Y43832785D01*
X-38864000Y43775000D01*
X-38864000Y43575000D01*
X-38875494Y43517215D01*
X-38908227Y43468227D01*
X-38957215Y43435494D01*
X-39015000Y43424000D01*
X-40290000Y43424000D01*
X-40347785Y43435494D01*
X-40396773Y43468227D01*
X-40429506Y43517215D01*
X-40441000Y43575000D01*
X-40441000Y43775000D01*
X-40429506Y43832785D01*
X-40396773Y43881773D01*
X-40347785Y43914506D01*
X-40290000Y43926000D01*
X-39015000Y43926000D01*
X-38957215Y43914506D01*
G37*
G36*
X-44682215Y44564506D02*
G01*
X-44633227Y44531773D01*
X-44600494Y44482785D01*
X-44589000Y44425000D01*
X-44589000Y44225000D01*
X-44600494Y44167215D01*
X-44633227Y44118227D01*
X-44682215Y44085494D01*
X-44740000Y44074000D01*
X-46015000Y44074000D01*
X-46072785Y44085494D01*
X-46121773Y44118227D01*
X-46154506Y44167215D01*
X-46166000Y44225000D01*
X-46166000Y44425000D01*
X-46154506Y44482785D01*
X-46121773Y44531773D01*
X-46072785Y44564506D01*
X-46015000Y44576000D01*
X-44740000Y44576000D01*
X-44682215Y44564506D01*
G37*
G36*
X-38957215Y44564506D02*
G01*
X-38908227Y44531773D01*
X-38875494Y44482785D01*
X-38864000Y44425000D01*
X-38864000Y44225000D01*
X-38875494Y44167215D01*
X-38908227Y44118227D01*
X-38957215Y44085494D01*
X-39015000Y44074000D01*
X-40290000Y44074000D01*
X-40347785Y44085494D01*
X-40396773Y44118227D01*
X-40429506Y44167215D01*
X-40441000Y44225000D01*
X-40441000Y44425000D01*
X-40429506Y44482785D01*
X-40396773Y44531773D01*
X-40347785Y44564506D01*
X-40290000Y44576000D01*
X-39015000Y44576000D01*
X-38957215Y44564506D01*
G37*
G36*
X-37941907Y45016461D02*
G01*
X-37879943Y44975057D01*
X-37838539Y44913093D01*
X-37824000Y44840000D01*
X-37824000Y44560000D01*
X-37838539Y44486907D01*
X-37879943Y44424943D01*
X-37941907Y44383539D01*
X-38015000Y44369000D01*
X-38355000Y44369000D01*
X-38428093Y44383539D01*
X-38490057Y44424943D01*
X-38531461Y44486907D01*
X-38546000Y44560000D01*
X-38546000Y44840000D01*
X-38531461Y44913093D01*
X-38490057Y44975057D01*
X-38428093Y45016461D01*
X-38355000Y45031000D01*
X-38015000Y45031000D01*
X-37941907Y45016461D01*
G37*
G36*
X-32718087Y46454064D02*
G01*
X-32671820Y46454064D01*
X-32631871Y46445573D01*
X-32590267Y46441475D01*
X-32538002Y46425621D01*
X-32487576Y46414902D01*
X-32455306Y46400535D01*
X-32421288Y46390215D01*
X-32367233Y46361322D01*
X-32315500Y46338289D01*
X-32291449Y46320815D01*
X-32265553Y46306973D01*
X-32212729Y46263622D01*
X-32163113Y46227573D01*
X-32147004Y46209682D01*
X-32129052Y46194949D01*
X-32080812Y46136169D01*
X-32037076Y46087595D01*
X-32027889Y46071681D01*
X-32017028Y46058448D01*
X-31976851Y45983281D01*
X-31942896Y45924470D01*
X-31938991Y45912450D01*
X-31933786Y45902713D01*
X-31905087Y45808104D01*
X-31884689Y45745328D01*
X-31883972Y45738498D01*
X-31882526Y45733734D01*
X-31868464Y45590958D01*
X-31865000Y45558000D01*
X-31868465Y45525041D01*
X-31882526Y45382267D01*
X-31883971Y45377504D01*
X-31884689Y45370672D01*
X-31905091Y45307883D01*
X-31933786Y45213288D01*
X-31938990Y45203553D01*
X-31942896Y45191530D01*
X-31976858Y45132707D01*
X-32017028Y45057553D01*
X-32027887Y45044323D01*
X-32037076Y45028405D01*
X-32080822Y44979822D01*
X-32129052Y44921052D01*
X-32147000Y44906323D01*
X-32163113Y44888427D01*
X-32212740Y44852372D01*
X-32265553Y44809028D01*
X-32291443Y44795190D01*
X-32315500Y44777711D01*
X-32367244Y44754674D01*
X-32421288Y44725786D01*
X-32455299Y44715469D01*
X-32487576Y44701098D01*
X-32538013Y44690378D01*
X-32590267Y44674526D01*
X-32631862Y44670430D01*
X-32671820Y44661936D01*
X-32718097Y44661936D01*
X-32766000Y44657218D01*
X-32813903Y44661936D01*
X-32860180Y44661936D01*
X-32900138Y44670430D01*
X-32941734Y44674526D01*
X-32993991Y44690379D01*
X-33044424Y44701098D01*
X-33076700Y44715468D01*
X-33110713Y44725786D01*
X-33164763Y44754677D01*
X-33216500Y44777711D01*
X-33240555Y44795188D01*
X-33266448Y44809028D01*
X-33319270Y44852378D01*
X-33368887Y44888427D01*
X-33384998Y44906320D01*
X-33402949Y44921052D01*
X-33451191Y44979834D01*
X-33494924Y45028405D01*
X-33504112Y45044319D01*
X-33514973Y45057553D01*
X-33555156Y45132731D01*
X-33589104Y45191530D01*
X-33593009Y45203549D01*
X-33598215Y45213288D01*
X-33626925Y45307929D01*
X-33647311Y45370672D01*
X-33648029Y45377499D01*
X-33649475Y45382267D01*
X-33663552Y45525192D01*
X-33667000Y45558000D01*
X-33663552Y45590806D01*
X-33649475Y45733734D01*
X-33648029Y45738503D01*
X-33647311Y45745328D01*
X-33626929Y45808058D01*
X-33598215Y45902713D01*
X-33593009Y45912455D01*
X-33589104Y45924470D01*
X-33555164Y45983258D01*
X-33514973Y46058448D01*
X-33504110Y46071686D01*
X-33494924Y46087595D01*
X-33451200Y46136157D01*
X-33402949Y46194949D01*
X-33384995Y46209685D01*
X-33368887Y46227573D01*
X-33319280Y46263615D01*
X-33266448Y46306973D01*
X-33240550Y46320817D01*
X-33216500Y46338289D01*
X-33164774Y46361319D01*
X-33110713Y46390215D01*
X-33076693Y46400536D01*
X-33044424Y46414902D01*
X-32994002Y46425620D01*
X-32941734Y46441475D01*
X-32900129Y46445573D01*
X-32860180Y46454064D01*
X-32813914Y46454064D01*
X-32766000Y46458783D01*
X-32718087Y46454064D01*
G37*
G36*
X-48157087Y46485064D02*
G01*
X-48110820Y46485064D01*
X-48070871Y46476573D01*
X-48029267Y46472475D01*
X-47977002Y46456621D01*
X-47926576Y46445902D01*
X-47894306Y46431535D01*
X-47860288Y46421215D01*
X-47806233Y46392322D01*
X-47754500Y46369289D01*
X-47730449Y46351815D01*
X-47704553Y46337973D01*
X-47651729Y46294622D01*
X-47602113Y46258573D01*
X-47586004Y46240682D01*
X-47568052Y46225949D01*
X-47519812Y46167169D01*
X-47476076Y46118595D01*
X-47466889Y46102681D01*
X-47456028Y46089448D01*
X-47415851Y46014281D01*
X-47381896Y45955470D01*
X-47377991Y45943450D01*
X-47372786Y45933713D01*
X-47344087Y45839104D01*
X-47323689Y45776328D01*
X-47322972Y45769498D01*
X-47321526Y45764734D01*
X-47307464Y45621958D01*
X-47304000Y45589000D01*
X-47307465Y45556041D01*
X-47321526Y45413267D01*
X-47322971Y45408504D01*
X-47323689Y45401672D01*
X-47344091Y45338883D01*
X-47372786Y45244288D01*
X-47377990Y45234553D01*
X-47381896Y45222530D01*
X-47415858Y45163707D01*
X-47456028Y45088553D01*
X-47466887Y45075323D01*
X-47476076Y45059405D01*
X-47519822Y45010822D01*
X-47568052Y44952052D01*
X-47586000Y44937323D01*
X-47602113Y44919427D01*
X-47651740Y44883372D01*
X-47704553Y44840028D01*
X-47730443Y44826190D01*
X-47754500Y44808711D01*
X-47806244Y44785674D01*
X-47860288Y44756786D01*
X-47894299Y44746469D01*
X-47926576Y44732098D01*
X-47977013Y44721378D01*
X-48029267Y44705526D01*
X-48070862Y44701430D01*
X-48110820Y44692936D01*
X-48157097Y44692936D01*
X-48205000Y44688218D01*
X-48252903Y44692936D01*
X-48299180Y44692936D01*
X-48339138Y44701430D01*
X-48380734Y44705526D01*
X-48432991Y44721379D01*
X-48483424Y44732098D01*
X-48515700Y44746468D01*
X-48549713Y44756786D01*
X-48603763Y44785677D01*
X-48655500Y44808711D01*
X-48679555Y44826188D01*
X-48705448Y44840028D01*
X-48758270Y44883378D01*
X-48807887Y44919427D01*
X-48823998Y44937320D01*
X-48841949Y44952052D01*
X-48890191Y45010834D01*
X-48933924Y45059405D01*
X-48943112Y45075319D01*
X-48953973Y45088553D01*
X-48994156Y45163731D01*
X-49028104Y45222530D01*
X-49032009Y45234549D01*
X-49037215Y45244288D01*
X-49065925Y45338929D01*
X-49086311Y45401672D01*
X-49087029Y45408499D01*
X-49088475Y45413267D01*
X-49102552Y45556192D01*
X-49106000Y45589000D01*
X-49102552Y45621806D01*
X-49088475Y45764734D01*
X-49087029Y45769503D01*
X-49086311Y45776328D01*
X-49065929Y45839058D01*
X-49037215Y45933713D01*
X-49032009Y45943455D01*
X-49028104Y45955470D01*
X-48994164Y46014258D01*
X-48953973Y46089448D01*
X-48943110Y46102686D01*
X-48933924Y46118595D01*
X-48890200Y46167157D01*
X-48841949Y46225949D01*
X-48823995Y46240685D01*
X-48807887Y46258573D01*
X-48758280Y46294615D01*
X-48705448Y46337973D01*
X-48679550Y46351817D01*
X-48655500Y46369289D01*
X-48603774Y46392319D01*
X-48549713Y46421215D01*
X-48515693Y46431536D01*
X-48483424Y46445902D01*
X-48433002Y46456620D01*
X-48380734Y46472475D01*
X-48339129Y46476573D01*
X-48299180Y46485064D01*
X-48252914Y46485064D01*
X-48205000Y46489783D01*
X-48157087Y46485064D01*
G37*
G36*
X-44682215Y45214506D02*
G01*
X-44633227Y45181773D01*
X-44600494Y45132785D01*
X-44589000Y45075000D01*
X-44589000Y44875000D01*
X-44600494Y44817215D01*
X-44633227Y44768227D01*
X-44682215Y44735494D01*
X-44740000Y44724000D01*
X-46015000Y44724000D01*
X-46072785Y44735494D01*
X-46121773Y44768227D01*
X-46154506Y44817215D01*
X-46166000Y44875000D01*
X-46166000Y45075000D01*
X-46154506Y45132785D01*
X-46121773Y45181773D01*
X-46072785Y45214506D01*
X-46015000Y45226000D01*
X-44740000Y45226000D01*
X-44682215Y45214506D01*
G37*
G36*
X-38957215Y45214506D02*
G01*
X-38908227Y45181773D01*
X-38875494Y45132785D01*
X-38864000Y45075000D01*
X-38864000Y44875000D01*
X-38875494Y44817215D01*
X-38908227Y44768227D01*
X-38957215Y44735494D01*
X-39015000Y44724000D01*
X-40290000Y44724000D01*
X-40347785Y44735494D01*
X-40396773Y44768227D01*
X-40429506Y44817215D01*
X-40441000Y44875000D01*
X-40441000Y45075000D01*
X-40429506Y45132785D01*
X-40396773Y45181773D01*
X-40347785Y45214506D01*
X-40290000Y45226000D01*
X-39015000Y45226000D01*
X-38957215Y45214506D01*
G37*
G36*
X-44682215Y45864506D02*
G01*
X-44633227Y45831773D01*
X-44600494Y45782785D01*
X-44589000Y45725000D01*
X-44589000Y45525000D01*
X-44600494Y45467215D01*
X-44633227Y45418227D01*
X-44682215Y45385494D01*
X-44740000Y45374000D01*
X-46015000Y45374000D01*
X-46072785Y45385494D01*
X-46121773Y45418227D01*
X-46154506Y45467215D01*
X-46166000Y45525000D01*
X-46166000Y45725000D01*
X-46154506Y45782785D01*
X-46121773Y45831773D01*
X-46072785Y45864506D01*
X-46015000Y45876000D01*
X-44740000Y45876000D01*
X-44682215Y45864506D01*
G37*
G36*
X-38957215Y45864506D02*
G01*
X-38908227Y45831773D01*
X-38875494Y45782785D01*
X-38864000Y45725000D01*
X-38864000Y45525000D01*
X-38875494Y45467215D01*
X-38908227Y45418227D01*
X-38957215Y45385494D01*
X-39015000Y45374000D01*
X-40290000Y45374000D01*
X-40347785Y45385494D01*
X-40396773Y45418227D01*
X-40429506Y45467215D01*
X-40441000Y45525000D01*
X-40441000Y45725000D01*
X-40429506Y45782785D01*
X-40396773Y45831773D01*
X-40347785Y45864506D01*
X-40290000Y45876000D01*
X-39015000Y45876000D01*
X-38957215Y45864506D01*
G37*
G36*
X-36377087Y47426064D02*
G01*
X-36330820Y47426064D01*
X-36290871Y47417573D01*
X-36249267Y47413475D01*
X-36197002Y47397621D01*
X-36146576Y47386902D01*
X-36114306Y47372535D01*
X-36080288Y47362215D01*
X-36026233Y47333322D01*
X-35974500Y47310289D01*
X-35950449Y47292815D01*
X-35924553Y47278973D01*
X-35871729Y47235622D01*
X-35822113Y47199573D01*
X-35806004Y47181682D01*
X-35788052Y47166949D01*
X-35739812Y47108169D01*
X-35696076Y47059595D01*
X-35686889Y47043681D01*
X-35676028Y47030448D01*
X-35635851Y46955281D01*
X-35601896Y46896470D01*
X-35597991Y46884450D01*
X-35592786Y46874713D01*
X-35564087Y46780104D01*
X-35543689Y46717328D01*
X-35542972Y46710498D01*
X-35541526Y46705734D01*
X-35527464Y46562958D01*
X-35524000Y46530000D01*
X-35527465Y46497041D01*
X-35541526Y46354267D01*
X-35542971Y46349504D01*
X-35543689Y46342672D01*
X-35564091Y46279883D01*
X-35592786Y46185288D01*
X-35597990Y46175553D01*
X-35601896Y46163530D01*
X-35635858Y46104707D01*
X-35676028Y46029553D01*
X-35686887Y46016323D01*
X-35696076Y46000405D01*
X-35739822Y45951822D01*
X-35788052Y45893052D01*
X-35806000Y45878323D01*
X-35822113Y45860427D01*
X-35871740Y45824372D01*
X-35924553Y45781028D01*
X-35950443Y45767190D01*
X-35974500Y45749711D01*
X-36026244Y45726674D01*
X-36080288Y45697786D01*
X-36114299Y45687469D01*
X-36146576Y45673098D01*
X-36197013Y45662378D01*
X-36249267Y45646526D01*
X-36290862Y45642430D01*
X-36330820Y45633936D01*
X-36377097Y45633936D01*
X-36425000Y45629218D01*
X-36472903Y45633936D01*
X-36519180Y45633936D01*
X-36559138Y45642430D01*
X-36600734Y45646526D01*
X-36652991Y45662379D01*
X-36703424Y45673098D01*
X-36735700Y45687468D01*
X-36769713Y45697786D01*
X-36823763Y45726677D01*
X-36875500Y45749711D01*
X-36899555Y45767188D01*
X-36925448Y45781028D01*
X-36978270Y45824378D01*
X-37027887Y45860427D01*
X-37043998Y45878320D01*
X-37061949Y45893052D01*
X-37110191Y45951834D01*
X-37153924Y46000405D01*
X-37163112Y46016319D01*
X-37173973Y46029553D01*
X-37214156Y46104731D01*
X-37248104Y46163530D01*
X-37252009Y46175549D01*
X-37257215Y46185288D01*
X-37285925Y46279929D01*
X-37306311Y46342672D01*
X-37307029Y46349499D01*
X-37308475Y46354267D01*
X-37322552Y46497192D01*
X-37326000Y46530000D01*
X-37322552Y46562806D01*
X-37308475Y46705734D01*
X-37307029Y46710503D01*
X-37306311Y46717328D01*
X-37285929Y46780058D01*
X-37257215Y46874713D01*
X-37252009Y46884455D01*
X-37248104Y46896470D01*
X-37214164Y46955258D01*
X-37173973Y47030448D01*
X-37163110Y47043686D01*
X-37153924Y47059595D01*
X-37110200Y47108157D01*
X-37061949Y47166949D01*
X-37043995Y47181685D01*
X-37027887Y47199573D01*
X-36978280Y47235615D01*
X-36925448Y47278973D01*
X-36899550Y47292817D01*
X-36875500Y47310289D01*
X-36823774Y47333319D01*
X-36769713Y47362215D01*
X-36735693Y47372536D01*
X-36703424Y47386902D01*
X-36653002Y47397620D01*
X-36600734Y47413475D01*
X-36559129Y47417573D01*
X-36519180Y47426064D01*
X-36472914Y47426064D01*
X-36425000Y47430783D01*
X-36377087Y47426064D01*
G37*
G36*
X-44682215Y46514506D02*
G01*
X-44633227Y46481773D01*
X-44600494Y46432785D01*
X-44589000Y46375000D01*
X-44589000Y46175000D01*
X-44600494Y46117215D01*
X-44633227Y46068227D01*
X-44682215Y46035494D01*
X-44740000Y46024000D01*
X-46015000Y46024000D01*
X-46072785Y46035494D01*
X-46121773Y46068227D01*
X-46154506Y46117215D01*
X-46166000Y46175000D01*
X-46166000Y46375000D01*
X-46154506Y46432785D01*
X-46121773Y46481773D01*
X-46072785Y46514506D01*
X-46015000Y46526000D01*
X-44740000Y46526000D01*
X-44682215Y46514506D01*
G37*
G36*
X-38957215Y46514506D02*
G01*
X-38908227Y46481773D01*
X-38875494Y46432785D01*
X-38864000Y46375000D01*
X-38864000Y46175000D01*
X-38875494Y46117215D01*
X-38908227Y46068227D01*
X-38957215Y46035494D01*
X-39015000Y46024000D01*
X-40290000Y46024000D01*
X-40347785Y46035494D01*
X-40396773Y46068227D01*
X-40429506Y46117215D01*
X-40441000Y46175000D01*
X-40441000Y46375000D01*
X-40429506Y46432785D01*
X-40396773Y46481773D01*
X-40347785Y46514506D01*
X-40290000Y46526000D01*
X-39015000Y46526000D01*
X-38957215Y46514506D01*
G37*
G36*
X-44682215Y47164506D02*
G01*
X-44633227Y47131773D01*
X-44600494Y47082785D01*
X-44589000Y47025000D01*
X-44589000Y46825000D01*
X-44600494Y46767215D01*
X-44633227Y46718227D01*
X-44682215Y46685494D01*
X-44740000Y46674000D01*
X-46015000Y46674000D01*
X-46072785Y46685494D01*
X-46121773Y46718227D01*
X-46154506Y46767215D01*
X-46166000Y46825000D01*
X-46166000Y47025000D01*
X-46154506Y47082785D01*
X-46121773Y47131773D01*
X-46072785Y47164506D01*
X-46015000Y47176000D01*
X-44740000Y47176000D01*
X-44682215Y47164506D01*
G37*
G36*
X-38957215Y47164506D02*
G01*
X-38908227Y47131773D01*
X-38875494Y47082785D01*
X-38864000Y47025000D01*
X-38864000Y46825000D01*
X-38875494Y46767215D01*
X-38908227Y46718227D01*
X-38957215Y46685494D01*
X-39015000Y46674000D01*
X-40290000Y46674000D01*
X-40347785Y46685494D01*
X-40396773Y46718227D01*
X-40429506Y46767215D01*
X-40441000Y46825000D01*
X-40441000Y47025000D01*
X-40429506Y47082785D01*
X-40396773Y47131773D01*
X-40347785Y47164506D01*
X-40290000Y47176000D01*
X-39015000Y47176000D01*
X-38957215Y47164506D01*
G37*
G36*
X-32718087Y48994064D02*
G01*
X-32671820Y48994064D01*
X-32631871Y48985573D01*
X-32590267Y48981475D01*
X-32538002Y48965621D01*
X-32487576Y48954902D01*
X-32455306Y48940535D01*
X-32421288Y48930215D01*
X-32367233Y48901322D01*
X-32315500Y48878289D01*
X-32291449Y48860815D01*
X-32265553Y48846973D01*
X-32212729Y48803622D01*
X-32163113Y48767573D01*
X-32147004Y48749682D01*
X-32129052Y48734949D01*
X-32080812Y48676169D01*
X-32037076Y48627595D01*
X-32027889Y48611681D01*
X-32017028Y48598448D01*
X-31976851Y48523281D01*
X-31942896Y48464470D01*
X-31938991Y48452450D01*
X-31933786Y48442713D01*
X-31905087Y48348104D01*
X-31884689Y48285328D01*
X-31883972Y48278498D01*
X-31882526Y48273734D01*
X-31868464Y48130958D01*
X-31865000Y48098000D01*
X-31868465Y48065041D01*
X-31882526Y47922267D01*
X-31883971Y47917504D01*
X-31884689Y47910672D01*
X-31905091Y47847883D01*
X-31933786Y47753288D01*
X-31938990Y47743553D01*
X-31942896Y47731530D01*
X-31976858Y47672707D01*
X-32017028Y47597553D01*
X-32027887Y47584323D01*
X-32037076Y47568405D01*
X-32080822Y47519822D01*
X-32129052Y47461052D01*
X-32147000Y47446323D01*
X-32163113Y47428427D01*
X-32212740Y47392372D01*
X-32265553Y47349028D01*
X-32291443Y47335190D01*
X-32315500Y47317711D01*
X-32367244Y47294674D01*
X-32421288Y47265786D01*
X-32455299Y47255469D01*
X-32487576Y47241098D01*
X-32538013Y47230378D01*
X-32590267Y47214526D01*
X-32631862Y47210430D01*
X-32671820Y47201936D01*
X-32718097Y47201936D01*
X-32766000Y47197218D01*
X-32813903Y47201936D01*
X-32860180Y47201936D01*
X-32900138Y47210430D01*
X-32941734Y47214526D01*
X-32993991Y47230379D01*
X-33044424Y47241098D01*
X-33076700Y47255468D01*
X-33110713Y47265786D01*
X-33164763Y47294677D01*
X-33216500Y47317711D01*
X-33240555Y47335188D01*
X-33266448Y47349028D01*
X-33319270Y47392378D01*
X-33368887Y47428427D01*
X-33384998Y47446320D01*
X-33402949Y47461052D01*
X-33451191Y47519834D01*
X-33494924Y47568405D01*
X-33504112Y47584319D01*
X-33514973Y47597553D01*
X-33555156Y47672731D01*
X-33589104Y47731530D01*
X-33593009Y47743549D01*
X-33598215Y47753288D01*
X-33626925Y47847929D01*
X-33647311Y47910672D01*
X-33648029Y47917499D01*
X-33649475Y47922267D01*
X-33663552Y48065192D01*
X-33667000Y48098000D01*
X-33663552Y48130806D01*
X-33649475Y48273734D01*
X-33648029Y48278503D01*
X-33647311Y48285328D01*
X-33626929Y48348058D01*
X-33598215Y48442713D01*
X-33593009Y48452455D01*
X-33589104Y48464470D01*
X-33555164Y48523258D01*
X-33514973Y48598448D01*
X-33504110Y48611686D01*
X-33494924Y48627595D01*
X-33451200Y48676157D01*
X-33402949Y48734949D01*
X-33384995Y48749685D01*
X-33368887Y48767573D01*
X-33319280Y48803615D01*
X-33266448Y48846973D01*
X-33240550Y48860817D01*
X-33216500Y48878289D01*
X-33164774Y48901319D01*
X-33110713Y48930215D01*
X-33076693Y48940536D01*
X-33044424Y48954902D01*
X-32994002Y48965620D01*
X-32941734Y48981475D01*
X-32900129Y48985573D01*
X-32860180Y48994064D01*
X-32813914Y48994064D01*
X-32766000Y48998783D01*
X-32718087Y48994064D01*
G37*
G36*
X-48157087Y49025064D02*
G01*
X-48110820Y49025064D01*
X-48070871Y49016573D01*
X-48029267Y49012475D01*
X-47977002Y48996621D01*
X-47926576Y48985902D01*
X-47894306Y48971535D01*
X-47860288Y48961215D01*
X-47806233Y48932322D01*
X-47754500Y48909289D01*
X-47730449Y48891815D01*
X-47704553Y48877973D01*
X-47651729Y48834622D01*
X-47602113Y48798573D01*
X-47586004Y48780682D01*
X-47568052Y48765949D01*
X-47519812Y48707169D01*
X-47476076Y48658595D01*
X-47466889Y48642681D01*
X-47456028Y48629448D01*
X-47415851Y48554281D01*
X-47381896Y48495470D01*
X-47377991Y48483450D01*
X-47372786Y48473713D01*
X-47344087Y48379104D01*
X-47323689Y48316328D01*
X-47322972Y48309498D01*
X-47321526Y48304734D01*
X-47307464Y48161958D01*
X-47304000Y48129000D01*
X-47307465Y48096041D01*
X-47321526Y47953267D01*
X-47322971Y47948504D01*
X-47323689Y47941672D01*
X-47344091Y47878883D01*
X-47372786Y47784288D01*
X-47377990Y47774553D01*
X-47381896Y47762530D01*
X-47415858Y47703707D01*
X-47456028Y47628553D01*
X-47466887Y47615323D01*
X-47476076Y47599405D01*
X-47519822Y47550822D01*
X-47568052Y47492052D01*
X-47586000Y47477323D01*
X-47602113Y47459427D01*
X-47651740Y47423372D01*
X-47704553Y47380028D01*
X-47730443Y47366190D01*
X-47754500Y47348711D01*
X-47806244Y47325674D01*
X-47860288Y47296786D01*
X-47894299Y47286469D01*
X-47926576Y47272098D01*
X-47977013Y47261378D01*
X-48029267Y47245526D01*
X-48070862Y47241430D01*
X-48110820Y47232936D01*
X-48157097Y47232936D01*
X-48205000Y47228218D01*
X-48252903Y47232936D01*
X-48299180Y47232936D01*
X-48339138Y47241430D01*
X-48380734Y47245526D01*
X-48432991Y47261379D01*
X-48483424Y47272098D01*
X-48515700Y47286468D01*
X-48549713Y47296786D01*
X-48603763Y47325677D01*
X-48655500Y47348711D01*
X-48679555Y47366188D01*
X-48705448Y47380028D01*
X-48758270Y47423378D01*
X-48807887Y47459427D01*
X-48823998Y47477320D01*
X-48841949Y47492052D01*
X-48890191Y47550834D01*
X-48933924Y47599405D01*
X-48943112Y47615319D01*
X-48953973Y47628553D01*
X-48994156Y47703731D01*
X-49028104Y47762530D01*
X-49032009Y47774549D01*
X-49037215Y47784288D01*
X-49065925Y47878929D01*
X-49086311Y47941672D01*
X-49087029Y47948499D01*
X-49088475Y47953267D01*
X-49102552Y48096192D01*
X-49106000Y48129000D01*
X-49102552Y48161806D01*
X-49088475Y48304734D01*
X-49087029Y48309503D01*
X-49086311Y48316328D01*
X-49065929Y48379058D01*
X-49037215Y48473713D01*
X-49032009Y48483455D01*
X-49028104Y48495470D01*
X-48994164Y48554258D01*
X-48953973Y48629448D01*
X-48943110Y48642686D01*
X-48933924Y48658595D01*
X-48890200Y48707157D01*
X-48841949Y48765949D01*
X-48823995Y48780685D01*
X-48807887Y48798573D01*
X-48758280Y48834615D01*
X-48705448Y48877973D01*
X-48679550Y48891817D01*
X-48655500Y48909289D01*
X-48603774Y48932319D01*
X-48549713Y48961215D01*
X-48515693Y48971536D01*
X-48483424Y48985902D01*
X-48433002Y48996620D01*
X-48380734Y49012475D01*
X-48339129Y49016573D01*
X-48299180Y49025064D01*
X-48252914Y49025064D01*
X-48205000Y49029783D01*
X-48157087Y49025064D01*
G37*
G36*
X-44682215Y47814506D02*
G01*
X-44633227Y47781773D01*
X-44600494Y47732785D01*
X-44589000Y47675000D01*
X-44589000Y47475000D01*
X-44600494Y47417215D01*
X-44633227Y47368227D01*
X-44682215Y47335494D01*
X-44740000Y47324000D01*
X-46015000Y47324000D01*
X-46072785Y47335494D01*
X-46121773Y47368227D01*
X-46154506Y47417215D01*
X-46166000Y47475000D01*
X-46166000Y47675000D01*
X-46154506Y47732785D01*
X-46121773Y47781773D01*
X-46072785Y47814506D01*
X-46015000Y47826000D01*
X-44740000Y47826000D01*
X-44682215Y47814506D01*
G37*
G36*
X-38957215Y47814506D02*
G01*
X-38908227Y47781773D01*
X-38875494Y47732785D01*
X-38864000Y47675000D01*
X-38864000Y47475000D01*
X-38875494Y47417215D01*
X-38908227Y47368227D01*
X-38957215Y47335494D01*
X-39015000Y47324000D01*
X-40290000Y47324000D01*
X-40347785Y47335494D01*
X-40396773Y47368227D01*
X-40429506Y47417215D01*
X-40441000Y47475000D01*
X-40441000Y47675000D01*
X-40429506Y47732785D01*
X-40396773Y47781773D01*
X-40347785Y47814506D01*
X-40290000Y47826000D01*
X-39015000Y47826000D01*
X-38957215Y47814506D01*
G37*
G36*
X-44682215Y48464506D02*
G01*
X-44633227Y48431773D01*
X-44600494Y48382785D01*
X-44589000Y48325000D01*
X-44589000Y48125000D01*
X-44600494Y48067215D01*
X-44633227Y48018227D01*
X-44682215Y47985494D01*
X-44740000Y47974000D01*
X-46015000Y47974000D01*
X-46072785Y47985494D01*
X-46121773Y48018227D01*
X-46154506Y48067215D01*
X-46166000Y48125000D01*
X-46166000Y48325000D01*
X-46154506Y48382785D01*
X-46121773Y48431773D01*
X-46072785Y48464506D01*
X-46015000Y48476000D01*
X-44740000Y48476000D01*
X-44682215Y48464506D01*
G37*
G36*
X-38957215Y48464506D02*
G01*
X-38908227Y48431773D01*
X-38875494Y48382785D01*
X-38864000Y48325000D01*
X-38864000Y48125000D01*
X-38875494Y48067215D01*
X-38908227Y48018227D01*
X-38957215Y47985494D01*
X-39015000Y47974000D01*
X-40290000Y47974000D01*
X-40347785Y47985494D01*
X-40396773Y48018227D01*
X-40429506Y48067215D01*
X-40441000Y48125000D01*
X-40441000Y48325000D01*
X-40429506Y48382785D01*
X-40396773Y48431773D01*
X-40347785Y48464506D01*
X-40290000Y48476000D01*
X-39015000Y48476000D01*
X-38957215Y48464506D01*
G37*
G36*
X-36377087Y49966064D02*
G01*
X-36330820Y49966064D01*
X-36290871Y49957573D01*
X-36249267Y49953475D01*
X-36197002Y49937621D01*
X-36146576Y49926902D01*
X-36114306Y49912535D01*
X-36080288Y49902215D01*
X-36026233Y49873322D01*
X-35974500Y49850289D01*
X-35950449Y49832815D01*
X-35924553Y49818973D01*
X-35871729Y49775622D01*
X-35822113Y49739573D01*
X-35806004Y49721682D01*
X-35788052Y49706949D01*
X-35739812Y49648169D01*
X-35696076Y49599595D01*
X-35686889Y49583681D01*
X-35676028Y49570448D01*
X-35635851Y49495281D01*
X-35601896Y49436470D01*
X-35597991Y49424450D01*
X-35592786Y49414713D01*
X-35564087Y49320104D01*
X-35543689Y49257328D01*
X-35542972Y49250498D01*
X-35541526Y49245734D01*
X-35527464Y49102958D01*
X-35524000Y49070000D01*
X-35527465Y49037041D01*
X-35541526Y48894267D01*
X-35542971Y48889504D01*
X-35543689Y48882672D01*
X-35564091Y48819883D01*
X-35592786Y48725288D01*
X-35597990Y48715553D01*
X-35601896Y48703530D01*
X-35635858Y48644707D01*
X-35676028Y48569553D01*
X-35686887Y48556323D01*
X-35696076Y48540405D01*
X-35739822Y48491822D01*
X-35788052Y48433052D01*
X-35806000Y48418323D01*
X-35822113Y48400427D01*
X-35871740Y48364372D01*
X-35924553Y48321028D01*
X-35950443Y48307190D01*
X-35974500Y48289711D01*
X-36026244Y48266674D01*
X-36080288Y48237786D01*
X-36114299Y48227469D01*
X-36146576Y48213098D01*
X-36197013Y48202378D01*
X-36249267Y48186526D01*
X-36290862Y48182430D01*
X-36330820Y48173936D01*
X-36377097Y48173936D01*
X-36425000Y48169218D01*
X-36472903Y48173936D01*
X-36519180Y48173936D01*
X-36559138Y48182430D01*
X-36600734Y48186526D01*
X-36652991Y48202379D01*
X-36703424Y48213098D01*
X-36735700Y48227468D01*
X-36769713Y48237786D01*
X-36823763Y48266677D01*
X-36875500Y48289711D01*
X-36899555Y48307188D01*
X-36925448Y48321028D01*
X-36978270Y48364378D01*
X-37027887Y48400427D01*
X-37043998Y48418320D01*
X-37061949Y48433052D01*
X-37110191Y48491834D01*
X-37153924Y48540405D01*
X-37163112Y48556319D01*
X-37173973Y48569553D01*
X-37214156Y48644731D01*
X-37248104Y48703530D01*
X-37252009Y48715549D01*
X-37257215Y48725288D01*
X-37285925Y48819929D01*
X-37306311Y48882672D01*
X-37307029Y48889499D01*
X-37308475Y48894267D01*
X-37322552Y49037192D01*
X-37326000Y49070000D01*
X-37322552Y49102806D01*
X-37308475Y49245734D01*
X-37307029Y49250503D01*
X-37306311Y49257328D01*
X-37285929Y49320058D01*
X-37257215Y49414713D01*
X-37252009Y49424455D01*
X-37248104Y49436470D01*
X-37214164Y49495258D01*
X-37173973Y49570448D01*
X-37163110Y49583686D01*
X-37153924Y49599595D01*
X-37110200Y49648157D01*
X-37061949Y49706949D01*
X-37043995Y49721685D01*
X-37027887Y49739573D01*
X-36978280Y49775615D01*
X-36925448Y49818973D01*
X-36899550Y49832817D01*
X-36875500Y49850289D01*
X-36823774Y49873319D01*
X-36769713Y49902215D01*
X-36735693Y49912536D01*
X-36703424Y49926902D01*
X-36653002Y49937620D01*
X-36600734Y49953475D01*
X-36559129Y49957573D01*
X-36519180Y49966064D01*
X-36472914Y49966064D01*
X-36425000Y49970783D01*
X-36377087Y49966064D01*
G37*
G36*
X-44682215Y49114506D02*
G01*
X-44633227Y49081773D01*
X-44600494Y49032785D01*
X-44589000Y48975000D01*
X-44589000Y48775000D01*
X-44600494Y48717215D01*
X-44633227Y48668227D01*
X-44682215Y48635494D01*
X-44740000Y48624000D01*
X-46015000Y48624000D01*
X-46072785Y48635494D01*
X-46121773Y48668227D01*
X-46154506Y48717215D01*
X-46166000Y48775000D01*
X-46166000Y48975000D01*
X-46154506Y49032785D01*
X-46121773Y49081773D01*
X-46072785Y49114506D01*
X-46015000Y49126000D01*
X-44740000Y49126000D01*
X-44682215Y49114506D01*
G37*
G36*
X-38957215Y49114506D02*
G01*
X-38908227Y49081773D01*
X-38875494Y49032785D01*
X-38864000Y48975000D01*
X-38864000Y48775000D01*
X-38875494Y48717215D01*
X-38908227Y48668227D01*
X-38957215Y48635494D01*
X-39015000Y48624000D01*
X-40290000Y48624000D01*
X-40347785Y48635494D01*
X-40396773Y48668227D01*
X-40429506Y48717215D01*
X-40441000Y48775000D01*
X-40441000Y48975000D01*
X-40429506Y49032785D01*
X-40396773Y49081773D01*
X-40347785Y49114506D01*
X-40290000Y49126000D01*
X-39015000Y49126000D01*
X-38957215Y49114506D01*
G37*
G36*
X-44682215Y49764506D02*
G01*
X-44633227Y49731773D01*
X-44600494Y49682785D01*
X-44589000Y49625000D01*
X-44589000Y49425000D01*
X-44600494Y49367215D01*
X-44633227Y49318227D01*
X-44682215Y49285494D01*
X-44740000Y49274000D01*
X-46015000Y49274000D01*
X-46072785Y49285494D01*
X-46121773Y49318227D01*
X-46154506Y49367215D01*
X-46166000Y49425000D01*
X-46166000Y49625000D01*
X-46154506Y49682785D01*
X-46121773Y49731773D01*
X-46072785Y49764506D01*
X-46015000Y49776000D01*
X-44740000Y49776000D01*
X-44682215Y49764506D01*
G37*
G36*
X-38957215Y49764506D02*
G01*
X-38908227Y49731773D01*
X-38875494Y49682785D01*
X-38864000Y49625000D01*
X-38864000Y49425000D01*
X-38875494Y49367215D01*
X-38908227Y49318227D01*
X-38957215Y49285494D01*
X-39015000Y49274000D01*
X-40290000Y49274000D01*
X-40347785Y49285494D01*
X-40396773Y49318227D01*
X-40429506Y49367215D01*
X-40441000Y49425000D01*
X-40441000Y49625000D01*
X-40429506Y49682785D01*
X-40396773Y49731773D01*
X-40347785Y49764506D01*
X-40290000Y49776000D01*
X-39015000Y49776000D01*
X-38957215Y49764506D01*
G37*
G36*
X-32718087Y51534064D02*
G01*
X-32671820Y51534064D01*
X-32631871Y51525573D01*
X-32590267Y51521475D01*
X-32538002Y51505621D01*
X-32487576Y51494902D01*
X-32455306Y51480535D01*
X-32421288Y51470215D01*
X-32367233Y51441322D01*
X-32315500Y51418289D01*
X-32291449Y51400815D01*
X-32265553Y51386973D01*
X-32212729Y51343622D01*
X-32163113Y51307573D01*
X-32147004Y51289682D01*
X-32129052Y51274949D01*
X-32080812Y51216169D01*
X-32037076Y51167595D01*
X-32027889Y51151681D01*
X-32017028Y51138448D01*
X-31976851Y51063281D01*
X-31942896Y51004470D01*
X-31938991Y50992450D01*
X-31933786Y50982713D01*
X-31905087Y50888104D01*
X-31884689Y50825328D01*
X-31883972Y50818498D01*
X-31882526Y50813734D01*
X-31868464Y50670958D01*
X-31865000Y50638000D01*
X-31868465Y50605041D01*
X-31882526Y50462267D01*
X-31883971Y50457504D01*
X-31884689Y50450672D01*
X-31905091Y50387883D01*
X-31933786Y50293288D01*
X-31938990Y50283553D01*
X-31942896Y50271530D01*
X-31976858Y50212707D01*
X-32017028Y50137553D01*
X-32027887Y50124323D01*
X-32037076Y50108405D01*
X-32080822Y50059822D01*
X-32129052Y50001052D01*
X-32147000Y49986323D01*
X-32163113Y49968427D01*
X-32212740Y49932372D01*
X-32265553Y49889028D01*
X-32291443Y49875190D01*
X-32315500Y49857711D01*
X-32367244Y49834674D01*
X-32421288Y49805786D01*
X-32455299Y49795469D01*
X-32487576Y49781098D01*
X-32538013Y49770378D01*
X-32590267Y49754526D01*
X-32631862Y49750430D01*
X-32671820Y49741936D01*
X-32718097Y49741936D01*
X-32766000Y49737218D01*
X-32813903Y49741936D01*
X-32860180Y49741936D01*
X-32900138Y49750430D01*
X-32941734Y49754526D01*
X-32993991Y49770379D01*
X-33044424Y49781098D01*
X-33076700Y49795468D01*
X-33110713Y49805786D01*
X-33164763Y49834677D01*
X-33216500Y49857711D01*
X-33240555Y49875188D01*
X-33266448Y49889028D01*
X-33319270Y49932378D01*
X-33368887Y49968427D01*
X-33384998Y49986320D01*
X-33402949Y50001052D01*
X-33451191Y50059834D01*
X-33494924Y50108405D01*
X-33504112Y50124319D01*
X-33514973Y50137553D01*
X-33555156Y50212731D01*
X-33589104Y50271530D01*
X-33593009Y50283549D01*
X-33598215Y50293288D01*
X-33626925Y50387929D01*
X-33647311Y50450672D01*
X-33648029Y50457499D01*
X-33649475Y50462267D01*
X-33663552Y50605192D01*
X-33667000Y50638000D01*
X-33663552Y50670806D01*
X-33649475Y50813734D01*
X-33648029Y50818503D01*
X-33647311Y50825328D01*
X-33626929Y50888058D01*
X-33598215Y50982713D01*
X-33593009Y50992455D01*
X-33589104Y51004470D01*
X-33555164Y51063258D01*
X-33514973Y51138448D01*
X-33504110Y51151686D01*
X-33494924Y51167595D01*
X-33451200Y51216157D01*
X-33402949Y51274949D01*
X-33384995Y51289685D01*
X-33368887Y51307573D01*
X-33319280Y51343615D01*
X-33266448Y51386973D01*
X-33240550Y51400817D01*
X-33216500Y51418289D01*
X-33164774Y51441319D01*
X-33110713Y51470215D01*
X-33076693Y51480536D01*
X-33044424Y51494902D01*
X-32994002Y51505620D01*
X-32941734Y51521475D01*
X-32900129Y51525573D01*
X-32860180Y51534064D01*
X-32813914Y51534064D01*
X-32766000Y51538783D01*
X-32718087Y51534064D01*
G37*
G36*
X-48157087Y51565064D02*
G01*
X-48110820Y51565064D01*
X-48070871Y51556573D01*
X-48029267Y51552475D01*
X-47977002Y51536621D01*
X-47926576Y51525902D01*
X-47894306Y51511535D01*
X-47860288Y51501215D01*
X-47806233Y51472322D01*
X-47754500Y51449289D01*
X-47730449Y51431815D01*
X-47704553Y51417973D01*
X-47651729Y51374622D01*
X-47602113Y51338573D01*
X-47586004Y51320682D01*
X-47568052Y51305949D01*
X-47519812Y51247169D01*
X-47476076Y51198595D01*
X-47466889Y51182681D01*
X-47456028Y51169448D01*
X-47415851Y51094281D01*
X-47381896Y51035470D01*
X-47377991Y51023450D01*
X-47372786Y51013713D01*
X-47344087Y50919104D01*
X-47323689Y50856328D01*
X-47322972Y50849498D01*
X-47321526Y50844734D01*
X-47307464Y50701958D01*
X-47304000Y50669000D01*
X-47307465Y50636041D01*
X-47321526Y50493267D01*
X-47322971Y50488504D01*
X-47323689Y50481672D01*
X-47344091Y50418883D01*
X-47372786Y50324288D01*
X-47377990Y50314553D01*
X-47381896Y50302530D01*
X-47415858Y50243707D01*
X-47456028Y50168553D01*
X-47466887Y50155323D01*
X-47476076Y50139405D01*
X-47519822Y50090822D01*
X-47568052Y50032052D01*
X-47586000Y50017323D01*
X-47602113Y49999427D01*
X-47651740Y49963372D01*
X-47704553Y49920028D01*
X-47730443Y49906190D01*
X-47754500Y49888711D01*
X-47806244Y49865674D01*
X-47860288Y49836786D01*
X-47894299Y49826469D01*
X-47926576Y49812098D01*
X-47977013Y49801378D01*
X-48029267Y49785526D01*
X-48070862Y49781430D01*
X-48110820Y49772936D01*
X-48157097Y49772936D01*
X-48205000Y49768218D01*
X-48252903Y49772936D01*
X-48299180Y49772936D01*
X-48339138Y49781430D01*
X-48380734Y49785526D01*
X-48432991Y49801379D01*
X-48483424Y49812098D01*
X-48515700Y49826468D01*
X-48549713Y49836786D01*
X-48603763Y49865677D01*
X-48655500Y49888711D01*
X-48679555Y49906188D01*
X-48705448Y49920028D01*
X-48758270Y49963378D01*
X-48807887Y49999427D01*
X-48823998Y50017320D01*
X-48841949Y50032052D01*
X-48890191Y50090834D01*
X-48933924Y50139405D01*
X-48943112Y50155319D01*
X-48953973Y50168553D01*
X-48994156Y50243731D01*
X-49028104Y50302530D01*
X-49032009Y50314549D01*
X-49037215Y50324288D01*
X-49065925Y50418929D01*
X-49086311Y50481672D01*
X-49087029Y50488499D01*
X-49088475Y50493267D01*
X-49102552Y50636192D01*
X-49106000Y50669000D01*
X-49102552Y50701806D01*
X-49088475Y50844734D01*
X-49087029Y50849503D01*
X-49086311Y50856328D01*
X-49065929Y50919058D01*
X-49037215Y51013713D01*
X-49032009Y51023455D01*
X-49028104Y51035470D01*
X-48994164Y51094258D01*
X-48953973Y51169448D01*
X-48943110Y51182686D01*
X-48933924Y51198595D01*
X-48890200Y51247157D01*
X-48841949Y51305949D01*
X-48823995Y51320685D01*
X-48807887Y51338573D01*
X-48758280Y51374615D01*
X-48705448Y51417973D01*
X-48679550Y51431817D01*
X-48655500Y51449289D01*
X-48603774Y51472319D01*
X-48549713Y51501215D01*
X-48515693Y51511536D01*
X-48483424Y51525902D01*
X-48433002Y51536620D01*
X-48380734Y51552475D01*
X-48339129Y51556573D01*
X-48299180Y51565064D01*
X-48252914Y51565064D01*
X-48205000Y51569783D01*
X-48157087Y51565064D01*
G37*
G36*
X-44682215Y50414506D02*
G01*
X-44633227Y50381773D01*
X-44600494Y50332785D01*
X-44589000Y50275000D01*
X-44589000Y50075000D01*
X-44600494Y50017215D01*
X-44633227Y49968227D01*
X-44682215Y49935494D01*
X-44740000Y49924000D01*
X-46015000Y49924000D01*
X-46072785Y49935494D01*
X-46121773Y49968227D01*
X-46154506Y50017215D01*
X-46166000Y50075000D01*
X-46166000Y50275000D01*
X-46154506Y50332785D01*
X-46121773Y50381773D01*
X-46072785Y50414506D01*
X-46015000Y50426000D01*
X-44740000Y50426000D01*
X-44682215Y50414506D01*
G37*
G36*
X-38957215Y50414506D02*
G01*
X-38908227Y50381773D01*
X-38875494Y50332785D01*
X-38864000Y50275000D01*
X-38864000Y50075000D01*
X-38875494Y50017215D01*
X-38908227Y49968227D01*
X-38957215Y49935494D01*
X-39015000Y49924000D01*
X-40290000Y49924000D01*
X-40347785Y49935494D01*
X-40396773Y49968227D01*
X-40429506Y50017215D01*
X-40441000Y50075000D01*
X-40441000Y50275000D01*
X-40429506Y50332785D01*
X-40396773Y50381773D01*
X-40347785Y50414506D01*
X-40290000Y50426000D01*
X-39015000Y50426000D01*
X-38957215Y50414506D01*
G37*
G36*
X-44682215Y51064506D02*
G01*
X-44633227Y51031773D01*
X-44600494Y50982785D01*
X-44589000Y50925000D01*
X-44589000Y50725000D01*
X-44600494Y50667215D01*
X-44633227Y50618227D01*
X-44682215Y50585494D01*
X-44740000Y50574000D01*
X-46015000Y50574000D01*
X-46072785Y50585494D01*
X-46121773Y50618227D01*
X-46154506Y50667215D01*
X-46166000Y50725000D01*
X-46166000Y50925000D01*
X-46154506Y50982785D01*
X-46121773Y51031773D01*
X-46072785Y51064506D01*
X-46015000Y51076000D01*
X-44740000Y51076000D01*
X-44682215Y51064506D01*
G37*
G36*
X-38957215Y51064506D02*
G01*
X-38908227Y51031773D01*
X-38875494Y50982785D01*
X-38864000Y50925000D01*
X-38864000Y50725000D01*
X-38875494Y50667215D01*
X-38908227Y50618227D01*
X-38957215Y50585494D01*
X-39015000Y50574000D01*
X-40290000Y50574000D01*
X-40347785Y50585494D01*
X-40396773Y50618227D01*
X-40429506Y50667215D01*
X-40441000Y50725000D01*
X-40441000Y50925000D01*
X-40429506Y50982785D01*
X-40396773Y51031773D01*
X-40347785Y51064506D01*
X-40290000Y51076000D01*
X-39015000Y51076000D01*
X-38957215Y51064506D01*
G37*
G36*
X-42869225Y53046290D02*
G01*
X-42832595Y53046290D01*
X-42790594Y53035938D01*
X-42749450Y53030521D01*
X-42721288Y53018856D01*
X-42692003Y53011638D01*
X-42647602Y52988335D01*
X-42604500Y52970481D01*
X-42584836Y52955392D01*
X-42563780Y52944341D01*
X-42520729Y52906202D01*
X-42480029Y52874971D01*
X-42468463Y52859898D01*
X-42455391Y52848317D01*
X-42417906Y52794011D01*
X-42384519Y52750500D01*
X-42379487Y52738352D01*
X-42373135Y52729149D01*
X-42345588Y52656511D01*
X-42324479Y52605550D01*
X-42323532Y52598353D01*
X-42321786Y52593750D01*
X-42308261Y52482358D01*
X-42304000Y52450000D01*
X-42308261Y52417640D01*
X-42321786Y52306251D01*
X-42323532Y52301650D01*
X-42324479Y52294450D01*
X-42345592Y52243480D01*
X-42373135Y52170852D01*
X-42379486Y52161652D01*
X-42384519Y52149500D01*
X-42417913Y52105981D01*
X-42455391Y52051684D01*
X-42468461Y52040106D01*
X-42480029Y52025029D01*
X-42520738Y51993793D01*
X-42563780Y51955660D01*
X-42584832Y51944612D01*
X-42604500Y51929519D01*
X-42647611Y51911663D01*
X-42692003Y51888363D01*
X-42721284Y51881147D01*
X-42749450Y51869479D01*
X-42790596Y51864062D01*
X-42832595Y51853710D01*
X-42869225Y51853710D01*
X-42905000Y51849000D01*
X-42940775Y51853710D01*
X-42977405Y51853710D01*
X-43019405Y51864063D01*
X-43060550Y51869479D01*
X-43088716Y51881146D01*
X-43117998Y51888363D01*
X-43162395Y51911665D01*
X-43205500Y51929519D01*
X-43225167Y51944610D01*
X-43246221Y51955660D01*
X-43289271Y51993799D01*
X-43329971Y52025029D01*
X-43341538Y52040103D01*
X-43354610Y52051684D01*
X-43392098Y52105994D01*
X-43425481Y52149500D01*
X-43430513Y52161648D01*
X-43436866Y52170852D01*
X-43464421Y52243508D01*
X-43485521Y52294450D01*
X-43486469Y52301646D01*
X-43488215Y52306251D01*
X-43501753Y52417738D01*
X-43506000Y52450000D01*
X-43501753Y52482261D01*
X-43488215Y52593750D01*
X-43486469Y52598357D01*
X-43485521Y52605550D01*
X-43464425Y52656482D01*
X-43436866Y52729149D01*
X-43430512Y52738355D01*
X-43425481Y52750500D01*
X-43392105Y52793998D01*
X-43354610Y52848317D01*
X-43341536Y52859901D01*
X-43329971Y52874971D01*
X-43289279Y52906196D01*
X-43246221Y52944341D01*
X-43225163Y52955394D01*
X-43205500Y52970481D01*
X-43162404Y52988333D01*
X-43117998Y53011638D01*
X-43088712Y53018857D01*
X-43060550Y53030521D01*
X-43019408Y53035938D01*
X-42977405Y53046290D01*
X-42940775Y53046290D01*
X-42905000Y53051000D01*
X-42869225Y53046290D01*
G37*
G36*
X-38069225Y53046290D02*
G01*
X-38032595Y53046290D01*
X-37990594Y53035938D01*
X-37949450Y53030521D01*
X-37921288Y53018856D01*
X-37892003Y53011638D01*
X-37847602Y52988335D01*
X-37804500Y52970481D01*
X-37784836Y52955392D01*
X-37763780Y52944341D01*
X-37720729Y52906202D01*
X-37680029Y52874971D01*
X-37668463Y52859898D01*
X-37655391Y52848317D01*
X-37617906Y52794011D01*
X-37584519Y52750500D01*
X-37579487Y52738352D01*
X-37573135Y52729149D01*
X-37545588Y52656511D01*
X-37524479Y52605550D01*
X-37523532Y52598353D01*
X-37521786Y52593750D01*
X-37508261Y52482358D01*
X-37504000Y52450000D01*
X-37508261Y52417640D01*
X-37521786Y52306251D01*
X-37523532Y52301650D01*
X-37524479Y52294450D01*
X-37545592Y52243480D01*
X-37573135Y52170852D01*
X-37579486Y52161652D01*
X-37584519Y52149500D01*
X-37617913Y52105981D01*
X-37655391Y52051684D01*
X-37668461Y52040106D01*
X-37680029Y52025029D01*
X-37720738Y51993793D01*
X-37763780Y51955660D01*
X-37784832Y51944612D01*
X-37804500Y51929519D01*
X-37847611Y51911663D01*
X-37892003Y51888363D01*
X-37921284Y51881147D01*
X-37949450Y51869479D01*
X-37990596Y51864062D01*
X-38032595Y51853710D01*
X-38069225Y51853710D01*
X-38105000Y51849000D01*
X-38140775Y51853710D01*
X-38177405Y51853710D01*
X-38219405Y51864063D01*
X-38260550Y51869479D01*
X-38288716Y51881146D01*
X-38317998Y51888363D01*
X-38362395Y51911665D01*
X-38405500Y51929519D01*
X-38425167Y51944610D01*
X-38446221Y51955660D01*
X-38489271Y51993799D01*
X-38529971Y52025029D01*
X-38541538Y52040103D01*
X-38554610Y52051684D01*
X-38592098Y52105994D01*
X-38625481Y52149500D01*
X-38630513Y52161648D01*
X-38636866Y52170852D01*
X-38664421Y52243508D01*
X-38685521Y52294450D01*
X-38686469Y52301646D01*
X-38688215Y52306251D01*
X-38701753Y52417738D01*
X-38706000Y52450000D01*
X-38701753Y52482261D01*
X-38688215Y52593750D01*
X-38686469Y52598357D01*
X-38685521Y52605550D01*
X-38664425Y52656482D01*
X-38636866Y52729149D01*
X-38630512Y52738355D01*
X-38625481Y52750500D01*
X-38592105Y52793998D01*
X-38554610Y52848317D01*
X-38541536Y52859901D01*
X-38529971Y52874971D01*
X-38489279Y52906196D01*
X-38446221Y52944341D01*
X-38425163Y52955394D01*
X-38405500Y52970481D01*
X-38362404Y52988333D01*
X-38317998Y53011638D01*
X-38288712Y53018857D01*
X-38260550Y53030521D01*
X-38219408Y53035938D01*
X-38177405Y53046290D01*
X-38140775Y53046290D01*
X-38105000Y53051000D01*
X-38069225Y53046290D01*
G37*
G36*
X-44361907Y52516461D02*
G01*
X-44299943Y52475057D01*
X-44258539Y52413093D01*
X-44244000Y52340000D01*
X-44244000Y52060000D01*
X-44258539Y51986907D01*
X-44299943Y51924943D01*
X-44361907Y51883539D01*
X-44435000Y51869000D01*
X-44775000Y51869000D01*
X-44848093Y51883539D01*
X-44910057Y51924943D01*
X-44951461Y51986907D01*
X-44966000Y52060000D01*
X-44966000Y52340000D01*
X-44951461Y52413093D01*
X-44910057Y52475057D01*
X-44848093Y52516461D01*
X-44775000Y52531000D01*
X-44435000Y52531000D01*
X-44361907Y52516461D01*
G37*
G36*
X-32718087Y54074064D02*
G01*
X-32671820Y54074064D01*
X-32631871Y54065573D01*
X-32590267Y54061475D01*
X-32538002Y54045621D01*
X-32487576Y54034902D01*
X-32455306Y54020535D01*
X-32421288Y54010215D01*
X-32367233Y53981322D01*
X-32315500Y53958289D01*
X-32291449Y53940815D01*
X-32265553Y53926973D01*
X-32212729Y53883622D01*
X-32163113Y53847573D01*
X-32147004Y53829682D01*
X-32129052Y53814949D01*
X-32080812Y53756169D01*
X-32037076Y53707595D01*
X-32027889Y53691681D01*
X-32017028Y53678448D01*
X-31976851Y53603281D01*
X-31942896Y53544470D01*
X-31938991Y53532450D01*
X-31933786Y53522713D01*
X-31905087Y53428104D01*
X-31884689Y53365328D01*
X-31883972Y53358498D01*
X-31882526Y53353734D01*
X-31868464Y53210958D01*
X-31865000Y53178000D01*
X-31868465Y53145041D01*
X-31882526Y53002267D01*
X-31883971Y52997504D01*
X-31884689Y52990672D01*
X-31905091Y52927883D01*
X-31933786Y52833288D01*
X-31938990Y52823553D01*
X-31942896Y52811530D01*
X-31976858Y52752707D01*
X-32017028Y52677553D01*
X-32027887Y52664323D01*
X-32037076Y52648405D01*
X-32080822Y52599822D01*
X-32129052Y52541052D01*
X-32147000Y52526323D01*
X-32163113Y52508427D01*
X-32212740Y52472372D01*
X-32265553Y52429028D01*
X-32291443Y52415190D01*
X-32315500Y52397711D01*
X-32367244Y52374674D01*
X-32421288Y52345786D01*
X-32455299Y52335469D01*
X-32487576Y52321098D01*
X-32538013Y52310378D01*
X-32590267Y52294526D01*
X-32631862Y52290430D01*
X-32671820Y52281936D01*
X-32718097Y52281936D01*
X-32766000Y52277218D01*
X-32813903Y52281936D01*
X-32860180Y52281936D01*
X-32900138Y52290430D01*
X-32941734Y52294526D01*
X-32993991Y52310379D01*
X-33044424Y52321098D01*
X-33076700Y52335468D01*
X-33110713Y52345786D01*
X-33164763Y52374677D01*
X-33216500Y52397711D01*
X-33240555Y52415188D01*
X-33266448Y52429028D01*
X-33319270Y52472378D01*
X-33368887Y52508427D01*
X-33384998Y52526320D01*
X-33402949Y52541052D01*
X-33451191Y52599834D01*
X-33494924Y52648405D01*
X-33504112Y52664319D01*
X-33514973Y52677553D01*
X-33555156Y52752731D01*
X-33589104Y52811530D01*
X-33593009Y52823549D01*
X-33598215Y52833288D01*
X-33626925Y52927929D01*
X-33647311Y52990672D01*
X-33648029Y52997499D01*
X-33649475Y53002267D01*
X-33663552Y53145192D01*
X-33667000Y53178000D01*
X-33663552Y53210806D01*
X-33649475Y53353734D01*
X-33648029Y53358503D01*
X-33647311Y53365328D01*
X-33626929Y53428058D01*
X-33598215Y53522713D01*
X-33593009Y53532455D01*
X-33589104Y53544470D01*
X-33555164Y53603258D01*
X-33514973Y53678448D01*
X-33504110Y53691686D01*
X-33494924Y53707595D01*
X-33451200Y53756157D01*
X-33402949Y53814949D01*
X-33384995Y53829685D01*
X-33368887Y53847573D01*
X-33319280Y53883615D01*
X-33266448Y53926973D01*
X-33240550Y53940817D01*
X-33216500Y53958289D01*
X-33164774Y53981319D01*
X-33110713Y54010215D01*
X-33076693Y54020536D01*
X-33044424Y54034902D01*
X-32994002Y54045620D01*
X-32941734Y54061475D01*
X-32900129Y54065573D01*
X-32860180Y54074064D01*
X-32813914Y54074064D01*
X-32766000Y54078783D01*
X-32718087Y54074064D01*
G37*
G36*
X-48157087Y54105064D02*
G01*
X-48110820Y54105064D01*
X-48070871Y54096573D01*
X-48029267Y54092475D01*
X-47977002Y54076621D01*
X-47926576Y54065902D01*
X-47894306Y54051535D01*
X-47860288Y54041215D01*
X-47806233Y54012322D01*
X-47754500Y53989289D01*
X-47730449Y53971815D01*
X-47704553Y53957973D01*
X-47651729Y53914622D01*
X-47602113Y53878573D01*
X-47586004Y53860682D01*
X-47568052Y53845949D01*
X-47519812Y53787169D01*
X-47476076Y53738595D01*
X-47466889Y53722681D01*
X-47456028Y53709448D01*
X-47415851Y53634281D01*
X-47381896Y53575470D01*
X-47377991Y53563450D01*
X-47372786Y53553713D01*
X-47344087Y53459104D01*
X-47323689Y53396328D01*
X-47322972Y53389498D01*
X-47321526Y53384734D01*
X-47307464Y53241958D01*
X-47304000Y53209000D01*
X-47307465Y53176041D01*
X-47321526Y53033267D01*
X-47322971Y53028504D01*
X-47323689Y53021672D01*
X-47344091Y52958883D01*
X-47372786Y52864288D01*
X-47377990Y52854553D01*
X-47381896Y52842530D01*
X-47415858Y52783707D01*
X-47456028Y52708553D01*
X-47466887Y52695323D01*
X-47476076Y52679405D01*
X-47519822Y52630822D01*
X-47568052Y52572052D01*
X-47586000Y52557323D01*
X-47602113Y52539427D01*
X-47651740Y52503372D01*
X-47704553Y52460028D01*
X-47730443Y52446190D01*
X-47754500Y52428711D01*
X-47806244Y52405674D01*
X-47860288Y52376786D01*
X-47894299Y52366469D01*
X-47926576Y52352098D01*
X-47977013Y52341378D01*
X-48029267Y52325526D01*
X-48070862Y52321430D01*
X-48110820Y52312936D01*
X-48157097Y52312936D01*
X-48205000Y52308218D01*
X-48252903Y52312936D01*
X-48299180Y52312936D01*
X-48339138Y52321430D01*
X-48380734Y52325526D01*
X-48432991Y52341379D01*
X-48483424Y52352098D01*
X-48515700Y52366468D01*
X-48549713Y52376786D01*
X-48603763Y52405677D01*
X-48655500Y52428711D01*
X-48679555Y52446188D01*
X-48705448Y52460028D01*
X-48758270Y52503378D01*
X-48807887Y52539427D01*
X-48823998Y52557320D01*
X-48841949Y52572052D01*
X-48890191Y52630834D01*
X-48933924Y52679405D01*
X-48943112Y52695319D01*
X-48953973Y52708553D01*
X-48994156Y52783731D01*
X-49028104Y52842530D01*
X-49032009Y52854549D01*
X-49037215Y52864288D01*
X-49065925Y52958929D01*
X-49086311Y53021672D01*
X-49087029Y53028499D01*
X-49088475Y53033267D01*
X-49102552Y53176192D01*
X-49106000Y53209000D01*
X-49102552Y53241806D01*
X-49088475Y53384734D01*
X-49087029Y53389503D01*
X-49086311Y53396328D01*
X-49065929Y53459058D01*
X-49037215Y53553713D01*
X-49032009Y53563455D01*
X-49028104Y53575470D01*
X-48994164Y53634258D01*
X-48953973Y53709448D01*
X-48943110Y53722686D01*
X-48933924Y53738595D01*
X-48890200Y53787157D01*
X-48841949Y53845949D01*
X-48823995Y53860685D01*
X-48807887Y53878573D01*
X-48758280Y53914615D01*
X-48705448Y53957973D01*
X-48679550Y53971817D01*
X-48655500Y53989289D01*
X-48603774Y54012319D01*
X-48549713Y54041215D01*
X-48515693Y54051536D01*
X-48483424Y54065902D01*
X-48433002Y54076620D01*
X-48380734Y54092475D01*
X-48339129Y54096573D01*
X-48299180Y54105064D01*
X-48252914Y54105064D01*
X-48205000Y54109783D01*
X-48157087Y54105064D01*
G37*
G36*
X-44361907Y53476461D02*
G01*
X-44299943Y53435057D01*
X-44258539Y53373093D01*
X-44244000Y53300000D01*
X-44244000Y53020000D01*
X-44258539Y52946907D01*
X-44299943Y52884943D01*
X-44361907Y52843539D01*
X-44435000Y52829000D01*
X-44775000Y52829000D01*
X-44848093Y52843539D01*
X-44910057Y52884943D01*
X-44951461Y52946907D01*
X-44966000Y53020000D01*
X-44966000Y53300000D01*
X-44951461Y53373093D01*
X-44910057Y53435057D01*
X-44848093Y53476461D01*
X-44775000Y53491000D01*
X-44435000Y53491000D01*
X-44361907Y53476461D01*
G37*
G36*
X-36637265Y54962353D02*
G01*
X-36531054Y54908235D01*
X-36446765Y54823946D01*
X-36392647Y54717735D01*
X-36374000Y54600000D01*
X-36392647Y54482265D01*
X-36446765Y54376054D01*
X-36531054Y54291765D01*
X-36637265Y54237647D01*
X-36755000Y54219000D01*
X-36872735Y54237647D01*
X-36978946Y54291765D01*
X-37063235Y54376054D01*
X-37117353Y54482265D01*
X-37136000Y54600000D01*
X-37117353Y54717735D01*
X-37063235Y54823946D01*
X-36978946Y54908235D01*
X-36872735Y54962353D01*
X-36755000Y54981000D01*
X-36637265Y54962353D01*
G37*
G36*
X-44000491Y54938083D02*
G01*
X-43914505Y54915043D01*
X-43837412Y54870533D01*
X-43774467Y54807588D01*
X-43729957Y54730495D01*
X-43706917Y54644509D01*
X-43706917Y54555491D01*
X-43729957Y54469505D01*
X-43774467Y54392412D01*
X-43837412Y54329467D01*
X-43914505Y54284957D01*
X-44000491Y54261917D01*
X-44465000Y54259000D01*
X-44509509Y54261917D01*
X-44595495Y54284957D01*
X-44672588Y54329467D01*
X-44735533Y54392412D01*
X-44780043Y54469505D01*
X-44803083Y54555491D01*
X-44803083Y54644509D01*
X-44780043Y54730495D01*
X-44735533Y54807588D01*
X-44672588Y54870533D01*
X-44595495Y54915043D01*
X-44509509Y54938083D01*
X-44045000Y54941000D01*
X-44000491Y54938083D01*
G37*
G36*
X-32718087Y56614064D02*
G01*
X-32671820Y56614064D01*
X-32631871Y56605573D01*
X-32590267Y56601475D01*
X-32538002Y56585621D01*
X-32487576Y56574902D01*
X-32455306Y56560535D01*
X-32421288Y56550215D01*
X-32367233Y56521322D01*
X-32315500Y56498289D01*
X-32291449Y56480815D01*
X-32265553Y56466973D01*
X-32212729Y56423622D01*
X-32163113Y56387573D01*
X-32147004Y56369682D01*
X-32129052Y56354949D01*
X-32080812Y56296169D01*
X-32037076Y56247595D01*
X-32027889Y56231681D01*
X-32017028Y56218448D01*
X-31976851Y56143281D01*
X-31942896Y56084470D01*
X-31938991Y56072450D01*
X-31933786Y56062713D01*
X-31905087Y55968104D01*
X-31884689Y55905328D01*
X-31883972Y55898498D01*
X-31882526Y55893734D01*
X-31868464Y55750958D01*
X-31865000Y55718000D01*
X-31868465Y55685041D01*
X-31882526Y55542267D01*
X-31883971Y55537504D01*
X-31884689Y55530672D01*
X-31905091Y55467883D01*
X-31933786Y55373288D01*
X-31938990Y55363553D01*
X-31942896Y55351530D01*
X-31976858Y55292707D01*
X-32017028Y55217553D01*
X-32027887Y55204323D01*
X-32037076Y55188405D01*
X-32080822Y55139822D01*
X-32129052Y55081052D01*
X-32147000Y55066323D01*
X-32163113Y55048427D01*
X-32212740Y55012372D01*
X-32265553Y54969028D01*
X-32291443Y54955190D01*
X-32315500Y54937711D01*
X-32367244Y54914674D01*
X-32421288Y54885786D01*
X-32455299Y54875469D01*
X-32487576Y54861098D01*
X-32538013Y54850378D01*
X-32590267Y54834526D01*
X-32631862Y54830430D01*
X-32671820Y54821936D01*
X-32718097Y54821936D01*
X-32766000Y54817218D01*
X-32813903Y54821936D01*
X-32860180Y54821936D01*
X-32900138Y54830430D01*
X-32941734Y54834526D01*
X-32993991Y54850379D01*
X-33044424Y54861098D01*
X-33076700Y54875468D01*
X-33110713Y54885786D01*
X-33164763Y54914677D01*
X-33216500Y54937711D01*
X-33240555Y54955188D01*
X-33266448Y54969028D01*
X-33319270Y55012378D01*
X-33368887Y55048427D01*
X-33384998Y55066320D01*
X-33402949Y55081052D01*
X-33451191Y55139834D01*
X-33494924Y55188405D01*
X-33504112Y55204319D01*
X-33514973Y55217553D01*
X-33555156Y55292731D01*
X-33589104Y55351530D01*
X-33593009Y55363549D01*
X-33598215Y55373288D01*
X-33626925Y55467929D01*
X-33647311Y55530672D01*
X-33648029Y55537499D01*
X-33649475Y55542267D01*
X-33663552Y55685192D01*
X-33667000Y55718000D01*
X-33663552Y55750806D01*
X-33649475Y55893734D01*
X-33648029Y55898503D01*
X-33647311Y55905328D01*
X-33626929Y55968058D01*
X-33598215Y56062713D01*
X-33593009Y56072455D01*
X-33589104Y56084470D01*
X-33555164Y56143258D01*
X-33514973Y56218448D01*
X-33504110Y56231686D01*
X-33494924Y56247595D01*
X-33451200Y56296157D01*
X-33402949Y56354949D01*
X-33384995Y56369685D01*
X-33368887Y56387573D01*
X-33319280Y56423615D01*
X-33266448Y56466973D01*
X-33240550Y56480817D01*
X-33216500Y56498289D01*
X-33164774Y56521319D01*
X-33110713Y56550215D01*
X-33076693Y56560536D01*
X-33044424Y56574902D01*
X-32994002Y56585620D01*
X-32941734Y56601475D01*
X-32900129Y56605573D01*
X-32860180Y56614064D01*
X-32813914Y56614064D01*
X-32766000Y56618783D01*
X-32718087Y56614064D01*
G37*
G36*
X-48157087Y56645064D02*
G01*
X-48110820Y56645064D01*
X-48070871Y56636573D01*
X-48029267Y56632475D01*
X-47977002Y56616621D01*
X-47926576Y56605902D01*
X-47894306Y56591535D01*
X-47860288Y56581215D01*
X-47806233Y56552322D01*
X-47754500Y56529289D01*
X-47730449Y56511815D01*
X-47704553Y56497973D01*
X-47651729Y56454622D01*
X-47602113Y56418573D01*
X-47586004Y56400682D01*
X-47568052Y56385949D01*
X-47519812Y56327169D01*
X-47476076Y56278595D01*
X-47466889Y56262681D01*
X-47456028Y56249448D01*
X-47415851Y56174281D01*
X-47381896Y56115470D01*
X-47377991Y56103450D01*
X-47372786Y56093713D01*
X-47344087Y55999104D01*
X-47323689Y55936328D01*
X-47322972Y55929498D01*
X-47321526Y55924734D01*
X-47307464Y55781958D01*
X-47304000Y55749000D01*
X-47307465Y55716041D01*
X-47321526Y55573267D01*
X-47322971Y55568504D01*
X-47323689Y55561672D01*
X-47344091Y55498883D01*
X-47372786Y55404288D01*
X-47377990Y55394553D01*
X-47381896Y55382530D01*
X-47415858Y55323707D01*
X-47456028Y55248553D01*
X-47466887Y55235323D01*
X-47476076Y55219405D01*
X-47519822Y55170822D01*
X-47568052Y55112052D01*
X-47586000Y55097323D01*
X-47602113Y55079427D01*
X-47651740Y55043372D01*
X-47704553Y55000028D01*
X-47730443Y54986190D01*
X-47754500Y54968711D01*
X-47806244Y54945674D01*
X-47860288Y54916786D01*
X-47894299Y54906469D01*
X-47926576Y54892098D01*
X-47977013Y54881378D01*
X-48029267Y54865526D01*
X-48070862Y54861430D01*
X-48110820Y54852936D01*
X-48157097Y54852936D01*
X-48205000Y54848218D01*
X-48252903Y54852936D01*
X-48299180Y54852936D01*
X-48339138Y54861430D01*
X-48380734Y54865526D01*
X-48432991Y54881379D01*
X-48483424Y54892098D01*
X-48515700Y54906468D01*
X-48549713Y54916786D01*
X-48603763Y54945677D01*
X-48655500Y54968711D01*
X-48679555Y54986188D01*
X-48705448Y55000028D01*
X-48758270Y55043378D01*
X-48807887Y55079427D01*
X-48823998Y55097320D01*
X-48841949Y55112052D01*
X-48890191Y55170834D01*
X-48933924Y55219405D01*
X-48943112Y55235319D01*
X-48953973Y55248553D01*
X-48994156Y55323731D01*
X-49028104Y55382530D01*
X-49032009Y55394549D01*
X-49037215Y55404288D01*
X-49065925Y55498929D01*
X-49086311Y55561672D01*
X-49087029Y55568499D01*
X-49088475Y55573267D01*
X-49102552Y55716192D01*
X-49106000Y55749000D01*
X-49102552Y55781806D01*
X-49088475Y55924734D01*
X-49087029Y55929503D01*
X-49086311Y55936328D01*
X-49065929Y55999058D01*
X-49037215Y56093713D01*
X-49032009Y56103455D01*
X-49028104Y56115470D01*
X-48994164Y56174258D01*
X-48953973Y56249448D01*
X-48943110Y56262686D01*
X-48933924Y56278595D01*
X-48890200Y56327157D01*
X-48841949Y56385949D01*
X-48823995Y56400685D01*
X-48807887Y56418573D01*
X-48758280Y56454615D01*
X-48705448Y56497973D01*
X-48679550Y56511817D01*
X-48655500Y56529289D01*
X-48603774Y56552319D01*
X-48549713Y56581215D01*
X-48515693Y56591536D01*
X-48483424Y56605902D01*
X-48433002Y56616620D01*
X-48380734Y56632475D01*
X-48339129Y56636573D01*
X-48299180Y56645064D01*
X-48252914Y56645064D01*
X-48205000Y56649783D01*
X-48157087Y56645064D01*
G37*
G36*
X-36161907Y56236461D02*
G01*
X-36099943Y56195057D01*
X-36058539Y56133093D01*
X-36044000Y56060000D01*
X-36044000Y55780000D01*
X-36058539Y55706907D01*
X-36099943Y55644943D01*
X-36161907Y55603539D01*
X-36235000Y55589000D01*
X-36575000Y55589000D01*
X-36648093Y55603539D01*
X-36710057Y55644943D01*
X-36751461Y55706907D01*
X-36766000Y55780000D01*
X-36766000Y56060000D01*
X-36751461Y56133093D01*
X-36710057Y56195057D01*
X-36648093Y56236461D01*
X-36575000Y56251000D01*
X-36235000Y56251000D01*
X-36161907Y56236461D01*
G37*
G36*
X-42869225Y57346290D02*
G01*
X-42832595Y57346290D01*
X-42790594Y57335938D01*
X-42749450Y57330521D01*
X-42721288Y57318856D01*
X-42692003Y57311638D01*
X-42647602Y57288335D01*
X-42604500Y57270481D01*
X-42584836Y57255392D01*
X-42563780Y57244341D01*
X-42520729Y57206202D01*
X-42480029Y57174971D01*
X-42468463Y57159898D01*
X-42455391Y57148317D01*
X-42417906Y57094011D01*
X-42384519Y57050500D01*
X-42379487Y57038352D01*
X-42373135Y57029149D01*
X-42345588Y56956511D01*
X-42324479Y56905550D01*
X-42323532Y56898353D01*
X-42321786Y56893750D01*
X-42308261Y56782358D01*
X-42304000Y56750000D01*
X-42308261Y56717640D01*
X-42321786Y56606251D01*
X-42323532Y56601650D01*
X-42324479Y56594450D01*
X-42345592Y56543480D01*
X-42373135Y56470852D01*
X-42379486Y56461652D01*
X-42384519Y56449500D01*
X-42417913Y56405981D01*
X-42455391Y56351684D01*
X-42468461Y56340106D01*
X-42480029Y56325029D01*
X-42520738Y56293793D01*
X-42563780Y56255660D01*
X-42584832Y56244612D01*
X-42604500Y56229519D01*
X-42647611Y56211663D01*
X-42692003Y56188363D01*
X-42721284Y56181147D01*
X-42749450Y56169479D01*
X-42790596Y56164062D01*
X-42832595Y56153710D01*
X-42869225Y56153710D01*
X-42905000Y56149000D01*
X-42940775Y56153710D01*
X-42977405Y56153710D01*
X-43019405Y56164063D01*
X-43060550Y56169479D01*
X-43088716Y56181146D01*
X-43117998Y56188363D01*
X-43162395Y56211665D01*
X-43205500Y56229519D01*
X-43225167Y56244610D01*
X-43246221Y56255660D01*
X-43289271Y56293799D01*
X-43329971Y56325029D01*
X-43341538Y56340103D01*
X-43354610Y56351684D01*
X-43392098Y56405994D01*
X-43425481Y56449500D01*
X-43430513Y56461648D01*
X-43436866Y56470852D01*
X-43464421Y56543508D01*
X-43485521Y56594450D01*
X-43486469Y56601646D01*
X-43488215Y56606251D01*
X-43501753Y56717738D01*
X-43506000Y56750000D01*
X-43501753Y56782261D01*
X-43488215Y56893750D01*
X-43486469Y56898357D01*
X-43485521Y56905550D01*
X-43464425Y56956482D01*
X-43436866Y57029149D01*
X-43430512Y57038355D01*
X-43425481Y57050500D01*
X-43392105Y57093998D01*
X-43354610Y57148317D01*
X-43341536Y57159901D01*
X-43329971Y57174971D01*
X-43289279Y57206196D01*
X-43246221Y57244341D01*
X-43225163Y57255394D01*
X-43205500Y57270481D01*
X-43162404Y57288333D01*
X-43117998Y57311638D01*
X-43088712Y57318857D01*
X-43060550Y57330521D01*
X-43019408Y57335938D01*
X-42977405Y57346290D01*
X-42940775Y57346290D01*
X-42905000Y57351000D01*
X-42869225Y57346290D01*
G37*
G36*
X-38069225Y57346290D02*
G01*
X-38032595Y57346290D01*
X-37990594Y57335938D01*
X-37949450Y57330521D01*
X-37921288Y57318856D01*
X-37892003Y57311638D01*
X-37847602Y57288335D01*
X-37804500Y57270481D01*
X-37784836Y57255392D01*
X-37763780Y57244341D01*
X-37720729Y57206202D01*
X-37680029Y57174971D01*
X-37668463Y57159898D01*
X-37655391Y57148317D01*
X-37617906Y57094011D01*
X-37584519Y57050500D01*
X-37579487Y57038352D01*
X-37573135Y57029149D01*
X-37545588Y56956511D01*
X-37524479Y56905550D01*
X-37523532Y56898353D01*
X-37521786Y56893750D01*
X-37508261Y56782358D01*
X-37504000Y56750000D01*
X-37508261Y56717640D01*
X-37521786Y56606251D01*
X-37523532Y56601650D01*
X-37524479Y56594450D01*
X-37545592Y56543480D01*
X-37573135Y56470852D01*
X-37579486Y56461652D01*
X-37584519Y56449500D01*
X-37617913Y56405981D01*
X-37655391Y56351684D01*
X-37668461Y56340106D01*
X-37680029Y56325029D01*
X-37720738Y56293793D01*
X-37763780Y56255660D01*
X-37784832Y56244612D01*
X-37804500Y56229519D01*
X-37847611Y56211663D01*
X-37892003Y56188363D01*
X-37921284Y56181147D01*
X-37949450Y56169479D01*
X-37990596Y56164062D01*
X-38032595Y56153710D01*
X-38069225Y56153710D01*
X-38105000Y56149000D01*
X-38140775Y56153710D01*
X-38177405Y56153710D01*
X-38219405Y56164063D01*
X-38260550Y56169479D01*
X-38288716Y56181146D01*
X-38317998Y56188363D01*
X-38362395Y56211665D01*
X-38405500Y56229519D01*
X-38425167Y56244610D01*
X-38446221Y56255660D01*
X-38489271Y56293799D01*
X-38529971Y56325029D01*
X-38541538Y56340103D01*
X-38554610Y56351684D01*
X-38592098Y56405994D01*
X-38625481Y56449500D01*
X-38630513Y56461648D01*
X-38636866Y56470852D01*
X-38664421Y56543508D01*
X-38685521Y56594450D01*
X-38686469Y56601646D01*
X-38688215Y56606251D01*
X-38701753Y56717738D01*
X-38706000Y56750000D01*
X-38701753Y56782261D01*
X-38688215Y56893750D01*
X-38686469Y56898357D01*
X-38685521Y56905550D01*
X-38664425Y56956482D01*
X-38636866Y57029149D01*
X-38630512Y57038355D01*
X-38625481Y57050500D01*
X-38592105Y57093998D01*
X-38554610Y57148317D01*
X-38541536Y57159901D01*
X-38529971Y57174971D01*
X-38489279Y57206196D01*
X-38446221Y57244341D01*
X-38425163Y57255394D01*
X-38405500Y57270481D01*
X-38362404Y57288333D01*
X-38317998Y57311638D01*
X-38288712Y57318857D01*
X-38260550Y57330521D01*
X-38219408Y57335938D01*
X-38177405Y57346290D01*
X-38140775Y57346290D01*
X-38105000Y57351000D01*
X-38069225Y57346290D01*
G37*
G36*
X-36161907Y57196461D02*
G01*
X-36099943Y57155057D01*
X-36058539Y57093093D01*
X-36044000Y57020000D01*
X-36044000Y56740000D01*
X-36058539Y56666907D01*
X-36099943Y56604943D01*
X-36161907Y56563539D01*
X-36235000Y56549000D01*
X-36575000Y56549000D01*
X-36648093Y56563539D01*
X-36710057Y56604943D01*
X-36751461Y56666907D01*
X-36766000Y56740000D01*
X-36766000Y57020000D01*
X-36751461Y57093093D01*
X-36710057Y57155057D01*
X-36648093Y57196461D01*
X-36575000Y57211000D01*
X-36235000Y57211000D01*
X-36161907Y57196461D01*
G37*
M02*
