%TF.GenerationSoftware,KiCad,Pcbnew,7.0.5-0*%
%TF.CreationDate,2023-06-29T21:31:29-07:00*%
%TF.ProjectId,PicoROM,5069636f-524f-44d2-9e6b-696361645f70,REV1*%
%TF.SameCoordinates,Original*%
%TF.FileFunction,Paste,Top*%
%TF.FilePolarity,Positive*%
%FSLAX46Y46*%
G04 Gerber Fmt 4.6, Leading zero omitted, Abs format (unit mm)*
G04 Created by KiCad (PCBNEW 7.0.5-0) date 2023-06-29 21:31:29*
%MOMM*%
%LPD*%
G01*
G04 APERTURE LIST*
G04 Aperture macros list*
%AMRoundRect*
0 Rectangle with rounded corners*
0 $1 Rounding radius*
0 $2 $3 $4 $5 $6 $7 $8 $9 X,Y pos of 4 corners*
0 Add a 4 corners polygon primitive as box body*
4,1,4,$2,$3,$4,$5,$6,$7,$8,$9,$2,$3,0*
0 Add four circle primitives for the rounded corners*
1,1,$1+$1,$2,$3*
1,1,$1+$1,$4,$5*
1,1,$1+$1,$6,$7*
1,1,$1+$1,$8,$9*
0 Add four rect primitives between the rounded corners*
20,1,$1+$1,$2,$3,$4,$5,0*
20,1,$1+$1,$4,$5,$6,$7,0*
20,1,$1+$1,$6,$7,$8,$9,0*
20,1,$1+$1,$8,$9,$2,$3,0*%
G04 Aperture macros list end*
%ADD10RoundRect,0.140000X0.170000X-0.140000X0.170000X0.140000X-0.170000X0.140000X-0.170000X-0.140000X0*%
%ADD11RoundRect,0.140000X-0.170000X0.140000X-0.170000X-0.140000X0.170000X-0.140000X0.170000X0.140000X0*%
%ADD12R,2.400000X2.000000*%
%ADD13RoundRect,0.250000X-0.292217X-0.292217X0.292217X-0.292217X0.292217X0.292217X-0.292217X0.292217X0*%
%ADD14RoundRect,0.050000X-0.387500X-0.050000X0.387500X-0.050000X0.387500X0.050000X-0.387500X0.050000X0*%
%ADD15RoundRect,0.050000X-0.050000X-0.387500X0.050000X-0.387500X0.050000X0.387500X-0.050000X0.387500X0*%
%ADD16RoundRect,0.150000X0.150000X-0.825000X0.150000X0.825000X-0.150000X0.825000X-0.150000X-0.825000X0*%
%ADD17RoundRect,0.075000X-0.425000X0.075000X-0.425000X-0.075000X0.425000X-0.075000X0.425000X0.075000X0*%
%ADD18C,1.100000*%
%ADD19RoundRect,0.150000X-0.150000X0.512500X-0.150000X-0.512500X0.150000X-0.512500X0.150000X0.512500X0*%
%ADD20RoundRect,0.250000X0.250000X0.475000X-0.250000X0.475000X-0.250000X-0.475000X0.250000X-0.475000X0*%
%ADD21RoundRect,0.140000X0.140000X0.170000X-0.140000X0.170000X-0.140000X-0.170000X0.140000X-0.170000X0*%
%ADD22RoundRect,0.202500X-0.402500X0.202500X-0.402500X-0.202500X0.402500X-0.202500X0.402500X0.202500X0*%
%ADD23RoundRect,0.062500X-0.350000X0.062500X-0.350000X-0.062500X0.350000X-0.062500X0.350000X0.062500X0*%
%ADD24RoundRect,0.062500X-0.062500X0.350000X-0.062500X-0.350000X0.062500X-0.350000X0.062500X0.350000X0*%
G04 APERTURE END LIST*
D10*
%TO.C,R7*%
X-37280000Y45394000D03*
X-37280000Y46354000D03*
%TD*%
D11*
%TO.C,C12*%
X-39955000Y23429000D03*
X-39955000Y22469000D03*
%TD*%
D10*
%TO.C,R2*%
X-34255000Y21194000D03*
X-34255000Y22154000D03*
%TD*%
D12*
%TO.C,Y1*%
X-44320400Y22483600D03*
X-44320400Y18783600D03*
%TD*%
D10*
%TO.C,C17*%
X-41005000Y35269000D03*
X-41005000Y36229000D03*
%TD*%
D11*
%TO.C,R4*%
X-37945000Y37429000D03*
X-37945000Y36469000D03*
%TD*%
D13*
%TO.C,U3*%
X-40942500Y29524000D03*
X-40942500Y28249000D03*
X-39667500Y29524000D03*
X-39667500Y28249000D03*
D14*
X-43742500Y31486500D03*
X-43742500Y31086500D03*
X-43742500Y30686500D03*
X-43742500Y30286500D03*
X-43742500Y29886500D03*
X-43742500Y29486500D03*
X-43742500Y29086500D03*
X-43742500Y28686500D03*
X-43742500Y28286500D03*
X-43742500Y27886500D03*
X-43742500Y27486500D03*
X-43742500Y27086500D03*
X-43742500Y26686500D03*
X-43742500Y26286500D03*
D15*
X-42905000Y25449000D03*
X-42505000Y25449000D03*
X-42105000Y25449000D03*
X-41705000Y25449000D03*
X-41305000Y25449000D03*
X-40905000Y25449000D03*
X-40505000Y25449000D03*
X-40105000Y25449000D03*
X-39705000Y25449000D03*
X-39305000Y25449000D03*
X-38905000Y25449000D03*
X-38505000Y25449000D03*
X-38105000Y25449000D03*
X-37705000Y25449000D03*
D14*
X-36867500Y26286500D03*
X-36867500Y26686500D03*
X-36867500Y27086500D03*
X-36867500Y27486500D03*
X-36867500Y27886500D03*
X-36867500Y28286500D03*
X-36867500Y28686500D03*
X-36867500Y29086500D03*
X-36867500Y29486500D03*
X-36867500Y29886500D03*
X-36867500Y30286500D03*
X-36867500Y30686500D03*
X-36867500Y31086500D03*
X-36867500Y31486500D03*
D15*
X-37705000Y32324000D03*
X-38105000Y32324000D03*
X-38505000Y32324000D03*
X-38905000Y32324000D03*
X-39305000Y32324000D03*
X-39705000Y32324000D03*
X-40105000Y32324000D03*
X-40505000Y32324000D03*
X-40905000Y32324000D03*
X-41305000Y32324000D03*
X-41705000Y32324000D03*
X-42105000Y32324000D03*
X-42505000Y32324000D03*
X-42905000Y32324000D03*
%TD*%
D11*
%TO.C,R5*%
X-41855000Y21254000D03*
X-41855000Y20294000D03*
%TD*%
D16*
%TO.C,U2*%
X-43210000Y40274000D03*
X-41940000Y40274000D03*
X-40670000Y40274000D03*
X-39400000Y40274000D03*
X-39400000Y45224000D03*
X-40670000Y45224000D03*
X-41940000Y45224000D03*
X-43210000Y45224000D03*
%TD*%
D10*
%TO.C,C10*%
X-40005000Y35269000D03*
X-40005000Y36229000D03*
%TD*%
D17*
%TO.C,J1*%
X-38180000Y55229000D03*
X-38180000Y54439000D03*
X-38180000Y53649000D03*
X-38180000Y52859000D03*
X-38180000Y52069000D03*
X-38180000Y51279000D03*
X-38180000Y50489000D03*
X-38180000Y49699000D03*
X-39700000Y49699000D03*
X-39700000Y50489000D03*
X-39700000Y51279000D03*
X-39700000Y52069000D03*
X-39700000Y52859000D03*
X-39700000Y53649000D03*
X-39700000Y54439000D03*
X-39700000Y55229000D03*
D18*
X-36790000Y54849000D03*
X-41090000Y54849000D03*
X-36790000Y50049000D03*
X-41090000Y50049000D03*
%TD*%
D10*
%TO.C,C8*%
X-38205000Y34069000D03*
X-38205000Y35029000D03*
%TD*%
D11*
%TO.C,C3*%
X-41855000Y19179000D03*
X-41855000Y18219000D03*
%TD*%
D19*
%TO.C,U1*%
X-43055000Y53776500D03*
X-44005000Y53776500D03*
X-44955000Y53776500D03*
X-44955000Y51501500D03*
X-43055000Y51501500D03*
%TD*%
D20*
%TO.C,C4*%
X-43055000Y48829000D03*
X-44955000Y48829000D03*
%TD*%
D10*
%TO.C,C13*%
X-34255000Y29769000D03*
X-34255000Y30729000D03*
%TD*%
%TO.C,C9*%
X-45305000Y34049000D03*
X-45305000Y35009000D03*
%TD*%
D11*
%TO.C,C11*%
X-45905000Y27829000D03*
X-45905000Y26869000D03*
%TD*%
%TO.C,R6*%
X-35155000Y54754000D03*
X-35155000Y53794000D03*
%TD*%
D10*
%TO.C,R1*%
X-44555000Y42669000D03*
X-44555000Y43629000D03*
%TD*%
D11*
%TO.C,C18*%
X-34305000Y18879000D03*
X-34305000Y17919000D03*
%TD*%
D10*
%TO.C,C15*%
X-36205000Y34069000D03*
X-36205000Y35029000D03*
%TD*%
%TO.C,C16*%
X-37205000Y34069000D03*
X-37205000Y35029000D03*
%TD*%
D11*
%TO.C,C2*%
X-41855000Y23279000D03*
X-41855000Y22319000D03*
%TD*%
D10*
%TO.C,C7*%
X-42005000Y35269000D03*
X-42005000Y36229000D03*
%TD*%
D21*
%TO.C,C5*%
X-45025000Y47049000D03*
X-45985000Y47049000D03*
%TD*%
D20*
%TO.C,C1*%
X-43055000Y56449000D03*
X-44955000Y56449000D03*
%TD*%
D11*
%TO.C,C6*%
X-38905000Y23429000D03*
X-38905000Y22469000D03*
%TD*%
D10*
%TO.C,C14*%
X-35205000Y34069000D03*
X-35205000Y35029000D03*
%TD*%
%TO.C,R8*%
X-35255000Y22369000D03*
X-35255000Y23329000D03*
%TD*%
D11*
%TO.C,R3*%
X-38945000Y37429000D03*
X-38945000Y36469000D03*
%TD*%
D22*
%TO.C,U4*%
X-37030000Y19286500D03*
X-38530000Y19286500D03*
D23*
X-35592500Y19536500D03*
D24*
X-36030000Y20474000D03*
X-36530000Y20474000D03*
X-37030000Y20474000D03*
X-37530000Y20474000D03*
X-38030000Y20474000D03*
X-38530000Y20474000D03*
X-39030000Y20474000D03*
X-39530000Y20474000D03*
D23*
X-39967500Y19536500D03*
X-39967500Y19036500D03*
D24*
X-39530000Y18099000D03*
X-39030000Y18099000D03*
X-38530000Y18099000D03*
X-38030000Y18099000D03*
X-37530000Y18099000D03*
X-37030000Y18099000D03*
X-36530000Y18099000D03*
X-36030000Y18099000D03*
D23*
X-35592500Y19036500D03*
%TD*%
M02*
