%TF.GenerationSoftware,KiCad,Pcbnew,7.0.5-0*%
%TF.CreationDate,2023-06-29T21:31:29-07:00*%
%TF.ProjectId,PicoROM,5069636f-524f-44d2-9e6b-696361645f70,REV1*%
%TF.SameCoordinates,Original*%
%TF.FileFunction,Copper,L4,Bot*%
%TF.FilePolarity,Positive*%
%FSLAX46Y46*%
G04 Gerber Fmt 4.6, Leading zero omitted, Abs format (unit mm)*
G04 Created by KiCad (PCBNEW 7.0.5-0) date 2023-06-29 21:31:29*
%MOMM*%
%LPD*%
G01*
G04 APERTURE LIST*
%TA.AperFunction,ComponentPad*%
%ADD10C,0.600000*%
%TD*%
%TA.AperFunction,ComponentPad*%
%ADD11C,1.100000*%
%TD*%
%TA.AperFunction,ComponentPad*%
%ADD12R,1.000000X1.000000*%
%TD*%
%TA.AperFunction,ComponentPad*%
%ADD13O,1.000000X1.000000*%
%TD*%
%TA.AperFunction,ComponentPad*%
%ADD14C,1.700000*%
%TD*%
%TA.AperFunction,ComponentPad*%
%ADD15O,1.700000X1.700000*%
%TD*%
%TA.AperFunction,ViaPad*%
%ADD16C,0.500000*%
%TD*%
%TA.AperFunction,Conductor*%
%ADD17C,0.150000*%
%TD*%
G04 APERTURE END LIST*
D10*
%TO.P,U3,57,GND*%
%TO.N,GND*%
X-41580000Y30161500D03*
X-41580000Y28886500D03*
X-41580000Y27611500D03*
X-40305000Y30161500D03*
X-40305000Y28886500D03*
X-40305000Y27611500D03*
X-39030000Y30161500D03*
X-39030000Y28886500D03*
X-39030000Y27611500D03*
%TD*%
D11*
%TO.P,J1,S1,SHIELD*%
%TO.N,GND*%
X-36790000Y54849000D03*
X-41090000Y54849000D03*
X-36790000Y50049000D03*
X-41090000Y50049000D03*
%TD*%
D12*
%TO.P,J2,1,Pin_1*%
%TO.N,/~{USB_BOOT}*%
X-36885000Y42279000D03*
D13*
%TO.P,J2,2,Pin_2*%
%TO.N,GND*%
X-36885000Y43549000D03*
%TD*%
D14*
%TO.P,J4,1,Pin_1*%
%TO.N,/+5V*%
X-32766000Y55718000D03*
D15*
%TO.P,J4,2,Pin_2*%
%TO.N,/A18*%
X-32766000Y53178000D03*
%TO.P,J4,3,Pin_3*%
%TO.N,/A17*%
X-32766000Y50638000D03*
%TO.P,J4,4,Pin_4*%
%TO.N,/A14*%
X-32766000Y48098000D03*
%TO.P,J4,5,Pin_5*%
%TO.N,/A13*%
X-32766000Y45558000D03*
%TO.P,J4,6,Pin_6*%
%TO.N,/A8*%
X-32766000Y43018000D03*
%TO.P,J4,7,Pin_7*%
%TO.N,/A9*%
X-32766000Y40478000D03*
%TO.P,J4,8,Pin_8*%
%TO.N,/A11*%
X-32766000Y37938000D03*
%TO.P,J4,9,Pin_9*%
%TO.N,/~{OE}*%
X-32766000Y35398000D03*
%TO.P,J4,10,Pin_10*%
%TO.N,/A10*%
X-32766000Y32858000D03*
%TO.P,J4,11,Pin_11*%
%TO.N,/~{CE}*%
X-32766000Y30318000D03*
%TO.P,J4,12,Pin_12*%
%TO.N,/BUF_D7*%
X-32766000Y27778000D03*
%TO.P,J4,13,Pin_13*%
%TO.N,/BUF_D6*%
X-32766000Y25238000D03*
%TO.P,J4,14,Pin_14*%
%TO.N,/BUF_D5*%
X-32766000Y22698000D03*
%TO.P,J4,15,Pin_15*%
%TO.N,/BUF_D4*%
X-32766000Y20158000D03*
%TO.P,J4,16,Pin_16*%
%TO.N,/BUF_D3*%
X-32766000Y17618000D03*
%TD*%
D14*
%TO.P,J3,1,Pin_1*%
%TO.N,unconnected-(J3-Pin_1-Pad1)*%
X-48205000Y55749000D03*
D15*
%TO.P,J3,2,Pin_2*%
%TO.N,/A16*%
X-48205000Y53209000D03*
%TO.P,J3,3,Pin_3*%
%TO.N,/A15*%
X-48205000Y50669000D03*
%TO.P,J3,4,Pin_4*%
%TO.N,/A12*%
X-48205000Y48129000D03*
%TO.P,J3,5,Pin_5*%
%TO.N,/A7*%
X-48205000Y45589000D03*
%TO.P,J3,6,Pin_6*%
%TO.N,/A6*%
X-48205000Y43049000D03*
%TO.P,J3,7,Pin_7*%
%TO.N,/A5*%
X-48205000Y40509000D03*
%TO.P,J3,8,Pin_8*%
%TO.N,/A4*%
X-48205000Y37969000D03*
%TO.P,J3,9,Pin_9*%
%TO.N,/A3*%
X-48205000Y35429000D03*
%TO.P,J3,10,Pin_10*%
%TO.N,/A2*%
X-48205000Y32889000D03*
%TO.P,J3,11,Pin_11*%
%TO.N,/A1*%
X-48205000Y30349000D03*
%TO.P,J3,12,Pin_12*%
%TO.N,/A0*%
X-48205000Y27809000D03*
%TO.P,J3,13,Pin_13*%
%TO.N,/BUF_D0*%
X-48205000Y25269000D03*
%TO.P,J3,14,Pin_14*%
%TO.N,/BUF_D1*%
X-48205000Y22729000D03*
%TO.P,J3,15,Pin_15*%
%TO.N,/BUF_D2*%
X-48205000Y20189000D03*
%TO.P,J3,16,Pin_16*%
%TO.N,GND*%
X-48205000Y17649000D03*
%TD*%
D16*
%TO.N,/D7*%
X-35230000Y31324000D03*
X-34930000Y20799000D03*
%TO.N,/BUF_D3*%
X-38705000Y17324000D03*
%TO.N,/BUF_D4*%
X-37855000Y16899000D03*
%TO.N,/BUF_D5*%
X-37205000Y17149000D03*
%TO.N,/~{BUF_OE}*%
X-34014870Y23225176D03*
X-35530000Y18499000D03*
%TO.N,/+5V*%
X-34530000Y23624000D03*
%TO.N,/A17*%
X-32005000Y28949000D03*
%TO.N,/BUF_D6*%
X-31980000Y26624000D03*
%TO.N,+3V3*%
X-34505000Y22799000D03*
X-35230000Y19999000D03*
%TO.N,GND*%
X-40005000Y36849000D03*
X-44460000Y54765000D03*
X-40105000Y19974000D03*
X-39399500Y41649000D03*
X-45905000Y26051000D03*
X-41005000Y36849000D03*
X-41605000Y36849000D03*
X-41305000Y21899000D03*
X-45984000Y49558000D03*
X-45305000Y35827000D03*
X-42280000Y17699000D03*
X-33880000Y31274000D03*
X-40205000Y21874000D03*
X-34230000Y17319000D03*
X-45984000Y48288000D03*
X-45412534Y55395233D03*
X-37105000Y35749000D03*
X-45984000Y48923000D03*
X-39305000Y21924000D03*
X-41305000Y26399000D03*
X-44206000Y55400000D03*
X-36205000Y35749000D03*
X-43825000Y54892000D03*
%TO.N,+3V3*%
X-43190000Y47526000D03*
X-35205000Y33349000D03*
X-45305000Y33287000D03*
X-34055000Y29174000D03*
X-36205000Y33349000D03*
X-40105000Y33749000D03*
X-45905000Y28591000D03*
X-43825000Y47526000D03*
X-39705000Y33249000D03*
X-42555000Y47526000D03*
X-40055000Y24074000D03*
%TO.N,/~{USB_BOOT}*%
X-40845000Y42279000D03*
%TO.N,/A16*%
X-38905000Y24324000D03*
%TO.N,/A15*%
X-49305000Y26349000D03*
X-42155000Y26374000D03*
%TO.N,/A7*%
X-44895000Y28369000D03*
%TO.N,/A6*%
X-44788222Y29009665D03*
%TO.N,/A5*%
X-44886941Y29651622D03*
%TO.N,/A4*%
X-45905000Y37489000D03*
%TO.N,/A3*%
X-44907246Y30300807D03*
%TO.N,/A2*%
X-45395966Y30728599D03*
%TO.N,/A1*%
X-45895000Y30229000D03*
%TO.N,/A0*%
X-46435419Y29868721D03*
%TO.N,/D0*%
X-37955000Y27999000D03*
X-38030000Y23799000D03*
%TO.N,/D1*%
X-37980000Y28799000D03*
X-37355000Y23649000D03*
%TO.N,/D2*%
X-37105000Y22949000D03*
X-37980000Y29549000D03*
%TO.N,/A18*%
X-34505000Y26199000D03*
%TO.N,/A17*%
X-34205000Y24624000D03*
%TO.N,/A14*%
X-42655000Y24249000D03*
%TO.N,/A13*%
X-48930000Y49449000D03*
%TO.N,/A8*%
X-44625000Y44769000D03*
%TO.N,/A9*%
X-45995000Y44129000D03*
%TO.N,/A11*%
X-42835000Y28089000D03*
%TO.N,/A10*%
X-42905000Y27329000D03*
%TO.N,/D6*%
X-35105000Y30624000D03*
X-35580000Y21174000D03*
%TO.N,/D5*%
X-36011506Y21659444D03*
X-35510741Y30116824D03*
%TO.N,/D4*%
X-35980000Y29549000D03*
X-36030000Y22424000D03*
%TO.N,/D3*%
X-37755000Y30774000D03*
X-36755000Y22374000D03*
%TD*%
D17*
%TO.N,/A18*%
X-34505000Y26199000D02*
X-34505000Y27488569D01*
X-34505000Y27488569D02*
X-32769569Y29224000D01*
X-32410431Y29224000D02*
X-31491000Y30143431D01*
X-32769569Y29224000D02*
X-32410431Y29224000D01*
X-31491000Y30143431D02*
X-31491000Y51903000D01*
X-31491000Y51903000D02*
X-32766000Y53178000D01*
%TO.N,/D7*%
X-35133248Y31324000D02*
X-35230000Y31324000D01*
X-34930000Y20799000D02*
X-35005000Y20874000D01*
X-35005000Y28945446D02*
X-34530000Y29420446D01*
X-34530000Y30720752D02*
X-35133248Y31324000D01*
X-35005000Y20874000D02*
X-35005000Y28945446D01*
X-34530000Y29420446D02*
X-34530000Y30720752D01*
%TO.N,/BUF_D3*%
X-33960000Y16424000D02*
X-32766000Y17618000D01*
X-38705000Y17324000D02*
X-38705000Y17077248D01*
X-38705000Y17077248D02*
X-38051752Y16424000D01*
X-38051752Y16424000D02*
X-33960000Y16424000D01*
%TO.N,/BUF_D4*%
X-37855000Y16899000D02*
X-37630000Y16674000D01*
X-37630000Y16674000D02*
X-36250000Y16674000D01*
X-36250000Y16674000D02*
X-32766000Y20158000D01*
%TO.N,/BUF_D5*%
X-37205000Y17149000D02*
X-36208248Y17149000D01*
X-33791000Y19566248D02*
X-33791000Y21673000D01*
X-36208248Y17149000D02*
X-33791000Y19566248D01*
X-33791000Y21673000D02*
X-32766000Y22698000D01*
%TO.N,/~{BUF_OE}*%
X-34014870Y22617378D02*
X-34014870Y23225176D01*
X-34308248Y22324000D02*
X-34014870Y22617378D01*
X-34308248Y19720752D02*
X-34308248Y22324000D01*
X-35530000Y18499000D02*
X-34308248Y19720752D01*
%TO.N,/+5V*%
X-34191000Y23963000D02*
X-34530000Y23624000D01*
X-31241000Y24959878D02*
X-32237878Y23963000D01*
X-32237878Y23963000D02*
X-34191000Y23963000D01*
X-31241000Y54193000D02*
X-31241000Y24959878D01*
X-32766000Y55718000D02*
X-31241000Y54193000D01*
%TO.N,/A17*%
X-31505000Y25049431D02*
X-31505000Y28449000D01*
X-31505000Y28449000D02*
X-32005000Y28949000D01*
X-32341431Y24213000D02*
X-31505000Y25049431D01*
X-33794000Y24213000D02*
X-32341431Y24213000D01*
X-34205000Y24624000D02*
X-33794000Y24213000D01*
%TO.N,/BUF_D6*%
X-31980000Y26024000D02*
X-32766000Y25238000D01*
X-31980000Y26624000D02*
X-31980000Y26024000D01*
%TO.N,/~{USB_BOOT}*%
X-40845000Y42279000D02*
X-36885000Y42279000D01*
%TO.N,/A16*%
X-49780000Y25394431D02*
X-49780000Y51634000D01*
X-41031839Y24549000D02*
X-41806839Y23774000D01*
X-39130000Y24549000D02*
X-41031839Y24549000D01*
X-41806839Y23774000D02*
X-48159569Y23774000D01*
X-38905000Y24324000D02*
X-39130000Y24549000D01*
X-48159569Y23774000D02*
X-49780000Y25394431D01*
X-49780000Y51634000D02*
X-48205000Y53209000D01*
%TO.N,/A15*%
X-49305000Y26349000D02*
X-49128000Y26526000D01*
X-49128000Y26526000D02*
X-42307000Y26526000D01*
X-42307000Y26526000D02*
X-42155000Y26374000D01*
%TO.N,/A7*%
X-43495000Y29629000D02*
X-43495000Y40879000D01*
X-44825000Y28299000D02*
X-43495000Y29629000D01*
X-43495000Y40879000D02*
X-48205000Y45589000D01*
%TO.N,/A6*%
X-43745000Y29929000D02*
X-43745000Y38589000D01*
X-44735000Y28939000D02*
X-43745000Y29929000D01*
X-43745000Y38589000D02*
X-48205000Y43049000D01*
%TO.N,/A5*%
X-43995000Y30329000D02*
X-43995000Y36299000D01*
X-43995000Y36299000D02*
X-48205000Y40509000D01*
X-44886941Y29651622D02*
X-44672378Y29651622D01*
X-44672378Y29651622D02*
X-43995000Y30329000D01*
%TO.N,/A4*%
X-45905000Y37489000D02*
X-46385000Y37969000D01*
X-46385000Y37969000D02*
X-48205000Y37969000D01*
%TO.N,/A3*%
X-44245000Y33739000D02*
X-45935000Y35429000D01*
X-44245000Y30529000D02*
X-44245000Y33739000D01*
X-44907246Y30300807D02*
X-44473193Y30300807D01*
X-45935000Y35429000D02*
X-48205000Y35429000D01*
X-44473193Y30300807D02*
X-44245000Y30529000D01*
%TO.N,/A2*%
X-45395966Y30728599D02*
X-46044599Y30728599D01*
X-46044599Y30728599D02*
X-48205000Y32889000D01*
%TO.N,/A1*%
X-45895000Y30229000D02*
X-46015000Y30349000D01*
X-46015000Y30349000D02*
X-48205000Y30349000D01*
%TO.N,/A0*%
X-46435419Y29868721D02*
X-46435419Y29578581D01*
X-46435419Y29578581D02*
X-48205000Y27809000D01*
%TO.N,/D0*%
X-38030000Y23799000D02*
X-38030000Y27924000D01*
X-38030000Y27924000D02*
X-37955000Y27999000D01*
%TO.N,/D1*%
X-37355000Y23649000D02*
X-37355000Y28199000D01*
X-37355000Y28199000D02*
X-38005000Y28849000D01*
%TO.N,/D2*%
X-36855000Y23199000D02*
X-37105000Y22949000D01*
X-37980000Y29549000D02*
X-36855000Y28424000D01*
X-36855000Y28424000D02*
X-36855000Y23199000D01*
%TO.N,/A14*%
X-41685393Y24249000D02*
X-38455000Y27479393D01*
X-32341431Y31833000D02*
X-31741000Y32433431D01*
X-38171000Y31833000D02*
X-32341431Y31833000D01*
X-31741000Y47073000D02*
X-32766000Y48098000D01*
X-42655000Y24249000D02*
X-41685393Y24249000D01*
X-38455000Y27479393D02*
X-38455000Y31549000D01*
X-31741000Y32433431D02*
X-31741000Y47073000D01*
X-38455000Y31549000D02*
X-38171000Y31833000D01*
%TO.N,/A13*%
X-46764752Y49449000D02*
X-46180752Y50033000D01*
X-46180752Y50033000D02*
X-42114000Y50033000D01*
X-42114000Y50033000D02*
X-37639000Y45558000D01*
X-37639000Y45558000D02*
X-32766000Y45558000D01*
X-48930000Y49449000D02*
X-46764752Y49449000D01*
%TO.N,/A8*%
X-35399405Y43018000D02*
X-32766000Y43018000D01*
X-44625000Y44769000D02*
X-37150405Y44769000D01*
X-37150405Y44769000D02*
X-35399405Y43018000D01*
%TO.N,/A9*%
X-45995000Y44129000D02*
X-43813248Y44129000D01*
X-40162248Y40478000D02*
X-32766000Y40478000D01*
X-43813248Y44129000D02*
X-40162248Y40478000D01*
%TO.N,/A11*%
X-40028160Y32774000D02*
X-37930000Y32774000D01*
X-37930000Y32774000D02*
X-32766000Y37938000D01*
X-42835000Y28089000D02*
X-42835000Y29967160D01*
X-42835000Y29967160D02*
X-40028160Y32774000D01*
%TO.N,/A10*%
X-40019607Y32429000D02*
X-33195000Y32429000D01*
X-42905000Y27329000D02*
X-42175000Y28059000D01*
X-33195000Y32429000D02*
X-32766000Y32858000D01*
X-42175000Y30273607D02*
X-40019607Y32429000D01*
X-42175000Y28059000D02*
X-42175000Y30273607D01*
%TO.N,/D6*%
X-35255000Y21499000D02*
X-35580000Y21174000D01*
X-35255000Y29049000D02*
X-35255000Y25224000D01*
X-35255000Y25224000D02*
X-35255000Y21499000D01*
X-34780000Y30374000D02*
X-34780000Y29524000D01*
X-34780000Y29524000D02*
X-35255000Y29049000D01*
X-35080000Y30674000D02*
X-34780000Y30374000D01*
%TO.N,/D5*%
X-35919556Y21659444D02*
X-36011506Y21659444D01*
X-35505000Y30111083D02*
X-35505000Y27449000D01*
X-35505000Y27449000D02*
X-35505000Y22074000D01*
X-35510741Y30116824D02*
X-35505000Y30111083D01*
X-35505000Y22074000D02*
X-35919556Y21659444D01*
%TO.N,/D4*%
X-35980000Y22474000D02*
X-36030000Y22424000D01*
X-35980000Y29549000D02*
X-35980000Y22474000D01*
%TO.N,/D3*%
X-36605000Y22274000D02*
X-36605000Y29624000D01*
X-36605000Y29624000D02*
X-37755000Y30774000D01*
%TD*%
M02*
