%TF.GenerationSoftware,KiCad,Pcbnew,8.0.2-1*%
%TF.CreationDate,2024-05-26T22:58:53-07:00*%
%TF.ProjectId,PicoROM,5069636f-524f-44d2-9e6b-696361645f70,1.1*%
%TF.SameCoordinates,Original*%
%TF.FileFunction,Paste,Bot*%
%TF.FilePolarity,Positive*%
%FSLAX46Y46*%
G04 Gerber Fmt 4.6, Leading zero omitted, Abs format (unit mm)*
G04 Created by KiCad (PCBNEW 8.0.2-1) date 2024-05-26 22:58:53*
%MOMM*%
%LPD*%
G01*
G04 APERTURE LIST*
G04 Aperture macros list*
%AMRoundRect*
0 Rectangle with rounded corners*
0 $1 Rounding radius*
0 $2 $3 $4 $5 $6 $7 $8 $9 X,Y pos of 4 corners*
0 Add a 4 corners polygon primitive as box body*
4,1,4,$2,$3,$4,$5,$6,$7,$8,$9,$2,$3,0*
0 Add four circle primitives for the rounded corners*
1,1,$1+$1,$2,$3*
1,1,$1+$1,$4,$5*
1,1,$1+$1,$6,$7*
1,1,$1+$1,$8,$9*
0 Add four rect primitives between the rounded corners*
20,1,$1+$1,$2,$3,$4,$5,0*
20,1,$1+$1,$4,$5,$6,$7,0*
20,1,$1+$1,$6,$7,$8,$9,0*
20,1,$1+$1,$8,$9,$2,$3,0*%
G04 Aperture macros list end*
%ADD10C,0.000000*%
%ADD11RoundRect,0.140000X0.170000X-0.140000X0.170000X0.140000X-0.170000X0.140000X-0.170000X-0.140000X0*%
%ADD12RoundRect,0.140000X0.140000X0.170000X-0.140000X0.170000X-0.140000X-0.170000X0.140000X-0.170000X0*%
%ADD13RoundRect,0.100000X-0.637500X-0.100000X0.637500X-0.100000X0.637500X0.100000X-0.637500X0.100000X0*%
%ADD14RoundRect,0.150000X0.150000X-0.650000X0.150000X0.650000X-0.150000X0.650000X-0.150000X-0.650000X0*%
%ADD15RoundRect,0.100000X0.637500X0.100000X-0.637500X0.100000X-0.637500X-0.100000X0.637500X-0.100000X0*%
%ADD16RoundRect,0.140000X-0.170000X0.140000X-0.170000X-0.140000X0.170000X-0.140000X0.170000X0.140000X0*%
%ADD17RoundRect,0.140000X-0.140000X-0.170000X0.140000X-0.170000X0.140000X0.170000X-0.140000X0.170000X0*%
%ADD18R,0.580000X0.300000*%
G04 APERTURE END LIST*
D10*
%TO.C,U7*%
G36*
X-37684999Y24630001D02*
G01*
X-38215001Y24630001D01*
X-38215001Y24880000D01*
X-37684999Y24880000D01*
X-37684999Y24630001D01*
G37*
G36*
X-37684999Y24129999D02*
G01*
X-38215001Y24129999D01*
X-38215001Y24380001D01*
X-37684999Y24380001D01*
X-37684999Y24129999D01*
G37*
G36*
X-37684999Y23630000D02*
G01*
X-38215001Y23630000D01*
X-38215001Y23879999D01*
X-37684999Y23879999D01*
X-37684999Y23630000D01*
G37*
G36*
X-37189999Y24425000D02*
G01*
X-37440001Y24425000D01*
X-37440001Y24955001D01*
X-37189999Y24955001D01*
X-37189999Y24425000D01*
G37*
G36*
X-37189999Y23554999D02*
G01*
X-37440001Y23554999D01*
X-37440001Y24085000D01*
X-37189999Y24085000D01*
X-37189999Y23554999D01*
G37*
G36*
X-36414999Y24630001D02*
G01*
X-36945001Y24630001D01*
X-36945001Y24880000D01*
X-36414999Y24880000D01*
X-36414999Y24630001D01*
G37*
G36*
X-36414999Y24129999D02*
G01*
X-36945001Y24129999D01*
X-36945001Y24380001D01*
X-36414999Y24380001D01*
X-36414999Y24129999D01*
G37*
G36*
X-36414999Y23630000D02*
G01*
X-36945001Y23630000D01*
X-36945001Y23879999D01*
X-36414999Y23879999D01*
X-36414999Y23630000D01*
G37*
%TD*%
D11*
%TO.C,R7*%
X-44605000Y52200000D03*
X-44605000Y53160000D03*
%TD*%
D12*
%TO.C,C22*%
X-35445000Y40310000D03*
X-36405000Y40310000D03*
%TD*%
%TO.C,C21*%
X-37935000Y22210000D03*
X-38895000Y22210000D03*
%TD*%
D13*
%TO.C,U6*%
X-45377500Y43675000D03*
X-45377500Y44325000D03*
X-45377500Y44975000D03*
X-45377500Y45625000D03*
X-45377500Y46275000D03*
X-45377500Y46925000D03*
X-45377500Y47575000D03*
X-45377500Y48225000D03*
X-45377500Y48875000D03*
X-45377500Y49525000D03*
X-45377500Y50175000D03*
X-45377500Y50825000D03*
X-39652500Y50825000D03*
X-39652500Y50175000D03*
X-39652500Y49525000D03*
X-39652500Y48875000D03*
X-39652500Y48225000D03*
X-39652500Y47575000D03*
X-39652500Y46925000D03*
X-39652500Y46275000D03*
X-39652500Y45625000D03*
X-39652500Y44975000D03*
X-39652500Y44325000D03*
X-39652500Y43675000D03*
%TD*%
D14*
%TO.C,U8*%
X-35385000Y36330000D03*
X-36335000Y36330000D03*
X-37285000Y36330000D03*
X-37285000Y38630000D03*
X-35385000Y38630000D03*
%TD*%
D11*
%TO.C,C20*%
X-38185000Y43740000D03*
X-38185000Y44700000D03*
%TD*%
D15*
%TO.C,U5*%
X-39672500Y41455000D03*
X-39672500Y40805000D03*
X-39672500Y40155000D03*
X-39672500Y39505000D03*
X-39672500Y38855000D03*
X-39672500Y38205000D03*
X-39672500Y37555000D03*
X-39672500Y36905000D03*
X-39672500Y36255000D03*
X-39672500Y35605000D03*
X-39672500Y34955000D03*
X-39672500Y34305000D03*
X-45397500Y34305000D03*
X-45397500Y34955000D03*
X-45397500Y35605000D03*
X-45397500Y36255000D03*
X-45397500Y36905000D03*
X-45397500Y37555000D03*
X-45397500Y38205000D03*
X-45397500Y38855000D03*
X-45397500Y39505000D03*
X-45397500Y40155000D03*
X-45397500Y40805000D03*
X-45397500Y41455000D03*
%TD*%
D16*
%TO.C,R6*%
X-36405000Y56880000D03*
X-36405000Y55920000D03*
%TD*%
D17*
%TO.C,C19*%
X-45865000Y42570000D03*
X-44905000Y42570000D03*
%TD*%
D18*
%TO.C,U7*%
X-36680000Y23755001D03*
%TD*%
M02*
