%TF.GenerationSoftware,KiCad,Pcbnew,7.0.5-0*%
%TF.CreationDate,2023-07-15T08:41:56-07:00*%
%TF.ProjectId,PicoROM,5069636f-524f-44d2-9e6b-696361645f70,1.1*%
%TF.SameCoordinates,Original*%
%TF.FileFunction,Copper,L2,Inr*%
%TF.FilePolarity,Positive*%
%FSLAX46Y46*%
G04 Gerber Fmt 4.6, Leading zero omitted, Abs format (unit mm)*
G04 Created by KiCad (PCBNEW 7.0.5-0) date 2023-07-15 08:41:56*
%MOMM*%
%LPD*%
G01*
G04 APERTURE LIST*
%TA.AperFunction,ComponentPad*%
%ADD10C,0.600000*%
%TD*%
%TA.AperFunction,ComponentPad*%
%ADD11C,1.100000*%
%TD*%
%TA.AperFunction,ComponentPad*%
%ADD12R,1.000000X1.000000*%
%TD*%
%TA.AperFunction,ComponentPad*%
%ADD13O,1.000000X1.000000*%
%TD*%
%TA.AperFunction,ComponentPad*%
%ADD14C,1.700000*%
%TD*%
%TA.AperFunction,ComponentPad*%
%ADD15O,1.700000X1.700000*%
%TD*%
%TA.AperFunction,ViaPad*%
%ADD16C,0.500000*%
%TD*%
G04 APERTURE END LIST*
D10*
%TO.N,GND*%
%TO.C,U3*%
X-41580000Y30161500D03*
X-41580000Y28886500D03*
X-41580000Y27611500D03*
X-40305000Y30161500D03*
X-40305000Y28886500D03*
X-40305000Y27611500D03*
X-39030000Y30161500D03*
X-39030000Y28886500D03*
X-39030000Y27611500D03*
%TD*%
D11*
%TO.N,GND*%
%TO.C,J1*%
X-36790000Y54849000D03*
X-41090000Y54849000D03*
X-36790000Y50049000D03*
X-41090000Y50049000D03*
%TD*%
D12*
%TO.N,/~{USB_BOOT}*%
%TO.C,J2*%
X-36885000Y42279000D03*
D13*
%TO.N,GND*%
X-36885000Y43549000D03*
%TD*%
D14*
%TO.N,/+5V*%
%TO.C,J4*%
X-32766000Y55718000D03*
D15*
%TO.N,unconnected-(J4-Pin_2-Pad2)*%
X-32766000Y53178000D03*
%TO.N,/A17*%
X-32766000Y50638000D03*
%TO.N,/A14*%
X-32766000Y48098000D03*
%TO.N,/A13*%
X-32766000Y45558000D03*
%TO.N,/A8*%
X-32766000Y43018000D03*
%TO.N,/A9*%
X-32766000Y40478000D03*
%TO.N,/A11*%
X-32766000Y37938000D03*
%TO.N,/~{OE}*%
X-32766000Y35398000D03*
%TO.N,/A10*%
X-32766000Y32858000D03*
%TO.N,/~{CE}*%
X-32766000Y30318000D03*
%TO.N,/BUF_D7*%
X-32766000Y27778000D03*
%TO.N,/BUF_D6*%
X-32766000Y25238000D03*
%TO.N,/BUF_D5*%
X-32766000Y22698000D03*
%TO.N,/BUF_D4*%
X-32766000Y20158000D03*
%TO.N,/BUF_D3*%
X-32766000Y17618000D03*
%TD*%
D14*
%TO.N,unconnected-(J3-Pin_1-Pad1)*%
%TO.C,J3*%
X-48205000Y55749000D03*
D15*
%TO.N,/A16*%
X-48205000Y53209000D03*
%TO.N,/A15*%
X-48205000Y50669000D03*
%TO.N,/A12*%
X-48205000Y48129000D03*
%TO.N,/A7*%
X-48205000Y45589000D03*
%TO.N,/A6*%
X-48205000Y43049000D03*
%TO.N,/A5*%
X-48205000Y40509000D03*
%TO.N,/A4*%
X-48205000Y37969000D03*
%TO.N,/A3*%
X-48205000Y35429000D03*
%TO.N,/A2*%
X-48205000Y32889000D03*
%TO.N,/A1*%
X-48205000Y30349000D03*
%TO.N,/A0*%
X-48205000Y27809000D03*
%TO.N,/BUF_D0*%
X-48205000Y25269000D03*
%TO.N,/BUF_D1*%
X-48205000Y22729000D03*
%TO.N,/BUF_D2*%
X-48205000Y20189000D03*
%TO.N,GND*%
X-48205000Y17649000D03*
%TD*%
D16*
%TO.N,GND*%
X-45755000Y37299000D03*
X-40005000Y36849000D03*
X-44460000Y54765000D03*
X-39399500Y41649000D03*
X-45905000Y26051000D03*
X-41005000Y36849000D03*
X-41605000Y36849000D03*
X-41305000Y21899000D03*
X-45984000Y49558000D03*
X-45305000Y35827000D03*
X-42280000Y17699000D03*
X-40205000Y21874000D03*
X-40755000Y19949000D03*
X-45984000Y48288000D03*
X-34252752Y31245017D03*
X-45412534Y55395233D03*
X-37105000Y35749000D03*
X-36305000Y39449000D03*
X-45984000Y48923000D03*
X-39305000Y21924000D03*
X-35655000Y18399000D03*
X-41305000Y26399000D03*
X-44206000Y55400000D03*
X-36205000Y35749000D03*
X-43825000Y54892000D03*
%TO.N,+3V3*%
X-43190000Y47526000D03*
X-35205000Y33349000D03*
X-45305000Y33287000D03*
X-36205000Y33349000D03*
X-45905000Y28549000D03*
X-34055000Y29349000D03*
X-40105000Y33749000D03*
X-43825000Y47526000D03*
X-44755000Y41299000D03*
X-39705000Y33249000D03*
X-42555000Y47526000D03*
X-40055000Y24074000D03*
%TO.N,/~{USB_BOOT}*%
X-40845000Y42279000D03*
%TO.N,/A16*%
X-38905000Y24324000D03*
%TO.N,/A15*%
X-49305000Y26349000D03*
X-42155000Y26374000D03*
%TO.N,/A7*%
X-44895000Y28369000D03*
%TO.N,/A6*%
X-44788222Y29009665D03*
%TO.N,/A5*%
X-44886941Y29651622D03*
%TO.N,/A4*%
X-46255000Y36549000D03*
%TO.N,/A3*%
X-44907246Y30300807D03*
%TO.N,/A2*%
X-45395966Y30728599D03*
%TO.N,/A1*%
X-45895000Y30229000D03*
%TO.N,/A0*%
X-46435419Y29868721D03*
%TO.N,/D0*%
X-37955000Y27999000D03*
X-38030000Y23799000D03*
%TO.N,/D1*%
X-37980000Y28799000D03*
X-37355000Y23649000D03*
%TO.N,/D2*%
X-37105000Y22949000D03*
X-37980000Y29549000D03*
%TO.N,/A14*%
X-42655000Y24249000D03*
%TO.N,/A13*%
X-48930000Y49449000D03*
%TO.N,/A8*%
X-44625000Y44769000D03*
%TO.N,/A9*%
X-45995000Y44129000D03*
%TO.N,/A11*%
X-42835000Y28089000D03*
%TO.N,/A10*%
X-42905000Y27329000D03*
%TO.N,/D7*%
X-34930000Y20799000D03*
X-35230000Y31324000D03*
%TO.N,/D6*%
X-35105000Y30624000D03*
X-35580000Y21174000D03*
%TO.N,/D5*%
X-36011506Y21659444D03*
X-35510741Y30116824D03*
%TO.N,/D4*%
X-35980000Y29549000D03*
X-36030000Y22424000D03*
%TO.N,/D3*%
X-37755000Y30774000D03*
X-36755000Y22374000D03*
%TO.N,/BUF_D7*%
X-35355000Y17699000D03*
%TO.N,/BUF_D6*%
X-34965298Y17179398D03*
%TO.N,/~{BUF_OE}*%
X-34049259Y26906176D03*
X-36114267Y17939733D03*
%TO.N,/INFO_LED*%
X-34455000Y26399000D03*
X-33605497Y31299000D03*
%TD*%
%TA.AperFunction,Conductor*%
%TO.N,GND*%
G36*
X-31898120Y57501925D02*
G01*
X-31840719Y57496284D01*
X-31738034Y57486193D01*
X-31713812Y57481379D01*
X-31568794Y57437418D01*
X-31545969Y57427969D01*
X-31412307Y57356553D01*
X-31391769Y57342834D01*
X-31274613Y57246715D01*
X-31257145Y57229252D01*
X-31160995Y57112119D01*
X-31147269Y57091581D01*
X-31075821Y56957940D01*
X-31066366Y56935117D01*
X-31022370Y56790112D01*
X-31017549Y56765884D01*
X-31001804Y56606088D01*
X-31001500Y56599906D01*
X-31001500Y16842095D01*
X-31001804Y16835916D01*
X-31017568Y16675868D01*
X-31022386Y16651644D01*
X-31066368Y16506651D01*
X-31075821Y16483829D01*
X-31147243Y16350210D01*
X-31160965Y16329674D01*
X-31257084Y16212551D01*
X-31274551Y16195084D01*
X-31391674Y16098965D01*
X-31412210Y16085243D01*
X-31471431Y16053589D01*
X-31545832Y16013820D01*
X-31568651Y16004368D01*
X-31713644Y15960386D01*
X-31737868Y15955568D01*
X-31897914Y15939804D01*
X-31904094Y15939500D01*
X-49001130Y15939500D01*
X-49001142Y15939501D01*
X-49055795Y15939501D01*
X-49061973Y15939804D01*
X-49222030Y15955567D01*
X-49246258Y15960386D01*
X-49391258Y16004373D01*
X-49414079Y16013826D01*
X-49547709Y16085256D01*
X-49568247Y16098980D01*
X-49685377Y16195112D01*
X-49702842Y16212578D01*
X-49798965Y16329716D01*
X-49812685Y16350252D01*
X-49884106Y16483893D01*
X-49893555Y16506709D01*
X-49937532Y16651722D01*
X-49942346Y16675936D01*
X-49958079Y16835819D01*
X-49958381Y16841986D01*
X-49958378Y16871591D01*
X-49958376Y16886684D01*
X-49958377Y16886687D01*
X-49958327Y17395000D01*
X-49541545Y17395000D01*
X-49493824Y17206551D01*
X-49493821Y17206544D01*
X-49403420Y17000452D01*
X-49280326Y16812042D01*
X-49127903Y16646466D01*
X-48950302Y16508233D01*
X-48950301Y16508232D01*
X-48752372Y16401118D01*
X-48752370Y16401117D01*
X-48539517Y16328045D01*
X-48539508Y16328043D01*
X-48459000Y16314609D01*
X-48459000Y17215326D01*
X-48347315Y17164320D01*
X-48240763Y17149000D01*
X-48169237Y17149000D01*
X-48062685Y17164320D01*
X-47951000Y17215326D01*
X-47951000Y16314610D01*
X-47870493Y16328043D01*
X-47870484Y16328045D01*
X-47657631Y16401117D01*
X-47657629Y16401118D01*
X-47459700Y16508232D01*
X-47459699Y16508233D01*
X-47282098Y16646466D01*
X-47129675Y16812042D01*
X-47006581Y17000452D01*
X-46916180Y17206544D01*
X-46916177Y17206551D01*
X-46868456Y17395000D01*
X-47773884Y17395000D01*
X-47745507Y17439156D01*
X-47705000Y17577111D01*
X-47705000Y17720889D01*
X-47745507Y17858844D01*
X-47773884Y17903000D01*
X-46868456Y17903000D01*
X-46868456Y17903001D01*
X-46877758Y17939733D01*
X-36569400Y17939733D01*
X-36550964Y17811507D01*
X-36497149Y17693670D01*
X-36431579Y17617997D01*
X-36412316Y17595766D01*
X-36309164Y17529474D01*
X-36303336Y17525729D01*
X-36179039Y17489233D01*
X-36179035Y17489233D01*
X-36049499Y17489233D01*
X-36049495Y17489233D01*
X-35925198Y17525729D01*
X-35925191Y17525734D01*
X-35916999Y17529474D01*
X-35916009Y17527304D01*
X-35860302Y17543666D01*
X-35792180Y17523669D01*
X-35745683Y17470018D01*
X-35737882Y17452937D01*
X-35687680Y17395000D01*
X-35653049Y17355033D01*
X-35579278Y17307623D01*
X-35544069Y17284996D01*
X-35508529Y17274561D01*
X-35448803Y17236178D01*
X-35419310Y17171597D01*
X-35419309Y17171597D01*
X-35401995Y17051172D01*
X-35348180Y16933335D01*
X-35263347Y16835431D01*
X-35154367Y16765394D01*
X-35030070Y16728898D01*
X-35030066Y16728898D01*
X-34900530Y16728898D01*
X-34900526Y16728898D01*
X-34776229Y16765394D01*
X-34667249Y16835431D01*
X-34582416Y16933335D01*
X-34528601Y17051172D01*
X-34510165Y17179398D01*
X-34528601Y17307624D01*
X-34582416Y17425461D01*
X-34667249Y17523365D01*
X-34667250Y17523366D01*
X-34776225Y17593400D01*
X-34776228Y17593401D01*
X-34776229Y17593402D01*
X-34811773Y17603839D01*
X-34833802Y17617997D01*
X-33821583Y17617997D01*
X-33801302Y17412073D01*
X-33741232Y17214046D01*
X-33654174Y17051172D01*
X-33643685Y17031550D01*
X-33512410Y16871590D01*
X-33352450Y16740315D01*
X-33169954Y16642768D01*
X-32971934Y16582700D01*
X-32971930Y16582700D01*
X-32971928Y16582699D01*
X-32766003Y16562417D01*
X-32766000Y16562417D01*
X-32765997Y16562417D01*
X-32560073Y16582699D01*
X-32560072Y16582700D01*
X-32560066Y16582700D01*
X-32362046Y16642768D01*
X-32179550Y16740315D01*
X-32019590Y16871590D01*
X-31888315Y17031550D01*
X-31790768Y17214046D01*
X-31730700Y17412066D01*
X-31729380Y17425461D01*
X-31710417Y17617997D01*
X-31710417Y17618004D01*
X-31730699Y17823928D01*
X-31730700Y17823930D01*
X-31730700Y17823934D01*
X-31790768Y18021954D01*
X-31888315Y18204450D01*
X-32019590Y18364410D01*
X-32179550Y18495685D01*
X-32179552Y18495686D01*
X-32179553Y18495687D01*
X-32362046Y18593232D01*
X-32560073Y18653302D01*
X-32765997Y18673583D01*
X-32766003Y18673583D01*
X-32971928Y18653302D01*
X-33169955Y18593232D01*
X-33352448Y18495687D01*
X-33512410Y18364410D01*
X-33643687Y18204448D01*
X-33741232Y18021955D01*
X-33801302Y17823928D01*
X-33821583Y17618004D01*
X-33821583Y17617997D01*
X-34833802Y17617997D01*
X-34871497Y17642223D01*
X-34900989Y17706800D01*
X-34918303Y17827226D01*
X-34972118Y17945063D01*
X-35056951Y18042967D01*
X-35056952Y18042968D01*
X-35165927Y18113002D01*
X-35165930Y18113004D01*
X-35165931Y18113004D01*
X-35165934Y18113005D01*
X-35290224Y18149499D01*
X-35290226Y18149500D01*
X-35290228Y18149500D01*
X-35419772Y18149500D01*
X-35419775Y18149500D01*
X-35419777Y18149499D01*
X-35544067Y18113005D01*
X-35552268Y18109259D01*
X-35553257Y18111424D01*
X-35608999Y18095068D01*
X-35677116Y18115083D01*
X-35723590Y18168727D01*
X-35731385Y18185796D01*
X-35816218Y18283700D01*
X-35816219Y18283701D01*
X-35925194Y18353735D01*
X-35925197Y18353737D01*
X-35925198Y18353737D01*
X-35925201Y18353738D01*
X-36049491Y18390232D01*
X-36049493Y18390233D01*
X-36049495Y18390233D01*
X-36179039Y18390233D01*
X-36179042Y18390233D01*
X-36179044Y18390232D01*
X-36303334Y18353738D01*
X-36303341Y18353735D01*
X-36412316Y18283701D01*
X-36480987Y18204448D01*
X-36497149Y18185796D01*
X-36550964Y18067959D01*
X-36569400Y17939733D01*
X-46877758Y17939733D01*
X-46916177Y18091450D01*
X-46916180Y18091457D01*
X-47006581Y18297549D01*
X-47129675Y18485959D01*
X-47282098Y18651535D01*
X-47459699Y18789768D01*
X-47459700Y18789769D01*
X-47657629Y18896883D01*
X-47657632Y18896884D01*
X-47846231Y18961630D01*
X-47904166Y19002667D01*
X-47930718Y19068512D01*
X-47917456Y19138259D01*
X-47868592Y19189764D01*
X-47841895Y19201377D01*
X-47801046Y19213768D01*
X-47618550Y19311315D01*
X-47458590Y19442590D01*
X-47327315Y19602550D01*
X-47229768Y19785046D01*
X-47169700Y19983066D01*
X-47152470Y20157997D01*
X-33821583Y20157997D01*
X-33801302Y19952073D01*
X-33801301Y19952067D01*
X-33801300Y19952066D01*
X-33741232Y19754046D01*
X-33643685Y19571550D01*
X-33512410Y19411590D01*
X-33352450Y19280315D01*
X-33169954Y19182768D01*
X-32971934Y19122700D01*
X-32971930Y19122700D01*
X-32971928Y19122699D01*
X-32766003Y19102417D01*
X-32766000Y19102417D01*
X-32765997Y19102417D01*
X-32560073Y19122699D01*
X-32560072Y19122700D01*
X-32560066Y19122700D01*
X-32362046Y19182768D01*
X-32179550Y19280315D01*
X-32019590Y19411590D01*
X-31888315Y19571550D01*
X-31790768Y19754046D01*
X-31730700Y19952066D01*
X-31727646Y19983066D01*
X-31710417Y20157997D01*
X-31710417Y20158004D01*
X-31730699Y20363928D01*
X-31730700Y20363930D01*
X-31730700Y20363934D01*
X-31790768Y20561954D01*
X-31888315Y20744450D01*
X-32019590Y20904410D01*
X-32179550Y21035685D01*
X-32179552Y21035686D01*
X-32179553Y21035687D01*
X-32362046Y21133232D01*
X-32560073Y21193302D01*
X-32765997Y21213583D01*
X-32766003Y21213583D01*
X-32971928Y21193302D01*
X-33169955Y21133232D01*
X-33352448Y21035687D01*
X-33512410Y20904410D01*
X-33643687Y20744448D01*
X-33741232Y20561955D01*
X-33801302Y20363928D01*
X-33821583Y20158004D01*
X-33821583Y20157997D01*
X-47152470Y20157997D01*
X-47149417Y20188997D01*
X-47149417Y20189004D01*
X-47169699Y20394928D01*
X-47169700Y20394930D01*
X-47169700Y20394934D01*
X-47229768Y20592954D01*
X-47327315Y20775450D01*
X-47458590Y20935410D01*
X-47618550Y21066685D01*
X-47618552Y21066686D01*
X-47618553Y21066687D01*
X-47801046Y21164232D01*
X-47860612Y21182301D01*
X-47999066Y21224300D01*
X-47999067Y21224301D01*
X-47999073Y21224302D01*
X-48204997Y21244583D01*
X-48205003Y21244583D01*
X-48410928Y21224302D01*
X-48608955Y21164232D01*
X-48791448Y21066687D01*
X-48951410Y20935410D01*
X-49082687Y20775448D01*
X-49180232Y20592955D01*
X-49240302Y20394928D01*
X-49260583Y20189004D01*
X-49260583Y20188997D01*
X-49240302Y19983073D01*
X-49240301Y19983067D01*
X-49240300Y19983066D01*
X-49180232Y19785046D01*
X-49082685Y19602550D01*
X-48951410Y19442590D01*
X-48791450Y19311315D01*
X-48608954Y19213768D01*
X-48568107Y19201378D01*
X-48508726Y19162464D01*
X-48479810Y19097623D01*
X-48490539Y19027442D01*
X-48537508Y18974202D01*
X-48563769Y18961630D01*
X-48752372Y18896882D01*
X-48950301Y18789769D01*
X-48950302Y18789768D01*
X-49127903Y18651535D01*
X-49280326Y18485959D01*
X-49403420Y18297549D01*
X-49493821Y18091457D01*
X-49493824Y18091450D01*
X-49541545Y17903001D01*
X-49541544Y17903000D01*
X-48636116Y17903000D01*
X-48664493Y17858844D01*
X-48705000Y17720889D01*
X-48705000Y17577111D01*
X-48664493Y17439156D01*
X-48636116Y17395000D01*
X-49541545Y17395000D01*
X-49958327Y17395000D01*
X-49957798Y22728997D01*
X-49260583Y22728997D01*
X-49240302Y22523073D01*
X-49240301Y22523067D01*
X-49240300Y22523066D01*
X-49230898Y22492073D01*
X-49180232Y22325046D01*
X-49101601Y22177938D01*
X-49082685Y22142550D01*
X-48951410Y21982590D01*
X-48791450Y21851315D01*
X-48608954Y21753768D01*
X-48410934Y21693700D01*
X-48410930Y21693700D01*
X-48410928Y21693699D01*
X-48205003Y21673417D01*
X-48205000Y21673417D01*
X-48204997Y21673417D01*
X-47999073Y21693699D01*
X-47999072Y21693700D01*
X-47999066Y21693700D01*
X-47801046Y21753768D01*
X-47618550Y21851315D01*
X-47458590Y21982590D01*
X-47327315Y22142550D01*
X-47229768Y22325046D01*
X-47169700Y22523066D01*
X-47168893Y22531252D01*
X-47149417Y22728997D01*
X-47149417Y22729004D01*
X-47169699Y22934928D01*
X-47169700Y22934930D01*
X-47169700Y22934934D01*
X-47229768Y23132954D01*
X-47327315Y23315450D01*
X-47458590Y23475410D01*
X-47618550Y23606685D01*
X-47618552Y23606686D01*
X-47618553Y23606687D01*
X-47801046Y23704232D01*
X-47886102Y23730033D01*
X-47999066Y23764300D01*
X-47999067Y23764301D01*
X-47999073Y23764302D01*
X-48204997Y23784583D01*
X-48205003Y23784583D01*
X-48410928Y23764302D01*
X-48608955Y23704232D01*
X-48791448Y23606687D01*
X-48951410Y23475410D01*
X-49082687Y23315448D01*
X-49180232Y23132955D01*
X-49240302Y22934928D01*
X-49260583Y22729004D01*
X-49260583Y22728997D01*
X-49957798Y22728997D01*
X-49957462Y26114036D01*
X-49937453Y26182151D01*
X-49883793Y26228639D01*
X-49813518Y26238736D01*
X-49748940Y26209236D01*
X-49716849Y26166363D01*
X-49687885Y26102942D01*
X-49687884Y26102940D01*
X-49687883Y26102939D01*
X-49687882Y26102937D01*
X-49603049Y26005033D01*
X-49494069Y25934996D01*
X-49369772Y25898500D01*
X-49369768Y25898500D01*
X-49269893Y25898500D01*
X-49201772Y25878498D01*
X-49155279Y25824842D01*
X-49145175Y25754568D01*
X-49158770Y25713107D01*
X-49180231Y25672955D01*
X-49180233Y25672952D01*
X-49240302Y25474928D01*
X-49260583Y25269004D01*
X-49260583Y25268997D01*
X-49240302Y25063073D01*
X-49240301Y25063067D01*
X-49240300Y25063066D01*
X-49180232Y24865046D01*
X-49082685Y24682550D01*
X-48951410Y24522590D01*
X-48791450Y24391315D01*
X-48608954Y24293768D01*
X-48410934Y24233700D01*
X-48410930Y24233700D01*
X-48410928Y24233699D01*
X-48205003Y24213417D01*
X-48205000Y24213417D01*
X-48204997Y24213417D01*
X-47999073Y24233699D01*
X-47999072Y24233700D01*
X-47999066Y24233700D01*
X-47948628Y24249000D01*
X-43110133Y24249000D01*
X-43091697Y24120774D01*
X-43037882Y24002937D01*
X-42972279Y23927226D01*
X-42953049Y23905033D01*
X-42917060Y23881904D01*
X-42844069Y23834996D01*
X-42719772Y23798500D01*
X-42719768Y23798500D01*
X-42590232Y23798500D01*
X-42590228Y23798500D01*
X-42465931Y23834996D01*
X-42356951Y23905033D01*
X-42272118Y24002937D01*
X-42239664Y24074000D01*
X-40510133Y24074000D01*
X-40491697Y23945774D01*
X-40437882Y23827937D01*
X-40353049Y23730033D01*
X-40244069Y23659996D01*
X-40119772Y23623500D01*
X-40119768Y23623500D01*
X-39990232Y23623500D01*
X-39990228Y23623500D01*
X-39865931Y23659996D01*
X-39756951Y23730033D01*
X-39672118Y23827937D01*
X-39618303Y23945774D01*
X-39599867Y24074000D01*
X-39618303Y24202226D01*
X-39672118Y24320063D01*
X-39675529Y24324000D01*
X-39360133Y24324000D01*
X-39341697Y24195774D01*
X-39287882Y24077937D01*
X-39222896Y24002938D01*
X-39203049Y23980033D01*
X-39120880Y23927226D01*
X-39094069Y23909996D01*
X-38969772Y23873500D01*
X-38969768Y23873500D01*
X-38840232Y23873500D01*
X-38840228Y23873500D01*
X-38715931Y23909996D01*
X-38676155Y23935559D01*
X-38608036Y23955561D01*
X-38539915Y23935559D01*
X-38493422Y23881904D01*
X-38483317Y23811631D01*
X-38485133Y23799000D01*
X-38466697Y23670774D01*
X-38412882Y23552937D01*
X-38328049Y23455033D01*
X-38219069Y23384996D01*
X-38094772Y23348500D01*
X-38094768Y23348500D01*
X-37965232Y23348500D01*
X-37965228Y23348500D01*
X-37840931Y23384996D01*
X-37840931Y23384997D01*
X-37832284Y23387535D01*
X-37831846Y23386043D01*
X-37771488Y23394722D01*
X-37706907Y23365230D01*
X-37694193Y23352515D01*
X-37653052Y23305034D01*
X-37578381Y23257047D01*
X-37531888Y23203392D01*
X-37521783Y23133118D01*
X-37531887Y23098708D01*
X-37541696Y23077230D01*
X-37541697Y23077227D01*
X-37541697Y23077226D01*
X-37560133Y22949000D01*
X-37541697Y22820774D01*
X-37487882Y22702937D01*
X-37457720Y22668128D01*
X-37403049Y22605033D01*
X-37294069Y22534996D01*
X-37285871Y22531252D01*
X-37286658Y22529531D01*
X-37236357Y22497206D01*
X-37206862Y22432626D01*
X-37206861Y22396762D01*
X-37210133Y22374003D01*
X-37210133Y22374000D01*
X-37191697Y22245774D01*
X-37137882Y22127937D01*
X-37053049Y22030033D01*
X-36944069Y21959996D01*
X-36819772Y21923500D01*
X-36819768Y21923500D01*
X-36690232Y21923500D01*
X-36690228Y21923500D01*
X-36603122Y21949076D01*
X-36532130Y21949076D01*
X-36472404Y21910693D01*
X-36442911Y21846112D01*
X-36446731Y21792685D01*
X-36448202Y21787677D01*
X-36457534Y21722768D01*
X-36466639Y21659444D01*
X-36448203Y21531218D01*
X-36394388Y21413381D01*
X-36309555Y21315477D01*
X-36200575Y21245440D01*
X-36116261Y21220684D01*
X-36056535Y21182301D01*
X-36027042Y21117720D01*
X-36016699Y21045781D01*
X-36016698Y21045777D01*
X-36016698Y21045776D01*
X-36016697Y21045774D01*
X-35962882Y20927937D01*
X-35878049Y20830033D01*
X-35769069Y20759996D01*
X-35644772Y20723500D01*
X-35644768Y20723500D01*
X-35515232Y20723500D01*
X-35515228Y20723500D01*
X-35510253Y20724962D01*
X-35439258Y20724965D01*
X-35379530Y20686584D01*
X-35360139Y20656413D01*
X-35312882Y20552937D01*
X-35228049Y20455033D01*
X-35119069Y20384996D01*
X-34994772Y20348500D01*
X-34994768Y20348500D01*
X-34865232Y20348500D01*
X-34865228Y20348500D01*
X-34740931Y20384996D01*
X-34631951Y20455033D01*
X-34547118Y20552937D01*
X-34493303Y20670774D01*
X-34474867Y20799000D01*
X-34493303Y20927226D01*
X-34547118Y21045063D01*
X-34631951Y21142967D01*
X-34631952Y21142968D01*
X-34740927Y21213002D01*
X-34740930Y21213004D01*
X-34740931Y21213004D01*
X-34767087Y21220684D01*
X-34865224Y21249499D01*
X-34865226Y21249500D01*
X-34865228Y21249500D01*
X-34994772Y21249500D01*
X-34994774Y21249500D01*
X-34994780Y21249499D01*
X-34999757Y21248037D01*
X-35070754Y21248039D01*
X-35130478Y21286425D01*
X-35149861Y21316586D01*
X-35197118Y21420063D01*
X-35281951Y21517967D01*
X-35281952Y21517968D01*
X-35390927Y21588002D01*
X-35390929Y21588003D01*
X-35390931Y21588004D01*
X-35454324Y21606618D01*
X-35475247Y21612761D01*
X-35534973Y21651145D01*
X-35564465Y21715724D01*
X-35574809Y21787670D01*
X-35628624Y21905507D01*
X-35684406Y21969884D01*
X-35713898Y22034463D01*
X-35703793Y22104737D01*
X-35684408Y22134902D01*
X-35647118Y22177937D01*
X-35593303Y22295774D01*
X-35574867Y22424000D01*
X-35593303Y22552226D01*
X-35647118Y22670063D01*
X-35671323Y22697997D01*
X-33821583Y22697997D01*
X-33801302Y22492073D01*
X-33741232Y22294046D01*
X-33679171Y22177938D01*
X-33643685Y22111550D01*
X-33512410Y21951590D01*
X-33352450Y21820315D01*
X-33169954Y21722768D01*
X-32971934Y21662700D01*
X-32971930Y21662700D01*
X-32971928Y21662699D01*
X-32766003Y21642417D01*
X-32766000Y21642417D01*
X-32765997Y21642417D01*
X-32560073Y21662699D01*
X-32560072Y21662700D01*
X-32560066Y21662700D01*
X-32362046Y21722768D01*
X-32179550Y21820315D01*
X-32019590Y21951590D01*
X-31888315Y22111550D01*
X-31790768Y22294046D01*
X-31730700Y22492066D01*
X-31730193Y22497206D01*
X-31710417Y22697997D01*
X-31710417Y22698004D01*
X-31730699Y22903928D01*
X-31730700Y22903930D01*
X-31730700Y22903934D01*
X-31790768Y23101954D01*
X-31888315Y23284450D01*
X-32019590Y23444410D01*
X-32179550Y23575685D01*
X-32179552Y23575686D01*
X-32179553Y23575687D01*
X-32362046Y23673232D01*
X-32560073Y23733302D01*
X-32765997Y23753583D01*
X-32766003Y23753583D01*
X-32971928Y23733302D01*
X-33169955Y23673232D01*
X-33352448Y23575687D01*
X-33512410Y23444410D01*
X-33643687Y23284448D01*
X-33741232Y23101955D01*
X-33801302Y22903928D01*
X-33821583Y22698004D01*
X-33821583Y22697997D01*
X-35671323Y22697997D01*
X-35731951Y22767967D01*
X-35731952Y22767968D01*
X-35840927Y22838002D01*
X-35840930Y22838004D01*
X-35840931Y22838004D01*
X-35840934Y22838005D01*
X-35965224Y22874499D01*
X-35965226Y22874500D01*
X-35965228Y22874500D01*
X-36094772Y22874500D01*
X-36094775Y22874500D01*
X-36094777Y22874499D01*
X-36219067Y22838005D01*
X-36219074Y22838002D01*
X-36328052Y22767967D01*
X-36328054Y22767965D01*
X-36330495Y22765147D01*
X-36333629Y22763134D01*
X-36334863Y22762064D01*
X-36335017Y22762242D01*
X-36390224Y22726769D01*
X-36461221Y22726775D01*
X-36493832Y22741670D01*
X-36565926Y22788002D01*
X-36574126Y22791746D01*
X-36573341Y22793466D01*
X-36623652Y22825804D01*
X-36653141Y22890387D01*
X-36653139Y22926243D01*
X-36649867Y22949000D01*
X-36668303Y23077226D01*
X-36722118Y23195063D01*
X-36806951Y23292967D01*
X-36806952Y23292968D01*
X-36881620Y23340954D01*
X-36928113Y23394609D01*
X-36938218Y23464883D01*
X-36928114Y23499293D01*
X-36918303Y23520774D01*
X-36899867Y23649000D01*
X-36918303Y23777226D01*
X-36972118Y23895063D01*
X-37056951Y23992967D01*
X-37056952Y23992968D01*
X-37165927Y24063002D01*
X-37165930Y24063004D01*
X-37165931Y24063004D01*
X-37165934Y24063005D01*
X-37290224Y24099499D01*
X-37290226Y24099500D01*
X-37290228Y24099500D01*
X-37419772Y24099500D01*
X-37419774Y24099500D01*
X-37419779Y24099499D01*
X-37552716Y24060466D01*
X-37553154Y24061957D01*
X-37613525Y24053281D01*
X-37678104Y24082780D01*
X-37690808Y24095486D01*
X-37731949Y24142967D01*
X-37840927Y24213002D01*
X-37840930Y24213004D01*
X-37840931Y24213004D01*
X-37840934Y24213005D01*
X-37965224Y24249499D01*
X-37965226Y24249500D01*
X-37965228Y24249500D01*
X-38094772Y24249500D01*
X-38094775Y24249500D01*
X-38094777Y24249499D01*
X-38219067Y24213005D01*
X-38219073Y24213002D01*
X-38258847Y24187441D01*
X-38326968Y24167440D01*
X-38395089Y24187443D01*
X-38441581Y24241100D01*
X-38451683Y24311372D01*
X-38449867Y24324000D01*
X-38468303Y24452226D01*
X-38522118Y24570063D01*
X-38606951Y24667967D01*
X-38606952Y24667968D01*
X-38715927Y24738002D01*
X-38715930Y24738004D01*
X-38715931Y24738004D01*
X-38715934Y24738005D01*
X-38840224Y24774499D01*
X-38840226Y24774500D01*
X-38840228Y24774500D01*
X-38969772Y24774500D01*
X-38969775Y24774500D01*
X-38969777Y24774499D01*
X-39094067Y24738005D01*
X-39094074Y24738002D01*
X-39203049Y24667968D01*
X-39268035Y24592968D01*
X-39287882Y24570063D01*
X-39341697Y24452226D01*
X-39360133Y24324000D01*
X-39675529Y24324000D01*
X-39756951Y24417967D01*
X-39756952Y24417968D01*
X-39865927Y24488002D01*
X-39865930Y24488004D01*
X-39865931Y24488004D01*
X-39889972Y24495063D01*
X-39990224Y24524499D01*
X-39990226Y24524500D01*
X-39990228Y24524500D01*
X-40119772Y24524500D01*
X-40119775Y24524500D01*
X-40119777Y24524499D01*
X-40244067Y24488005D01*
X-40244074Y24488002D01*
X-40353049Y24417968D01*
X-40376143Y24391315D01*
X-40437882Y24320063D01*
X-40491697Y24202226D01*
X-40510133Y24074000D01*
X-42239664Y24074000D01*
X-42218303Y24120774D01*
X-42199867Y24249000D01*
X-42218303Y24377226D01*
X-42272118Y24495063D01*
X-42356951Y24592967D01*
X-42356952Y24592968D01*
X-42465927Y24663002D01*
X-42465930Y24663004D01*
X-42465931Y24663004D01*
X-42465934Y24663005D01*
X-42590224Y24699499D01*
X-42590226Y24699500D01*
X-42590228Y24699500D01*
X-42719772Y24699500D01*
X-42719775Y24699500D01*
X-42719777Y24699499D01*
X-42844067Y24663005D01*
X-42844074Y24663002D01*
X-42953049Y24592968D01*
X-43012375Y24524500D01*
X-43037882Y24495063D01*
X-43091697Y24377226D01*
X-43110133Y24249000D01*
X-47948628Y24249000D01*
X-47801046Y24293768D01*
X-47618550Y24391315D01*
X-47458590Y24522590D01*
X-47327315Y24682550D01*
X-47229768Y24865046D01*
X-47169700Y25063066D01*
X-47152470Y25237997D01*
X-33821583Y25237997D01*
X-33801302Y25032073D01*
X-33741232Y24834046D01*
X-33649807Y24663002D01*
X-33643685Y24651550D01*
X-33512410Y24491590D01*
X-33352450Y24360315D01*
X-33169954Y24262768D01*
X-32971934Y24202700D01*
X-32971930Y24202700D01*
X-32971928Y24202699D01*
X-32766003Y24182417D01*
X-32766000Y24182417D01*
X-32765997Y24182417D01*
X-32560073Y24202699D01*
X-32560072Y24202700D01*
X-32560066Y24202700D01*
X-32362046Y24262768D01*
X-32179550Y24360315D01*
X-32019590Y24491590D01*
X-31888315Y24651550D01*
X-31790768Y24834046D01*
X-31730700Y25032066D01*
X-31727646Y25063066D01*
X-31710417Y25237997D01*
X-31710417Y25238004D01*
X-31730699Y25443928D01*
X-31730700Y25443930D01*
X-31730700Y25443934D01*
X-31790768Y25641954D01*
X-31888315Y25824450D01*
X-32019590Y25984410D01*
X-32179550Y26115685D01*
X-32179552Y26115686D01*
X-32179553Y26115687D01*
X-32362046Y26213232D01*
X-32386909Y26220774D01*
X-32560066Y26273300D01*
X-32560067Y26273301D01*
X-32560073Y26273302D01*
X-32765997Y26293583D01*
X-32766003Y26293583D01*
X-32971928Y26273302D01*
X-33169955Y26213232D01*
X-33352448Y26115687D01*
X-33512410Y25984410D01*
X-33643687Y25824448D01*
X-33741232Y25641955D01*
X-33801302Y25443928D01*
X-33821583Y25238004D01*
X-33821583Y25237997D01*
X-47152470Y25237997D01*
X-47149417Y25268997D01*
X-47149417Y25269004D01*
X-47169699Y25474928D01*
X-47169700Y25474930D01*
X-47169700Y25474934D01*
X-47229768Y25672954D01*
X-47327315Y25855450D01*
X-47458590Y26015410D01*
X-47618550Y26146685D01*
X-47618552Y26146686D01*
X-47618553Y26146687D01*
X-47801046Y26244232D01*
X-47888551Y26270776D01*
X-47999066Y26304300D01*
X-47999067Y26304301D01*
X-47999073Y26304302D01*
X-48204997Y26324583D01*
X-48205003Y26324583D01*
X-48410928Y26304302D01*
X-48608953Y26244233D01*
X-48666701Y26213366D01*
X-48736207Y26198895D01*
X-48802503Y26224299D01*
X-48844540Y26281513D01*
X-48850813Y26342423D01*
X-48849867Y26349000D01*
X-48853461Y26374000D01*
X-42610133Y26374000D01*
X-42591697Y26245774D01*
X-42537882Y26127937D01*
X-42453049Y26030033D01*
X-42344069Y25959996D01*
X-42219772Y25923500D01*
X-42219768Y25923500D01*
X-42090232Y25923500D01*
X-42090228Y25923500D01*
X-41965931Y25959996D01*
X-41856951Y26030033D01*
X-41772118Y26127937D01*
X-41718303Y26245774D01*
X-41699867Y26374000D01*
X-41703461Y26399000D01*
X-34910133Y26399000D01*
X-34891697Y26270774D01*
X-34837882Y26152937D01*
X-34794560Y26102940D01*
X-34753049Y26055033D01*
X-34675248Y26005033D01*
X-34644069Y25984996D01*
X-34519772Y25948500D01*
X-34519768Y25948500D01*
X-34390232Y25948500D01*
X-34390228Y25948500D01*
X-34265931Y25984996D01*
X-34156951Y26055033D01*
X-34072118Y26152937D01*
X-34018303Y26270774D01*
X-34003561Y26373312D01*
X-33974069Y26437889D01*
X-33914347Y26476271D01*
X-33860190Y26492172D01*
X-33751210Y26562209D01*
X-33666377Y26660113D01*
X-33612562Y26777950D01*
X-33601192Y26857035D01*
X-33571700Y26921612D01*
X-33511975Y26959997D01*
X-33440978Y26959997D01*
X-33396545Y26936503D01*
X-33352450Y26900315D01*
X-33169954Y26802768D01*
X-32971934Y26742700D01*
X-32971930Y26742700D01*
X-32971928Y26742699D01*
X-32766003Y26722417D01*
X-32766000Y26722417D01*
X-32765997Y26722417D01*
X-32560073Y26742699D01*
X-32560072Y26742700D01*
X-32560066Y26742700D01*
X-32362046Y26802768D01*
X-32179550Y26900315D01*
X-32019590Y27031590D01*
X-31888315Y27191550D01*
X-31790768Y27374046D01*
X-31730700Y27572066D01*
X-31728955Y27589775D01*
X-31710417Y27777997D01*
X-31710417Y27778004D01*
X-31730699Y27983928D01*
X-31730700Y27983930D01*
X-31730700Y27983934D01*
X-31790768Y28181954D01*
X-31888315Y28364450D01*
X-32019590Y28524410D01*
X-32179550Y28655685D01*
X-32179552Y28655686D01*
X-32179553Y28655687D01*
X-32362046Y28753232D01*
X-32560073Y28813302D01*
X-32765997Y28833583D01*
X-32766003Y28833583D01*
X-32971928Y28813302D01*
X-33169955Y28753232D01*
X-33352448Y28655687D01*
X-33512410Y28524410D01*
X-33643687Y28364448D01*
X-33741232Y28181955D01*
X-33801302Y27983928D01*
X-33821583Y27778004D01*
X-33821583Y27777997D01*
X-33801302Y27572072D01*
X-33779362Y27499744D01*
X-33778729Y27428751D01*
X-33816579Y27368685D01*
X-33880895Y27338617D01*
X-33935433Y27342273D01*
X-33951545Y27347004D01*
X-33984487Y27356676D01*
X-34114031Y27356676D01*
X-34114034Y27356676D01*
X-34114036Y27356675D01*
X-34238326Y27320181D01*
X-34238333Y27320178D01*
X-34347308Y27250144D01*
X-34432141Y27152239D01*
X-34485957Y27034400D01*
X-34485958Y27034396D01*
X-34500699Y26931868D01*
X-34530192Y26867287D01*
X-34589917Y26828905D01*
X-34644069Y26813004D01*
X-34644071Y26813004D01*
X-34644074Y26813002D01*
X-34753049Y26742968D01*
X-34824841Y26660113D01*
X-34837882Y26645063D01*
X-34891697Y26527226D01*
X-34910133Y26399000D01*
X-41703461Y26399000D01*
X-41718303Y26502226D01*
X-41772118Y26620063D01*
X-41772120Y26620065D01*
X-41775862Y26628260D01*
X-41772374Y26629854D01*
X-41787346Y26680570D01*
X-41767444Y26748720D01*
X-41713856Y26795292D01*
X-41647239Y26805963D01*
X-41580000Y26798388D01*
X-41399071Y26818773D01*
X-41399063Y26818774D01*
X-41227201Y26878912D01*
X-41214565Y26886853D01*
X-40670437Y26886853D01*
X-40657800Y26878913D01*
X-40657799Y26878912D01*
X-40485938Y26818774D01*
X-40485930Y26818773D01*
X-40305001Y26798388D01*
X-40124071Y26818773D01*
X-40124063Y26818774D01*
X-39952201Y26878912D01*
X-39939565Y26886853D01*
X-39395437Y26886853D01*
X-39382800Y26878913D01*
X-39382799Y26878912D01*
X-39210938Y26818774D01*
X-39210930Y26818773D01*
X-39030001Y26798388D01*
X-38849071Y26818773D01*
X-38849063Y26818774D01*
X-38677201Y26878912D01*
X-38664565Y26886853D01*
X-38664564Y26886854D01*
X-39030000Y27252290D01*
X-39030001Y27252290D01*
X-39395437Y26886855D01*
X-39395437Y26886853D01*
X-39939565Y26886853D01*
X-39939564Y26886854D01*
X-40305000Y27252290D01*
X-40305001Y27252290D01*
X-40670437Y26886855D01*
X-40670437Y26886853D01*
X-41214565Y26886853D01*
X-41214564Y26886854D01*
X-41580000Y27252290D01*
X-41973640Y26858651D01*
X-42035952Y26824626D01*
X-42080879Y26826215D01*
X-42081309Y26823217D01*
X-42090225Y26824499D01*
X-42090228Y26824500D01*
X-42219772Y26824500D01*
X-42219775Y26824500D01*
X-42219777Y26824499D01*
X-42344067Y26788005D01*
X-42344074Y26788002D01*
X-42453049Y26717968D01*
X-42503178Y26660114D01*
X-42537882Y26620063D01*
X-42591697Y26502226D01*
X-42610133Y26374000D01*
X-48853461Y26374000D01*
X-48868303Y26477226D01*
X-48922118Y26595063D01*
X-49006951Y26692967D01*
X-49006952Y26692968D01*
X-49115927Y26763002D01*
X-49115930Y26763004D01*
X-49115931Y26763004D01*
X-49115934Y26763005D01*
X-49240224Y26799499D01*
X-49240226Y26799500D01*
X-49240228Y26799500D01*
X-49369772Y26799500D01*
X-49369775Y26799500D01*
X-49369777Y26799499D01*
X-49494067Y26763005D01*
X-49494074Y26763002D01*
X-49603049Y26692968D01*
X-49687884Y26595061D01*
X-49687885Y26595059D01*
X-49716802Y26531740D01*
X-49763295Y26478084D01*
X-49831416Y26458083D01*
X-49899537Y26478086D01*
X-49946029Y26531742D01*
X-49957415Y26584094D01*
X-49957293Y27808997D01*
X-49260583Y27808997D01*
X-49240302Y27603073D01*
X-49240301Y27603067D01*
X-49240300Y27603066D01*
X-49231805Y27575063D01*
X-49180232Y27405046D01*
X-49097435Y27250144D01*
X-49082685Y27222550D01*
X-48951410Y27062590D01*
X-48791450Y26931315D01*
X-48608954Y26833768D01*
X-48410934Y26773700D01*
X-48410930Y26773700D01*
X-48410928Y26773699D01*
X-48205003Y26753417D01*
X-48205000Y26753417D01*
X-48204997Y26753417D01*
X-47999073Y26773699D01*
X-47999072Y26773700D01*
X-47999066Y26773700D01*
X-47801046Y26833768D01*
X-47618550Y26931315D01*
X-47458590Y27062590D01*
X-47327315Y27222550D01*
X-47270416Y27329000D01*
X-43360133Y27329000D01*
X-43341697Y27200774D01*
X-43287882Y27082937D01*
X-43243391Y27031591D01*
X-43203049Y26985033D01*
X-43119461Y26931314D01*
X-43094069Y26914996D01*
X-42969772Y26878500D01*
X-42969768Y26878500D01*
X-42840232Y26878500D01*
X-42840228Y26878500D01*
X-42715931Y26914996D01*
X-42606951Y26985033D01*
X-42522118Y27082937D01*
X-42478569Y27178296D01*
X-42432078Y27231949D01*
X-42363958Y27251951D01*
X-42349846Y27251158D01*
X-42304648Y27246064D01*
X-41939212Y27611500D01*
X-41960937Y27633225D01*
X-41758923Y27633225D01*
X-41748525Y27547587D01*
X-41699519Y27476591D01*
X-41623134Y27436500D01*
X-41558753Y27436500D01*
X-41496240Y27451908D01*
X-41431668Y27509114D01*
X-41401077Y27589775D01*
X-41411475Y27675413D01*
X-41460481Y27746409D01*
X-41536866Y27786500D01*
X-41601247Y27786500D01*
X-41663760Y27771092D01*
X-41728332Y27713886D01*
X-41758923Y27633225D01*
X-41960937Y27633225D01*
X-42344026Y28016314D01*
X-42378051Y28078627D01*
X-42379649Y28087479D01*
X-42379868Y28088998D01*
X-42379867Y28089000D01*
X-42398303Y28217226D01*
X-42412814Y28249000D01*
X-41858290Y28249000D01*
X-40942501Y27333211D01*
X-40942500Y27333211D01*
X-40642486Y27633225D01*
X-40483923Y27633225D01*
X-40473525Y27547587D01*
X-40424519Y27476591D01*
X-40348134Y27436500D01*
X-40283753Y27436500D01*
X-40221240Y27451908D01*
X-40156668Y27509114D01*
X-40126077Y27589775D01*
X-40136475Y27675413D01*
X-40185481Y27746409D01*
X-40261866Y27786500D01*
X-40326247Y27786500D01*
X-40388760Y27771092D01*
X-40453332Y27713886D01*
X-40483923Y27633225D01*
X-40642486Y27633225D01*
X-40394096Y27881615D01*
X-40331784Y27915641D01*
X-40260969Y27910576D01*
X-40215906Y27881616D01*
X-39667501Y27333212D01*
X-39367487Y27633225D01*
X-39208923Y27633225D01*
X-39198525Y27547587D01*
X-39149519Y27476591D01*
X-39073134Y27436500D01*
X-39008753Y27436500D01*
X-38946240Y27451908D01*
X-38881668Y27509114D01*
X-38851077Y27589775D01*
X-38861475Y27675413D01*
X-38910481Y27746409D01*
X-38986866Y27786500D01*
X-39051247Y27786500D01*
X-39113760Y27771092D01*
X-39178332Y27713886D01*
X-39208923Y27633225D01*
X-39367487Y27633225D01*
X-39119097Y27881615D01*
X-39056784Y27915640D01*
X-38985969Y27910576D01*
X-38940906Y27881616D01*
X-38305354Y27246064D01*
X-38305353Y27246065D01*
X-38297412Y27258701D01*
X-38237274Y27430563D01*
X-38237272Y27430572D01*
X-38234239Y27457495D01*
X-38206737Y27522948D01*
X-38148214Y27563143D01*
X-38077251Y27565316D01*
X-38073594Y27564304D01*
X-38019772Y27548500D01*
X-38019768Y27548500D01*
X-37890232Y27548500D01*
X-37890228Y27548500D01*
X-37765931Y27584996D01*
X-37656951Y27655033D01*
X-37572118Y27752937D01*
X-37518303Y27870774D01*
X-37499867Y27999000D01*
X-37518303Y28127226D01*
X-37572118Y28245063D01*
X-37572120Y28245066D01*
X-37646508Y28330916D01*
X-37676001Y28395497D01*
X-37665896Y28465771D01*
X-37646512Y28495933D01*
X-37597118Y28552937D01*
X-37543303Y28670774D01*
X-37524867Y28799000D01*
X-37543303Y28927226D01*
X-37597118Y29045063D01*
X-37597120Y29045066D01*
X-37637346Y29091490D01*
X-37666839Y29156071D01*
X-37656734Y29226345D01*
X-37637351Y29256506D01*
X-37597118Y29302937D01*
X-37543303Y29420774D01*
X-37524867Y29549000D01*
X-36435133Y29549000D01*
X-36416697Y29420774D01*
X-36362882Y29302937D01*
X-36291690Y29220776D01*
X-36278049Y29205033D01*
X-36173576Y29137892D01*
X-36169069Y29134996D01*
X-36044772Y29098500D01*
X-36044768Y29098500D01*
X-35915232Y29098500D01*
X-35915228Y29098500D01*
X-35790931Y29134996D01*
X-35681951Y29205033D01*
X-35597118Y29302937D01*
X-35576081Y29349000D01*
X-34510133Y29349000D01*
X-34491697Y29220774D01*
X-34437882Y29102937D01*
X-34367239Y29021409D01*
X-34353049Y29005033D01*
X-34268059Y28950413D01*
X-34244069Y28934996D01*
X-34119772Y28898500D01*
X-34119768Y28898500D01*
X-33990232Y28898500D01*
X-33990228Y28898500D01*
X-33865931Y28934996D01*
X-33756951Y29005033D01*
X-33672118Y29102937D01*
X-33618303Y29220774D01*
X-33599867Y29349000D01*
X-33599868Y29349003D01*
X-33599867Y29349004D01*
X-33601673Y29361564D01*
X-33591570Y29431838D01*
X-33545077Y29485494D01*
X-33476956Y29505496D01*
X-33408836Y29485494D01*
X-33397025Y29476896D01*
X-33352450Y29440315D01*
X-33169954Y29342768D01*
X-32971934Y29282700D01*
X-32971930Y29282700D01*
X-32971928Y29282699D01*
X-32766003Y29262417D01*
X-32766000Y29262417D01*
X-32765997Y29262417D01*
X-32560073Y29282699D01*
X-32560072Y29282700D01*
X-32560066Y29282700D01*
X-32362046Y29342768D01*
X-32179550Y29440315D01*
X-32019590Y29571590D01*
X-31888315Y29731550D01*
X-31790768Y29914046D01*
X-31730700Y30112066D01*
X-31727646Y30143066D01*
X-31710417Y30317997D01*
X-31710417Y30318004D01*
X-31730699Y30523928D01*
X-31730700Y30523930D01*
X-31730700Y30523934D01*
X-31790768Y30721954D01*
X-31888315Y30904450D01*
X-32019590Y31064410D01*
X-32179550Y31195685D01*
X-32179552Y31195686D01*
X-32179553Y31195687D01*
X-32362046Y31293232D01*
X-32464241Y31324232D01*
X-32560066Y31353300D01*
X-32560067Y31353301D01*
X-32560073Y31353302D01*
X-32765997Y31373583D01*
X-32766003Y31373583D01*
X-32971934Y31353301D01*
X-33011115Y31341416D01*
X-33082109Y31340783D01*
X-33142175Y31378634D01*
X-33164585Y31419244D01*
X-33165057Y31419028D01*
X-33167897Y31425246D01*
X-33168586Y31426495D01*
X-33168799Y31427218D01*
X-33168800Y31427226D01*
X-33222615Y31545063D01*
X-33307448Y31642967D01*
X-33307449Y31642968D01*
X-33416424Y31713002D01*
X-33416427Y31713004D01*
X-33416428Y31713004D01*
X-33501572Y31738004D01*
X-33540721Y31749499D01*
X-33540723Y31749500D01*
X-33540725Y31749500D01*
X-33670269Y31749500D01*
X-33670272Y31749500D01*
X-33670274Y31749499D01*
X-33794564Y31713005D01*
X-33794571Y31713002D01*
X-33903546Y31642968D01*
X-33966717Y31570063D01*
X-33988379Y31545063D01*
X-34042194Y31427226D01*
X-34060630Y31299000D01*
X-34042194Y31170774D01*
X-33988379Y31052937D01*
X-33917184Y30970772D01*
X-33903546Y30955033D01*
X-33787695Y30880580D01*
X-33741202Y30826925D01*
X-33731097Y30756651D01*
X-33739404Y30726369D01*
X-33741231Y30721959D01*
X-33801302Y30523928D01*
X-33821583Y30318004D01*
X-33821583Y30317997D01*
X-33801302Y30112073D01*
X-33746441Y29931217D01*
X-33745808Y29860223D01*
X-33783658Y29800157D01*
X-33847973Y29770089D01*
X-33902513Y29773745D01*
X-33990228Y29799500D01*
X-34119772Y29799500D01*
X-34119775Y29799500D01*
X-34119777Y29799499D01*
X-34244067Y29763005D01*
X-34244074Y29763002D01*
X-34353049Y29692968D01*
X-34413971Y29622658D01*
X-34437882Y29595063D01*
X-34491697Y29477226D01*
X-34510133Y29349000D01*
X-35576081Y29349000D01*
X-35543303Y29420774D01*
X-35524867Y29549000D01*
X-35524868Y29549002D01*
X-35523585Y29557920D01*
X-35522256Y29557729D01*
X-35504865Y29616957D01*
X-35451209Y29663450D01*
X-35434371Y29669730D01*
X-35321672Y29702820D01*
X-35212692Y29772857D01*
X-35127859Y29870761D01*
X-35074044Y29988598D01*
X-35059302Y30091136D01*
X-35029810Y30155713D01*
X-34970088Y30194095D01*
X-34915931Y30209996D01*
X-34806951Y30280033D01*
X-34722118Y30377937D01*
X-34668303Y30495774D01*
X-34649867Y30624000D01*
X-34668303Y30752226D01*
X-34722118Y30870063D01*
X-34806951Y30967967D01*
X-34806952Y30967968D01*
X-34812853Y30974778D01*
X-34810029Y30977226D01*
X-34838843Y31022149D01*
X-34838781Y31093145D01*
X-34832529Y31109883D01*
X-34828837Y31117967D01*
X-34793303Y31195774D01*
X-34774867Y31324000D01*
X-34793303Y31452226D01*
X-34847118Y31570063D01*
X-34931951Y31667967D01*
X-34931952Y31667968D01*
X-35040927Y31738002D01*
X-35040930Y31738004D01*
X-35040931Y31738004D01*
X-35080080Y31749499D01*
X-35165224Y31774499D01*
X-35165226Y31774500D01*
X-35165228Y31774500D01*
X-35294772Y31774500D01*
X-35294775Y31774500D01*
X-35294777Y31774499D01*
X-35419067Y31738005D01*
X-35419074Y31738002D01*
X-35528049Y31667968D01*
X-35612883Y31570064D01*
X-35612882Y31570063D01*
X-35666697Y31452226D01*
X-35685133Y31324000D01*
X-35666697Y31195774D01*
X-35612882Y31077937D01*
X-35528049Y30980033D01*
X-35522147Y30973222D01*
X-35524975Y30970772D01*
X-35496167Y30925884D01*
X-35496211Y30854887D01*
X-35502471Y30838119D01*
X-35541697Y30752227D01*
X-35541699Y30752220D01*
X-35556440Y30649692D01*
X-35585933Y30585111D01*
X-35645658Y30546729D01*
X-35699810Y30530828D01*
X-35699812Y30530828D01*
X-35699815Y30530826D01*
X-35808790Y30460792D01*
X-35880582Y30377937D01*
X-35893623Y30362887D01*
X-35947438Y30245050D01*
X-35963962Y30130117D01*
X-35967156Y30107904D01*
X-35968486Y30108096D01*
X-35985876Y30048868D01*
X-36039532Y30002375D01*
X-36056376Y29996093D01*
X-36169067Y29963005D01*
X-36169074Y29963002D01*
X-36278049Y29892968D01*
X-36345608Y29814999D01*
X-36362882Y29795063D01*
X-36416697Y29677226D01*
X-36435133Y29549000D01*
X-37524867Y29549000D01*
X-37543303Y29677226D01*
X-37597118Y29795063D01*
X-37681951Y29892967D01*
X-37681952Y29892968D01*
X-37790927Y29963002D01*
X-37790930Y29963004D01*
X-37790931Y29963004D01*
X-37858825Y29982939D01*
X-37915224Y29999499D01*
X-37915226Y29999500D01*
X-37915228Y29999500D01*
X-38044772Y29999500D01*
X-38059720Y29995111D01*
X-38130717Y29995113D01*
X-38190442Y30033498D01*
X-38219934Y30098079D01*
X-38220424Y30130117D01*
X-38216888Y30161502D01*
X-38232614Y30301083D01*
X-38220364Y30371015D01*
X-38172252Y30423223D01*
X-38103551Y30441131D01*
X-38039287Y30421189D01*
X-37944069Y30359996D01*
X-37819772Y30323500D01*
X-37819768Y30323500D01*
X-37690232Y30323500D01*
X-37690228Y30323500D01*
X-37565931Y30359996D01*
X-37456951Y30430033D01*
X-37372118Y30527937D01*
X-37318303Y30645774D01*
X-37299867Y30774000D01*
X-37318303Y30902226D01*
X-37372118Y31020063D01*
X-37456951Y31117967D01*
X-37456952Y31117968D01*
X-37565927Y31188002D01*
X-37565930Y31188004D01*
X-37565931Y31188004D01*
X-37565934Y31188005D01*
X-37690224Y31224499D01*
X-37690226Y31224500D01*
X-37690228Y31224500D01*
X-37819772Y31224500D01*
X-37819775Y31224500D01*
X-37819777Y31224499D01*
X-37944067Y31188005D01*
X-37944074Y31188002D01*
X-38053049Y31117968D01*
X-38137883Y31020064D01*
X-38137882Y31020063D01*
X-38191697Y30902226D01*
X-38194009Y30886148D01*
X-38210133Y30774000D01*
X-38195663Y30673359D01*
X-38205768Y30603085D01*
X-38252261Y30549430D01*
X-38295582Y30536710D01*
X-38940905Y29891386D01*
X-39003217Y29857360D01*
X-39074032Y29862425D01*
X-39119095Y29891386D01*
X-39410934Y30183225D01*
X-39208923Y30183225D01*
X-39198525Y30097587D01*
X-39149519Y30026591D01*
X-39073134Y29986500D01*
X-39008753Y29986500D01*
X-38946240Y30001908D01*
X-38881668Y30059114D01*
X-38851077Y30139775D01*
X-38861475Y30225413D01*
X-38910481Y30296409D01*
X-38986866Y30336500D01*
X-39051247Y30336500D01*
X-39113760Y30321092D01*
X-39178332Y30263886D01*
X-39208923Y30183225D01*
X-39410934Y30183225D01*
X-39667499Y30439790D01*
X-39667501Y30439790D01*
X-40215905Y29891386D01*
X-40278217Y29857360D01*
X-40349032Y29862425D01*
X-40394095Y29891385D01*
X-40685936Y30183225D01*
X-40483923Y30183225D01*
X-40473525Y30097587D01*
X-40424519Y30026591D01*
X-40348134Y29986500D01*
X-40283753Y29986500D01*
X-40221240Y30001908D01*
X-40156668Y30059114D01*
X-40126077Y30139775D01*
X-40136475Y30225413D01*
X-40185481Y30296409D01*
X-40261866Y30336500D01*
X-40326247Y30336500D01*
X-40388760Y30321092D01*
X-40453332Y30263886D01*
X-40483923Y30183225D01*
X-40685936Y30183225D01*
X-40942501Y30439790D01*
X-41858290Y29524001D01*
X-41580000Y29245711D01*
X-41309886Y28975596D01*
X-41275860Y28913284D01*
X-41280925Y28842469D01*
X-41309885Y28797406D01*
X-41858290Y28249001D01*
X-41858290Y28249000D01*
X-42412814Y28249000D01*
X-42452118Y28335063D01*
X-42452120Y28335065D01*
X-42455862Y28343260D01*
X-42453275Y28344442D01*
X-42467488Y28392841D01*
X-42484764Y28394431D01*
X-42533558Y28429052D01*
X-42536951Y28432968D01*
X-42645927Y28503002D01*
X-42645930Y28503004D01*
X-42645931Y28503004D01*
X-42707439Y28521064D01*
X-42770224Y28539499D01*
X-42770226Y28539500D01*
X-42770228Y28539500D01*
X-42899772Y28539500D01*
X-42899775Y28539500D01*
X-42899777Y28539499D01*
X-43024067Y28503005D01*
X-43024074Y28503002D01*
X-43133049Y28432968D01*
X-43192420Y28364448D01*
X-43217882Y28335063D01*
X-43260942Y28240774D01*
X-43271697Y28217225D01*
X-43285253Y28122938D01*
X-43290133Y28089000D01*
X-43271697Y27960774D01*
X-43217882Y27842937D01*
X-43217881Y27842936D01*
X-43217881Y27842935D01*
X-43208321Y27831902D01*
X-43178830Y27767320D01*
X-43188936Y27697047D01*
X-43208322Y27666882D01*
X-43287882Y27575063D01*
X-43341697Y27457226D01*
X-43360133Y27329000D01*
X-47270416Y27329000D01*
X-47229768Y27405046D01*
X-47169700Y27603066D01*
X-47166729Y27633225D01*
X-47149417Y27808997D01*
X-47149417Y27809004D01*
X-47169699Y28014928D01*
X-47169700Y28014930D01*
X-47169700Y28014934D01*
X-47229768Y28212954D01*
X-47327315Y28395450D01*
X-47458590Y28555410D01*
X-47618550Y28686685D01*
X-47618552Y28686686D01*
X-47618553Y28686687D01*
X-47801046Y28784232D01*
X-47836748Y28795062D01*
X-47999066Y28844300D01*
X-47999067Y28844301D01*
X-47999073Y28844302D01*
X-48204997Y28864583D01*
X-48205003Y28864583D01*
X-48410928Y28844302D01*
X-48608955Y28784232D01*
X-48791448Y28686687D01*
X-48951410Y28555410D01*
X-49082687Y28395448D01*
X-49180232Y28212955D01*
X-49240302Y28014928D01*
X-49260583Y27809004D01*
X-49260583Y27808997D01*
X-49957293Y27808997D01*
X-49957041Y30348997D01*
X-49260583Y30348997D01*
X-49240302Y30143073D01*
X-49240301Y30143067D01*
X-49240300Y30143066D01*
X-49195717Y29996093D01*
X-49180232Y29945046D01*
X-49082929Y29763005D01*
X-49082685Y29762550D01*
X-48951410Y29602590D01*
X-48791450Y29471315D01*
X-48608954Y29373768D01*
X-48410934Y29313700D01*
X-48410930Y29313700D01*
X-48410928Y29313699D01*
X-48205003Y29293417D01*
X-48205000Y29293417D01*
X-48204997Y29293417D01*
X-47999073Y29313699D01*
X-47999072Y29313700D01*
X-47999066Y29313700D01*
X-47801046Y29373768D01*
X-47618550Y29471315D01*
X-47458590Y29602590D01*
X-47327315Y29762550D01*
X-47270565Y29868721D01*
X-46890552Y29868721D01*
X-46872116Y29740495D01*
X-46818301Y29622658D01*
X-46754478Y29549001D01*
X-46733468Y29524754D01*
X-46626029Y29455707D01*
X-46624488Y29454717D01*
X-46500191Y29418221D01*
X-46500187Y29418221D01*
X-46370651Y29418221D01*
X-46370647Y29418221D01*
X-46246350Y29454717D01*
X-46137370Y29524754D01*
X-46052537Y29622658D01*
X-46015004Y29704844D01*
X-45968512Y29758498D01*
X-45900391Y29778500D01*
X-45830232Y29778500D01*
X-45830228Y29778500D01*
X-45705931Y29814996D01*
X-45596951Y29885033D01*
X-45512118Y29982937D01*
X-45495472Y30019388D01*
X-45448979Y30073043D01*
X-45380858Y30093045D01*
X-45312737Y30073043D01*
X-45285636Y30049559D01*
X-45282284Y30045691D01*
X-45252791Y29981111D01*
X-45262896Y29910837D01*
X-45268523Y29900532D01*
X-45282119Y29870761D01*
X-45323638Y29779848D01*
X-45342074Y29651622D01*
X-45323638Y29523396D01*
X-45269823Y29405559D01*
X-45220815Y29349000D01*
X-45213394Y29340436D01*
X-45183901Y29275855D01*
X-45194005Y29205582D01*
X-45224919Y29137892D01*
X-45235049Y29067438D01*
X-45243355Y29009665D01*
X-45224919Y28881439D01*
X-45203064Y28833583D01*
X-45197173Y28820685D01*
X-45187069Y28750412D01*
X-45216562Y28685831D01*
X-45216563Y28685830D01*
X-45255600Y28640779D01*
X-45315326Y28602396D01*
X-45386322Y28602396D01*
X-45446049Y28640780D01*
X-45465438Y28670950D01*
X-45468303Y28677223D01*
X-45468303Y28677226D01*
X-45522118Y28795063D01*
X-45606951Y28892967D01*
X-45606952Y28892968D01*
X-45715927Y28963002D01*
X-45715930Y28963004D01*
X-45715931Y28963004D01*
X-45804079Y28988886D01*
X-45840224Y28999499D01*
X-45840226Y28999500D01*
X-45840228Y28999500D01*
X-45969772Y28999500D01*
X-45969775Y28999500D01*
X-45969777Y28999499D01*
X-46094067Y28963005D01*
X-46094074Y28963002D01*
X-46203049Y28892968D01*
X-46254505Y28833583D01*
X-46287882Y28795063D01*
X-46341697Y28677226D01*
X-46360133Y28549000D01*
X-46341697Y28420774D01*
X-46287882Y28302937D01*
X-46203049Y28205033D01*
X-46094069Y28134996D01*
X-45969772Y28098500D01*
X-45969768Y28098500D01*
X-45840232Y28098500D01*
X-45840228Y28098500D01*
X-45715931Y28134996D01*
X-45606951Y28205033D01*
X-45600087Y28212954D01*
X-45575980Y28240776D01*
X-45544402Y28277220D01*
X-45484678Y28315604D01*
X-45413681Y28315606D01*
X-45353954Y28277224D01*
X-45334563Y28247051D01*
X-45331698Y28240776D01*
X-45331697Y28240774D01*
X-45277882Y28122937D01*
X-45193049Y28025033D01*
X-45084069Y27954996D01*
X-44959772Y27918500D01*
X-44959768Y27918500D01*
X-44830232Y27918500D01*
X-44830228Y27918500D01*
X-44705931Y27954996D01*
X-44596951Y28025033D01*
X-44512118Y28122937D01*
X-44458303Y28240774D01*
X-44439867Y28369000D01*
X-44458303Y28497226D01*
X-44486050Y28557981D01*
X-44496154Y28628254D01*
X-44466664Y28692831D01*
X-44405340Y28763602D01*
X-44351525Y28881439D01*
X-44350797Y28886501D01*
X-42393113Y28886501D01*
X-42372728Y28705571D01*
X-42372727Y28705564D01*
X-42319404Y28553180D01*
X-42317841Y28522551D01*
X-42304649Y28521064D01*
X-41939212Y28886501D01*
X-41960936Y28908225D01*
X-41758923Y28908225D01*
X-41748525Y28822587D01*
X-41699519Y28751591D01*
X-41623134Y28711500D01*
X-41558753Y28711500D01*
X-41496240Y28726908D01*
X-41431668Y28784114D01*
X-41401077Y28864775D01*
X-41411475Y28950413D01*
X-41460481Y29021409D01*
X-41536866Y29061500D01*
X-41601247Y29061500D01*
X-41663760Y29046092D01*
X-41728332Y28988886D01*
X-41758923Y28908225D01*
X-41960936Y28908225D01*
X-42304649Y29251937D01*
X-42312590Y29239297D01*
X-42372727Y29067438D01*
X-42372728Y29067430D01*
X-42393113Y28886501D01*
X-44350797Y28886501D01*
X-44333089Y29009665D01*
X-44351525Y29137891D01*
X-44405340Y29255728D01*
X-44461771Y29320854D01*
X-44491263Y29385433D01*
X-44481159Y29455704D01*
X-44450244Y29523396D01*
X-44431808Y29651622D01*
X-44450244Y29779848D01*
X-44504059Y29897685D01*
X-44511905Y29906740D01*
X-44541397Y29971319D01*
X-44531292Y30041593D01*
X-44525665Y30051899D01*
X-44524368Y30054740D01*
X-44524364Y30054744D01*
X-44475609Y30161501D01*
X-42393113Y30161501D01*
X-42372728Y29980571D01*
X-42372727Y29980564D01*
X-42312589Y29808703D01*
X-42304648Y29796065D01*
X-41939212Y30161501D01*
X-41960936Y30183225D01*
X-41758923Y30183225D01*
X-41748525Y30097587D01*
X-41699519Y30026591D01*
X-41623134Y29986500D01*
X-41558753Y29986500D01*
X-41496240Y30001908D01*
X-41431668Y30059114D01*
X-41401077Y30139775D01*
X-41411475Y30225413D01*
X-41460481Y30296409D01*
X-41536866Y30336500D01*
X-41601247Y30336500D01*
X-41663760Y30321092D01*
X-41728332Y30263886D01*
X-41758923Y30183225D01*
X-41960936Y30183225D01*
X-42304649Y30526937D01*
X-42312590Y30514297D01*
X-42372727Y30342438D01*
X-42372728Y30342430D01*
X-42393113Y30161501D01*
X-44475609Y30161501D01*
X-44470549Y30172581D01*
X-44452113Y30300807D01*
X-44470549Y30429033D01*
X-44524364Y30546870D01*
X-44609197Y30644774D01*
X-44609198Y30644775D01*
X-44718173Y30714809D01*
X-44718176Y30714811D01*
X-44718177Y30714811D01*
X-44742504Y30721954D01*
X-44842470Y30751306D01*
X-44842472Y30751307D01*
X-44842474Y30751307D01*
X-44842477Y30751307D01*
X-44851395Y30752589D01*
X-44850905Y30756002D01*
X-44903039Y30771309D01*
X-44949532Y30824965D01*
X-44956378Y30848281D01*
X-44956730Y30848177D01*
X-44959269Y30856823D01*
X-44959269Y30856824D01*
X-44959269Y30856825D01*
X-44972661Y30886149D01*
X-41945437Y30886149D01*
X-41580001Y30520712D01*
X-41214565Y30886148D01*
X-41214567Y30886149D01*
X-40670437Y30886149D01*
X-40305001Y30520712D01*
X-39939565Y30886148D01*
X-39939567Y30886149D01*
X-39395437Y30886149D01*
X-39030001Y30520712D01*
X-38664565Y30886148D01*
X-38677203Y30894089D01*
X-38849064Y30954227D01*
X-38849071Y30954228D01*
X-39030000Y30974613D01*
X-39210930Y30954228D01*
X-39210938Y30954227D01*
X-39382797Y30894090D01*
X-39395437Y30886149D01*
X-39939567Y30886149D01*
X-39952203Y30894089D01*
X-40124064Y30954227D01*
X-40124071Y30954228D01*
X-40305001Y30974613D01*
X-40485930Y30954228D01*
X-40485938Y30954227D01*
X-40657797Y30894090D01*
X-40670437Y30886149D01*
X-41214567Y30886149D01*
X-41227203Y30894089D01*
X-41399064Y30954227D01*
X-41399071Y30954228D01*
X-41580000Y30974613D01*
X-41760930Y30954228D01*
X-41760938Y30954227D01*
X-41932797Y30894090D01*
X-41945437Y30886149D01*
X-44972661Y30886149D01*
X-45013084Y30974662D01*
X-45097917Y31072566D01*
X-45097918Y31072567D01*
X-45206893Y31142601D01*
X-45206896Y31142603D01*
X-45206897Y31142603D01*
X-45206900Y31142604D01*
X-45331190Y31179098D01*
X-45331192Y31179099D01*
X-45331194Y31179099D01*
X-45460738Y31179099D01*
X-45460741Y31179099D01*
X-45460743Y31179098D01*
X-45585033Y31142604D01*
X-45585040Y31142601D01*
X-45694015Y31072567D01*
X-45774194Y30980033D01*
X-45778848Y30974662D01*
X-45832663Y30856825D01*
X-45837243Y30824965D01*
X-45842620Y30787569D01*
X-45872113Y30722988D01*
X-45931839Y30684604D01*
X-45951005Y30681849D01*
X-45950851Y30680782D01*
X-45959770Y30679500D01*
X-45959772Y30679500D01*
X-45959774Y30679500D01*
X-45959777Y30679499D01*
X-46084067Y30643005D01*
X-46084074Y30643002D01*
X-46193049Y30572968D01*
X-46277884Y30475061D01*
X-46277885Y30475059D01*
X-46315416Y30392878D01*
X-46361909Y30339222D01*
X-46430029Y30319221D01*
X-46500191Y30319221D01*
X-46500194Y30319221D01*
X-46500196Y30319220D01*
X-46624486Y30282726D01*
X-46624493Y30282723D01*
X-46733468Y30212689D01*
X-46793789Y30143073D01*
X-46818301Y30114784D01*
X-46872116Y29996947D01*
X-46890552Y29868721D01*
X-47270565Y29868721D01*
X-47229768Y29945046D01*
X-47169700Y30143066D01*
X-47166792Y30172583D01*
X-47149417Y30348997D01*
X-47149417Y30349004D01*
X-47169699Y30554928D01*
X-47169700Y30554930D01*
X-47169700Y30554934D01*
X-47229768Y30752954D01*
X-47327315Y30935450D01*
X-47458590Y31095410D01*
X-47618550Y31226685D01*
X-47618552Y31226686D01*
X-47618553Y31226687D01*
X-47801046Y31324232D01*
X-47857695Y31341416D01*
X-47999066Y31384300D01*
X-47999067Y31384301D01*
X-47999073Y31384302D01*
X-48204997Y31404583D01*
X-48205003Y31404583D01*
X-48410928Y31384302D01*
X-48608955Y31324232D01*
X-48791448Y31226687D01*
X-48951410Y31095410D01*
X-49082687Y30935448D01*
X-49180232Y30752955D01*
X-49240302Y30554928D01*
X-49260583Y30349004D01*
X-49260583Y30348997D01*
X-49957041Y30348997D01*
X-49956789Y32888997D01*
X-49260583Y32888997D01*
X-49240302Y32683073D01*
X-49240301Y32683067D01*
X-49240300Y32683066D01*
X-49180232Y32485046D01*
X-49082685Y32302550D01*
X-48951410Y32142590D01*
X-48791450Y32011315D01*
X-48608954Y31913768D01*
X-48410934Y31853700D01*
X-48410930Y31853700D01*
X-48410928Y31853699D01*
X-48205003Y31833417D01*
X-48205000Y31833417D01*
X-48204997Y31833417D01*
X-47999073Y31853699D01*
X-47999072Y31853700D01*
X-47999066Y31853700D01*
X-47801046Y31913768D01*
X-47618550Y32011315D01*
X-47458590Y32142590D01*
X-47327315Y32302550D01*
X-47229768Y32485046D01*
X-47169700Y32683066D01*
X-47158330Y32798500D01*
X-47149417Y32888997D01*
X-47149417Y32889004D01*
X-47169699Y33094928D01*
X-47169700Y33094930D01*
X-47169700Y33094934D01*
X-47227962Y33287000D01*
X-45760133Y33287000D01*
X-45741697Y33158774D01*
X-45687882Y33040937D01*
X-45603049Y32943033D01*
X-45494069Y32872996D01*
X-45369772Y32836500D01*
X-45369768Y32836500D01*
X-45240232Y32836500D01*
X-45240228Y32836500D01*
X-45115931Y32872996D01*
X-45006951Y32943033D01*
X-44922118Y33040937D01*
X-44868303Y33158774D01*
X-44849867Y33287000D01*
X-44868303Y33415226D01*
X-44922118Y33533063D01*
X-45006951Y33630967D01*
X-45006952Y33630968D01*
X-45115927Y33701002D01*
X-45115930Y33701004D01*
X-45115931Y33701004D01*
X-45166476Y33715845D01*
X-45240224Y33737499D01*
X-45240226Y33737500D01*
X-45240228Y33737500D01*
X-45369772Y33737500D01*
X-45369775Y33737500D01*
X-45369777Y33737499D01*
X-45494067Y33701005D01*
X-45494074Y33701002D01*
X-45603049Y33630968D01*
X-45685403Y33535924D01*
X-45687882Y33533063D01*
X-45741697Y33415226D01*
X-45760133Y33287000D01*
X-47227962Y33287000D01*
X-47229768Y33292954D01*
X-47327315Y33475450D01*
X-47458590Y33635410D01*
X-47597001Y33749000D01*
X-40560133Y33749000D01*
X-40541697Y33620774D01*
X-40487882Y33502937D01*
X-40411881Y33415226D01*
X-40403049Y33405033D01*
X-40315862Y33349001D01*
X-40294069Y33334996D01*
X-40244835Y33320540D01*
X-40185109Y33282157D01*
X-40155616Y33217576D01*
X-40141699Y33120781D01*
X-40141698Y33120777D01*
X-40141698Y33120776D01*
X-40141697Y33120774D01*
X-40087882Y33002937D01*
X-40003049Y32905033D01*
X-39896410Y32836500D01*
X-39894069Y32834996D01*
X-39769772Y32798500D01*
X-39769768Y32798500D01*
X-39640232Y32798500D01*
X-39640228Y32798500D01*
X-39515931Y32834996D01*
X-39480141Y32857997D01*
X-33821583Y32857997D01*
X-33801302Y32652073D01*
X-33801301Y32652067D01*
X-33801300Y32652066D01*
X-33741232Y32454046D01*
X-33643685Y32271550D01*
X-33512410Y32111590D01*
X-33352450Y31980315D01*
X-33169954Y31882768D01*
X-32971934Y31822700D01*
X-32971930Y31822700D01*
X-32971928Y31822699D01*
X-32766003Y31802417D01*
X-32766000Y31802417D01*
X-32765997Y31802417D01*
X-32560073Y31822699D01*
X-32560072Y31822700D01*
X-32560066Y31822700D01*
X-32362046Y31882768D01*
X-32179550Y31980315D01*
X-32019590Y32111590D01*
X-31888315Y32271550D01*
X-31790768Y32454046D01*
X-31730700Y32652066D01*
X-31727646Y32683066D01*
X-31710417Y32857997D01*
X-31710417Y32858004D01*
X-31730699Y33063928D01*
X-31730700Y33063930D01*
X-31730700Y33063934D01*
X-31790768Y33261954D01*
X-31888315Y33444450D01*
X-32019590Y33604410D01*
X-32179550Y33735685D01*
X-32179552Y33735686D01*
X-32179553Y33735687D01*
X-32362046Y33833232D01*
X-32507073Y33877225D01*
X-32560066Y33893300D01*
X-32560067Y33893301D01*
X-32560073Y33893302D01*
X-32765997Y33913583D01*
X-32766003Y33913583D01*
X-32971928Y33893302D01*
X-33169955Y33833232D01*
X-33352448Y33735687D01*
X-33512410Y33604410D01*
X-33643687Y33444448D01*
X-33741232Y33261955D01*
X-33801302Y33063928D01*
X-33821583Y32858004D01*
X-33821583Y32857997D01*
X-39480141Y32857997D01*
X-39406951Y32905033D01*
X-39322118Y33002937D01*
X-39268303Y33120774D01*
X-39249867Y33249000D01*
X-39264245Y33349000D01*
X-36660133Y33349000D01*
X-36641697Y33220774D01*
X-36587882Y33102937D01*
X-36503049Y33005033D01*
X-36394069Y32934996D01*
X-36269772Y32898500D01*
X-36269768Y32898500D01*
X-36140232Y32898500D01*
X-36140228Y32898500D01*
X-36015931Y32934996D01*
X-35906951Y33005033D01*
X-35822118Y33102937D01*
X-35819614Y33108421D01*
X-35773123Y33162075D01*
X-35705003Y33182079D01*
X-35636882Y33162078D01*
X-35590388Y33108424D01*
X-35587882Y33102937D01*
X-35503049Y33005033D01*
X-35394069Y32934996D01*
X-35269772Y32898500D01*
X-35269768Y32898500D01*
X-35140232Y32898500D01*
X-35140228Y32898500D01*
X-35015931Y32934996D01*
X-34906951Y33005033D01*
X-34822118Y33102937D01*
X-34768303Y33220774D01*
X-34749867Y33349000D01*
X-34768303Y33477226D01*
X-34822118Y33595063D01*
X-34906951Y33692967D01*
X-34906952Y33692968D01*
X-35015927Y33763002D01*
X-35015930Y33763004D01*
X-35015931Y33763004D01*
X-35015934Y33763005D01*
X-35140224Y33799499D01*
X-35140226Y33799500D01*
X-35140228Y33799500D01*
X-35269772Y33799500D01*
X-35269775Y33799500D01*
X-35269777Y33799499D01*
X-35394067Y33763005D01*
X-35394074Y33763002D01*
X-35503049Y33692968D01*
X-35587884Y33595061D01*
X-35587885Y33595059D01*
X-35590387Y33589579D01*
X-35636880Y33535924D01*
X-35705001Y33515922D01*
X-35773121Y33535924D01*
X-35819613Y33589579D01*
X-35822116Y33595059D01*
X-35822117Y33595061D01*
X-35822118Y33595062D01*
X-35822118Y33595063D01*
X-35906951Y33692967D01*
X-35906952Y33692968D01*
X-36015927Y33763002D01*
X-36015930Y33763004D01*
X-36015931Y33763004D01*
X-36015934Y33763005D01*
X-36140224Y33799499D01*
X-36140226Y33799500D01*
X-36140228Y33799500D01*
X-36269772Y33799500D01*
X-36269775Y33799500D01*
X-36269777Y33799499D01*
X-36394067Y33763005D01*
X-36394074Y33763002D01*
X-36503049Y33692968D01*
X-36565602Y33620776D01*
X-36587882Y33595063D01*
X-36641697Y33477226D01*
X-36660133Y33349000D01*
X-39264245Y33349000D01*
X-39268303Y33377226D01*
X-39322118Y33495063D01*
X-39406951Y33592967D01*
X-39406952Y33592968D01*
X-39515927Y33663002D01*
X-39515933Y33663005D01*
X-39565167Y33677461D01*
X-39624893Y33715845D01*
X-39654386Y33780424D01*
X-39668303Y33877226D01*
X-39722118Y33995063D01*
X-39806951Y34092967D01*
X-39806952Y34092968D01*
X-39915927Y34163002D01*
X-39915930Y34163004D01*
X-39915931Y34163004D01*
X-39915934Y34163005D01*
X-40040224Y34199499D01*
X-40040226Y34199500D01*
X-40040228Y34199500D01*
X-40169772Y34199500D01*
X-40169775Y34199500D01*
X-40169777Y34199499D01*
X-40294067Y34163005D01*
X-40294074Y34163002D01*
X-40403049Y34092968D01*
X-40487882Y33995064D01*
X-40487882Y33995063D01*
X-40541697Y33877226D01*
X-40560133Y33749000D01*
X-47597001Y33749000D01*
X-47618550Y33766685D01*
X-47618552Y33766686D01*
X-47618553Y33766687D01*
X-47801046Y33864232D01*
X-47843882Y33877226D01*
X-47999066Y33924300D01*
X-47999067Y33924301D01*
X-47999073Y33924302D01*
X-48204997Y33944583D01*
X-48205003Y33944583D01*
X-48410928Y33924302D01*
X-48608955Y33864232D01*
X-48791448Y33766687D01*
X-48951410Y33635410D01*
X-49082687Y33475448D01*
X-49180232Y33292955D01*
X-49240302Y33094928D01*
X-49260583Y32889004D01*
X-49260583Y32888997D01*
X-49956789Y32888997D01*
X-49956537Y35428997D01*
X-49260583Y35428997D01*
X-49240302Y35223073D01*
X-49240301Y35223067D01*
X-49240300Y35223066D01*
X-49180232Y35025046D01*
X-49082685Y34842550D01*
X-48951410Y34682590D01*
X-48791450Y34551315D01*
X-48608954Y34453768D01*
X-48410934Y34393700D01*
X-48410930Y34393700D01*
X-48410928Y34393699D01*
X-48205003Y34373417D01*
X-48205000Y34373417D01*
X-48204997Y34373417D01*
X-47999073Y34393699D01*
X-47999072Y34393700D01*
X-47999066Y34393700D01*
X-47801046Y34453768D01*
X-47618550Y34551315D01*
X-47458590Y34682590D01*
X-47327315Y34842550D01*
X-47229768Y35025046D01*
X-47169700Y35223066D01*
X-47152470Y35397997D01*
X-33821583Y35397997D01*
X-33801302Y35192073D01*
X-33801301Y35192067D01*
X-33801300Y35192066D01*
X-33741232Y34994046D01*
X-33643685Y34811550D01*
X-33512410Y34651590D01*
X-33352450Y34520315D01*
X-33169954Y34422768D01*
X-32971934Y34362700D01*
X-32971930Y34362700D01*
X-32971928Y34362699D01*
X-32766003Y34342417D01*
X-32766000Y34342417D01*
X-32765997Y34342417D01*
X-32560073Y34362699D01*
X-32560072Y34362700D01*
X-32560066Y34362700D01*
X-32362046Y34422768D01*
X-32179550Y34520315D01*
X-32019590Y34651590D01*
X-31888315Y34811550D01*
X-31790768Y34994046D01*
X-31730700Y35192066D01*
X-31727646Y35223066D01*
X-31710417Y35397997D01*
X-31710417Y35398004D01*
X-31730699Y35603928D01*
X-31730700Y35603930D01*
X-31730700Y35603934D01*
X-31790768Y35801954D01*
X-31888315Y35984450D01*
X-32019590Y36144410D01*
X-32179550Y36275685D01*
X-32179552Y36275686D01*
X-32179553Y36275687D01*
X-32362046Y36373232D01*
X-32518773Y36420774D01*
X-32560066Y36433300D01*
X-32560067Y36433301D01*
X-32560073Y36433302D01*
X-32765997Y36453583D01*
X-32766003Y36453583D01*
X-32971928Y36433302D01*
X-33169955Y36373232D01*
X-33352448Y36275687D01*
X-33512410Y36144410D01*
X-33643687Y35984448D01*
X-33741232Y35801955D01*
X-33801302Y35603928D01*
X-33821583Y35398004D01*
X-33821583Y35397997D01*
X-47152470Y35397997D01*
X-47149417Y35428997D01*
X-47149417Y35429004D01*
X-47169699Y35634928D01*
X-47169700Y35634930D01*
X-47169700Y35634934D01*
X-47229768Y35832954D01*
X-47327315Y36015450D01*
X-47458590Y36175410D01*
X-47618550Y36306685D01*
X-47618552Y36306686D01*
X-47618553Y36306687D01*
X-47801046Y36404232D01*
X-47855585Y36420776D01*
X-47999066Y36464300D01*
X-47999067Y36464301D01*
X-47999073Y36464302D01*
X-48204997Y36484583D01*
X-48205003Y36484583D01*
X-48410928Y36464302D01*
X-48608955Y36404232D01*
X-48791448Y36306687D01*
X-48951410Y36175410D01*
X-49082687Y36015448D01*
X-49180232Y35832955D01*
X-49240302Y35634928D01*
X-49260583Y35429004D01*
X-49260583Y35428997D01*
X-49956537Y35428997D01*
X-49956426Y36549000D01*
X-46710133Y36549000D01*
X-46691697Y36420774D01*
X-46637882Y36302937D01*
X-46553049Y36205033D01*
X-46444069Y36134996D01*
X-46319772Y36098500D01*
X-46319768Y36098500D01*
X-46190232Y36098500D01*
X-46190228Y36098500D01*
X-46065931Y36134996D01*
X-45956951Y36205033D01*
X-45872118Y36302937D01*
X-45818303Y36420774D01*
X-45799867Y36549000D01*
X-45818303Y36677226D01*
X-45872118Y36795063D01*
X-45956951Y36892967D01*
X-45956952Y36892968D01*
X-46065927Y36963002D01*
X-46065930Y36963004D01*
X-46065931Y36963004D01*
X-46170706Y36993768D01*
X-46190224Y36999499D01*
X-46190226Y36999500D01*
X-46190228Y36999500D01*
X-46319772Y36999500D01*
X-46319775Y36999500D01*
X-46319777Y36999499D01*
X-46444067Y36963005D01*
X-46444074Y36963002D01*
X-46553049Y36892968D01*
X-46637883Y36795064D01*
X-46637882Y36795063D01*
X-46691697Y36677226D01*
X-46710133Y36549000D01*
X-49956426Y36549000D01*
X-49956285Y37968997D01*
X-49260583Y37968997D01*
X-49240302Y37763073D01*
X-49240301Y37763067D01*
X-49240300Y37763066D01*
X-49180232Y37565046D01*
X-49082685Y37382550D01*
X-48951410Y37222590D01*
X-48791450Y37091315D01*
X-48608954Y36993768D01*
X-48410934Y36933700D01*
X-48410930Y36933700D01*
X-48410928Y36933699D01*
X-48205003Y36913417D01*
X-48205000Y36913417D01*
X-48204997Y36913417D01*
X-47999073Y36933699D01*
X-47999072Y36933700D01*
X-47999066Y36933700D01*
X-47801046Y36993768D01*
X-47618550Y37091315D01*
X-47458590Y37222590D01*
X-47327315Y37382550D01*
X-47229768Y37565046D01*
X-47169700Y37763066D01*
X-47152470Y37937997D01*
X-33821583Y37937997D01*
X-33801302Y37732073D01*
X-33801301Y37732067D01*
X-33801300Y37732066D01*
X-33741232Y37534046D01*
X-33643685Y37351550D01*
X-33512410Y37191590D01*
X-33352450Y37060315D01*
X-33169954Y36962768D01*
X-32971934Y36902700D01*
X-32971930Y36902700D01*
X-32971928Y36902699D01*
X-32766003Y36882417D01*
X-32766000Y36882417D01*
X-32765997Y36882417D01*
X-32560073Y36902699D01*
X-32560072Y36902700D01*
X-32560066Y36902700D01*
X-32362046Y36962768D01*
X-32179550Y37060315D01*
X-32019590Y37191590D01*
X-31888315Y37351550D01*
X-31790768Y37534046D01*
X-31730700Y37732066D01*
X-31727646Y37763066D01*
X-31710417Y37937997D01*
X-31710417Y37938004D01*
X-31730699Y38143928D01*
X-31730700Y38143930D01*
X-31730700Y38143934D01*
X-31790768Y38341954D01*
X-31888315Y38524450D01*
X-32019590Y38684410D01*
X-32179550Y38815685D01*
X-32179552Y38815686D01*
X-32179553Y38815687D01*
X-32362046Y38913232D01*
X-32560073Y38973302D01*
X-32765997Y38993583D01*
X-32766003Y38993583D01*
X-32971928Y38973302D01*
X-33169955Y38913232D01*
X-33352448Y38815687D01*
X-33512410Y38684410D01*
X-33643687Y38524448D01*
X-33741232Y38341955D01*
X-33801302Y38143928D01*
X-33821583Y37938004D01*
X-33821583Y37937997D01*
X-47152470Y37937997D01*
X-47149417Y37968997D01*
X-47149417Y37969004D01*
X-47169699Y38174928D01*
X-47169700Y38174930D01*
X-47169700Y38174934D01*
X-47229768Y38372954D01*
X-47327315Y38555450D01*
X-47458590Y38715410D01*
X-47618550Y38846685D01*
X-47618552Y38846686D01*
X-47618553Y38846687D01*
X-47801046Y38944232D01*
X-47801047Y38944232D01*
X-47999066Y39004300D01*
X-47999067Y39004301D01*
X-47999073Y39004302D01*
X-48204997Y39024583D01*
X-48205003Y39024583D01*
X-48410928Y39004302D01*
X-48608955Y38944232D01*
X-48791448Y38846687D01*
X-48951410Y38715410D01*
X-49082687Y38555448D01*
X-49180232Y38372955D01*
X-49240302Y38174928D01*
X-49260583Y37969004D01*
X-49260583Y37968997D01*
X-49956285Y37968997D01*
X-49956033Y40508997D01*
X-49260583Y40508997D01*
X-49240302Y40303073D01*
X-49240301Y40303067D01*
X-49240300Y40303066D01*
X-49180232Y40105046D01*
X-49082685Y39922550D01*
X-48951410Y39762590D01*
X-48791450Y39631315D01*
X-48608954Y39533768D01*
X-48410934Y39473700D01*
X-48410930Y39473700D01*
X-48410928Y39473699D01*
X-48205003Y39453417D01*
X-48205000Y39453417D01*
X-48204997Y39453417D01*
X-47999073Y39473699D01*
X-47999072Y39473700D01*
X-47999066Y39473700D01*
X-47801046Y39533768D01*
X-47618550Y39631315D01*
X-47458590Y39762590D01*
X-47327315Y39922550D01*
X-47229768Y40105046D01*
X-47169700Y40303066D01*
X-47152470Y40477997D01*
X-33821583Y40477997D01*
X-33801302Y40272073D01*
X-33801301Y40272067D01*
X-33801300Y40272066D01*
X-33741232Y40074046D01*
X-33643685Y39891550D01*
X-33512410Y39731590D01*
X-33352450Y39600315D01*
X-33169954Y39502768D01*
X-32971934Y39442700D01*
X-32971930Y39442700D01*
X-32971928Y39442699D01*
X-32766003Y39422417D01*
X-32766000Y39422417D01*
X-32765997Y39422417D01*
X-32560073Y39442699D01*
X-32560072Y39442700D01*
X-32560066Y39442700D01*
X-32362046Y39502768D01*
X-32179550Y39600315D01*
X-32019590Y39731590D01*
X-31888315Y39891550D01*
X-31790768Y40074046D01*
X-31730700Y40272066D01*
X-31727646Y40303066D01*
X-31710417Y40477997D01*
X-31710417Y40478004D01*
X-31730699Y40683928D01*
X-31730700Y40683930D01*
X-31730700Y40683934D01*
X-31790768Y40881954D01*
X-31888315Y41064450D01*
X-32019590Y41224410D01*
X-32179550Y41355685D01*
X-32179552Y41355686D01*
X-32179553Y41355687D01*
X-32362046Y41453232D01*
X-32560073Y41513302D01*
X-32765997Y41533583D01*
X-32766003Y41533583D01*
X-32971928Y41513302D01*
X-33169955Y41453232D01*
X-33352448Y41355687D01*
X-33512410Y41224410D01*
X-33643687Y41064448D01*
X-33741232Y40881955D01*
X-33801302Y40683928D01*
X-33821583Y40478004D01*
X-33821583Y40477997D01*
X-47152470Y40477997D01*
X-47149417Y40508997D01*
X-47149417Y40509004D01*
X-47169699Y40714928D01*
X-47169700Y40714930D01*
X-47169700Y40714934D01*
X-47229768Y40912954D01*
X-47327315Y41095450D01*
X-47458590Y41255410D01*
X-47511705Y41299000D01*
X-45210133Y41299000D01*
X-45191697Y41170774D01*
X-45137882Y41052937D01*
X-45053049Y40955033D01*
X-44944069Y40884996D01*
X-44819772Y40848500D01*
X-44819768Y40848500D01*
X-44690232Y40848500D01*
X-44690228Y40848500D01*
X-44565931Y40884996D01*
X-44456951Y40955033D01*
X-44372118Y41052937D01*
X-44318303Y41170774D01*
X-44299867Y41299000D01*
X-44318303Y41427226D01*
X-44372118Y41545063D01*
X-44456951Y41642967D01*
X-44456952Y41642968D01*
X-44565927Y41713002D01*
X-44565930Y41713004D01*
X-44565931Y41713004D01*
X-44565934Y41713005D01*
X-44690224Y41749499D01*
X-44690226Y41749500D01*
X-44690228Y41749500D01*
X-44819772Y41749500D01*
X-44819775Y41749500D01*
X-44819777Y41749499D01*
X-44944067Y41713005D01*
X-44944074Y41713002D01*
X-45053049Y41642968D01*
X-45108909Y41578500D01*
X-45137882Y41545063D01*
X-45191697Y41427226D01*
X-45210133Y41299000D01*
X-47511705Y41299000D01*
X-47618550Y41386685D01*
X-47618552Y41386686D01*
X-47618553Y41386687D01*
X-47801046Y41484232D01*
X-47801047Y41484232D01*
X-47999066Y41544300D01*
X-47999067Y41544301D01*
X-47999073Y41544302D01*
X-48204997Y41564583D01*
X-48205003Y41564583D01*
X-48410928Y41544302D01*
X-48608955Y41484232D01*
X-48791448Y41386687D01*
X-48951410Y41255410D01*
X-49082687Y41095448D01*
X-49180232Y40912955D01*
X-49240302Y40714928D01*
X-49260583Y40509004D01*
X-49260583Y40508997D01*
X-49956033Y40508997D01*
X-49955781Y43048997D01*
X-49260583Y43048997D01*
X-49240302Y42843073D01*
X-49240301Y42843067D01*
X-49240300Y42843066D01*
X-49180232Y42645046D01*
X-49082685Y42462550D01*
X-48951410Y42302590D01*
X-48791450Y42171315D01*
X-48608954Y42073768D01*
X-48410934Y42013700D01*
X-48410930Y42013700D01*
X-48410928Y42013699D01*
X-48205003Y41993417D01*
X-48205000Y41993417D01*
X-48204997Y41993417D01*
X-47999073Y42013699D01*
X-47999072Y42013700D01*
X-47999066Y42013700D01*
X-47801046Y42073768D01*
X-47618550Y42171315D01*
X-47487335Y42279000D01*
X-41300133Y42279000D01*
X-41281697Y42150774D01*
X-41227882Y42032937D01*
X-41143049Y41935033D01*
X-41034069Y41864996D01*
X-40909772Y41828500D01*
X-40909768Y41828500D01*
X-40780232Y41828500D01*
X-40780228Y41828500D01*
X-40655931Y41864996D01*
X-40546951Y41935033D01*
X-40462118Y42032937D01*
X-40408303Y42150774D01*
X-40389867Y42279000D01*
X-40408303Y42407226D01*
X-40462118Y42525063D01*
X-40546951Y42622967D01*
X-40546952Y42622968D01*
X-40655927Y42693002D01*
X-40655930Y42693004D01*
X-40655931Y42693004D01*
X-40655934Y42693005D01*
X-40780224Y42729499D01*
X-40780226Y42729500D01*
X-40780228Y42729500D01*
X-40909772Y42729500D01*
X-40909775Y42729500D01*
X-40909777Y42729499D01*
X-41034067Y42693005D01*
X-41034074Y42693002D01*
X-41143049Y42622968D01*
X-41227883Y42525063D01*
X-41227882Y42525063D01*
X-41281697Y42407226D01*
X-41300133Y42279000D01*
X-47487335Y42279000D01*
X-47458590Y42302590D01*
X-47327315Y42462550D01*
X-47229768Y42645046D01*
X-47169700Y42843066D01*
X-47161772Y42923552D01*
X-47149417Y43048997D01*
X-47149417Y43049004D01*
X-47169699Y43254928D01*
X-47169700Y43254930D01*
X-47169700Y43254934D01*
X-47181854Y43295000D01*
X-37861307Y43295000D01*
X-37820777Y43161390D01*
X-37820776Y43161388D01*
X-37727176Y42986276D01*
X-37614101Y42848494D01*
X-37586347Y42783146D01*
X-37585500Y42768560D01*
X-37585501Y41759254D01*
X-37585500Y41759250D01*
X-37576301Y41713002D01*
X-37573867Y41700769D01*
X-37529552Y41634448D01*
X-37463231Y41590133D01*
X-37404748Y41578500D01*
X-37404747Y41578500D01*
X-36365253Y41578500D01*
X-36365252Y41578500D01*
X-36306769Y41590133D01*
X-36240448Y41634448D01*
X-36196133Y41700769D01*
X-36184500Y41759252D01*
X-36184500Y42768560D01*
X-36164498Y42836681D01*
X-36155899Y42848494D01*
X-36042825Y42986276D01*
X-36025870Y43017997D01*
X-33821583Y43017997D01*
X-33801302Y42812073D01*
X-33801301Y42812067D01*
X-33801300Y42812066D01*
X-33741232Y42614046D01*
X-33643685Y42431550D01*
X-33512410Y42271590D01*
X-33352450Y42140315D01*
X-33169954Y42042768D01*
X-32971934Y41982700D01*
X-32971930Y41982700D01*
X-32971928Y41982699D01*
X-32766003Y41962417D01*
X-32766000Y41962417D01*
X-32765997Y41962417D01*
X-32560073Y41982699D01*
X-32560072Y41982700D01*
X-32560066Y41982700D01*
X-32362046Y42042768D01*
X-32179550Y42140315D01*
X-32019590Y42271590D01*
X-31888315Y42431550D01*
X-31790768Y42614046D01*
X-31730700Y42812066D01*
X-31728275Y42836681D01*
X-31710417Y43017997D01*
X-31710417Y43018004D01*
X-31730699Y43223928D01*
X-31730700Y43223930D01*
X-31730700Y43223934D01*
X-31790768Y43421954D01*
X-31888315Y43604450D01*
X-32019590Y43764410D01*
X-32179550Y43895685D01*
X-32179552Y43895686D01*
X-32179553Y43895687D01*
X-32362046Y43993232D01*
X-32560073Y44053302D01*
X-32765997Y44073583D01*
X-32766003Y44073583D01*
X-32971928Y44053302D01*
X-33169955Y43993232D01*
X-33352448Y43895687D01*
X-33512410Y43764410D01*
X-33643687Y43604448D01*
X-33741232Y43421955D01*
X-33801302Y43223928D01*
X-33821583Y43018004D01*
X-33821583Y43017997D01*
X-36025870Y43017997D01*
X-35949225Y43161388D01*
X-35949224Y43161390D01*
X-35908693Y43295000D01*
X-36674941Y43295000D01*
X-36672871Y43296195D01*
X-36599199Y43383993D01*
X-36560000Y43491694D01*
X-36560000Y43606306D01*
X-36599199Y43714007D01*
X-36672871Y43801805D01*
X-36772129Y43859112D01*
X-36856564Y43874000D01*
X-36913436Y43874000D01*
X-36997871Y43859112D01*
X-37097129Y43801805D01*
X-37170801Y43714007D01*
X-37210000Y43606306D01*
X-37210000Y43491694D01*
X-37170801Y43383993D01*
X-37097129Y43296195D01*
X-37095059Y43295000D01*
X-37861307Y43295000D01*
X-47181854Y43295000D01*
X-47229768Y43452954D01*
X-47327315Y43635450D01*
X-47458590Y43795410D01*
X-47618550Y43926685D01*
X-47618552Y43926686D01*
X-47618553Y43926687D01*
X-47801046Y44024232D01*
X-47801047Y44024232D01*
X-47999066Y44084300D01*
X-47999067Y44084301D01*
X-47999073Y44084302D01*
X-48204997Y44104583D01*
X-48205003Y44104583D01*
X-48410928Y44084302D01*
X-48608955Y44024232D01*
X-48791448Y43926687D01*
X-48951410Y43795410D01*
X-49082687Y43635448D01*
X-49180232Y43452955D01*
X-49240302Y43254928D01*
X-49260583Y43049004D01*
X-49260583Y43048997D01*
X-49955781Y43048997D01*
X-49955674Y44129000D01*
X-46450133Y44129000D01*
X-46431697Y44000774D01*
X-46377882Y43882937D01*
X-46293049Y43785033D01*
X-46184069Y43714996D01*
X-46059772Y43678500D01*
X-46059768Y43678500D01*
X-45930232Y43678500D01*
X-45930228Y43678500D01*
X-45805931Y43714996D01*
X-45696951Y43785033D01*
X-45681382Y43803001D01*
X-37861308Y43803001D01*
X-37861307Y43803000D01*
X-37139000Y43803000D01*
X-37139001Y44525307D01*
X-36631001Y44525307D01*
X-36631000Y43803000D01*
X-35908693Y43803000D01*
X-35908693Y43803001D01*
X-35949224Y43936611D01*
X-35949225Y43936613D01*
X-36042825Y44111725D01*
X-36168789Y44265212D01*
X-36322276Y44391176D01*
X-36497388Y44484776D01*
X-36631001Y44525307D01*
X-37139001Y44525307D01*
X-37272611Y44484777D01*
X-37272613Y44484776D01*
X-37447725Y44391176D01*
X-37601212Y44265212D01*
X-37727176Y44111725D01*
X-37820776Y43936613D01*
X-37820777Y43936611D01*
X-37861308Y43803001D01*
X-45681382Y43803001D01*
X-45612118Y43882937D01*
X-45558303Y44000774D01*
X-45539867Y44129000D01*
X-45558303Y44257226D01*
X-45612118Y44375063D01*
X-45696951Y44472967D01*
X-45696952Y44472968D01*
X-45805927Y44543002D01*
X-45805930Y44543004D01*
X-45805931Y44543004D01*
X-45805934Y44543005D01*
X-45930224Y44579499D01*
X-45930226Y44579500D01*
X-45930228Y44579500D01*
X-46059772Y44579500D01*
X-46059775Y44579500D01*
X-46059777Y44579499D01*
X-46184067Y44543005D01*
X-46184074Y44543002D01*
X-46293049Y44472968D01*
X-46363920Y44391176D01*
X-46377882Y44375063D01*
X-46431697Y44257226D01*
X-46450133Y44129000D01*
X-49955674Y44129000D01*
X-49955529Y45588997D01*
X-49260583Y45588997D01*
X-49240302Y45383073D01*
X-49180232Y45185046D01*
X-49089374Y45015063D01*
X-49082685Y45002550D01*
X-48951410Y44842590D01*
X-48791450Y44711315D01*
X-48608954Y44613768D01*
X-48410934Y44553700D01*
X-48410930Y44553700D01*
X-48410928Y44553699D01*
X-48205003Y44533417D01*
X-48205000Y44533417D01*
X-48204997Y44533417D01*
X-47999073Y44553699D01*
X-47999072Y44553700D01*
X-47999066Y44553700D01*
X-47801046Y44613768D01*
X-47618550Y44711315D01*
X-47548260Y44769000D01*
X-45080133Y44769000D01*
X-45061697Y44640774D01*
X-45007882Y44522937D01*
X-44923049Y44425033D01*
X-44814069Y44354996D01*
X-44689772Y44318500D01*
X-44689768Y44318500D01*
X-44560232Y44318500D01*
X-44560228Y44318500D01*
X-44435931Y44354996D01*
X-44326951Y44425033D01*
X-44242118Y44522937D01*
X-44188303Y44640774D01*
X-44169867Y44769000D01*
X-44188303Y44897226D01*
X-44242118Y45015063D01*
X-44326951Y45112967D01*
X-44326952Y45112968D01*
X-44435927Y45183002D01*
X-44435930Y45183004D01*
X-44435931Y45183004D01*
X-44435934Y45183005D01*
X-44560224Y45219499D01*
X-44560226Y45219500D01*
X-44560228Y45219500D01*
X-44689772Y45219500D01*
X-44689775Y45219500D01*
X-44689777Y45219499D01*
X-44814067Y45183005D01*
X-44814074Y45183002D01*
X-44923049Y45112968D01*
X-45007883Y45015063D01*
X-45007882Y45015063D01*
X-45061697Y44897226D01*
X-45080133Y44769000D01*
X-47548260Y44769000D01*
X-47458590Y44842590D01*
X-47327315Y45002550D01*
X-47229768Y45185046D01*
X-47169700Y45383066D01*
X-47152470Y45557997D01*
X-33821583Y45557997D01*
X-33801302Y45352073D01*
X-33801301Y45352067D01*
X-33801300Y45352066D01*
X-33750016Y45183004D01*
X-33741232Y45154046D01*
X-33666944Y45015063D01*
X-33643685Y44971550D01*
X-33512410Y44811590D01*
X-33352450Y44680315D01*
X-33169954Y44582768D01*
X-32971934Y44522700D01*
X-32971930Y44522700D01*
X-32971928Y44522699D01*
X-32766003Y44502417D01*
X-32766000Y44502417D01*
X-32765997Y44502417D01*
X-32560073Y44522699D01*
X-32560072Y44522700D01*
X-32560066Y44522700D01*
X-32362046Y44582768D01*
X-32179550Y44680315D01*
X-32019590Y44811590D01*
X-31888315Y44971550D01*
X-31790768Y45154046D01*
X-31730700Y45352066D01*
X-31727646Y45383066D01*
X-31710417Y45557997D01*
X-31710417Y45558004D01*
X-31730699Y45763928D01*
X-31730700Y45763930D01*
X-31730700Y45763934D01*
X-31790768Y45961954D01*
X-31888315Y46144450D01*
X-32019590Y46304410D01*
X-32179550Y46435685D01*
X-32179552Y46435686D01*
X-32179553Y46435687D01*
X-32362046Y46533232D01*
X-32560073Y46593302D01*
X-32765997Y46613583D01*
X-32766003Y46613583D01*
X-32971928Y46593302D01*
X-33169955Y46533232D01*
X-33352448Y46435687D01*
X-33512410Y46304410D01*
X-33643687Y46144448D01*
X-33741232Y45961955D01*
X-33801302Y45763928D01*
X-33821583Y45558004D01*
X-33821583Y45557997D01*
X-47152470Y45557997D01*
X-47149417Y45588997D01*
X-47149417Y45589004D01*
X-47169699Y45794928D01*
X-47169700Y45794930D01*
X-47169700Y45794934D01*
X-47229768Y45992954D01*
X-47327315Y46175450D01*
X-47458590Y46335410D01*
X-47618550Y46466685D01*
X-47618552Y46466686D01*
X-47618553Y46466687D01*
X-47801046Y46564232D01*
X-47801047Y46564232D01*
X-47999066Y46624300D01*
X-47999067Y46624301D01*
X-47999073Y46624302D01*
X-48204997Y46644583D01*
X-48205003Y46644583D01*
X-48410928Y46624302D01*
X-48608955Y46564232D01*
X-48791448Y46466687D01*
X-48951410Y46335410D01*
X-49082687Y46175448D01*
X-49180232Y45992955D01*
X-49240302Y45794928D01*
X-49260583Y45589004D01*
X-49260583Y45588997D01*
X-49955529Y45588997D01*
X-49955146Y49449000D01*
X-49385133Y49449000D01*
X-49366697Y49320774D01*
X-49312882Y49202937D01*
X-49228049Y49105033D01*
X-49152059Y49056197D01*
X-49119069Y49034996D01*
X-49061121Y49017982D01*
X-49001396Y48979599D01*
X-48971903Y48915018D01*
X-48982006Y48844744D01*
X-48999220Y48817153D01*
X-49082687Y48715448D01*
X-49180232Y48532955D01*
X-49240302Y48334928D01*
X-49260583Y48129004D01*
X-49260583Y48128997D01*
X-49240302Y47923073D01*
X-49240301Y47923067D01*
X-49240300Y47923066D01*
X-49180232Y47725046D01*
X-49082685Y47542550D01*
X-48951410Y47382590D01*
X-48791450Y47251315D01*
X-48608954Y47153768D01*
X-48410934Y47093700D01*
X-48410930Y47093700D01*
X-48410928Y47093699D01*
X-48205003Y47073417D01*
X-48205000Y47073417D01*
X-48204997Y47073417D01*
X-47999073Y47093699D01*
X-47999072Y47093700D01*
X-47999066Y47093700D01*
X-47801046Y47153768D01*
X-47618550Y47251315D01*
X-47458590Y47382590D01*
X-47340897Y47526000D01*
X-44280133Y47526000D01*
X-44261697Y47397774D01*
X-44207882Y47279937D01*
X-44123049Y47182033D01*
X-44014069Y47111996D01*
X-43889772Y47075500D01*
X-43889768Y47075500D01*
X-43760232Y47075500D01*
X-43760228Y47075500D01*
X-43635931Y47111996D01*
X-43575618Y47150758D01*
X-43507501Y47170758D01*
X-43439382Y47150757D01*
X-43379069Y47111996D01*
X-43254772Y47075500D01*
X-43254768Y47075500D01*
X-43125232Y47075500D01*
X-43125228Y47075500D01*
X-43000931Y47111996D01*
X-42940618Y47150758D01*
X-42872501Y47170758D01*
X-42804382Y47150757D01*
X-42744069Y47111996D01*
X-42619772Y47075500D01*
X-42619768Y47075500D01*
X-42490232Y47075500D01*
X-42490228Y47075500D01*
X-42365931Y47111996D01*
X-42256951Y47182033D01*
X-42172118Y47279937D01*
X-42118303Y47397774D01*
X-42099867Y47526000D01*
X-42118303Y47654226D01*
X-42172118Y47772063D01*
X-42256951Y47869967D01*
X-42256952Y47869968D01*
X-42365927Y47940002D01*
X-42365930Y47940004D01*
X-42365931Y47940004D01*
X-42381890Y47944690D01*
X-42490224Y47976499D01*
X-42490226Y47976500D01*
X-42490228Y47976500D01*
X-42619772Y47976500D01*
X-42619775Y47976500D01*
X-42619777Y47976499D01*
X-42744067Y47940005D01*
X-42744074Y47940002D01*
X-42804380Y47901245D01*
X-42872501Y47881243D01*
X-42940620Y47901245D01*
X-43000927Y47940002D01*
X-43000930Y47940004D01*
X-43000931Y47940004D01*
X-43016890Y47944690D01*
X-43125224Y47976499D01*
X-43125226Y47976500D01*
X-43125228Y47976500D01*
X-43254772Y47976500D01*
X-43254775Y47976500D01*
X-43254777Y47976499D01*
X-43379067Y47940005D01*
X-43379074Y47940002D01*
X-43439380Y47901245D01*
X-43507501Y47881243D01*
X-43575620Y47901245D01*
X-43635927Y47940002D01*
X-43635930Y47940004D01*
X-43635931Y47940004D01*
X-43651890Y47944690D01*
X-43760224Y47976499D01*
X-43760226Y47976500D01*
X-43760228Y47976500D01*
X-43889772Y47976500D01*
X-43889775Y47976500D01*
X-43889777Y47976499D01*
X-44014067Y47940005D01*
X-44014074Y47940002D01*
X-44123049Y47869968D01*
X-44207883Y47772063D01*
X-44207882Y47772063D01*
X-44261697Y47654226D01*
X-44280133Y47526000D01*
X-47340897Y47526000D01*
X-47327315Y47542550D01*
X-47229768Y47725046D01*
X-47169700Y47923066D01*
X-47168031Y47940004D01*
X-47149417Y48128997D01*
X-47149417Y48129004D01*
X-47169699Y48334928D01*
X-47169700Y48334930D01*
X-47169700Y48334934D01*
X-47205216Y48452016D01*
X-39480500Y48452016D01*
X-39465352Y48341812D01*
X-39465350Y48341804D01*
X-39406156Y48205524D01*
X-39312389Y48090269D01*
X-39191003Y48004586D01*
X-39051002Y47954829D01*
X-38902768Y47944690D01*
X-38757296Y47974919D01*
X-38625374Y48043276D01*
X-38566782Y48097997D01*
X-33821583Y48097997D01*
X-33801302Y47892073D01*
X-33801301Y47892067D01*
X-33801300Y47892066D01*
X-33741232Y47694046D01*
X-33643685Y47511550D01*
X-33512410Y47351590D01*
X-33352450Y47220315D01*
X-33169954Y47122768D01*
X-32971934Y47062700D01*
X-32971930Y47062700D01*
X-32971928Y47062699D01*
X-32766003Y47042417D01*
X-32766000Y47042417D01*
X-32765997Y47042417D01*
X-32560073Y47062699D01*
X-32560072Y47062700D01*
X-32560066Y47062700D01*
X-32362046Y47122768D01*
X-32179550Y47220315D01*
X-32019590Y47351590D01*
X-31888315Y47511550D01*
X-31790768Y47694046D01*
X-31730700Y47892066D01*
X-31727646Y47923066D01*
X-31710417Y48097997D01*
X-31710417Y48098004D01*
X-31730699Y48303928D01*
X-31730700Y48303930D01*
X-31730700Y48303934D01*
X-31790768Y48501954D01*
X-31888315Y48684450D01*
X-32019590Y48844410D01*
X-32179550Y48975685D01*
X-32179552Y48975686D01*
X-32179553Y48975687D01*
X-32362046Y49073232D01*
X-32560073Y49133302D01*
X-32765997Y49153583D01*
X-32766003Y49153583D01*
X-32971928Y49133302D01*
X-33169955Y49073232D01*
X-33352448Y48975687D01*
X-33512410Y48844410D01*
X-33643687Y48684448D01*
X-33741232Y48501955D01*
X-33801302Y48303928D01*
X-33821583Y48098004D01*
X-33821583Y48097997D01*
X-38566782Y48097997D01*
X-38516786Y48144690D01*
X-38439586Y48271640D01*
X-38399500Y48414710D01*
X-38399500Y48945974D01*
X-38399500Y48945975D01*
X-38399501Y48945985D01*
X-38414649Y49056189D01*
X-38414650Y49056190D01*
X-38414650Y49056196D01*
X-38451962Y49142097D01*
X-37337695Y49142097D01*
X-37196839Y49066807D01*
X-36997398Y49006308D01*
X-36790003Y48985881D01*
X-36789997Y48985881D01*
X-36582603Y49006308D01*
X-36383164Y49066806D01*
X-36242306Y49142097D01*
X-36789999Y49689790D01*
X-36790000Y49689790D01*
X-37337695Y49142097D01*
X-38451962Y49142097D01*
X-38473844Y49192476D01*
X-38567611Y49307731D01*
X-38688997Y49393414D01*
X-38689000Y49393415D01*
X-38689001Y49393416D01*
X-38828997Y49443171D01*
X-38829002Y49443172D01*
X-38977231Y49453310D01*
X-38977232Y49453310D01*
X-39013600Y49445753D01*
X-39122707Y49423081D01*
X-39254625Y49354725D01*
X-39254628Y49354723D01*
X-39363216Y49253309D01*
X-39440413Y49126364D01*
X-39480500Y48983290D01*
X-39480500Y48452016D01*
X-47205216Y48452016D01*
X-47229768Y48532954D01*
X-47327315Y48715450D01*
X-47458590Y48875410D01*
X-47618550Y49006685D01*
X-47618552Y49006686D01*
X-47618553Y49006687D01*
X-47801046Y49104232D01*
X-47874006Y49126364D01*
X-47925871Y49142097D01*
X-41637695Y49142097D01*
X-41496839Y49066807D01*
X-41297398Y49006308D01*
X-41090003Y48985881D01*
X-41089997Y48985881D01*
X-40882603Y49006308D01*
X-40683164Y49066806D01*
X-40542306Y49142097D01*
X-41089999Y49689790D01*
X-41090000Y49689790D01*
X-41637695Y49142097D01*
X-47925871Y49142097D01*
X-47999066Y49164300D01*
X-47999067Y49164301D01*
X-47999073Y49164302D01*
X-48204997Y49184583D01*
X-48205003Y49184583D01*
X-48357368Y49169577D01*
X-48427122Y49182806D01*
X-48478650Y49231646D01*
X-48495593Y49300591D01*
X-48494435Y49312902D01*
X-48474867Y49448997D01*
X-48474867Y49449001D01*
X-48475928Y49456378D01*
X-48479851Y49483663D01*
X-48469748Y49553935D01*
X-48423256Y49607592D01*
X-48355136Y49627595D01*
X-48342791Y49626989D01*
X-48252252Y49618071D01*
X-48205002Y49613417D01*
X-48205000Y49613417D01*
X-48204997Y49613417D01*
X-47999073Y49633699D01*
X-47999072Y49633700D01*
X-47999066Y49633700D01*
X-47801046Y49693768D01*
X-47618550Y49791315D01*
X-47458590Y49922590D01*
X-47354850Y50048998D01*
X-42153119Y50048998D01*
X-42132693Y49841603D01*
X-42072194Y49642162D01*
X-41996906Y49501307D01*
X-41478514Y50019698D01*
X-41443628Y50019698D01*
X-41414953Y49906462D01*
X-41351064Y49808673D01*
X-41258885Y49736928D01*
X-41148405Y49699000D01*
X-41060995Y49699000D01*
X-40974784Y49713386D01*
X-40872053Y49768981D01*
X-40792940Y49854921D01*
X-40746018Y49961892D01*
X-40738800Y50049001D01*
X-40730791Y50049001D01*
X-40183097Y49501307D01*
X-40107806Y49642164D01*
X-40047308Y49841603D01*
X-40026881Y50048998D01*
X-37853119Y50048998D01*
X-37832693Y49841603D01*
X-37772194Y49642162D01*
X-37696906Y49501307D01*
X-37178514Y50019698D01*
X-37143628Y50019698D01*
X-37114953Y49906462D01*
X-37051064Y49808673D01*
X-36958885Y49736928D01*
X-36848405Y49699000D01*
X-36760995Y49699000D01*
X-36674784Y49713386D01*
X-36572053Y49768981D01*
X-36492940Y49854921D01*
X-36446018Y49961892D01*
X-36438800Y50049001D01*
X-36430791Y50049001D01*
X-35883097Y49501307D01*
X-35807806Y49642164D01*
X-35747308Y49841603D01*
X-35726881Y50048998D01*
X-35726881Y50049003D01*
X-35747308Y50256398D01*
X-35807807Y50455839D01*
X-35883097Y50596695D01*
X-35883097Y50596696D01*
X-36430791Y50049001D01*
X-36438800Y50049001D01*
X-36436372Y50078302D01*
X-36465047Y50191538D01*
X-36528936Y50289327D01*
X-36621115Y50361072D01*
X-36731595Y50399000D01*
X-36819005Y50399000D01*
X-36905216Y50384614D01*
X-37007947Y50329019D01*
X-37087060Y50243079D01*
X-37133982Y50136108D01*
X-37143628Y50019698D01*
X-37178514Y50019698D01*
X-37149211Y50049001D01*
X-37696906Y50596695D01*
X-37772194Y50455839D01*
X-37832693Y50256398D01*
X-37853119Y50049003D01*
X-37853119Y50048998D01*
X-40026881Y50048998D01*
X-40026881Y50049003D01*
X-40047308Y50256398D01*
X-40107807Y50455839D01*
X-40183097Y50596695D01*
X-40183097Y50596696D01*
X-40730791Y50049002D01*
X-40730791Y50049001D01*
X-40738800Y50049001D01*
X-40736372Y50078302D01*
X-40765047Y50191538D01*
X-40828936Y50289327D01*
X-40921115Y50361072D01*
X-41031595Y50399000D01*
X-41119005Y50399000D01*
X-41205216Y50384614D01*
X-41307947Y50329019D01*
X-41387060Y50243079D01*
X-41433982Y50136108D01*
X-41443628Y50019698D01*
X-41478514Y50019698D01*
X-41449211Y50049001D01*
X-41996906Y50596695D01*
X-42072194Y50455839D01*
X-42132693Y50256398D01*
X-42153119Y50049003D01*
X-42153119Y50048998D01*
X-47354850Y50048998D01*
X-47327315Y50082550D01*
X-47229768Y50265046D01*
X-47169700Y50463066D01*
X-47156538Y50596695D01*
X-47149417Y50668997D01*
X-47149417Y50669004D01*
X-47169699Y50874928D01*
X-47169700Y50874930D01*
X-47169700Y50874934D01*
X-47194262Y50955906D01*
X-41637695Y50955906D01*
X-41090001Y50408211D01*
X-40542307Y50955906D01*
X-40542306Y50955906D01*
X-37337695Y50955906D01*
X-36790001Y50408211D01*
X-36560215Y50637997D01*
X-33821583Y50637997D01*
X-33801302Y50432073D01*
X-33741232Y50234046D01*
X-33648966Y50061429D01*
X-33643685Y50051550D01*
X-33512410Y49891590D01*
X-33352450Y49760315D01*
X-33169954Y49662768D01*
X-32971934Y49602700D01*
X-32971930Y49602700D01*
X-32971928Y49602699D01*
X-32766003Y49582417D01*
X-32766000Y49582417D01*
X-32765997Y49582417D01*
X-32560073Y49602699D01*
X-32560072Y49602700D01*
X-32560066Y49602700D01*
X-32362046Y49662768D01*
X-32179550Y49760315D01*
X-32019590Y49891590D01*
X-31888315Y50051550D01*
X-31790768Y50234046D01*
X-31730700Y50432066D01*
X-31728358Y50455839D01*
X-31710417Y50637997D01*
X-31710417Y50638004D01*
X-31730699Y50843928D01*
X-31730700Y50843930D01*
X-31730700Y50843934D01*
X-31790768Y51041954D01*
X-31888315Y51224450D01*
X-32019590Y51384410D01*
X-32179550Y51515685D01*
X-32179552Y51515686D01*
X-32179553Y51515687D01*
X-32362046Y51613232D01*
X-32560073Y51673302D01*
X-32765997Y51693583D01*
X-32766003Y51693583D01*
X-32971928Y51673302D01*
X-33169955Y51613232D01*
X-33352448Y51515687D01*
X-33512410Y51384410D01*
X-33643687Y51224448D01*
X-33741232Y51041955D01*
X-33801302Y50843928D01*
X-33821583Y50638004D01*
X-33821583Y50637997D01*
X-36560215Y50637997D01*
X-36242307Y50955906D01*
X-36242306Y50955906D01*
X-36383162Y51031194D01*
X-36582603Y51091693D01*
X-36789997Y51112119D01*
X-36790003Y51112119D01*
X-36997398Y51091693D01*
X-37196839Y51031194D01*
X-37337695Y50955906D01*
X-40542306Y50955906D01*
X-40683162Y51031194D01*
X-40882603Y51091693D01*
X-41089997Y51112119D01*
X-41090003Y51112119D01*
X-41297398Y51091693D01*
X-41496839Y51031194D01*
X-41637695Y50955906D01*
X-47194262Y50955906D01*
X-47229768Y51072954D01*
X-47327315Y51255450D01*
X-47458590Y51415410D01*
X-47618550Y51546685D01*
X-47618552Y51546686D01*
X-47618553Y51546687D01*
X-47801046Y51644232D01*
X-47801047Y51644232D01*
X-47999066Y51704300D01*
X-47999067Y51704301D01*
X-47999073Y51704302D01*
X-48204997Y51724583D01*
X-48205003Y51724583D01*
X-48410928Y51704302D01*
X-48608955Y51644232D01*
X-48791448Y51546687D01*
X-48951410Y51415410D01*
X-49082687Y51255448D01*
X-49180232Y51072955D01*
X-49240302Y50874928D01*
X-49260583Y50669004D01*
X-49260583Y50668997D01*
X-49240302Y50463073D01*
X-49240301Y50463067D01*
X-49240300Y50463066D01*
X-49180232Y50265046D01*
X-49082685Y50082550D01*
X-49065351Y50061428D01*
X-49037599Y49996081D01*
X-49049582Y49926103D01*
X-49097495Y49873712D01*
X-49111277Y49867630D01*
X-49110873Y49866746D01*
X-49119074Y49863002D01*
X-49228049Y49792968D01*
X-49297005Y49713386D01*
X-49312882Y49695063D01*
X-49366697Y49577226D01*
X-49385133Y49449000D01*
X-49955146Y49449000D01*
X-49954773Y53208997D01*
X-49260583Y53208997D01*
X-49240302Y53003073D01*
X-49240301Y53003067D01*
X-49240300Y53003066D01*
X-49180232Y52805046D01*
X-49082685Y52622550D01*
X-48951410Y52462590D01*
X-48791450Y52331315D01*
X-48608954Y52233768D01*
X-48410934Y52173700D01*
X-48410930Y52173700D01*
X-48410928Y52173699D01*
X-48205003Y52153417D01*
X-48205000Y52153417D01*
X-48204997Y52153417D01*
X-47999073Y52173699D01*
X-47999072Y52173700D01*
X-47999066Y52173700D01*
X-47801046Y52233768D01*
X-47618550Y52331315D01*
X-47458590Y52462590D01*
X-47327315Y52622550D01*
X-47229768Y52805046D01*
X-47169700Y53003066D01*
X-47152470Y53177997D01*
X-33821583Y53177997D01*
X-33801302Y52972073D01*
X-33801301Y52972067D01*
X-33801300Y52972066D01*
X-33741232Y52774046D01*
X-33643685Y52591550D01*
X-33512410Y52431590D01*
X-33352450Y52300315D01*
X-33169954Y52202768D01*
X-32971934Y52142700D01*
X-32971930Y52142700D01*
X-32971928Y52142699D01*
X-32766003Y52122417D01*
X-32766000Y52122417D01*
X-32765997Y52122417D01*
X-32560073Y52142699D01*
X-32560072Y52142700D01*
X-32560066Y52142700D01*
X-32362046Y52202768D01*
X-32179550Y52300315D01*
X-32019590Y52431590D01*
X-31888315Y52591550D01*
X-31790768Y52774046D01*
X-31730700Y52972066D01*
X-31727646Y53003066D01*
X-31710417Y53177997D01*
X-31710417Y53178004D01*
X-31730699Y53383928D01*
X-31730700Y53383930D01*
X-31730700Y53383934D01*
X-31790768Y53581954D01*
X-31888315Y53764450D01*
X-32019590Y53924410D01*
X-32179550Y54055685D01*
X-32179552Y54055686D01*
X-32179553Y54055687D01*
X-32362046Y54153232D01*
X-32560073Y54213302D01*
X-32765997Y54233583D01*
X-32766003Y54233583D01*
X-32971928Y54213302D01*
X-33169955Y54153232D01*
X-33352448Y54055687D01*
X-33512410Y53924410D01*
X-33643687Y53764448D01*
X-33741232Y53581955D01*
X-33801302Y53383928D01*
X-33821583Y53178004D01*
X-33821583Y53177997D01*
X-47152470Y53177997D01*
X-47149417Y53208997D01*
X-47149417Y53209004D01*
X-47169699Y53414928D01*
X-47169700Y53414930D01*
X-47169700Y53414934D01*
X-47229768Y53612954D01*
X-47327315Y53795450D01*
X-47447664Y53942097D01*
X-41637695Y53942097D01*
X-41496839Y53866807D01*
X-41297398Y53806308D01*
X-41090003Y53785881D01*
X-41089997Y53785881D01*
X-40882603Y53806308D01*
X-40683164Y53866806D01*
X-40542306Y53942097D01*
X-37337695Y53942097D01*
X-37196839Y53866807D01*
X-36997398Y53806308D01*
X-36790003Y53785881D01*
X-36789997Y53785881D01*
X-36582603Y53806308D01*
X-36383164Y53866806D01*
X-36242306Y53942097D01*
X-36789999Y54489790D01*
X-36790000Y54489790D01*
X-37337695Y53942097D01*
X-40542306Y53942097D01*
X-41089999Y54489790D01*
X-41090000Y54489790D01*
X-41637695Y53942097D01*
X-47447664Y53942097D01*
X-47458590Y53955410D01*
X-47618550Y54086685D01*
X-47618552Y54086686D01*
X-47618553Y54086687D01*
X-47801046Y54184232D01*
X-47801047Y54184232D01*
X-47999066Y54244300D01*
X-47999067Y54244301D01*
X-47999073Y54244302D01*
X-48204997Y54264583D01*
X-48205003Y54264583D01*
X-48410928Y54244302D01*
X-48608955Y54184232D01*
X-48791448Y54086687D01*
X-48951410Y53955410D01*
X-49082687Y53795448D01*
X-49180232Y53612955D01*
X-49240302Y53414928D01*
X-49260583Y53209004D01*
X-49260583Y53208997D01*
X-49954773Y53208997D01*
X-49954551Y55440096D01*
X-49954350Y55445092D01*
X-49943892Y55575595D01*
X-49940693Y55595440D01*
X-49931405Y55633442D01*
X-49911408Y55715270D01*
X-49905092Y55734353D01*
X-49883721Y55784982D01*
X-49857121Y55848000D01*
X-49847857Y55865826D01*
X-49782417Y55970398D01*
X-49770427Y55986534D01*
X-49684098Y56085183D01*
X-49680653Y56088817D01*
X-49648461Y56120158D01*
X-49648461Y56120159D01*
X-49637658Y56130676D01*
X-49637644Y56130695D01*
X-49290463Y56468740D01*
X-49227703Y56501930D01*
X-49156961Y56495921D01*
X-49100698Y56452620D01*
X-49076776Y56385775D01*
X-49091442Y56319067D01*
X-49180232Y56152955D01*
X-49240302Y55954928D01*
X-49260583Y55749004D01*
X-49260583Y55748997D01*
X-49240302Y55543073D01*
X-49180232Y55345046D01*
X-49132550Y55255839D01*
X-49082685Y55162550D01*
X-48951410Y55002590D01*
X-48791450Y54871315D01*
X-48608954Y54773768D01*
X-48410934Y54713700D01*
X-48410930Y54713700D01*
X-48410928Y54713699D01*
X-48205003Y54693417D01*
X-48205000Y54693417D01*
X-48204997Y54693417D01*
X-47999073Y54713699D01*
X-47999072Y54713700D01*
X-47999066Y54713700D01*
X-47801046Y54773768D01*
X-47660302Y54848998D01*
X-42153119Y54848998D01*
X-42132693Y54641603D01*
X-42072194Y54442162D01*
X-41996906Y54301307D01*
X-41478514Y54819698D01*
X-41443628Y54819698D01*
X-41414953Y54706462D01*
X-41351064Y54608673D01*
X-41258885Y54536928D01*
X-41148405Y54499000D01*
X-41060995Y54499000D01*
X-40974784Y54513386D01*
X-40872053Y54568981D01*
X-40792940Y54654921D01*
X-40746018Y54761892D01*
X-40738800Y54849001D01*
X-40730791Y54849001D01*
X-40183097Y54301307D01*
X-40107806Y54442164D01*
X-40047308Y54641603D01*
X-40026881Y54848998D01*
X-37853119Y54848998D01*
X-37832693Y54641603D01*
X-37772194Y54442162D01*
X-37696906Y54301307D01*
X-37178514Y54819698D01*
X-37143628Y54819698D01*
X-37114953Y54706462D01*
X-37051064Y54608673D01*
X-36958885Y54536928D01*
X-36848405Y54499000D01*
X-36760995Y54499000D01*
X-36674784Y54513386D01*
X-36572053Y54568981D01*
X-36492940Y54654921D01*
X-36446018Y54761892D01*
X-36438800Y54849001D01*
X-36430791Y54849001D01*
X-35883097Y54301307D01*
X-35807806Y54442164D01*
X-35747308Y54641603D01*
X-35726881Y54848998D01*
X-35726881Y54849003D01*
X-35747308Y55056398D01*
X-35807807Y55255839D01*
X-35883097Y55396695D01*
X-35883097Y55396696D01*
X-36430791Y54849001D01*
X-36438800Y54849001D01*
X-36436372Y54878302D01*
X-36465047Y54991538D01*
X-36528936Y55089327D01*
X-36621115Y55161072D01*
X-36731595Y55199000D01*
X-36819005Y55199000D01*
X-36905216Y55184614D01*
X-37007947Y55129019D01*
X-37087060Y55043079D01*
X-37133982Y54936108D01*
X-37143628Y54819698D01*
X-37178514Y54819698D01*
X-37149211Y54849001D01*
X-37696906Y55396695D01*
X-37772194Y55255839D01*
X-37832693Y55056398D01*
X-37853119Y54849003D01*
X-37853119Y54848998D01*
X-40026881Y54848998D01*
X-40026881Y54849003D01*
X-40047308Y55056398D01*
X-40107807Y55255839D01*
X-40183097Y55396695D01*
X-40183097Y55396696D01*
X-40730791Y54849002D01*
X-40730791Y54849001D01*
X-40738800Y54849001D01*
X-40736372Y54878302D01*
X-40765047Y54991538D01*
X-40828936Y55089327D01*
X-40921115Y55161072D01*
X-41031595Y55199000D01*
X-41119005Y55199000D01*
X-41205216Y55184614D01*
X-41307947Y55129019D01*
X-41387060Y55043079D01*
X-41433982Y54936108D01*
X-41443628Y54819698D01*
X-41478514Y54819698D01*
X-41449211Y54849001D01*
X-41996906Y55396695D01*
X-42072194Y55255839D01*
X-42132693Y55056398D01*
X-42153119Y54849003D01*
X-42153119Y54848998D01*
X-47660302Y54848998D01*
X-47618550Y54871315D01*
X-47458590Y55002590D01*
X-47327315Y55162550D01*
X-47229768Y55345046D01*
X-47169700Y55543066D01*
X-47164541Y55595440D01*
X-47149417Y55748997D01*
X-47149417Y55749004D01*
X-47150097Y55755906D01*
X-41637695Y55755906D01*
X-41090001Y55208211D01*
X-40542307Y55755906D01*
X-40542306Y55755906D01*
X-40683162Y55831194D01*
X-40882603Y55891693D01*
X-41089997Y55912119D01*
X-41090003Y55912119D01*
X-41297398Y55891693D01*
X-41496839Y55831194D01*
X-41637695Y55755906D01*
X-47150097Y55755906D01*
X-47169699Y55954928D01*
X-47169700Y55954930D01*
X-47169700Y55954934D01*
X-47229768Y56152954D01*
X-47254380Y56199000D01*
X-39525509Y56199000D01*
X-39505558Y56047459D01*
X-39458514Y55933883D01*
X-39447067Y55906248D01*
X-39447062Y55906240D01*
X-39354018Y55784983D01*
X-39232761Y55691939D01*
X-39232754Y55691934D01*
X-39091541Y55633442D01*
X-38978047Y55618500D01*
X-38978040Y55618500D01*
X-38901960Y55618500D01*
X-38901953Y55618500D01*
X-38788459Y55633442D01*
X-38647246Y55691934D01*
X-38563877Y55755906D01*
X-37337695Y55755906D01*
X-36790001Y55208211D01*
X-36280216Y55717997D01*
X-33821583Y55717997D01*
X-33801302Y55512073D01*
X-33741232Y55314046D01*
X-33710120Y55255839D01*
X-33643685Y55131550D01*
X-33512410Y54971590D01*
X-33352450Y54840315D01*
X-33169954Y54742768D01*
X-32971934Y54682700D01*
X-32971930Y54682700D01*
X-32971928Y54682699D01*
X-32766003Y54662417D01*
X-32766000Y54662417D01*
X-32765997Y54662417D01*
X-32560073Y54682699D01*
X-32560072Y54682700D01*
X-32560066Y54682700D01*
X-32362046Y54742768D01*
X-32179550Y54840315D01*
X-32019590Y54971590D01*
X-31888315Y55131550D01*
X-31790768Y55314046D01*
X-31730700Y55512066D01*
X-31727646Y55543066D01*
X-31710417Y55717997D01*
X-31710417Y55718004D01*
X-31730699Y55923928D01*
X-31730700Y55923930D01*
X-31730700Y55923934D01*
X-31790768Y56121954D01*
X-31888315Y56304450D01*
X-32019590Y56464410D01*
X-32179550Y56595685D01*
X-32179552Y56595686D01*
X-32179553Y56595687D01*
X-32362046Y56693232D01*
X-32417551Y56710069D01*
X-32560066Y56753300D01*
X-32560067Y56753301D01*
X-32560073Y56753302D01*
X-32765997Y56773583D01*
X-32766003Y56773583D01*
X-32971928Y56753302D01*
X-33169955Y56693232D01*
X-33352448Y56595687D01*
X-33512410Y56464410D01*
X-33643687Y56304448D01*
X-33741232Y56121955D01*
X-33801302Y55923928D01*
X-33821583Y55718004D01*
X-33821583Y55717997D01*
X-36280216Y55717997D01*
X-36242307Y55755906D01*
X-36242306Y55755906D01*
X-36383162Y55831194D01*
X-36582603Y55891693D01*
X-36789997Y55912119D01*
X-36790003Y55912119D01*
X-36997398Y55891693D01*
X-37196839Y55831194D01*
X-37337695Y55755906D01*
X-38563877Y55755906D01*
X-38525983Y55784983D01*
X-38432934Y55906245D01*
X-38374442Y56047459D01*
X-38354491Y56199000D01*
X-38374442Y56350541D01*
X-38432934Y56491754D01*
X-38436131Y56495921D01*
X-38525983Y56613018D01*
X-38647240Y56706062D01*
X-38647248Y56706067D01*
X-38788461Y56764559D01*
X-38901951Y56779500D01*
X-38901953Y56779500D01*
X-38978047Y56779500D01*
X-38978050Y56779500D01*
X-39091540Y56764559D01*
X-39232753Y56706067D01*
X-39232761Y56706062D01*
X-39354016Y56613019D01*
X-39447068Y56491754D01*
X-39490964Y56385775D01*
X-39505558Y56350541D01*
X-39525509Y56199000D01*
X-47254380Y56199000D01*
X-47327315Y56335450D01*
X-47458590Y56495410D01*
X-47618550Y56626685D01*
X-47618552Y56626686D01*
X-47618553Y56626687D01*
X-47801046Y56724232D01*
X-47801047Y56724232D01*
X-47999066Y56784300D01*
X-47999067Y56784301D01*
X-47999073Y56784302D01*
X-48204997Y56804583D01*
X-48205003Y56804583D01*
X-48410928Y56784302D01*
X-48608955Y56724232D01*
X-48753010Y56647233D01*
X-48822516Y56632761D01*
X-48888812Y56658165D01*
X-48930850Y56715378D01*
X-48935283Y56786236D01*
X-48900703Y56848242D01*
X-48496431Y57241876D01*
X-48492819Y57245130D01*
X-48395609Y57326160D01*
X-48379787Y57337401D01*
X-48277533Y57398767D01*
X-48260165Y57407445D01*
X-48149691Y57452362D01*
X-48131209Y57458262D01*
X-48015136Y57485662D01*
X-47995965Y57488650D01*
X-47870064Y57498423D01*
X-47865228Y57498611D01*
X-31904286Y57502228D01*
X-31898120Y57501925D01*
G37*
%TD.AperFunction*%
%TD*%
M02*
