%TF.GenerationSoftware,KiCad,Pcbnew,7.0.5-0*%
%TF.CreationDate,2024-03-10T13:53:24-07:00*%
%TF.ProjectId,PicoROM,5069636f-524f-44d2-9e6b-696361645f70,1.1*%
%TF.SameCoordinates,Original*%
%TF.FileFunction,Paste,Bot*%
%TF.FilePolarity,Positive*%
%FSLAX46Y46*%
G04 Gerber Fmt 4.6, Leading zero omitted, Abs format (unit mm)*
G04 Created by KiCad (PCBNEW 7.0.5-0) date 2024-03-10 13:53:24*
%MOMM*%
%LPD*%
G01*
G04 APERTURE LIST*
G04 Aperture macros list*
%AMRoundRect*
0 Rectangle with rounded corners*
0 $1 Rounding radius*
0 $2 $3 $4 $5 $6 $7 $8 $9 X,Y pos of 4 corners*
0 Add a 4 corners polygon primitive as box body*
4,1,4,$2,$3,$4,$5,$6,$7,$8,$9,$2,$3,0*
0 Add four circle primitives for the rounded corners*
1,1,$1+$1,$2,$3*
1,1,$1+$1,$4,$5*
1,1,$1+$1,$6,$7*
1,1,$1+$1,$8,$9*
0 Add four rect primitives between the rounded corners*
20,1,$1+$1,$2,$3,$4,$5,0*
20,1,$1+$1,$4,$5,$6,$7,0*
20,1,$1+$1,$6,$7,$8,$9,0*
20,1,$1+$1,$8,$9,$2,$3,0*%
G04 Aperture macros list end*
%ADD10RoundRect,0.062500X0.675000X0.062500X-0.675000X0.062500X-0.675000X-0.062500X0.675000X-0.062500X0*%
%ADD11RoundRect,0.140000X0.140000X0.170000X-0.140000X0.170000X-0.140000X-0.170000X0.140000X-0.170000X0*%
G04 APERTURE END LIST*
D10*
%TO.C,U6*%
X-37442500Y46550000D03*
X-37442500Y46150000D03*
X-37442500Y45750000D03*
X-37442500Y45350000D03*
X-37442500Y44950000D03*
X-37442500Y44550000D03*
X-37442500Y44150000D03*
X-37442500Y43750000D03*
X-37442500Y43350000D03*
X-37442500Y42950000D03*
X-37442500Y42550000D03*
X-37442500Y42150000D03*
X-43167500Y42150000D03*
X-43167500Y42550000D03*
X-43167500Y42950000D03*
X-43167500Y43350000D03*
X-43167500Y43750000D03*
X-43167500Y44150000D03*
X-43167500Y44550000D03*
X-43167500Y44950000D03*
X-43167500Y45350000D03*
X-43167500Y45750000D03*
X-43167500Y46150000D03*
X-43167500Y46550000D03*
%TD*%
%TO.C,U5*%
X-38255000Y39200000D03*
X-38255000Y38800000D03*
X-38255000Y38400000D03*
X-38255000Y38000000D03*
X-38255000Y37600000D03*
X-38255000Y37200000D03*
X-38255000Y36800000D03*
X-38255000Y36400000D03*
X-38255000Y36000000D03*
X-38255000Y35600000D03*
X-38255000Y35200000D03*
X-38255000Y34800000D03*
X-43980000Y34800000D03*
X-43980000Y35200000D03*
X-43980000Y35600000D03*
X-43980000Y36000000D03*
X-43980000Y36400000D03*
X-43980000Y36800000D03*
X-43980000Y37200000D03*
X-43980000Y37600000D03*
X-43980000Y38000000D03*
X-43980000Y38400000D03*
X-43980000Y38800000D03*
X-43980000Y39200000D03*
%TD*%
D11*
%TO.C,C20*%
X-42245000Y48950000D03*
X-43205000Y48950000D03*
%TD*%
%TO.C,C19*%
X-41455000Y33800000D03*
X-42415000Y33800000D03*
%TD*%
M02*
