%TF.GenerationSoftware,KiCad,Pcbnew,8.0.2-1*%
%TF.CreationDate,2024-05-26T22:58:53-07:00*%
%TF.ProjectId,PicoROM,5069636f-524f-44d2-9e6b-696361645f70,1.1*%
%TF.SameCoordinates,Original*%
%TF.FileFunction,Paste,Top*%
%TF.FilePolarity,Positive*%
%FSLAX46Y46*%
G04 Gerber Fmt 4.6, Leading zero omitted, Abs format (unit mm)*
G04 Created by KiCad (PCBNEW 8.0.2-1) date 2024-05-26 22:58:53*
%MOMM*%
%LPD*%
G01*
G04 APERTURE LIST*
G04 Aperture macros list*
%AMRoundRect*
0 Rectangle with rounded corners*
0 $1 Rounding radius*
0 $2 $3 $4 $5 $6 $7 $8 $9 X,Y pos of 4 corners*
0 Add a 4 corners polygon primitive as box body*
4,1,4,$2,$3,$4,$5,$6,$7,$8,$9,$2,$3,0*
0 Add four circle primitives for the rounded corners*
1,1,$1+$1,$2,$3*
1,1,$1+$1,$4,$5*
1,1,$1+$1,$6,$7*
1,1,$1+$1,$8,$9*
0 Add four rect primitives between the rounded corners*
20,1,$1+$1,$2,$3,$4,$5,0*
20,1,$1+$1,$4,$5,$6,$7,0*
20,1,$1+$1,$6,$7,$8,$9,0*
20,1,$1+$1,$8,$9,$2,$3,0*%
G04 Aperture macros list end*
%ADD10RoundRect,0.218750X0.256250X-0.218750X0.256250X0.218750X-0.256250X0.218750X-0.256250X-0.218750X0*%
%ADD11RoundRect,0.140000X-0.170000X0.140000X-0.170000X-0.140000X0.170000X-0.140000X0.170000X0.140000X0*%
%ADD12R,2.000000X2.400000*%
%ADD13RoundRect,0.140000X0.170000X-0.140000X0.170000X0.140000X-0.170000X0.140000X-0.170000X-0.140000X0*%
%ADD14RoundRect,0.250000X-0.413257X0.000000X0.000000X-0.413257X0.413257X0.000000X0.000000X0.413257X0*%
%ADD15RoundRect,0.050000X-0.309359X0.238649X0.238649X-0.309359X0.309359X-0.238649X-0.238649X0.309359X0*%
%ADD16RoundRect,0.050000X-0.309359X-0.238649X-0.238649X-0.309359X0.309359X0.238649X0.238649X0.309359X0*%
%ADD17RoundRect,0.140000X-0.140000X-0.170000X0.140000X-0.170000X0.140000X0.170000X-0.140000X0.170000X0*%
%ADD18RoundRect,0.150000X0.150000X-0.825000X0.150000X0.825000X-0.150000X0.825000X-0.150000X-0.825000X0*%
%ADD19RoundRect,0.075000X0.075000X0.425000X-0.075000X0.425000X-0.075000X-0.425000X0.075000X-0.425000X0*%
%ADD20C,1.100000*%
%ADD21RoundRect,0.150000X-0.512500X-0.150000X0.512500X-0.150000X0.512500X0.150000X-0.512500X0.150000X0*%
%ADD22RoundRect,0.250000X-0.475000X0.250000X-0.475000X-0.250000X0.475000X-0.250000X0.475000X0.250000X0*%
%ADD23RoundRect,0.140000X-0.219203X-0.021213X-0.021213X-0.219203X0.219203X0.021213X0.021213X0.219203X0*%
%ADD24RoundRect,0.140000X0.140000X0.170000X-0.140000X0.170000X-0.140000X-0.170000X0.140000X-0.170000X0*%
%ADD25RoundRect,0.140000X0.021213X-0.219203X0.219203X-0.021213X-0.021213X0.219203X-0.219203X0.021213X0*%
%ADD26RoundRect,0.202500X-0.402500X0.202500X-0.402500X-0.202500X0.402500X-0.202500X0.402500X0.202500X0*%
%ADD27RoundRect,0.062500X-0.350000X0.062500X-0.350000X-0.062500X0.350000X-0.062500X0.350000X0.062500X0*%
%ADD28RoundRect,0.062500X-0.062500X0.350000X-0.062500X-0.350000X0.062500X-0.350000X0.062500X0.350000X0*%
G04 APERTURE END LIST*
D10*
%TO.C,D2*%
X-34505000Y52112500D03*
X-34505000Y53687500D03*
%TD*%
D11*
%TO.C,C12*%
X-39695000Y23170000D03*
X-39695000Y22210000D03*
%TD*%
D12*
%TO.C,Y1*%
X-45255000Y18400000D03*
X-41555000Y18400000D03*
%TD*%
D13*
%TO.C,C17*%
X-45655000Y30710000D03*
X-45655000Y31670000D03*
%TD*%
%TO.C,R2*%
X-46505000Y54920000D03*
X-46505000Y55880000D03*
%TD*%
%TO.C,R9*%
X-43505000Y41420000D03*
X-43505000Y42380000D03*
%TD*%
D11*
%TO.C,R4*%
X-34475000Y32760000D03*
X-34475000Y31800000D03*
%TD*%
D13*
%TO.C,R10*%
X-34505000Y54920000D03*
X-34505000Y55880000D03*
%TD*%
D10*
%TO.C,D1*%
X-45305000Y38612500D03*
X-45305000Y40187500D03*
%TD*%
D14*
%TO.C,U3*%
X-41576063Y28929683D03*
X-42477624Y28028122D03*
X-40674502Y28028122D03*
X-41576063Y27126561D03*
D15*
X-42168265Y32297279D03*
X-42451108Y32014436D03*
X-42733950Y31731594D03*
X-43016793Y31448751D03*
X-43299636Y31165908D03*
X-43582478Y30883066D03*
X-43865321Y30600223D03*
X-44148164Y30317380D03*
X-44431007Y30034537D03*
X-44713849Y29751695D03*
X-44996692Y29468852D03*
X-45279535Y29186009D03*
X-45562377Y28903167D03*
X-45845220Y28620324D03*
D16*
X-45845220Y27435920D03*
X-45562377Y27153077D03*
X-45279535Y26870235D03*
X-44996692Y26587392D03*
X-44713849Y26304549D03*
X-44431007Y26021707D03*
X-44148164Y25738864D03*
X-43865321Y25456021D03*
X-43582478Y25173178D03*
X-43299636Y24890336D03*
X-43016793Y24607493D03*
X-42733950Y24324650D03*
X-42451108Y24041808D03*
X-42168265Y23758965D03*
D15*
X-40983861Y23758965D03*
X-40701018Y24041808D03*
X-40418176Y24324650D03*
X-40135333Y24607493D03*
X-39852490Y24890336D03*
X-39569648Y25173178D03*
X-39286805Y25456021D03*
X-39003962Y25738864D03*
X-38721119Y26021707D03*
X-38438277Y26304549D03*
X-38155434Y26587392D03*
X-37872591Y26870235D03*
X-37589749Y27153077D03*
X-37306906Y27435920D03*
D16*
X-37306906Y28620324D03*
X-37589749Y28903167D03*
X-37872591Y29186009D03*
X-38155434Y29468852D03*
X-38438277Y29751695D03*
X-38721119Y30034537D03*
X-39003962Y30317380D03*
X-39286805Y30600223D03*
X-39569648Y30883066D03*
X-39852490Y31165908D03*
X-40135333Y31448751D03*
X-40418176Y31731594D03*
X-40701018Y32014436D03*
X-40983861Y32297279D03*
%TD*%
D17*
%TO.C,R5*%
X-43785000Y20770000D03*
X-42825000Y20770000D03*
%TD*%
D18*
%TO.C,U2*%
X-42230000Y35235000D03*
X-40960000Y35235000D03*
X-39690000Y35235000D03*
X-38420000Y35235000D03*
X-38420000Y40185000D03*
X-39690000Y40185000D03*
X-40960000Y40185000D03*
X-42230000Y40185000D03*
%TD*%
D17*
%TO.C,C10*%
X-35395000Y28620000D03*
X-34435000Y28620000D03*
%TD*%
D19*
%TO.C,J1*%
X-37725000Y53840000D03*
X-38515000Y53840000D03*
X-39305000Y53840000D03*
X-40095000Y53840000D03*
X-40885000Y53840000D03*
X-41675000Y53840000D03*
X-42465000Y53840000D03*
X-43255000Y53840000D03*
X-43255000Y55360000D03*
X-42465000Y55360000D03*
X-41675000Y55360000D03*
X-40885000Y55360000D03*
X-40095000Y55360000D03*
X-39305000Y55360000D03*
X-38515000Y55360000D03*
X-37725000Y55360000D03*
D20*
X-38105000Y52450000D03*
X-38105000Y56750000D03*
X-42905000Y52450000D03*
X-42905000Y56750000D03*
%TD*%
D17*
%TO.C,C8*%
X-36255000Y29540000D03*
X-35295000Y29540000D03*
%TD*%
%TO.C,C3*%
X-41955000Y20760000D03*
X-40995000Y20760000D03*
%TD*%
D21*
%TO.C,U1*%
X-44282500Y50200000D03*
X-44282500Y49250000D03*
X-44282500Y48300000D03*
X-42007500Y48300000D03*
X-42007500Y50200000D03*
%TD*%
D22*
%TO.C,C4*%
X-39956000Y50200000D03*
X-39956000Y48300000D03*
%TD*%
D23*
%TO.C,C13*%
X-44004411Y23919411D03*
X-43325589Y23240589D03*
%TD*%
%TO.C,C9*%
X-35714411Y27439411D03*
X-35035589Y26760589D03*
%TD*%
%TO.C,C11*%
X-36374411Y26789411D03*
X-35695589Y26110589D03*
%TD*%
D13*
%TO.C,R1*%
X-43525000Y35260000D03*
X-43525000Y36220000D03*
%TD*%
%TO.C,C18*%
X-35175000Y22090000D03*
X-35175000Y23050000D03*
%TD*%
D17*
%TO.C,C15*%
X-37695000Y30870000D03*
X-36735000Y30870000D03*
%TD*%
D24*
%TO.C,C16*%
X-42965000Y33370000D03*
X-43925000Y33370000D03*
%TD*%
%TO.C,C2*%
X-44705000Y20760000D03*
X-45665000Y20760000D03*
%TD*%
D25*
%TO.C,C7*%
X-38614411Y32000589D03*
X-37935589Y32679411D03*
%TD*%
D11*
%TO.C,C5*%
X-43505000Y39880000D03*
X-43505000Y38920000D03*
%TD*%
D22*
%TO.C,C1*%
X-46306000Y50200000D03*
X-46306000Y48300000D03*
%TD*%
D23*
%TO.C,C6*%
X-42694411Y22599411D03*
X-42015589Y21920589D03*
%TD*%
D17*
%TO.C,C14*%
X-37255000Y31800000D03*
X-36295000Y31800000D03*
%TD*%
D10*
%TO.C,D4*%
X-46505000Y52112500D03*
X-46505000Y53687500D03*
%TD*%
D11*
%TO.C,R3*%
X-35395000Y32750000D03*
X-35395000Y31790000D03*
%TD*%
D26*
%TO.C,U4*%
X-36705000Y19712500D03*
X-38205000Y19712500D03*
D27*
X-35267500Y19962500D03*
D28*
X-35705000Y20900000D03*
X-36205000Y20900000D03*
X-36705000Y20900000D03*
X-37205000Y20900000D03*
X-37705000Y20900000D03*
X-38205000Y20900000D03*
X-38705000Y20900000D03*
X-39205000Y20900000D03*
D27*
X-39642500Y19962500D03*
X-39642500Y19462500D03*
D28*
X-39205000Y18525000D03*
X-38705000Y18525000D03*
X-38205000Y18525000D03*
X-37705000Y18525000D03*
X-37205000Y18525000D03*
X-36705000Y18525000D03*
X-36205000Y18525000D03*
X-35705000Y18525000D03*
D27*
X-35267500Y19462500D03*
%TD*%
M02*
