%TF.GenerationSoftware,KiCad,Pcbnew,8.0.2-1*%
%TF.CreationDate,2024-05-26T22:58:53-07:00*%
%TF.ProjectId,PicoROM,5069636f-524f-44d2-9e6b-696361645f70,1.1*%
%TF.SameCoordinates,Original*%
%TF.FileFunction,Legend,Top*%
%TF.FilePolarity,Positive*%
%FSLAX46Y46*%
G04 Gerber Fmt 4.6, Leading zero omitted, Abs format (unit mm)*
G04 Created by KiCad (PCBNEW 8.0.2-1) date 2024-05-26 22:58:53*
%MOMM*%
%LPD*%
G01*
G04 APERTURE LIST*
G04 Aperture macros list*
%AMRoundRect*
0 Rectangle with rounded corners*
0 $1 Rounding radius*
0 $2 $3 $4 $5 $6 $7 $8 $9 X,Y pos of 4 corners*
0 Add a 4 corners polygon primitive as box body*
4,1,4,$2,$3,$4,$5,$6,$7,$8,$9,$2,$3,0*
0 Add four circle primitives for the rounded corners*
1,1,$1+$1,$2,$3*
1,1,$1+$1,$4,$5*
1,1,$1+$1,$6,$7*
1,1,$1+$1,$8,$9*
0 Add four rect primitives between the rounded corners*
20,1,$1+$1,$2,$3,$4,$5,0*
20,1,$1+$1,$4,$5,$6,$7,0*
20,1,$1+$1,$6,$7,$8,$9,0*
20,1,$1+$1,$8,$9,$2,$3,0*%
G04 Aperture macros list end*
%ADD10C,2.400543*%
%ADD11C,0.125000*%
%ADD12C,0.150000*%
%ADD13C,0.300000*%
%ADD14C,0.120000*%
%ADD15RoundRect,0.244250X0.281750X-0.244250X0.281750X0.244250X-0.281750X0.244250X-0.281750X-0.244250X0*%
%ADD16RoundRect,0.165500X-0.195500X0.165500X-0.195500X-0.165500X0.195500X-0.165500X0.195500X0.165500X0*%
%ADD17RoundRect,0.051000X-1.000000X-1.200000X1.000000X-1.200000X1.000000X1.200000X-1.000000X1.200000X0*%
%ADD18RoundRect,0.165500X0.195500X-0.165500X0.195500X0.165500X-0.195500X0.165500X-0.195500X-0.165500X0*%
%ADD19RoundRect,0.075500X-0.345422X0.238649X0.238649X-0.345422X0.345422X-0.238649X-0.238649X0.345422X0*%
%ADD20RoundRect,0.075500X-0.345422X-0.238649X-0.238649X-0.345422X0.345422X0.238649X0.238649X0.345422X0*%
%ADD21RoundRect,0.148590X-2.124729X0.000000X0.000000X-2.124729X2.124729X0.000000X0.000000X2.124729X0*%
%ADD22RoundRect,0.165500X-0.165500X-0.195500X0.165500X-0.195500X0.165500X0.195500X-0.165500X0.195500X0*%
%ADD23RoundRect,0.175500X0.175500X-0.850500X0.175500X0.850500X-0.175500X0.850500X-0.175500X-0.850500X0*%
%ADD24C,0.762000*%
%ADD25O,1.102000X0.682000*%
%ADD26RoundRect,0.100500X0.100500X0.450500X-0.100500X0.450500X-0.100500X-0.450500X0.100500X-0.450500X0*%
%ADD27C,1.202000*%
%ADD28RoundRect,0.175500X-0.538000X-0.175500X0.538000X-0.175500X0.538000X0.175500X-0.538000X0.175500X0*%
%ADD29RoundRect,0.275500X-0.500500X0.275500X-0.500500X-0.275500X0.500500X-0.275500X0.500500X0.275500X0*%
%ADD30RoundRect,0.165500X-0.255266X-0.021213X-0.021213X-0.255266X0.255266X0.021213X0.021213X0.255266X0*%
%ADD31RoundRect,0.165500X0.165500X0.195500X-0.165500X0.195500X-0.165500X-0.195500X0.165500X-0.195500X0*%
%ADD32RoundRect,0.165500X0.021213X-0.255266X0.255266X-0.021213X-0.021213X0.255266X-0.255266X0.021213X0*%
%ADD33RoundRect,0.051000X0.850000X0.850000X-0.850000X0.850000X-0.850000X-0.850000X0.850000X-0.850000X0*%
%ADD34O,1.802000X1.802000*%
%ADD35RoundRect,0.088000X-0.375500X0.088000X-0.375500X-0.088000X0.375500X-0.088000X0.375500X0.088000X0*%
%ADD36RoundRect,0.088000X-0.088000X0.375500X-0.088000X-0.375500X0.088000X-0.375500X0.088000X0.375500X0*%
%ADD37RoundRect,0.051000X-1.500000X0.500000X-1.500000X-0.500000X1.500000X-0.500000X1.500000X0.500000X0*%
%ADD38C,1.802000*%
G04 APERTURE END LIST*
D10*
X-39254729Y58449000D02*
G75*
G02*
X-41655271Y58449000I-1200271J0D01*
G01*
X-41655271Y58449000D02*
G75*
G02*
X-39254729Y58449000I1200271J0D01*
G01*
D11*
X-31740387Y46139373D02*
X-31572028Y46307732D01*
X-31673044Y46004686D02*
X-31908746Y46476091D01*
X-31908746Y46476091D02*
X-31437341Y46240389D01*
X-31134296Y46543434D02*
X-31336326Y46341403D01*
X-31235311Y46442419D02*
X-31588864Y46795972D01*
X-31588864Y46795972D02*
X-31572029Y46711793D01*
X-31572029Y46711793D02*
X-31572029Y46644449D01*
X-31572029Y46644449D02*
X-31588864Y46593942D01*
X-31369998Y47014838D02*
X-31151132Y47233705D01*
X-31151132Y47233705D02*
X-31134296Y46981166D01*
X-31134296Y46981166D02*
X-31083788Y47031674D01*
X-31083788Y47031674D02*
X-31033281Y47048510D01*
X-31033281Y47048510D02*
X-30999609Y47048510D01*
X-30999609Y47048510D02*
X-30949101Y47031674D01*
X-30949101Y47031674D02*
X-30864922Y46947495D01*
X-30864922Y46947495D02*
X-30848086Y46896987D01*
X-30848086Y46896987D02*
X-30848086Y46863315D01*
X-30848086Y46863315D02*
X-30864922Y46812808D01*
X-30864922Y46812808D02*
X-30965937Y46711792D01*
X-30965937Y46711792D02*
X-31016445Y46694957D01*
X-31016445Y46694957D02*
X-31050117Y46694957D01*
X-49724690Y46644449D02*
X-49556331Y46476090D01*
X-49859377Y46577105D02*
X-49387972Y46812808D01*
X-49387972Y46812808D02*
X-49623674Y46341403D01*
X-49185942Y46610777D02*
X-48950240Y46375075D01*
X-48950240Y46375075D02*
X-49455316Y46173045D01*
X-49859377Y21177106D02*
X-49505824Y21530659D01*
X-49505824Y21530659D02*
X-49421644Y21446480D01*
X-49421644Y21446480D02*
X-49387972Y21379136D01*
X-49387972Y21379136D02*
X-49387972Y21311793D01*
X-49387972Y21311793D02*
X-49404808Y21261285D01*
X-49404808Y21261285D02*
X-49455316Y21177106D01*
X-49455316Y21177106D02*
X-49505824Y21126598D01*
X-49505824Y21126598D02*
X-49590003Y21076090D01*
X-49590003Y21076090D02*
X-49640511Y21059255D01*
X-49640511Y21059255D02*
X-49707854Y21059255D01*
X-49707854Y21059255D02*
X-49775198Y21092926D01*
X-49775198Y21092926D02*
X-49859377Y21177106D01*
X-49202778Y21160270D02*
X-49169106Y21160270D01*
X-49169106Y21160270D02*
X-49118598Y21143434D01*
X-49118598Y21143434D02*
X-49034419Y21059255D01*
X-49034419Y21059255D02*
X-49017583Y21008747D01*
X-49017583Y21008747D02*
X-49017583Y20975075D01*
X-49017583Y20975075D02*
X-49034419Y20924568D01*
X-49034419Y20924568D02*
X-49068091Y20890896D01*
X-49068091Y20890896D02*
X-49135434Y20857224D01*
X-49135434Y20857224D02*
X-49539495Y20857224D01*
X-49539495Y20857224D02*
X-49320629Y20638358D01*
X-31807731Y56761106D02*
X-31976089Y56592747D01*
X-31976089Y56592747D02*
X-31824566Y56407553D01*
X-31824566Y56407553D02*
X-31824566Y56441224D01*
X-31824566Y56441224D02*
X-31807731Y56491732D01*
X-31807731Y56491732D02*
X-31723551Y56575911D01*
X-31723551Y56575911D02*
X-31673044Y56592747D01*
X-31673044Y56592747D02*
X-31639372Y56592747D01*
X-31639372Y56592747D02*
X-31588864Y56575911D01*
X-31588864Y56575911D02*
X-31504685Y56491732D01*
X-31504685Y56491732D02*
X-31487849Y56441224D01*
X-31487849Y56441224D02*
X-31487849Y56407553D01*
X-31487849Y56407553D02*
X-31504685Y56357045D01*
X-31504685Y56357045D02*
X-31588864Y56272866D01*
X-31588864Y56272866D02*
X-31639372Y56256030D01*
X-31639372Y56256030D02*
X-31673044Y56256030D01*
X-31689880Y56878957D02*
X-31218475Y56643255D01*
X-31218475Y56643255D02*
X-31454177Y57114659D01*
X-31740387Y53759373D02*
X-31572028Y53927732D01*
X-31673044Y53624686D02*
X-31908746Y54096091D01*
X-31908746Y54096091D02*
X-31437341Y53860389D01*
X-31134296Y54163434D02*
X-31336326Y53961403D01*
X-31235311Y54062419D02*
X-31588864Y54415972D01*
X-31588864Y54415972D02*
X-31572029Y54331793D01*
X-31572029Y54331793D02*
X-31572029Y54264449D01*
X-31572029Y54264449D02*
X-31588864Y54213942D01*
X-31134296Y54567495D02*
X-31184804Y54550659D01*
X-31184804Y54550659D02*
X-31218476Y54550659D01*
X-31218476Y54550659D02*
X-31268983Y54567495D01*
X-31268983Y54567495D02*
X-31285819Y54584331D01*
X-31285819Y54584331D02*
X-31302655Y54634838D01*
X-31302655Y54634838D02*
X-31302655Y54668510D01*
X-31302655Y54668510D02*
X-31285819Y54719018D01*
X-31285819Y54719018D02*
X-31218476Y54786361D01*
X-31218476Y54786361D02*
X-31167968Y54803197D01*
X-31167968Y54803197D02*
X-31134296Y54803197D01*
X-31134296Y54803197D02*
X-31083788Y54786361D01*
X-31083788Y54786361D02*
X-31066953Y54769525D01*
X-31066953Y54769525D02*
X-31050117Y54719018D01*
X-31050117Y54719018D02*
X-31050117Y54685346D01*
X-31050117Y54685346D02*
X-31066953Y54634838D01*
X-31066953Y54634838D02*
X-31134296Y54567495D01*
X-31134296Y54567495D02*
X-31151132Y54516987D01*
X-31151132Y54516987D02*
X-31151132Y54483315D01*
X-31151132Y54483315D02*
X-31134296Y54432808D01*
X-31134296Y54432808D02*
X-31066953Y54365464D01*
X-31066953Y54365464D02*
X-31016445Y54348628D01*
X-31016445Y54348628D02*
X-30982773Y54348628D01*
X-30982773Y54348628D02*
X-30932266Y54365464D01*
X-30932266Y54365464D02*
X-30864922Y54432808D01*
X-30864922Y54432808D02*
X-30848086Y54483315D01*
X-30848086Y54483315D02*
X-30848086Y54516987D01*
X-30848086Y54516987D02*
X-30864922Y54567495D01*
X-30864922Y54567495D02*
X-30932266Y54634838D01*
X-30932266Y54634838D02*
X-30982773Y54651674D01*
X-30982773Y54651674D02*
X-31016445Y54651674D01*
X-31016445Y54651674D02*
X-31066953Y54634838D01*
X-31622536Y20655194D02*
X-31976089Y21008747D01*
X-31976089Y21008747D02*
X-31891910Y21092927D01*
X-31891910Y21092927D02*
X-31824566Y21126598D01*
X-31824566Y21126598D02*
X-31757223Y21126598D01*
X-31757223Y21126598D02*
X-31706715Y21109763D01*
X-31706715Y21109763D02*
X-31622536Y21059255D01*
X-31622536Y21059255D02*
X-31572028Y21008747D01*
X-31572028Y21008747D02*
X-31521521Y20924568D01*
X-31521521Y20924568D02*
X-31504685Y20874060D01*
X-31504685Y20874060D02*
X-31504685Y20806717D01*
X-31504685Y20806717D02*
X-31538357Y20739373D01*
X-31538357Y20739373D02*
X-31622536Y20655194D01*
X-31353162Y21395972D02*
X-31117460Y21160270D01*
X-31572028Y21446480D02*
X-31403669Y21109763D01*
X-31403669Y21109763D02*
X-31184803Y21328629D01*
X-49724690Y36484449D02*
X-49556331Y36316090D01*
X-49859377Y36417105D02*
X-49387972Y36652808D01*
X-49387972Y36652808D02*
X-49623674Y36181403D01*
X-49185942Y36450777D02*
X-48967076Y36231911D01*
X-48967076Y36231911D02*
X-49219614Y36215075D01*
X-49219614Y36215075D02*
X-49169106Y36164568D01*
X-49169106Y36164568D02*
X-49152270Y36114060D01*
X-49152270Y36114060D02*
X-49152270Y36080388D01*
X-49152270Y36080388D02*
X-49169106Y36029881D01*
X-49169106Y36029881D02*
X-49253285Y35945701D01*
X-49253285Y35945701D02*
X-49303793Y35928865D01*
X-49303793Y35928865D02*
X-49337465Y35928865D01*
X-49337465Y35928865D02*
X-49387972Y35945701D01*
X-49387972Y35945701D02*
X-49488988Y36046716D01*
X-49488988Y36046716D02*
X-49505824Y36097224D01*
X-49505824Y36097224D02*
X-49505824Y36130896D01*
X-49724690Y39024449D02*
X-49556331Y38856090D01*
X-49859377Y38957105D02*
X-49387972Y39192808D01*
X-49387972Y39192808D02*
X-49623674Y38721403D01*
X-49118598Y38687732D02*
X-49354301Y38452029D01*
X-49068091Y38906598D02*
X-49404808Y38738239D01*
X-49404808Y38738239D02*
X-49185942Y38519373D01*
X-31622536Y25735194D02*
X-31976089Y26088747D01*
X-31976089Y26088747D02*
X-31891910Y26172927D01*
X-31891910Y26172927D02*
X-31824566Y26206598D01*
X-31824566Y26206598D02*
X-31757223Y26206598D01*
X-31757223Y26206598D02*
X-31706715Y26189763D01*
X-31706715Y26189763D02*
X-31622536Y26139255D01*
X-31622536Y26139255D02*
X-31572028Y26088747D01*
X-31572028Y26088747D02*
X-31521521Y26004568D01*
X-31521521Y26004568D02*
X-31504685Y25954060D01*
X-31504685Y25954060D02*
X-31504685Y25886717D01*
X-31504685Y25886717D02*
X-31538357Y25819373D01*
X-31538357Y25819373D02*
X-31622536Y25735194D01*
X-31471013Y26593824D02*
X-31538357Y26526480D01*
X-31538357Y26526480D02*
X-31555192Y26475972D01*
X-31555192Y26475972D02*
X-31555192Y26442301D01*
X-31555192Y26442301D02*
X-31538357Y26358121D01*
X-31538357Y26358121D02*
X-31487849Y26273942D01*
X-31487849Y26273942D02*
X-31353162Y26139255D01*
X-31353162Y26139255D02*
X-31302654Y26122419D01*
X-31302654Y26122419D02*
X-31268982Y26122419D01*
X-31268982Y26122419D02*
X-31218475Y26139255D01*
X-31218475Y26139255D02*
X-31151131Y26206598D01*
X-31151131Y26206598D02*
X-31134295Y26257106D01*
X-31134295Y26257106D02*
X-31134295Y26290778D01*
X-31134295Y26290778D02*
X-31151131Y26341285D01*
X-31151131Y26341285D02*
X-31235311Y26425465D01*
X-31235311Y26425465D02*
X-31285818Y26442301D01*
X-31285818Y26442301D02*
X-31319490Y26442301D01*
X-31319490Y26442301D02*
X-31369998Y26425465D01*
X-31369998Y26425465D02*
X-31437341Y26358121D01*
X-31437341Y26358121D02*
X-31454177Y26307614D01*
X-31454177Y26307614D02*
X-31454177Y26273942D01*
X-31454177Y26273942D02*
X-31437341Y26223434D01*
X-31740387Y41059373D02*
X-31572028Y41227732D01*
X-31673044Y40924686D02*
X-31908746Y41396091D01*
X-31908746Y41396091D02*
X-31437341Y41160389D01*
X-31302655Y41295075D02*
X-31235311Y41362419D01*
X-31235311Y41362419D02*
X-31218475Y41412926D01*
X-31218475Y41412926D02*
X-31218475Y41446598D01*
X-31218475Y41446598D02*
X-31235311Y41530778D01*
X-31235311Y41530778D02*
X-31285819Y41614957D01*
X-31285819Y41614957D02*
X-31420506Y41749644D01*
X-31420506Y41749644D02*
X-31471013Y41766480D01*
X-31471013Y41766480D02*
X-31504685Y41766480D01*
X-31504685Y41766480D02*
X-31555193Y41749644D01*
X-31555193Y41749644D02*
X-31622536Y41682300D01*
X-31622536Y41682300D02*
X-31639372Y41631793D01*
X-31639372Y41631793D02*
X-31639372Y41598121D01*
X-31639372Y41598121D02*
X-31622536Y41547613D01*
X-31622536Y41547613D02*
X-31538357Y41463434D01*
X-31538357Y41463434D02*
X-31487849Y41446598D01*
X-31487849Y41446598D02*
X-31454177Y41446598D01*
X-31454177Y41446598D02*
X-31403670Y41463434D01*
X-31403670Y41463434D02*
X-31336326Y41530778D01*
X-31336326Y41530778D02*
X-31319490Y41581285D01*
X-31319490Y41581285D02*
X-31319490Y41614957D01*
X-31319490Y41614957D02*
X-31336326Y41665465D01*
X-49859377Y26257106D02*
X-49505824Y26610659D01*
X-49505824Y26610659D02*
X-49421644Y26526480D01*
X-49421644Y26526480D02*
X-49387972Y26459136D01*
X-49387972Y26459136D02*
X-49387972Y26391793D01*
X-49387972Y26391793D02*
X-49404808Y26341285D01*
X-49404808Y26341285D02*
X-49455316Y26257106D01*
X-49455316Y26257106D02*
X-49505824Y26206598D01*
X-49505824Y26206598D02*
X-49590003Y26156090D01*
X-49590003Y26156090D02*
X-49640511Y26139255D01*
X-49640511Y26139255D02*
X-49707854Y26139255D01*
X-49707854Y26139255D02*
X-49775198Y26172926D01*
X-49775198Y26172926D02*
X-49859377Y26257106D01*
X-49084927Y26189762D02*
X-49051255Y26156090D01*
X-49051255Y26156090D02*
X-49034419Y26105583D01*
X-49034419Y26105583D02*
X-49034419Y26071911D01*
X-49034419Y26071911D02*
X-49051255Y26021403D01*
X-49051255Y26021403D02*
X-49101763Y25937224D01*
X-49101763Y25937224D02*
X-49185942Y25853045D01*
X-49185942Y25853045D02*
X-49270121Y25802537D01*
X-49270121Y25802537D02*
X-49320629Y25785701D01*
X-49320629Y25785701D02*
X-49354301Y25785701D01*
X-49354301Y25785701D02*
X-49404808Y25802537D01*
X-49404808Y25802537D02*
X-49438480Y25836209D01*
X-49438480Y25836209D02*
X-49455316Y25886716D01*
X-49455316Y25886716D02*
X-49455316Y25920388D01*
X-49455316Y25920388D02*
X-49438480Y25970896D01*
X-49438480Y25970896D02*
X-49387972Y26055075D01*
X-49387972Y26055075D02*
X-49303793Y26139255D01*
X-49303793Y26139255D02*
X-49219614Y26189762D01*
X-49219614Y26189762D02*
X-49169106Y26206598D01*
X-49169106Y26206598D02*
X-49135434Y26206598D01*
X-49135434Y26206598D02*
X-49084927Y26189762D01*
X-31622536Y18115194D02*
X-31976089Y18468747D01*
X-31976089Y18468747D02*
X-31891910Y18552927D01*
X-31891910Y18552927D02*
X-31824566Y18586598D01*
X-31824566Y18586598D02*
X-31757223Y18586598D01*
X-31757223Y18586598D02*
X-31706715Y18569763D01*
X-31706715Y18569763D02*
X-31622536Y18519255D01*
X-31622536Y18519255D02*
X-31572028Y18468747D01*
X-31572028Y18468747D02*
X-31521521Y18384568D01*
X-31521521Y18384568D02*
X-31504685Y18334060D01*
X-31504685Y18334060D02*
X-31504685Y18266717D01*
X-31504685Y18266717D02*
X-31538357Y18199373D01*
X-31538357Y18199373D02*
X-31622536Y18115194D01*
X-31656208Y18788629D02*
X-31437341Y19007495D01*
X-31437341Y19007495D02*
X-31420505Y18754957D01*
X-31420505Y18754957D02*
X-31369998Y18805465D01*
X-31369998Y18805465D02*
X-31319490Y18822301D01*
X-31319490Y18822301D02*
X-31285818Y18822301D01*
X-31285818Y18822301D02*
X-31235311Y18805465D01*
X-31235311Y18805465D02*
X-31151131Y18721285D01*
X-31151131Y18721285D02*
X-31134295Y18670778D01*
X-31134295Y18670778D02*
X-31134295Y18637106D01*
X-31134295Y18637106D02*
X-31151131Y18586598D01*
X-31151131Y18586598D02*
X-31252147Y18485583D01*
X-31252147Y18485583D02*
X-31302654Y18468747D01*
X-31302654Y18468747D02*
X-31336326Y18468747D01*
D12*
X-33989277Y38250065D02*
X-33989277Y38631018D01*
X-33760705Y38173875D02*
X-34560705Y38440542D01*
X-34560705Y38440542D02*
X-33760705Y38707208D01*
X-33836896Y39431018D02*
X-33798800Y39392922D01*
X-33798800Y39392922D02*
X-33760705Y39278637D01*
X-33760705Y39278637D02*
X-33760705Y39202446D01*
X-33760705Y39202446D02*
X-33798800Y39088160D01*
X-33798800Y39088160D02*
X-33874991Y39011970D01*
X-33874991Y39011970D02*
X-33951181Y38973875D01*
X-33951181Y38973875D02*
X-34103562Y38935779D01*
X-34103562Y38935779D02*
X-34217848Y38935779D01*
X-34217848Y38935779D02*
X-34370229Y38973875D01*
X-34370229Y38973875D02*
X-34446420Y39011970D01*
X-34446420Y39011970D02*
X-34522610Y39088160D01*
X-34522610Y39088160D02*
X-34560705Y39202446D01*
X-34560705Y39202446D02*
X-34560705Y39278637D01*
X-34560705Y39278637D02*
X-34522610Y39392922D01*
X-34522610Y39392922D02*
X-34484515Y39431018D01*
X-34560705Y39659589D02*
X-34560705Y40116732D01*
X-33760705Y39888160D02*
X-34560705Y39888160D01*
D11*
X-31622536Y28275194D02*
X-31976089Y28628747D01*
X-31976089Y28628747D02*
X-31891910Y28712927D01*
X-31891910Y28712927D02*
X-31824566Y28746598D01*
X-31824566Y28746598D02*
X-31757223Y28746598D01*
X-31757223Y28746598D02*
X-31706715Y28729763D01*
X-31706715Y28729763D02*
X-31622536Y28679255D01*
X-31622536Y28679255D02*
X-31572028Y28628747D01*
X-31572028Y28628747D02*
X-31521521Y28544568D01*
X-31521521Y28544568D02*
X-31504685Y28494060D01*
X-31504685Y28494060D02*
X-31504685Y28426717D01*
X-31504685Y28426717D02*
X-31538357Y28359373D01*
X-31538357Y28359373D02*
X-31622536Y28275194D01*
X-31656208Y28948629D02*
X-31420505Y29184331D01*
X-31420505Y29184331D02*
X-31218475Y28679255D01*
X-49724690Y31404449D02*
X-49556331Y31236090D01*
X-49859377Y31337105D02*
X-49387972Y31572808D01*
X-49387972Y31572808D02*
X-49623674Y31101403D01*
X-49320629Y30798358D02*
X-49522659Y31000388D01*
X-49421644Y30899373D02*
X-49068091Y31252926D01*
X-49068091Y31252926D02*
X-49152270Y31236090D01*
X-49152270Y31236090D02*
X-49219614Y31236090D01*
X-49219614Y31236090D02*
X-49270121Y31252926D01*
D12*
X-43842031Y38949658D02*
X-43699174Y38806800D01*
X-43699174Y38806800D02*
X-43842031Y38663943D01*
X-43842031Y38663943D02*
X-43984888Y38806800D01*
X-43984888Y38806800D02*
X-43842031Y38949658D01*
X-43842031Y38949658D02*
X-43842031Y38663943D01*
D11*
X-31740387Y33439373D02*
X-31572028Y33607732D01*
X-31673044Y33304686D02*
X-31908746Y33776091D01*
X-31908746Y33776091D02*
X-31437341Y33540389D01*
X-31134296Y33843434D02*
X-31336326Y33641403D01*
X-31235311Y33742419D02*
X-31588864Y34095972D01*
X-31588864Y34095972D02*
X-31572029Y34011793D01*
X-31572029Y34011793D02*
X-31572029Y33944449D01*
X-31572029Y33944449D02*
X-31588864Y33893942D01*
X-31268983Y34415853D02*
X-31235311Y34449525D01*
X-31235311Y34449525D02*
X-31184804Y34466361D01*
X-31184804Y34466361D02*
X-31151132Y34466361D01*
X-31151132Y34466361D02*
X-31100624Y34449525D01*
X-31100624Y34449525D02*
X-31016445Y34399018D01*
X-31016445Y34399018D02*
X-30932266Y34314838D01*
X-30932266Y34314838D02*
X-30881758Y34230659D01*
X-30881758Y34230659D02*
X-30864922Y34180151D01*
X-30864922Y34180151D02*
X-30864922Y34146479D01*
X-30864922Y34146479D02*
X-30881758Y34095972D01*
X-30881758Y34095972D02*
X-30915430Y34062300D01*
X-30915430Y34062300D02*
X-30965937Y34045464D01*
X-30965937Y34045464D02*
X-30999609Y34045464D01*
X-30999609Y34045464D02*
X-31050117Y34062300D01*
X-31050117Y34062300D02*
X-31134296Y34112808D01*
X-31134296Y34112808D02*
X-31218476Y34196987D01*
X-31218476Y34196987D02*
X-31268983Y34281166D01*
X-31268983Y34281166D02*
X-31285819Y34331674D01*
X-31285819Y34331674D02*
X-31285819Y34365346D01*
X-31285819Y34365346D02*
X-31268983Y34415853D01*
D12*
X-34701848Y49340542D02*
X-34035181Y49578637D01*
X-34035181Y49578637D02*
X-34701848Y49816732D01*
X-34035181Y50721494D02*
X-34035181Y50150066D01*
X-34035181Y50435780D02*
X-35035181Y50435780D01*
X-35035181Y50435780D02*
X-34892324Y50340542D01*
X-34892324Y50340542D02*
X-34797086Y50245304D01*
X-34797086Y50245304D02*
X-34749467Y50150066D01*
X-34130420Y51150066D02*
X-34082800Y51197685D01*
X-34082800Y51197685D02*
X-34035181Y51150066D01*
X-34035181Y51150066D02*
X-34082800Y51102447D01*
X-34082800Y51102447D02*
X-34130420Y51150066D01*
X-34130420Y51150066D02*
X-34035181Y51150066D01*
X-34939943Y51578637D02*
X-34987562Y51626256D01*
X-34987562Y51626256D02*
X-35035181Y51721494D01*
X-35035181Y51721494D02*
X-35035181Y51959589D01*
X-35035181Y51959589D02*
X-34987562Y52054827D01*
X-34987562Y52054827D02*
X-34939943Y52102446D01*
X-34939943Y52102446D02*
X-34844705Y52150065D01*
X-34844705Y52150065D02*
X-34749467Y52150065D01*
X-34749467Y52150065D02*
X-34606610Y52102446D01*
X-34606610Y52102446D02*
X-34035181Y51531018D01*
X-34035181Y51531018D02*
X-34035181Y52150065D01*
D11*
X-49724691Y19175854D02*
X-49741526Y19226362D01*
X-49741526Y19226362D02*
X-49792034Y19276870D01*
X-49792034Y19276870D02*
X-49859378Y19310541D01*
X-49859378Y19310541D02*
X-49926721Y19310541D01*
X-49926721Y19310541D02*
X-49977229Y19293706D01*
X-49977229Y19293706D02*
X-50061408Y19243198D01*
X-50061408Y19243198D02*
X-50111916Y19192690D01*
X-50111916Y19192690D02*
X-50162423Y19108511D01*
X-50162423Y19108511D02*
X-50179259Y19058003D01*
X-50179259Y19058003D02*
X-50179259Y18990660D01*
X-50179259Y18990660D02*
X-50145587Y18923316D01*
X-50145587Y18923316D02*
X-50111916Y18889645D01*
X-50111916Y18889645D02*
X-50044572Y18855973D01*
X-50044572Y18855973D02*
X-50010900Y18855973D01*
X-50010900Y18855973D02*
X-49893049Y18973824D01*
X-49893049Y18973824D02*
X-49960393Y19041167D01*
X-49893049Y18670778D02*
X-49539496Y19024332D01*
X-49539496Y19024332D02*
X-49691019Y18468748D01*
X-49691019Y18468748D02*
X-49337465Y18822301D01*
X-49522660Y18300389D02*
X-49169106Y18653942D01*
X-49169106Y18653942D02*
X-49084927Y18569763D01*
X-49084927Y18569763D02*
X-49051255Y18502419D01*
X-49051255Y18502419D02*
X-49051255Y18435076D01*
X-49051255Y18435076D02*
X-49068091Y18384568D01*
X-49068091Y18384568D02*
X-49118599Y18300389D01*
X-49118599Y18300389D02*
X-49169106Y18249881D01*
X-49169106Y18249881D02*
X-49253286Y18199373D01*
X-49253286Y18199373D02*
X-49303793Y18182537D01*
X-49303793Y18182537D02*
X-49371137Y18182537D01*
X-49371137Y18182537D02*
X-49438480Y18216209D01*
X-49438480Y18216209D02*
X-49522660Y18300389D01*
X-50061407Y49521166D02*
X-49893048Y49352807D01*
X-50196094Y49453823D02*
X-49724689Y49689525D01*
X-49724689Y49689525D02*
X-49960392Y49218120D01*
X-49657346Y48915075D02*
X-49859377Y49117105D01*
X-49758361Y49016090D02*
X-49404808Y49369644D01*
X-49404808Y49369644D02*
X-49488987Y49352808D01*
X-49488987Y49352808D02*
X-49556331Y49352808D01*
X-49556331Y49352808D02*
X-49606838Y49369644D01*
X-49202778Y49100270D02*
X-49169106Y49100270D01*
X-49169106Y49100270D02*
X-49118598Y49083434D01*
X-49118598Y49083434D02*
X-49034419Y48999255D01*
X-49034419Y48999255D02*
X-49017583Y48948747D01*
X-49017583Y48948747D02*
X-49017583Y48915075D01*
X-49017583Y48915075D02*
X-49034419Y48864568D01*
X-49034419Y48864568D02*
X-49068091Y48830896D01*
X-49068091Y48830896D02*
X-49135434Y48797224D01*
X-49135434Y48797224D02*
X-49539495Y48797224D01*
X-49539495Y48797224D02*
X-49320629Y48578358D01*
D12*
X-46424705Y38188161D02*
X-47224705Y38188161D01*
X-47224705Y38188161D02*
X-47224705Y38492923D01*
X-47224705Y38492923D02*
X-47186610Y38569113D01*
X-47186610Y38569113D02*
X-47148515Y38607208D01*
X-47148515Y38607208D02*
X-47072324Y38645304D01*
X-47072324Y38645304D02*
X-46958039Y38645304D01*
X-46958039Y38645304D02*
X-46881848Y38607208D01*
X-46881848Y38607208D02*
X-46843753Y38569113D01*
X-46843753Y38569113D02*
X-46805658Y38492923D01*
X-46805658Y38492923D02*
X-46805658Y38188161D01*
X-47224705Y38911970D02*
X-46424705Y39102446D01*
X-46424705Y39102446D02*
X-46996134Y39254827D01*
X-46996134Y39254827D02*
X-46424705Y39407208D01*
X-46424705Y39407208D02*
X-47224705Y39597684D01*
X-46424705Y40359590D02*
X-46805658Y40092923D01*
X-46424705Y39902447D02*
X-47224705Y39902447D01*
X-47224705Y39902447D02*
X-47224705Y40207209D01*
X-47224705Y40207209D02*
X-47186610Y40283399D01*
X-47186610Y40283399D02*
X-47148515Y40321494D01*
X-47148515Y40321494D02*
X-47072324Y40359590D01*
X-47072324Y40359590D02*
X-46958039Y40359590D01*
X-46958039Y40359590D02*
X-46881848Y40321494D01*
X-46881848Y40321494D02*
X-46843753Y40283399D01*
X-46843753Y40283399D02*
X-46805658Y40207209D01*
X-46805658Y40207209D02*
X-46805658Y39902447D01*
D11*
X-49724690Y44104449D02*
X-49556331Y43936090D01*
X-49859377Y44037105D02*
X-49387972Y44272808D01*
X-49387972Y44272808D02*
X-49623674Y43801403D01*
X-49000747Y43885583D02*
X-49068091Y43952926D01*
X-49068091Y43952926D02*
X-49118598Y43969762D01*
X-49118598Y43969762D02*
X-49152270Y43969762D01*
X-49152270Y43969762D02*
X-49236450Y43952926D01*
X-49236450Y43952926D02*
X-49320629Y43902419D01*
X-49320629Y43902419D02*
X-49455316Y43767732D01*
X-49455316Y43767732D02*
X-49472152Y43717224D01*
X-49472152Y43717224D02*
X-49472152Y43683552D01*
X-49472152Y43683552D02*
X-49455316Y43633045D01*
X-49455316Y43633045D02*
X-49387972Y43565701D01*
X-49387972Y43565701D02*
X-49337465Y43548865D01*
X-49337465Y43548865D02*
X-49303793Y43548865D01*
X-49303793Y43548865D02*
X-49253285Y43565701D01*
X-49253285Y43565701D02*
X-49169106Y43649881D01*
X-49169106Y43649881D02*
X-49152270Y43700388D01*
X-49152270Y43700388D02*
X-49152270Y43734060D01*
X-49152270Y43734060D02*
X-49169106Y43784568D01*
X-49169106Y43784568D02*
X-49236450Y43851911D01*
X-49236450Y43851911D02*
X-49286957Y43868747D01*
X-49286957Y43868747D02*
X-49320629Y43868747D01*
X-49320629Y43868747D02*
X-49371137Y43851911D01*
D12*
X-46197843Y21677031D02*
X-46340700Y21534174D01*
X-46340700Y21534174D02*
X-46483558Y21677031D01*
X-46483558Y21677031D02*
X-46340700Y21819888D01*
X-46340700Y21819888D02*
X-46197843Y21677031D01*
X-46197843Y21677031D02*
X-46483558Y21677031D01*
D11*
X-49724690Y28864449D02*
X-49556331Y28696090D01*
X-49859377Y28797105D02*
X-49387972Y29032808D01*
X-49387972Y29032808D02*
X-49623674Y28561403D01*
X-49084927Y28729762D02*
X-49051255Y28696090D01*
X-49051255Y28696090D02*
X-49034419Y28645583D01*
X-49034419Y28645583D02*
X-49034419Y28611911D01*
X-49034419Y28611911D02*
X-49051255Y28561403D01*
X-49051255Y28561403D02*
X-49101763Y28477224D01*
X-49101763Y28477224D02*
X-49185942Y28393045D01*
X-49185942Y28393045D02*
X-49270121Y28342537D01*
X-49270121Y28342537D02*
X-49320629Y28325701D01*
X-49320629Y28325701D02*
X-49354301Y28325701D01*
X-49354301Y28325701D02*
X-49404808Y28342537D01*
X-49404808Y28342537D02*
X-49438480Y28376209D01*
X-49438480Y28376209D02*
X-49455316Y28426716D01*
X-49455316Y28426716D02*
X-49455316Y28460388D01*
X-49455316Y28460388D02*
X-49438480Y28510896D01*
X-49438480Y28510896D02*
X-49387972Y28595075D01*
X-49387972Y28595075D02*
X-49303793Y28679255D01*
X-49303793Y28679255D02*
X-49219614Y28729762D01*
X-49219614Y28729762D02*
X-49169106Y28746598D01*
X-49169106Y28746598D02*
X-49135434Y28746598D01*
X-49135434Y28746598D02*
X-49084927Y28729762D01*
X-49724690Y33944449D02*
X-49556331Y33776090D01*
X-49859377Y33877105D02*
X-49387972Y34112808D01*
X-49387972Y34112808D02*
X-49623674Y33641403D01*
X-49202778Y33860270D02*
X-49169106Y33860270D01*
X-49169106Y33860270D02*
X-49118598Y33843434D01*
X-49118598Y33843434D02*
X-49034419Y33759255D01*
X-49034419Y33759255D02*
X-49017583Y33708747D01*
X-49017583Y33708747D02*
X-49017583Y33675075D01*
X-49017583Y33675075D02*
X-49034419Y33624568D01*
X-49034419Y33624568D02*
X-49068091Y33590896D01*
X-49068091Y33590896D02*
X-49135434Y33557224D01*
X-49135434Y33557224D02*
X-49539495Y33557224D01*
X-49539495Y33557224D02*
X-49320629Y33338358D01*
X-31740387Y43599373D02*
X-31572028Y43767732D01*
X-31673044Y43464686D02*
X-31908746Y43936091D01*
X-31908746Y43936091D02*
X-31437341Y43700389D01*
X-31471013Y44070778D02*
X-31521521Y44053942D01*
X-31521521Y44053942D02*
X-31555193Y44053942D01*
X-31555193Y44053942D02*
X-31605700Y44070778D01*
X-31605700Y44070778D02*
X-31622536Y44087613D01*
X-31622536Y44087613D02*
X-31639372Y44138121D01*
X-31639372Y44138121D02*
X-31639372Y44171793D01*
X-31639372Y44171793D02*
X-31622536Y44222300D01*
X-31622536Y44222300D02*
X-31555193Y44289644D01*
X-31555193Y44289644D02*
X-31504685Y44306480D01*
X-31504685Y44306480D02*
X-31471013Y44306480D01*
X-31471013Y44306480D02*
X-31420506Y44289644D01*
X-31420506Y44289644D02*
X-31403670Y44272808D01*
X-31403670Y44272808D02*
X-31386834Y44222300D01*
X-31386834Y44222300D02*
X-31386834Y44188629D01*
X-31386834Y44188629D02*
X-31403670Y44138121D01*
X-31403670Y44138121D02*
X-31471013Y44070778D01*
X-31471013Y44070778D02*
X-31487849Y44020270D01*
X-31487849Y44020270D02*
X-31487849Y43986598D01*
X-31487849Y43986598D02*
X-31471013Y43936090D01*
X-31471013Y43936090D02*
X-31403670Y43868747D01*
X-31403670Y43868747D02*
X-31353162Y43851911D01*
X-31353162Y43851911D02*
X-31319490Y43851911D01*
X-31319490Y43851911D02*
X-31268983Y43868747D01*
X-31268983Y43868747D02*
X-31201639Y43936090D01*
X-31201639Y43936090D02*
X-31184803Y43986598D01*
X-31184803Y43986598D02*
X-31184803Y44020270D01*
X-31184803Y44020270D02*
X-31201639Y44070778D01*
X-31201639Y44070778D02*
X-31268983Y44138121D01*
X-31268983Y44138121D02*
X-31319490Y44154957D01*
X-31319490Y44154957D02*
X-31353162Y44154957D01*
X-31353162Y44154957D02*
X-31403670Y44138121D01*
X-31908746Y36316091D02*
X-31841402Y36383434D01*
X-31841402Y36383434D02*
X-31790895Y36400270D01*
X-31790895Y36400270D02*
X-31723551Y36400270D01*
X-31723551Y36400270D02*
X-31639372Y36349763D01*
X-31639372Y36349763D02*
X-31521521Y36231911D01*
X-31521521Y36231911D02*
X-31471013Y36147732D01*
X-31471013Y36147732D02*
X-31471013Y36080389D01*
X-31471013Y36080389D02*
X-31487849Y36029881D01*
X-31487849Y36029881D02*
X-31555192Y35962537D01*
X-31555192Y35962537D02*
X-31605700Y35945702D01*
X-31605700Y35945702D02*
X-31673044Y35945702D01*
X-31673044Y35945702D02*
X-31757223Y35996209D01*
X-31757223Y35996209D02*
X-31875074Y36114060D01*
X-31875074Y36114060D02*
X-31925582Y36198240D01*
X-31925582Y36198240D02*
X-31925582Y36265583D01*
X-31925582Y36265583D02*
X-31908746Y36316091D01*
X-31437341Y36450778D02*
X-31319490Y36568629D01*
X-31083788Y36433942D02*
X-31252146Y36265584D01*
X-31252146Y36265584D02*
X-31605700Y36619137D01*
X-31605700Y36619137D02*
X-31437341Y36787496D01*
X-32123066Y36298076D02*
X-31503506Y36917637D01*
X-31622536Y23195194D02*
X-31976089Y23548747D01*
X-31976089Y23548747D02*
X-31891910Y23632927D01*
X-31891910Y23632927D02*
X-31824566Y23666598D01*
X-31824566Y23666598D02*
X-31757223Y23666598D01*
X-31757223Y23666598D02*
X-31706715Y23649763D01*
X-31706715Y23649763D02*
X-31622536Y23599255D01*
X-31622536Y23599255D02*
X-31572028Y23548747D01*
X-31572028Y23548747D02*
X-31521521Y23464568D01*
X-31521521Y23464568D02*
X-31504685Y23414060D01*
X-31504685Y23414060D02*
X-31504685Y23346717D01*
X-31504685Y23346717D02*
X-31538357Y23279373D01*
X-31538357Y23279373D02*
X-31622536Y23195194D01*
X-31454177Y24070659D02*
X-31622536Y23902301D01*
X-31622536Y23902301D02*
X-31471013Y23717106D01*
X-31471013Y23717106D02*
X-31471013Y23750778D01*
X-31471013Y23750778D02*
X-31454177Y23801285D01*
X-31454177Y23801285D02*
X-31369998Y23885465D01*
X-31369998Y23885465D02*
X-31319490Y23902301D01*
X-31319490Y23902301D02*
X-31285818Y23902301D01*
X-31285818Y23902301D02*
X-31235311Y23885465D01*
X-31235311Y23885465D02*
X-31151131Y23801285D01*
X-31151131Y23801285D02*
X-31134295Y23750778D01*
X-31134295Y23750778D02*
X-31134295Y23717106D01*
X-31134295Y23717106D02*
X-31151131Y23666598D01*
X-31151131Y23666598D02*
X-31235311Y23582419D01*
X-31235311Y23582419D02*
X-31285818Y23565583D01*
X-31285818Y23565583D02*
X-31319490Y23565583D01*
X-50061407Y54601166D02*
X-49893048Y54432807D01*
X-50196094Y54533823D02*
X-49724689Y54769525D01*
X-49724689Y54769525D02*
X-49960392Y54298120D01*
X-49657346Y53995075D02*
X-49859377Y54197105D01*
X-49758361Y54096090D02*
X-49404808Y54449644D01*
X-49404808Y54449644D02*
X-49488987Y54432808D01*
X-49488987Y54432808D02*
X-49556331Y54432808D01*
X-49556331Y54432808D02*
X-49606838Y54449644D01*
X-49000747Y54045583D02*
X-49068091Y54112926D01*
X-49068091Y54112926D02*
X-49118598Y54129762D01*
X-49118598Y54129762D02*
X-49152270Y54129762D01*
X-49152270Y54129762D02*
X-49236450Y54112926D01*
X-49236450Y54112926D02*
X-49320629Y54062419D01*
X-49320629Y54062419D02*
X-49455316Y53927732D01*
X-49455316Y53927732D02*
X-49472152Y53877224D01*
X-49472152Y53877224D02*
X-49472152Y53843552D01*
X-49472152Y53843552D02*
X-49455316Y53793045D01*
X-49455316Y53793045D02*
X-49387972Y53725701D01*
X-49387972Y53725701D02*
X-49337465Y53708865D01*
X-49337465Y53708865D02*
X-49303793Y53708865D01*
X-49303793Y53708865D02*
X-49253285Y53725701D01*
X-49253285Y53725701D02*
X-49169106Y53809881D01*
X-49169106Y53809881D02*
X-49152270Y53860388D01*
X-49152270Y53860388D02*
X-49152270Y53894060D01*
X-49152270Y53894060D02*
X-49169106Y53944568D01*
X-49169106Y53944568D02*
X-49236450Y54011911D01*
X-49236450Y54011911D02*
X-49286957Y54028747D01*
X-49286957Y54028747D02*
X-49320629Y54028747D01*
X-49320629Y54028747D02*
X-49371137Y54011911D01*
X-31740387Y51219373D02*
X-31572028Y51387732D01*
X-31673044Y51084686D02*
X-31908746Y51556091D01*
X-31908746Y51556091D02*
X-31437341Y51320389D01*
X-31134296Y51623434D02*
X-31336326Y51421403D01*
X-31235311Y51522419D02*
X-31588864Y51875972D01*
X-31588864Y51875972D02*
X-31572029Y51791793D01*
X-31572029Y51791793D02*
X-31572029Y51724449D01*
X-31572029Y51724449D02*
X-31588864Y51673942D01*
X-31369998Y52094838D02*
X-31134296Y52330540D01*
X-31134296Y52330540D02*
X-30932266Y51825464D01*
X-50061407Y52061166D02*
X-49893048Y51892807D01*
X-50196094Y51993823D02*
X-49724689Y52229525D01*
X-49724689Y52229525D02*
X-49960392Y51758120D01*
X-49657346Y51455075D02*
X-49859377Y51657105D01*
X-49758361Y51556090D02*
X-49404808Y51909644D01*
X-49404808Y51909644D02*
X-49488987Y51892808D01*
X-49488987Y51892808D02*
X-49556331Y51892808D01*
X-49556331Y51892808D02*
X-49606838Y51909644D01*
X-48983911Y51488747D02*
X-49152270Y51657106D01*
X-49152270Y51657106D02*
X-49337465Y51505583D01*
X-49337465Y51505583D02*
X-49303793Y51505583D01*
X-49303793Y51505583D02*
X-49253285Y51488747D01*
X-49253285Y51488747D02*
X-49169106Y51404568D01*
X-49169106Y51404568D02*
X-49152270Y51354060D01*
X-49152270Y51354060D02*
X-49152270Y51320388D01*
X-49152270Y51320388D02*
X-49169106Y51269881D01*
X-49169106Y51269881D02*
X-49253285Y51185701D01*
X-49253285Y51185701D02*
X-49303793Y51168865D01*
X-49303793Y51168865D02*
X-49337465Y51168865D01*
X-49337465Y51168865D02*
X-49387972Y51185701D01*
X-49387972Y51185701D02*
X-49472152Y51269881D01*
X-49472152Y51269881D02*
X-49488988Y51320388D01*
X-49488988Y51320388D02*
X-49488988Y51354060D01*
D12*
X-44632031Y32359658D02*
X-44489174Y32216800D01*
X-44489174Y32216800D02*
X-44632031Y32073943D01*
X-44632031Y32073943D02*
X-44774888Y32216800D01*
X-44774888Y32216800D02*
X-44632031Y32359658D01*
X-44632031Y32359658D02*
X-44632031Y32073943D01*
D11*
X-49859377Y23717106D02*
X-49505824Y24070659D01*
X-49505824Y24070659D02*
X-49421644Y23986480D01*
X-49421644Y23986480D02*
X-49387972Y23919136D01*
X-49387972Y23919136D02*
X-49387972Y23851793D01*
X-49387972Y23851793D02*
X-49404808Y23801285D01*
X-49404808Y23801285D02*
X-49455316Y23717106D01*
X-49455316Y23717106D02*
X-49505824Y23666598D01*
X-49505824Y23666598D02*
X-49590003Y23616090D01*
X-49590003Y23616090D02*
X-49640511Y23599255D01*
X-49640511Y23599255D02*
X-49707854Y23599255D01*
X-49707854Y23599255D02*
X-49775198Y23632926D01*
X-49775198Y23632926D02*
X-49859377Y23717106D01*
X-49320629Y23178358D02*
X-49522659Y23380388D01*
X-49421644Y23279373D02*
X-49068091Y23632926D01*
X-49068091Y23632926D02*
X-49152270Y23616090D01*
X-49152270Y23616090D02*
X-49219614Y23616090D01*
X-49219614Y23616090D02*
X-49270121Y23632926D01*
X-31740387Y38519373D02*
X-31572028Y38687732D01*
X-31673044Y38384686D02*
X-31908746Y38856091D01*
X-31908746Y38856091D02*
X-31437341Y38620389D01*
X-31134296Y38923434D02*
X-31336326Y38721403D01*
X-31235311Y38822419D02*
X-31588864Y39175972D01*
X-31588864Y39175972D02*
X-31572029Y39091793D01*
X-31572029Y39091793D02*
X-31572029Y39024449D01*
X-31572029Y39024449D02*
X-31588864Y38973942D01*
X-30797579Y39260151D02*
X-30999609Y39058121D01*
X-30898594Y39159136D02*
X-31252147Y39512689D01*
X-31252147Y39512689D02*
X-31235311Y39428510D01*
X-31235311Y39428510D02*
X-31235311Y39361166D01*
X-31235311Y39361166D02*
X-31252147Y39310659D01*
X-49724690Y41564449D02*
X-49556331Y41396090D01*
X-49859377Y41497105D02*
X-49387972Y41732808D01*
X-49387972Y41732808D02*
X-49623674Y41261403D01*
X-48983911Y41328747D02*
X-49152270Y41497106D01*
X-49152270Y41497106D02*
X-49337465Y41345583D01*
X-49337465Y41345583D02*
X-49303793Y41345583D01*
X-49303793Y41345583D02*
X-49253285Y41328747D01*
X-49253285Y41328747D02*
X-49169106Y41244568D01*
X-49169106Y41244568D02*
X-49152270Y41194060D01*
X-49152270Y41194060D02*
X-49152270Y41160388D01*
X-49152270Y41160388D02*
X-49169106Y41109881D01*
X-49169106Y41109881D02*
X-49253285Y41025701D01*
X-49253285Y41025701D02*
X-49303793Y41008865D01*
X-49303793Y41008865D02*
X-49337465Y41008865D01*
X-49337465Y41008865D02*
X-49387972Y41025701D01*
X-49387972Y41025701D02*
X-49472152Y41109881D01*
X-49472152Y41109881D02*
X-49488988Y41160388D01*
X-49488988Y41160388D02*
X-49488988Y41194060D01*
D13*
X-34067458Y41382083D02*
X-35267458Y41382083D01*
X-35267458Y41382083D02*
X-35267458Y41839226D01*
X-35267458Y41839226D02*
X-35210315Y41953511D01*
X-35210315Y41953511D02*
X-35153172Y42010654D01*
X-35153172Y42010654D02*
X-35038886Y42067797D01*
X-35038886Y42067797D02*
X-34867458Y42067797D01*
X-34867458Y42067797D02*
X-34753172Y42010654D01*
X-34753172Y42010654D02*
X-34696029Y41953511D01*
X-34696029Y41953511D02*
X-34638886Y41839226D01*
X-34638886Y41839226D02*
X-34638886Y41382083D01*
X-34067458Y42582083D02*
X-34867458Y42582083D01*
X-35267458Y42582083D02*
X-35210315Y42524940D01*
X-35210315Y42524940D02*
X-35153172Y42582083D01*
X-35153172Y42582083D02*
X-35210315Y42639226D01*
X-35210315Y42639226D02*
X-35267458Y42582083D01*
X-35267458Y42582083D02*
X-35153172Y42582083D01*
X-34124600Y43667797D02*
X-34067458Y43553512D01*
X-34067458Y43553512D02*
X-34067458Y43324940D01*
X-34067458Y43324940D02*
X-34124600Y43210655D01*
X-34124600Y43210655D02*
X-34181743Y43153512D01*
X-34181743Y43153512D02*
X-34296029Y43096369D01*
X-34296029Y43096369D02*
X-34638886Y43096369D01*
X-34638886Y43096369D02*
X-34753172Y43153512D01*
X-34753172Y43153512D02*
X-34810315Y43210655D01*
X-34810315Y43210655D02*
X-34867458Y43324940D01*
X-34867458Y43324940D02*
X-34867458Y43553512D01*
X-34867458Y43553512D02*
X-34810315Y43667797D01*
X-34067458Y44353511D02*
X-34124600Y44239226D01*
X-34124600Y44239226D02*
X-34181743Y44182083D01*
X-34181743Y44182083D02*
X-34296029Y44124940D01*
X-34296029Y44124940D02*
X-34638886Y44124940D01*
X-34638886Y44124940D02*
X-34753172Y44182083D01*
X-34753172Y44182083D02*
X-34810315Y44239226D01*
X-34810315Y44239226D02*
X-34867458Y44353511D01*
X-34867458Y44353511D02*
X-34867458Y44524940D01*
X-34867458Y44524940D02*
X-34810315Y44639226D01*
X-34810315Y44639226D02*
X-34753172Y44696368D01*
X-34753172Y44696368D02*
X-34638886Y44753511D01*
X-34638886Y44753511D02*
X-34296029Y44753511D01*
X-34296029Y44753511D02*
X-34181743Y44696368D01*
X-34181743Y44696368D02*
X-34124600Y44639226D01*
X-34124600Y44639226D02*
X-34067458Y44524940D01*
X-34067458Y44524940D02*
X-34067458Y44353511D01*
X-34067458Y45953511D02*
X-34638886Y45553511D01*
X-34067458Y45267797D02*
X-35267458Y45267797D01*
X-35267458Y45267797D02*
X-35267458Y45724940D01*
X-35267458Y45724940D02*
X-35210315Y45839225D01*
X-35210315Y45839225D02*
X-35153172Y45896368D01*
X-35153172Y45896368D02*
X-35038886Y45953511D01*
X-35038886Y45953511D02*
X-34867458Y45953511D01*
X-34867458Y45953511D02*
X-34753172Y45896368D01*
X-34753172Y45896368D02*
X-34696029Y45839225D01*
X-34696029Y45839225D02*
X-34638886Y45724940D01*
X-34638886Y45724940D02*
X-34638886Y45267797D01*
X-35267458Y46696368D02*
X-35267458Y46924940D01*
X-35267458Y46924940D02*
X-35210315Y47039225D01*
X-35210315Y47039225D02*
X-35096029Y47153511D01*
X-35096029Y47153511D02*
X-34867458Y47210654D01*
X-34867458Y47210654D02*
X-34467458Y47210654D01*
X-34467458Y47210654D02*
X-34238886Y47153511D01*
X-34238886Y47153511D02*
X-34124600Y47039225D01*
X-34124600Y47039225D02*
X-34067458Y46924940D01*
X-34067458Y46924940D02*
X-34067458Y46696368D01*
X-34067458Y46696368D02*
X-34124600Y46582082D01*
X-34124600Y46582082D02*
X-34238886Y46467797D01*
X-34238886Y46467797D02*
X-34467458Y46410654D01*
X-34467458Y46410654D02*
X-34867458Y46410654D01*
X-34867458Y46410654D02*
X-35096029Y46467797D01*
X-35096029Y46467797D02*
X-35210315Y46582082D01*
X-35210315Y46582082D02*
X-35267458Y46696368D01*
X-34067458Y47724940D02*
X-35267458Y47724940D01*
X-35267458Y47724940D02*
X-34410315Y48124940D01*
X-34410315Y48124940D02*
X-35267458Y48524940D01*
X-35267458Y48524940D02*
X-34067458Y48524940D01*
D11*
X-31454177Y31050896D02*
X-31454177Y31017224D01*
X-31454177Y31017224D02*
X-31487849Y30949881D01*
X-31487849Y30949881D02*
X-31521521Y30916209D01*
X-31521521Y30916209D02*
X-31588864Y30882537D01*
X-31588864Y30882537D02*
X-31656208Y30882537D01*
X-31656208Y30882537D02*
X-31706715Y30899373D01*
X-31706715Y30899373D02*
X-31790895Y30949881D01*
X-31790895Y30949881D02*
X-31841402Y31000389D01*
X-31841402Y31000389D02*
X-31891910Y31084568D01*
X-31891910Y31084568D02*
X-31908746Y31135076D01*
X-31908746Y31135076D02*
X-31908746Y31202419D01*
X-31908746Y31202419D02*
X-31875074Y31269763D01*
X-31875074Y31269763D02*
X-31841402Y31303434D01*
X-31841402Y31303434D02*
X-31774059Y31337106D01*
X-31774059Y31337106D02*
X-31740387Y31337106D01*
X-31454177Y31353942D02*
X-31336326Y31471793D01*
X-31100624Y31337106D02*
X-31268982Y31168747D01*
X-31268982Y31168747D02*
X-31622536Y31522301D01*
X-31622536Y31522301D02*
X-31454177Y31690659D01*
X-32123066Y31218076D02*
X-31520342Y31820801D01*
X-31740387Y48679373D02*
X-31572028Y48847732D01*
X-31673044Y48544686D02*
X-31908746Y49016091D01*
X-31908746Y49016091D02*
X-31437341Y48780389D01*
X-31134296Y49083434D02*
X-31336326Y48881403D01*
X-31235311Y48982419D02*
X-31588864Y49335972D01*
X-31588864Y49335972D02*
X-31572029Y49251793D01*
X-31572029Y49251793D02*
X-31572029Y49184449D01*
X-31572029Y49184449D02*
X-31588864Y49133942D01*
X-31066953Y49622182D02*
X-30831250Y49386479D01*
X-31285819Y49672689D02*
X-31117460Y49335972D01*
X-31117460Y49335972D02*
X-30898594Y49554838D01*
X-33130191Y52930953D02*
X-33630191Y52930953D01*
X-33630191Y52930953D02*
X-33630191Y53050001D01*
X-33630191Y53050001D02*
X-33606381Y53121429D01*
X-33606381Y53121429D02*
X-33558762Y53169048D01*
X-33558762Y53169048D02*
X-33511143Y53192858D01*
X-33511143Y53192858D02*
X-33415905Y53216667D01*
X-33415905Y53216667D02*
X-33344477Y53216667D01*
X-33344477Y53216667D02*
X-33249239Y53192858D01*
X-33249239Y53192858D02*
X-33201620Y53169048D01*
X-33201620Y53169048D02*
X-33154000Y53121429D01*
X-33154000Y53121429D02*
X-33130191Y53050001D01*
X-33130191Y53050001D02*
X-33130191Y52930953D01*
X-33582572Y53407144D02*
X-33606381Y53430953D01*
X-33606381Y53430953D02*
X-33630191Y53478572D01*
X-33630191Y53478572D02*
X-33630191Y53597620D01*
X-33630191Y53597620D02*
X-33606381Y53645239D01*
X-33606381Y53645239D02*
X-33582572Y53669048D01*
X-33582572Y53669048D02*
X-33534953Y53692858D01*
X-33534953Y53692858D02*
X-33487334Y53692858D01*
X-33487334Y53692858D02*
X-33415905Y53669048D01*
X-33415905Y53669048D02*
X-33130191Y53383334D01*
X-33130191Y53383334D02*
X-33130191Y53692858D01*
X-40227810Y21938572D02*
X-40204000Y21914763D01*
X-40204000Y21914763D02*
X-40180191Y21843334D01*
X-40180191Y21843334D02*
X-40180191Y21795715D01*
X-40180191Y21795715D02*
X-40204000Y21724287D01*
X-40204000Y21724287D02*
X-40251620Y21676668D01*
X-40251620Y21676668D02*
X-40299239Y21652858D01*
X-40299239Y21652858D02*
X-40394477Y21629049D01*
X-40394477Y21629049D02*
X-40465905Y21629049D01*
X-40465905Y21629049D02*
X-40561143Y21652858D01*
X-40561143Y21652858D02*
X-40608762Y21676668D01*
X-40608762Y21676668D02*
X-40656381Y21724287D01*
X-40656381Y21724287D02*
X-40680191Y21795715D01*
X-40680191Y21795715D02*
X-40680191Y21843334D01*
X-40680191Y21843334D02*
X-40656381Y21914763D01*
X-40656381Y21914763D02*
X-40632572Y21938572D01*
X-40180191Y22414763D02*
X-40180191Y22129049D01*
X-40180191Y22271906D02*
X-40680191Y22271906D01*
X-40680191Y22271906D02*
X-40608762Y22224287D01*
X-40608762Y22224287D02*
X-40561143Y22176668D01*
X-40561143Y22176668D02*
X-40537334Y22129049D01*
X-40632572Y22605239D02*
X-40656381Y22629048D01*
X-40656381Y22629048D02*
X-40680191Y22676667D01*
X-40680191Y22676667D02*
X-40680191Y22795715D01*
X-40680191Y22795715D02*
X-40656381Y22843334D01*
X-40656381Y22843334D02*
X-40632572Y22867143D01*
X-40632572Y22867143D02*
X-40584953Y22890953D01*
X-40584953Y22890953D02*
X-40537334Y22890953D01*
X-40537334Y22890953D02*
X-40465905Y22867143D01*
X-40465905Y22867143D02*
X-40180191Y22581429D01*
X-40180191Y22581429D02*
X-40180191Y22890953D01*
X-47083686Y18177306D02*
X-46845591Y18177306D01*
X-47345591Y18010640D02*
X-47083686Y18177306D01*
X-47083686Y18177306D02*
X-47345591Y18343973D01*
X-46845591Y18772544D02*
X-46845591Y18486830D01*
X-46845591Y18629687D02*
X-47345591Y18629687D01*
X-47345591Y18629687D02*
X-47274162Y18582068D01*
X-47274162Y18582068D02*
X-47226543Y18534449D01*
X-47226543Y18534449D02*
X-47202734Y18486830D01*
X-45447810Y33018572D02*
X-45424000Y32994763D01*
X-45424000Y32994763D02*
X-45400191Y32923334D01*
X-45400191Y32923334D02*
X-45400191Y32875715D01*
X-45400191Y32875715D02*
X-45424000Y32804287D01*
X-45424000Y32804287D02*
X-45471620Y32756668D01*
X-45471620Y32756668D02*
X-45519239Y32732858D01*
X-45519239Y32732858D02*
X-45614477Y32709049D01*
X-45614477Y32709049D02*
X-45685905Y32709049D01*
X-45685905Y32709049D02*
X-45781143Y32732858D01*
X-45781143Y32732858D02*
X-45828762Y32756668D01*
X-45828762Y32756668D02*
X-45876381Y32804287D01*
X-45876381Y32804287D02*
X-45900191Y32875715D01*
X-45900191Y32875715D02*
X-45900191Y32923334D01*
X-45900191Y32923334D02*
X-45876381Y32994763D01*
X-45876381Y32994763D02*
X-45852572Y33018572D01*
X-45400191Y33494763D02*
X-45400191Y33209049D01*
X-45400191Y33351906D02*
X-45900191Y33351906D01*
X-45900191Y33351906D02*
X-45828762Y33304287D01*
X-45828762Y33304287D02*
X-45781143Y33256668D01*
X-45781143Y33256668D02*
X-45757334Y33209049D01*
X-45900191Y33661429D02*
X-45900191Y33994762D01*
X-45900191Y33994762D02*
X-45400191Y33780477D01*
D12*
X-47210181Y55233334D02*
X-47686372Y54900001D01*
X-47210181Y54661906D02*
X-48210181Y54661906D01*
X-48210181Y54661906D02*
X-48210181Y55042858D01*
X-48210181Y55042858D02*
X-48162562Y55138096D01*
X-48162562Y55138096D02*
X-48114943Y55185715D01*
X-48114943Y55185715D02*
X-48019705Y55233334D01*
X-48019705Y55233334D02*
X-47876848Y55233334D01*
X-47876848Y55233334D02*
X-47781610Y55185715D01*
X-47781610Y55185715D02*
X-47733991Y55138096D01*
X-47733991Y55138096D02*
X-47686372Y55042858D01*
X-47686372Y55042858D02*
X-47686372Y54661906D01*
X-48114943Y55614287D02*
X-48162562Y55661906D01*
X-48162562Y55661906D02*
X-48210181Y55757144D01*
X-48210181Y55757144D02*
X-48210181Y55995239D01*
X-48210181Y55995239D02*
X-48162562Y56090477D01*
X-48162562Y56090477D02*
X-48114943Y56138096D01*
X-48114943Y56138096D02*
X-48019705Y56185715D01*
X-48019705Y56185715D02*
X-47924467Y56185715D01*
X-47924467Y56185715D02*
X-47781610Y56138096D01*
X-47781610Y56138096D02*
X-47210181Y55566668D01*
X-47210181Y55566668D02*
X-47210181Y56185715D01*
D11*
X-43280191Y43316667D02*
X-43518286Y43150001D01*
X-43280191Y43030953D02*
X-43780191Y43030953D01*
X-43780191Y43030953D02*
X-43780191Y43221429D01*
X-43780191Y43221429D02*
X-43756381Y43269048D01*
X-43756381Y43269048D02*
X-43732572Y43292858D01*
X-43732572Y43292858D02*
X-43684953Y43316667D01*
X-43684953Y43316667D02*
X-43613524Y43316667D01*
X-43613524Y43316667D02*
X-43565905Y43292858D01*
X-43565905Y43292858D02*
X-43542096Y43269048D01*
X-43542096Y43269048D02*
X-43518286Y43221429D01*
X-43518286Y43221429D02*
X-43518286Y43030953D01*
X-43280191Y43554763D02*
X-43280191Y43650001D01*
X-43280191Y43650001D02*
X-43304000Y43697620D01*
X-43304000Y43697620D02*
X-43327810Y43721429D01*
X-43327810Y43721429D02*
X-43399239Y43769048D01*
X-43399239Y43769048D02*
X-43494477Y43792858D01*
X-43494477Y43792858D02*
X-43684953Y43792858D01*
X-43684953Y43792858D02*
X-43732572Y43769048D01*
X-43732572Y43769048D02*
X-43756381Y43745239D01*
X-43756381Y43745239D02*
X-43780191Y43697620D01*
X-43780191Y43697620D02*
X-43780191Y43602382D01*
X-43780191Y43602382D02*
X-43756381Y43554763D01*
X-43756381Y43554763D02*
X-43732572Y43530953D01*
X-43732572Y43530953D02*
X-43684953Y43507144D01*
X-43684953Y43507144D02*
X-43565905Y43507144D01*
X-43565905Y43507144D02*
X-43518286Y43530953D01*
X-43518286Y43530953D02*
X-43494477Y43554763D01*
X-43494477Y43554763D02*
X-43470667Y43602382D01*
X-43470667Y43602382D02*
X-43470667Y43697620D01*
X-43470667Y43697620D02*
X-43494477Y43745239D01*
X-43494477Y43745239D02*
X-43518286Y43769048D01*
X-43518286Y43769048D02*
X-43565905Y43792858D01*
X-34270191Y33596667D02*
X-34508286Y33430001D01*
X-34270191Y33310953D02*
X-34770191Y33310953D01*
X-34770191Y33310953D02*
X-34770191Y33501429D01*
X-34770191Y33501429D02*
X-34746381Y33549048D01*
X-34746381Y33549048D02*
X-34722572Y33572858D01*
X-34722572Y33572858D02*
X-34674953Y33596667D01*
X-34674953Y33596667D02*
X-34603524Y33596667D01*
X-34603524Y33596667D02*
X-34555905Y33572858D01*
X-34555905Y33572858D02*
X-34532096Y33549048D01*
X-34532096Y33549048D02*
X-34508286Y33501429D01*
X-34508286Y33501429D02*
X-34508286Y33310953D01*
X-34603524Y34025239D02*
X-34270191Y34025239D01*
X-34794000Y33906191D02*
X-34436858Y33787144D01*
X-34436858Y33787144D02*
X-34436858Y34096667D01*
X-35280191Y55078572D02*
X-35518286Y54911906D01*
X-35280191Y54792858D02*
X-35780191Y54792858D01*
X-35780191Y54792858D02*
X-35780191Y54983334D01*
X-35780191Y54983334D02*
X-35756381Y55030953D01*
X-35756381Y55030953D02*
X-35732572Y55054763D01*
X-35732572Y55054763D02*
X-35684953Y55078572D01*
X-35684953Y55078572D02*
X-35613524Y55078572D01*
X-35613524Y55078572D02*
X-35565905Y55054763D01*
X-35565905Y55054763D02*
X-35542096Y55030953D01*
X-35542096Y55030953D02*
X-35518286Y54983334D01*
X-35518286Y54983334D02*
X-35518286Y54792858D01*
X-35280191Y55554763D02*
X-35280191Y55269049D01*
X-35280191Y55411906D02*
X-35780191Y55411906D01*
X-35780191Y55411906D02*
X-35708762Y55364287D01*
X-35708762Y55364287D02*
X-35661143Y55316668D01*
X-35661143Y55316668D02*
X-35637334Y55269049D01*
X-35780191Y55864286D02*
X-35780191Y55911905D01*
X-35780191Y55911905D02*
X-35756381Y55959524D01*
X-35756381Y55959524D02*
X-35732572Y55983334D01*
X-35732572Y55983334D02*
X-35684953Y56007143D01*
X-35684953Y56007143D02*
X-35589715Y56030953D01*
X-35589715Y56030953D02*
X-35470667Y56030953D01*
X-35470667Y56030953D02*
X-35375429Y56007143D01*
X-35375429Y56007143D02*
X-35327810Y55983334D01*
X-35327810Y55983334D02*
X-35304000Y55959524D01*
X-35304000Y55959524D02*
X-35280191Y55911905D01*
X-35280191Y55911905D02*
X-35280191Y55864286D01*
X-35280191Y55864286D02*
X-35304000Y55816667D01*
X-35304000Y55816667D02*
X-35327810Y55792858D01*
X-35327810Y55792858D02*
X-35375429Y55769048D01*
X-35375429Y55769048D02*
X-35470667Y55745239D01*
X-35470667Y55745239D02*
X-35589715Y55745239D01*
X-35589715Y55745239D02*
X-35684953Y55769048D01*
X-35684953Y55769048D02*
X-35732572Y55792858D01*
X-35732572Y55792858D02*
X-35756381Y55816667D01*
X-35756381Y55816667D02*
X-35780191Y55864286D01*
X-43830191Y37930953D02*
X-44330191Y37930953D01*
X-44330191Y37930953D02*
X-44330191Y38050001D01*
X-44330191Y38050001D02*
X-44306381Y38121429D01*
X-44306381Y38121429D02*
X-44258762Y38169048D01*
X-44258762Y38169048D02*
X-44211143Y38192858D01*
X-44211143Y38192858D02*
X-44115905Y38216667D01*
X-44115905Y38216667D02*
X-44044477Y38216667D01*
X-44044477Y38216667D02*
X-43949239Y38192858D01*
X-43949239Y38192858D02*
X-43901620Y38169048D01*
X-43901620Y38169048D02*
X-43854000Y38121429D01*
X-43854000Y38121429D02*
X-43830191Y38050001D01*
X-43830191Y38050001D02*
X-43830191Y37930953D01*
X-43830191Y38692858D02*
X-43830191Y38407144D01*
X-43830191Y38550001D02*
X-44330191Y38550001D01*
X-44330191Y38550001D02*
X-44258762Y38502382D01*
X-44258762Y38502382D02*
X-44211143Y38454763D01*
X-44211143Y38454763D02*
X-44187334Y38407144D01*
X-43056223Y34582043D02*
X-43342433Y34295833D01*
X-43342433Y34295833D02*
X-43359269Y34245325D01*
X-43359269Y34245325D02*
X-43359269Y34211653D01*
X-43359269Y34211653D02*
X-43342433Y34161146D01*
X-43342433Y34161146D02*
X-43275090Y34093802D01*
X-43275090Y34093802D02*
X-43224582Y34076966D01*
X-43224582Y34076966D02*
X-43190910Y34076966D01*
X-43190910Y34076966D02*
X-43140403Y34093802D01*
X-43140403Y34093802D02*
X-42854193Y34380012D01*
X-42719506Y34245325D02*
X-42500639Y34026458D01*
X-42500639Y34026458D02*
X-42753177Y34009622D01*
X-42753177Y34009622D02*
X-42702670Y33959115D01*
X-42702670Y33959115D02*
X-42685834Y33908607D01*
X-42685834Y33908607D02*
X-42685834Y33874935D01*
X-42685834Y33874935D02*
X-42702670Y33824428D01*
X-42702670Y33824428D02*
X-42786849Y33740248D01*
X-42786849Y33740248D02*
X-42837357Y33723413D01*
X-42837357Y33723413D02*
X-42871028Y33723413D01*
X-42871028Y33723413D02*
X-42921536Y33740248D01*
X-42921536Y33740248D02*
X-43022551Y33841264D01*
X-43022551Y33841264D02*
X-43039387Y33891771D01*
X-43039387Y33891771D02*
X-43039387Y33925443D01*
X-44128334Y21305191D02*
X-44295000Y21543286D01*
X-44414048Y21305191D02*
X-44414048Y21805191D01*
X-44414048Y21805191D02*
X-44223572Y21805191D01*
X-44223572Y21805191D02*
X-44175953Y21781381D01*
X-44175953Y21781381D02*
X-44152143Y21757572D01*
X-44152143Y21757572D02*
X-44128334Y21709953D01*
X-44128334Y21709953D02*
X-44128334Y21638524D01*
X-44128334Y21638524D02*
X-44152143Y21590905D01*
X-44152143Y21590905D02*
X-44175953Y21567096D01*
X-44175953Y21567096D02*
X-44223572Y21543286D01*
X-44223572Y21543286D02*
X-44414048Y21543286D01*
X-43675953Y21805191D02*
X-43914048Y21805191D01*
X-43914048Y21805191D02*
X-43937857Y21567096D01*
X-43937857Y21567096D02*
X-43914048Y21590905D01*
X-43914048Y21590905D02*
X-43866429Y21614715D01*
X-43866429Y21614715D02*
X-43747381Y21614715D01*
X-43747381Y21614715D02*
X-43699762Y21590905D01*
X-43699762Y21590905D02*
X-43675953Y21567096D01*
X-43675953Y21567096D02*
X-43652143Y21519477D01*
X-43652143Y21519477D02*
X-43652143Y21400429D01*
X-43652143Y21400429D02*
X-43675953Y21352810D01*
X-43675953Y21352810D02*
X-43699762Y21329000D01*
X-43699762Y21329000D02*
X-43747381Y21305191D01*
X-43747381Y21305191D02*
X-43866429Y21305191D01*
X-43866429Y21305191D02*
X-43914048Y21329000D01*
X-43914048Y21329000D02*
X-43937857Y21352810D01*
X-43550191Y35129048D02*
X-43145429Y35129048D01*
X-43145429Y35129048D02*
X-43097810Y35152858D01*
X-43097810Y35152858D02*
X-43074000Y35176667D01*
X-43074000Y35176667D02*
X-43050191Y35224286D01*
X-43050191Y35224286D02*
X-43050191Y35319524D01*
X-43050191Y35319524D02*
X-43074000Y35367143D01*
X-43074000Y35367143D02*
X-43097810Y35390953D01*
X-43097810Y35390953D02*
X-43145429Y35414762D01*
X-43145429Y35414762D02*
X-43550191Y35414762D01*
X-43502572Y35629049D02*
X-43526381Y35652858D01*
X-43526381Y35652858D02*
X-43550191Y35700477D01*
X-43550191Y35700477D02*
X-43550191Y35819525D01*
X-43550191Y35819525D02*
X-43526381Y35867144D01*
X-43526381Y35867144D02*
X-43502572Y35890953D01*
X-43502572Y35890953D02*
X-43454953Y35914763D01*
X-43454953Y35914763D02*
X-43407334Y35914763D01*
X-43407334Y35914763D02*
X-43335905Y35890953D01*
X-43335905Y35890953D02*
X-43050191Y35605239D01*
X-43050191Y35605239D02*
X-43050191Y35914763D01*
X-33546429Y28412810D02*
X-33570238Y28389000D01*
X-33570238Y28389000D02*
X-33641667Y28365191D01*
X-33641667Y28365191D02*
X-33689286Y28365191D01*
X-33689286Y28365191D02*
X-33760714Y28389000D01*
X-33760714Y28389000D02*
X-33808333Y28436620D01*
X-33808333Y28436620D02*
X-33832143Y28484239D01*
X-33832143Y28484239D02*
X-33855952Y28579477D01*
X-33855952Y28579477D02*
X-33855952Y28650905D01*
X-33855952Y28650905D02*
X-33832143Y28746143D01*
X-33832143Y28746143D02*
X-33808333Y28793762D01*
X-33808333Y28793762D02*
X-33760714Y28841381D01*
X-33760714Y28841381D02*
X-33689286Y28865191D01*
X-33689286Y28865191D02*
X-33641667Y28865191D01*
X-33641667Y28865191D02*
X-33570238Y28841381D01*
X-33570238Y28841381D02*
X-33546429Y28817572D01*
X-33070238Y28365191D02*
X-33355952Y28365191D01*
X-33213095Y28365191D02*
X-33213095Y28865191D01*
X-33213095Y28865191D02*
X-33260714Y28793762D01*
X-33260714Y28793762D02*
X-33308333Y28746143D01*
X-33308333Y28746143D02*
X-33355952Y28722334D01*
X-32760715Y28865191D02*
X-32713096Y28865191D01*
X-32713096Y28865191D02*
X-32665477Y28841381D01*
X-32665477Y28841381D02*
X-32641667Y28817572D01*
X-32641667Y28817572D02*
X-32617858Y28769953D01*
X-32617858Y28769953D02*
X-32594048Y28674715D01*
X-32594048Y28674715D02*
X-32594048Y28555667D01*
X-32594048Y28555667D02*
X-32617858Y28460429D01*
X-32617858Y28460429D02*
X-32641667Y28412810D01*
X-32641667Y28412810D02*
X-32665477Y28389000D01*
X-32665477Y28389000D02*
X-32713096Y28365191D01*
X-32713096Y28365191D02*
X-32760715Y28365191D01*
X-32760715Y28365191D02*
X-32808334Y28389000D01*
X-32808334Y28389000D02*
X-32832143Y28412810D01*
X-32832143Y28412810D02*
X-32855953Y28460429D01*
X-32855953Y28460429D02*
X-32879762Y28555667D01*
X-32879762Y28555667D02*
X-32879762Y28674715D01*
X-32879762Y28674715D02*
X-32855953Y28769953D01*
X-32855953Y28769953D02*
X-32832143Y28817572D01*
X-32832143Y28817572D02*
X-32808334Y28841381D01*
X-32808334Y28841381D02*
X-32760715Y28865191D01*
X-45229810Y54781667D02*
X-45586953Y54781667D01*
X-45586953Y54781667D02*
X-45658381Y54805476D01*
X-45658381Y54805476D02*
X-45706000Y54853095D01*
X-45706000Y54853095D02*
X-45729810Y54924524D01*
X-45729810Y54924524D02*
X-45729810Y54972143D01*
X-45729810Y54281667D02*
X-45729810Y54567381D01*
X-45729810Y54424524D02*
X-45229810Y54424524D01*
X-45229810Y54424524D02*
X-45301239Y54472143D01*
X-45301239Y54472143D02*
X-45348858Y54519762D01*
X-45348858Y54519762D02*
X-45372667Y54567381D01*
X-34438334Y29342810D02*
X-34462143Y29319000D01*
X-34462143Y29319000D02*
X-34533572Y29295191D01*
X-34533572Y29295191D02*
X-34581191Y29295191D01*
X-34581191Y29295191D02*
X-34652619Y29319000D01*
X-34652619Y29319000D02*
X-34700238Y29366620D01*
X-34700238Y29366620D02*
X-34724048Y29414239D01*
X-34724048Y29414239D02*
X-34747857Y29509477D01*
X-34747857Y29509477D02*
X-34747857Y29580905D01*
X-34747857Y29580905D02*
X-34724048Y29676143D01*
X-34724048Y29676143D02*
X-34700238Y29723762D01*
X-34700238Y29723762D02*
X-34652619Y29771381D01*
X-34652619Y29771381D02*
X-34581191Y29795191D01*
X-34581191Y29795191D02*
X-34533572Y29795191D01*
X-34533572Y29795191D02*
X-34462143Y29771381D01*
X-34462143Y29771381D02*
X-34438334Y29747572D01*
X-34152619Y29580905D02*
X-34200238Y29604715D01*
X-34200238Y29604715D02*
X-34224048Y29628524D01*
X-34224048Y29628524D02*
X-34247857Y29676143D01*
X-34247857Y29676143D02*
X-34247857Y29699953D01*
X-34247857Y29699953D02*
X-34224048Y29747572D01*
X-34224048Y29747572D02*
X-34200238Y29771381D01*
X-34200238Y29771381D02*
X-34152619Y29795191D01*
X-34152619Y29795191D02*
X-34057381Y29795191D01*
X-34057381Y29795191D02*
X-34009762Y29771381D01*
X-34009762Y29771381D02*
X-33985953Y29747572D01*
X-33985953Y29747572D02*
X-33962143Y29699953D01*
X-33962143Y29699953D02*
X-33962143Y29676143D01*
X-33962143Y29676143D02*
X-33985953Y29628524D01*
X-33985953Y29628524D02*
X-34009762Y29604715D01*
X-34009762Y29604715D02*
X-34057381Y29580905D01*
X-34057381Y29580905D02*
X-34152619Y29580905D01*
X-34152619Y29580905D02*
X-34200238Y29557096D01*
X-34200238Y29557096D02*
X-34224048Y29533286D01*
X-34224048Y29533286D02*
X-34247857Y29485667D01*
X-34247857Y29485667D02*
X-34247857Y29390429D01*
X-34247857Y29390429D02*
X-34224048Y29342810D01*
X-34224048Y29342810D02*
X-34200238Y29319000D01*
X-34200238Y29319000D02*
X-34152619Y29295191D01*
X-34152619Y29295191D02*
X-34057381Y29295191D01*
X-34057381Y29295191D02*
X-34009762Y29319000D01*
X-34009762Y29319000D02*
X-33985953Y29342810D01*
X-33985953Y29342810D02*
X-33962143Y29390429D01*
X-33962143Y29390429D02*
X-33962143Y29485667D01*
X-33962143Y29485667D02*
X-33985953Y29533286D01*
X-33985953Y29533286D02*
X-34009762Y29557096D01*
X-34009762Y29557096D02*
X-34057381Y29580905D01*
X-41358334Y21362810D02*
X-41382143Y21339000D01*
X-41382143Y21339000D02*
X-41453572Y21315191D01*
X-41453572Y21315191D02*
X-41501191Y21315191D01*
X-41501191Y21315191D02*
X-41572619Y21339000D01*
X-41572619Y21339000D02*
X-41620238Y21386620D01*
X-41620238Y21386620D02*
X-41644048Y21434239D01*
X-41644048Y21434239D02*
X-41667857Y21529477D01*
X-41667857Y21529477D02*
X-41667857Y21600905D01*
X-41667857Y21600905D02*
X-41644048Y21696143D01*
X-41644048Y21696143D02*
X-41620238Y21743762D01*
X-41620238Y21743762D02*
X-41572619Y21791381D01*
X-41572619Y21791381D02*
X-41501191Y21815191D01*
X-41501191Y21815191D02*
X-41453572Y21815191D01*
X-41453572Y21815191D02*
X-41382143Y21791381D01*
X-41382143Y21791381D02*
X-41358334Y21767572D01*
X-41191667Y21815191D02*
X-40882143Y21815191D01*
X-40882143Y21815191D02*
X-41048810Y21624715D01*
X-41048810Y21624715D02*
X-40977381Y21624715D01*
X-40977381Y21624715D02*
X-40929762Y21600905D01*
X-40929762Y21600905D02*
X-40905953Y21577096D01*
X-40905953Y21577096D02*
X-40882143Y21529477D01*
X-40882143Y21529477D02*
X-40882143Y21410429D01*
X-40882143Y21410429D02*
X-40905953Y21362810D01*
X-40905953Y21362810D02*
X-40929762Y21339000D01*
X-40929762Y21339000D02*
X-40977381Y21315191D01*
X-40977381Y21315191D02*
X-41120238Y21315191D01*
X-41120238Y21315191D02*
X-41167857Y21339000D01*
X-41167857Y21339000D02*
X-41191667Y21362810D01*
X-43460191Y46619048D02*
X-43055429Y46619048D01*
X-43055429Y46619048D02*
X-43007810Y46642858D01*
X-43007810Y46642858D02*
X-42984000Y46666667D01*
X-42984000Y46666667D02*
X-42960191Y46714286D01*
X-42960191Y46714286D02*
X-42960191Y46809524D01*
X-42960191Y46809524D02*
X-42984000Y46857143D01*
X-42984000Y46857143D02*
X-43007810Y46880953D01*
X-43007810Y46880953D02*
X-43055429Y46904762D01*
X-43055429Y46904762D02*
X-43460191Y46904762D01*
X-42960191Y47404763D02*
X-42960191Y47119049D01*
X-42960191Y47261906D02*
X-43460191Y47261906D01*
X-43460191Y47261906D02*
X-43388762Y47214287D01*
X-43388762Y47214287D02*
X-43341143Y47166668D01*
X-43341143Y47166668D02*
X-43317334Y47119049D01*
X-40998810Y49156667D02*
X-40975000Y49132858D01*
X-40975000Y49132858D02*
X-40951191Y49061429D01*
X-40951191Y49061429D02*
X-40951191Y49013810D01*
X-40951191Y49013810D02*
X-40975000Y48942382D01*
X-40975000Y48942382D02*
X-41022620Y48894763D01*
X-41022620Y48894763D02*
X-41070239Y48870953D01*
X-41070239Y48870953D02*
X-41165477Y48847144D01*
X-41165477Y48847144D02*
X-41236905Y48847144D01*
X-41236905Y48847144D02*
X-41332143Y48870953D01*
X-41332143Y48870953D02*
X-41379762Y48894763D01*
X-41379762Y48894763D02*
X-41427381Y48942382D01*
X-41427381Y48942382D02*
X-41451191Y49013810D01*
X-41451191Y49013810D02*
X-41451191Y49061429D01*
X-41451191Y49061429D02*
X-41427381Y49132858D01*
X-41427381Y49132858D02*
X-41403572Y49156667D01*
X-41284524Y49585239D02*
X-40951191Y49585239D01*
X-41475000Y49466191D02*
X-41117858Y49347144D01*
X-41117858Y49347144D02*
X-41117858Y49656667D01*
X-44667576Y23091992D02*
X-44701248Y23091992D01*
X-44701248Y23091992D02*
X-44768591Y23125664D01*
X-44768591Y23125664D02*
X-44802263Y23159335D01*
X-44802263Y23159335D02*
X-44835935Y23226679D01*
X-44835935Y23226679D02*
X-44835935Y23294022D01*
X-44835935Y23294022D02*
X-44819099Y23344530D01*
X-44819099Y23344530D02*
X-44768591Y23428709D01*
X-44768591Y23428709D02*
X-44718084Y23479217D01*
X-44718084Y23479217D02*
X-44633904Y23529725D01*
X-44633904Y23529725D02*
X-44583397Y23546561D01*
X-44583397Y23546561D02*
X-44516053Y23546561D01*
X-44516053Y23546561D02*
X-44448710Y23512889D01*
X-44448710Y23512889D02*
X-44415038Y23479217D01*
X-44415038Y23479217D02*
X-44381366Y23411874D01*
X-44381366Y23411874D02*
X-44381366Y23378202D01*
X-44364530Y22721603D02*
X-44566561Y22923633D01*
X-44465546Y22822618D02*
X-44111992Y23176171D01*
X-44111992Y23176171D02*
X-44196172Y23159335D01*
X-44196172Y23159335D02*
X-44263515Y23159335D01*
X-44263515Y23159335D02*
X-44314023Y23176171D01*
X-43893126Y22957305D02*
X-43674260Y22738439D01*
X-43674260Y22738439D02*
X-43926798Y22721603D01*
X-43926798Y22721603D02*
X-43876290Y22671095D01*
X-43876290Y22671095D02*
X-43859454Y22620588D01*
X-43859454Y22620588D02*
X-43859454Y22586916D01*
X-43859454Y22586916D02*
X-43876290Y22536408D01*
X-43876290Y22536408D02*
X-43960470Y22452229D01*
X-43960470Y22452229D02*
X-44010977Y22435393D01*
X-44010977Y22435393D02*
X-44044649Y22435393D01*
X-44044649Y22435393D02*
X-44095157Y22452229D01*
X-44095157Y22452229D02*
X-44196172Y22553244D01*
X-44196172Y22553244D02*
X-44213008Y22603752D01*
X-44213008Y22603752D02*
X-44213008Y22637424D01*
X-34540984Y25958831D02*
X-34574656Y25958831D01*
X-34574656Y25958831D02*
X-34642000Y25992503D01*
X-34642000Y25992503D02*
X-34675671Y26026175D01*
X-34675671Y26026175D02*
X-34709343Y26093518D01*
X-34709343Y26093518D02*
X-34709343Y26160862D01*
X-34709343Y26160862D02*
X-34692507Y26211369D01*
X-34692507Y26211369D02*
X-34642000Y26295549D01*
X-34642000Y26295549D02*
X-34591492Y26346056D01*
X-34591492Y26346056D02*
X-34507313Y26396564D01*
X-34507313Y26396564D02*
X-34456805Y26413400D01*
X-34456805Y26413400D02*
X-34389462Y26413400D01*
X-34389462Y26413400D02*
X-34322118Y26379728D01*
X-34322118Y26379728D02*
X-34288446Y26346056D01*
X-34288446Y26346056D02*
X-34254775Y26278713D01*
X-34254775Y26278713D02*
X-34254775Y26245041D01*
X-34406297Y25756801D02*
X-34338954Y25689457D01*
X-34338954Y25689457D02*
X-34288446Y25672621D01*
X-34288446Y25672621D02*
X-34254775Y25672621D01*
X-34254775Y25672621D02*
X-34170595Y25689457D01*
X-34170595Y25689457D02*
X-34086416Y25739965D01*
X-34086416Y25739965D02*
X-33951729Y25874652D01*
X-33951729Y25874652D02*
X-33934893Y25925160D01*
X-33934893Y25925160D02*
X-33934893Y25958831D01*
X-33934893Y25958831D02*
X-33951729Y26009339D01*
X-33951729Y26009339D02*
X-34019072Y26076682D01*
X-34019072Y26076682D02*
X-34069580Y26093518D01*
X-34069580Y26093518D02*
X-34103252Y26093518D01*
X-34103252Y26093518D02*
X-34153759Y26076682D01*
X-34153759Y26076682D02*
X-34237939Y25992503D01*
X-34237939Y25992503D02*
X-34254775Y25941995D01*
X-34254775Y25941995D02*
X-34254775Y25908324D01*
X-34254775Y25908324D02*
X-34237939Y25857816D01*
X-34237939Y25857816D02*
X-34170595Y25790473D01*
X-34170595Y25790473D02*
X-34120088Y25773637D01*
X-34120088Y25773637D02*
X-34086416Y25773637D01*
X-34086416Y25773637D02*
X-34035908Y25790473D01*
X-35817577Y27161992D02*
X-35851249Y27161992D01*
X-35851249Y27161992D02*
X-35918592Y27195664D01*
X-35918592Y27195664D02*
X-35952264Y27229335D01*
X-35952264Y27229335D02*
X-35985936Y27296679D01*
X-35985936Y27296679D02*
X-35985936Y27364022D01*
X-35985936Y27364022D02*
X-35969100Y27414530D01*
X-35969100Y27414530D02*
X-35918592Y27498709D01*
X-35918592Y27498709D02*
X-35868085Y27549217D01*
X-35868085Y27549217D02*
X-35783905Y27599725D01*
X-35783905Y27599725D02*
X-35733398Y27616561D01*
X-35733398Y27616561D02*
X-35666054Y27616561D01*
X-35666054Y27616561D02*
X-35598711Y27582889D01*
X-35598711Y27582889D02*
X-35565039Y27549217D01*
X-35565039Y27549217D02*
X-35531367Y27481874D01*
X-35531367Y27481874D02*
X-35531367Y27448202D01*
X-35514531Y26791603D02*
X-35716562Y26993633D01*
X-35615547Y26892618D02*
X-35261993Y27246171D01*
X-35261993Y27246171D02*
X-35346173Y27229335D01*
X-35346173Y27229335D02*
X-35413516Y27229335D01*
X-35413516Y27229335D02*
X-35464024Y27246171D01*
X-35177814Y26454885D02*
X-35379845Y26656916D01*
X-35278829Y26555901D02*
X-34925276Y26909454D01*
X-34925276Y26909454D02*
X-35009455Y26892618D01*
X-35009455Y26892618D02*
X-35076799Y26892618D01*
X-35076799Y26892618D02*
X-35127307Y26909454D01*
X-44000191Y37056667D02*
X-44238286Y36890001D01*
X-44000191Y36770953D02*
X-44500191Y36770953D01*
X-44500191Y36770953D02*
X-44500191Y36961429D01*
X-44500191Y36961429D02*
X-44476381Y37009048D01*
X-44476381Y37009048D02*
X-44452572Y37032858D01*
X-44452572Y37032858D02*
X-44404953Y37056667D01*
X-44404953Y37056667D02*
X-44333524Y37056667D01*
X-44333524Y37056667D02*
X-44285905Y37032858D01*
X-44285905Y37032858D02*
X-44262096Y37009048D01*
X-44262096Y37009048D02*
X-44238286Y36961429D01*
X-44238286Y36961429D02*
X-44238286Y36770953D01*
X-44000191Y37532858D02*
X-44000191Y37247144D01*
X-44000191Y37390001D02*
X-44500191Y37390001D01*
X-44500191Y37390001D02*
X-44428762Y37342382D01*
X-44428762Y37342382D02*
X-44381143Y37294763D01*
X-44381143Y37294763D02*
X-44357334Y37247144D01*
X-35847810Y22298572D02*
X-35824000Y22274763D01*
X-35824000Y22274763D02*
X-35800191Y22203334D01*
X-35800191Y22203334D02*
X-35800191Y22155715D01*
X-35800191Y22155715D02*
X-35824000Y22084287D01*
X-35824000Y22084287D02*
X-35871620Y22036668D01*
X-35871620Y22036668D02*
X-35919239Y22012858D01*
X-35919239Y22012858D02*
X-36014477Y21989049D01*
X-36014477Y21989049D02*
X-36085905Y21989049D01*
X-36085905Y21989049D02*
X-36181143Y22012858D01*
X-36181143Y22012858D02*
X-36228762Y22036668D01*
X-36228762Y22036668D02*
X-36276381Y22084287D01*
X-36276381Y22084287D02*
X-36300191Y22155715D01*
X-36300191Y22155715D02*
X-36300191Y22203334D01*
X-36300191Y22203334D02*
X-36276381Y22274763D01*
X-36276381Y22274763D02*
X-36252572Y22298572D01*
X-35800191Y22774763D02*
X-35800191Y22489049D01*
X-35800191Y22631906D02*
X-36300191Y22631906D01*
X-36300191Y22631906D02*
X-36228762Y22584287D01*
X-36228762Y22584287D02*
X-36181143Y22536668D01*
X-36181143Y22536668D02*
X-36157334Y22489049D01*
X-36085905Y23060477D02*
X-36109715Y23012858D01*
X-36109715Y23012858D02*
X-36133524Y22989048D01*
X-36133524Y22989048D02*
X-36181143Y22965239D01*
X-36181143Y22965239D02*
X-36204953Y22965239D01*
X-36204953Y22965239D02*
X-36252572Y22989048D01*
X-36252572Y22989048D02*
X-36276381Y23012858D01*
X-36276381Y23012858D02*
X-36300191Y23060477D01*
X-36300191Y23060477D02*
X-36300191Y23155715D01*
X-36300191Y23155715D02*
X-36276381Y23203334D01*
X-36276381Y23203334D02*
X-36252572Y23227143D01*
X-36252572Y23227143D02*
X-36204953Y23250953D01*
X-36204953Y23250953D02*
X-36181143Y23250953D01*
X-36181143Y23250953D02*
X-36133524Y23227143D01*
X-36133524Y23227143D02*
X-36109715Y23203334D01*
X-36109715Y23203334D02*
X-36085905Y23155715D01*
X-36085905Y23155715D02*
X-36085905Y23060477D01*
X-36085905Y23060477D02*
X-36062096Y23012858D01*
X-36062096Y23012858D02*
X-36038286Y22989048D01*
X-36038286Y22989048D02*
X-35990667Y22965239D01*
X-35990667Y22965239D02*
X-35895429Y22965239D01*
X-35895429Y22965239D02*
X-35847810Y22989048D01*
X-35847810Y22989048D02*
X-35824000Y23012858D01*
X-35824000Y23012858D02*
X-35800191Y23060477D01*
X-35800191Y23060477D02*
X-35800191Y23155715D01*
X-35800191Y23155715D02*
X-35824000Y23203334D01*
X-35824000Y23203334D02*
X-35847810Y23227143D01*
X-35847810Y23227143D02*
X-35895429Y23250953D01*
X-35895429Y23250953D02*
X-35990667Y23250953D01*
X-35990667Y23250953D02*
X-36038286Y23227143D01*
X-36038286Y23227143D02*
X-36062096Y23203334D01*
X-36062096Y23203334D02*
X-36085905Y23155715D01*
X-35706429Y30652810D02*
X-35730238Y30629000D01*
X-35730238Y30629000D02*
X-35801667Y30605191D01*
X-35801667Y30605191D02*
X-35849286Y30605191D01*
X-35849286Y30605191D02*
X-35920714Y30629000D01*
X-35920714Y30629000D02*
X-35968333Y30676620D01*
X-35968333Y30676620D02*
X-35992143Y30724239D01*
X-35992143Y30724239D02*
X-36015952Y30819477D01*
X-36015952Y30819477D02*
X-36015952Y30890905D01*
X-36015952Y30890905D02*
X-35992143Y30986143D01*
X-35992143Y30986143D02*
X-35968333Y31033762D01*
X-35968333Y31033762D02*
X-35920714Y31081381D01*
X-35920714Y31081381D02*
X-35849286Y31105191D01*
X-35849286Y31105191D02*
X-35801667Y31105191D01*
X-35801667Y31105191D02*
X-35730238Y31081381D01*
X-35730238Y31081381D02*
X-35706429Y31057572D01*
X-35230238Y30605191D02*
X-35515952Y30605191D01*
X-35373095Y30605191D02*
X-35373095Y31105191D01*
X-35373095Y31105191D02*
X-35420714Y31033762D01*
X-35420714Y31033762D02*
X-35468333Y30986143D01*
X-35468333Y30986143D02*
X-35515952Y30962334D01*
X-34777858Y31105191D02*
X-35015953Y31105191D01*
X-35015953Y31105191D02*
X-35039762Y30867096D01*
X-35039762Y30867096D02*
X-35015953Y30890905D01*
X-35015953Y30890905D02*
X-34968334Y30914715D01*
X-34968334Y30914715D02*
X-34849286Y30914715D01*
X-34849286Y30914715D02*
X-34801667Y30890905D01*
X-34801667Y30890905D02*
X-34777858Y30867096D01*
X-34777858Y30867096D02*
X-34754048Y30819477D01*
X-34754048Y30819477D02*
X-34754048Y30700429D01*
X-34754048Y30700429D02*
X-34777858Y30652810D01*
X-34777858Y30652810D02*
X-34801667Y30629000D01*
X-34801667Y30629000D02*
X-34849286Y30605191D01*
X-34849286Y30605191D02*
X-34968334Y30605191D01*
X-34968334Y30605191D02*
X-35015953Y30629000D01*
X-35015953Y30629000D02*
X-35039762Y30652810D01*
X-45463572Y33677191D02*
X-45439763Y33701000D01*
X-45439763Y33701000D02*
X-45368334Y33724810D01*
X-45368334Y33724810D02*
X-45320715Y33724810D01*
X-45320715Y33724810D02*
X-45249287Y33701000D01*
X-45249287Y33701000D02*
X-45201668Y33653381D01*
X-45201668Y33653381D02*
X-45177858Y33605762D01*
X-45177858Y33605762D02*
X-45154049Y33510524D01*
X-45154049Y33510524D02*
X-45154049Y33439096D01*
X-45154049Y33439096D02*
X-45177858Y33343858D01*
X-45177858Y33343858D02*
X-45201668Y33296239D01*
X-45201668Y33296239D02*
X-45249287Y33248620D01*
X-45249287Y33248620D02*
X-45320715Y33224810D01*
X-45320715Y33224810D02*
X-45368334Y33224810D01*
X-45368334Y33224810D02*
X-45439763Y33248620D01*
X-45439763Y33248620D02*
X-45463572Y33272429D01*
X-45939763Y33724810D02*
X-45654049Y33724810D01*
X-45796906Y33724810D02*
X-45796906Y33224810D01*
X-45796906Y33224810D02*
X-45749287Y33296239D01*
X-45749287Y33296239D02*
X-45701668Y33343858D01*
X-45701668Y33343858D02*
X-45654049Y33367667D01*
X-46368334Y33224810D02*
X-46273096Y33224810D01*
X-46273096Y33224810D02*
X-46225477Y33248620D01*
X-46225477Y33248620D02*
X-46201667Y33272429D01*
X-46201667Y33272429D02*
X-46154048Y33343858D01*
X-46154048Y33343858D02*
X-46130239Y33439096D01*
X-46130239Y33439096D02*
X-46130239Y33629572D01*
X-46130239Y33629572D02*
X-46154048Y33677191D01*
X-46154048Y33677191D02*
X-46177858Y33701000D01*
X-46177858Y33701000D02*
X-46225477Y33724810D01*
X-46225477Y33724810D02*
X-46320715Y33724810D01*
X-46320715Y33724810D02*
X-46368334Y33701000D01*
X-46368334Y33701000D02*
X-46392143Y33677191D01*
X-46392143Y33677191D02*
X-46415953Y33629572D01*
X-46415953Y33629572D02*
X-46415953Y33510524D01*
X-46415953Y33510524D02*
X-46392143Y33462905D01*
X-46392143Y33462905D02*
X-46368334Y33439096D01*
X-46368334Y33439096D02*
X-46320715Y33415286D01*
X-46320715Y33415286D02*
X-46225477Y33415286D01*
X-46225477Y33415286D02*
X-46177858Y33439096D01*
X-46177858Y33439096D02*
X-46154048Y33462905D01*
X-46154048Y33462905D02*
X-46130239Y33510524D01*
X-45368334Y21392810D02*
X-45392143Y21369000D01*
X-45392143Y21369000D02*
X-45463572Y21345191D01*
X-45463572Y21345191D02*
X-45511191Y21345191D01*
X-45511191Y21345191D02*
X-45582619Y21369000D01*
X-45582619Y21369000D02*
X-45630238Y21416620D01*
X-45630238Y21416620D02*
X-45654048Y21464239D01*
X-45654048Y21464239D02*
X-45677857Y21559477D01*
X-45677857Y21559477D02*
X-45677857Y21630905D01*
X-45677857Y21630905D02*
X-45654048Y21726143D01*
X-45654048Y21726143D02*
X-45630238Y21773762D01*
X-45630238Y21773762D02*
X-45582619Y21821381D01*
X-45582619Y21821381D02*
X-45511191Y21845191D01*
X-45511191Y21845191D02*
X-45463572Y21845191D01*
X-45463572Y21845191D02*
X-45392143Y21821381D01*
X-45392143Y21821381D02*
X-45368334Y21797572D01*
X-45177857Y21797572D02*
X-45154048Y21821381D01*
X-45154048Y21821381D02*
X-45106429Y21845191D01*
X-45106429Y21845191D02*
X-44987381Y21845191D01*
X-44987381Y21845191D02*
X-44939762Y21821381D01*
X-44939762Y21821381D02*
X-44915953Y21797572D01*
X-44915953Y21797572D02*
X-44892143Y21749953D01*
X-44892143Y21749953D02*
X-44892143Y21702334D01*
X-44892143Y21702334D02*
X-44915953Y21630905D01*
X-44915953Y21630905D02*
X-45201667Y21345191D01*
X-45201667Y21345191D02*
X-44892143Y21345191D01*
X-37112617Y33223514D02*
X-37112617Y33189842D01*
X-37112617Y33189842D02*
X-37146289Y33122498D01*
X-37146289Y33122498D02*
X-37179961Y33088827D01*
X-37179961Y33088827D02*
X-37247304Y33055155D01*
X-37247304Y33055155D02*
X-37314648Y33055155D01*
X-37314648Y33055155D02*
X-37365155Y33071991D01*
X-37365155Y33071991D02*
X-37449335Y33122498D01*
X-37449335Y33122498D02*
X-37499842Y33173006D01*
X-37499842Y33173006D02*
X-37550350Y33257185D01*
X-37550350Y33257185D02*
X-37567186Y33307693D01*
X-37567186Y33307693D02*
X-37567186Y33375036D01*
X-37567186Y33375036D02*
X-37533514Y33442380D01*
X-37533514Y33442380D02*
X-37499842Y33476052D01*
X-37499842Y33476052D02*
X-37432499Y33509723D01*
X-37432499Y33509723D02*
X-37398827Y33509723D01*
X-37314648Y33661246D02*
X-37078946Y33896949D01*
X-37078946Y33896949D02*
X-36876915Y33391872D01*
X-42437810Y39296667D02*
X-42414000Y39272858D01*
X-42414000Y39272858D02*
X-42390191Y39201429D01*
X-42390191Y39201429D02*
X-42390191Y39153810D01*
X-42390191Y39153810D02*
X-42414000Y39082382D01*
X-42414000Y39082382D02*
X-42461620Y39034763D01*
X-42461620Y39034763D02*
X-42509239Y39010953D01*
X-42509239Y39010953D02*
X-42604477Y38987144D01*
X-42604477Y38987144D02*
X-42675905Y38987144D01*
X-42675905Y38987144D02*
X-42771143Y39010953D01*
X-42771143Y39010953D02*
X-42818762Y39034763D01*
X-42818762Y39034763D02*
X-42866381Y39082382D01*
X-42866381Y39082382D02*
X-42890191Y39153810D01*
X-42890191Y39153810D02*
X-42890191Y39201429D01*
X-42890191Y39201429D02*
X-42866381Y39272858D01*
X-42866381Y39272858D02*
X-42842572Y39296667D01*
X-42890191Y39749048D02*
X-42890191Y39510953D01*
X-42890191Y39510953D02*
X-42652096Y39487144D01*
X-42652096Y39487144D02*
X-42675905Y39510953D01*
X-42675905Y39510953D02*
X-42699715Y39558572D01*
X-42699715Y39558572D02*
X-42699715Y39677620D01*
X-42699715Y39677620D02*
X-42675905Y39725239D01*
X-42675905Y39725239D02*
X-42652096Y39749048D01*
X-42652096Y39749048D02*
X-42604477Y39772858D01*
X-42604477Y39772858D02*
X-42485429Y39772858D01*
X-42485429Y39772858D02*
X-42437810Y39749048D01*
X-42437810Y39749048D02*
X-42414000Y39725239D01*
X-42414000Y39725239D02*
X-42390191Y39677620D01*
X-42390191Y39677620D02*
X-42390191Y39558572D01*
X-42390191Y39558572D02*
X-42414000Y39510953D01*
X-42414000Y39510953D02*
X-42437810Y39487144D01*
X-46148810Y47066667D02*
X-46125000Y47042858D01*
X-46125000Y47042858D02*
X-46101191Y46971429D01*
X-46101191Y46971429D02*
X-46101191Y46923810D01*
X-46101191Y46923810D02*
X-46125000Y46852382D01*
X-46125000Y46852382D02*
X-46172620Y46804763D01*
X-46172620Y46804763D02*
X-46220239Y46780953D01*
X-46220239Y46780953D02*
X-46315477Y46757144D01*
X-46315477Y46757144D02*
X-46386905Y46757144D01*
X-46386905Y46757144D02*
X-46482143Y46780953D01*
X-46482143Y46780953D02*
X-46529762Y46804763D01*
X-46529762Y46804763D02*
X-46577381Y46852382D01*
X-46577381Y46852382D02*
X-46601191Y46923810D01*
X-46601191Y46923810D02*
X-46601191Y46971429D01*
X-46601191Y46971429D02*
X-46577381Y47042858D01*
X-46577381Y47042858D02*
X-46553572Y47066667D01*
X-46101191Y47542858D02*
X-46101191Y47257144D01*
X-46101191Y47400001D02*
X-46601191Y47400001D01*
X-46601191Y47400001D02*
X-46529762Y47352382D01*
X-46529762Y47352382D02*
X-46482143Y47304763D01*
X-46482143Y47304763D02*
X-46458334Y47257144D01*
X-43359218Y21833633D02*
X-43392890Y21833633D01*
X-43392890Y21833633D02*
X-43460234Y21867305D01*
X-43460234Y21867305D02*
X-43493905Y21900977D01*
X-43493905Y21900977D02*
X-43527577Y21968320D01*
X-43527577Y21968320D02*
X-43527577Y22035664D01*
X-43527577Y22035664D02*
X-43510741Y22086171D01*
X-43510741Y22086171D02*
X-43460234Y22170351D01*
X-43460234Y22170351D02*
X-43409726Y22220858D01*
X-43409726Y22220858D02*
X-43325547Y22271366D01*
X-43325547Y22271366D02*
X-43275039Y22288202D01*
X-43275039Y22288202D02*
X-43207696Y22288202D01*
X-43207696Y22288202D02*
X-43140352Y22254530D01*
X-43140352Y22254530D02*
X-43106680Y22220858D01*
X-43106680Y22220858D02*
X-43073009Y22153515D01*
X-43073009Y22153515D02*
X-43073009Y22119843D01*
X-42736291Y21850469D02*
X-42803635Y21917813D01*
X-42803635Y21917813D02*
X-42854142Y21934649D01*
X-42854142Y21934649D02*
X-42887814Y21934649D01*
X-42887814Y21934649D02*
X-42971993Y21917813D01*
X-42971993Y21917813D02*
X-43056173Y21867305D01*
X-43056173Y21867305D02*
X-43190860Y21732618D01*
X-43190860Y21732618D02*
X-43207696Y21682110D01*
X-43207696Y21682110D02*
X-43207696Y21648439D01*
X-43207696Y21648439D02*
X-43190860Y21597931D01*
X-43190860Y21597931D02*
X-43123516Y21530588D01*
X-43123516Y21530588D02*
X-43073009Y21513752D01*
X-43073009Y21513752D02*
X-43039337Y21513752D01*
X-43039337Y21513752D02*
X-42988829Y21530588D01*
X-42988829Y21530588D02*
X-42904650Y21614767D01*
X-42904650Y21614767D02*
X-42887814Y21665275D01*
X-42887814Y21665275D02*
X-42887814Y21698946D01*
X-42887814Y21698946D02*
X-42904650Y21749454D01*
X-42904650Y21749454D02*
X-42971993Y21816797D01*
X-42971993Y21816797D02*
X-43022501Y21833633D01*
X-43022501Y21833633D02*
X-43056173Y21833633D01*
X-43056173Y21833633D02*
X-43106680Y21816797D01*
X-35296429Y31592810D02*
X-35320238Y31569000D01*
X-35320238Y31569000D02*
X-35391667Y31545191D01*
X-35391667Y31545191D02*
X-35439286Y31545191D01*
X-35439286Y31545191D02*
X-35510714Y31569000D01*
X-35510714Y31569000D02*
X-35558333Y31616620D01*
X-35558333Y31616620D02*
X-35582143Y31664239D01*
X-35582143Y31664239D02*
X-35605952Y31759477D01*
X-35605952Y31759477D02*
X-35605952Y31830905D01*
X-35605952Y31830905D02*
X-35582143Y31926143D01*
X-35582143Y31926143D02*
X-35558333Y31973762D01*
X-35558333Y31973762D02*
X-35510714Y32021381D01*
X-35510714Y32021381D02*
X-35439286Y32045191D01*
X-35439286Y32045191D02*
X-35391667Y32045191D01*
X-35391667Y32045191D02*
X-35320238Y32021381D01*
X-35320238Y32021381D02*
X-35296429Y31997572D01*
X-34820238Y31545191D02*
X-35105952Y31545191D01*
X-34963095Y31545191D02*
X-34963095Y32045191D01*
X-34963095Y32045191D02*
X-35010714Y31973762D01*
X-35010714Y31973762D02*
X-35058333Y31926143D01*
X-35058333Y31926143D02*
X-35105952Y31902334D01*
X-34391667Y31878524D02*
X-34391667Y31545191D01*
X-34510715Y32069000D02*
X-34629762Y31711858D01*
X-34629762Y31711858D02*
X-34320239Y31711858D01*
D12*
X-47480181Y52161906D02*
X-48480181Y52161906D01*
X-48480181Y52161906D02*
X-48480181Y52400001D01*
X-48480181Y52400001D02*
X-48432562Y52542858D01*
X-48432562Y52542858D02*
X-48337324Y52638096D01*
X-48337324Y52638096D02*
X-48242086Y52685715D01*
X-48242086Y52685715D02*
X-48051610Y52733334D01*
X-48051610Y52733334D02*
X-47908753Y52733334D01*
X-47908753Y52733334D02*
X-47718277Y52685715D01*
X-47718277Y52685715D02*
X-47623039Y52638096D01*
X-47623039Y52638096D02*
X-47527800Y52542858D01*
X-47527800Y52542858D02*
X-47480181Y52400001D01*
X-47480181Y52400001D02*
X-47480181Y52161906D01*
X-48146848Y53590477D02*
X-47480181Y53590477D01*
X-48527800Y53352382D02*
X-47813515Y53114287D01*
X-47813515Y53114287D02*
X-47813515Y53733334D01*
D11*
X-35190191Y33576667D02*
X-35428286Y33410001D01*
X-35190191Y33290953D02*
X-35690191Y33290953D01*
X-35690191Y33290953D02*
X-35690191Y33481429D01*
X-35690191Y33481429D02*
X-35666381Y33529048D01*
X-35666381Y33529048D02*
X-35642572Y33552858D01*
X-35642572Y33552858D02*
X-35594953Y33576667D01*
X-35594953Y33576667D02*
X-35523524Y33576667D01*
X-35523524Y33576667D02*
X-35475905Y33552858D01*
X-35475905Y33552858D02*
X-35452096Y33529048D01*
X-35452096Y33529048D02*
X-35428286Y33481429D01*
X-35428286Y33481429D02*
X-35428286Y33290953D01*
X-35690191Y33743334D02*
X-35690191Y34052858D01*
X-35690191Y34052858D02*
X-35499715Y33886191D01*
X-35499715Y33886191D02*
X-35499715Y33957620D01*
X-35499715Y33957620D02*
X-35475905Y34005239D01*
X-35475905Y34005239D02*
X-35452096Y34029048D01*
X-35452096Y34029048D02*
X-35404477Y34052858D01*
X-35404477Y34052858D02*
X-35285429Y34052858D01*
X-35285429Y34052858D02*
X-35237810Y34029048D01*
X-35237810Y34029048D02*
X-35214000Y34005239D01*
X-35214000Y34005239D02*
X-35190191Y33957620D01*
X-35190191Y33957620D02*
X-35190191Y33814763D01*
X-35190191Y33814763D02*
X-35214000Y33767144D01*
X-35214000Y33767144D02*
X-35237810Y33743334D01*
D12*
X-36758334Y42205181D02*
X-36758334Y41490896D01*
X-36758334Y41490896D02*
X-36805953Y41348039D01*
X-36805953Y41348039D02*
X-36901191Y41252800D01*
X-36901191Y41252800D02*
X-37044048Y41205181D01*
X-37044048Y41205181D02*
X-37139286Y41205181D01*
X-36329762Y42109943D02*
X-36282143Y42157562D01*
X-36282143Y42157562D02*
X-36186905Y42205181D01*
X-36186905Y42205181D02*
X-35948810Y42205181D01*
X-35948810Y42205181D02*
X-35853572Y42157562D01*
X-35853572Y42157562D02*
X-35805953Y42109943D01*
X-35805953Y42109943D02*
X-35758334Y42014705D01*
X-35758334Y42014705D02*
X-35758334Y41919467D01*
X-35758334Y41919467D02*
X-35805953Y41776610D01*
X-35805953Y41776610D02*
X-36377381Y41205181D01*
X-36377381Y41205181D02*
X-35758334Y41205181D01*
D11*
X-37285953Y22325191D02*
X-37285953Y21920429D01*
X-37285953Y21920429D02*
X-37262143Y21872810D01*
X-37262143Y21872810D02*
X-37238334Y21849000D01*
X-37238334Y21849000D02*
X-37190715Y21825191D01*
X-37190715Y21825191D02*
X-37095477Y21825191D01*
X-37095477Y21825191D02*
X-37047858Y21849000D01*
X-37047858Y21849000D02*
X-37024048Y21872810D01*
X-37024048Y21872810D02*
X-37000239Y21920429D01*
X-37000239Y21920429D02*
X-37000239Y22325191D01*
X-36547857Y22158524D02*
X-36547857Y21825191D01*
X-36666905Y22349000D02*
X-36785952Y21991858D01*
X-36785952Y21991858D02*
X-36476429Y21991858D01*
D14*
%TO.C,D2*%
X-35240000Y53700000D02*
X-35240000Y51415000D01*
X-35240000Y51415000D02*
X-33770000Y51415000D01*
X-33770000Y51415000D02*
X-33770000Y53700000D01*
%TO.C,C12*%
X-40055000Y22797836D02*
X-40055000Y22582164D01*
X-39335000Y22797836D02*
X-39335000Y22582164D01*
%TO.C,Y1*%
X-46455000Y20200000D02*
X-46455000Y16600000D01*
X-46455000Y16600000D02*
X-40705000Y16600000D01*
X-40705000Y20200000D02*
X-46455000Y20200000D01*
%TO.C,C17*%
X-46015000Y31082164D02*
X-46015000Y31297836D01*
X-45295000Y31082164D02*
X-45295000Y31297836D01*
%TO.C,R2*%
X-46865000Y55292164D02*
X-46865000Y55507836D01*
X-46145000Y55292164D02*
X-46145000Y55507836D01*
%TO.C,R9*%
X-43865000Y41792164D02*
X-43865000Y42007836D01*
X-43145000Y41792164D02*
X-43145000Y42007836D01*
%TO.C,R4*%
X-34835000Y32387836D02*
X-34835000Y32172164D01*
X-34115000Y32387836D02*
X-34115000Y32172164D01*
%TO.C,R10*%
X-34865000Y55292164D02*
X-34865000Y55507836D01*
X-34145000Y55292164D02*
X-34145000Y55507836D01*
%TO.C,D1*%
X-46040000Y40200000D02*
X-46040000Y37915000D01*
X-46040000Y37915000D02*
X-44570000Y37915000D01*
X-44570000Y37915000D02*
X-44570000Y40200000D01*
%TO.C,U3*%
X-46681374Y28028122D02*
X-46221755Y28487741D01*
X-46221755Y27568503D02*
X-46681374Y28028122D01*
X-42035682Y23382430D02*
X-41576063Y22922811D01*
X-41576063Y22922811D02*
X-41116444Y23382430D01*
X-41116444Y32673814D02*
X-41576063Y33133433D01*
X-36930371Y28487741D02*
X-36470752Y28028122D01*
X-36470752Y28028122D02*
X-36930371Y27568503D01*
%TO.C,R5*%
X-43412836Y21130000D02*
X-43197164Y21130000D01*
X-43412836Y20410000D02*
X-43197164Y20410000D01*
%TO.C,U2*%
X-42885000Y37710000D02*
X-42885000Y39660000D01*
X-42885000Y37710000D02*
X-42885000Y34260000D01*
X-37765000Y37710000D02*
X-37765000Y39660000D01*
X-37765000Y37710000D02*
X-37765000Y35760000D01*
%TO.C,C10*%
X-35022836Y28980000D02*
X-34807164Y28980000D01*
X-35022836Y28260000D02*
X-34807164Y28260000D01*
%TO.C,J1*%
X-44775000Y56620000D02*
X-44775000Y55720000D01*
X-44775000Y56620000D02*
X-43975000Y56620000D01*
X-44775000Y52580000D02*
X-44775000Y53480000D01*
X-44775000Y52580000D02*
X-43975000Y52580000D01*
X-36235000Y56620000D02*
X-37035000Y56620000D01*
X-36235000Y56620000D02*
X-36235000Y55720000D01*
X-36235000Y52580000D02*
X-37035000Y52580000D01*
X-36235000Y52580000D02*
X-36235000Y53480000D01*
X-36085000Y52430000D02*
X-36585000Y52430000D01*
X-36085000Y52430000D02*
X-36085000Y52930000D01*
%TO.C,C8*%
X-35882836Y29900000D02*
X-35667164Y29900000D01*
X-35882836Y29180000D02*
X-35667164Y29180000D01*
%TO.C,C3*%
X-41582836Y21120000D02*
X-41367164Y21120000D01*
X-41582836Y20400000D02*
X-41367164Y20400000D01*
%TO.C,U1*%
X-43145000Y50810000D02*
X-44945000Y50810000D01*
X-43145000Y50810000D02*
X-42345000Y50810000D01*
X-43145000Y47690000D02*
X-43945000Y47690000D01*
X-43145000Y47690000D02*
X-42345000Y47690000D01*
%TO.C,C4*%
X-40691000Y49511252D02*
X-40691000Y48988748D01*
X-39221000Y49511252D02*
X-39221000Y48988748D01*
%TO.C,C13*%
X-43995810Y23401693D02*
X-43843307Y23249190D01*
X-43486693Y23910810D02*
X-43334190Y23758307D01*
%TO.C,C9*%
X-35705810Y26921693D02*
X-35553307Y26769190D01*
X-35196693Y27430810D02*
X-35044190Y27278307D01*
%TO.C,C11*%
X-36365810Y26271693D02*
X-36213307Y26119190D01*
X-35856693Y26780810D02*
X-35704190Y26628307D01*
%TO.C,R1*%
X-43885000Y35632164D02*
X-43885000Y35847836D01*
X-43165000Y35632164D02*
X-43165000Y35847836D01*
%TO.C,C18*%
X-35535000Y22462164D02*
X-35535000Y22677836D01*
X-34815000Y22462164D02*
X-34815000Y22677836D01*
%TO.C,C15*%
X-37322836Y31230000D02*
X-37107164Y31230000D01*
X-37322836Y30510000D02*
X-37107164Y30510000D01*
%TO.C,C16*%
X-43337164Y33730000D02*
X-43552836Y33730000D01*
X-43337164Y33010000D02*
X-43552836Y33010000D01*
%TO.C,C2*%
X-45077164Y21120000D02*
X-45292836Y21120000D01*
X-45077164Y20400000D02*
X-45292836Y20400000D01*
%TO.C,C7*%
X-38605810Y32518307D02*
X-38453307Y32670810D01*
X-38096693Y32009190D02*
X-37944190Y32161693D01*
%TO.C,C5*%
X-43865000Y39507836D02*
X-43865000Y39292164D01*
X-43145000Y39507836D02*
X-43145000Y39292164D01*
%TO.C,C1*%
X-47041000Y49511252D02*
X-47041000Y48988748D01*
X-45571000Y49511252D02*
X-45571000Y48988748D01*
%TO.C,C6*%
X-42685810Y22081693D02*
X-42533307Y21929190D01*
X-42176693Y22590810D02*
X-42024190Y22438307D01*
%TO.C,C14*%
X-36882836Y32160000D02*
X-36667164Y32160000D01*
X-36882836Y31440000D02*
X-36667164Y31440000D01*
%TO.C,D4*%
X-47240000Y53700000D02*
X-47240000Y51415000D01*
X-47240000Y51415000D02*
X-45770000Y51415000D01*
X-45770000Y51415000D02*
X-45770000Y53700000D01*
%TO.C,R3*%
X-35755000Y32377836D02*
X-35755000Y32162164D01*
X-35035000Y32377836D02*
X-35035000Y32162164D01*
%TO.C,J2*%
X-37755000Y45260000D02*
X-37755000Y50400000D01*
X-35095000Y50400000D02*
X-37755000Y50400000D01*
X-35095000Y45260000D02*
X-37755000Y45260000D01*
X-35095000Y45260000D02*
X-35095000Y50400000D01*
X-35095000Y43990000D02*
X-35095000Y42660000D01*
X-35095000Y42660000D02*
X-36425000Y42660000D01*
%TO.C,U4*%
X-39815000Y21072500D02*
X-39590000Y21072500D01*
X-39815000Y20347500D02*
X-39815000Y21072500D01*
X-39815000Y19077500D02*
X-39815000Y18352500D01*
X-39815000Y18352500D02*
X-39590000Y18352500D01*
X-35095000Y20347500D02*
X-35095000Y21072500D01*
X-35095000Y19077500D02*
X-35095000Y18352500D01*
X-35095000Y18352500D02*
X-35320000Y18352500D01*
%TD*%
%LPC*%
D15*
%TO.C,D2*%
X-34505000Y52112500D03*
X-34505000Y53687500D03*
%TD*%
D16*
%TO.C,C12*%
X-39695000Y23170000D03*
X-39695000Y22210000D03*
%TD*%
D17*
%TO.C,Y1*%
X-45255000Y18400000D03*
X-41555000Y18400000D03*
%TD*%
D18*
%TO.C,C17*%
X-45655000Y30710000D03*
X-45655000Y31670000D03*
%TD*%
%TO.C,R2*%
X-46505000Y54920000D03*
X-46505000Y55880000D03*
%TD*%
%TO.C,R9*%
X-43505000Y41420000D03*
X-43505000Y42380000D03*
%TD*%
D16*
%TO.C,R4*%
X-34475000Y32760000D03*
X-34475000Y31800000D03*
%TD*%
D18*
%TO.C,R10*%
X-34505000Y54920000D03*
X-34505000Y55880000D03*
%TD*%
D15*
%TO.C,D1*%
X-45305000Y38612500D03*
X-45305000Y40187500D03*
%TD*%
D19*
%TO.C,U3*%
X-42168265Y32297279D03*
X-42451108Y32014436D03*
X-42733950Y31731594D03*
X-43016793Y31448751D03*
X-43299636Y31165908D03*
X-43582478Y30883066D03*
X-43865321Y30600223D03*
X-44148164Y30317380D03*
X-44431007Y30034537D03*
X-44713849Y29751695D03*
X-44996692Y29468852D03*
X-45279535Y29186009D03*
X-45562377Y28903167D03*
X-45845220Y28620324D03*
D20*
X-45845220Y27435920D03*
X-45562377Y27153077D03*
X-45279535Y26870235D03*
X-44996692Y26587392D03*
X-44713849Y26304549D03*
X-44431007Y26021707D03*
X-44148164Y25738864D03*
X-43865321Y25456021D03*
X-43582478Y25173178D03*
X-43299636Y24890336D03*
X-43016793Y24607493D03*
X-42733950Y24324650D03*
X-42451108Y24041808D03*
X-42168265Y23758965D03*
D19*
X-40983861Y23758965D03*
X-40701018Y24041808D03*
X-40418176Y24324650D03*
X-40135333Y24607493D03*
X-39852490Y24890336D03*
X-39569648Y25173178D03*
X-39286805Y25456021D03*
X-39003962Y25738864D03*
X-38721119Y26021707D03*
X-38438277Y26304549D03*
X-38155434Y26587392D03*
X-37872591Y26870235D03*
X-37589749Y27153077D03*
X-37306906Y27435920D03*
D20*
X-37306906Y28620324D03*
X-37589749Y28903167D03*
X-37872591Y29186009D03*
X-38155434Y29468852D03*
X-38438277Y29751695D03*
X-38721119Y30034537D03*
X-39003962Y30317380D03*
X-39286805Y30600223D03*
X-39569648Y30883066D03*
X-39852490Y31165908D03*
X-40135333Y31448751D03*
X-40418176Y31731594D03*
X-40701018Y32014436D03*
X-40983861Y32297279D03*
D21*
X-41576063Y28028122D03*
%TD*%
D22*
%TO.C,R5*%
X-43785000Y20770000D03*
X-42825000Y20770000D03*
%TD*%
D23*
%TO.C,U2*%
X-42230000Y35235000D03*
X-40960000Y35235000D03*
X-39690000Y35235000D03*
X-38420000Y35235000D03*
X-38420000Y40185000D03*
X-39690000Y40185000D03*
X-40960000Y40185000D03*
X-42230000Y40185000D03*
%TD*%
D22*
%TO.C,C10*%
X-35395000Y28620000D03*
X-34435000Y28620000D03*
%TD*%
D24*
%TO.C,J1*%
X-36755000Y54600000D03*
D25*
X-44255000Y54600000D03*
D26*
X-37725000Y53840000D03*
X-38515000Y53840000D03*
X-39305000Y53840000D03*
X-40095000Y53840000D03*
X-40885000Y53840000D03*
X-41675000Y53840000D03*
X-42465000Y53840000D03*
X-43255000Y53840000D03*
X-43255000Y55360000D03*
X-42465000Y55360000D03*
X-41675000Y55360000D03*
X-40885000Y55360000D03*
X-40095000Y55360000D03*
X-39305000Y55360000D03*
X-38515000Y55360000D03*
X-37725000Y55360000D03*
D27*
X-38105000Y52450000D03*
X-38105000Y56750000D03*
X-42905000Y52450000D03*
X-42905000Y56750000D03*
%TD*%
D22*
%TO.C,C8*%
X-36255000Y29540000D03*
X-35295000Y29540000D03*
%TD*%
%TO.C,C3*%
X-41955000Y20760000D03*
X-40995000Y20760000D03*
%TD*%
D28*
%TO.C,U1*%
X-44282500Y50200000D03*
X-44282500Y49250000D03*
X-44282500Y48300000D03*
X-42007500Y48300000D03*
X-42007500Y50200000D03*
%TD*%
D29*
%TO.C,C4*%
X-39956000Y50200000D03*
X-39956000Y48300000D03*
%TD*%
D30*
%TO.C,C13*%
X-44004411Y23919411D03*
X-43325589Y23240589D03*
%TD*%
%TO.C,C9*%
X-35714411Y27439411D03*
X-35035589Y26760589D03*
%TD*%
%TO.C,C11*%
X-36374411Y26789411D03*
X-35695589Y26110589D03*
%TD*%
D18*
%TO.C,R1*%
X-43525000Y35260000D03*
X-43525000Y36220000D03*
%TD*%
%TO.C,C18*%
X-35175000Y22090000D03*
X-35175000Y23050000D03*
%TD*%
D22*
%TO.C,C15*%
X-37695000Y30870000D03*
X-36735000Y30870000D03*
%TD*%
D31*
%TO.C,C16*%
X-42965000Y33370000D03*
X-43925000Y33370000D03*
%TD*%
%TO.C,C2*%
X-44705000Y20760000D03*
X-45665000Y20760000D03*
%TD*%
D32*
%TO.C,C7*%
X-38614411Y32000589D03*
X-37935589Y32679411D03*
%TD*%
D16*
%TO.C,C5*%
X-43505000Y39880000D03*
X-43505000Y38920000D03*
%TD*%
D29*
%TO.C,C1*%
X-46306000Y50200000D03*
X-46306000Y48300000D03*
%TD*%
D30*
%TO.C,C6*%
X-42694411Y22599411D03*
X-42015589Y21920589D03*
%TD*%
D22*
%TO.C,C14*%
X-37255000Y31800000D03*
X-36295000Y31800000D03*
%TD*%
D15*
%TO.C,D4*%
X-46505000Y52112500D03*
X-46505000Y53687500D03*
%TD*%
D16*
%TO.C,R3*%
X-35395000Y32750000D03*
X-35395000Y31790000D03*
%TD*%
D33*
%TO.C,J2*%
X-36425000Y43990000D03*
D34*
X-36425000Y46530000D03*
X-36425000Y49070000D03*
%TD*%
D35*
%TO.C,U4*%
X-35267500Y19962500D03*
D36*
X-35705000Y20900000D03*
X-36205000Y20900000D03*
X-36705000Y20900000D03*
X-37205000Y20900000D03*
X-37705000Y20900000D03*
X-38205000Y20900000D03*
X-38705000Y20900000D03*
X-39205000Y20900000D03*
D35*
X-39642500Y19962500D03*
X-39642500Y19462500D03*
D36*
X-39205000Y18525000D03*
X-38705000Y18525000D03*
X-38205000Y18525000D03*
X-37705000Y18525000D03*
X-37205000Y18525000D03*
X-36705000Y18525000D03*
X-36205000Y18525000D03*
X-35705000Y18525000D03*
D35*
X-35267500Y19462500D03*
D37*
X-37455000Y19712500D03*
%TD*%
D38*
%TO.C,J4*%
X-32766000Y55718000D03*
D34*
X-32766000Y53178000D03*
X-32766000Y50638000D03*
X-32766000Y48098000D03*
X-32766000Y45558000D03*
X-32766000Y43018000D03*
X-32766000Y40478000D03*
X-32766000Y37938000D03*
X-32766000Y35398000D03*
X-32766000Y32858000D03*
X-32766000Y30318000D03*
X-32766000Y27778000D03*
X-32766000Y25238000D03*
X-32766000Y22698000D03*
X-32766000Y20158000D03*
X-32766000Y17618000D03*
%TD*%
D38*
%TO.C,J3*%
X-48205000Y55749000D03*
D34*
X-48205000Y53209000D03*
X-48205000Y50669000D03*
X-48205000Y48129000D03*
X-48205000Y45589000D03*
X-48205000Y43049000D03*
X-48205000Y40509000D03*
X-48205000Y37969000D03*
X-48205000Y35429000D03*
X-48205000Y32889000D03*
X-48205000Y30349000D03*
X-48205000Y27809000D03*
X-48205000Y25269000D03*
X-48205000Y22729000D03*
X-48205000Y20189000D03*
X-48205000Y17649000D03*
%TD*%
%LPD*%
M02*
