M48
; DRILL file {KiCad 7.0.5-0} date 2023 July 15, Saturday 08:41:56
; FORMAT={-:-/ absolute / inch / decimal}
; #@! TF.CreationDate,2023-07-15T08:41:56-07:00
; #@! TF.GenerationSoftware,Kicad,Pcbnew,7.0.5-0
; #@! TF.FileFunction,Plated,1,4,PTH
FMAT,2
INCH
; #@! TA.AperFunction,Plated,PTH,ViaDrill
T1C0.0118
; #@! TA.AperFunction,Plated,PTH,ComponentDrill
T2C0.0138
; #@! TA.AperFunction,Plated,PTH,ComponentDrill
T3C0.0256
; #@! TA.AperFunction,Plated,PTH,ComponentDrill
T4C0.0276
; #@! TA.AperFunction,Plated,PTH,ComponentDrill
T5C0.0394
%
G90
G05
T1
X-1.9411Y1.0374
X-1.9264Y1.9468
X-1.8282Y1.1759
X-1.8211Y1.4389
X-1.8108Y1.7374
X-1.8104Y1.9511
X-1.8104Y1.9261
X-1.8104Y1.9011
X-1.8073Y1.124
X-1.8073Y1.0256
X-1.8069Y1.1901
X-1.8014Y1.4685
X-1.7879Y2.1809
X-1.7872Y1.2098
X-1.7837Y1.4105
X-1.7837Y1.3105
X-1.768Y1.1929
X-1.7675Y1.1169
X-1.7672Y1.1674
X-1.7633Y1.1421
X-1.762Y1.6259
X-1.7569Y1.7626
X-1.7504Y2.1561
X-1.7404Y2.1811
X-1.7254Y2.1611
X-1.7254Y1.8711
X-1.7004Y1.8711
X-1.6892Y1.0759
X-1.6864Y1.1059
X-1.6793Y0.9547
X-1.6754Y1.8711
X-1.6646Y0.6968
X-1.6596Y1.0383
X-1.638Y1.4507
X-1.6262Y1.0393
X-1.6262Y0.8622
X-1.6144Y1.4507
X-1.6081Y1.6645
X-1.6045Y0.7854
X-1.5829Y0.8612
X-1.5789Y1.3287
X-1.577Y0.9478
X-1.575Y1.4507
X-1.5632Y1.309
X-1.5512Y1.6397
X-1.5474Y0.8631
X-1.5317Y0.9576
X-1.4972Y0.937
X-1.4953Y1.1633
X-1.4953Y1.1338
X-1.4943Y1.1023
X-1.4864Y1.2116
X-1.4707Y0.9311
X-1.4608Y1.4074
X-1.4608Y0.9035
X-1.447Y0.8809
X-1.4293Y1.5531
X-1.4254Y1.4074
X-1.4254Y1.313
X-1.4218Y0.7063
X-1.4185Y0.8828
X-1.4178Y0.8527
X-1.4165Y1.1633
X-1.4037Y0.7244
X-1.4008Y0.8336
X-1.3981Y1.1857
X-1.3919Y0.6968
X-1.387Y1.2332
X-1.386Y1.313
X-1.3821Y1.2057
X-1.3766Y0.6764
X-1.3752Y0.8189
X-1.3565Y1.0393
X-1.3485Y1.2301
X-1.3407Y1.1555
X-1.3405Y1.0593
X-1.3231Y1.2322
T2
X-1.637Y1.1875
X-1.637Y1.1373
X-1.637Y1.0871
X-1.5868Y1.1875
X-1.5868Y1.1373
X-1.5868Y1.0871
X-1.5366Y1.1875
X-1.5366Y1.1373
X-1.5366Y1.0871
T3
X-1.4522Y1.7145
X-1.4522Y1.6645
T4
X-1.6177Y2.1594
X-1.6177Y1.9704
X-1.4484Y2.1594
X-1.4484Y1.9704
T5
X-1.8978Y2.1948
X-1.8978Y2.0948
X-1.8978Y1.9948
X-1.8978Y1.8948
X-1.8978Y1.7948
X-1.8978Y1.6948
X-1.8978Y1.5948
X-1.8978Y1.4948
X-1.8978Y1.3948
X-1.8978Y1.2948
X-1.8978Y1.1948
X-1.8978Y1.0948
X-1.8978Y0.9948
X-1.8978Y0.8948
X-1.8978Y0.7948
X-1.8978Y0.6948
X-1.29Y2.1936
X-1.29Y2.0936
X-1.29Y1.9936
X-1.29Y1.8936
X-1.29Y1.7936
X-1.29Y1.6936
X-1.29Y1.5936
X-1.29Y1.4936
X-1.29Y1.3936
X-1.29Y1.2936
X-1.29Y1.1936
X-1.29Y1.0936
X-1.29Y0.9936
X-1.29Y0.8936
X-1.29Y0.7936
X-1.29Y0.6936
T0
M30
