%TF.GenerationSoftware,KiCad,Pcbnew,8.0.2-1*%
%TF.CreationDate,2024-05-26T22:58:53-07:00*%
%TF.ProjectId,PicoROM,5069636f-524f-44d2-9e6b-696361645f70,1.1*%
%TF.SameCoordinates,Original*%
%TF.FileFunction,Copper,L4,Bot*%
%TF.FilePolarity,Positive*%
%FSLAX46Y46*%
G04 Gerber Fmt 4.6, Leading zero omitted, Abs format (unit mm)*
G04 Created by KiCad (PCBNEW 8.0.2-1) date 2024-05-26 22:58:53*
%MOMM*%
%LPD*%
G01*
G04 APERTURE LIST*
G04 Aperture macros list*
%AMRoundRect*
0 Rectangle with rounded corners*
0 $1 Rounding radius*
0 $2 $3 $4 $5 $6 $7 $8 $9 X,Y pos of 4 corners*
0 Add a 4 corners polygon primitive as box body*
4,1,4,$2,$3,$4,$5,$6,$7,$8,$9,$2,$3,0*
0 Add four circle primitives for the rounded corners*
1,1,$1+$1,$2,$3*
1,1,$1+$1,$4,$5*
1,1,$1+$1,$6,$7*
1,1,$1+$1,$8,$9*
0 Add four rect primitives between the rounded corners*
20,1,$1+$1,$2,$3,$4,$5,0*
20,1,$1+$1,$4,$5,$6,$7,0*
20,1,$1+$1,$6,$7,$8,$9,0*
20,1,$1+$1,$8,$9,$2,$3,0*%
G04 Aperture macros list end*
%TA.AperFunction,ComponentPad*%
%ADD10C,0.600000*%
%TD*%
%TA.AperFunction,ComponentPad*%
%ADD11C,1.100000*%
%TD*%
%TA.AperFunction,ComponentPad*%
%ADD12R,1.700000X1.700000*%
%TD*%
%TA.AperFunction,ComponentPad*%
%ADD13O,1.700000X1.700000*%
%TD*%
%TA.AperFunction,ComponentPad*%
%ADD14C,1.700000*%
%TD*%
%TA.AperFunction,SMDPad,CuDef*%
%ADD15RoundRect,0.140000X0.170000X-0.140000X0.170000X0.140000X-0.170000X0.140000X-0.170000X-0.140000X0*%
%TD*%
%TA.AperFunction,SMDPad,CuDef*%
%ADD16RoundRect,0.140000X0.140000X0.170000X-0.140000X0.170000X-0.140000X-0.170000X0.140000X-0.170000X0*%
%TD*%
%TA.AperFunction,SMDPad,CuDef*%
%ADD17RoundRect,0.100000X-0.637500X-0.100000X0.637500X-0.100000X0.637500X0.100000X-0.637500X0.100000X0*%
%TD*%
%TA.AperFunction,SMDPad,CuDef*%
%ADD18RoundRect,0.150000X0.150000X-0.650000X0.150000X0.650000X-0.150000X0.650000X-0.150000X-0.650000X0*%
%TD*%
%TA.AperFunction,SMDPad,CuDef*%
%ADD19RoundRect,0.100000X0.637500X0.100000X-0.637500X0.100000X-0.637500X-0.100000X0.637500X-0.100000X0*%
%TD*%
%TA.AperFunction,SMDPad,CuDef*%
%ADD20RoundRect,0.140000X-0.170000X0.140000X-0.170000X-0.140000X0.170000X-0.140000X0.170000X0.140000X0*%
%TD*%
%TA.AperFunction,SMDPad,CuDef*%
%ADD21RoundRect,0.140000X-0.140000X-0.170000X0.140000X-0.170000X0.140000X0.170000X-0.140000X0.170000X0*%
%TD*%
%TA.AperFunction,SMDPad,CuDef*%
%ADD22R,0.580000X0.300000*%
%TD*%
%TA.AperFunction,SMDPad,CuDef*%
%ADD23R,0.579882X0.249936*%
%TD*%
%TA.AperFunction,SMDPad,CuDef*%
%ADD24R,0.350000X0.630000*%
%TD*%
%TA.AperFunction,ViaPad*%
%ADD25C,0.300000*%
%TD*%
%TA.AperFunction,Conductor*%
%ADD26C,0.150000*%
%TD*%
G04 APERTURE END LIST*
D10*
%TO.P,U3,57,GND*%
%TO.N,GND*%
X-41576063Y29831244D03*
X-42477624Y28929683D03*
X-43379185Y28028122D03*
X-40674502Y28929683D03*
X-41576063Y28028122D03*
X-42477624Y27126561D03*
X-39772941Y28028122D03*
X-40674502Y27126561D03*
X-41576063Y26225000D03*
%TD*%
D11*
%TO.P,J1,S1,SHIELD*%
%TO.N,GND*%
X-38105000Y52450000D03*
X-38105000Y56750000D03*
X-42905000Y52450000D03*
X-42905000Y56750000D03*
%TD*%
D12*
%TO.P,J2,1,Pin_1*%
%TO.N,/EXT_RESET*%
X-36425000Y43990000D03*
D13*
%TO.P,J2,2,Pin_2*%
%TO.N,/~{USB_BOOT}*%
X-36425000Y46530000D03*
%TO.P,J2,3,Pin_3*%
%TO.N,GND*%
X-36425000Y49070000D03*
%TD*%
D14*
%TO.P,J4,1,Pin_1*%
%TO.N,/VSYS*%
X-32766000Y55718000D03*
D13*
%TO.P,J4,2,Pin_2*%
%TO.N,unconnected-(J4-Pin_2-Pad2)*%
X-32766000Y53178000D03*
%TO.P,J4,3,Pin_3*%
%TO.N,/PIN_A17*%
X-32766000Y50638000D03*
%TO.P,J4,4,Pin_4*%
%TO.N,/PIN_A14*%
X-32766000Y48098000D03*
%TO.P,J4,5,Pin_5*%
%TO.N,/PIN_A13*%
X-32766000Y45558000D03*
%TO.P,J4,6,Pin_6*%
%TO.N,/PIN_A8*%
X-32766000Y43018000D03*
%TO.P,J4,7,Pin_7*%
%TO.N,/PIN_A9*%
X-32766000Y40478000D03*
%TO.P,J4,8,Pin_8*%
%TO.N,/PIN_A11*%
X-32766000Y37938000D03*
%TO.P,J4,9,Pin_9*%
%TO.N,/~{PIN_OE}*%
X-32766000Y35398000D03*
%TO.P,J4,10,Pin_10*%
%TO.N,/PIN_A10*%
X-32766000Y32858000D03*
%TO.P,J4,11,Pin_11*%
%TO.N,/~{PIN_CE}*%
X-32766000Y30318000D03*
%TO.P,J4,12,Pin_12*%
%TO.N,/PIN_D7*%
X-32766000Y27778000D03*
%TO.P,J4,13,Pin_13*%
%TO.N,/PIN_D6*%
X-32766000Y25238000D03*
%TO.P,J4,14,Pin_14*%
%TO.N,/PIN_D5*%
X-32766000Y22698000D03*
%TO.P,J4,15,Pin_15*%
%TO.N,/PIN_D4*%
X-32766000Y20158000D03*
%TO.P,J4,16,Pin_16*%
%TO.N,/PIN_D3*%
X-32766000Y17618000D03*
%TD*%
D15*
%TO.P,R7,1*%
%TO.N,GND*%
X-44605000Y52200000D03*
%TO.P,R7,2*%
%TO.N,Net-(J1-CC2)*%
X-44605000Y53160000D03*
%TD*%
D16*
%TO.P,C22,1*%
%TO.N,/VSYS*%
X-35445000Y40310000D03*
%TO.P,C22,2*%
%TO.N,GND*%
X-36405000Y40310000D03*
%TD*%
%TO.P,C21,1*%
%TO.N,+3V3*%
X-37935000Y22210000D03*
%TO.P,C21,2*%
%TO.N,GND*%
X-38895000Y22210000D03*
%TD*%
D17*
%TO.P,U6,1,~{OE1}*%
%TO.N,GND*%
X-45377500Y43675000D03*
%TO.P,U6,2,A1*%
%TO.N,/PIN_A1*%
X-45377500Y44325000D03*
%TO.P,U6,3,A2*%
%TO.N,/PIN_A2*%
X-45377500Y44975000D03*
%TO.P,U6,4,A3*%
%TO.N,/PIN_A3*%
X-45377500Y45625000D03*
%TO.P,U6,5,A4*%
%TO.N,/PIN_A4*%
X-45377500Y46275000D03*
%TO.P,U6,6,A5*%
%TO.N,/PIN_A5*%
X-45377500Y46925000D03*
%TO.P,U6,7,A6*%
%TO.N,/PIN_A6*%
X-45377500Y47575000D03*
%TO.P,U6,8,A7*%
%TO.N,/PIN_A7*%
X-45377500Y48225000D03*
%TO.P,U6,9,A8*%
%TO.N,/PIN_A12*%
X-45377500Y48875000D03*
%TO.P,U6,10,A9*%
%TO.N,/PIN_A15*%
X-45377500Y49525000D03*
%TO.P,U6,11,A10*%
%TO.N,/PIN_A16*%
X-45377500Y50175000D03*
%TO.P,U6,12,GND*%
%TO.N,GND*%
X-45377500Y50825000D03*
%TO.P,U6,13,~{OE2}*%
X-39652500Y50825000D03*
%TO.P,U6,14,Y10*%
%TO.N,/A16*%
X-39652500Y50175000D03*
%TO.P,U6,15,Y9*%
%TO.N,/A15*%
X-39652500Y49525000D03*
%TO.P,U6,16,Y8*%
%TO.N,/A12*%
X-39652500Y48875000D03*
%TO.P,U6,17,Y7*%
%TO.N,/A7*%
X-39652500Y48225000D03*
%TO.P,U6,18,Y6*%
%TO.N,/A6*%
X-39652500Y47575000D03*
%TO.P,U6,19,Y5*%
%TO.N,/A5*%
X-39652500Y46925000D03*
%TO.P,U6,20,Y4*%
%TO.N,/A4*%
X-39652500Y46275000D03*
%TO.P,U6,21,Y3*%
%TO.N,/A3*%
X-39652500Y45625000D03*
%TO.P,U6,22,Y2*%
%TO.N,/A2*%
X-39652500Y44975000D03*
%TO.P,U6,23,Y1*%
%TO.N,/A1*%
X-39652500Y44325000D03*
%TO.P,U6,24,VCC*%
%TO.N,+3V3*%
X-39652500Y43675000D03*
%TD*%
D18*
%TO.P,U8,1*%
%TO.N,/EXT_RESET_EN*%
X-35385000Y36330000D03*
%TO.P,U8,2*%
%TO.N,/EXT_RESET_VALUE*%
X-36335000Y36330000D03*
%TO.P,U8,3,GND*%
%TO.N,GND*%
X-37285000Y36330000D03*
%TO.P,U8,4*%
%TO.N,/EXT_RESET*%
X-37285000Y38630000D03*
%TO.P,U8,5,VCC*%
%TO.N,/VSYS*%
X-35385000Y38630000D03*
%TD*%
D15*
%TO.P,C20,1*%
%TO.N,+3V3*%
X-38185000Y43740000D03*
%TO.P,C20,2*%
%TO.N,GND*%
X-38185000Y44700000D03*
%TD*%
D14*
%TO.P,J3,1,Pin_1*%
%TO.N,unconnected-(J3-Pin_1-Pad1)*%
X-48205000Y55749000D03*
D13*
%TO.P,J3,2,Pin_2*%
%TO.N,/PIN_A16*%
X-48205000Y53209000D03*
%TO.P,J3,3,Pin_3*%
%TO.N,/PIN_A15*%
X-48205000Y50669000D03*
%TO.P,J3,4,Pin_4*%
%TO.N,/PIN_A12*%
X-48205000Y48129000D03*
%TO.P,J3,5,Pin_5*%
%TO.N,/PIN_A7*%
X-48205000Y45589000D03*
%TO.P,J3,6,Pin_6*%
%TO.N,/PIN_A6*%
X-48205000Y43049000D03*
%TO.P,J3,7,Pin_7*%
%TO.N,/PIN_A5*%
X-48205000Y40509000D03*
%TO.P,J3,8,Pin_8*%
%TO.N,/PIN_A4*%
X-48205000Y37969000D03*
%TO.P,J3,9,Pin_9*%
%TO.N,/PIN_A3*%
X-48205000Y35429000D03*
%TO.P,J3,10,Pin_10*%
%TO.N,/PIN_A2*%
X-48205000Y32889000D03*
%TO.P,J3,11,Pin_11*%
%TO.N,/PIN_A1*%
X-48205000Y30349000D03*
%TO.P,J3,12,Pin_12*%
%TO.N,/PIN_A0*%
X-48205000Y27809000D03*
%TO.P,J3,13,Pin_13*%
%TO.N,/PIN_D0*%
X-48205000Y25269000D03*
%TO.P,J3,14,Pin_14*%
%TO.N,/PIN_D1*%
X-48205000Y22729000D03*
%TO.P,J3,15,Pin_15*%
%TO.N,/PIN_D2*%
X-48205000Y20189000D03*
%TO.P,J3,16,Pin_16*%
%TO.N,GND*%
X-48205000Y17649000D03*
%TD*%
D19*
%TO.P,U5,1,~{OE1}*%
%TO.N,GND*%
X-39672500Y41455000D03*
%TO.P,U5,2,A1*%
%TO.N,/PIN_A17*%
X-39672500Y40805000D03*
%TO.P,U5,3,A2*%
%TO.N,/PIN_A14*%
X-39672500Y40155000D03*
%TO.P,U5,4,A3*%
%TO.N,/PIN_A13*%
X-39672500Y39505000D03*
%TO.P,U5,5,A4*%
%TO.N,/PIN_A8*%
X-39672500Y38855000D03*
%TO.P,U5,6,A5*%
%TO.N,/PIN_A9*%
X-39672500Y38205000D03*
%TO.P,U5,7,A6*%
%TO.N,/PIN_A11*%
X-39672500Y37555000D03*
%TO.P,U5,8,A7*%
%TO.N,/~{PIN_OE}*%
X-39672500Y36905000D03*
%TO.P,U5,9,A8*%
%TO.N,/PIN_A10*%
X-39672500Y36255000D03*
%TO.P,U5,10,A9*%
%TO.N,/~{PIN_CE}*%
X-39672500Y35605000D03*
%TO.P,U5,11,A10*%
%TO.N,/PIN_A0*%
X-39672500Y34955000D03*
%TO.P,U5,12,GND*%
%TO.N,GND*%
X-39672500Y34305000D03*
%TO.P,U5,13,~{OE2}*%
X-45397500Y34305000D03*
%TO.P,U5,14,Y10*%
%TO.N,/A0*%
X-45397500Y34955000D03*
%TO.P,U5,15,Y9*%
%TO.N,/~{CE}*%
X-45397500Y35605000D03*
%TO.P,U5,16,Y8*%
%TO.N,/A10*%
X-45397500Y36255000D03*
%TO.P,U5,17,Y7*%
%TO.N,/~{OE}*%
X-45397500Y36905000D03*
%TO.P,U5,18,Y6*%
%TO.N,/A11*%
X-45397500Y37555000D03*
%TO.P,U5,19,Y5*%
%TO.N,/A9*%
X-45397500Y38205000D03*
%TO.P,U5,20,Y4*%
%TO.N,/A8*%
X-45397500Y38855000D03*
%TO.P,U5,21,Y3*%
%TO.N,/A13*%
X-45397500Y39505000D03*
%TO.P,U5,22,Y2*%
%TO.N,/A14*%
X-45397500Y40155000D03*
%TO.P,U5,23,Y1*%
%TO.N,/A17*%
X-45397500Y40805000D03*
%TO.P,U5,24,VCC*%
%TO.N,+3V3*%
X-45397500Y41455000D03*
%TD*%
D20*
%TO.P,R6,1*%
%TO.N,GND*%
X-36405000Y56880000D03*
%TO.P,R6,2*%
%TO.N,Net-(J1-CC1)*%
X-36405000Y55920000D03*
%TD*%
D21*
%TO.P,C19,1*%
%TO.N,+3V3*%
X-45865000Y42570000D03*
%TO.P,C19,2*%
%TO.N,GND*%
X-44905000Y42570000D03*
%TD*%
D22*
%TO.P,U7,1,VCC*%
%TO.N,+3V3*%
X-37950000Y23755001D03*
D23*
%TO.P,U7,2,DIN*%
%TO.N,/IO_EXPAND*%
X-37950000Y24255000D03*
D22*
%TO.P,U7,3,GND*%
%TO.N,GND*%
X-37950000Y24754999D03*
D24*
%TO.P,U7,4,Q0*%
%TO.N,/EXT_RESET_EN*%
X-37315000Y24690000D03*
D22*
%TO.P,U7,5,Q1*%
%TO.N,/EXT_RESET_VALUE*%
X-36680000Y24754999D03*
D23*
%TO.P,U7,6,Q2*%
%TO.N,/INFO_LED1*%
X-36680000Y24255000D03*
D22*
%TO.P,U7,7,Q3*%
%TO.N,/INFO_LED2*%
X-36680000Y23755001D03*
D24*
%TO.P,U7,8,Q4*%
%TO.N,unconnected-(U7-Q4-Pad8)*%
X-37315000Y23820000D03*
%TD*%
D25*
%TO.N,GND*%
X-44095000Y45440000D03*
X-35305000Y23640000D03*
X-40105000Y51300000D03*
X-45165000Y31940000D03*
X-40365000Y42300000D03*
X-43425000Y38430000D03*
X-43545000Y46560000D03*
X-45195000Y25340000D03*
X-35695000Y26740000D03*
X-42615000Y21870000D03*
X-44675000Y43130000D03*
X-43645000Y53700000D03*
X-38395000Y46700000D03*
X-34725000Y28130000D03*
X-36245000Y39640000D03*
X-46305000Y52800000D03*
X-36855000Y35210000D03*
X-37325000Y32550000D03*
X-43545000Y46000000D03*
X-44055000Y47060000D03*
X-43505000Y47060000D03*
X-38535000Y45290000D03*
X-43425000Y22740000D03*
X-40585000Y21230000D03*
X-38495000Y33760000D03*
X-34785000Y29250000D03*
X-45365000Y33820000D03*
X-38405000Y46130000D03*
X-43505000Y37700000D03*
X-44085000Y46010000D03*
X-46145000Y20520000D03*
X-44345000Y32870000D03*
X-44055000Y46560000D03*
X-43545000Y45400000D03*
X-37305000Y55810000D03*
X-35935000Y32320000D03*
X-36225000Y31140000D03*
X-37945000Y25620000D03*
X-39637488Y21370857D03*
X-34705000Y52900000D03*
X-39805000Y20300000D03*
X-45005000Y51700000D03*
X-43635000Y55490000D03*
X-35755000Y56670000D03*
X-37265000Y53610000D03*
X-43815000Y44960000D03*
X-39895000Y21770000D03*
X-45141867Y43217537D03*
X-46205000Y51280000D03*
X-38535000Y47880000D03*
X-39455000Y33810000D03*
X-38415000Y47300000D03*
%TO.N,+3V3*%
X-42045000Y49260000D03*
X-45925000Y30260000D03*
X-35456686Y28048439D03*
X-37535000Y22670000D03*
X-43505000Y32500000D03*
X-46055000Y43150000D03*
X-36615000Y27320000D03*
X-40185000Y22770000D03*
X-41105000Y50210000D03*
X-41705000Y49600000D03*
X-43505000Y43400000D03*
X-38705000Y43390000D03*
X-41145000Y49470000D03*
X-36859222Y32456844D03*
X-44015000Y23310000D03*
X-37305000Y31230000D03*
X-41605000Y50810000D03*
X-43425000Y40400000D03*
X-41065000Y51260000D03*
X-35145000Y27690000D03*
X-40905000Y50710000D03*
%TO.N,Net-(J1-CC1)*%
X-38995000Y54610000D03*
%TO.N,/USB_D-*%
X-40575000Y53900000D03*
X-39755000Y54590000D03*
X-38305000Y51270000D03*
%TO.N,Net-(J1-CC2)*%
X-41305000Y54600000D03*
%TO.N,/A16*%
X-42485000Y25250000D03*
%TO.N,/A15*%
X-44395000Y27180000D03*
%TO.N,/A12*%
X-44136156Y28648224D03*
%TO.N,/A7*%
X-43675619Y29259655D03*
%TO.N,/A6*%
X-43200939Y29277154D03*
%TO.N,/A5*%
X-42835000Y29580000D03*
%TO.N,/A4*%
X-42415000Y29920000D03*
%TO.N,/A3*%
X-41115000Y30419994D03*
%TO.N,/A2*%
X-41115000Y30894997D03*
%TO.N,/A1*%
X-41115000Y31370000D03*
%TO.N,/A0*%
X-44455000Y34710000D03*
%TO.N,/A17*%
X-42225000Y23110000D03*
%TO.N,/A14*%
X-45923038Y26133331D03*
%TO.N,/A13*%
X-46225000Y26500000D03*
%TO.N,/A8*%
X-44575000Y28830000D03*
%TO.N,/A9*%
X-44985000Y28400000D03*
%TO.N,/A11*%
X-46513226Y29287977D03*
%TO.N,/~{OE}*%
X-44425000Y36630000D03*
X-47145000Y23570000D03*
X-41095000Y24860000D03*
%TO.N,/A10*%
X-46245000Y29680000D03*
%TO.N,/~{CE}*%
X-41175000Y25350000D03*
X-49235000Y24280000D03*
X-44455000Y35360000D03*
%TO.N,/PIN_A1*%
X-45925000Y32730000D03*
%TO.N,/PIN_A2*%
X-45225000Y32770000D03*
%TO.N,/PIN_A5*%
X-46415000Y46550000D03*
%TO.N,/~{BUF_OE}*%
X-40395000Y22310000D03*
X-35215000Y18920000D03*
%TO.N,/PIN_A3*%
X-46515000Y44840000D03*
%TO.N,/VSYS*%
X-34505000Y22500000D03*
%TO.N,/PIN_A4*%
X-46945000Y41780000D03*
%TO.N,/EXT_RESET*%
X-36885000Y39640000D03*
%TO.N,/INFO_LED2*%
X-45805000Y56400000D03*
%TO.N,/INFO_LED1*%
X-34005000Y27500000D03*
%TO.N,/IO_EXPAND*%
X-40885000Y23210000D03*
%TO.N,/EXT_RESET_VALUE*%
X-36095000Y32800000D03*
X-36384277Y35273611D03*
%TO.N,/EXT_RESET_EN*%
X-35971913Y33258778D03*
X-35895000Y35300000D03*
%TD*%
D26*
%TO.N,GND*%
X-44905000Y42900000D02*
X-44675000Y43130000D01*
X-44905000Y42570000D02*
X-44905000Y42900000D01*
X-35965000Y56880000D02*
X-35755000Y56670000D01*
X-39672500Y34027500D02*
X-39455000Y33810000D01*
X-37950000Y24754999D02*
X-37950000Y25615000D01*
X-39672500Y34305000D02*
X-39672500Y34027500D01*
X-36405000Y39800000D02*
X-36245000Y39640000D01*
X-45397500Y34305000D02*
X-45397500Y33852500D01*
X-45397500Y33852500D02*
X-45365000Y33820000D01*
X-45377500Y43675000D02*
X-45377500Y43453170D01*
X-38185000Y44940000D02*
X-38535000Y45290000D01*
X-39652500Y50847500D02*
X-40105000Y51300000D01*
X-39672500Y41455000D02*
X-39672500Y41607500D01*
X-37275000Y35630000D02*
X-36855000Y35210000D01*
X-44605000Y52200000D02*
X-44605000Y52100000D01*
X-45377500Y50825000D02*
X-45750000Y50825000D01*
X-37275000Y36300000D02*
X-37275000Y35630000D01*
X-36405000Y56880000D02*
X-35965000Y56880000D01*
X-38895000Y22113345D02*
X-39637488Y21370857D01*
X-38185000Y44700000D02*
X-38185000Y44940000D01*
X-45377500Y43453170D02*
X-45141867Y43217537D01*
X-37950000Y25615000D02*
X-37945000Y25620000D01*
X-44605000Y52100000D02*
X-45005000Y51700000D01*
X-39652500Y50825000D02*
X-39652500Y50847500D01*
X-39672500Y41607500D02*
X-40365000Y42300000D01*
X-36405000Y40310000D02*
X-36405000Y39800000D01*
X-38895000Y22210000D02*
X-38895000Y22113345D01*
X-45750000Y50825000D02*
X-46205000Y51280000D01*
%TO.N,+3V3*%
X-38355000Y43740000D02*
X-38705000Y43390000D01*
X-37935000Y23740001D02*
X-37950000Y23755001D01*
X-39652500Y43675000D02*
X-38250000Y43675000D01*
X-45865000Y42570000D02*
X-45865000Y41922500D01*
X-45865000Y42570000D02*
X-45865000Y42960000D01*
X-37935000Y22210000D02*
X-37935000Y22270000D01*
X-38185000Y43740000D02*
X-38355000Y43740000D01*
X-37935000Y22210000D02*
X-37935000Y23740001D01*
X-45865000Y41922500D02*
X-45397500Y41455000D01*
X-45865000Y42960000D02*
X-46055000Y43150000D01*
X-38250000Y43675000D02*
X-38185000Y43740000D01*
X-37935000Y22270000D02*
X-37535000Y22670000D01*
%TO.N,Net-(J1-CC1)*%
X-37715000Y54610000D02*
X-36405000Y55920000D01*
X-38995000Y54610000D02*
X-37715000Y54610000D01*
%TO.N,/USB_D-*%
X-39245000Y52970000D02*
X-39225000Y52950000D01*
X-39755000Y54590000D02*
X-39755000Y53480000D01*
X-39755000Y54590000D02*
X-39885000Y54590000D01*
X-39225000Y52190000D02*
X-38305000Y51270000D01*
X-39225000Y52950000D02*
X-39225000Y52190000D01*
X-39885000Y54590000D02*
X-40575000Y53900000D01*
X-39755000Y53480000D02*
X-39245000Y52970000D01*
%TO.N,Net-(J1-CC2)*%
X-44605000Y53160000D02*
X-43619314Y53160000D01*
X-42179314Y54600000D02*
X-41305000Y54600000D01*
X-43619314Y53160000D02*
X-42179314Y54600000D01*
%TO.N,/A16*%
X-42485000Y25250000D02*
X-43175000Y25940000D01*
X-43175000Y27171646D02*
X-40465000Y29881646D01*
X-40465000Y29881646D02*
X-40465000Y31639240D01*
X-40601446Y42740000D02*
X-38072088Y42740000D01*
X-43175000Y25940000D02*
X-43175000Y27171646D01*
X-38072088Y42740000D02*
X-37450000Y43362088D01*
X-39173320Y50175000D02*
X-39652500Y50175000D01*
X-37450000Y48451680D02*
X-39173320Y50175000D01*
X-40465000Y31639240D02*
X-40765000Y31939240D01*
X-40765000Y42576446D02*
X-40601446Y42740000D01*
X-37450000Y43362088D02*
X-37450000Y48451680D01*
X-40765000Y31939240D02*
X-40765000Y42576446D01*
%TO.N,/A15*%
X-37700000Y43465642D02*
X-38175642Y42990000D01*
X-40705000Y42990000D02*
X-41015000Y42680000D01*
X-40715000Y31535686D02*
X-40715000Y29985200D01*
X-38175642Y42990000D02*
X-40705000Y42990000D01*
X-37700000Y48051680D02*
X-37700000Y43465642D01*
X-39173320Y49525000D02*
X-37700000Y48051680D01*
X-43520200Y27180000D02*
X-44395000Y27180000D01*
X-41015000Y31835686D02*
X-40715000Y31535686D01*
X-41015000Y42680000D02*
X-41015000Y31835686D01*
X-40715000Y29985200D02*
X-43520200Y27180000D01*
X-39652500Y49525000D02*
X-39173320Y49525000D01*
%TO.N,/A12*%
X-40389999Y48875000D02*
X-43021777Y46243222D01*
X-39652500Y48875000D02*
X-40389999Y48875000D01*
X-43021777Y46243222D02*
X-43021777Y31220000D01*
X-44075619Y30166158D02*
X-44075619Y28708761D01*
X-44075619Y28708761D02*
X-44136156Y28648224D01*
X-43021777Y31220000D02*
X-44075619Y30166158D01*
%TO.N,/A7*%
X-42771777Y31106777D02*
X-43675619Y30202935D01*
X-40389999Y48225000D02*
X-42771777Y45843222D01*
X-42771777Y45843222D02*
X-42771777Y31106777D01*
X-43675619Y30202935D02*
X-43675619Y29259655D01*
X-39652500Y48225000D02*
X-40389999Y48225000D01*
%TO.N,/A6*%
X-42515000Y45449999D02*
X-42515000Y31010000D01*
X-43235000Y30290000D02*
X-43235000Y29311215D01*
X-40389999Y47575000D02*
X-42515000Y45449999D01*
X-43235000Y29311215D02*
X-43200939Y29277154D01*
X-39652500Y47575000D02*
X-40389999Y47575000D01*
X-42515000Y31010000D02*
X-43235000Y30290000D01*
%TO.N,/A5*%
X-40389999Y46925000D02*
X-42265000Y45049999D01*
X-42265000Y45049999D02*
X-42265000Y42530000D01*
X-42265000Y34560000D02*
X-42265000Y30450000D01*
X-39652500Y46925000D02*
X-40389999Y46925000D01*
X-42265000Y30450000D02*
X-42450686Y30450000D01*
X-42835000Y30065686D02*
X-42835000Y29580000D01*
X-42450686Y30450000D02*
X-42835000Y30065686D01*
X-42265000Y42530000D02*
X-42265000Y34560000D01*
%TO.N,/A4*%
X-42015000Y30320000D02*
X-42415000Y29920000D01*
X-42015000Y44649999D02*
X-42015000Y43510000D01*
X-39652500Y46275000D02*
X-40389999Y46275000D01*
X-42015000Y43510000D02*
X-42015000Y30320000D01*
X-40389999Y46275000D02*
X-42015000Y44649999D01*
%TO.N,/A3*%
X-41765000Y30979656D02*
X-41205338Y30419994D01*
X-39652500Y45625000D02*
X-40389999Y45625000D01*
X-41765000Y44249999D02*
X-41765000Y30979656D01*
X-40389999Y45625000D02*
X-41765000Y44249999D01*
X-41205338Y30419994D02*
X-41115000Y30419994D01*
%TO.N,/A2*%
X-41515000Y31204314D02*
X-41205683Y30894997D01*
X-40389999Y44975000D02*
X-41515000Y43849999D01*
X-41515000Y43849999D02*
X-41515000Y31204314D01*
X-39652500Y44975000D02*
X-40389999Y44975000D01*
X-41205683Y30894997D02*
X-41115000Y30894997D01*
%TO.N,/A1*%
X-40550000Y44325000D02*
X-41265000Y43610000D01*
X-39652500Y44325000D02*
X-40550000Y44325000D01*
X-41265000Y31520000D02*
X-41115000Y31370000D01*
X-41265000Y31990000D02*
X-41265000Y31520000D01*
X-41265000Y43260000D02*
X-41265000Y31990000D01*
X-41265000Y43610000D02*
X-41265000Y43260000D01*
%TO.N,/A0*%
X-45397500Y34955000D02*
X-44700000Y34955000D01*
X-44700000Y34955000D02*
X-44455000Y34710000D01*
%TO.N,/A17*%
X-49730000Y40433569D02*
X-49730000Y22795000D01*
X-48629569Y41534000D02*
X-49730000Y40433569D01*
X-49730000Y22795000D02*
X-48635000Y21700000D01*
X-47051431Y40805000D02*
X-47780431Y41534000D01*
X-45397500Y40805000D02*
X-47051431Y40805000D01*
X-48635000Y21700000D02*
X-43635000Y21700000D01*
X-47780431Y41534000D02*
X-48629569Y41534000D01*
X-43635000Y21700000D02*
X-42225000Y23110000D01*
%TO.N,/A14*%
X-49480000Y38497123D02*
X-49480000Y25094431D01*
X-46809999Y39480000D02*
X-48497123Y39480000D01*
X-47780431Y24244000D02*
X-45923038Y26101393D01*
X-46134999Y40155000D02*
X-46809999Y39480000D01*
X-48629569Y24244000D02*
X-47780431Y24244000D01*
X-45397500Y40155000D02*
X-46134999Y40155000D01*
X-49480000Y25094431D02*
X-48629569Y24244000D01*
X-48497123Y39480000D02*
X-49480000Y38497123D01*
X-45923038Y26101393D02*
X-45923038Y26133331D01*
%TO.N,/A13*%
X-49230000Y27384431D02*
X-48870284Y27024715D01*
X-48345569Y26500000D02*
X-46225000Y26500000D01*
X-45672500Y39230000D02*
X-48393569Y39230000D01*
X-49230000Y38393569D02*
X-49230000Y27384431D01*
X-48393569Y39230000D02*
X-49230000Y38393569D01*
X-48870284Y27024715D02*
X-48345569Y26500000D01*
X-45397500Y39505000D02*
X-45672500Y39230000D01*
%TO.N,/A8*%
X-47163226Y28998226D02*
X-46165000Y28000000D01*
X-47163226Y37826773D02*
X-47163226Y28998226D01*
X-44805000Y28000000D02*
X-44575000Y28230000D01*
X-44575000Y28230000D02*
X-44575000Y28830000D01*
X-46165000Y28000000D02*
X-44805000Y28000000D01*
X-45397500Y38855000D02*
X-46134999Y38855000D01*
X-46134999Y38855000D02*
X-47163226Y37826773D01*
%TO.N,/A9*%
X-45397500Y38205000D02*
X-46134999Y38205000D01*
X-46913226Y37426773D02*
X-46913226Y29122291D01*
X-46190935Y28400000D02*
X-44985000Y28400000D01*
X-46913226Y29122291D02*
X-46190935Y28400000D01*
X-46134999Y38205000D02*
X-46913226Y37426773D01*
%TO.N,/A11*%
X-45397500Y37555000D02*
X-46134999Y37555000D01*
X-46645000Y29419751D02*
X-46513226Y29287977D01*
X-46134999Y37555000D02*
X-46645000Y37044999D01*
X-46645000Y37044999D02*
X-46645000Y29419751D01*
%TO.N,/~{OE}*%
X-47145000Y23570000D02*
X-46971000Y23744000D01*
X-44700000Y36905000D02*
X-44425000Y36630000D01*
X-42211000Y23744000D02*
X-41095000Y24860000D01*
X-45397500Y36905000D02*
X-44700000Y36905000D01*
X-46971000Y23744000D02*
X-42211000Y23744000D01*
%TO.N,/A10*%
X-46325000Y36064999D02*
X-46325000Y29760000D01*
X-46325000Y29760000D02*
X-46245000Y29680000D01*
X-46134999Y36255000D02*
X-46325000Y36064999D01*
X-45397500Y36255000D02*
X-46134999Y36255000D01*
%TO.N,/~{CE}*%
X-48949000Y23994000D02*
X-42531000Y23994000D01*
X-44700000Y35605000D02*
X-44455000Y35360000D01*
X-45397500Y35605000D02*
X-44700000Y35605000D01*
X-49235000Y24280000D02*
X-48949000Y23994000D01*
X-42531000Y23994000D02*
X-41175000Y25350000D01*
%TO.N,/PIN_A12*%
X-48205000Y48129000D02*
X-47459000Y48875000D01*
X-47459000Y48875000D02*
X-45377500Y48875000D01*
%TO.N,/PIN_A1*%
X-45843320Y32730000D02*
X-45925000Y32730000D01*
X-44025000Y36990000D02*
X-44275000Y37240000D01*
X-44025000Y34548320D02*
X-45843320Y32730000D01*
X-44275000Y37240000D02*
X-44275000Y43701680D01*
X-44898320Y44325000D02*
X-45377500Y44325000D01*
X-44025000Y36990000D02*
X-44025000Y34548320D01*
X-44275000Y43701680D02*
X-44898320Y44325000D01*
%TO.N,/PIN_A6*%
X-48205000Y43049000D02*
X-47180000Y44074000D01*
X-45970000Y47575000D02*
X-45377500Y47575000D01*
X-47180000Y44074000D02*
X-47180000Y46365000D01*
X-47180000Y46365000D02*
X-45970000Y47575000D01*
%TO.N,/PIN_A2*%
X-43775000Y34220000D02*
X-45225000Y32770000D01*
X-43985000Y37330000D02*
X-43985000Y44061680D01*
X-43985000Y44061680D02*
X-44898320Y44975000D01*
X-43775000Y37120000D02*
X-43775000Y34220000D01*
X-43775000Y37120000D02*
X-43985000Y37330000D01*
X-44898320Y44975000D02*
X-45377500Y44975000D01*
%TO.N,/PIN_A15*%
X-48205000Y50669000D02*
X-47061000Y49525000D01*
X-47061000Y49525000D02*
X-45377500Y49525000D01*
%TO.N,/PIN_A16*%
X-48205000Y53209000D02*
X-48205000Y52523320D01*
X-45856680Y50175000D02*
X-45377500Y50175000D01*
X-48205000Y52523320D02*
X-45856680Y50175000D01*
%TO.N,/PIN_A5*%
X-46415000Y46550000D02*
X-46040000Y46925000D01*
X-46040000Y46925000D02*
X-45377500Y46925000D01*
%TO.N,/~{BUF_OE}*%
X-38990686Y18920000D02*
X-40205000Y20134314D01*
X-40185000Y21064314D02*
X-40185000Y21494314D01*
X-40185000Y21494314D02*
X-40395000Y21704314D01*
X-40205000Y20134314D02*
X-40205000Y21044314D01*
X-35215000Y18920000D02*
X-38990686Y18920000D01*
X-40205000Y21044314D02*
X-40185000Y21064314D01*
X-40395000Y21704314D02*
X-40395000Y22310000D01*
%TO.N,/PIN_A3*%
X-46515000Y44840000D02*
X-46515000Y45224999D01*
X-46114999Y45625000D02*
X-45377500Y45625000D01*
X-46515000Y45224999D02*
X-46114999Y45625000D01*
%TO.N,/VSYS*%
X-31455000Y54407000D02*
X-32766000Y55718000D01*
X-35445000Y40310000D02*
X-35445000Y38690000D01*
X-34252000Y41503000D02*
X-32752000Y41503000D01*
X-31455000Y42900000D02*
X-31455000Y54407000D01*
X-31455000Y42800000D02*
X-31455000Y42900000D01*
X-35445000Y40310000D02*
X-34252000Y41503000D01*
X-31455000Y25099431D02*
X-31455000Y42900000D01*
X-35445000Y38690000D02*
X-35385000Y38630000D01*
X-33282000Y23723000D02*
X-32831431Y23723000D01*
X-32752000Y41503000D02*
X-31455000Y42800000D01*
X-32831431Y23723000D02*
X-31455000Y25099431D01*
X-34505000Y22500000D02*
X-33282000Y23723000D01*
%TO.N,/PIN_A4*%
X-45377500Y46275000D02*
X-46114999Y46275000D01*
X-46930000Y45459999D02*
X-46930000Y41795000D01*
X-46114999Y46275000D02*
X-46930000Y45459999D01*
X-46930000Y41795000D02*
X-46945000Y41780000D01*
%TO.N,/PIN_A7*%
X-45856680Y48225000D02*
X-45377500Y48225000D01*
X-48205000Y45589000D02*
X-48205000Y45876680D01*
X-48205000Y45876680D02*
X-45856680Y48225000D01*
%TO.N,/PIN_A0*%
X-43439314Y24280000D02*
X-42813956Y24280000D01*
X-38095000Y28998956D02*
X-38095000Y33930000D01*
X-38095000Y33930000D02*
X-39120000Y34955000D01*
X-39120000Y34955000D02*
X-39672500Y34955000D01*
X-48205000Y27809000D02*
X-46968314Y27809000D01*
X-46968314Y27809000D02*
X-43439314Y24280000D01*
X-42813956Y24280000D02*
X-38095000Y28998956D01*
%TO.N,/PIN_A10*%
X-37234883Y34000117D02*
X-35794012Y34000117D01*
X-35794012Y34000117D02*
X-34651895Y32858000D01*
X-38649883Y35711563D02*
X-38649883Y35415117D01*
X-39193320Y36255000D02*
X-38649883Y35711563D01*
X-38649883Y35415117D02*
X-37234883Y34000117D01*
X-39672500Y36255000D02*
X-39193320Y36255000D01*
X-34651895Y32858000D02*
X-32766000Y32858000D01*
%TO.N,/PIN_A14*%
X-38605000Y40485001D02*
X-38605000Y40800000D01*
X-38935001Y40155000D02*
X-38605000Y40485001D01*
X-39672500Y40155000D02*
X-38935001Y40155000D01*
X-34155000Y43856446D02*
X-34155000Y46709000D01*
X-37605000Y41800000D02*
X-36211446Y41800000D01*
X-34155000Y46709000D02*
X-32766000Y48098000D01*
X-38605000Y40800000D02*
X-37605000Y41800000D01*
X-36211446Y41800000D02*
X-34155000Y43856446D01*
%TO.N,/~{PIN_CE}*%
X-35515000Y33367551D02*
X-35515000Y31440000D01*
X-39672500Y35605000D02*
X-39193320Y35605000D01*
X-34393000Y30318000D02*
X-32766000Y30318000D01*
X-35806227Y33658778D02*
X-35515000Y33367551D01*
X-39193320Y35605000D02*
X-37247098Y33658778D01*
X-35515000Y31440000D02*
X-34393000Y30318000D01*
X-37247098Y33658778D02*
X-35806227Y33658778D01*
%TO.N,/PIN_A17*%
X-34405000Y48999000D02*
X-32766000Y50638000D01*
X-36265000Y42100000D02*
X-34405000Y43960000D01*
X-37805000Y42100000D02*
X-36265000Y42100000D01*
X-34405000Y43960000D02*
X-34405000Y48999000D01*
X-39100000Y40805000D02*
X-37805000Y42100000D01*
X-39672500Y40805000D02*
X-39100000Y40805000D01*
%TO.N,/~{PIN_OE}*%
X-39672500Y36905000D02*
X-39193320Y36905000D01*
X-33913883Y34250117D02*
X-32766000Y35398000D01*
X-37131329Y34250117D02*
X-33913883Y34250117D01*
X-38343106Y35461894D02*
X-37131329Y34250117D01*
X-38343106Y35758340D02*
X-38343106Y35461894D01*
X-38684883Y36396563D02*
X-38684883Y36100117D01*
X-39193320Y36905000D02*
X-38684883Y36396563D01*
X-38684883Y36100117D02*
X-38343106Y35758340D01*
%TO.N,/PIN_A9*%
X-37573776Y37655000D02*
X-35096224Y37655000D01*
X-38123776Y38205000D02*
X-37573776Y37655000D01*
X-32766000Y39985224D02*
X-32766000Y40478000D01*
X-39672500Y38205000D02*
X-38123776Y38205000D01*
X-35096224Y37655000D02*
X-32766000Y39985224D01*
%TO.N,/PIN_A11*%
X-32766000Y37439000D02*
X-32766000Y37938000D01*
X-38935001Y37555000D02*
X-38093106Y36713105D01*
X-39672500Y37555000D02*
X-38935001Y37555000D01*
X-38093106Y35578106D02*
X-37315000Y34800000D01*
X-35405000Y34800000D02*
X-32766000Y37439000D01*
X-38093106Y36713105D02*
X-38093106Y35578106D01*
X-37315000Y34800000D02*
X-35405000Y34800000D01*
%TO.N,/PIN_A13*%
X-37501446Y41550000D02*
X-36107892Y41550000D01*
X-38278223Y40161778D02*
X-38278223Y40773223D01*
X-38278223Y40773223D02*
X-37501446Y41550000D01*
X-36107892Y41550000D02*
X-32766000Y44891892D01*
X-32766000Y44891892D02*
X-32766000Y45558000D01*
X-38935001Y39505000D02*
X-38278223Y40161778D01*
X-39672500Y39505000D02*
X-38935001Y39505000D01*
%TO.N,/PIN_A8*%
X-38001446Y40696446D02*
X-37397892Y41300000D01*
X-38001446Y40046874D02*
X-38001446Y40696446D01*
X-37397892Y41300000D02*
X-36004338Y41300000D01*
X-36004338Y41300000D02*
X-35857892Y41446447D01*
X-39193320Y38855000D02*
X-38001446Y40046874D01*
X-34286339Y43018000D02*
X-32766000Y43018000D01*
X-35857892Y41446447D02*
X-34286339Y43018000D01*
X-39672500Y38855000D02*
X-39193320Y38855000D01*
%TO.N,/EXT_RESET*%
X-36885000Y39640000D02*
X-36885000Y39030000D01*
X-36885000Y39030000D02*
X-37285000Y38630000D01*
%TO.N,/INFO_LED2*%
X-43205305Y56025000D02*
X-37680000Y56025000D01*
X-32514431Y21500000D02*
X-35605000Y21500000D01*
X-31205000Y55606569D02*
X-31205000Y22809431D01*
X-45805000Y56400000D02*
X-45760000Y56355000D01*
X-32341431Y56743000D02*
X-31205000Y55606569D01*
X-43535305Y56355000D02*
X-43205305Y56025000D01*
X-45760000Y56355000D02*
X-43535305Y56355000D01*
X-31205000Y22809431D02*
X-32514431Y21500000D01*
X-35400000Y55749314D02*
X-34406314Y56743000D01*
X-37680000Y56025000D02*
X-37327843Y56377157D01*
X-35605000Y21500000D02*
X-36680000Y22575000D01*
X-36027843Y56377157D02*
X-35400000Y55749314D01*
X-34406314Y56743000D02*
X-32341431Y56743000D01*
X-36680000Y22575000D02*
X-36680000Y23755001D01*
X-37327843Y56377157D02*
X-36027843Y56377157D01*
%TO.N,/INFO_LED1*%
X-34005000Y27500000D02*
X-34005000Y26509941D01*
X-36240059Y24255000D02*
X-36680000Y24255000D01*
X-34005000Y26509941D02*
X-33995059Y26500000D01*
X-33995059Y26500000D02*
X-36240059Y24255000D01*
%TO.N,/IO_EXPAND*%
X-40885000Y23210000D02*
X-40705000Y23210000D01*
X-40705000Y23210000D02*
X-39660000Y24255000D01*
X-39660000Y24255000D02*
X-37950000Y24255000D01*
%TO.N,/EXT_RESET_VALUE*%
X-36335000Y35322888D02*
X-36384277Y35273611D01*
X-36205000Y27850000D02*
X-36205000Y25229999D01*
X-36095000Y32800000D02*
X-36459222Y32435778D01*
X-36205000Y25229999D02*
X-36680000Y24754999D01*
X-36335000Y36330000D02*
X-36335000Y35322888D01*
X-36459222Y32435778D02*
X-36459222Y31939908D01*
X-35825000Y28230000D02*
X-36205000Y27850000D01*
X-35825000Y31305686D02*
X-35825000Y28230000D01*
X-36459222Y31939908D02*
X-35825000Y31305686D01*
%TO.N,/EXT_RESET_EN*%
X-37725000Y32715686D02*
X-37725000Y26000000D01*
X-37725000Y26000000D02*
X-37315000Y25590000D01*
X-35385000Y36330000D02*
X-35385000Y35810000D01*
X-35971913Y33258778D02*
X-37181908Y33258778D01*
X-37181908Y33258778D02*
X-37725000Y32715686D01*
X-35385000Y35810000D02*
X-35895000Y35300000D01*
X-37315000Y25590000D02*
X-37315000Y24690000D01*
%TD*%
M02*
