%TF.GenerationSoftware,KiCad,Pcbnew,7.0.5-0*%
%TF.CreationDate,2023-06-22T06:59:56+09:00*%
%TF.ProjectId,RP2040_minimal,52503230-3430-45f6-9d69-6e696d616c2e,REV1*%
%TF.SameCoordinates,Original*%
%TF.FileFunction,Copper,L1,Top*%
%TF.FilePolarity,Positive*%
%FSLAX46Y46*%
G04 Gerber Fmt 4.6, Leading zero omitted, Abs format (unit mm)*
G04 Created by KiCad (PCBNEW 7.0.5-0) date 2023-06-22 06:59:56*
%MOMM*%
%LPD*%
G01*
G04 APERTURE LIST*
G04 Aperture macros list*
%AMRoundRect*
0 Rectangle with rounded corners*
0 $1 Rounding radius*
0 $2 $3 $4 $5 $6 $7 $8 $9 X,Y pos of 4 corners*
0 Add a 4 corners polygon primitive as box body*
4,1,4,$2,$3,$4,$5,$6,$7,$8,$9,$2,$3,0*
0 Add four circle primitives for the rounded corners*
1,1,$1+$1,$2,$3*
1,1,$1+$1,$4,$5*
1,1,$1+$1,$6,$7*
1,1,$1+$1,$8,$9*
0 Add four rect primitives between the rounded corners*
20,1,$1+$1,$2,$3,$4,$5,0*
20,1,$1+$1,$4,$5,$6,$7,0*
20,1,$1+$1,$6,$7,$8,$9,0*
20,1,$1+$1,$8,$9,$2,$3,0*%
G04 Aperture macros list end*
%ADD10C,0.300000*%
%TA.AperFunction,NonConductor*%
%ADD11C,0.300000*%
%TD*%
%TA.AperFunction,NonConductor*%
%ADD12C,0.200000*%
%TD*%
%TA.AperFunction,SMDPad,CuDef*%
%ADD13RoundRect,0.140000X0.170000X-0.140000X0.170000X0.140000X-0.170000X0.140000X-0.170000X-0.140000X0*%
%TD*%
%TA.AperFunction,SMDPad,CuDef*%
%ADD14RoundRect,0.140000X-0.170000X0.140000X-0.170000X-0.140000X0.170000X-0.140000X0.170000X0.140000X0*%
%TD*%
%TA.AperFunction,SMDPad,CuDef*%
%ADD15R,2.000000X2.400000*%
%TD*%
%TA.AperFunction,SMDPad,CuDef*%
%ADD16RoundRect,0.050000X-0.387500X-0.050000X0.387500X-0.050000X0.387500X0.050000X-0.387500X0.050000X0*%
%TD*%
%TA.AperFunction,SMDPad,CuDef*%
%ADD17RoundRect,0.050000X-0.050000X-0.387500X0.050000X-0.387500X0.050000X0.387500X-0.050000X0.387500X0*%
%TD*%
%TA.AperFunction,ComponentPad*%
%ADD18C,0.600000*%
%TD*%
%TA.AperFunction,SMDPad,CuDef*%
%ADD19RoundRect,0.144000X-1.456000X-1.456000X1.456000X-1.456000X1.456000X1.456000X-1.456000X1.456000X0*%
%TD*%
%TA.AperFunction,SMDPad,CuDef*%
%ADD20RoundRect,0.150000X0.150000X-0.825000X0.150000X0.825000X-0.150000X0.825000X-0.150000X-0.825000X0*%
%TD*%
%TA.AperFunction,SMDPad,CuDef*%
%ADD21RoundRect,0.075000X-0.425000X0.075000X-0.425000X-0.075000X0.425000X-0.075000X0.425000X0.075000X0*%
%TD*%
%TA.AperFunction,ComponentPad*%
%ADD22C,1.100000*%
%TD*%
%TA.AperFunction,SMDPad,CuDef*%
%ADD23RoundRect,0.140000X-0.140000X-0.170000X0.140000X-0.170000X0.140000X0.170000X-0.140000X0.170000X0*%
%TD*%
%TA.AperFunction,SMDPad,CuDef*%
%ADD24RoundRect,0.150000X-0.150000X0.512500X-0.150000X-0.512500X0.150000X-0.512500X0.150000X0.512500X0*%
%TD*%
%TA.AperFunction,SMDPad,CuDef*%
%ADD25RoundRect,0.250000X0.250000X0.475000X-0.250000X0.475000X-0.250000X-0.475000X0.250000X-0.475000X0*%
%TD*%
%TA.AperFunction,SMDPad,CuDef*%
%ADD26RoundRect,0.140000X0.140000X0.170000X-0.140000X0.170000X-0.140000X-0.170000X0.140000X-0.170000X0*%
%TD*%
%TA.AperFunction,ComponentPad*%
%ADD27R,1.000000X1.000000*%
%TD*%
%TA.AperFunction,ComponentPad*%
%ADD28O,1.000000X1.000000*%
%TD*%
%TA.AperFunction,ComponentPad*%
%ADD29C,1.700000*%
%TD*%
%TA.AperFunction,ComponentPad*%
%ADD30O,1.700000X1.700000*%
%TD*%
%TA.AperFunction,ViaPad*%
%ADD31C,0.500000*%
%TD*%
%TA.AperFunction,Conductor*%
%ADD32C,0.300000*%
%TD*%
%TA.AperFunction,Conductor*%
%ADD33C,0.200000*%
%TD*%
%TA.AperFunction,Conductor*%
%ADD34C,0.150000*%
%TD*%
%TA.AperFunction,Conductor*%
%ADD35C,0.600000*%
%TD*%
%TA.AperFunction,Conductor*%
%ADD36C,0.800000*%
%TD*%
%TA.AperFunction,Conductor*%
%ADD37C,0.176500*%
%TD*%
%TA.AperFunction,Conductor*%
%ADD38C,0.175600*%
%TD*%
G04 APERTURE END LIST*
D10*
D11*
X-24415272Y30506716D02*
X-23415272Y30506716D01*
X-24986700Y30149574D02*
X-23915272Y29792431D01*
X-23915272Y29792431D02*
X-23915272Y30721002D01*
X-24772415Y31221002D02*
X-24843843Y31292430D01*
X-24843843Y31292430D02*
X-24915272Y31435287D01*
X-24915272Y31435287D02*
X-24915272Y31792430D01*
X-24915272Y31792430D02*
X-24843843Y31935287D01*
X-24843843Y31935287D02*
X-24772415Y32006716D01*
X-24772415Y32006716D02*
X-24629558Y32078145D01*
X-24629558Y32078145D02*
X-24486700Y32078145D01*
X-24486700Y32078145D02*
X-24272415Y32006716D01*
X-24272415Y32006716D02*
X-23415272Y31149573D01*
X-23415272Y31149573D02*
X-23415272Y32078145D01*
X-23558129Y32721001D02*
X-23486700Y32792430D01*
X-23486700Y32792430D02*
X-23415272Y32721001D01*
X-23415272Y32721001D02*
X-23486700Y32649573D01*
X-23486700Y32649573D02*
X-23558129Y32721001D01*
X-23558129Y32721001D02*
X-23415272Y32721001D01*
X-23415272Y34221002D02*
X-23415272Y33363859D01*
X-23415272Y33792430D02*
X-24915272Y33792430D01*
X-24915272Y33792430D02*
X-24700986Y33649573D01*
X-24700986Y33649573D02*
X-24558129Y33506716D01*
X-24558129Y33506716D02*
X-24486700Y33363859D01*
X-24915272Y35506715D02*
X-24915272Y35221001D01*
X-24915272Y35221001D02*
X-24843843Y35078144D01*
X-24843843Y35078144D02*
X-24772415Y35006715D01*
X-24772415Y35006715D02*
X-24558129Y34863858D01*
X-24558129Y34863858D02*
X-24272415Y34792430D01*
X-24272415Y34792430D02*
X-23700986Y34792430D01*
X-23700986Y34792430D02*
X-23558129Y34863858D01*
X-23558129Y34863858D02*
X-23486700Y34935287D01*
X-23486700Y34935287D02*
X-23415272Y35078144D01*
X-23415272Y35078144D02*
X-23415272Y35363858D01*
X-23415272Y35363858D02*
X-23486700Y35506715D01*
X-23486700Y35506715D02*
X-23558129Y35578144D01*
X-23558129Y35578144D02*
X-23700986Y35649573D01*
X-23700986Y35649573D02*
X-24058129Y35649573D01*
X-24058129Y35649573D02*
X-24200986Y35578144D01*
X-24200986Y35578144D02*
X-24272415Y35506715D01*
X-24272415Y35506715D02*
X-24343843Y35363858D01*
X-24343843Y35363858D02*
X-24343843Y35078144D01*
X-24343843Y35078144D02*
X-24272415Y34935287D01*
X-24272415Y34935287D02*
X-24200986Y34863858D01*
X-24200986Y34863858D02*
X-24058129Y34792430D01*
X-24415272Y36935286D02*
X-23415272Y36935286D01*
X-24986700Y36578144D02*
X-23915272Y36221001D01*
X-23915272Y36221001D02*
X-23915272Y37149572D01*
X-24915272Y38006715D02*
X-24915272Y38149572D01*
X-24915272Y38149572D02*
X-24843843Y38292429D01*
X-24843843Y38292429D02*
X-24772415Y38363857D01*
X-24772415Y38363857D02*
X-24629558Y38435286D01*
X-24629558Y38435286D02*
X-24343843Y38506715D01*
X-24343843Y38506715D02*
X-23986700Y38506715D01*
X-23986700Y38506715D02*
X-23700986Y38435286D01*
X-23700986Y38435286D02*
X-23558129Y38363857D01*
X-23558129Y38363857D02*
X-23486700Y38292429D01*
X-23486700Y38292429D02*
X-23415272Y38149572D01*
X-23415272Y38149572D02*
X-23415272Y38006715D01*
X-23415272Y38006715D02*
X-23486700Y37863857D01*
X-23486700Y37863857D02*
X-23558129Y37792429D01*
X-23558129Y37792429D02*
X-23700986Y37721000D01*
X-23700986Y37721000D02*
X-23986700Y37649572D01*
X-23986700Y37649572D02*
X-24343843Y37649572D01*
X-24343843Y37649572D02*
X-24629558Y37721000D01*
X-24629558Y37721000D02*
X-24772415Y37792429D01*
X-24772415Y37792429D02*
X-24843843Y37863857D01*
X-24843843Y37863857D02*
X-24915272Y38006715D01*
X-23415272Y40292428D02*
X-24415272Y40292428D01*
X-24272415Y40292428D02*
X-24343843Y40363857D01*
X-24343843Y40363857D02*
X-24415272Y40506714D01*
X-24415272Y40506714D02*
X-24415272Y40721000D01*
X-24415272Y40721000D02*
X-24343843Y40863857D01*
X-24343843Y40863857D02*
X-24200986Y40935285D01*
X-24200986Y40935285D02*
X-23415272Y40935285D01*
X-24200986Y40935285D02*
X-24343843Y41006714D01*
X-24343843Y41006714D02*
X-24415272Y41149571D01*
X-24415272Y41149571D02*
X-24415272Y41363857D01*
X-24415272Y41363857D02*
X-24343843Y41506714D01*
X-24343843Y41506714D02*
X-24200986Y41578143D01*
X-24200986Y41578143D02*
X-23415272Y41578143D01*
X-23415272Y42292428D02*
X-24415272Y42292428D01*
X-24272415Y42292428D02*
X-24343843Y42363857D01*
X-24343843Y42363857D02*
X-24415272Y42506714D01*
X-24415272Y42506714D02*
X-24415272Y42721000D01*
X-24415272Y42721000D02*
X-24343843Y42863857D01*
X-24343843Y42863857D02*
X-24200986Y42935285D01*
X-24200986Y42935285D02*
X-23415272Y42935285D01*
X-24200986Y42935285D02*
X-24343843Y43006714D01*
X-24343843Y43006714D02*
X-24415272Y43149571D01*
X-24415272Y43149571D02*
X-24415272Y43363857D01*
X-24415272Y43363857D02*
X-24343843Y43506714D01*
X-24343843Y43506714D02*
X-24200986Y43578143D01*
X-24200986Y43578143D02*
X-23415272Y43578143D01*
D12*
X-30201000Y15639000D02*
X-21707180Y15639000D01*
X-30201000Y57803000D02*
X-21707180Y57803000D01*
X-22293600Y15639000D02*
X-22293600Y57803000D01*
X-22293600Y15639000D02*
X-22293600Y57803000D01*
X-22293600Y15639000D02*
X-22880021Y16765504D01*
X-22293600Y15639000D02*
X-21707179Y16765504D01*
X-22293600Y57803000D02*
X-21707179Y56676496D01*
X-22293600Y57803000D02*
X-22880021Y56676496D01*
D13*
%TO.P,R7,1*%
%TO.N,GND*%
X-37280000Y45394000D03*
%TO.P,R7,2*%
%TO.N,Net-(J1-CC2)*%
X-37280000Y46354000D03*
%TD*%
D14*
%TO.P,C12,1*%
%TO.N,+3V3*%
X-38405000Y23029000D03*
%TO.P,C12,2*%
%TO.N,GND*%
X-38405000Y22069000D03*
%TD*%
D15*
%TO.P,Y1,1,1*%
%TO.N,/XIN*%
X-43308000Y18105000D03*
%TO.P,Y1,2,2*%
%TO.N,Net-(C3-Pad1)*%
X-39608000Y18105000D03*
%TD*%
D13*
%TO.P,C17,1*%
%TO.N,+3V3*%
X-41005000Y35269000D03*
%TO.P,C17,2*%
%TO.N,GND*%
X-41005000Y36229000D03*
%TD*%
D14*
%TO.P,R4,1*%
%TO.N,/USB_D-*%
X-37945000Y37429000D03*
%TO.P,R4,2*%
%TO.N,Net-(U3-USB_DM)*%
X-37945000Y36469000D03*
%TD*%
D16*
%TO.P,U3,1,IOVDD*%
%TO.N,+3V3*%
X-43742500Y31486500D03*
%TO.P,U3,2,GPIO0*%
%TO.N,/A0*%
X-43742500Y31086500D03*
%TO.P,U3,3,GPIO1*%
%TO.N,/A1*%
X-43742500Y30686500D03*
%TO.P,U3,4,GPIO2*%
%TO.N,/A2*%
X-43742500Y30286500D03*
%TO.P,U3,5,GPIO3*%
%TO.N,/A3*%
X-43742500Y29886500D03*
%TO.P,U3,6,GPIO4*%
%TO.N,/A4*%
X-43742500Y29486500D03*
%TO.P,U3,7,GPIO5*%
%TO.N,/A5*%
X-43742500Y29086500D03*
%TO.P,U3,8,GPIO6*%
%TO.N,/A6*%
X-43742500Y28686500D03*
%TO.P,U3,9,GPIO7*%
%TO.N,/A7*%
X-43742500Y28286500D03*
%TO.P,U3,10,IOVDD*%
%TO.N,+3V3*%
X-43742500Y27886500D03*
%TO.P,U3,11,GPIO8*%
%TO.N,/A8*%
X-43742500Y27486500D03*
%TO.P,U3,12,GPIO9*%
%TO.N,/A9*%
X-43742500Y27086500D03*
%TO.P,U3,13,GPIO10*%
%TO.N,/A10*%
X-43742500Y26686500D03*
%TO.P,U3,14,GPIO11*%
%TO.N,/A11*%
X-43742500Y26286500D03*
D17*
%TO.P,U3,15,GPIO12*%
%TO.N,/A12*%
X-42905000Y25449000D03*
%TO.P,U3,16,GPIO13*%
%TO.N,/A13*%
X-42505000Y25449000D03*
%TO.P,U3,17,GPIO14*%
%TO.N,/A14*%
X-42105000Y25449000D03*
%TO.P,U3,18,GPIO15*%
%TO.N,/A15*%
X-41705000Y25449000D03*
%TO.P,U3,19,TESTEN*%
%TO.N,GND*%
X-41305000Y25449000D03*
%TO.P,U3,20,XIN*%
%TO.N,/XIN*%
X-40905000Y25449000D03*
%TO.P,U3,21,XOUT*%
%TO.N,/XOUT*%
X-40505000Y25449000D03*
%TO.P,U3,22,IOVDD*%
%TO.N,+3V3*%
X-40105000Y25449000D03*
%TO.P,U3,23,DVDD*%
%TO.N,+1V1*%
X-39705000Y25449000D03*
%TO.P,U3,24,SWCLK*%
%TO.N,/SWCLK*%
X-39305000Y25449000D03*
%TO.P,U3,25,SWD*%
%TO.N,/SWD*%
X-38905000Y25449000D03*
%TO.P,U3,26,RUN*%
%TO.N,/RUN*%
X-38505000Y25449000D03*
%TO.P,U3,27,GPIO16*%
%TO.N,/A16*%
X-38105000Y25449000D03*
%TO.P,U3,28,GPIO17*%
%TO.N,/A17*%
X-37705000Y25449000D03*
D16*
%TO.P,U3,29,GPIO18*%
%TO.N,/A18*%
X-36867500Y26286500D03*
%TO.P,U3,30,GPIO19*%
%TO.N,/A19*%
X-36867500Y26686500D03*
%TO.P,U3,31,GPIO20*%
%TO.N,/~{OE}*%
X-36867500Y27086500D03*
%TO.P,U3,32,GPIO21*%
%TO.N,/~{CE}*%
X-36867500Y27486500D03*
%TO.P,U3,33,IOVDD*%
%TO.N,+3V3*%
X-36867500Y27886500D03*
%TO.P,U3,34,GPIO22*%
%TO.N,/D0*%
X-36867500Y28286500D03*
%TO.P,U3,35,GPIO23*%
%TO.N,/D1*%
X-36867500Y28686500D03*
%TO.P,U3,36,GPIO24*%
%TO.N,/D2*%
X-36867500Y29086500D03*
%TO.P,U3,37,GPIO25*%
%TO.N,/D3*%
X-36867500Y29486500D03*
%TO.P,U3,38,GPIO26_ADC0*%
%TO.N,/D4*%
X-36867500Y29886500D03*
%TO.P,U3,39,GPIO27_ADC1*%
%TO.N,/D5*%
X-36867500Y30286500D03*
%TO.P,U3,40,GPIO28_ADC2*%
%TO.N,/D6*%
X-36867500Y30686500D03*
%TO.P,U3,41,GPIO29_ADC3*%
%TO.N,/D7*%
X-36867500Y31086500D03*
%TO.P,U3,42,IOVDD*%
%TO.N,+3V3*%
X-36867500Y31486500D03*
D17*
%TO.P,U3,43,ADC_AVDD*%
X-37705000Y32324000D03*
%TO.P,U3,44,VREG_IN*%
X-38105000Y32324000D03*
%TO.P,U3,45,VREG_VOUT*%
%TO.N,+1V1*%
X-38505000Y32324000D03*
%TO.P,U3,46,USB_DM*%
%TO.N,Net-(U3-USB_DM)*%
X-38905000Y32324000D03*
%TO.P,U3,47,USB_DP*%
%TO.N,Net-(U3-USB_DP)*%
X-39305000Y32324000D03*
%TO.P,U3,48,USB_VDD*%
%TO.N,+3V3*%
X-39705000Y32324000D03*
%TO.P,U3,49,IOVDD*%
X-40105000Y32324000D03*
%TO.P,U3,50,DVDD*%
%TO.N,+1V1*%
X-40505000Y32324000D03*
%TO.P,U3,51,QSPI_SD3*%
%TO.N,/QSPI_SD3*%
X-40905000Y32324000D03*
%TO.P,U3,52,QSPI_SCLK*%
%TO.N,/QSPI_SCLK*%
X-41305000Y32324000D03*
%TO.P,U3,53,QSPI_SD0*%
%TO.N,/QSPI_SD0*%
X-41705000Y32324000D03*
%TO.P,U3,54,QSPI_SD2*%
%TO.N,/QSPI_SD2*%
X-42105000Y32324000D03*
%TO.P,U3,55,QSPI_SD1*%
%TO.N,/QSPI_SD1*%
X-42505000Y32324000D03*
%TO.P,U3,56,QSPI_SS*%
%TO.N,/QSPI_SS*%
X-42905000Y32324000D03*
D18*
%TO.P,U3,57,GND*%
%TO.N,GND*%
X-41580000Y30161500D03*
X-41580000Y28886500D03*
X-41580000Y27611500D03*
X-40305000Y30161500D03*
X-40305000Y28886500D03*
D19*
X-40305000Y28886500D03*
D18*
X-40305000Y27611500D03*
X-39030000Y30161500D03*
X-39030000Y28886500D03*
X-39030000Y27611500D03*
%TD*%
D14*
%TO.P,R5,1*%
%TO.N,/XOUT*%
X-40557000Y23039000D03*
%TO.P,R5,2*%
%TO.N,Net-(C3-Pad1)*%
X-40557000Y22079000D03*
%TD*%
D20*
%TO.P,U2,1,~{CS}*%
%TO.N,/QSPI_SS*%
X-43210000Y40274000D03*
%TO.P,U2,2,DO(IO1)*%
%TO.N,/QSPI_SD1*%
X-41940000Y40274000D03*
%TO.P,U2,3,IO2*%
%TO.N,/QSPI_SD2*%
X-40670000Y40274000D03*
%TO.P,U2,4,GND*%
%TO.N,GND*%
X-39400000Y40274000D03*
%TO.P,U2,5,DI(IO0)*%
%TO.N,/QSPI_SD0*%
X-39400000Y45224000D03*
%TO.P,U2,6,CLK*%
%TO.N,/QSPI_SCLK*%
X-40670000Y45224000D03*
%TO.P,U2,7,IO3*%
%TO.N,/QSPI_SD3*%
X-41940000Y45224000D03*
%TO.P,U2,8,VCC*%
%TO.N,+3V3*%
X-43210000Y45224000D03*
%TD*%
D13*
%TO.P,C10,1*%
%TO.N,+3V3*%
X-40005000Y35269000D03*
%TO.P,C10,2*%
%TO.N,GND*%
X-40005000Y36229000D03*
%TD*%
D21*
%TO.P,J1,A1,GND*%
%TO.N,GND*%
X-38180000Y55229000D03*
%TO.P,J1,A4,VBUS*%
%TO.N,VBUS*%
X-38180000Y54439000D03*
%TO.P,J1,A5,CC1*%
%TO.N,Net-(J1-CC1)*%
X-38180000Y53649000D03*
%TO.P,J1,A6,D+*%
%TO.N,/USB_D+*%
X-38180000Y52859000D03*
%TO.P,J1,A7,D-*%
%TO.N,/USB_D-*%
X-38180000Y52069000D03*
%TO.P,J1,A8,SBU1*%
%TO.N,unconnected-(J1-SBU1-PadA8)*%
X-38180000Y51279000D03*
%TO.P,J1,A9,VBUS*%
%TO.N,VBUS*%
X-38180000Y50489000D03*
%TO.P,J1,A12,GND*%
%TO.N,GND*%
X-38180000Y49699000D03*
%TO.P,J1,B1,GND*%
X-39700000Y49699000D03*
%TO.P,J1,B4,VBUS*%
%TO.N,VBUS*%
X-39700000Y50489000D03*
%TO.P,J1,B5,CC2*%
%TO.N,Net-(J1-CC2)*%
X-39700000Y51279000D03*
%TO.P,J1,B6,D+*%
%TO.N,/USB_D+*%
X-39700000Y52069000D03*
%TO.P,J1,B7,D-*%
%TO.N,/USB_D-*%
X-39700000Y52859000D03*
%TO.P,J1,B8,SBU2*%
%TO.N,unconnected-(J1-SBU2-PadB8)*%
X-39700000Y53649000D03*
%TO.P,J1,B9,VBUS*%
%TO.N,VBUS*%
X-39700000Y54439000D03*
%TO.P,J1,B12,GND*%
%TO.N,GND*%
X-39700000Y55229000D03*
D22*
%TO.P,J1,S1,SHIELD*%
X-36790000Y54849000D03*
X-41090000Y54849000D03*
X-36790000Y50049000D03*
X-41090000Y50049000D03*
%TD*%
D13*
%TO.P,C8,1*%
%TO.N,+1V1*%
X-38205000Y34069000D03*
%TO.P,C8,2*%
%TO.N,GND*%
X-38205000Y35029000D03*
%TD*%
D23*
%TO.P,C3,1*%
%TO.N,Net-(C3-Pad1)*%
X-40605000Y20849000D03*
%TO.P,C3,2*%
%TO.N,GND*%
X-39645000Y20849000D03*
%TD*%
D24*
%TO.P,U1,1,VIN*%
%TO.N,VBUS*%
X-43055000Y53776500D03*
%TO.P,U1,2,GND*%
%TO.N,GND*%
X-44005000Y53776500D03*
%TO.P,U1,3,EN*%
%TO.N,VBUS*%
X-44955000Y53776500D03*
%TO.P,U1,4,NC*%
%TO.N,unconnected-(U1-NC-Pad4)*%
X-44955000Y51501500D03*
%TO.P,U1,5,VOUT*%
%TO.N,+3V3*%
X-43055000Y51501500D03*
%TD*%
D25*
%TO.P,C4,1*%
%TO.N,+3V3*%
X-43055000Y48829000D03*
%TO.P,C4,2*%
%TO.N,GND*%
X-44955000Y48829000D03*
%TD*%
D14*
%TO.P,C13,1*%
%TO.N,+3V3*%
X-35415000Y23919000D03*
%TO.P,C13,2*%
%TO.N,GND*%
X-35415000Y22959000D03*
%TD*%
D13*
%TO.P,C9,1*%
%TO.N,+3V3*%
X-45305000Y34049000D03*
%TO.P,C9,2*%
%TO.N,GND*%
X-45305000Y35009000D03*
%TD*%
D14*
%TO.P,C11,1*%
%TO.N,+3V3*%
X-45905000Y27829000D03*
%TO.P,C11,2*%
%TO.N,GND*%
X-45905000Y26869000D03*
%TD*%
%TO.P,R6,1*%
%TO.N,GND*%
X-35155000Y54754000D03*
%TO.P,R6,2*%
%TO.N,Net-(J1-CC1)*%
X-35155000Y53794000D03*
%TD*%
D13*
%TO.P,R1,1*%
%TO.N,/QSPI_SS*%
X-44555000Y42669000D03*
%TO.P,R1,2*%
%TO.N,/~{USB_BOOT}*%
X-44555000Y43629000D03*
%TD*%
%TO.P,C15,1*%
%TO.N,+3V3*%
X-36205000Y34069000D03*
%TO.P,C15,2*%
%TO.N,GND*%
X-36205000Y35029000D03*
%TD*%
%TO.P,C16,1*%
%TO.N,+3V3*%
X-37205000Y34069000D03*
%TO.P,C16,2*%
%TO.N,GND*%
X-37205000Y35029000D03*
%TD*%
D23*
%TO.P,C2,1*%
%TO.N,/XIN*%
X-43373400Y20828600D03*
%TO.P,C2,2*%
%TO.N,GND*%
X-42413400Y20828600D03*
%TD*%
D13*
%TO.P,C7,1*%
%TO.N,+1V1*%
X-42005000Y35269000D03*
%TO.P,C7,2*%
%TO.N,GND*%
X-42005000Y36229000D03*
%TD*%
D26*
%TO.P,C5,1*%
%TO.N,+3V3*%
X-45025000Y47049000D03*
%TO.P,C5,2*%
%TO.N,GND*%
X-45985000Y47049000D03*
%TD*%
D25*
%TO.P,C1,1*%
%TO.N,VBUS*%
X-43055000Y56449000D03*
%TO.P,C1,2*%
%TO.N,GND*%
X-44955000Y56449000D03*
%TD*%
D14*
%TO.P,C6,1*%
%TO.N,+1V1*%
X-37405000Y23029000D03*
%TO.P,C6,2*%
%TO.N,GND*%
X-37405000Y22069000D03*
%TD*%
D13*
%TO.P,C14,1*%
%TO.N,+3V3*%
X-35205000Y34069000D03*
%TO.P,C14,2*%
%TO.N,GND*%
X-35205000Y35029000D03*
%TD*%
D14*
%TO.P,R3,1*%
%TO.N,/USB_D+*%
X-38945000Y37429000D03*
%TO.P,R3,2*%
%TO.N,Net-(U3-USB_DP)*%
X-38945000Y36469000D03*
%TD*%
D27*
%TO.P,J2,1,Pin_1*%
%TO.N,/~{USB_BOOT}*%
X-36885000Y42279000D03*
D28*
%TO.P,J2,2,Pin_2*%
%TO.N,GND*%
X-36885000Y43549000D03*
%TD*%
D29*
%TO.P,J4,1,Pin_1*%
%TO.N,unconnected-(J4-Pin_1-Pad1)*%
X-32766000Y55718000D03*
D30*
%TO.P,J4,2,Pin_2*%
%TO.N,/A18*%
X-32766000Y53178000D03*
%TO.P,J4,3,Pin_3*%
%TO.N,/A17*%
X-32766000Y50638000D03*
%TO.P,J4,4,Pin_4*%
%TO.N,/A14*%
X-32766000Y48098000D03*
%TO.P,J4,5,Pin_5*%
%TO.N,/A13*%
X-32766000Y45558000D03*
%TO.P,J4,6,Pin_6*%
%TO.N,/A8*%
X-32766000Y43018000D03*
%TO.P,J4,7,Pin_7*%
%TO.N,/A9*%
X-32766000Y40478000D03*
%TO.P,J4,8,Pin_8*%
%TO.N,/A11*%
X-32766000Y37938000D03*
%TO.P,J4,9,Pin_9*%
%TO.N,/~{OE}*%
X-32766000Y35398000D03*
%TO.P,J4,10,Pin_10*%
%TO.N,/A10*%
X-32766000Y32858000D03*
%TO.P,J4,11,Pin_11*%
%TO.N,/~{CE}*%
X-32766000Y30318000D03*
%TO.P,J4,12,Pin_12*%
%TO.N,/D7*%
X-32766000Y27778000D03*
%TO.P,J4,13,Pin_13*%
%TO.N,/D6*%
X-32766000Y25238000D03*
%TO.P,J4,14,Pin_14*%
%TO.N,/D5*%
X-32766000Y22698000D03*
%TO.P,J4,15,Pin_15*%
%TO.N,/D4*%
X-32766000Y20158000D03*
%TO.P,J4,16,Pin_16*%
%TO.N,/D3*%
X-32766000Y17618000D03*
%TD*%
D29*
%TO.P,J3,1,Pin_1*%
%TO.N,/A19*%
X-48205000Y55749000D03*
D30*
%TO.P,J3,2,Pin_2*%
%TO.N,/A16*%
X-48205000Y53209000D03*
%TO.P,J3,3,Pin_3*%
%TO.N,/A15*%
X-48205000Y50669000D03*
%TO.P,J3,4,Pin_4*%
%TO.N,/A12*%
X-48205000Y48129000D03*
%TO.P,J3,5,Pin_5*%
%TO.N,/A7*%
X-48205000Y45589000D03*
%TO.P,J3,6,Pin_6*%
%TO.N,/A6*%
X-48205000Y43049000D03*
%TO.P,J3,7,Pin_7*%
%TO.N,/A5*%
X-48205000Y40509000D03*
%TO.P,J3,8,Pin_8*%
%TO.N,/A4*%
X-48205000Y37969000D03*
%TO.P,J3,9,Pin_9*%
%TO.N,/A3*%
X-48205000Y35429000D03*
%TO.P,J3,10,Pin_10*%
%TO.N,/A2*%
X-48205000Y32889000D03*
%TO.P,J3,11,Pin_11*%
%TO.N,/A1*%
X-48205000Y30349000D03*
%TO.P,J3,12,Pin_12*%
%TO.N,/A0*%
X-48205000Y27809000D03*
%TO.P,J3,13,Pin_13*%
%TO.N,/D0*%
X-48205000Y25269000D03*
%TO.P,J3,14,Pin_14*%
%TO.N,/D1*%
X-48205000Y22729000D03*
%TO.P,J3,15,Pin_15*%
%TO.N,/D2*%
X-48205000Y20189000D03*
%TO.P,J3,16,Pin_16*%
%TO.N,GND*%
X-48205000Y17649000D03*
%TD*%
D31*
%TO.N,GND*%
X-40005000Y36849000D03*
X-44460000Y54765000D03*
X-38405000Y21349000D03*
X-38885000Y20825000D03*
X-42060000Y21587000D03*
X-39399500Y41649000D03*
X-45905000Y26051000D03*
X-41005000Y36849000D03*
X-41605000Y36849000D03*
X-45984000Y49558000D03*
X-45305000Y35827000D03*
X-35415000Y22289000D03*
X-45984000Y48288000D03*
X-45412534Y55395233D03*
X-37105000Y35749000D03*
X-37405000Y21349000D03*
X-45984000Y48923000D03*
X-41305000Y26399000D03*
X-44206000Y55400000D03*
X-36205000Y35749000D03*
X-43825000Y54892000D03*
%TO.N,+3V3*%
X-43190000Y47526000D03*
X-35205000Y33349000D03*
X-45305000Y33287000D03*
X-36205000Y33349000D03*
X-35415000Y24689000D03*
X-40105000Y33749000D03*
X-45905000Y28591000D03*
X-43825000Y47526000D03*
X-39705000Y33249000D03*
X-42555000Y47526000D03*
X-39105000Y23049000D03*
%TO.N,/~{USB_BOOT}*%
X-40845000Y42279000D03*
%TO.N,/A19*%
X-46555000Y19769000D03*
X-36185000Y25799000D03*
%TO.N,/A16*%
X-45065000Y18269000D03*
%TO.N,/A15*%
X-45235000Y18989000D03*
%TO.N,/A7*%
X-44895000Y28369000D03*
%TO.N,/A6*%
X-44788222Y29009665D03*
%TO.N,/A5*%
X-44886941Y29651622D03*
%TO.N,/A4*%
X-45905000Y37489000D03*
%TO.N,/A3*%
X-44907246Y30300807D03*
%TO.N,/A2*%
X-45395966Y30728599D03*
%TO.N,/A1*%
X-45895000Y30229000D03*
%TO.N,/A0*%
X-46435419Y29868721D03*
%TO.N,/D0*%
X-39230500Y26374500D03*
%TO.N,/D1*%
X-38005885Y28245570D03*
%TO.N,/D2*%
X-37704500Y29499000D03*
%TO.N,/A14*%
X-36635000Y16999000D03*
%TO.N,/A13*%
X-35915000Y17039000D03*
%TO.N,/A8*%
X-44625000Y44769000D03*
%TO.N,/A9*%
X-45995000Y44129000D03*
%TO.N,/A11*%
X-42835000Y28089000D03*
%TO.N,/~{OE}*%
X-35105000Y31699000D03*
X-36043801Y26941299D03*
%TO.N,/A10*%
X-42905000Y27329000D03*
%TO.N,/~{CE}*%
X-35555000Y27369000D03*
%TO.N,/D3*%
X-34455000Y19249000D03*
%TD*%
D32*
%TO.N,GND*%
X-44005000Y54310000D02*
X-44460000Y54765000D01*
X-42413400Y21233600D02*
X-42060000Y21587000D01*
X-42005000Y36229000D02*
X-42005000Y36449000D01*
X-38180000Y49699000D02*
X-37140000Y49699000D01*
X-45049000Y48923000D02*
X-44955000Y48829000D01*
D33*
X-45985000Y47049000D02*
X-45985000Y48287000D01*
D32*
X-42413400Y20828600D02*
X-42413400Y21233600D01*
X-44955000Y56449000D02*
X-44955000Y55852767D01*
D34*
X-37280000Y45394000D02*
X-36885000Y44999000D01*
X-35155000Y54754000D02*
X-35250000Y54849000D01*
D32*
X-45984000Y48288000D02*
X-45496000Y48288000D01*
X-40740000Y49699000D02*
X-41090000Y50049000D01*
X-35415000Y22959000D02*
X-35415000Y22289000D01*
X-45905000Y26869000D02*
X-45905000Y26051000D01*
X-42005000Y36449000D02*
X-41605000Y36849000D01*
X-44005000Y54712000D02*
X-43825000Y54892000D01*
X-38405000Y22069000D02*
X-38405000Y21349000D01*
X-37170000Y55229000D02*
X-36790000Y54849000D01*
X-36205000Y35029000D02*
X-36205000Y35749000D01*
X-45684000Y49558000D02*
X-44955000Y48829000D01*
D34*
X-35250000Y54849000D02*
X-36790000Y54849000D01*
D33*
X-41305000Y25449000D02*
X-41305000Y26399000D01*
D32*
X-45984000Y49558000D02*
X-45684000Y49558000D01*
X-44955000Y56449000D02*
X-44955000Y56149000D01*
X-38909000Y20849000D02*
X-38885000Y20825000D01*
X-37205000Y35649000D02*
X-37105000Y35749000D01*
D34*
X-36885000Y44999000D02*
X-36885000Y43549000D01*
D32*
X-40005000Y36229000D02*
X-40005000Y36849000D01*
X-39400000Y40274000D02*
X-39400000Y41648500D01*
X-44955000Y55852767D02*
X-45412534Y55395233D01*
X-44005000Y53776500D02*
X-44005000Y54712000D01*
X-45305000Y35009000D02*
X-45305000Y35827000D01*
X-39700000Y49699000D02*
X-40740000Y49699000D01*
X-38205000Y35029000D02*
X-35205000Y35029000D01*
X-44955000Y56149000D02*
X-44206000Y55400000D01*
D33*
X-45985000Y48287000D02*
X-45984000Y48288000D01*
D32*
X-39700000Y55229000D02*
X-40710000Y55229000D01*
X-40710000Y55229000D02*
X-41090000Y54849000D01*
X-37140000Y49699000D02*
X-36790000Y50049000D01*
X-44005000Y53776500D02*
X-44005000Y54310000D01*
X-39645000Y20849000D02*
X-38909000Y20849000D01*
X-45984000Y48923000D02*
X-45049000Y48923000D01*
X-39400000Y41648500D02*
X-39399500Y41649000D01*
X-38180000Y55229000D02*
X-37170000Y55229000D01*
X-37405000Y22069000D02*
X-37405000Y21349000D01*
X-45496000Y48288000D02*
X-44955000Y48829000D01*
X-41005000Y36229000D02*
X-41005000Y36849000D01*
X-37205000Y35029000D02*
X-37205000Y35649000D01*
%TO.N,VBUS*%
X-40455000Y53574000D02*
X-42852500Y53574000D01*
X-39869619Y50489000D02*
X-40455000Y51074381D01*
X-39535000Y50324000D02*
X-38345000Y50324000D01*
D35*
X-43606472Y52664000D02*
X-44518000Y52664000D01*
D32*
X-38180000Y54439000D02*
X-39700000Y54439000D01*
X-42852500Y53574000D02*
X-43055000Y53776500D01*
D35*
X-44518000Y52664000D02*
X-44955000Y53101000D01*
D32*
X-40455000Y51074381D02*
X-40455000Y53574000D01*
D35*
X-43055000Y53776500D02*
X-43055000Y53215472D01*
D32*
X-39700000Y50489000D02*
X-39535000Y50324000D01*
X-39700000Y50489000D02*
X-39869619Y50489000D01*
X-40455000Y53574000D02*
X-40455000Y53853619D01*
X-42977881Y53853619D02*
X-43055000Y53776500D01*
X-39869619Y54439000D02*
X-39700000Y54439000D01*
X-40455000Y53853619D02*
X-39869619Y54439000D01*
X-38345000Y50324000D02*
X-38180000Y50489000D01*
D35*
X-44955000Y53101000D02*
X-44955000Y53776500D01*
X-43055000Y56449000D02*
X-43055000Y53776500D01*
X-43055000Y53215472D02*
X-43606472Y52664000D01*
D32*
X-40455000Y53853619D02*
X-42977881Y53853619D01*
D36*
%TO.N,/XIN*%
X-43373400Y20828600D02*
X-43373400Y18170400D01*
X-43373400Y18170400D02*
X-43308000Y18105000D01*
D34*
X-40905000Y25449000D02*
X-40905000Y24299000D01*
X-40905000Y24299000D02*
X-43373400Y21830600D01*
X-43373400Y21830600D02*
X-43373400Y20828600D01*
%TO.N,/XOUT*%
X-40557000Y23039000D02*
X-40557000Y25397000D01*
X-40557000Y25397000D02*
X-40505000Y25449000D01*
%TO.N,+3V3*%
X-40105000Y24729000D02*
X-38405000Y23029000D01*
D32*
X-42555000Y48329000D02*
X-43055000Y48829000D01*
D34*
X-43742500Y27886500D02*
X-45847500Y27886500D01*
X-37305000Y33349000D02*
X-36925000Y33349000D01*
X-39705000Y34969000D02*
X-40005000Y35269000D01*
X-45305000Y33287000D02*
X-43742500Y31724500D01*
X-37705000Y32324000D02*
X-37705000Y32949000D01*
D32*
X-35205000Y34069000D02*
X-37205000Y34069000D01*
D34*
X-45905000Y27829000D02*
X-45905000Y28591000D01*
X-35392500Y27886500D02*
X-35069528Y27563528D01*
D32*
X-36205000Y33349000D02*
X-36205000Y34069000D01*
X-35205000Y34069000D02*
X-35205000Y33349000D01*
D34*
X-39705000Y32324000D02*
X-39705000Y34969000D01*
D32*
X-43190000Y48694000D02*
X-43055000Y48829000D01*
D34*
X-35069528Y27563528D02*
X-35069528Y25034472D01*
D32*
X-45025000Y47039000D02*
X-43210000Y45224000D01*
X-45025000Y47049000D02*
X-45025000Y47039000D01*
X-43825000Y48059000D02*
X-43055000Y48829000D01*
D34*
X-36925000Y33349000D02*
X-36205000Y34069000D01*
X-36867500Y31486500D02*
X-36867500Y31686500D01*
D32*
X-42555000Y47526000D02*
X-42555000Y48329000D01*
D34*
X-45847500Y27886500D02*
X-45905000Y27829000D01*
X-36867500Y31686500D02*
X-35205000Y33349000D01*
D32*
X-43190000Y47526000D02*
X-43190000Y48694000D01*
X-43825000Y47526000D02*
X-44548000Y47526000D01*
D34*
X-40105000Y25449000D02*
X-40105000Y24729000D01*
X-40105000Y32324000D02*
X-40105000Y34369000D01*
D32*
X-35415000Y23919000D02*
X-35415000Y24689000D01*
D34*
X-45305000Y34049000D02*
X-45305000Y33287000D01*
D32*
X-43825000Y47526000D02*
X-43825000Y48059000D01*
D34*
X-35069528Y25034472D02*
X-35415000Y24689000D01*
X-38105000Y33169000D02*
X-37205000Y34069000D01*
X-38105000Y32324000D02*
X-38105000Y33169000D01*
D32*
X-44548000Y47526000D02*
X-45025000Y47049000D01*
D34*
X-43742500Y31724500D02*
X-43742500Y31486500D01*
X-36867500Y27886500D02*
X-35392500Y27886500D01*
X-40105000Y34369000D02*
X-41005000Y35269000D01*
X-37705000Y32949000D02*
X-37305000Y33349000D01*
D32*
X-39085000Y23029000D02*
X-39105000Y23049000D01*
X-38405000Y23029000D02*
X-39085000Y23029000D01*
D35*
X-43055000Y51501500D02*
X-43055000Y48829000D01*
D34*
%TO.N,+1V1*%
X-39705000Y25449000D02*
X-39705000Y25022591D01*
X-37910000Y23534000D02*
X-37405000Y23029000D01*
X-40505000Y32324000D02*
X-40505000Y31897591D01*
X-38505000Y31897591D02*
X-38505000Y32324000D01*
X-39705000Y26749000D02*
X-39705000Y25449000D01*
X-38530000Y31450409D02*
X-38530000Y27227655D01*
X-38216409Y23534000D02*
X-37910000Y23534000D01*
X-42005000Y35269000D02*
X-42005000Y34977248D01*
X-39705000Y25022591D02*
X-38216409Y23534000D01*
X-42005000Y34977248D02*
X-40505000Y33477248D01*
X-38741091Y31661500D02*
X-38505000Y31897591D01*
X-39605000Y26849000D02*
X-39705000Y26749000D01*
X-40268909Y31661500D02*
X-38741091Y31661500D01*
X-40505000Y31897591D02*
X-40268909Y31661500D01*
X-38505000Y33769000D02*
X-38205000Y34069000D01*
X-38741091Y31661500D02*
X-38530000Y31450409D01*
X-38505000Y32324000D02*
X-38505000Y33769000D01*
X-40505000Y33477248D02*
X-40505000Y32324000D01*
X-38530000Y27227655D02*
X-38908655Y26849000D01*
X-38908655Y26849000D02*
X-39605000Y26849000D01*
%TO.N,/~{USB_BOOT}*%
X-41849500Y43629000D02*
X-44555000Y43629000D01*
X-40845000Y42279000D02*
X-40845000Y42624500D01*
X-40845000Y42624500D02*
X-41849500Y43629000D01*
%TO.N,/QSPI_SS*%
X-44305000Y39179000D02*
X-44305000Y33724000D01*
X-43210000Y41324000D02*
X-43210000Y40274000D01*
X-43210000Y40274000D02*
X-44305000Y39179000D01*
X-44555000Y42669000D02*
X-43210000Y41324000D01*
X-44305000Y33724000D02*
X-42905000Y32324000D01*
%TO.N,Net-(J1-CC1)*%
X-35300000Y53649000D02*
X-35155000Y53794000D01*
X-38180000Y53649000D02*
X-35300000Y53649000D01*
%TO.N,/QSPI_SD3*%
X-41940000Y45459330D02*
X-40650330Y46749000D01*
X-38575000Y46328594D02*
X-38575000Y38979000D01*
X-39664061Y37889939D02*
X-41545939Y37889939D01*
X-38995406Y46749000D02*
X-38575000Y46328594D01*
X-40650330Y46749000D02*
X-38995406Y46749000D01*
X-41545939Y37889939D02*
X-42805000Y36630878D01*
X-42805000Y36630878D02*
X-42805000Y34747465D01*
X-38575000Y38979000D02*
X-39664061Y37889939D01*
X-42805000Y34747465D02*
X-40905000Y32847465D01*
X-40905000Y32847465D02*
X-40905000Y32324000D01*
X-41940000Y45224000D02*
X-41940000Y45459330D01*
%TO.N,/QSPI_SCLK*%
X-40670000Y45224000D02*
X-40670000Y45459330D01*
X-43105000Y34623201D02*
X-41305000Y32823201D01*
X-41305000Y32823201D02*
X-41305000Y32324000D01*
X-38875000Y39279000D02*
X-39851929Y38302071D01*
X-41558071Y38302071D02*
X-43105000Y36755142D01*
X-39094670Y46424000D02*
X-38875000Y46204330D01*
X-43105000Y36755142D02*
X-43105000Y34623201D01*
X-39851929Y38302071D02*
X-41558071Y38302071D01*
X-40670000Y45459330D02*
X-39705330Y46424000D01*
X-39705330Y46424000D02*
X-39094670Y46424000D01*
X-38875000Y46204330D02*
X-38875000Y39279000D01*
%TO.N,/QSPI_SD0*%
X-40145000Y44479000D02*
X-40145000Y39293670D01*
X-40674467Y38764203D02*
X-41520203Y38764203D01*
X-41520203Y38764203D02*
X-43405000Y36879406D01*
X-40145000Y39293670D02*
X-40674467Y38764203D01*
X-43405000Y34498937D02*
X-41705000Y32798937D01*
X-43405000Y36879406D02*
X-43405000Y34498937D01*
X-39400000Y45224000D02*
X-40145000Y44479000D01*
X-41705000Y32798937D02*
X-41705000Y32324000D01*
%TO.N,/QSPI_SD2*%
X-43705000Y37003670D02*
X-43705000Y34374673D01*
X-40670000Y40038670D02*
X-43705000Y37003670D01*
X-42105000Y32774673D02*
X-42105000Y32324000D01*
X-43705000Y34374673D02*
X-42105000Y32774673D01*
X-40670000Y40274000D02*
X-40670000Y40038670D01*
%TO.N,/QSPI_SD1*%
X-44005000Y37973670D02*
X-44005000Y34250409D01*
X-42505000Y32750409D02*
X-42505000Y32324000D01*
X-44005000Y34250409D02*
X-42505000Y32750409D01*
X-41940000Y40274000D02*
X-41940000Y40038670D01*
X-41940000Y40038670D02*
X-44005000Y37973670D01*
D37*
%TO.N,/USB_D+*%
X-38945000Y37894001D02*
X-38585750Y38253251D01*
X-35292247Y41710805D02*
X-35292247Y51308145D01*
D34*
X-38109376Y52859000D02*
X-37345000Y52094624D01*
D37*
X-37345000Y51729196D02*
X-37345000Y51739000D01*
X-38585750Y38417302D02*
X-35292247Y41710805D01*
X-35292247Y51308145D02*
X-35544852Y51560750D01*
D34*
X-39700000Y52069000D02*
X-39370000Y51739000D01*
D37*
X-38585750Y38253251D02*
X-38585750Y38417302D01*
D34*
X-37345000Y52094624D02*
X-37345000Y51739000D01*
X-38180000Y52859000D02*
X-38109376Y52859000D01*
D37*
X-35544852Y51560750D02*
X-37176554Y51560750D01*
X-38945000Y37429000D02*
X-38945000Y37894001D01*
X-37176554Y51560750D02*
X-37345000Y51729196D01*
D34*
X-39370000Y51739000D02*
X-37345000Y51739000D01*
D37*
%TO.N,/USB_D-*%
X-36403446Y53337250D02*
X-37358887Y53337250D01*
X-36065000Y52998804D02*
X-36403446Y53337250D01*
X-37945000Y37894001D02*
X-38304250Y38253251D01*
X-37493887Y53202250D02*
X-39356750Y53202250D01*
D34*
X-39340000Y52859000D02*
X-38955000Y52474000D01*
X-38180000Y52069000D02*
X-38550000Y52069000D01*
X-39700000Y52859000D02*
X-39340000Y52859000D01*
D37*
X-39356750Y53202250D02*
X-39700000Y52859000D01*
X-37358887Y53337250D02*
X-37493887Y53202250D01*
X-35010747Y41594201D02*
X-35010747Y51424747D01*
X-38304250Y38253251D02*
X-38304250Y38300698D01*
D34*
X-38550000Y52069000D02*
X-38955000Y52474000D01*
D37*
X-37945000Y37429000D02*
X-37945000Y37894001D01*
X-35010747Y51424747D02*
X-36065000Y52479000D01*
X-36065000Y52479000D02*
X-36065000Y52998804D01*
X-38304250Y38300698D02*
X-35010747Y41594201D01*
D36*
%TO.N,Net-(C3-Pad1)*%
X-40605000Y19102000D02*
X-39608000Y18105000D01*
D34*
X-40557000Y22079000D02*
X-40557000Y20897000D01*
X-40557000Y20897000D02*
X-40605000Y20849000D01*
D36*
X-40605000Y20849000D02*
X-40605000Y19102000D01*
D38*
%TO.N,Net-(J1-CC2)*%
X-36052200Y47581800D02*
X-37280000Y46354000D01*
X-39700000Y51279000D02*
X-39247800Y50826800D01*
X-36524393Y50826800D02*
X-36052200Y50354607D01*
X-39247800Y50826800D02*
X-36524393Y50826800D01*
X-36052200Y50354607D02*
X-36052200Y47581800D01*
D34*
%TO.N,Net-(U3-USB_DP)*%
X-39230000Y32399000D02*
X-39230000Y36184000D01*
X-39305000Y32324000D02*
X-39230000Y32399000D01*
X-39230000Y36184000D02*
X-38945000Y36469000D01*
%TO.N,/A19*%
X-36185000Y26359698D02*
X-36185000Y25799000D01*
X-46555000Y19769000D02*
X-47160000Y19164000D01*
X-48629569Y19164000D02*
X-49480000Y20014431D01*
X-36511802Y26686500D02*
X-36185000Y26359698D01*
X-47160000Y19164000D02*
X-48629569Y19164000D01*
X-49480000Y20014431D02*
X-49480000Y54474000D01*
X-36867500Y26686500D02*
X-36511802Y26686500D01*
X-49480000Y54474000D02*
X-48205000Y55749000D01*
%TO.N,/A16*%
X-38105000Y24484477D02*
X-36835000Y23214477D01*
X-44483000Y16730000D02*
X-45065000Y17312000D01*
X-36835000Y23214477D02*
X-36835000Y18399000D01*
X-45065000Y17312000D02*
X-45065000Y18269000D01*
X-38105000Y25449000D02*
X-38105000Y24484477D01*
X-38504000Y16730000D02*
X-44483000Y16730000D01*
X-36835000Y18399000D02*
X-38504000Y16730000D01*
%TO.N,/A15*%
X-45235000Y21439000D02*
X-45235000Y18989000D01*
X-41705000Y25449000D02*
X-41705000Y24969000D01*
X-41705000Y24969000D02*
X-45235000Y21439000D01*
%TO.N,/A12*%
X-47780431Y26784000D02*
X-48629569Y26784000D01*
X-49230000Y47104000D02*
X-48205000Y48129000D01*
X-49230000Y27384431D02*
X-49230000Y47104000D01*
X-46322431Y25326000D02*
X-47780431Y26784000D01*
X-43028000Y25326000D02*
X-46322431Y25326000D01*
X-48629569Y26784000D02*
X-49230000Y27384431D01*
X-42905000Y25449000D02*
X-43028000Y25326000D01*
%TO.N,/A7*%
X-43742500Y28286500D02*
X-44812500Y28286500D01*
X-44812500Y28286500D02*
X-44825000Y28299000D01*
%TO.N,/A6*%
X-44482500Y28686500D02*
X-44735000Y28939000D01*
X-43742500Y28686500D02*
X-44482500Y28686500D01*
%TO.N,/A5*%
X-43742500Y29086500D02*
X-44193305Y29086500D01*
X-44193305Y29086500D02*
X-44758427Y29651622D01*
X-44758427Y29651622D02*
X-44886941Y29651622D01*
%TO.N,/A4*%
X-43130000Y31629698D02*
X-44555000Y33054698D01*
X-43386802Y29486500D02*
X-43130000Y29743302D01*
X-44555000Y36139000D02*
X-45905000Y37489000D01*
X-43130000Y29743302D02*
X-43130000Y31629698D01*
X-43742500Y29486500D02*
X-43386802Y29486500D01*
X-44555000Y33054698D02*
X-44555000Y36139000D01*
%TO.N,/A3*%
X-44450067Y29886500D02*
X-44864374Y30300807D01*
X-44864374Y30300807D02*
X-44907246Y30300807D01*
X-43742500Y29886500D02*
X-44450067Y29886500D01*
%TO.N,/A2*%
X-43742500Y30286500D02*
X-44221187Y30286500D01*
X-44221187Y30286500D02*
X-44710494Y30775807D01*
X-45348758Y30775807D02*
X-45395966Y30728599D01*
X-44710494Y30775807D02*
X-45348758Y30775807D01*
%TO.N,/A1*%
X-43742500Y30686500D02*
X-44267633Y30686500D01*
X-44267633Y30686500D02*
X-44784732Y31203599D01*
X-45592718Y31203599D02*
X-45895000Y30901317D01*
X-44784732Y31203599D02*
X-45592718Y31203599D01*
X-45895000Y30901317D02*
X-45895000Y30229000D01*
%TO.N,/A0*%
X-45696272Y31453599D02*
X-46435419Y30714451D01*
X-46435419Y30714451D02*
X-46435419Y29868721D01*
X-44314079Y31086500D02*
X-44681179Y31453599D01*
X-43742500Y31086500D02*
X-44314079Y31086500D01*
X-44681179Y31453599D02*
X-45696272Y31453599D01*
%TO.N,/D0*%
X-37293909Y28286500D02*
X-38005500Y27574909D01*
X-38005500Y27269064D02*
X-38900064Y26374500D01*
X-36867500Y28286500D02*
X-37293909Y28286500D01*
X-38005500Y27574909D02*
X-38005500Y27269064D01*
X-38900064Y26374500D02*
X-39230500Y26374500D01*
%TO.N,/D1*%
X-37564955Y28686500D02*
X-38005885Y28245570D01*
X-36867500Y28686500D02*
X-37564955Y28686500D01*
%TO.N,/D2*%
X-37704500Y29497091D02*
X-37704500Y29499000D01*
X-37293909Y29086500D02*
X-37704500Y29497091D01*
%TO.N,Net-(U3-USB_DM)*%
X-38905000Y35509000D02*
X-37945000Y36469000D01*
X-38905000Y32324000D02*
X-38905000Y35509000D01*
%TO.N,/A18*%
X-36085000Y24349000D02*
X-36085000Y20207248D01*
X-36867500Y26286500D02*
X-36867500Y25131500D01*
X-34651752Y18774000D02*
X-32700431Y18774000D01*
X-36867500Y25131500D02*
X-36085000Y24349000D01*
X-31741000Y19733431D02*
X-31741000Y52153000D01*
X-36085000Y20207248D02*
X-34651752Y18774000D01*
X-32700431Y18774000D02*
X-31741000Y19733431D01*
X-31741000Y52153000D02*
X-32766000Y53178000D01*
%TO.N,/A17*%
X-33190569Y54203000D02*
X-33791000Y53602569D01*
X-36335000Y19737431D02*
X-33190569Y16593000D01*
X-33190569Y16593000D02*
X-32341431Y16593000D01*
X-33791000Y53602569D02*
X-33791000Y51663000D01*
X-31491000Y53352569D02*
X-32341431Y54203000D01*
X-37705000Y25449000D02*
X-36335000Y24079000D01*
X-31491000Y17443431D02*
X-31491000Y53352569D01*
X-36335000Y24079000D02*
X-36335000Y19737431D01*
X-32341431Y54203000D02*
X-33190569Y54203000D01*
X-32341431Y16593000D02*
X-31491000Y17443431D01*
X-33791000Y51663000D02*
X-32766000Y50638000D01*
%TO.N,/A14*%
X-45735000Y19669000D02*
X-45735000Y16309000D01*
X-37305000Y16309000D02*
X-36675000Y16939000D01*
X-42105000Y25449000D02*
X-42105000Y25093302D01*
X-45735000Y16309000D02*
X-37305000Y16309000D01*
X-45735000Y21463302D02*
X-45735000Y19669000D01*
X-42105000Y25093302D02*
X-45735000Y21463302D01*
%TO.N,/A13*%
X-35915000Y17039000D02*
X-36940000Y16014000D01*
X-42505000Y25093302D02*
X-42505000Y25449000D01*
X-36940000Y16014000D02*
X-45820000Y16014000D01*
X-45985000Y21613302D02*
X-42505000Y25093302D01*
X-45985000Y16179000D02*
X-45985000Y21613302D01*
X-45820000Y16014000D02*
X-45985000Y16179000D01*
%TO.N,/A8*%
X-43742500Y27486500D02*
X-43855000Y27374000D01*
X-46915000Y42479000D02*
X-44625000Y44769000D01*
X-46915000Y28083523D02*
X-46915000Y42479000D01*
X-46205477Y27374000D02*
X-46915000Y28083523D01*
X-43855000Y27374000D02*
X-46205477Y27374000D01*
%TO.N,/A9*%
X-45708248Y25576000D02*
X-44197748Y27086500D01*
X-44197748Y27086500D02*
X-43742500Y27086500D01*
X-45995000Y44129000D02*
X-47165000Y42959000D01*
X-47165000Y42959000D02*
X-47165000Y26639248D01*
X-46101752Y25576000D02*
X-45708248Y25576000D01*
X-47165000Y26639248D02*
X-46101752Y25576000D01*
%TO.N,/A11*%
X-43386802Y26286500D02*
X-43130000Y26543302D01*
X-42430000Y27684000D02*
X-42835000Y28089000D01*
X-43742500Y26286500D02*
X-43386802Y26286500D01*
X-42430000Y27132248D02*
X-42430000Y27684000D01*
X-43130000Y26543302D02*
X-43018946Y26543302D01*
X-43018946Y26543302D02*
X-42430000Y27132248D01*
%TO.N,/~{OE}*%
X-36189002Y27086500D02*
X-36043801Y26941299D01*
X-34730000Y32074000D02*
X-34730000Y33434000D01*
X-35105000Y31699000D02*
X-34730000Y32074000D01*
X-34730000Y33434000D02*
X-32766000Y35398000D01*
X-36867500Y27086500D02*
X-36189002Y27086500D01*
%TO.N,/A10*%
X-43742500Y26686500D02*
X-43386802Y26686500D01*
X-43386802Y26686500D02*
X-42905000Y27168302D01*
X-42905000Y27168302D02*
X-42905000Y27329000D01*
%TO.N,/~{CE}*%
X-35602500Y27486500D02*
X-35525000Y27409000D01*
X-36867500Y27486500D02*
X-35602500Y27486500D01*
%TO.N,/D7*%
X-36074500Y31086500D02*
X-36867500Y31086500D01*
X-32766000Y27778000D02*
X-36074500Y31086500D01*
%TO.N,/D6*%
X-33841000Y26313000D02*
X-33841000Y28428736D01*
X-32766000Y25238000D02*
X-33841000Y26313000D01*
X-33841000Y28428736D02*
X-36098764Y30686500D01*
X-36098764Y30686500D02*
X-36867500Y30686500D01*
%TO.N,/D5*%
X-36123028Y30286500D02*
X-36867500Y30286500D01*
X-34141000Y28304472D02*
X-36123028Y30286500D01*
X-32766000Y22698000D02*
X-34141000Y24073000D01*
X-34141000Y24073000D02*
X-34141000Y28304472D01*
%TO.N,/D4*%
X-34441000Y21833000D02*
X-34441000Y28180208D01*
X-32766000Y20158000D02*
X-34441000Y21833000D01*
X-36147292Y29886500D02*
X-36867500Y29886500D01*
X-34441000Y28180208D02*
X-36147292Y29886500D01*
%TO.N,/D3*%
X-36171556Y29486500D02*
X-34769528Y28084472D01*
X-34769528Y19563528D02*
X-34455000Y19249000D01*
X-34769528Y28084472D02*
X-34769528Y19563528D01*
X-36867500Y29486500D02*
X-36171556Y29486500D01*
%TD*%
M02*
